//Event file generated from Sappy .s format.
	#include "MPlayDef.event"

	#define	BitterBreeze_grp  voicegroup000
	#define	BitterBreeze_pri  0
	#define	BitterBreeze_rev  0
	#define	BitterBreeze_mvl  127
	#define	BitterBreeze_key  0
	#define	BitterBreeze_tbs  1
	#define	BitterBreeze_exg  0
	#define	BitterBreeze_cmp  1

	// .rodata
	//	BitterBreeze
	ALIGN 4

//**************** Track 1 (Midi-Chn.1) ****************//

BitterBreeze_1:
	BYTE	KEYSH   BitterBreeze_key+0
// 000   ----------------------------------------
	BYTE	TEMPO   130*BitterBreeze_tbs/2
	BYTE		VOICE   15
	BYTE		VOL     53*BitterBreeze_mvl/mxv
	BYTE		PAN     c_v+0
	BYTE		        c_v+0
	BYTE		        c_v+0
	BYTE		        c_v+0
	BYTE		BEND    c_v+0
	BYTE		N11     An2   v100
	BYTE	W12
	BYTE		N11   
	BYTE	W12
	BYTE		N11   
	BYTE	W12
	BYTE		N11   
	BYTE	W12
	BYTE		N11   
	BYTE	W12
	BYTE		N11   
	BYTE	W12
	BYTE		N11   
	BYTE	W12
	BYTE		N11   
	BYTE	W12
// 001   ----------------------------------------
BitterBreeze_1_001:
	BYTE		N11     An2   v100
	BYTE	W12
	BYTE		N11   
	BYTE	W12
	BYTE		N11   
	BYTE	W12
	BYTE		N11   
	BYTE	W12
	BYTE		N11   
	BYTE	W12
	BYTE		N11   
	BYTE	W12
	BYTE		N11   
	BYTE	W12
	BYTE		N11   
	BYTE	W12
	BYTE	PEND
// 002   ----------------------------------------
	BYTE	PATT
	 POIN2	BitterBreeze_1_001
// 003   ----------------------------------------
	BYTE	PATT
	 POIN2	BitterBreeze_1_001
// 004   ----------------------------------------
	BYTE	PATT
	 POIN2	BitterBreeze_1_001
// 005   ----------------------------------------
	BYTE	PATT
	 POIN2	BitterBreeze_1_001
// 006   ----------------------------------------
	BYTE	PATT
	 POIN2	BitterBreeze_1_001
// 007   ----------------------------------------
	BYTE	PATT
	 POIN2	BitterBreeze_1_001
// 008   ----------------------------------------
	BYTE	PATT
	 POIN2	BitterBreeze_1_001
// 009   ----------------------------------------
	BYTE	PATT
	 POIN2	BitterBreeze_1_001
BitterBreeze_1_B1:
// 010   ----------------------------------------
	BYTE	PATT
	 POIN2	BitterBreeze_1_001
// 011   ----------------------------------------
	BYTE	PATT
	 POIN2	BitterBreeze_1_001
// 012   ----------------------------------------
BitterBreeze_1_012:
	BYTE		N11     Gn2   v100
	BYTE	W12
	BYTE		N11   
	BYTE	W12
	BYTE		N11   
	BYTE	W12
	BYTE		N11   
	BYTE	W12
	BYTE		N11   
	BYTE	W12
	BYTE		N11   
	BYTE	W12
	BYTE		N11   
	BYTE	W12
	BYTE		N11   
	BYTE	W12
	BYTE	PEND
// 013   ----------------------------------------
	BYTE	PATT
	 POIN2	BitterBreeze_1_012
// 014   ----------------------------------------
BitterBreeze_1_014:
	BYTE		N11     Fn2   v100
	BYTE	W12
	BYTE		N11   
	BYTE	W12
	BYTE		N11   
	BYTE	W12
	BYTE		N11   
	BYTE	W12
	BYTE		N11   
	BYTE	W12
	BYTE		N11   
	BYTE	W12
	BYTE		N11   
	BYTE	W12
	BYTE		N11   
	BYTE	W12
	BYTE	PEND
// 015   ----------------------------------------
	BYTE	PATT
	 POIN2	BitterBreeze_1_014
// 016   ----------------------------------------
	BYTE	PATT
	 POIN2	BitterBreeze_1_012
// 017   ----------------------------------------
	BYTE	PATT
	 POIN2	BitterBreeze_1_012
// 018   ----------------------------------------
	BYTE	PATT
	 POIN2	BitterBreeze_1_001
// 019   ----------------------------------------
	BYTE	PATT
	 POIN2	BitterBreeze_1_001
// 020   ----------------------------------------
	BYTE	PATT
	 POIN2	BitterBreeze_1_012
// 021   ----------------------------------------
	BYTE	PATT
	 POIN2	BitterBreeze_1_012
// 022   ----------------------------------------
	BYTE	PATT
	 POIN2	BitterBreeze_1_014
// 023   ----------------------------------------
	BYTE	PATT
	 POIN2	BitterBreeze_1_014
// 024   ----------------------------------------
BitterBreeze_1_024:
	BYTE		N11     En2   v100
	BYTE	W12
	BYTE		N11   
	BYTE	W12
	BYTE		N11   
	BYTE	W12
	BYTE		N11   
	BYTE	W12
	BYTE		N11   
	BYTE	W12
	BYTE		N11   
	BYTE	W12
	BYTE		N11   
	BYTE	W12
	BYTE		N11   
	BYTE	W12
	BYTE	PEND
// 025   ----------------------------------------
	BYTE	PATT
	 POIN2	BitterBreeze_1_024
// 026   ----------------------------------------
	BYTE	PATT
	 POIN2	BitterBreeze_1_001
// 027   ----------------------------------------
	BYTE	PATT
	 POIN2	BitterBreeze_1_001
// 028   ----------------------------------------
	BYTE	PATT
	 POIN2	BitterBreeze_1_012
// 029   ----------------------------------------
	BYTE	PATT
	 POIN2	BitterBreeze_1_012
// 030   ----------------------------------------
	BYTE	PATT
	 POIN2	BitterBreeze_1_014
// 031   ----------------------------------------
	BYTE	PATT
	 POIN2	BitterBreeze_1_014
// 032   ----------------------------------------
	BYTE	PATT
	 POIN2	BitterBreeze_1_012
// 033   ----------------------------------------
	BYTE	PATT
	 POIN2	BitterBreeze_1_012
// 034   ----------------------------------------
	BYTE	PATT
	 POIN2	BitterBreeze_1_001
// 035   ----------------------------------------
	BYTE	PATT
	 POIN2	BitterBreeze_1_001
// 036   ----------------------------------------
	BYTE	PATT
	 POIN2	BitterBreeze_1_012
// 037   ----------------------------------------
	BYTE	PATT
	 POIN2	BitterBreeze_1_012
// 038   ----------------------------------------
	BYTE	PATT
	 POIN2	BitterBreeze_1_014
// 039   ----------------------------------------
	BYTE	PATT
	 POIN2	BitterBreeze_1_014
// 040   ----------------------------------------
	BYTE	PATT
	 POIN2	BitterBreeze_1_024
// 041   ----------------------------------------
BitterBreeze_1_041:
	BYTE		N11     Gs2   v100
	BYTE	W12
	BYTE		N11   
	BYTE	W12
	BYTE		N11   
	BYTE	W12
	BYTE		N11   
	BYTE	W12
	BYTE		N11   
	BYTE	W12
	BYTE		N11   
	BYTE	W12
	BYTE		N11   
	BYTE	W12
	BYTE		N11   
	BYTE	W12
	BYTE	PEND
// 042   ----------------------------------------
	BYTE	PATT
	 POIN2	BitterBreeze_1_001
// 043   ----------------------------------------
	BYTE	PATT
	 POIN2	BitterBreeze_1_001
// 044   ----------------------------------------
	BYTE	PATT
	 POIN2	BitterBreeze_1_012
// 045   ----------------------------------------
	BYTE	PATT
	 POIN2	BitterBreeze_1_012
// 046   ----------------------------------------
	BYTE	PATT
	 POIN2	BitterBreeze_1_014
// 047   ----------------------------------------
	BYTE	PATT
	 POIN2	BitterBreeze_1_014
// 048   ----------------------------------------
	BYTE	PATT
	 POIN2	BitterBreeze_1_012
// 049   ----------------------------------------
	BYTE	PATT
	 POIN2	BitterBreeze_1_012
// 050   ----------------------------------------
	BYTE	PATT
	 POIN2	BitterBreeze_1_001
// 051   ----------------------------------------
	BYTE	PATT
	 POIN2	BitterBreeze_1_001
// 052   ----------------------------------------
	BYTE	PATT
	 POIN2	BitterBreeze_1_012
// 053   ----------------------------------------
	BYTE	PATT
	 POIN2	BitterBreeze_1_012
// 054   ----------------------------------------
	BYTE	PATT
	 POIN2	BitterBreeze_1_014
// 055   ----------------------------------------
	BYTE	PATT
	 POIN2	BitterBreeze_1_014
// 056   ----------------------------------------
	BYTE	PATT
	 POIN2	BitterBreeze_1_024
// 057   ----------------------------------------
	BYTE	PATT
	 POIN2	BitterBreeze_1_024
// 058   ----------------------------------------
	BYTE	PATT
	 POIN2	BitterBreeze_1_041
// 059   ----------------------------------------
	BYTE	PATT
	 POIN2	BitterBreeze_1_041
// 060   ----------------------------------------
BitterBreeze_1_060:
	BYTE		N11     Fs2   v100
	BYTE	W12
	BYTE		N11   
	BYTE	W12
	BYTE		N11   
	BYTE	W12
	BYTE		N11   
	BYTE	W12
	BYTE		N11   
	BYTE	W12
	BYTE		N11   
	BYTE	W12
	BYTE		N11   
	BYTE	W12
	BYTE		N11   
	BYTE	W12
	BYTE	PEND
// 061   ----------------------------------------
	BYTE	PATT
	 POIN2	BitterBreeze_1_060
// 062   ----------------------------------------
	BYTE	PATT
	 POIN2	BitterBreeze_1_024
// 063   ----------------------------------------
	BYTE	PATT
	 POIN2	BitterBreeze_1_024
// 064   ----------------------------------------
	BYTE	PATT
	 POIN2	BitterBreeze_1_060
// 065   ----------------------------------------
	BYTE	PATT
	 POIN2	BitterBreeze_1_060
// 066   ----------------------------------------
	BYTE	PATT
	 POIN2	BitterBreeze_1_041
// 067   ----------------------------------------
	BYTE	PATT
	 POIN2	BitterBreeze_1_041
// 068   ----------------------------------------
	BYTE	PATT
	 POIN2	BitterBreeze_1_060
// 069   ----------------------------------------
	BYTE	PATT
	 POIN2	BitterBreeze_1_060
// 070   ----------------------------------------
	BYTE	PATT
	 POIN2	BitterBreeze_1_024
// 071   ----------------------------------------
	BYTE	PATT
	 POIN2	BitterBreeze_1_024
// 072   ----------------------------------------
BitterBreeze_1_072:
	BYTE		N11     Cn2   v100
	BYTE	W12
	BYTE		N11   
	BYTE	W12
	BYTE		N11   
	BYTE	W12
	BYTE		N11   
	BYTE	W12
	BYTE		N11   
	BYTE	W12
	BYTE		N11   
	BYTE	W12
	BYTE		N11   
	BYTE	W12
	BYTE		N11   
	BYTE	W12
	BYTE	PEND
// 073   ----------------------------------------
	BYTE	PATT
	 POIN2	BitterBreeze_1_072
// 074   ----------------------------------------
	BYTE	PATT
	 POIN2	BitterBreeze_1_001
// 075   ----------------------------------------
	BYTE	PATT
	 POIN2	BitterBreeze_1_001
// 076   ----------------------------------------
	BYTE	PATT
	 POIN2	BitterBreeze_1_001
// 077   ----------------------------------------
	BYTE	PATT
	 POIN2	BitterBreeze_1_001
	BYTE	GoTo
	 POIN2	BitterBreeze_1_B1
BitterBreeze_1_B2:
// 078   ----------------------------------------
	BYTE		PAN     c_v+0
	BYTE		        c_v+0
	BYTE		        c_v+0
	BYTE		BEND    c_v+0
	BYTE	FINE

//**************** Track 2 (Midi-Chn.2) ****************//

BitterBreeze_2:
	BYTE	KEYSH   BitterBreeze_key+0
// 000   ----------------------------------------
	BYTE		VOICE   34
	BYTE		VOL     51*BitterBreeze_mvl/mxv
	BYTE		PAN     c_v+0
	BYTE		        c_v+0
	BYTE		        c_v+0
	BYTE		        c_v+0
	BYTE		BEND    c_v+0
	BYTE	W96
// 001   ----------------------------------------
	BYTE	W96
// 002   ----------------------------------------
BitterBreeze_2_002:
	BYTE		N32     En3   v100
	BYTE	W36
	BYTE		N56     Cn3 
	BYTE	W60
	BYTE	PEND
// 003   ----------------------------------------
	BYTE		N32     Dn3 
	BYTE	W36
	BYTE		N56     Gn3 
	BYTE	W60
// 004   ----------------------------------------
	BYTE	PATT
	 POIN2	BitterBreeze_2_002
// 005   ----------------------------------------
BitterBreeze_2_005:
	BYTE		N32     Bn2   v100
	BYTE	W36
	BYTE		N56     Gn2 
	BYTE	W60
	BYTE	PEND
// 006   ----------------------------------------
	BYTE	PATT
	 POIN2	BitterBreeze_2_002
// 007   ----------------------------------------
	BYTE	PATT
	 POIN2	BitterBreeze_2_005
// 008   ----------------------------------------
	BYTE		N23     An2   v100
	BYTE	W24
	BYTE		        Bn2 
	BYTE	W24
	BYTE		        Cn3 
	BYTE	W24
	BYTE		        Bn2 
	BYTE	W24
// 009   ----------------------------------------
	BYTE		N92     An2 
	BYTE	W96
BitterBreeze_2_B1:
// 010   ----------------------------------------
	BYTE		N92     An2   v100
	BYTE	W96
// 011   ----------------------------------------
	BYTE		N92   
	BYTE	W96
// 012   ----------------------------------------
	BYTE		        Gn2 
	BYTE	W96
// 013   ----------------------------------------
	BYTE		N92   
	BYTE	W96
// 014   ----------------------------------------
	BYTE		        Fn2 
	BYTE	W96
// 015   ----------------------------------------
	BYTE		N92   
	BYTE	W96
// 016   ----------------------------------------
	BYTE		        Gn2 
	BYTE	W96
// 017   ----------------------------------------
	BYTE		N92   
	BYTE	W96
// 018   ----------------------------------------
	BYTE		        An2 
	BYTE	W96
// 019   ----------------------------------------
	BYTE		N92   
	BYTE	W96
// 020   ----------------------------------------
	BYTE		        Gn2 
	BYTE	W96
// 021   ----------------------------------------
	BYTE		N92   
	BYTE	W96
// 022   ----------------------------------------
	BYTE		        Fn2 
	BYTE	W96
// 023   ----------------------------------------
	BYTE		N92   
	BYTE	W96
// 024   ----------------------------------------
	BYTE		        En2 
	BYTE	W96
// 025   ----------------------------------------
	BYTE		N92   
	BYTE	W96
// 026   ----------------------------------------
	BYTE		        An2 
	BYTE	W96
// 027   ----------------------------------------
	BYTE		N92   
	BYTE	W96
// 028   ----------------------------------------
	BYTE		        Gn2 
	BYTE	W96
// 029   ----------------------------------------
	BYTE		N92   
	BYTE	W96
// 030   ----------------------------------------
	BYTE		        Fn2 
	BYTE	W96
// 031   ----------------------------------------
	BYTE		N92   
	BYTE	W96
// 032   ----------------------------------------
	BYTE		        Gn2 
	BYTE	W96
// 033   ----------------------------------------
	BYTE		N92   
	BYTE	W96
// 034   ----------------------------------------
	BYTE		        An2 
	BYTE	W96
// 035   ----------------------------------------
	BYTE		N92   
	BYTE	W96
// 036   ----------------------------------------
	BYTE		        Gn2 
	BYTE	W96
// 037   ----------------------------------------
	BYTE		N92   
	BYTE	W96
// 038   ----------------------------------------
	BYTE		        Fn2 
	BYTE	W96
// 039   ----------------------------------------
	BYTE		N92   
	BYTE	W96
// 040   ----------------------------------------
	BYTE		        En2 
	BYTE	W96
// 041   ----------------------------------------
	BYTE		        Gs2 
	BYTE	W96
// 042   ----------------------------------------
	BYTE		        An2 
	BYTE	W96
// 043   ----------------------------------------
	BYTE		N92   
	BYTE	W96
// 044   ----------------------------------------
	BYTE		        Gn2 
	BYTE	W96
// 045   ----------------------------------------
	BYTE		N92   
	BYTE	W96
// 046   ----------------------------------------
	BYTE		        Fn2 
	BYTE	W96
// 047   ----------------------------------------
	BYTE		N92   
	BYTE	W96
// 048   ----------------------------------------
	BYTE		        Gn2 
	BYTE	W96
// 049   ----------------------------------------
	BYTE		N92   
	BYTE	W96
// 050   ----------------------------------------
	BYTE		        An2 
	BYTE	W96
// 051   ----------------------------------------
	BYTE		N92   
	BYTE	W96
// 052   ----------------------------------------
	BYTE		        Gn2 
	BYTE	W96
// 053   ----------------------------------------
	BYTE		N92   
	BYTE	W96
// 054   ----------------------------------------
	BYTE		        Fn2 
	BYTE	W96
// 055   ----------------------------------------
	BYTE		N92   
	BYTE	W96
// 056   ----------------------------------------
	BYTE		        En2 
	BYTE	W96
// 057   ----------------------------------------
	BYTE		N92   
	BYTE	W96
// 058   ----------------------------------------
	BYTE		        Gs2 
	BYTE	W96
// 059   ----------------------------------------
	BYTE		N92   
	BYTE	W96
// 060   ----------------------------------------
	BYTE		        Fs2 
	BYTE	W96
// 061   ----------------------------------------
	BYTE		N92   
	BYTE	W96
// 062   ----------------------------------------
	BYTE		        En2 
	BYTE	W96
// 063   ----------------------------------------
	BYTE		N92   
	BYTE	W96
// 064   ----------------------------------------
	BYTE		        Fs2 
	BYTE	W96
// 065   ----------------------------------------
	BYTE		N92   
	BYTE	W96
// 066   ----------------------------------------
	BYTE		        Gs2 
	BYTE	W96
// 067   ----------------------------------------
	BYTE		N92   
	BYTE	W96
// 068   ----------------------------------------
	BYTE		        Fs2 
	BYTE	W96
// 069   ----------------------------------------
	BYTE		N92   
	BYTE	W96
// 070   ----------------------------------------
	BYTE		        En2 
	BYTE	W96
// 071   ----------------------------------------
	BYTE		N92   
	BYTE	W96
// 072   ----------------------------------------
	BYTE		        Cn2 
	BYTE	W96
// 073   ----------------------------------------
	BYTE		N92   
	BYTE	W96
// 074   ----------------------------------------
	BYTE		        An1 
	BYTE	W96
// 075   ----------------------------------------
	BYTE		N92   
	BYTE	W96
// 076   ----------------------------------------
	BYTE		        An2 
	BYTE	W96
// 077   ----------------------------------------
	BYTE		N92   
	BYTE	W96
	BYTE	GoTo
	 POIN2	BitterBreeze_2_B1
BitterBreeze_2_B2:
// 078   ----------------------------------------
	BYTE		PAN     c_v+0
	BYTE		        c_v+0
	BYTE		        c_v+0
	BYTE		BEND    c_v+0
	BYTE	FINE

//**************** Track 3 (Midi-Chn.3) ****************//

BitterBreeze_3:
	BYTE	KEYSH   BitterBreeze_key+0
// 000   ----------------------------------------
	BYTE		VOICE   50
	BYTE		VOL     51*BitterBreeze_mvl/mxv
	BYTE		PAN     c_v+0
	BYTE		        c_v+0
	BYTE		        c_v+0
	BYTE		        c_v+0
	BYTE		BEND    c_v+0
	BYTE	W96
// 001   ----------------------------------------
	BYTE	W96
// 002   ----------------------------------------
	BYTE	W96
// 003   ----------------------------------------
	BYTE	W96
// 004   ----------------------------------------
	BYTE	W96
// 005   ----------------------------------------
	BYTE	W96
// 006   ----------------------------------------
	BYTE	W96
// 007   ----------------------------------------
	BYTE	W96
// 008   ----------------------------------------
	BYTE	W96
// 009   ----------------------------------------
	BYTE	W96
BitterBreeze_3_B1:
// 010   ----------------------------------------
BitterBreeze_3_010:
	BYTE		TIE     An1   v100
	BYTE		TIE     An2 
	BYTE	W96
	BYTE	PEND
// 011   ----------------------------------------
	BYTE	W92
	BYTE	W03
	BYTE		EOT     An1 
	BYTE		        An2 
	BYTE	W01
// 012   ----------------------------------------
BitterBreeze_3_012:
	BYTE		TIE     Gn1   v100
	BYTE		TIE     Gn2 
	BYTE	W96
	BYTE	PEND
// 013   ----------------------------------------
	BYTE	W92
	BYTE	W03
	BYTE		EOT     Gn1 
	BYTE		        Gn2 
	BYTE	W01
// 014   ----------------------------------------
BitterBreeze_3_014:
	BYTE		TIE     Fn1   v100
	BYTE		TIE     Fn2 
	BYTE	W96
	BYTE	PEND
// 015   ----------------------------------------
	BYTE	W92
	BYTE	W03
	BYTE		EOT     Fn1 
	BYTE		        Fn2 
	BYTE	W01
// 016   ----------------------------------------
	BYTE	PATT
	 POIN2	BitterBreeze_3_012
// 017   ----------------------------------------
	BYTE	W92
	BYTE	W03
	BYTE		EOT     Gn1 
	BYTE		        Gn2 
	BYTE	W01
// 018   ----------------------------------------
	BYTE	PATT
	 POIN2	BitterBreeze_3_010
// 019   ----------------------------------------
	BYTE	W92
	BYTE	W03
	BYTE		EOT     An1 
	BYTE		        An2 
	BYTE	W01
// 020   ----------------------------------------
	BYTE	PATT
	 POIN2	BitterBreeze_3_012
// 021   ----------------------------------------
	BYTE	W92
	BYTE	W03
	BYTE		EOT     Gn1 
	BYTE		        Gn2 
	BYTE	W01
// 022   ----------------------------------------
	BYTE	PATT
	 POIN2	BitterBreeze_3_014
// 023   ----------------------------------------
	BYTE	W92
	BYTE	W03
	BYTE		EOT     Fn1 
	BYTE		        Fn2 
	BYTE	W01
// 024   ----------------------------------------
BitterBreeze_3_024:
	BYTE		TIE     En1   v100
	BYTE		TIE     En2 
	BYTE	W96
	BYTE	PEND
// 025   ----------------------------------------
	BYTE	W92
	BYTE	W03
	BYTE		EOT     En1 
	BYTE		        En2 
	BYTE	W01
// 026   ----------------------------------------
	BYTE	PATT
	 POIN2	BitterBreeze_3_010
// 027   ----------------------------------------
	BYTE	W92
	BYTE	W03
	BYTE		EOT     An1 
	BYTE		        An2 
	BYTE	W01
// 028   ----------------------------------------
	BYTE	PATT
	 POIN2	BitterBreeze_3_012
// 029   ----------------------------------------
	BYTE	W92
	BYTE	W03
	BYTE		EOT     Gn1 
	BYTE		        Gn2 
	BYTE	W01
// 030   ----------------------------------------
	BYTE	PATT
	 POIN2	BitterBreeze_3_014
// 031   ----------------------------------------
	BYTE	W92
	BYTE	W03
	BYTE		EOT     Fn1 
	BYTE		        Fn2 
	BYTE	W01
// 032   ----------------------------------------
	BYTE	PATT
	 POIN2	BitterBreeze_3_012
// 033   ----------------------------------------
	BYTE	W92
	BYTE	W03
	BYTE		EOT     Gn1 
	BYTE		        Gn2 
	BYTE	W01
// 034   ----------------------------------------
	BYTE	PATT
	 POIN2	BitterBreeze_3_010
// 035   ----------------------------------------
	BYTE	W92
	BYTE	W03
	BYTE		EOT     An1 
	BYTE		        An2 
	BYTE	W01
// 036   ----------------------------------------
	BYTE	PATT
	 POIN2	BitterBreeze_3_012
// 037   ----------------------------------------
	BYTE	W92
	BYTE	W03
	BYTE		EOT     Gn1 
	BYTE		        Gn2 
	BYTE	W01
// 038   ----------------------------------------
	BYTE	PATT
	 POIN2	BitterBreeze_3_014
// 039   ----------------------------------------
	BYTE	W92
	BYTE	W03
	BYTE		EOT     Fn1 
	BYTE		        Fn2 
	BYTE	W01
// 040   ----------------------------------------
	BYTE		N92     En1   v100
	BYTE		N92     En2 
	BYTE	W96
// 041   ----------------------------------------
	BYTE		        Gs1 
	BYTE		N92     Gs2 
	BYTE	W96
// 042   ----------------------------------------
	BYTE	PATT
	 POIN2	BitterBreeze_3_010
// 043   ----------------------------------------
	BYTE	W92
	BYTE	W03
	BYTE		EOT     An1 
	BYTE		        An2 
	BYTE	W01
// 044   ----------------------------------------
	BYTE	PATT
	 POIN2	BitterBreeze_3_012
// 045   ----------------------------------------
	BYTE	W92
	BYTE	W03
	BYTE		EOT     Gn1 
	BYTE		        Gn2 
	BYTE	W01
// 046   ----------------------------------------
	BYTE	PATT
	 POIN2	BitterBreeze_3_014
// 047   ----------------------------------------
	BYTE	W92
	BYTE	W03
	BYTE		EOT     Fn1 
	BYTE		        Fn2 
	BYTE	W01
// 048   ----------------------------------------
	BYTE	PATT
	 POIN2	BitterBreeze_3_012
// 049   ----------------------------------------
	BYTE	W92
	BYTE	W03
	BYTE		EOT     Gn1 
	BYTE		        Gn2 
	BYTE	W01
// 050   ----------------------------------------
	BYTE	PATT
	 POIN2	BitterBreeze_3_010
// 051   ----------------------------------------
	BYTE	W92
	BYTE	W03
	BYTE		EOT     An1 
	BYTE		        An2 
	BYTE	W01
// 052   ----------------------------------------
	BYTE	PATT
	 POIN2	BitterBreeze_3_012
// 053   ----------------------------------------
	BYTE	W92
	BYTE	W03
	BYTE		EOT     Gn1 
	BYTE		        Gn2 
	BYTE	W01
// 054   ----------------------------------------
	BYTE	PATT
	 POIN2	BitterBreeze_3_014
// 055   ----------------------------------------
	BYTE	W92
	BYTE	W03
	BYTE		EOT     Fn1 
	BYTE		        Fn2 
	BYTE	W01
// 056   ----------------------------------------
	BYTE	PATT
	 POIN2	BitterBreeze_3_024
// 057   ----------------------------------------
	BYTE	W92
	BYTE	W03
	BYTE		EOT     En1 
	BYTE		        En2 
	BYTE	W01
// 058   ----------------------------------------
BitterBreeze_3_058:
	BYTE		TIE     Gs1   v100
	BYTE		TIE     Gs2 
	BYTE	W96
	BYTE	PEND
// 059   ----------------------------------------
	BYTE	W92
	BYTE	W03
	BYTE		EOT     Gs1 
	BYTE		        Gs2 
	BYTE	W01
// 060   ----------------------------------------
BitterBreeze_3_060:
	BYTE		TIE     Fs1   v100
	BYTE		TIE     Fs2 
	BYTE	W96
	BYTE	PEND
// 061   ----------------------------------------
	BYTE	W92
	BYTE	W03
	BYTE		EOT     Fs1 
	BYTE		        Fs2 
	BYTE	W01
// 062   ----------------------------------------
	BYTE	PATT
	 POIN2	BitterBreeze_3_024
// 063   ----------------------------------------
	BYTE	W92
	BYTE	W03
	BYTE		EOT     En1 
	BYTE		        En2 
	BYTE	W01
// 064   ----------------------------------------
	BYTE	PATT
	 POIN2	BitterBreeze_3_060
// 065   ----------------------------------------
	BYTE	W92
	BYTE	W03
	BYTE		EOT     Fs1 
	BYTE		        Fs2 
	BYTE	W01
// 066   ----------------------------------------
	BYTE	PATT
	 POIN2	BitterBreeze_3_058
// 067   ----------------------------------------
	BYTE	W92
	BYTE	W03
	BYTE		EOT     Gs1 
	BYTE		        Gs2 
	BYTE	W01
// 068   ----------------------------------------
	BYTE	PATT
	 POIN2	BitterBreeze_3_060
// 069   ----------------------------------------
	BYTE	W92
	BYTE	W03
	BYTE		EOT     Fs1 
	BYTE		        Fs2 
	BYTE	W01
// 070   ----------------------------------------
	BYTE	PATT
	 POIN2	BitterBreeze_3_024
// 071   ----------------------------------------
	BYTE	W92
	BYTE	W03
	BYTE		EOT     En1 
	BYTE		        En2 
	BYTE	W01
// 072   ----------------------------------------
	BYTE		TIE     Cn1   v100
	BYTE		TIE     Cn2 
	BYTE	W96
// 073   ----------------------------------------
	BYTE	W92
	BYTE	W03
	BYTE		EOT     Cn1 
	BYTE		        Cn2 
	BYTE	W01
// 074   ----------------------------------------
	BYTE	PATT
	 POIN2	BitterBreeze_3_010
// 075   ----------------------------------------
	BYTE	W92
	BYTE	W03
	BYTE		EOT     An1 
	BYTE		        An2 
	BYTE	W01
// 076   ----------------------------------------
	BYTE	PATT
	 POIN2	BitterBreeze_3_010
// 077   ----------------------------------------
	BYTE	W92
	BYTE	W03
	BYTE		EOT     An1 
	BYTE		        An2 
	BYTE	W01
	BYTE	GoTo
	 POIN2	BitterBreeze_3_B1
BitterBreeze_3_B2:
// 078   ----------------------------------------
	BYTE		PAN     c_v+0
	BYTE		        c_v+0
	BYTE		        c_v+0
	BYTE		BEND    c_v+0
	BYTE	FINE

//**************** Track 4 (Midi-Chn.4) ****************//

BitterBreeze_4:
	BYTE	KEYSH   BitterBreeze_key+0
// 000   ----------------------------------------
	BYTE		VOICE   57
	BYTE		VOL     64*BitterBreeze_mvl/mxv
	BYTE		PAN     c_v+0
	BYTE		        c_v+0
	BYTE		        c_v+0
	BYTE		        c_v+0
	BYTE		BEND    c_v+0
	BYTE	W96
// 001   ----------------------------------------
	BYTE	W96
// 002   ----------------------------------------
	BYTE	W96
// 003   ----------------------------------------
	BYTE	W96
// 004   ----------------------------------------
	BYTE	W96
// 005   ----------------------------------------
	BYTE	W96
// 006   ----------------------------------------
	BYTE	W96
// 007   ----------------------------------------
	BYTE	W96
// 008   ----------------------------------------
	BYTE	W96
// 009   ----------------------------------------
	BYTE	W96
BitterBreeze_4_B1:
// 010   ----------------------------------------
BitterBreeze_4_010:
	BYTE		TIE     An2   v100
	BYTE		TIE     An3 
	BYTE	W96
	BYTE	PEND
// 011   ----------------------------------------
	BYTE	W23
	BYTE		EOT     An2 
	BYTE		        An3 
	BYTE	W01
	BYTE		N23     En3 
	BYTE		N23     En4 
	BYTE	W24
	BYTE		        Cn3 
	BYTE		N23     Cn4 
	BYTE	W24
	BYTE		        An2 
	BYTE		N23     An3 
	BYTE	W24
// 012   ----------------------------------------
	BYTE		N32     Bn2 
	BYTE		N32     Bn3 
	BYTE	W36
	BYTE		        Gn2 
	BYTE		N32     Gn3 
	BYTE	W36
	BYTE		N68     En2 
	BYTE		N68     En3 
	BYTE	W24
// 013   ----------------------------------------
	BYTE	W48
	BYTE		N11     Dn2 
	BYTE		N11     Dn3 
	BYTE	W12
	BYTE		        En2 
	BYTE		N11     En3 
	BYTE	W12
	BYTE		        An2 
	BYTE		N11     An3 
	BYTE	W12
	BYTE		        Bn2 
	BYTE		N11     Bn3 
	BYTE	W12
// 014   ----------------------------------------
BitterBreeze_4_014:
	BYTE		N23     Cn3   v100
	BYTE		N23     Cn4 
	BYTE	W24
	BYTE		        Bn2 
	BYTE		N23     Bn3 
	BYTE	W24
	BYTE		N32     An2 
	BYTE		N32     An3 
	BYTE	W36
	BYTE		N11     En3 
	BYTE		N11     En4 
	BYTE	W12
	BYTE	PEND
// 015   ----------------------------------------
BitterBreeze_4_015:
	BYTE		N11     Dn3   v100
	BYTE		N11     Dn4 
	BYTE	W12
	BYTE		        Bn2 
	BYTE		N11     Bn3 
	BYTE	W12
	BYTE		        An2 
	BYTE		N11     An3 
	BYTE	W12
	BYTE		        Gn2 
	BYTE		N11     Gn3 
	BYTE	W12
	BYTE		N23     Fn2 
	BYTE		N23     Fn3 
	BYTE	W24
	BYTE		        Cn3 
	BYTE		N23     Cn4 
	BYTE	W24
	BYTE	PEND
// 016   ----------------------------------------
BitterBreeze_4_016:
	BYTE		N32     Bn2   v100
	BYTE		N32     Bn3 
	BYTE	W36
	BYTE		        An2 
	BYTE		N32     An3 
	BYTE	W36
	BYTE		N44     Gn2 
	BYTE		N44     Gn3 
	BYTE	W24
	BYTE	PEND
// 017   ----------------------------------------
BitterBreeze_4_017:
	BYTE	W24
	BYTE		N23     Bn2   v100
	BYTE		N23     Bn3 
	BYTE	W24
	BYTE		        Cn3 
	BYTE		N23     Cn4 
	BYTE	W24
	BYTE		        Bn2 
	BYTE		N23     Bn3 
	BYTE	W24
	BYTE	PEND
// 018   ----------------------------------------
BitterBreeze_4_018:
	BYTE		N44     An2   v100
	BYTE		N44     An3 
	BYTE	W48
	BYTE		        En3 
	BYTE		N44     En4 
	BYTE	W48
	BYTE	PEND
// 019   ----------------------------------------
BitterBreeze_4_019:
	BYTE		N23     Cn3   v100
	BYTE		N23     Cn4 
	BYTE	W24
	BYTE		        Dn3 
	BYTE		N23     Dn4 
	BYTE	W24
	BYTE		        Fn3 
	BYTE		N23     Fn4 
	BYTE	W24
	BYTE		        En3 
	BYTE		N23     En4 
	BYTE	W24
	BYTE	PEND
// 020   ----------------------------------------
BitterBreeze_4_020:
	BYTE		N44     Dn3   v100
	BYTE		N44     Dn4 
	BYTE	W48
	BYTE		        Gn2 
	BYTE		N44     Gn3 
	BYTE	W48
	BYTE	PEND
// 021   ----------------------------------------
BitterBreeze_4_021:
	BYTE		N11     Gn2   v100
	BYTE		N11     Gn3 
	BYTE	W12
	BYTE		        An2 
	BYTE		N11     An3 
	BYTE	W12
	BYTE		        Bn2 
	BYTE		N11     Bn3 
	BYTE	W12
	BYTE		        Cn3 
	BYTE		N11     Cn4 
	BYTE	W12
	BYTE		        Dn3 
	BYTE		N11     Dn4 
	BYTE	W12
	BYTE		        Cn3 
	BYTE		N11     Cn4 
	BYTE	W12
	BYTE		        Dn3 
	BYTE		N11     Dn4 
	BYTE	W12
	BYTE		        Bn2 
	BYTE		N11     Bn3 
	BYTE	W12
	BYTE	PEND
// 022   ----------------------------------------
BitterBreeze_4_022:
	BYTE		N17     Cn3   v100
	BYTE		N17     Cn4 
	BYTE	W18
	BYTE		        Bn2 
	BYTE		N17     Bn3 
	BYTE	W18
	BYTE		N32     An2 
	BYTE		N32     An3 
	BYTE	W36
	BYTE		N23     Gn2 
	BYTE		N23     Gn3 
	BYTE	W24
	BYTE	PEND
// 023   ----------------------------------------
BitterBreeze_4_023:
	BYTE		N11     Fn2   v100
	BYTE		N11     Fn3 
	BYTE	W12
	BYTE		        Cn3 
	BYTE		N11     Cn4 
	BYTE	W12
	BYTE		        Gn2 
	BYTE		N11     Gn3 
	BYTE	W12
	BYTE		        Cn3 
	BYTE		N11     Cn4 
	BYTE	W12
	BYTE		        An2 
	BYTE		N11     An3 
	BYTE	W12
	BYTE		        Dn3 
	BYTE		N11     Dn4 
	BYTE	W12
	BYTE		        Cn3 
	BYTE		N11     Cn4 
	BYTE	W12
	BYTE		        An2 
	BYTE		N11     An3 
	BYTE	W12
	BYTE	PEND
// 024   ----------------------------------------
BitterBreeze_4_024:
	BYTE		N17     Bn2   v100
	BYTE		N17     Bn3 
	BYTE	W18
	BYTE		        Gs2 
	BYTE		N17     Gs3 
	BYTE	W18
	BYTE		N32     En2 
	BYTE		N32     En3 
	BYTE	W36
	BYTE		N11     En2 
	BYTE		N11     En3 
	BYTE	W12
	BYTE		        Fs2 
	BYTE		N11     Fs3 
	BYTE	W12
	BYTE	PEND
// 025   ----------------------------------------
	BYTE		        Gs2 
	BYTE		N11     Gs3 
	BYTE	W12
	BYTE		        An2 
	BYTE		N11     An3 
	BYTE	W12
	BYTE		        Bn2 
	BYTE		N11     Bn3 
	BYTE	W12
	BYTE		        Cn3 
	BYTE		N11     Cn4 
	BYTE	W12
	BYTE		        Dn3 
	BYTE		N11     Dn4 
	BYTE	W12
	BYTE		        Cn3 
	BYTE		N11     Cn4 
	BYTE	W12
	BYTE		        Bn2 
	BYTE		N11     Bn3 
	BYTE	W12
	BYTE		        En2 
	BYTE		N11     En3 
	BYTE	W12
// 026   ----------------------------------------
	BYTE		N32     An2 
	BYTE		N32     An3 
	BYTE	W36
	BYTE		        Cn3 
	BYTE		N32     Cn4 
	BYTE	W36
	BYTE		        En3 
	BYTE		N32     En4 
	BYTE	W24
// 027   ----------------------------------------
	BYTE	W12
	BYTE		N11     Fn3 
	BYTE		N11     Fn4 
	BYTE	W12
	BYTE		N23     En3 
	BYTE		N23     En4 
	BYTE	W24
	BYTE		        Cn3 
	BYTE		N23     Cn4 
	BYTE	W24
	BYTE		        An2 
	BYTE		N23     An3 
	BYTE	W24
// 028   ----------------------------------------
	BYTE		N32     Bn2 
	BYTE		N32     Bn3 
	BYTE	W36
	BYTE		        Gn2 
	BYTE		N32     Gn3 
	BYTE	W36
	BYTE		        En2 
	BYTE		N32     En3 
	BYTE	W24
// 029   ----------------------------------------
	BYTE	W12
	BYTE		        Fn2 
	BYTE		N32     Fn3 
	BYTE	W36
	BYTE		N11     Dn2 
	BYTE		N11     Dn3 
	BYTE	W12
	BYTE		        En2 
	BYTE		N11     En3 
	BYTE	W12
	BYTE		        An2 
	BYTE		N11     An3 
	BYTE	W12
	BYTE		        Bn2 
	BYTE		N11     Bn3 
	BYTE	W12
// 030   ----------------------------------------
	BYTE	PATT
	 POIN2	BitterBreeze_4_014
// 031   ----------------------------------------
	BYTE	PATT
	 POIN2	BitterBreeze_4_015
// 032   ----------------------------------------
	BYTE	PATT
	 POIN2	BitterBreeze_4_016
// 033   ----------------------------------------
	BYTE	PATT
	 POIN2	BitterBreeze_4_017
// 034   ----------------------------------------
	BYTE	PATT
	 POIN2	BitterBreeze_4_018
// 035   ----------------------------------------
	BYTE	PATT
	 POIN2	BitterBreeze_4_019
// 036   ----------------------------------------
	BYTE	PATT
	 POIN2	BitterBreeze_4_020
// 037   ----------------------------------------
	BYTE	PATT
	 POIN2	BitterBreeze_4_021
// 038   ----------------------------------------
	BYTE	PATT
	 POIN2	BitterBreeze_4_022
// 039   ----------------------------------------
	BYTE	PATT
	 POIN2	BitterBreeze_4_023
// 040   ----------------------------------------
	BYTE	PATT
	 POIN2	BitterBreeze_4_024
// 041   ----------------------------------------
	BYTE		N11     Gs2   v100
	BYTE		N11     Gs3 
	BYTE	W12
	BYTE		        An2 
	BYTE		N11     An3 
	BYTE	W12
	BYTE		        Gs2 
	BYTE		N11     Gs3 
	BYTE	W12
	BYTE		        En2 
	BYTE		N11     En3 
	BYTE	W12
	BYTE		        Bn2 
	BYTE		N11     Bn3 
	BYTE	W12
	BYTE		        An2 
	BYTE		N11     An3 
	BYTE	W12
	BYTE		        Gs2 
	BYTE		N11     Gs3 
	BYTE	W12
	BYTE		        En2 
	BYTE		N11     En3 
	BYTE	W12
// 042   ----------------------------------------
	BYTE	PATT
	 POIN2	BitterBreeze_4_010
// 043   ----------------------------------------
	BYTE	W92
	BYTE	W03
	BYTE		EOT     An2 
	BYTE		        An3 
	BYTE	W01
// 044   ----------------------------------------
	BYTE	W96
// 045   ----------------------------------------
	BYTE	W96
// 046   ----------------------------------------
	BYTE	W96
// 047   ----------------------------------------
	BYTE	W96
// 048   ----------------------------------------
	BYTE	W96
// 049   ----------------------------------------
	BYTE	W96
// 050   ----------------------------------------
	BYTE	W96
// 051   ----------------------------------------
	BYTE	W96
// 052   ----------------------------------------
	BYTE	W96
// 053   ----------------------------------------
	BYTE	W96
// 054   ----------------------------------------
	BYTE	W96
// 055   ----------------------------------------
	BYTE	W96
// 056   ----------------------------------------
	BYTE	W96
// 057   ----------------------------------------
	BYTE	W96
// 058   ----------------------------------------
BitterBreeze_4_058:
	BYTE		N17     Gs2   v100
	BYTE		N17     Gs3 
	BYTE	W18
	BYTE		        As2 
	BYTE		N17     As3 
	BYTE	W18
	BYTE		        Bn2 
	BYTE		N17     Bn3 
	BYTE	W18
	BYTE		        Cs3 
	BYTE		N17     Cs4 
	BYTE	W18
	BYTE		N11     Ds3 
	BYTE		N11     Ds4 
	BYTE	W12
	BYTE		        Fs3 
	BYTE		N11     Fs4 
	BYTE	W12
	BYTE	PEND
// 059   ----------------------------------------
	BYTE		N17     Gs4 
	BYTE	W18
	BYTE		        Fs3 
	BYTE		N17     Fs4 
	BYTE	W18
	BYTE		N56     Ds3 
	BYTE		N56     Ds4 
	BYTE	W60
// 060   ----------------------------------------
	BYTE		N32     Cs3 
	BYTE		N32     Cs4 
	BYTE	W36
	BYTE		N44     Ds3 
	BYTE		N44     Ds4 
	BYTE	W48
	BYTE		N11     Cs3 
	BYTE		N11     Cs4 
	BYTE	W12
// 061   ----------------------------------------
	BYTE		        Cs3 
	BYTE		N11     Cs4 
	BYTE	W12
	BYTE		        Bn2 
	BYTE		N11     Bn3 
	BYTE	W12
	BYTE		        As2 
	BYTE		N11     As3 
	BYTE	W12
	BYTE		        Cs3 
	BYTE		N11     Cs4 
	BYTE	W12
	BYTE		N17     Ds3 
	BYTE		N17     Ds4 
	BYTE	W18
	BYTE		        Cs3 
	BYTE		N17     Cs4 
	BYTE	W18
	BYTE		N11     As2 
	BYTE		N11     As3 
	BYTE	W12
// 062   ----------------------------------------
	BYTE		N17     Bn2 
	BYTE		N17     Bn3 
	BYTE	W18
	BYTE		        As2 
	BYTE		N17     As3 
	BYTE	W18
	BYTE		N32     Gs2 
	BYTE		N32     Gs3 
	BYTE	W36
	BYTE		N23     Fs2 
	BYTE		N23     Fs3 
	BYTE	W24
// 063   ----------------------------------------
	BYTE		N32     Gs2 
	BYTE		N32     Gs3 
	BYTE	W36
	BYTE		        As2 
	BYTE		N32     As3 
	BYTE	W36
	BYTE		N23     Bn2 
	BYTE		N23     Bn3 
	BYTE	W24
// 064   ----------------------------------------
	BYTE		N32     Bn2 
	BYTE		N32     Bn3 
	BYTE	W36
	BYTE		        As2 
	BYTE		N32     As3 
	BYTE	W36
	BYTE		N23     Gs2 
	BYTE		N23     Gs3 
	BYTE	W24
// 065   ----------------------------------------
	BYTE		N17     Bn2 
	BYTE		N17     Bn3 
	BYTE	W18
	BYTE		        As2 
	BYTE		N17     As3 
	BYTE	W18
	BYTE		N11     Gs2 
	BYTE		N11     Gs3 
	BYTE	W12
	BYTE		N17     Cs3 
	BYTE		N17     Cs4 
	BYTE	W18
	BYTE		        Bn2 
	BYTE		N17     Bn3 
	BYTE	W18
	BYTE		N11     As2 
	BYTE		N11     As3 
	BYTE	W12
// 066   ----------------------------------------
	BYTE	PATT
	 POIN2	BitterBreeze_4_058
// 067   ----------------------------------------
	BYTE		N17     Gs3   v100
	BYTE		N17     Gs4 
	BYTE	W18
	BYTE		        Fs3 
	BYTE		N17     Fs4 
	BYTE	W18
	BYTE		N56     Ds3 
	BYTE		N56     Ds4 
	BYTE	W60
// 068   ----------------------------------------
	BYTE		N11     Cs3 
	BYTE		N11     Cs4 
	BYTE	W12
	BYTE		        Ds3 
	BYTE		N11     Ds4 
	BYTE	W12
	BYTE		        Cs3 
	BYTE		N11     Cs4 
	BYTE	W12
	BYTE		        Ds3 
	BYTE		N11     Ds4 
	BYTE	W12
	BYTE		N23     Fs3 
	BYTE		N23     Fs4 
	BYTE	W24
	BYTE		        Cs3 
	BYTE		N23     Cs4 
	BYTE	W24
// 069   ----------------------------------------
	BYTE		N17     Ds3 
	BYTE		N17     Ds4 
	BYTE	W18
	BYTE		        Cs3 
	BYTE		N17     Cs4 
	BYTE	W18
	BYTE		N11     Bn2 
	BYTE		N11     Bn3 
	BYTE	W12
	BYTE		N17     Cs3 
	BYTE		N17     Cs4 
	BYTE	W18
	BYTE		        Bn2 
	BYTE		N17     Bn3 
	BYTE	W18
	BYTE		N11     As2 
	BYTE		N11     As3 
	BYTE	W12
// 070   ----------------------------------------
	BYTE		N17     Bn2 
	BYTE		N17     Bn3 
	BYTE	W18
	BYTE		        As2 
	BYTE		N17     As3 
	BYTE	W18
	BYTE		N32     Gs2 
	BYTE		N32     Gs3 
	BYTE	W36
	BYTE		N23     Gs2 
	BYTE		N23     Gs3 
	BYTE	W24
// 071   ----------------------------------------
	BYTE		        As2 
	BYTE		N23     As3 
	BYTE	W24
	BYTE		        Bn2 
	BYTE		N23     Bn3 
	BYTE	W24
	BYTE		        Gs2 
	BYTE		N23     Gs3 
	BYTE	W24
	BYTE		        En2 
	BYTE		N23     En3 
	BYTE	W24
// 072   ----------------------------------------
	BYTE		N17     Cn2 
	BYTE		N17     Cn3 
	BYTE	W18
	BYTE		        Ds2 
	BYTE		N17     Ds3 
	BYTE	W18
	BYTE		        Fs2 
	BYTE		N17     Fs3 
	BYTE	W18
	BYTE		        An2 
	BYTE		N17     An3 
	BYTE	W18
	BYTE		        Cn3 
	BYTE		N17     Cn4 
	BYTE	W18
	BYTE		        Ds3 
	BYTE		N17     Ds4 
	BYTE	W06
// 073   ----------------------------------------
	BYTE	W12
	BYTE		        Fs3 
	BYTE		N17     Fs4 
	BYTE	W18
	BYTE		        Ds3 
	BYTE		N17     Ds4 
	BYTE	W18
	BYTE		        Cn3 
	BYTE		N17     Cn4 
	BYTE	W18
	BYTE		        An2 
	BYTE		N17     An3 
	BYTE	W18
	BYTE		N11     Gs2 
	BYTE		N11     Gs3 
	BYTE	W12
// 074   ----------------------------------------
	BYTE		N23     An2 
	BYTE		N23     An3 
	BYTE	W24
	BYTE		        Cn3 
	BYTE		N23     Cn4 
	BYTE	W24
	BYTE		N11     Bn2 
	BYTE		N11     Bn3 
	BYTE	W12
	BYTE		        Cn3 
	BYTE		N11     Cn4 
	BYTE	W12
	BYTE		N23     Dn3 
	BYTE		N23     Dn4 
	BYTE	W24
// 075   ----------------------------------------
	BYTE		N11     Cn3 
	BYTE		N11     Cn4 
	BYTE	W12
	BYTE		        Bn2 
	BYTE		N11     Bn3 
	BYTE	W12
	BYTE		        An2 
	BYTE		N11     An3 
	BYTE	W12
	BYTE		        Gn2 
	BYTE		N11     Gn3 
	BYTE	W12
	BYTE		N23     An2 
	BYTE		N23     An3 
	BYTE	W24
	BYTE		N11     Gn2 
	BYTE		N11     Gn3 
	BYTE	W12
	BYTE		        An2 
	BYTE		N11     An3 
	BYTE	W12
// 076   ----------------------------------------
	BYTE		        En2 
	BYTE		N11     En3 
	BYTE	W12
	BYTE		        An2 
	BYTE		N11     An3 
	BYTE	W12
	BYTE		        Cn3 
	BYTE		N11     Cn4 
	BYTE	W12
	BYTE		        Bn2 
	BYTE		N11     Bn3 
	BYTE	W12
	BYTE		        Gn2 
	BYTE		N11     Gn3 
	BYTE	W12
	BYTE		        En2 
	BYTE		N11     En3 
	BYTE	W12
	BYTE		        Cn3 
	BYTE		N11     Cn4 
	BYTE	W12
	BYTE		        Bn2 
	BYTE		N11     Bn3 
	BYTE	W12
// 077   ----------------------------------------
	BYTE		        En2 
	BYTE		N11     En3 
	BYTE	W12
	BYTE		        An2 
	BYTE		N11     An3 
	BYTE	W12
	BYTE		        Cn3 
	BYTE		N11     Cn4 
	BYTE	W12
	BYTE		        Bn2 
	BYTE		N11     Bn3 
	BYTE	W12
	BYTE		N44     An2 
	BYTE		N44     An3 
	BYTE	W48
	BYTE	GoTo
	 POIN2	BitterBreeze_4_B1
BitterBreeze_4_B2:
// 078   ----------------------------------------
	BYTE		PAN     c_v+0
	BYTE		        c_v+0
	BYTE		        c_v+0
	BYTE		BEND    c_v+0
	BYTE	FINE

//**************** Track 5 (Midi-Chn.5) ****************//

BitterBreeze_5:
	BYTE	KEYSH   BitterBreeze_key+0
// 000   ----------------------------------------
	BYTE		VOICE   14
	BYTE		VOL     63*BitterBreeze_mvl/mxv
	BYTE		PAN     c_v+0
	BYTE		        c_v+0
	BYTE		        c_v+0
	BYTE		        c_v+0
	BYTE		BEND    c_v+0
	BYTE	W96
// 001   ----------------------------------------
	BYTE	W96
// 002   ----------------------------------------
	BYTE	W96
// 003   ----------------------------------------
	BYTE	W96
// 004   ----------------------------------------
	BYTE	W96
// 005   ----------------------------------------
	BYTE	W96
// 006   ----------------------------------------
	BYTE	W96
// 007   ----------------------------------------
	BYTE	W96
// 008   ----------------------------------------
	BYTE	W96
// 009   ----------------------------------------
	BYTE	W96
BitterBreeze_5_B1:
// 010   ----------------------------------------
BitterBreeze_5_010:
	BYTE		TIE     An3   v100
	BYTE		TIE     Cn4 
	BYTE		TIE     En4 
	BYTE		TIE     An4 
	BYTE	W96
	BYTE	PEND
// 011   ----------------------------------------
	BYTE	W92
	BYTE	W03
	BYTE		EOT     An3 
	BYTE		        Cn4 
	BYTE		        En4 
	BYTE		        An4 
	BYTE	W01
// 012   ----------------------------------------
	BYTE	W96
// 013   ----------------------------------------
	BYTE	W96
// 014   ----------------------------------------
	BYTE	W96
// 015   ----------------------------------------
	BYTE	W96
// 016   ----------------------------------------
	BYTE	W96
// 017   ----------------------------------------
	BYTE	W96
// 018   ----------------------------------------
	BYTE	PATT
	 POIN2	BitterBreeze_5_010
// 019   ----------------------------------------
	BYTE	W92
	BYTE	W03
	BYTE		EOT     An3 
	BYTE		        Cn4 
	BYTE		        En4 
	BYTE		        An4 
	BYTE	W01
// 020   ----------------------------------------
	BYTE	W96
// 021   ----------------------------------------
	BYTE	W96
// 022   ----------------------------------------
	BYTE	W96
// 023   ----------------------------------------
	BYTE	W96
// 024   ----------------------------------------
	BYTE	W96
// 025   ----------------------------------------
	BYTE	W96
// 026   ----------------------------------------
	BYTE	PATT
	 POIN2	BitterBreeze_5_010
// 027   ----------------------------------------
	BYTE	W92
	BYTE	W03
	BYTE		EOT     An3 
	BYTE		        Cn4 
	BYTE		        En4 
	BYTE		        An4 
	BYTE	W01
// 028   ----------------------------------------
	BYTE	W96
// 029   ----------------------------------------
	BYTE	W96
// 030   ----------------------------------------
	BYTE	PATT
	 POIN2	BitterBreeze_5_010
// 031   ----------------------------------------
	BYTE	W92
	BYTE	W03
	BYTE		EOT     An3 
	BYTE		        Cn4 
	BYTE		        En4 
	BYTE		        An4 
	BYTE	W01
// 032   ----------------------------------------
	BYTE	W96
// 033   ----------------------------------------
	BYTE	W96
// 034   ----------------------------------------
	BYTE	PATT
	 POIN2	BitterBreeze_5_010
// 035   ----------------------------------------
	BYTE	W92
	BYTE	W03
	BYTE		EOT     An3 
	BYTE		        Cn4 
	BYTE		        En4 
	BYTE		        An4 
	BYTE	W01
// 036   ----------------------------------------
	BYTE	W96
// 037   ----------------------------------------
	BYTE	W96
// 038   ----------------------------------------
	BYTE	PATT
	 POIN2	BitterBreeze_5_010
// 039   ----------------------------------------
	BYTE	W92
	BYTE	W03
	BYTE		EOT     An3 
	BYTE		        Cn4 
	BYTE		        En4 
	BYTE		        An4 
	BYTE	W01
// 040   ----------------------------------------
	BYTE	W96
// 041   ----------------------------------------
	BYTE	W96
// 042   ----------------------------------------
	BYTE	PATT
	 POIN2	BitterBreeze_5_010
// 043   ----------------------------------------
	BYTE	W92
	BYTE	W03
	BYTE		EOT     An3 
	BYTE		        Cn4 
	BYTE		        En4 
	BYTE		        An4 
	BYTE	W01
// 044   ----------------------------------------
	BYTE	PATT
	 POIN2	BitterBreeze_5_010
// 045   ----------------------------------------
	BYTE	W92
	BYTE	W03
	BYTE		EOT     An3 
	BYTE		        Cn4 
	BYTE		        En4 
	BYTE		        An4 
	BYTE	W01
// 046   ----------------------------------------
	BYTE	PATT
	 POIN2	BitterBreeze_5_010
// 047   ----------------------------------------
	BYTE	W92
	BYTE	W03
	BYTE		EOT     An3 
	BYTE		        Cn4 
	BYTE		        En4 
	BYTE		        An4 
	BYTE	W01
// 048   ----------------------------------------
	BYTE	PATT
	 POIN2	BitterBreeze_5_010
// 049   ----------------------------------------
	BYTE	W92
	BYTE	W03
	BYTE		EOT     An3 
	BYTE		        Cn4 
	BYTE		        En4 
	BYTE		        An4 
	BYTE	W01
// 050   ----------------------------------------
	BYTE	PATT
	 POIN2	BitterBreeze_5_010
// 051   ----------------------------------------
	BYTE	W92
	BYTE	W03
	BYTE		EOT     An3 
	BYTE		        Cn4 
	BYTE		        En4 
	BYTE		        An4 
	BYTE	W01
// 052   ----------------------------------------
	BYTE	PATT
	 POIN2	BitterBreeze_5_010
// 053   ----------------------------------------
	BYTE	W92
	BYTE	W03
	BYTE		EOT     An3 
	BYTE		        Cn4 
	BYTE		        En4 
	BYTE		        An4 
	BYTE	W01
// 054   ----------------------------------------
	BYTE	PATT
	 POIN2	BitterBreeze_5_010
// 055   ----------------------------------------
	BYTE	W92
	BYTE	W03
	BYTE		EOT     An3 
	BYTE		        Cn4 
	BYTE		        En4 
	BYTE		        An4 
	BYTE	W01
// 056   ----------------------------------------
	BYTE		N92     An3   v100
	BYTE		N92     Cn4 
	BYTE		N92     En4 
	BYTE		N92     An4 
	BYTE	W96
// 057   ----------------------------------------
	BYTE		        Gs3 
	BYTE		N92     Bn3 
	BYTE		N92     En4 
	BYTE		N92     Gs4 
	BYTE	W96
// 058   ----------------------------------------
BitterBreeze_5_058:
	BYTE		TIE     Gs3   v100
	BYTE		TIE     Bn3 
	BYTE		TIE     Ds4 
	BYTE		TIE     Gs4 
	BYTE	W96
	BYTE	PEND
// 059   ----------------------------------------
	BYTE	W92
	BYTE	W03
	BYTE		EOT     Gs3 
	BYTE		        Bn3 
	BYTE		        Ds4 
	BYTE		        Gs4 
	BYTE	W01
// 060   ----------------------------------------
	BYTE	W96
// 061   ----------------------------------------
	BYTE	W96
// 062   ----------------------------------------
	BYTE	PATT
	 POIN2	BitterBreeze_5_058
// 063   ----------------------------------------
	BYTE	W92
	BYTE	W03
	BYTE		EOT     Gs3 
	BYTE		        Bn3 
	BYTE		        Ds4 
	BYTE		        Gs4 
	BYTE	W01
// 064   ----------------------------------------
	BYTE	W96
// 065   ----------------------------------------
	BYTE	W96
// 066   ----------------------------------------
	BYTE	PATT
	 POIN2	BitterBreeze_5_058
// 067   ----------------------------------------
	BYTE	W92
	BYTE	W03
	BYTE		EOT     Gs3 
	BYTE		        Bn3 
	BYTE		        Ds4 
	BYTE		        Gs4 
	BYTE	W01
// 068   ----------------------------------------
	BYTE	W96
// 069   ----------------------------------------
	BYTE	W96
// 070   ----------------------------------------
	BYTE	PATT
	 POIN2	BitterBreeze_5_058
// 071   ----------------------------------------
	BYTE	W92
	BYTE	W03
	BYTE		EOT     Gs3 
	BYTE		        Bn3 
	BYTE		        Ds4 
	BYTE		        Gs4 
	BYTE	W01
// 072   ----------------------------------------
	BYTE	W96
// 073   ----------------------------------------
	BYTE	W96
// 074   ----------------------------------------
	BYTE	PATT
	 POIN2	BitterBreeze_5_010
// 075   ----------------------------------------
	BYTE	W92
	BYTE	W03
	BYTE		EOT     An3 
	BYTE		        Cn4 
	BYTE		        En4 
	BYTE		        An4 
	BYTE	W01
// 076   ----------------------------------------
	BYTE	PATT
	 POIN2	BitterBreeze_5_010
// 077   ----------------------------------------
	BYTE	W92
	BYTE	W03
	BYTE		EOT     An3 
	BYTE		        Cn4 
	BYTE		        En4 
	BYTE		        An4 
	BYTE	W01
	BYTE	GoTo
	 POIN2	BitterBreeze_5_B1
BitterBreeze_5_B2:
// 078   ----------------------------------------
	BYTE		PAN     c_v+0
	BYTE		        c_v+0
	BYTE		        c_v+0
	BYTE		BEND    c_v+0
	BYTE	FINE

//**************** Track 6 (Midi-Chn.6) ****************//

BitterBreeze_6:
	BYTE	KEYSH   BitterBreeze_key+0
// 000   ----------------------------------------
	BYTE		VOICE   124
	BYTE		VOL     68*BitterBreeze_mvl/mxv
	BYTE		PAN     c_v+0
	BYTE		        c_v+0
	BYTE		        c_v+0
	BYTE		        c_v+0
	BYTE		BEND    c_v+0
	BYTE		N23     Cn1   v100
	BYTE	W12
	BYTE		N11     Fs1 
	BYTE	W12
	BYTE		N23     Cn1 
	BYTE		N11     Dn1 
	BYTE	W12
	BYTE		        Fs1 
	BYTE	W12
	BYTE		N23     Cn1 
	BYTE	W12
	BYTE		N11     Fs1 
	BYTE	W12
	BYTE		N23     Cn1 
	BYTE		N11     Dn1 
	BYTE	W12
	BYTE		        Fs1 
	BYTE	W12
// 001   ----------------------------------------
	BYTE		N23     Cn1 
	BYTE	W12
	BYTE		N11     Fs1 
	BYTE	W12
	BYTE		N23     Cn1 
	BYTE		N11     Dn1 
	BYTE	W12
	BYTE		        Fs1 
	BYTE	W12
	BYTE		N23     Cn1 
	BYTE	W12
	BYTE		N11     Fs1 
	BYTE	W12
	BYTE		N23     Cn1 
	BYTE		N11     Dn1 
	BYTE	W12
	BYTE		        Fs1 
	BYTE	W12
// 002   ----------------------------------------
BitterBreeze_6_002:
	BYTE		N23     Cn1   v100
	BYTE	W12
	BYTE		N11     Fs1 
	BYTE	W12
	BYTE		N23     Cn1 
	BYTE		N11     Dn1 
	BYTE		N11     En1 
	BYTE	W12
	BYTE		        Fs1 
	BYTE	W12
	BYTE		N23     Cn1 
	BYTE	W12
	BYTE		N11     Fs1 
	BYTE	W12
	BYTE		N23     Cn1 
	BYTE		N11     Dn1 
	BYTE		N11     En1 
	BYTE	W12
	BYTE		        Fs1 
	BYTE	W12
	BYTE	PEND
// 003   ----------------------------------------
	BYTE	PATT
	 POIN2	BitterBreeze_6_002
// 004   ----------------------------------------
	BYTE	PATT
	 POIN2	BitterBreeze_6_002
// 005   ----------------------------------------
	BYTE		N23     Cn1   v100
	BYTE	W12
	BYTE		N11     Fs1 
	BYTE	W12
	BYTE		N23     Cn1 
	BYTE		N11     Dn1 
	BYTE		N11     En1 
	BYTE	W12
	BYTE		        Fs1 
	BYTE	W12
	BYTE		N23     Cn1 
	BYTE	W12
	BYTE		N11     Fs1 
	BYTE	W12
	BYTE		N23     Cn1 
	BYTE		N05     Dn1 
	BYTE		N05     Cn2 
	BYTE	W06
	BYTE		        Dn1 
	BYTE		N05     An1 
	BYTE	W06
	BYTE		        Dn1 
	BYTE		N05     Fn1 
	BYTE		N11     Fs1 
	BYTE	W06
	BYTE		N05     Dn1 
	BYTE		N05     Fn1 
	BYTE	W06
// 006   ----------------------------------------
	BYTE	PATT
	 POIN2	BitterBreeze_6_002
// 007   ----------------------------------------
	BYTE	PATT
	 POIN2	BitterBreeze_6_002
// 008   ----------------------------------------
	BYTE	PATT
	 POIN2	BitterBreeze_6_002
// 009   ----------------------------------------
BitterBreeze_6_009:
	BYTE		N23     Cn1   v100
	BYTE	W12
	BYTE		N11     Fs1 
	BYTE	W12
	BYTE		N23     Cn1 
	BYTE		N11     Dn1 
	BYTE		N11     En1 
	BYTE	W12
	BYTE		        Fs1 
	BYTE	W12
	BYTE		N23     Cn1 
	BYTE		N11     Fs1 
	BYTE	W12
	BYTE		N11   
	BYTE	W12
	BYTE		N05     Cn1 
	BYTE		N05     Dn1 
	BYTE		N05     En1 
	BYTE		N11     Fs1 
	BYTE		N05     Cn2 
	BYTE	W06
	BYTE		        Cn1 
	BYTE		N05     Dn1 
	BYTE		N05     En1 
	BYTE		N05     An1 
	BYTE	W06
	BYTE		        Cn1 
	BYTE		N05     Dn1 
	BYTE		N05     En1 
	BYTE		N05     Fn1 
	BYTE		N11     Fs1 
	BYTE	W06
	BYTE		N05     Cn1 
	BYTE		N05     Dn1 
	BYTE		N05     En1 
	BYTE		N05     Fn1 
	BYTE	W06
	BYTE	PEND
BitterBreeze_6_B1:
// 010   ----------------------------------------
BitterBreeze_6_010:
	BYTE		N23     Cn1   v100
	BYTE	W06
	BYTE		N11     As1 
	BYTE	W06
	BYTE		        Fs1 
	BYTE	W12
	BYTE		N23     Cn1 
	BYTE		N11     Dn1 
	BYTE		N11     En1 
	BYTE	W12
	BYTE		        Fs1 
	BYTE	W12
	BYTE		N23     Cn1 
	BYTE		N11     Ds2 
	BYTE	W12
	BYTE		        Fs1 
	BYTE	W12
	BYTE		N23     Cn1 
	BYTE		N11     Dn1 
	BYTE		N11     En1 
	BYTE	W12
	BYTE		        Fs1 
	BYTE	W12
	BYTE	PEND
// 011   ----------------------------------------
BitterBreeze_6_011:
	BYTE		N23     Cn1   v100
	BYTE	W12
	BYTE		N11     Fs1 
	BYTE	W12
	BYTE		N23     Cn1 
	BYTE		N11     Dn1 
	BYTE		N11     En1 
	BYTE	W12
	BYTE		        Fs1 
	BYTE	W12
	BYTE		N23     Cn1 
	BYTE		N11     Ds2 
	BYTE	W12
	BYTE		        Fs1 
	BYTE	W12
	BYTE		N23     Cn1 
	BYTE		N11     Dn1 
	BYTE		N11     En1 
	BYTE	W12
	BYTE		        Fs1 
	BYTE	W12
	BYTE	PEND
// 012   ----------------------------------------
	BYTE	PATT
	 POIN2	BitterBreeze_6_010
// 013   ----------------------------------------
BitterBreeze_6_013:
	BYTE		N23     Cn1   v100
	BYTE	W12
	BYTE		N11     Fs1 
	BYTE	W12
	BYTE		N23     Cn1 
	BYTE		N11     Dn1 
	BYTE		N11     En1 
	BYTE	W12
	BYTE		        Fs1 
	BYTE	W12
	BYTE		N23     Cn1 
	BYTE		N11     Fs1 
	BYTE		N11     Ds2 
	BYTE	W12
	BYTE		        Fs1 
	BYTE	W12
	BYTE		N05     Cn1 
	BYTE		N05     Dn1 
	BYTE		N05     En1 
	BYTE		N11     Fs1 
	BYTE		N05     Cn2 
	BYTE	W06
	BYTE		        Cn1 
	BYTE		N05     Dn1 
	BYTE		N05     En1 
	BYTE		N05     An1 
	BYTE	W06
	BYTE		        Cn1 
	BYTE		N05     Dn1 
	BYTE		N05     En1 
	BYTE		N05     Fn1 
	BYTE		N11     Fs1 
	BYTE	W06
	BYTE		N05     Cn1 
	BYTE		N05     Dn1 
	BYTE		N05     En1 
	BYTE		N05     Fn1 
	BYTE	W06
	BYTE	PEND
// 014   ----------------------------------------
	BYTE	PATT
	 POIN2	BitterBreeze_6_010
// 015   ----------------------------------------
	BYTE	PATT
	 POIN2	BitterBreeze_6_011
// 016   ----------------------------------------
	BYTE	PATT
	 POIN2	BitterBreeze_6_010
// 017   ----------------------------------------
	BYTE	PATT
	 POIN2	BitterBreeze_6_013
// 018   ----------------------------------------
	BYTE	PATT
	 POIN2	BitterBreeze_6_002
// 019   ----------------------------------------
	BYTE	PATT
	 POIN2	BitterBreeze_6_002
// 020   ----------------------------------------
	BYTE	PATT
	 POIN2	BitterBreeze_6_002
// 021   ----------------------------------------
	BYTE	PATT
	 POIN2	BitterBreeze_6_009
// 022   ----------------------------------------
	BYTE	PATT
	 POIN2	BitterBreeze_6_002
// 023   ----------------------------------------
	BYTE	PATT
	 POIN2	BitterBreeze_6_002
// 024   ----------------------------------------
	BYTE	PATT
	 POIN2	BitterBreeze_6_002
// 025   ----------------------------------------
	BYTE	PATT
	 POIN2	BitterBreeze_6_013
// 026   ----------------------------------------
	BYTE	PATT
	 POIN2	BitterBreeze_6_010
// 027   ----------------------------------------
	BYTE	PATT
	 POIN2	BitterBreeze_6_011
// 028   ----------------------------------------
	BYTE	PATT
	 POIN2	BitterBreeze_6_010
// 029   ----------------------------------------
	BYTE	PATT
	 POIN2	BitterBreeze_6_013
// 030   ----------------------------------------
	BYTE	PATT
	 POIN2	BitterBreeze_6_010
// 031   ----------------------------------------
	BYTE	PATT
	 POIN2	BitterBreeze_6_011
// 032   ----------------------------------------
	BYTE	PATT
	 POIN2	BitterBreeze_6_010
// 033   ----------------------------------------
	BYTE	PATT
	 POIN2	BitterBreeze_6_013
// 034   ----------------------------------------
	BYTE	PATT
	 POIN2	BitterBreeze_6_002
// 035   ----------------------------------------
	BYTE	PATT
	 POIN2	BitterBreeze_6_002
// 036   ----------------------------------------
	BYTE	PATT
	 POIN2	BitterBreeze_6_002
// 037   ----------------------------------------
	BYTE	PATT
	 POIN2	BitterBreeze_6_009
// 038   ----------------------------------------
	BYTE	PATT
	 POIN2	BitterBreeze_6_002
// 039   ----------------------------------------
	BYTE	PATT
	 POIN2	BitterBreeze_6_002
// 040   ----------------------------------------
	BYTE	PATT
	 POIN2	BitterBreeze_6_002
// 041   ----------------------------------------
	BYTE	PATT
	 POIN2	BitterBreeze_6_013
// 042   ----------------------------------------
	BYTE	PATT
	 POIN2	BitterBreeze_6_010
// 043   ----------------------------------------
	BYTE	PATT
	 POIN2	BitterBreeze_6_011
// 044   ----------------------------------------
	BYTE	PATT
	 POIN2	BitterBreeze_6_010
// 045   ----------------------------------------
	BYTE	PATT
	 POIN2	BitterBreeze_6_013
// 046   ----------------------------------------
	BYTE	PATT
	 POIN2	BitterBreeze_6_010
// 047   ----------------------------------------
	BYTE	PATT
	 POIN2	BitterBreeze_6_011
// 048   ----------------------------------------
	BYTE	PATT
	 POIN2	BitterBreeze_6_010
// 049   ----------------------------------------
	BYTE	PATT
	 POIN2	BitterBreeze_6_013
// 050   ----------------------------------------
	BYTE	PATT
	 POIN2	BitterBreeze_6_010
// 051   ----------------------------------------
	BYTE	PATT
	 POIN2	BitterBreeze_6_011
// 052   ----------------------------------------
	BYTE	PATT
	 POIN2	BitterBreeze_6_010
// 053   ----------------------------------------
	BYTE	PATT
	 POIN2	BitterBreeze_6_013
// 054   ----------------------------------------
	BYTE	PATT
	 POIN2	BitterBreeze_6_010
// 055   ----------------------------------------
	BYTE	PATT
	 POIN2	BitterBreeze_6_011
// 056   ----------------------------------------
	BYTE	PATT
	 POIN2	BitterBreeze_6_010
// 057   ----------------------------------------
	BYTE	PATT
	 POIN2	BitterBreeze_6_013
// 058   ----------------------------------------
	BYTE	PATT
	 POIN2	BitterBreeze_6_010
// 059   ----------------------------------------
	BYTE	PATT
	 POIN2	BitterBreeze_6_011
// 060   ----------------------------------------
	BYTE	PATT
	 POIN2	BitterBreeze_6_010
// 061   ----------------------------------------
	BYTE	PATT
	 POIN2	BitterBreeze_6_013
// 062   ----------------------------------------
	BYTE	PATT
	 POIN2	BitterBreeze_6_010
// 063   ----------------------------------------
	BYTE	PATT
	 POIN2	BitterBreeze_6_011
// 064   ----------------------------------------
	BYTE	PATT
	 POIN2	BitterBreeze_6_010
// 065   ----------------------------------------
	BYTE	PATT
	 POIN2	BitterBreeze_6_013
// 066   ----------------------------------------
	BYTE	PATT
	 POIN2	BitterBreeze_6_010
// 067   ----------------------------------------
	BYTE	PATT
	 POIN2	BitterBreeze_6_011
// 068   ----------------------------------------
	BYTE	PATT
	 POIN2	BitterBreeze_6_010
// 069   ----------------------------------------
	BYTE	PATT
	 POIN2	BitterBreeze_6_013
// 070   ----------------------------------------
	BYTE	PATT
	 POIN2	BitterBreeze_6_010
// 071   ----------------------------------------
	BYTE	PATT
	 POIN2	BitterBreeze_6_011
// 072   ----------------------------------------
	BYTE	PATT
	 POIN2	BitterBreeze_6_010
// 073   ----------------------------------------
	BYTE	PATT
	 POIN2	BitterBreeze_6_013
// 074   ----------------------------------------
	BYTE	PATT
	 POIN2	BitterBreeze_6_010
// 075   ----------------------------------------
	BYTE	PATT
	 POIN2	BitterBreeze_6_011
// 076   ----------------------------------------
	BYTE	PATT
	 POIN2	BitterBreeze_6_010
// 077   ----------------------------------------
	BYTE	PATT
	 POIN2	BitterBreeze_6_013
	BYTE	GoTo
	 POIN2	BitterBreeze_6_B1
BitterBreeze_6_B2:
// 078   ----------------------------------------
	BYTE		PAN     c_v+0
	BYTE		        c_v+0
	BYTE		        c_v+0
	BYTE		BEND    c_v+0
	BYTE	FINE

//******************************************************//
	ALIGN 4

BitterBreeze:
	BYTE	6	// NumTrks
	BYTE	0	// NumBlks
	BYTE	BitterBreeze_pri	// Priority
	BYTE	BitterBreeze_rev	// Reverb.

	POIN2	BitterBreeze_grp

	POIN2	BitterBreeze_1
	POIN2	BitterBreeze_2
	POIN2	BitterBreeze_3
	POIN2	BitterBreeze_4
	POIN2	BitterBreeze_5
	POIN2	BitterBreeze_6

	
