//Event file generated from Sappy .s format.
	#include "MPlayDef.event"

	#define	enemyattack_grp  voicegroup000
	#define	enemyattack_pri  0
	#define	enemyattack_rev  0
	#define	enemyattack_mvl  127
	#define	enemyattack_key  0
	#define	enemyattack_tbs  1
	#define	enemyattack_exg  0
	#define	enemyattack_cmp  1

	// .rodata
	//	enemyattack
	ALIGN 4

//**************** Track 1 (Midi-Chn.1) ****************//

enemyattack_1:
	BYTE	KEYSH   enemyattack_key+0
enemyattack_1_B1:
// 000   ----------------------------------------
	BYTE	TEMPO   180*enemyattack_tbs/2
	BYTE		VOICE   18
	BYTE		VOL     88*enemyattack_mvl/mxv
	BYTE		PAN     c_v+0
	BYTE		        c_v+0
	BYTE		        c_v+0
	BYTE		        c_v+0
	BYTE		BEND    c_v+0
	BYTE		N11     Fs4   v100
	BYTE	W24
	BYTE		        Cs4 
	BYTE	W24
	BYTE		        Dn4 
	BYTE	W24
	BYTE		        Bn3 
	BYTE	W24
// 001   ----------------------------------------
	BYTE		        Fs3 
	BYTE	W12
	BYTE		        An3 
	BYTE	W12
	BYTE		        Cn4 
	BYTE	W12
	BYTE		        Ds4 
	BYTE	W12
	BYTE		        Fs4 
	BYTE	W24
	BYTE		        Cs4 
	BYTE	W24
// 002   ----------------------------------------
	BYTE		        Dn4 
	BYTE	W24
	BYTE		        Bn3 
	BYTE	W24
	BYTE		        Fs3 
	BYTE	W12
	BYTE		        An3 
	BYTE	W12
	BYTE		        Cs4 
	BYTE	W12
	BYTE		        En4 
	BYTE	W12
// 003   ----------------------------------------
enemyattack_1_003:
	BYTE		N11     Fs4   v100
	BYTE	W12
	BYTE		        Cs4 
	BYTE	W12
	BYTE		        Gs4 
	BYTE	W12
	BYTE		        Cs4 
	BYTE	W12
	BYTE		        An4 
	BYTE	W12
	BYTE		        Cs4 
	BYTE	W12
	BYTE		        Cs5 
	BYTE	W12
	BYTE		        Cs4 
	BYTE	W12
	BYTE	PEND
// 004   ----------------------------------------
	BYTE		        Bn4 
	BYTE	W12
	BYTE		        Cs4 
	BYTE	W12
	BYTE		        An4 
	BYTE	W12
	BYTE		        Cs4 
	BYTE	W12
	BYTE		        Gs4 
	BYTE	W12
	BYTE		        En4 
	BYTE	W12
	BYTE		        Cs4 
	BYTE	W12
	BYTE		        En4 
	BYTE	W12
// 005   ----------------------------------------
	BYTE		        Gs4 
	BYTE	W12
	BYTE		        An4 
	BYTE	W12
	BYTE		N05     Fs4 
	BYTE	W06
	BYTE		        En4 
	BYTE	W06
	BYTE		        Fs4 
	BYTE	W06
	BYTE		        Gs4 
	BYTE	W06
	BYTE		        An4 
	BYTE	W06
	BYTE		        Gs4 
	BYTE	W06
	BYTE		        An4 
	BYTE	W06
	BYTE		        Bn4 
	BYTE	W06
	BYTE		N11     An4 
	BYTE	W12
	BYTE		        Gs4 
	BYTE	W12
// 006   ----------------------------------------
	BYTE		        Fs4 
	BYTE	W24
	BYTE		        Cs4 
	BYTE	W24
	BYTE		        Dn4 
	BYTE	W12
	BYTE		        Bn3 
	BYTE	W12
	BYTE		        Fs4 
	BYTE	W12
	BYTE		        Cs4 
	BYTE	W12
// 007   ----------------------------------------
	BYTE		        Dn4 
	BYTE	W12
	BYTE		        Bn3 
	BYTE	W12
	BYTE		N05     Fs3 
	BYTE	W06
	BYTE		        An3 
	BYTE	W06
	BYTE		        Cn4 
	BYTE	W06
	BYTE		        Ds4 
	BYTE	W06
	BYTE		N11     Fs4 
	BYTE	W12
	BYTE		        Cs4 
	BYTE	W24
	BYTE		        Dn4 
	BYTE	W12
// 008   ----------------------------------------
	BYTE	W24
	BYTE		        Bn3 
	BYTE	W24
	BYTE		        Fs3 
	BYTE	W12
	BYTE		        An3 
	BYTE	W12
	BYTE		        Cs4 
	BYTE	W12
	BYTE		        En4 
	BYTE	W12
// 009   ----------------------------------------
	BYTE	PATT
	 POIN2	enemyattack_1_003
// 010   ----------------------------------------
	BYTE		N11     Bn4   v100
	BYTE	W12
	BYTE		        Cs4 
	BYTE	W12
	BYTE		        An4 
	BYTE	W12
	BYTE		        Cs4 
	BYTE	W12
	BYTE		        Fs4 
	BYTE	W12
	BYTE		        En4 
	BYTE	W12
	BYTE		        Fs4 
	BYTE	W12
	BYTE		        Gs4 
	BYTE	W12
// 011   ----------------------------------------
	BYTE		        An4 
	BYTE	W12
	BYTE		        Gs4 
	BYTE	W12
	BYTE		        An4 
	BYTE	W12
	BYTE		        Gs4 
	BYTE	W12
	BYTE		        An4 
	BYTE	W12
	BYTE		        Bn4 
	BYTE	W12
	BYTE		        Cs5 
	BYTE	W12
	BYTE		        Bn4 
	BYTE	W12
// 012   ----------------------------------------
	BYTE		N17     Fs4 
	BYTE		N17     Fs5 
	BYTE	W18
	BYTE		        Cs4 
	BYTE		N17     Cs5 
	BYTE	W18
	BYTE		        Dn4 
	BYTE		N17     Dn5 
	BYTE	W18
	BYTE		        Bn3 
	BYTE		N17     Bn4 
	BYTE	W18
	BYTE		N11     Fs3 
	BYTE		N11     Fs4 
	BYTE	W12
	BYTE		        An3 
	BYTE		N11     An4 
	BYTE	W12
// 013   ----------------------------------------
	BYTE		        Cn4 
	BYTE		N11     Cn5 
	BYTE	W12
	BYTE		        Ds4 
	BYTE		N11     Ds5 
	BYTE	W12
	BYTE		        Fs4 
	BYTE		N11     Fs5 
	BYTE	W12
	BYTE		        An4 
	BYTE		N11     An5 
	BYTE	W12
	BYTE		N17     Fs4 
	BYTE		N17     Fs5 
	BYTE	W18
	BYTE		        Cs4 
	BYTE		N17     Cs5 
	BYTE	W18
	BYTE		        Dn4 
	BYTE		N17     Dn5 
	BYTE	W12
// 014   ----------------------------------------
	BYTE	W06
	BYTE		        Bn3 
	BYTE		N17     Bn4 
	BYTE	W18
	BYTE		N11     Fs3 
	BYTE		N11     Fs4 
	BYTE	W12
	BYTE		        An3 
	BYTE		N11     An4 
	BYTE	W12
	BYTE		        Cs4 
	BYTE		N11     Cs5 
	BYTE	W12
	BYTE		        En4 
	BYTE		N11     En5 
	BYTE	W12
	BYTE		        Gs4 
	BYTE		N11     Gs5 
	BYTE	W12
	BYTE		        An4 
	BYTE		N11     An5 
	BYTE	W12
// 015   ----------------------------------------
	BYTE		        Fs4 
	BYTE		N11     Fs5 
	BYTE	W12
	BYTE		        Cs4 
	BYTE		N11     Cs5 
	BYTE	W12
	BYTE		        Gs4 
	BYTE		N11     Gs5 
	BYTE	W12
	BYTE		        Cs4 
	BYTE		N11     Cs5 
	BYTE	W12
	BYTE		        An4 
	BYTE		N11     An5 
	BYTE	W12
	BYTE		        Cs4 
	BYTE		N11     Cs5 
	BYTE	W12
	BYTE		N11   
	BYTE		N11     Cs6 
	BYTE	W12
	BYTE		        Cs4 
	BYTE		N11     Cs5 
	BYTE	W12
// 016   ----------------------------------------
	BYTE		        Bn4 
	BYTE		N11     Bn5 
	BYTE	W12
	BYTE		        Cs4 
	BYTE		N11     Cs5 
	BYTE	W12
	BYTE		        An4 
	BYTE		N11     An5 
	BYTE	W12
	BYTE		        Cs4 
	BYTE		N11     Cs5 
	BYTE	W12
	BYTE		        Gs4 
	BYTE		N11     Gs5 
	BYTE	W12
	BYTE		        En4 
	BYTE		N11     En5 
	BYTE	W12
	BYTE		        Cs4 
	BYTE		N11     Cs5 
	BYTE	W12
	BYTE		        En4 
	BYTE		N11     En5 
	BYTE	W12
// 017   ----------------------------------------
	BYTE		        Gs4 
	BYTE		N11     Gs5 
	BYTE	W12
	BYTE		        An4 
	BYTE		N11     An5 
	BYTE	W12
	BYTE		N05     Fs4 
	BYTE		N05     Fs5 
	BYTE	W06
	BYTE		        En4 
	BYTE		N05     En5 
	BYTE	W06
	BYTE		        Fs4 
	BYTE		N05     Fs5 
	BYTE	W06
	BYTE		        Gs4 
	BYTE		N05     Gs5 
	BYTE	W06
	BYTE		        An4 
	BYTE		N05     An5 
	BYTE	W06
	BYTE		        Gs4 
	BYTE		N05     Gs5 
	BYTE	W06
	BYTE		        An4 
	BYTE		N05     An5 
	BYTE	W06
	BYTE		        Bn4 
	BYTE		N05     Bn5 
	BYTE	W06
	BYTE		N11     An4 
	BYTE		N11     An5 
	BYTE	W12
	BYTE		        Gs4 
	BYTE		N11     Gs5 
	BYTE	W12
// 018   ----------------------------------------
	BYTE		        Fs4 
	BYTE		N11     Fs5 
	BYTE	W12
	BYTE		        Cs4 
	BYTE		N11     Cs5 
	BYTE	W12
	BYTE		        Dn4 
	BYTE		N11     Dn5 
	BYTE	W12
	BYTE		        Bn3 
	BYTE		N11     Bn4 
	BYTE	W12
	BYTE		        Cs4 
	BYTE		N11     Cs5 
	BYTE	W12
	BYTE		        An3 
	BYTE		N11     An4 
	BYTE	W12
	BYTE		        Fs3 
	BYTE		N11     Fs4 
	BYTE	W12
	BYTE		        An3 
	BYTE		N11     An4 
	BYTE	W12
// 019   ----------------------------------------
	BYTE		N17     Cn4 
	BYTE		N17     Cn5 
	BYTE	W18
	BYTE		        Ds4 
	BYTE		N17     Ds5 
	BYTE	W18
	BYTE		N11     Fs4 
	BYTE		N11     Fs5 
	BYTE	W12
	BYTE		        Fs4 
	BYTE		N11     Fs5 
	BYTE	W12
	BYTE		        Cs4 
	BYTE		N11     Cs5 
	BYTE	W12
	BYTE		        Dn4 
	BYTE		N11     Dn5 
	BYTE	W12
	BYTE		        Bn3 
	BYTE		N11     Bn4 
	BYTE	W12
// 020   ----------------------------------------
	BYTE		        Cs4 
	BYTE		N11     Cs5 
	BYTE	W12
	BYTE		        An3 
	BYTE		N11     An4 
	BYTE	W12
	BYTE		        Fs3 
	BYTE		N11     Fs4 
	BYTE	W12
	BYTE		        An3 
	BYTE		N11     An4 
	BYTE	W12
	BYTE		N17     Cs4 
	BYTE		N17     Cs5 
	BYTE	W18
	BYTE		        En4 
	BYTE		N17     En5 
	BYTE	W18
	BYTE		N11     Gs4 
	BYTE		N11     Gs5 
	BYTE	W12
// 021   ----------------------------------------
	BYTE		        Fs4 
	BYTE		N11     Fs5 
	BYTE	W12
	BYTE		        Cs4 
	BYTE		N11     Cs5 
	BYTE	W12
	BYTE		        An3 
	BYTE		N11     An4 
	BYTE	W12
	BYTE		        Cs4 
	BYTE		N11     Cs5 
	BYTE	W12
	BYTE		        An3 
	BYTE		N11     An4 
	BYTE	W12
	BYTE		        Fs3 
	BYTE		N11     Fs4 
	BYTE	W12
	BYTE		        An3 
	BYTE		N11     An4 
	BYTE	W12
	BYTE		        Fs3 
	BYTE		N11     Fs4 
	BYTE	W12
// 022   ----------------------------------------
	BYTE		        Cs3 
	BYTE		N11     Cs4 
	BYTE	W12
	BYTE		        Fs3 
	BYTE		N11     Fs4 
	BYTE	W12
	BYTE		        Cs3 
	BYTE		N11     Cs4 
	BYTE	W12
	BYTE		        An2 
	BYTE		N11     An3 
	BYTE	W12
	BYTE		N05     Fs2 
	BYTE		N05     Fs3 
	BYTE	W06
	BYTE		        An2 
	BYTE		N05     An3 
	BYTE	W06
	BYTE		        Cs3 
	BYTE		N05     Cs4 
	BYTE	W06
	BYTE		        An2 
	BYTE		N05     An3 
	BYTE	W06
	BYTE		        Cs3 
	BYTE		N05     Cs4 
	BYTE	W06
	BYTE		        Fs3 
	BYTE		N05     Fs4 
	BYTE	W06
	BYTE		        Cs3 
	BYTE		N05     Cs4 
	BYTE	W06
	BYTE		        Fs3 
	BYTE		N05     Fs4 
	BYTE	W06
// 023   ----------------------------------------
	BYTE		        An3 
	BYTE		N05     An4 
	BYTE	W06
	BYTE		        Fs3 
	BYTE		N05     Fs4 
	BYTE	W06
	BYTE		        An3 
	BYTE		N05     An4 
	BYTE	W06
	BYTE		        Cs4 
	BYTE		N05     Cs5 
	BYTE	W06
	BYTE		N23     Fs4 
	BYTE		N23     Fs5 
	BYTE	W24
	BYTE		        Gs4 
	BYTE		N23     Gs5 
	BYTE	W24
	BYTE		        An4 
	BYTE		N23     An5 
	BYTE	W24
	BYTE	GoTo
	 POIN2	enemyattack_1_B1
enemyattack_1_B2:
// 024   ----------------------------------------
	BYTE		PAN     c_v+0
	BYTE		        c_v+0
	BYTE		        c_v+0
	BYTE		BEND    c_v+0
	BYTE	FINE

//**************** Track 2 (Midi-Chn.2) ****************//

enemyattack_2:
	BYTE	KEYSH   enemyattack_key+0
enemyattack_2_B1:
// 000   ----------------------------------------
	BYTE		VOICE   63
	BYTE		VOL     49*enemyattack_mvl/mxv
	BYTE		PAN     c_v+0
	BYTE		        c_v+0
	BYTE		        c_v+0
	BYTE		        c_v+0
	BYTE		BEND    c_v+0
	BYTE		TIE     Fs1   v100
	BYTE	W96
// 001   ----------------------------------------
	BYTE	W44
	BYTE	W03
	BYTE		EOT   
	BYTE	W01
	BYTE		TIE   
	BYTE	W48
// 002   ----------------------------------------
	BYTE	W92
	BYTE	W03
	BYTE		EOT   
	BYTE	W01
// 003   ----------------------------------------
	BYTE		TIE     An1 
	BYTE	W96
// 004   ----------------------------------------
	BYTE	W44
	BYTE	W03
	BYTE		EOT   
	BYTE	W01
	BYTE		TIE     Gs1 
	BYTE	W48
// 005   ----------------------------------------
	BYTE	W92
	BYTE	W03
	BYTE		EOT   
	BYTE	W01
// 006   ----------------------------------------
	BYTE		TIE     Fs1 
	BYTE	W96
// 007   ----------------------------------------
	BYTE	W44
	BYTE	W03
	BYTE		EOT   
	BYTE	W01
	BYTE		TIE   
	BYTE	W48
// 008   ----------------------------------------
	BYTE	W92
	BYTE	W03
	BYTE		EOT   
	BYTE	W01
// 009   ----------------------------------------
	BYTE		TIE     En1 
	BYTE	W96
// 010   ----------------------------------------
	BYTE	W44
	BYTE	W03
	BYTE		EOT   
	BYTE	W01
	BYTE		TIE     Gs1 
	BYTE	W48
// 011   ----------------------------------------
	BYTE	W92
	BYTE	W03
	BYTE		EOT   
	BYTE	W01
// 012   ----------------------------------------
enemyattack_2_012:
	BYTE		N68     Fs1   v100
	BYTE		N68     Fs2 
	BYTE	W72
	BYTE		        Fs1 
	BYTE		N68     Fs2 
	BYTE	W24
	BYTE	PEND
// 013   ----------------------------------------
enemyattack_2_013:
	BYTE	W48
	BYTE		N68     Fs1   v100
	BYTE		N68     Fs2 
	BYTE	W48
	BYTE	PEND
// 014   ----------------------------------------
enemyattack_2_014:
	BYTE	W24
	BYTE		N68     Fs1   v100
	BYTE		N68     Fs2 
	BYTE	W72
	BYTE	PEND
// 015   ----------------------------------------
	BYTE		TIE     An1 
	BYTE		TIE     An2 
	BYTE	W96
// 016   ----------------------------------------
	BYTE	W44
	BYTE	W03
	BYTE		EOT     An1 
	BYTE		        An2 
	BYTE	W01
	BYTE		N68     Cs2 
	BYTE		N68     Cs3 
	BYTE	W48
// 017   ----------------------------------------
enemyattack_2_017:
	BYTE	W24
	BYTE		N68     Bn1   v100
	BYTE		N68     Bn2 
	BYTE	W72
	BYTE	PEND
// 018   ----------------------------------------
	BYTE	PATT
	 POIN2	enemyattack_2_012
// 019   ----------------------------------------
	BYTE	PATT
	 POIN2	enemyattack_2_013
// 020   ----------------------------------------
	BYTE	PATT
	 POIN2	enemyattack_2_014
// 021   ----------------------------------------
	BYTE		TIE     En1   v100
	BYTE		TIE     En2 
	BYTE	W96
// 022   ----------------------------------------
	BYTE	W44
	BYTE	W03
	BYTE		EOT     En1 
	BYTE		        En2 
	BYTE	W01
	BYTE		N68     Cs2 
	BYTE		N68     Cs3 
	BYTE	W48
// 023   ----------------------------------------
	BYTE	PATT
	 POIN2	enemyattack_2_017
	BYTE	GoTo
	 POIN2	enemyattack_2_B1
enemyattack_2_B2:
// 024   ----------------------------------------
	BYTE		PAN     c_v+0
	BYTE		        c_v+0
	BYTE		        c_v+0
	BYTE		BEND    c_v+0
	BYTE	FINE

//**************** Track 3 (Midi-Chn.3) ****************//

enemyattack_3:
	BYTE	KEYSH   enemyattack_key+0
enemyattack_3_B1:
// 000   ----------------------------------------
	BYTE		VOICE   40
	BYTE		VOL     47*enemyattack_mvl/mxv
	BYTE		PAN     c_v+0
	BYTE		        c_v+0
	BYTE		        c_v+0
	BYTE		        c_v+0
	BYTE		BEND    c_v+0
	BYTE		N05     Fs3   v100
	BYTE	W12
	BYTE		N05   
	BYTE	W24
	BYTE		N05   
	BYTE	W12
	BYTE		N05   
	BYTE	W24
	BYTE		N05   
	BYTE	W12
	BYTE		N05   
	BYTE	W12
// 001   ----------------------------------------
enemyattack_3_001:
	BYTE	W12
	BYTE		N05     Fs3   v100
	BYTE	W12
	BYTE		N05   
	BYTE	W24
	BYTE		N05   
	BYTE	W12
	BYTE		N05   
	BYTE	W24
	BYTE		N05   
	BYTE	W12
	BYTE	PEND
// 002   ----------------------------------------
enemyattack_3_002:
	BYTE		N05     Fs3   v100
	BYTE	W24
	BYTE		N05   
	BYTE	W12
	BYTE		N05   
	BYTE	W24
	BYTE		N05   
	BYTE	W12
	BYTE		N05   
	BYTE	W24
	BYTE	PEND
// 003   ----------------------------------------
	BYTE		        An3 
	BYTE	W12
	BYTE		N05   
	BYTE	W24
	BYTE		N05   
	BYTE	W12
	BYTE		N05   
	BYTE	W24
	BYTE		N05   
	BYTE	W12
	BYTE		N05   
	BYTE	W12
// 004   ----------------------------------------
	BYTE	W12
	BYTE		N05   
	BYTE	W12
	BYTE		N05   
	BYTE	W24
	BYTE		        Gs3 
	BYTE	W12
	BYTE		N05   
	BYTE	W24
	BYTE		N05   
	BYTE	W12
// 005   ----------------------------------------
enemyattack_3_005:
	BYTE		N05     Gs3   v100
	BYTE	W24
	BYTE		N05   
	BYTE	W12
	BYTE		N05   
	BYTE	W24
	BYTE		N05   
	BYTE	W12
	BYTE		N05   
	BYTE	W24
	BYTE	PEND
// 006   ----------------------------------------
enemyattack_3_006:
	BYTE		N05     Fs3   v100
	BYTE	W12
	BYTE		N05   
	BYTE	W24
	BYTE		N05   
	BYTE	W12
	BYTE		N05   
	BYTE	W24
	BYTE		N05   
	BYTE	W12
	BYTE		N05   
	BYTE	W12
	BYTE	PEND
// 007   ----------------------------------------
	BYTE	PATT
	 POIN2	enemyattack_3_001
// 008   ----------------------------------------
	BYTE	PATT
	 POIN2	enemyattack_3_002
// 009   ----------------------------------------
enemyattack_3_009:
	BYTE		N05     En3   v100
	BYTE	W12
	BYTE		N05   
	BYTE	W24
	BYTE		N05   
	BYTE	W12
	BYTE		N05   
	BYTE	W24
	BYTE		N05   
	BYTE	W12
	BYTE		N05   
	BYTE	W12
	BYTE	PEND
// 010   ----------------------------------------
	BYTE	W12
	BYTE		N05   
	BYTE	W12
	BYTE		N05   
	BYTE	W24
	BYTE		        Gs3 
	BYTE	W12
	BYTE		N05   
	BYTE	W24
	BYTE		N05   
	BYTE	W12
// 011   ----------------------------------------
	BYTE	PATT
	 POIN2	enemyattack_3_005
// 012   ----------------------------------------
	BYTE	W96
// 013   ----------------------------------------
	BYTE	W96
// 014   ----------------------------------------
	BYTE	W96
// 015   ----------------------------------------
	BYTE	W96
// 016   ----------------------------------------
	BYTE	W96
// 017   ----------------------------------------
	BYTE	W96
// 018   ----------------------------------------
	BYTE	PATT
	 POIN2	enemyattack_3_006
// 019   ----------------------------------------
	BYTE	PATT
	 POIN2	enemyattack_3_001
// 020   ----------------------------------------
	BYTE	PATT
	 POIN2	enemyattack_3_002
// 021   ----------------------------------------
	BYTE	PATT
	 POIN2	enemyattack_3_009
// 022   ----------------------------------------
	BYTE	W12
	BYTE		N05     En3   v100
	BYTE	W12
	BYTE		N05   
	BYTE	W24
	BYTE		        Cs4 
	BYTE	W12
	BYTE		N05   
	BYTE	W24
	BYTE		N05   
	BYTE	W12
// 023   ----------------------------------------
	BYTE		N05   
	BYTE	W24
	BYTE		        Bn3 
	BYTE	W12
	BYTE		N05   
	BYTE	W24
	BYTE		N05   
	BYTE	W12
	BYTE		N05   
	BYTE	W24
	BYTE	GoTo
	 POIN2	enemyattack_3_B1
enemyattack_3_B2:
// 024   ----------------------------------------
	BYTE		PAN     c_v+0
	BYTE		        c_v+0
	BYTE		        c_v+0
	BYTE		BEND    c_v+0
	BYTE	FINE

//**************** Track 4 (Midi-Chn.4) ****************//

enemyattack_4:
	BYTE	KEYSH   enemyattack_key+0
enemyattack_4_B1:
// 000   ----------------------------------------
	BYTE		VOICE   14
	BYTE		VOL     54*enemyattack_mvl/mxv
	BYTE		PAN     c_v+0
	BYTE		        c_v+0
	BYTE		        c_v+0
	BYTE		        c_v+0
	BYTE		BEND    c_v+0
	BYTE		TIE     Fs3   v100
	BYTE	W96
// 001   ----------------------------------------
	BYTE	W96
// 002   ----------------------------------------
	BYTE	W92
	BYTE	W03
	BYTE		EOT   
	BYTE	W01
// 003   ----------------------------------------
	BYTE		TIE   
	BYTE	W96
// 004   ----------------------------------------
	BYTE	W96
// 005   ----------------------------------------
	BYTE	W92
	BYTE	W03
	BYTE		EOT   
	BYTE	W01
// 006   ----------------------------------------
	BYTE		TIE   
	BYTE	W96
// 007   ----------------------------------------
	BYTE	W96
// 008   ----------------------------------------
	BYTE	W92
	BYTE	W03
	BYTE		EOT   
	BYTE	W01
// 009   ----------------------------------------
	BYTE		TIE   
	BYTE	W96
// 010   ----------------------------------------
	BYTE	W96
// 011   ----------------------------------------
	BYTE	W92
	BYTE	W03
	BYTE		EOT   
	BYTE	W01
// 012   ----------------------------------------
	BYTE		TIE   
	BYTE	W96
// 013   ----------------------------------------
	BYTE	W96
// 014   ----------------------------------------
	BYTE	W92
	BYTE	W03
	BYTE		EOT   
	BYTE	W01
// 015   ----------------------------------------
	BYTE		TIE   
	BYTE	W96
// 016   ----------------------------------------
	BYTE	W96
// 017   ----------------------------------------
	BYTE	W92
	BYTE	W03
	BYTE		EOT   
	BYTE	W01
// 018   ----------------------------------------
	BYTE		TIE   
	BYTE	W96
// 019   ----------------------------------------
	BYTE	W96
// 020   ----------------------------------------
	BYTE	W92
	BYTE	W03
	BYTE		EOT   
	BYTE	W01
// 021   ----------------------------------------
	BYTE		TIE   
	BYTE	W96
// 022   ----------------------------------------
	BYTE	W96
// 023   ----------------------------------------
	BYTE	W92
	BYTE	W03
	BYTE		EOT   
	BYTE	W01
	BYTE	GoTo
	 POIN2	enemyattack_4_B1
enemyattack_4_B2:
// 024   ----------------------------------------
	BYTE		PAN     c_v+0
	BYTE		        c_v+0
	BYTE		        c_v+0
	BYTE		BEND    c_v+0
	BYTE	FINE

//**************** Track 5 (Midi-Chn.10) ****************//

enemyattack_5:
	BYTE	KEYSH   enemyattack_key+0
enemyattack_5_B1:
// 000   ----------------------------------------
	BYTE		VOICE   127
	BYTE		VOL     71*enemyattack_mvl/mxv
	BYTE		PAN     c_v+0
	BYTE		        c_v+0
	BYTE		        c_v+0
	BYTE		        c_v+0
	BYTE		BEND    c_v+0
	BYTE		N32     Cn1   v100
	BYTE		N11     Dn1 
	BYTE	W12
	BYTE		N11   
	BYTE	W12
	BYTE		        Ds1 
	BYTE	W12
	BYTE		N32     Cn1 
	BYTE		N32     Dn1 
	BYTE	W36
	BYTE		        Cn1 
	BYTE		N23     Dn1 
	BYTE	W24
// 001   ----------------------------------------
	BYTE		N11     Ds1 
	BYTE	W12
	BYTE		N32     Cn1 
	BYTE		N11     Dn1 
	BYTE	W12
	BYTE		N11   
	BYTE	W12
	BYTE		N11   
	BYTE	W12
	BYTE		N32     Cn1 
	BYTE		N11     Ds1 
	BYTE	W12
	BYTE		        Dn1 
	BYTE	W12
	BYTE		        Ds1 
	BYTE	W12
	BYTE		N32     Cn1 
	BYTE		N11     Dn1 
	BYTE	W12
// 002   ----------------------------------------
	BYTE		N05   
	BYTE	W06
	BYTE		N05   
	BYTE	W06
	BYTE		N11   
	BYTE	W12
	BYTE		N32     Cn1 
	BYTE		N05     Dn1 
	BYTE	W06
	BYTE		N05   
	BYTE	W06
	BYTE		N11   
	BYTE	W12
	BYTE		N11   
	BYTE	W12
	BYTE		N32     Cn1 
	BYTE		N11     Dn1 
	BYTE	W12
	BYTE		N05   
	BYTE	W06
	BYTE		N05   
	BYTE	W06
	BYTE		N11   
	BYTE	W12
// 003   ----------------------------------------
	BYTE		N17     Cn1 
	BYTE		N05     Dn1 
	BYTE	W06
	BYTE		N05   
	BYTE	W06
	BYTE		N05   
	BYTE	W06
	BYTE		N17     Cn1 
	BYTE		N17     Dn1 
	BYTE	W18
	BYTE		N11     Cn1 
	BYTE		N05     Dn1 
	BYTE	W06
	BYTE		N11   
	BYTE	W06
	BYTE		        Cn1 
	BYTE	W06
	BYTE		N05     Dn1 
	BYTE	W06
	BYTE		N11     Cn1 
	BYTE		N11     Ds1 
	BYTE	W12
	BYTE		N17     Cn1 
	BYTE		N05     Dn1 
	BYTE	W06
	BYTE		N05   
	BYTE	W06
	BYTE		N05   
	BYTE	W06
	BYTE		N17     Cn1 
	BYTE		N17     Dn1 
	BYTE	W06
// 004   ----------------------------------------
	BYTE	W12
	BYTE		N11     Cn1 
	BYTE		N05     Dn1 
	BYTE	W06
	BYTE		N05   
	BYTE	W06
	BYTE		N11     Cn1 
	BYTE		N05     Dn1 
	BYTE	W06
	BYTE		N05   
	BYTE	W06
	BYTE		N11     Cn1 
	BYTE		N11     Ds1 
	BYTE	W12
	BYTE		        Cn1 
	BYTE		N05     Dn1 
	BYTE	W06
	BYTE		N11   
	BYTE	W06
	BYTE		        Cn1 
	BYTE	W06
	BYTE		N05     Dn1 
	BYTE	W06
	BYTE		N11     Cn1 
	BYTE		N11     Dn1 
	BYTE	W12
	BYTE		        Cn1 
	BYTE		N05     Dn1 
	BYTE	W06
	BYTE		N11   
	BYTE	W06
// 005   ----------------------------------------
	BYTE		        Cn1 
	BYTE	W06
	BYTE		N05     Dn1 
	BYTE	W06
	BYTE		N11     Cn1 
	BYTE		N11     Ds1 
	BYTE	W12
	BYTE		        Cn1 
	BYTE		N05     Dn1 
	BYTE	W06
	BYTE		N11   
	BYTE	W06
	BYTE		        Cn1 
	BYTE	W06
	BYTE		N05     Dn1 
	BYTE	W06
	BYTE		N23     Cn1 
	BYTE		N11     Dn1 
	BYTE	W12
	BYTE		N11   
	BYTE	W12
	BYTE		        Cn1 
	BYTE		N05     Dn1 
	BYTE	W06
	BYTE		N05   
	BYTE	W06
	BYTE		N11     Cn1 
	BYTE		N05     Dn1 
	BYTE	W06
	BYTE		N05   
	BYTE	W06
// 006   ----------------------------------------
	BYTE		N32     Cn1 
	BYTE		N11     Dn1 
	BYTE		N23     Fs1 
	BYTE	W12
	BYTE		N11     Ds1 
	BYTE	W12
	BYTE		        Dn1 
	BYTE		N23     Fs1 
	BYTE	W12
	BYTE		N32     Cn1 
	BYTE		N05     Dn1 
	BYTE	W06
	BYTE		N05   
	BYTE	W06
	BYTE		N23   
	BYTE		N23     Fs1 
	BYTE	W24
	BYTE		N32     Cn1 
	BYTE		N11     Dn1 
	BYTE		N23     Fs1 
	BYTE	W12
	BYTE		N11     Dn1 
	BYTE	W12
// 007   ----------------------------------------
	BYTE		        Ds1 
	BYTE		N23     Fs1 
	BYTE	W12
	BYTE		N32     Cn1 
	BYTE		N05     Dn1 
	BYTE	W06
	BYTE		N05   
	BYTE	W06
	BYTE		N11   
	BYTE		N23     Fs1 
	BYTE	W12
	BYTE		N05     Dn1 
	BYTE	W06
	BYTE		N05   
	BYTE	W06
	BYTE		N32     Cn1 
	BYTE		N11     Ds1 
	BYTE		N23     Fs1 
	BYTE	W12
	BYTE		N05     Dn1 
	BYTE	W06
	BYTE		N05   
	BYTE	W06
	BYTE		N11   
	BYTE		N23     Fs1 
	BYTE	W12
	BYTE		N32     Cn1 
	BYTE		N11     Dn1 
	BYTE	W12
// 008   ----------------------------------------
	BYTE		N05   
	BYTE		N23     Fs1 
	BYTE	W06
	BYTE		N05     Dn1 
	BYTE	W06
	BYTE		N11     Ds1 
	BYTE	W12
	BYTE		N32     Cn1 
	BYTE		N05     Dn1 
	BYTE		N23     Fs1 
	BYTE	W06
	BYTE		N05     Dn1 
	BYTE	W06
	BYTE		N11   
	BYTE	W12
	BYTE		N11   
	BYTE		N23     Fs1 
	BYTE	W12
	BYTE		N32     Cn1 
	BYTE		N11     Ds1 
	BYTE	W12
	BYTE		N05     Dn1 
	BYTE		N23     Fs1 
	BYTE	W06
	BYTE		N05     Dn1 
	BYTE	W06
	BYTE		N11     Ds1 
	BYTE	W12
// 009   ----------------------------------------
	BYTE		N17     Cn1 
	BYTE		N05     Dn1 
	BYTE		N23     Fs1 
	BYTE	W06
	BYTE		N05     Dn1 
	BYTE	W06
	BYTE		N05   
	BYTE	W06
	BYTE		N17     Cn1 
	BYTE		N17     Dn1 
	BYTE	W06
	BYTE		N23     Fs1 
	BYTE	W12
	BYTE		N11     Cn1 
	BYTE		N05     Dn1 
	BYTE	W06
	BYTE		N11   
	BYTE	W06
	BYTE		        Cn1 
	BYTE		N23     Fs1 
	BYTE	W06
	BYTE		N05     Dn1 
	BYTE	W06
	BYTE		N11     Cn1 
	BYTE		N11     Ds1 
	BYTE	W12
	BYTE		N17     Cn1 
	BYTE		N17     Dn1 
	BYTE		N23     Fs1 
	BYTE	W18
	BYTE		N17     Cn1 
	BYTE		N05     Dn1 
	BYTE	W06
// 010   ----------------------------------------
	BYTE		N05   
	BYTE		N23     Fs1 
	BYTE	W06
	BYTE		N05     Dn1 
	BYTE	W06
	BYTE		N11     Cn1 
	BYTE		N05     Dn1 
	BYTE	W06
	BYTE		N05   
	BYTE	W06
	BYTE		N11     Cn1 
	BYTE		N05     Dn1 
	BYTE		N23     Fs1 
	BYTE	W06
	BYTE		N05     Dn1 
	BYTE	W06
	BYTE		N11     Cn1 
	BYTE		N11     Ds1 
	BYTE	W12
	BYTE		        Cn1 
	BYTE		N05     Dn1 
	BYTE		N23     Fs1 
	BYTE	W06
	BYTE		N11     Dn1 
	BYTE	W06
	BYTE		        Cn1 
	BYTE	W06
	BYTE		N05     Dn1 
	BYTE	W06
	BYTE		N11     Cn1 
	BYTE		N11     Dn1 
	BYTE		N23     Fs1 
	BYTE	W12
	BYTE		N11     Cn1 
	BYTE		N05     Dn1 
	BYTE	W06
	BYTE		N11   
	BYTE	W06
// 011   ----------------------------------------
	BYTE		        Cn1 
	BYTE		N23     Fs1 
	BYTE	W06
	BYTE		N05     Dn1 
	BYTE	W06
	BYTE		N11     Cn1 
	BYTE		N11     Ds1 
	BYTE	W12
	BYTE		        Cn1 
	BYTE		N05     Dn1 
	BYTE		N23     Fs1 
	BYTE	W06
	BYTE		N11     Dn1 
	BYTE	W06
	BYTE		        Cn1 
	BYTE	W06
	BYTE		N05     Dn1 
	BYTE	W06
	BYTE		N23     Cn1 
	BYTE		N11     Dn1 
	BYTE		N23     Fs1 
	BYTE	W12
	BYTE		N11     Dn1 
	BYTE	W12
	BYTE		        Cn1 
	BYTE		N05     Dn1 
	BYTE		N23     Fs1 
	BYTE	W06
	BYTE		N05     Dn1 
	BYTE	W06
	BYTE		N11     Cn1 
	BYTE		N05     Dn1 
	BYTE	W06
	BYTE		N05   
	BYTE	W06
// 012   ----------------------------------------
	BYTE		N32     Cn1 
	BYTE		N11     Dn1 
	BYTE		N11     Fs1 
	BYTE	W12
	BYTE		        Dn1 
	BYTE		N11     Fs1 
	BYTE	W12
	BYTE		        Ds1 
	BYTE		N11     Fs1 
	BYTE	W12
	BYTE		N32     Cn1 
	BYTE		N32     Dn1 
	BYTE		N11     Fs1 
	BYTE	W12
	BYTE		N11   
	BYTE	W12
	BYTE		N11   
	BYTE	W12
	BYTE		N32     Cn1 
	BYTE		N23     Dn1 
	BYTE		N11     Fs1 
	BYTE	W12
	BYTE		N11   
	BYTE	W12
// 013   ----------------------------------------
	BYTE		        Ds1 
	BYTE		N11     Fs1 
	BYTE	W12
	BYTE		N32     Cn1 
	BYTE		N11     Dn1 
	BYTE		N11     Fs1 
	BYTE	W12
	BYTE		        Dn1 
	BYTE		N11     Fs1 
	BYTE	W12
	BYTE		        Dn1 
	BYTE		N11     Fs1 
	BYTE	W12
	BYTE		N32     Cn1 
	BYTE		N11     Ds1 
	BYTE		N11     Fs1 
	BYTE	W12
	BYTE		        Dn1 
	BYTE		N11     Fs1 
	BYTE	W12
	BYTE		        Ds1 
	BYTE		N11     Fs1 
	BYTE	W12
	BYTE		N32     Cn1 
	BYTE		N11     Dn1 
	BYTE		N11     Fs1 
	BYTE	W12
// 014   ----------------------------------------
	BYTE		N05     Dn1 
	BYTE		N11     Fs1 
	BYTE	W06
	BYTE		N05     Dn1 
	BYTE	W06
	BYTE		N11   
	BYTE		N11     Fs1 
	BYTE	W12
	BYTE		N32     Cn1 
	BYTE		N05     Dn1 
	BYTE		N11     Fs1 
	BYTE	W06
	BYTE		N05     Dn1 
	BYTE	W06
	BYTE		N11   
	BYTE		N11     Fs1 
	BYTE	W12
	BYTE		        Dn1 
	BYTE		N11     Fs1 
	BYTE	W12
	BYTE		N32     Cn1 
	BYTE		N11     Dn1 
	BYTE		N11     Fs1 
	BYTE	W12
	BYTE		N05     Dn1 
	BYTE		N11     Fs1 
	BYTE	W06
	BYTE		N05     Dn1 
	BYTE	W06
	BYTE		N11   
	BYTE		N11     Fs1 
	BYTE	W12
// 015   ----------------------------------------
	BYTE		N17     Cn1 
	BYTE		N05     Dn1 
	BYTE		N11     Fs1 
	BYTE	W06
	BYTE		N05     Dn1 
	BYTE	W06
	BYTE		N05   
	BYTE		N11     Fs1 
	BYTE	W06
	BYTE		N17     Cn1 
	BYTE		N17     Dn1 
	BYTE	W06
	BYTE		N11     Fs1 
	BYTE	W12
	BYTE		        Cn1 
	BYTE		N05     Dn1 
	BYTE		N11     Fs1 
	BYTE	W06
	BYTE		        Dn1 
	BYTE	W06
	BYTE		        Cn1 
	BYTE		N11     Fs1 
	BYTE	W06
	BYTE		N05     Dn1 
	BYTE	W06
	BYTE		N11     Cn1 
	BYTE		N11     Ds1 
	BYTE		N11     Fs1 
	BYTE	W12
	BYTE		N17     Cn1 
	BYTE		N05     Dn1 
	BYTE		N11     Fs1 
	BYTE	W06
	BYTE		N05     Dn1 
	BYTE	W06
	BYTE		N05   
	BYTE		N11     Fs1 
	BYTE	W06
	BYTE		N17     Cn1 
	BYTE		N17     Dn1 
	BYTE	W06
// 016   ----------------------------------------
	BYTE		N11     Fs1 
	BYTE	W12
	BYTE		        Cn1 
	BYTE		N05     Dn1 
	BYTE		N11     Fs1 
	BYTE	W06
	BYTE		N05     Dn1 
	BYTE	W06
	BYTE		N11     Cn1 
	BYTE		N05     Dn1 
	BYTE		N11     Fs1 
	BYTE	W06
	BYTE		N05     Dn1 
	BYTE	W06
	BYTE		N11     Cn1 
	BYTE		N11     Ds1 
	BYTE		N11     Fs1 
	BYTE	W12
	BYTE		        Cn1 
	BYTE		N05     Dn1 
	BYTE		N11     Fs1 
	BYTE	W06
	BYTE		        Dn1 
	BYTE	W06
	BYTE		        Cn1 
	BYTE		N11     Fs1 
	BYTE	W06
	BYTE		N05     Dn1 
	BYTE	W06
	BYTE		N11     Cn1 
	BYTE		N11     Dn1 
	BYTE		N11     Fs1 
	BYTE	W12
	BYTE		        Cn1 
	BYTE		N05     Dn1 
	BYTE		N11     Fs1 
	BYTE	W06
	BYTE		        Dn1 
	BYTE	W06
// 017   ----------------------------------------
enemyattack_5_017:
	BYTE		N11     Cn1   v100
	BYTE		N11     Fs1 
	BYTE	W06
	BYTE		N05     Dn1 
	BYTE	W06
	BYTE		N11     Cn1 
	BYTE		N11     Ds1 
	BYTE		N11     Fs1 
	BYTE	W12
	BYTE		        Cn1 
	BYTE		N05     Dn1 
	BYTE		N11     Fs1 
	BYTE	W06
	BYTE		        Dn1 
	BYTE	W06
	BYTE		        Cn1 
	BYTE		N11     Fs1 
	BYTE	W06
	BYTE		N05     Dn1 
	BYTE	W06
	BYTE		N23     Cn1 
	BYTE		N11     Dn1 
	BYTE		N11     Fs1 
	BYTE	W12
	BYTE		        Dn1 
	BYTE		N11     Fs1 
	BYTE	W12
	BYTE		        Cn1 
	BYTE		N05     Dn1 
	BYTE		N11     Fs1 
	BYTE	W06
	BYTE		N05     Dn1 
	BYTE	W06
	BYTE		N11     Cn1 
	BYTE		N05     Dn1 
	BYTE		N11     Fs1 
	BYTE	W06
	BYTE		N05     Dn1 
	BYTE	W06
	BYTE	PEND
// 018   ----------------------------------------
	BYTE		N32     Cn1 
	BYTE		N11     Dn1 
	BYTE		N11     Fs1 
	BYTE	W12
	BYTE		        Ds1 
	BYTE		N11     Fs1 
	BYTE	W12
	BYTE		        Dn1 
	BYTE		N11     Fs1 
	BYTE	W12
	BYTE		N32     Cn1 
	BYTE		N05     Dn1 
	BYTE		N11     Fs1 
	BYTE	W06
	BYTE		N05     Dn1 
	BYTE	W06
	BYTE		N23   
	BYTE		N11     Fs1 
	BYTE	W12
	BYTE		N11   
	BYTE	W12
	BYTE		N32     Cn1 
	BYTE		N11     Dn1 
	BYTE		N11     Fs1 
	BYTE	W12
	BYTE		        Dn1 
	BYTE		N11     Fs1 
	BYTE	W12
// 019   ----------------------------------------
	BYTE		        Ds1 
	BYTE		N11     Fs1 
	BYTE	W12
	BYTE		N32     Cn1 
	BYTE		N05     Dn1 
	BYTE		N11     Fs1 
	BYTE	W06
	BYTE		N05     Dn1 
	BYTE	W06
	BYTE		N11   
	BYTE		N11     Fs1 
	BYTE	W12
	BYTE		N05     Dn1 
	BYTE		N11     Fs1 
	BYTE	W06
	BYTE		N05     Dn1 
	BYTE	W06
	BYTE		N32     Cn1 
	BYTE		N11     Ds1 
	BYTE		N11     Fs1 
	BYTE	W12
	BYTE		N05     Dn1 
	BYTE		N11     Fs1 
	BYTE	W06
	BYTE		N05     Dn1 
	BYTE	W06
	BYTE		N11   
	BYTE		N11     Fs1 
	BYTE	W12
	BYTE		N32     Cn1 
	BYTE		N11     Dn1 
	BYTE		N11     Fs1 
	BYTE	W12
// 020   ----------------------------------------
	BYTE		N05     Dn1 
	BYTE		N11     Fs1 
	BYTE	W06
	BYTE		N05     Dn1 
	BYTE	W06
	BYTE		N11     Ds1 
	BYTE		N11     Fs1 
	BYTE	W12
	BYTE		N32     Cn1 
	BYTE		N05     Dn1 
	BYTE		N11     Fs1 
	BYTE	W06
	BYTE		N05     Dn1 
	BYTE	W06
	BYTE		N11   
	BYTE		N11     Fs1 
	BYTE	W12
	BYTE		        Dn1 
	BYTE		N11     Fs1 
	BYTE	W12
	BYTE		N32     Cn1 
	BYTE		N11     Ds1 
	BYTE		N11     Fs1 
	BYTE	W12
	BYTE		N05     Dn1 
	BYTE		N11     Fs1 
	BYTE	W06
	BYTE		N05     Dn1 
	BYTE	W06
	BYTE		N11     Ds1 
	BYTE		N11     Fs1 
	BYTE	W12
// 021   ----------------------------------------
	BYTE		N17     Cn1 
	BYTE		N05     Dn1 
	BYTE		N11     Fs1 
	BYTE	W06
	BYTE		N05     Dn1 
	BYTE	W06
	BYTE		N05   
	BYTE		N11     Fs1 
	BYTE	W06
	BYTE		N17     Cn1 
	BYTE		N17     Dn1 
	BYTE	W06
	BYTE		N11     Fs1 
	BYTE	W12
	BYTE		        Cn1 
	BYTE		N05     Dn1 
	BYTE		N11     Fs1 
	BYTE	W06
	BYTE		        Dn1 
	BYTE	W06
	BYTE		        Cn1 
	BYTE		N11     Fs1 
	BYTE	W06
	BYTE		N05     Dn1 
	BYTE	W06
	BYTE		N11     Cn1 
	BYTE		N11     Ds1 
	BYTE		N11     Fs1 
	BYTE	W12
	BYTE		N17     Cn1 
	BYTE		N17     Dn1 
	BYTE		N11     Fs1 
	BYTE	W12
	BYTE		N11   
	BYTE	W06
	BYTE		N17     Cn1 
	BYTE		N05     Dn1 
	BYTE	W06
// 022   ----------------------------------------
	BYTE		N05   
	BYTE		N11     Fs1 
	BYTE	W06
	BYTE		N05     Dn1 
	BYTE	W06
	BYTE		N11     Cn1 
	BYTE		N05     Dn1 
	BYTE		N11     Fs1 
	BYTE	W06
	BYTE		N05     Dn1 
	BYTE	W06
	BYTE		N11     Cn1 
	BYTE		N05     Dn1 
	BYTE		N11     Fs1 
	BYTE	W06
	BYTE		N05     Dn1 
	BYTE	W06
	BYTE		N11     Cn1 
	BYTE		N11     Ds1 
	BYTE		N11     Fs1 
	BYTE	W12
	BYTE		        Cn1 
	BYTE		N05     Dn1 
	BYTE		N11     Fs1 
	BYTE	W06
	BYTE		        Dn1 
	BYTE	W06
	BYTE		        Cn1 
	BYTE		N11     Fs1 
	BYTE	W06
	BYTE		N05     Dn1 
	BYTE	W06
	BYTE		N11     Cn1 
	BYTE		N11     Dn1 
	BYTE		N11     Fs1 
	BYTE	W12
	BYTE		        Cn1 
	BYTE		N05     Dn1 
	BYTE		N11     Fs1 
	BYTE	W06
	BYTE		        Dn1 
	BYTE	W06
// 023   ----------------------------------------
	BYTE	PATT
	 POIN2	enemyattack_5_017
	BYTE	GoTo
	 POIN2	enemyattack_5_B1
enemyattack_5_B2:
// 024   ----------------------------------------
	BYTE		PAN     c_v+0
	BYTE		        c_v+0
	BYTE		        c_v+0
	BYTE		BEND    c_v+0
	BYTE	FINE

//******************************************************//
	ALIGN 4

enemyattack:
	BYTE	5	// NumTrks
	BYTE	0	// NumBlks
	BYTE	enemyattack_pri	// Priority
	BYTE	enemyattack_rev	// Reverb.

	POIN2	enemyattack_grp

	POIN2	enemyattack_1
	POIN2	enemyattack_2
	POIN2	enemyattack_3
	POIN2	enemyattack_4
	POIN2	enemyattack_5

	
