//Event file generated from Sappy .s format.
	#include "MPlayDef.event"

	#define	Fall_grp  voicegroup000
	#define	Fall_pri  0
	#define	Fall_rev  0
	#define	Fall_mvl  127
	#define	Fall_key  0
	#define	Fall_tbs  1
	#define	Fall_exg  0
	#define	Fall_cmp  1

	// .rodata
	//	Fall
	ALIGN 4

//**************** Track 1 (Midi-Chn.1) ****************//

Fall_1:
	BYTE	KEYSH   Fall_key+0
// 000   ----------------------------------------
	BYTE	TEMPO   140*Fall_tbs/2
	BYTE		VOICE   68
	BYTE		VOL     84*Fall_mvl/mxv
	BYTE		PAN     c_v+0
	BYTE		        c_v+0
	BYTE		        c_v+0
	BYTE		        c_v+0
	BYTE		BEND    c_v+0
	BYTE	W96
// 001   ----------------------------------------
Fall_1_001:
	BYTE		N44     Bn2   v100
	BYTE	W48
	BYTE		        An2 
	BYTE	W48
	BYTE	PEND
// 002   ----------------------------------------
Fall_1_002:
	BYTE		N44     Fs3   v100
	BYTE	W48
	BYTE		        En3 
	BYTE	W48
	BYTE	PEND
// 003   ----------------------------------------
Fall_1_003:
	BYTE		N56     Dn3   v100
	BYTE	W60
	BYTE		N32     Cs3 
	BYTE	W36
	BYTE	PEND
// 004   ----------------------------------------
Fall_1_004:
	BYTE		N44     Dn3   v100
	BYTE	W48
	BYTE		        Cs3 
	BYTE	W48
	BYTE	PEND
// 005   ----------------------------------------
Fall_1_005:
	BYTE		N23     Bn3   v100
	BYTE	W24
	BYTE		        An3 
	BYTE	W24
	BYTE		        Bn3 
	BYTE	W24
	BYTE		        Fs4 
	BYTE	W24
	BYTE	PEND
// 006   ----------------------------------------
Fall_1_006:
	BYTE		N32     En4   v100
	BYTE	W36
	BYTE		        Dn4 
	BYTE	W36
	BYTE		N23     Cs4 
	BYTE	W24
	BYTE	PEND
// 007   ----------------------------------------
	BYTE		        Dn4 
	BYTE	W24
	BYTE		        Cs4 
	BYTE	W24
	BYTE		N44     Bn3 
	BYTE	W48
// 008   ----------------------------------------
	BYTE		N92   
	BYTE	W96
// 009   ----------------------------------------
	BYTE	W96
// 010   ----------------------------------------
	BYTE	W96
// 011   ----------------------------------------
	BYTE	W96
// 012   ----------------------------------------
	BYTE	W96
Fall_1_B1:
// 013   ----------------------------------------
	BYTE	PATT
	 POIN2	Fall_1_001
// 014   ----------------------------------------
	BYTE	PATT
	 POIN2	Fall_1_002
// 015   ----------------------------------------
	BYTE	PATT
	 POIN2	Fall_1_003
// 016   ----------------------------------------
	BYTE	PATT
	 POIN2	Fall_1_004
// 017   ----------------------------------------
	BYTE	PATT
	 POIN2	Fall_1_005
// 018   ----------------------------------------
	BYTE	PATT
	 POIN2	Fall_1_006
// 019   ----------------------------------------
	BYTE		N23     Dn4   v100
	BYTE	W24
	BYTE		        En4 
	BYTE	W24
	BYTE		N44     Fs4 
	BYTE	W48
// 020   ----------------------------------------
	BYTE		N92   
	BYTE	W96
// 021   ----------------------------------------
	BYTE	PATT
	 POIN2	Fall_1_001
// 022   ----------------------------------------
	BYTE	PATT
	 POIN2	Fall_1_002
// 023   ----------------------------------------
	BYTE	PATT
	 POIN2	Fall_1_003
// 024   ----------------------------------------
	BYTE		N44     Dn3   v100
	BYTE	W48
	BYTE		        Fs3 
	BYTE	W48
// 025   ----------------------------------------
	BYTE		N23     Bn3 
	BYTE	W24
	BYTE		        Cs4 
	BYTE	W24
	BYTE		        Dn4 
	BYTE	W24
	BYTE		        Fs4 
	BYTE	W24
// 026   ----------------------------------------
	BYTE		N44     En4 
	BYTE	W48
	BYTE		N32     An4 
	BYTE	W36
	BYTE		N05     Gs4 
	BYTE	W06
	BYTE		        Gn4 
	BYTE	W06
// 027   ----------------------------------------
	BYTE		N92     Fs4 
	BYTE	W96
// 028   ----------------------------------------
	BYTE		N92   
	BYTE	W96
// 029   ----------------------------------------
	BYTE	W96
// 030   ----------------------------------------
	BYTE	W96
// 031   ----------------------------------------
	BYTE	W96
// 032   ----------------------------------------
	BYTE	W96
	BYTE	GoTo
	 POIN2	Fall_1_B1
Fall_1_B2:
// 033   ----------------------------------------
	BYTE		PAN     c_v+0
	BYTE		        c_v+0
	BYTE		        c_v+0
	BYTE		BEND    c_v+0
	BYTE	FINE

//**************** Track 2 (Midi-Chn.2) ****************//

Fall_2:
	BYTE	KEYSH   Fall_key+0
// 000   ----------------------------------------
	BYTE		VOICE   11
	BYTE		VOL     84*Fall_mvl/mxv
	BYTE		PAN     c_v+0
	BYTE		        c_v+0
	BYTE		        c_v+0
	BYTE		        c_v+0
	BYTE		BEND    c_v+0
	BYTE		N92     Fs4   v100
	BYTE	W96
// 001   ----------------------------------------
	BYTE		N92   
	BYTE	W96
// 002   ----------------------------------------
	BYTE	W96
// 003   ----------------------------------------
	BYTE	W96
// 004   ----------------------------------------
	BYTE	W96
// 005   ----------------------------------------
	BYTE	W96
// 006   ----------------------------------------
	BYTE	W96
// 007   ----------------------------------------
	BYTE	W96
// 008   ----------------------------------------
	BYTE	W96
// 009   ----------------------------------------
	BYTE		N44     Bn4 
	BYTE	W96
// 010   ----------------------------------------
	BYTE	W96
// 011   ----------------------------------------
	BYTE		        Bn3 
	BYTE	W96
// 012   ----------------------------------------
	BYTE	W96
Fall_2_B1:
// 013   ----------------------------------------
Fall_2_013:
	BYTE		N44     Bn3   v100
	BYTE	W48
	BYTE		        An3 
	BYTE	W48
	BYTE	PEND
// 014   ----------------------------------------
Fall_2_014:
	BYTE		N44     Fs4   v100
	BYTE	W48
	BYTE		        En4 
	BYTE	W48
	BYTE	PEND
// 015   ----------------------------------------
Fall_2_015:
	BYTE		N56     Dn4   v100
	BYTE	W60
	BYTE		N32     Cs4 
	BYTE	W36
	BYTE	PEND
// 016   ----------------------------------------
	BYTE		N44     Dn4 
	BYTE	W48
	BYTE		        Cs4 
	BYTE	W48
// 017   ----------------------------------------
	BYTE		N23     Bn4 
	BYTE	W24
	BYTE		        An4 
	BYTE	W24
	BYTE		        Bn4 
	BYTE	W24
	BYTE		        Fs5 
	BYTE	W24
// 018   ----------------------------------------
	BYTE		N32     En5 
	BYTE	W36
	BYTE		        Dn5 
	BYTE	W36
	BYTE		N23     Cs5 
	BYTE	W24
// 019   ----------------------------------------
	BYTE		        Dn5 
	BYTE	W24
	BYTE		        En5 
	BYTE	W24
	BYTE		N44     Fs5 
	BYTE	W48
// 020   ----------------------------------------
	BYTE		N92   
	BYTE	W96
// 021   ----------------------------------------
	BYTE	PATT
	 POIN2	Fall_2_013
// 022   ----------------------------------------
	BYTE	PATT
	 POIN2	Fall_2_014
// 023   ----------------------------------------
	BYTE	PATT
	 POIN2	Fall_2_015
// 024   ----------------------------------------
	BYTE		N44     Dn4   v100
	BYTE	W48
	BYTE		        Fs4 
	BYTE	W48
// 025   ----------------------------------------
	BYTE		N23     Bn4 
	BYTE	W24
	BYTE		        Cs5 
	BYTE	W24
	BYTE		        Dn5 
	BYTE	W24
	BYTE		        Fs5 
	BYTE	W24
// 026   ----------------------------------------
	BYTE		N44     En5 
	BYTE	W48
	BYTE		N32     An5 
	BYTE	W36
	BYTE		N05     Gs5 
	BYTE	W06
	BYTE		        Gn5 
	BYTE	W06
// 027   ----------------------------------------
	BYTE		TIE     Fs5 
	BYTE	W96
// 028   ----------------------------------------
	BYTE	W92
	BYTE	W03
	BYTE		EOT   
	BYTE	W01
// 029   ----------------------------------------
	BYTE		N44     Bn4 
	BYTE	W96
// 030   ----------------------------------------
	BYTE	W96
// 031   ----------------------------------------
	BYTE		        Bn3 
	BYTE	W96
// 032   ----------------------------------------
	BYTE	W96
	BYTE	GoTo
	 POIN2	Fall_2_B1
Fall_2_B2:
// 033   ----------------------------------------
	BYTE		PAN     c_v+0
	BYTE		        c_v+0
	BYTE		        c_v+0
	BYTE		BEND    c_v+0
	BYTE	FINE

//**************** Track 3 (Midi-Chn.3) ****************//

Fall_3:
	BYTE	KEYSH   Fall_key+0
// 000   ----------------------------------------
	BYTE		VOICE   51
	BYTE		VOL     84*Fall_mvl/mxv
	BYTE		PAN     c_v+0
	BYTE		        c_v+0
	BYTE		        c_v+0
	BYTE		        c_v+0
	BYTE		BEND    c_v+0
	BYTE		N92     Bn1   v100
	BYTE	W96
// 001   ----------------------------------------
	BYTE		TIE   
	BYTE	W96
// 002   ----------------------------------------
	BYTE	W92
	BYTE	W03
	BYTE		EOT   
	BYTE	W01
// 003   ----------------------------------------
	BYTE		TIE     An1 
	BYTE	W96
// 004   ----------------------------------------
	BYTE	W92
	BYTE	W03
	BYTE		EOT   
	BYTE	W01
// 005   ----------------------------------------
	BYTE		TIE     Cs2 
	BYTE	W96
// 006   ----------------------------------------
	BYTE	W92
	BYTE	W03
	BYTE		EOT   
	BYTE	W01
// 007   ----------------------------------------
	BYTE		TIE     Bn1 
	BYTE	W96
// 008   ----------------------------------------
	BYTE	W92
	BYTE	W03
	BYTE		EOT   
	BYTE	W01
// 009   ----------------------------------------
	BYTE		TIE   
	BYTE	W96
// 010   ----------------------------------------
	BYTE	W92
	BYTE	W03
	BYTE		EOT   
	BYTE	W01
// 011   ----------------------------------------
Fall_3_011:
	BYTE		TIE     Bn0   v100
	BYTE		TIE     Bn1 
	BYTE	W96
	BYTE	PEND
// 012   ----------------------------------------
	BYTE	W92
	BYTE	W03
	BYTE		EOT     Bn0 
	BYTE		        Bn1 
	BYTE	W01
Fall_3_B1:
// 013   ----------------------------------------
	BYTE	PATT
	 POIN2	Fall_3_011
// 014   ----------------------------------------
	BYTE	W92
	BYTE	W03
	BYTE		EOT     Bn0 
	BYTE		        Bn1 
	BYTE	W01
// 015   ----------------------------------------
Fall_3_015:
	BYTE		TIE     Dn1   v100
	BYTE		TIE     Dn2 
	BYTE	W96
	BYTE	PEND
// 016   ----------------------------------------
	BYTE	W92
	BYTE	W03
	BYTE		EOT     Dn1 
	BYTE		        Dn2 
	BYTE	W01
// 017   ----------------------------------------
Fall_3_017:
	BYTE		TIE     Cs1   v100
	BYTE		TIE     Cs2 
	BYTE	W96
	BYTE	PEND
// 018   ----------------------------------------
	BYTE	W92
	BYTE	W03
	BYTE		EOT     Cs1 
	BYTE		        Cs2 
	BYTE	W01
// 019   ----------------------------------------
	BYTE		TIE     En1 
	BYTE		TIE     En2 
	BYTE	W96
// 020   ----------------------------------------
	BYTE	W92
	BYTE	W03
	BYTE		EOT     En1 
	BYTE		        En2 
	BYTE	W01
// 021   ----------------------------------------
	BYTE	PATT
	 POIN2	Fall_3_011
// 022   ----------------------------------------
	BYTE	W92
	BYTE	W03
	BYTE		EOT     Bn0 
	BYTE		        Bn1 
	BYTE	W01
// 023   ----------------------------------------
	BYTE	PATT
	 POIN2	Fall_3_015
// 024   ----------------------------------------
	BYTE	W92
	BYTE	W03
	BYTE		EOT     Dn1 
	BYTE		        Dn2 
	BYTE	W01
// 025   ----------------------------------------
	BYTE	PATT
	 POIN2	Fall_3_017
// 026   ----------------------------------------
	BYTE	W92
	BYTE	W03
	BYTE		EOT     Cs1 
	BYTE		        Cs2 
	BYTE	W01
// 027   ----------------------------------------
	BYTE	PATT
	 POIN2	Fall_3_011
// 028   ----------------------------------------
	BYTE	W92
	BYTE	W03
	BYTE		EOT     Bn0 
	BYTE		        Bn1 
	BYTE	W01
// 029   ----------------------------------------
	BYTE	PATT
	 POIN2	Fall_3_011
// 030   ----------------------------------------
	BYTE	W92
	BYTE	W03
	BYTE		EOT     Bn0 
	BYTE		        Bn1 
	BYTE	W01
// 031   ----------------------------------------
	BYTE	PATT
	 POIN2	Fall_3_011
// 032   ----------------------------------------
	BYTE	W92
	BYTE	W03
	BYTE		EOT     Bn0 
	BYTE		        Bn1 
	BYTE	W01
	BYTE	GoTo
	 POIN2	Fall_3_B1
Fall_3_B2:
// 033   ----------------------------------------
	BYTE		PAN     c_v+0
	BYTE		        c_v+0
	BYTE		        c_v+0
	BYTE		BEND    c_v+0
	BYTE	FINE

//**************** Track 4 (Midi-Chn.4) ****************//

Fall_4:
	BYTE	KEYSH   Fall_key+0
// 000   ----------------------------------------
	BYTE		VOICE   14
	BYTE		VOL     84*Fall_mvl/mxv
	BYTE		PAN     c_v+0
	BYTE		        c_v+0
	BYTE		        c_v+0
	BYTE		        c_v+0
	BYTE		BEND    c_v+0
	BYTE		N92     Bn3   v100
	BYTE	W96
// 001   ----------------------------------------
	BYTE		TIE   
	BYTE	W96
// 002   ----------------------------------------
	BYTE	W92
	BYTE	W03
	BYTE		EOT   
	BYTE	W01
// 003   ----------------------------------------
	BYTE		TIE     An3 
	BYTE	W96
// 004   ----------------------------------------
	BYTE	W92
	BYTE	W03
	BYTE		EOT   
	BYTE	W01
// 005   ----------------------------------------
	BYTE		TIE     Cs4 
	BYTE	W96
// 006   ----------------------------------------
	BYTE	W92
	BYTE	W03
	BYTE		EOT   
	BYTE	W01
// 007   ----------------------------------------
	BYTE		TIE     Bn3 
	BYTE	W96
// 008   ----------------------------------------
	BYTE	W92
	BYTE	W03
	BYTE		EOT   
	BYTE	W01
// 009   ----------------------------------------
Fall_4_009:
	BYTE		TIE     Bn2   v100
	BYTE		TIE     Bn3 
	BYTE	W96
	BYTE	PEND
// 010   ----------------------------------------
	BYTE	W92
	BYTE	W03
	BYTE		EOT     Bn2 
	BYTE		        Bn3 
	BYTE	W01
// 011   ----------------------------------------
	BYTE	PATT
	 POIN2	Fall_4_009
// 012   ----------------------------------------
	BYTE	W92
	BYTE	W03
	BYTE		EOT     Bn2 
	BYTE		        Bn3 
	BYTE	W01
Fall_4_B1:
// 013   ----------------------------------------
	BYTE	PATT
	 POIN2	Fall_4_009
// 014   ----------------------------------------
	BYTE	W92
	BYTE	W03
	BYTE		EOT     Bn2 
	BYTE		        Bn3 
	BYTE	W01
// 015   ----------------------------------------
Fall_4_015:
	BYTE		TIE     Dn3   v100
	BYTE		TIE     Dn4 
	BYTE	W96
	BYTE	PEND
// 016   ----------------------------------------
	BYTE	W92
	BYTE	W03
	BYTE		EOT     Dn3 
	BYTE		        Dn4 
	BYTE	W01
// 017   ----------------------------------------
Fall_4_017:
	BYTE		TIE     Cs3   v100
	BYTE		TIE     Cs4 
	BYTE	W96
	BYTE	PEND
// 018   ----------------------------------------
	BYTE	W92
	BYTE	W03
	BYTE		EOT     Cs3 
	BYTE		        Cs4 
	BYTE	W01
// 019   ----------------------------------------
	BYTE		TIE     En3 
	BYTE		TIE     En4 
	BYTE	W96
// 020   ----------------------------------------
	BYTE	W92
	BYTE	W03
	BYTE		EOT     En3 
	BYTE		        En4 
	BYTE	W01
// 021   ----------------------------------------
	BYTE	PATT
	 POIN2	Fall_4_009
// 022   ----------------------------------------
	BYTE	W92
	BYTE	W03
	BYTE		EOT     Bn2 
	BYTE		        Bn3 
	BYTE	W01
// 023   ----------------------------------------
	BYTE	PATT
	 POIN2	Fall_4_015
// 024   ----------------------------------------
	BYTE	W92
	BYTE	W03
	BYTE		EOT     Dn3 
	BYTE		        Dn4 
	BYTE	W01
// 025   ----------------------------------------
	BYTE	PATT
	 POIN2	Fall_4_017
// 026   ----------------------------------------
	BYTE	W92
	BYTE	W03
	BYTE		EOT     Cs3 
	BYTE		        Cs4 
	BYTE	W01
// 027   ----------------------------------------
	BYTE	PATT
	 POIN2	Fall_4_009
// 028   ----------------------------------------
	BYTE	W92
	BYTE	W03
	BYTE		EOT     Bn2 
	BYTE		        Bn3 
	BYTE	W01
// 029   ----------------------------------------
	BYTE	PATT
	 POIN2	Fall_4_009
// 030   ----------------------------------------
	BYTE	W92
	BYTE	W03
	BYTE		EOT     Bn2 
	BYTE		        Bn3 
	BYTE	W01
// 031   ----------------------------------------
	BYTE	PATT
	 POIN2	Fall_4_009
// 032   ----------------------------------------
	BYTE	W92
	BYTE	W03
	BYTE		EOT     Bn2 
	BYTE		        Bn3 
	BYTE	W01
	BYTE	GoTo
	 POIN2	Fall_4_B1
Fall_4_B2:
// 033   ----------------------------------------
	BYTE		PAN     c_v+0
	BYTE		        c_v+0
	BYTE		        c_v+0
	BYTE		BEND    c_v+0
	BYTE	FINE

//**************** Track 5 (Midi-Chn.5) ****************//

Fall_5:
	BYTE	KEYSH   Fall_key+0
// 000   ----------------------------------------
	BYTE		VOICE   127
	BYTE		VOL     84*Fall_mvl/mxv
	BYTE		PAN     c_v+0
	BYTE		        c_v+0
	BYTE		        c_v+0
	BYTE		        c_v+0
	BYTE		BEND    c_v+0
	BYTE	W96
// 001   ----------------------------------------
	BYTE	W96
// 002   ----------------------------------------
	BYTE	W96
// 003   ----------------------------------------
	BYTE	W96
// 004   ----------------------------------------
	BYTE	W96
// 005   ----------------------------------------
	BYTE	W96
// 006   ----------------------------------------
	BYTE	W96
// 007   ----------------------------------------
	BYTE	W96
// 008   ----------------------------------------
	BYTE	W96
// 009   ----------------------------------------
Fall_5_009:
	BYTE		N68     Cn1   v100
	BYTE	W72
	BYTE		N23   
	BYTE	W24
	BYTE	PEND
// 010   ----------------------------------------
	BYTE	PATT
	 POIN2	Fall_5_009
// 011   ----------------------------------------
Fall_5_011:
	BYTE		N44     Cn1   v100
	BYTE	W48
	BYTE		N44   
	BYTE	W48
	BYTE	PEND
// 012   ----------------------------------------
	BYTE	PATT
	 POIN2	Fall_5_009
Fall_5_B1:
// 013   ----------------------------------------
	BYTE	PATT
	 POIN2	Fall_5_009
// 014   ----------------------------------------
	BYTE	PATT
	 POIN2	Fall_5_009
// 015   ----------------------------------------
	BYTE	PATT
	 POIN2	Fall_5_009
// 016   ----------------------------------------
	BYTE	PATT
	 POIN2	Fall_5_009
// 017   ----------------------------------------
	BYTE	PATT
	 POIN2	Fall_5_009
// 018   ----------------------------------------
	BYTE	PATT
	 POIN2	Fall_5_009
// 019   ----------------------------------------
	BYTE	PATT
	 POIN2	Fall_5_009
// 020   ----------------------------------------
	BYTE	PATT
	 POIN2	Fall_5_009
// 021   ----------------------------------------
	BYTE	PATT
	 POIN2	Fall_5_009
// 022   ----------------------------------------
	BYTE	PATT
	 POIN2	Fall_5_009
// 023   ----------------------------------------
	BYTE	PATT
	 POIN2	Fall_5_009
// 024   ----------------------------------------
	BYTE	PATT
	 POIN2	Fall_5_009
// 025   ----------------------------------------
	BYTE	PATT
	 POIN2	Fall_5_009
// 026   ----------------------------------------
	BYTE	PATT
	 POIN2	Fall_5_009
// 027   ----------------------------------------
	BYTE	PATT
	 POIN2	Fall_5_009
// 028   ----------------------------------------
	BYTE	PATT
	 POIN2	Fall_5_009
// 029   ----------------------------------------
	BYTE	PATT
	 POIN2	Fall_5_009
// 030   ----------------------------------------
	BYTE	PATT
	 POIN2	Fall_5_009
// 031   ----------------------------------------
	BYTE	PATT
	 POIN2	Fall_5_011
// 032   ----------------------------------------
	BYTE	PATT
	 POIN2	Fall_5_009
	BYTE	GoTo
	 POIN2	Fall_5_B1
Fall_5_B2:
// 033   ----------------------------------------
	BYTE		PAN     c_v+0
	BYTE		        c_v+0
	BYTE		        c_v+0
	BYTE		BEND    c_v+0
	BYTE	FINE

//******************************************************//
	ALIGN 4

Fall:
	BYTE	5	// NumTrks
	BYTE	0	// NumBlks
	BYTE	Fall_pri	// Priority
	BYTE	Fall_rev	// Reverb.

	POIN2	Fall_grp

	POIN2	Fall_1
	POIN2	Fall_2
	POIN2	Fall_3
	POIN2	Fall_4
	POIN2	Fall_5

	
