//Event file generated from Sappy .s format.
	#include "MPlayDef.event"

	#define	song07_grp  voicegroup001
	#define	song07_pri  0
	#define	song07_rev  0
	#define	song07_mvl  127
	#define	song07_key  0
	#define	song07_tbs  1
	#define	song07_exg  0
	#define	song07_cmp  1

	// .rodata
	//	song07
	ALIGN 4


//**************** Track 1 (Midi-Chn.0) ****************//

song07_001:
// 000   ----------------------------------------
 BYTE   KEYSH   song07_key+0
 BYTE   TEMPO   78*song07_tbs/2
 BYTE   VOICE   42
 BYTE   VOL   62*song07_mvl/mxv
 BYTE   PAN   c_v+0
 BYTE   VOL   62*song07_mvl/mxv
 BYTE   PAN   c_v-15
 BYTE   VOL   62*song07_mvl/mxv
 BYTE   PAN   c_v+0
 BYTE   VOL   62*song07_mvl/mxv
 BYTE   PAN   c_v-21
 BYTE   N16  Cs3  v096
 BYTE   W03
 BYTE   W01
 BYTE   W01
 BYTE   W90
 BYTE   W01
// 001   ----------------------------------------
Label_0_01876452:
 BYTE   W72
 BYTE   N16  Cs3  v096
 BYTE   W03
 BYTE   W01
 BYTE   W01
 BYTE   W19
 BYTE   PEND 
// 002   ----------------------------------------
Label_0_0187645B:
 BYTE   N16  Cs3  v096
 BYTE   W03
 BYTE   W01
 BYTE   W01
 BYTE   W90
 BYTE   W01
 BYTE   PEND 
 BYTE   PATT
  POIN2 Label_0_01876452
 BYTE   PATT
  POIN2 Label_0_0187645B
 BYTE   PATT
  POIN2 Label_0_01876452
// 003   ----------------------------------------
 BYTE   TEMPO   162*song07_tbs/2
 BYTE   TIE  Cs3  v080
 BYTE   W96
// 004   ----------------------------------------
 BYTE   W96
// 005   ----------------------------------------
 BYTE   W12
 BYTE   W06
 BYTE   W06
 BYTE   W06
 BYTE   W06
 BYTE   W07
 BYTE   W06
 BYTE   W06
 BYTE   W06
 BYTE   W06
 BYTE   W06
 BYTE   W06
 BYTE   W07
 BYTE   W06
 BYTE   W04
// 006   ----------------------------------------
 BYTE   W02
 BYTE   W06
 BYTE   W06
 BYTE   W06
 BYTE   W07
 BYTE   W06
 BYTE   W06
 BYTE   W06
 BYTE   W06
 BYTE   W06
 BYTE   W06
 BYTE   W07
 BYTE   W06
 BYTE   W06
 BYTE   W06
 BYTE   W06
 BYTE   W01
 BYTE   EOT
 BYTE   W01
// 007   ----------------------------------------
 BYTE   W96
// 008   ----------------------------------------
 BYTE   W96
// 009   ----------------------------------------
 BYTE   W96
// 010   ----------------------------------------
 BYTE   W96
// 011   ----------------------------------------
 BYTE   W96
// 012   ----------------------------------------
 BYTE   W96
// 013   ----------------------------------------
Label_0_018764A2:
 BYTE   W96
// 014   ----------------------------------------
 BYTE   W96
// 015   ----------------------------------------
 BYTE   W96
// 016   ----------------------------------------
 BYTE   W96
// 017   ----------------------------------------
 BYTE   W96
// 018   ----------------------------------------
 BYTE   W96
// 019   ----------------------------------------
 BYTE   TIE  Cs3  v064
 BYTE   W96
// 020   ----------------------------------------
 BYTE   W92
 BYTE   W03
 BYTE   EOT
 BYTE   W01
// 021   ----------------------------------------
Label_0_018764B0:
 BYTE   W16
 BYTE   N23  Fs3  v064
 BYTE   W24
 BYTE   N07
 BYTE   W08
 BYTE   N15  An3
 BYTE   W16
 BYTE   Gs3
 BYTE   W16
 BYTE   Fs3
 BYTE   W16
 BYTE   PEND 
// 022   ----------------------------------------
Label_0_018764BF:
 BYTE   N30  En3  v064
 BYTE   W32
 BYTE   Dn3
 BYTE   W32
 BYTE   N15  An2
 BYTE   W16
 BYTE   Bn2
 BYTE   W16
 BYTE   PEND 
// 023   ----------------------------------------
 BYTE   TIE  Cs3
 BYTE   W96
// 024   ----------------------------------------
 BYTE   W68
 BYTE   W03
 BYTE   EOT
 BYTE   W01
 BYTE   N23
 BYTE   W24
// 025   ----------------------------------------
 BYTE   N44  Dn3
 BYTE   W48
 BYTE   Bn2
 BYTE   W48
// 026   ----------------------------------------
 BYTE   En2
 BYTE   W48
 BYTE   En3
 BYTE   W48
// 027   ----------------------------------------
 BYTE   N15  Dn3
 BYTE   W16
 BYTE   Cs3
 BYTE   W16
 BYTE   Bn2
 BYTE   W16
 BYTE   N92  An2
 BYTE   W48
// 028   ----------------------------------------
 BYTE   W48
 BYTE   N15  Fs2
 BYTE   W16
 BYTE   An2
 BYTE   W16
 BYTE   Cs3
 BYTE   W16
// 029   ----------------------------------------
 BYTE   N68  Fs3
 BYTE   W72
 BYTE   N23
 BYTE   W24
// 030   ----------------------------------------
 BYTE   N44  Gs3
 BYTE   W48
 BYTE   Ds3
 BYTE   W48
// 031   ----------------------------------------
 BYTE   N92  Fs3
 BYTE   W96
// 032   ----------------------------------------
 BYTE   Fn3
 BYTE   W96
// 033   ----------------------------------------
 BYTE   W96
// 034   ----------------------------------------
 BYTE   W96
// 035   ----------------------------------------
 BYTE   W96
// 036   ----------------------------------------
 BYTE   TIE  Cs3
 BYTE   W96
// 037   ----------------------------------------
 BYTE   W92
 BYTE   W03
 BYTE   EOT
 BYTE   W01
 BYTE   PATT
  POIN2 Label_0_018764B0
 BYTE   PATT
  POIN2 Label_0_018764BF
// 038   ----------------------------------------
 BYTE   TIE  Cs3  v064
 BYTE   W96
// 039   ----------------------------------------
 BYTE   W60
 BYTE   W03
 BYTE   EOT
 BYTE   W01
 BYTE   N15  An2
 BYTE   W16
 BYTE   Cs3
 BYTE   W16
// 040   ----------------------------------------
 BYTE   N60  Dn3
 BYTE   W64
 BYTE   N15  En3
 BYTE   W16
 BYTE   Fs3
 BYTE   W16
// 041   ----------------------------------------
 BYTE   N68  Gs3
 BYTE   W72
 BYTE   N23  Bn2
 BYTE   W24
// 042   ----------------------------------------
 BYTE   N60  Cs3
 BYTE   W64
 BYTE   N15  Dn3
 BYTE   W16
 BYTE   En3
 BYTE   W16
// 043   ----------------------------------------
 BYTE   N44  Fs3
 BYTE   W48
 BYTE   En3
 BYTE   W48
// 044   ----------------------------------------
 BYTE   TIE  Fs3  v096
 BYTE   W96
// 045   ----------------------------------------
 BYTE   W92
 BYTE   W03
 BYTE   EOT
 BYTE   W01
// 046   ----------------------------------------
 BYTE   N92
 BYTE   W96
// 047   ----------------------------------------
 BYTE   An3
 BYTE   W96
// 048   ----------------------------------------
 BYTE   Gn3
 BYTE   W96
// 049   ----------------------------------------
 BYTE   Fs3
 BYTE   W96
// 050   ----------------------------------------
 BYTE   En3
 BYTE   W96
// 051   ----------------------------------------
 BYTE   Dn3
 BYTE   W96
// 052   ----------------------------------------
Label_0_0187654E:
 BYTE   N07  Cs3  v096
 BYTE   W16
 BYTE   N01
 BYTE   N01  Dn3
 BYTE   W01
 BYTE   Ds3
 BYTE   N01  En3
 BYTE   W01
 BYTE   Fn3
 BYTE   W01
 BYTE   Fs3
 BYTE   N01  Gn3
 BYTE   W01
 BYTE   Gs3
 BYTE   W01
 BYTE   An3
 BYTE   N01  As3
 BYTE   W01
 BYTE   Bn3
 BYTE   W01
 BYTE   Cn4
 BYTE   W01
 BYTE   N07  Cs4  v116
 BYTE   W03
 BYTE   W01
 BYTE   W01
 BYTE   W42
 BYTE   W01
 BYTE   Cs3  v096
 BYTE   W16
 BYTE   N01
 BYTE   N01  Dn3
 BYTE   W01
 BYTE   Ds3
 BYTE   N01  En3
 BYTE   W01
 BYTE   Fn3
 BYTE   W01
 BYTE   Fs3
 BYTE   N01  Gn3
 BYTE   W01
 BYTE   Gs3
 BYTE   W01
 BYTE   An3
 BYTE   N01  As3
 BYTE   W01
 BYTE   Bn3
 BYTE   W01
 BYTE   Cn4
 BYTE   W01
 BYTE   PEND 
// 053   ----------------------------------------
Label_0_0187658E:
 BYTE   N07  Cs4  v116
 BYTE   W03
 BYTE   W01
 BYTE   W01
 BYTE   W42
 BYTE   W01
 BYTE   N23  Dn3  v096
 BYTE   W24
 BYTE   En3
 BYTE   W24
 BYTE   PEND 
 BYTE   PATT
  POIN2 Label_0_0187654E
// 054   ----------------------------------------
Label_0_018765A2:
 BYTE   N07  Cs4  v116
 BYTE   W03
 BYTE   W01
 BYTE   W01
 BYTE   W42
 BYTE   W01
 BYTE   N23  En3  v096
 BYTE   W24
 BYTE   Dn3
 BYTE   W24
 BYTE   PEND 
 BYTE   PATT
  POIN2 Label_0_0187654E
 BYTE   PATT
  POIN2 Label_0_0187658E
 BYTE   PATT
  POIN2 Label_0_0187654E
 BYTE   PATT
  POIN2 Label_0_018765A2
// 055   ----------------------------------------
 BYTE   N32  Cs3  v096
 BYTE   W96
// 056   ----------------------------------------
 BYTE   W96
// 057   ----------------------------------------
 BYTE   W24
 BYTE   N68  Fs2
 BYTE   W72
// 058   ----------------------------------------
 BYTE   N44  Bn2
 BYTE   W48
 BYTE   An2
 BYTE   W48
// 059   ----------------------------------------
 BYTE   N92  Fs2
 BYTE   W96
// 060   ----------------------------------------
 BYTE   N44  Gs2
 BYTE   W48
 BYTE   Bn2
 BYTE   W48
// 061   ----------------------------------------
 BYTE   N23  An2
 BYTE   W24
 BYTE   Fs2
 BYTE   W24
 BYTE   En3
 BYTE   W24
 BYTE   Dn3
 BYTE   W24
// 062   ----------------------------------------
 BYTE   Cs3
 BYTE   W24
 BYTE   Bn2
 BYTE   W24
 BYTE   An2
 BYTE   W24
 BYTE   Bn2
 BYTE   W24
// 063   ----------------------------------------
 BYTE   TIE  As2  v064
 BYTE   W96
// 064   ----------------------------------------
 BYTE   W92
 BYTE   W03
 BYTE   EOT
 BYTE   W01
// 065   ----------------------------------------
 BYTE   W96
// 066   ----------------------------------------
 BYTE   W96
// 067   ----------------------------------------
 BYTE   W96
// 068   ----------------------------------------
 BYTE   W96
// 069   ----------------------------------------
 BYTE   W96
// 070   ----------------------------------------
 BYTE   W96
// 071   ----------------------------------------
 BYTE   W96
// 072   ----------------------------------------
 BYTE   W96
// 073   ----------------------------------------
 BYTE   W96
// 074   ----------------------------------------
 BYTE   W96
// 075   ----------------------------------------
 BYTE   W96
// 076   ----------------------------------------
 BYTE   W96
// 077   ----------------------------------------
 BYTE   W96
// 078   ----------------------------------------
 BYTE   W96
// 079   ----------------------------------------
 BYTE   W96
// 080   ----------------------------------------
 BYTE   W96
// 081   ----------------------------------------
 BYTE   W96
// 082   ----------------------------------------
 BYTE   W96
// 083   ----------------------------------------
 BYTE   W96
// 084   ----------------------------------------
 BYTE   W96
// 085   ----------------------------------------
 BYTE   W96
// 086   ----------------------------------------
 BYTE   W96
// 087   ----------------------------------------
 BYTE   W96
// 088   ----------------------------------------
 BYTE   W96
// 089   ----------------------------------------
 BYTE   W96
// 090   ----------------------------------------
 BYTE   W96
// 091   ----------------------------------------
 BYTE   N44  Fn2
 BYTE   W48
 BYTE   Gn2
 BYTE   W48
// 092   ----------------------------------------
 BYTE   An2
 BYTE   W48
 BYTE   Dn2
 BYTE   W48
// 093   ----------------------------------------
 BYTE   N44
 BYTE   W48
 BYTE   En2
 BYTE   W48
// 094   ----------------------------------------
 BYTE   N44
 BYTE   W48
 BYTE   N44
 BYTE   W48
// 095   ----------------------------------------
 BYTE   N92  Fn2  v080
 BYTE   W96
// 096   ----------------------------------------
 BYTE   N23  Dn2  v096
 BYTE   W24
 BYTE   Fn2
 BYTE   W24
 BYTE   As2
 BYTE   W24
 BYTE   Cn3
 BYTE   W24
// 097   ----------------------------------------
 BYTE   N44  Dn3
 BYTE   W48
 BYTE   Cn3
 BYTE   W48
// 098   ----------------------------------------
 BYTE   Gn2
 BYTE   W48
 BYTE   Cn3
 BYTE   W48
// 099   ----------------------------------------
 BYTE   An2
 BYTE   W48
 BYTE   Gn2
 BYTE   W48
// 100   ----------------------------------------
 BYTE   N23  An2
 BYTE   W24
 BYTE   Cn3
 BYTE   W24
 BYTE   En3
 BYTE   W24
 BYTE   Gn3
 BYTE   W24
// 101   ----------------------------------------
 BYTE   N92  Fn3
 BYTE   W96
// 102   ----------------------------------------
 BYTE   N23  Dn3
 BYTE   W48
 BYTE   N44  Gn3
 BYTE   W48
// 103   ----------------------------------------
 BYTE   N68  An3
 BYTE   W72
 BYTE   N23  Gn3
 BYTE   W24
// 104   ----------------------------------------
 BYTE   N44  Dn3
 BYTE   W48
 BYTE   Gn3
 BYTE   W48
// 105   ----------------------------------------
 BYTE   En3
 BYTE   W48
 BYTE   Fn3
 BYTE   W48
// 106   ----------------------------------------
 BYTE   Gn3
 BYTE   W48
 BYTE   N15  Cn3
 BYTE   W16
 BYTE   En3
 BYTE   W16
 BYTE   Gn3
 BYTE   W16
// 107   ----------------------------------------
Label_0_01876664:
 BYTE   N60  Cn4  v096
 BYTE   W64
 BYTE   N15  As3
 BYTE   W16
 BYTE   An3
 BYTE   W16
 BYTE   PEND 
// 108   ----------------------------------------
 BYTE   N44  Fn3
 BYTE   W72
 BYTE   N11  Dn3
 BYTE   W12
 BYTE   Fn3
 BYTE   W12
 BYTE   PATT
  POIN2 Label_0_01876664
// 109   ----------------------------------------
 BYTE   N44  Gn3  v096
 BYTE   W48
 BYTE   N23  Fn3
 BYTE   W24
 BYTE   En3
 BYTE   W24
// 110   ----------------------------------------
 BYTE   TIE  Dn3
 BYTE   W96
// 111   ----------------------------------------
 BYTE   W92
 BYTE   W03
 BYTE   EOT
 BYTE   W01
// 112   ----------------------------------------
 BYTE   W96
// 113   ----------------------------------------
 BYTE   W96
// 114   ----------------------------------------
 BYTE   W96
// 115   ----------------------------------------
 BYTE   W96
// 116   ----------------------------------------
 BYTE   W96
// 117   ----------------------------------------
 BYTE   W96
// 118   ----------------------------------------
 BYTE   N30  Ds3  v080
 BYTE   W32
 BYTE   Fn3
 BYTE   W32
 BYTE   Fs3
 BYTE   W32
// 119   ----------------------------------------
 BYTE   Gs3
 BYTE   W32
 BYTE   As3
 BYTE   W32
 BYTE   Bn3
 BYTE   W32
// 120   ----------------------------------------
 BYTE   Cs4
 BYTE   W32
 BYTE   As3
 BYTE   W32
 BYTE   Fn4
 BYTE   W32
// 121   ----------------------------------------
 BYTE   Ds4
 BYTE   W32
 BYTE   Cs4
 BYTE   W32
 BYTE   As3
 BYTE   W32
// 122   ----------------------------------------
 BYTE   TIE  Gs3
 BYTE   W96
// 123   ----------------------------------------
 BYTE   W96
// 124   ----------------------------------------
 BYTE   W96
// 125   ----------------------------------------
 BYTE   W60
 BYTE   W03
 BYTE   EOT
 BYTE   W01
 BYTE   N15
 BYTE   W16
 BYTE   An3
 BYTE   W16
// 126   ----------------------------------------
Label_0_018766B8:
 BYTE   W24
 BYTE   N16  Bn3  v096
 BYTE   W03
 BYTE   W01
 BYTE   W01
 BYTE   W30
 BYTE   W01
 BYTE   Fs3
 BYTE   W03
 BYTE   W01
 BYTE   W01
 BYTE   W30
 BYTE   W01
 BYTE   PEND 
// 127   ----------------------------------------
Label_0_018766C8:
 BYTE   W16
 BYTE   N10  Bn2  v096
 BYTE   W03
 BYTE   W01
 BYTE   W01
 BYTE   W32
 BYTE   W03
 BYTE   Cs3
 BYTE   W03
 BYTE   W01
 BYTE   W01
 BYTE   W11
 BYTE   En3
 BYTE   W03
 BYTE   W01
 BYTE   W01
 BYTE   W11
 BYTE   N07  Fs3  v080
 BYTE   W08
 BYTE   PEND 
// 128   ----------------------------------------
Label_0_018766E0:
 BYTE   W24
 BYTE   N16  Gs3  v096
 BYTE   W03
 BYTE   W01
 BYTE   W01
 BYTE   W30
 BYTE   W01
 BYTE   Cs4
 BYTE   W03
 BYTE   W01
 BYTE   W01
 BYTE   W30
 BYTE   W01
 BYTE   PEND 
// 129   ----------------------------------------
 BYTE   W12
 BYTE   N10  Cs3
 BYTE   W03
 BYTE   W01
 BYTE   W01
 BYTE   W11
 BYTE   En3
 BYTE   W03
 BYTE   W01
 BYTE   W01
 BYTE   W11
 BYTE   Fs3
 BYTE   W03
 BYTE   W01
 BYTE   W01
 BYTE   W11
 BYTE   Gs3
 BYTE   W03
 BYTE   W01
 BYTE   W01
 BYTE   W11
 BYTE   N17  Bn3
 BYTE   W03
 BYTE   W01
 BYTE   W01
 BYTE   W15
 BYTE   PATT
  POIN2 Label_0_018766B8
 BYTE   PATT
  POIN2 Label_0_018766C8
 BYTE   PATT
  POIN2 Label_0_018766E0
// 130   ----------------------------------------
 BYTE   W12
 BYTE   N10  Cs3  v096
 BYTE   W03
 BYTE   W01
 BYTE   W01
 BYTE   W11
 BYTE   En3
 BYTE   W03
 BYTE   W01
 BYTE   W01
 BYTE   W11
 BYTE   Fs3
 BYTE   W03
 BYTE   W01
 BYTE   W01
 BYTE   W11
 BYTE   Gs3
 BYTE   W03
 BYTE   W01
 BYTE   W01
 BYTE   W11
 BYTE   N07  Bn3  v080
 BYTE   W20
// 131   ----------------------------------------
 BYTE   W96
// 132   ----------------------------------------
 BYTE   W96
// 133   ----------------------------------------
 BYTE   W96
// 134   ----------------------------------------
 BYTE   W96
// 135   ----------------------------------------
 BYTE   N92  Bn2
 BYTE   W96
// 136   ----------------------------------------
 BYTE   Cs3
 BYTE   W96
// 137   ----------------------------------------
 BYTE   Dn3
 BYTE   W96
// 138   ----------------------------------------
 BYTE   En3
 BYTE   W96
// 139   ----------------------------------------
 BYTE   Bn2
 BYTE   W96
// 140   ----------------------------------------
 BYTE   Cs3
 BYTE   W96
// 141   ----------------------------------------
 BYTE   Dn3
 BYTE   W96
// 142   ----------------------------------------
 BYTE   En3
 BYTE   W96
// 143   ----------------------------------------
 BYTE   W96
// 144   ----------------------------------------
 BYTE   W96
// 145   ----------------------------------------
 BYTE   W96
// 146   ----------------------------------------
 BYTE   W96
// 147   ----------------------------------------
 BYTE   W96
// 148   ----------------------------------------
 BYTE   W96
// 149   ----------------------------------------
 BYTE   W96
// 150   ----------------------------------------
 BYTE   W96
// 151   ----------------------------------------
 BYTE   W96
// 152   ----------------------------------------
 BYTE   GoTo
  POIN2 Label_0_018764A2
 BYTE   FINE

//**************** Track 2 (Midi-Chn.1) ****************//

song07_002:
// 000   ----------------------------------------
 BYTE   KEYSH   song07_key+0
 BYTE   VOICE   48
 BYTE   VOL   62*song07_mvl/mxv
 BYTE   PAN   c_v+22
 BYTE   VOL   56*song07_mvl/mxv
 BYTE   PAN   c_v+0
 BYTE   VOL   62*song07_mvl/mxv
 BYTE   PAN   c_v-15
 BYTE   N16  An2  v096
 BYTE   W03
 BYTE   W01
 BYTE   W01
 BYTE   W90
 BYTE   W01
// 001   ----------------------------------------
Label_1_01876774:
 BYTE   W72
 BYTE   N16  An2  v096
 BYTE   W03
 BYTE   W01
 BYTE   W01
 BYTE   W19
 BYTE   PEND 
// 002   ----------------------------------------
 BYTE   Bn2
 BYTE   W03
 BYTE   W01
 BYTE   W01
 BYTE   W90
 BYTE   W01
// 003   ----------------------------------------
 BYTE   W72
 BYTE   N16
 BYTE   W03
 BYTE   W01
 BYTE   W01
 BYTE   W19
// 004   ----------------------------------------
 BYTE   An2
 BYTE   W03
 BYTE   W01
 BYTE   W01
 BYTE   W90
 BYTE   W01
 BYTE   PATT
  POIN2 Label_1_01876774
// 005   ----------------------------------------
 BYTE   TIE  Bn2  v080
 BYTE   W96
// 006   ----------------------------------------
 BYTE   W96
// 007   ----------------------------------------
 BYTE   W12
 BYTE   W06
 BYTE   W06
 BYTE   W06
 BYTE   W06
 BYTE   W07
 BYTE   W06
 BYTE   W06
 BYTE   W06
 BYTE   W06
 BYTE   W06
 BYTE   W06
 BYTE   W07
 BYTE   W06
 BYTE   W04
// 008   ----------------------------------------
 BYTE   W02
 BYTE   W06
 BYTE   W06
 BYTE   W06
 BYTE   W07
 BYTE   W06
 BYTE   W06
 BYTE   W06
 BYTE   W06
 BYTE   W06
 BYTE   W06
 BYTE   W07
 BYTE   W06
 BYTE   W06
 BYTE   W06
 BYTE   W06
 BYTE   W01
 BYTE   EOT
 BYTE   W01
// 009   ----------------------------------------
 BYTE   W96
// 010   ----------------------------------------
 BYTE   W80
 BYTE   N15  Cs1
 BYTE   W16
// 011   ----------------------------------------
Label_1_018767C0:
 BYTE   N17  Fs1  v080
 BYTE   W18
 BYTE   N05  Cs1
 BYTE   W06
 BYTE   N07  Fs1
 BYTE   W08
 BYTE   Gs1
 BYTE   W08
 BYTE   An1
 BYTE   W08
 BYTE   N15  Cs2
 BYTE   W16
 BYTE   An1
 BYTE   W16
 BYTE   Fs1
 BYTE   W16
 BYTE   PEND 
// 012   ----------------------------------------
Label_1_018767D6:
 BYTE   N07  Dn1  v080
 BYTE   W08
 BYTE   N07
 BYTE   W08
 BYTE   Fs1
 BYTE   W08
 BYTE   N22  En2
 BYTE   W24
 BYTE   N07  Fn1
 BYTE   W08
 BYTE   N07
 BYTE   W08
 BYTE   N30  Fn2
 BYTE   W32
 BYTE   PEND 
 BYTE   PATT
  POIN2 Label_1_018767C0
 BYTE   PATT
  POIN2 Label_1_018767D6
// 013   ----------------------------------------
Label_1_018767F4:
 BYTE   PATT
  POIN2 Label_1_018767C0
 BYTE   PATT
  POIN2 Label_1_018767D6
 BYTE   PATT
  POIN2 Label_1_018767C0
 BYTE   PATT
  POIN2 Label_1_018767D6
// 014   ----------------------------------------
 BYTE   W96
// 015   ----------------------------------------
 BYTE   W96
// 016   ----------------------------------------
Label_1_0187680A:
 BYTE   N44  An2  v080
 BYTE   N15  Fs3
 BYTE   W16
 BYTE   N07  An3
 BYTE   W08
 BYTE   Gs3
 BYTE   W08
 BYTE   An3
 BYTE   W08
 BYTE   Gs3
 BYTE   W08
 BYTE   N44  Cs3
 BYTE   N15  Fs3
 BYTE   W16
 BYTE   N07  Gs3
 BYTE   W08
 BYTE   An3
 BYTE   W08
 BYTE   Bn3
 BYTE   W08
 BYTE   Cs4
 BYTE   W08
 BYTE   PEND 
// 017   ----------------------------------------
Label_1_01876828:
 BYTE   N44  Bn2  v080
 BYTE   N07  Cs4
 BYTE   W08
 BYTE   Bn3
 BYTE   W08
 BYTE   Cs4
 BYTE   W08
 BYTE   Bn3
 BYTE   W08
 BYTE   An3
 BYTE   W08
 BYTE   Bn3
 BYTE   W08
 BYTE   N44  Gs2
 BYTE   N07  Gs3
 BYTE   W08
 BYTE   An3
 BYTE   W08
 BYTE   Fs3
 BYTE   W08
 BYTE   Gs3
 BYTE   W08
 BYTE   An3
 BYTE   W08
 BYTE   Bn3
 BYTE   W08
 BYTE   PEND 
// 018   ----------------------------------------
Label_1_01876848:
 BYTE   N92  Cs3  v080
 BYTE   N15  Fs3
 BYTE   W16
 BYTE   N07  An3
 BYTE   W08
 BYTE   En3
 BYTE   W08
 BYTE   N15  Fs3
 BYTE   W16
 BYTE   N07
 BYTE   W08
 BYTE   Gs3
 BYTE   W08
 BYTE   An3
 BYTE   W08
 BYTE   Bn3
 BYTE   W08
 BYTE   Cs4
 BYTE   W08
 BYTE   Dn4
 BYTE   W08
 BYTE   PEND 
// 019   ----------------------------------------
Label_1_01876863:
 BYTE   N92  Bn2  v080
 BYTE   N15  En4
 BYTE   W16
 BYTE   N07  Fs4
 BYTE   W08
 BYTE   En4
 BYTE   W08
 BYTE   N15  Dn4
 BYTE   W16
 BYTE   N07  Bn3
 BYTE   W08
 BYTE   An3
 BYTE   W08
 BYTE   Bn3
 BYTE   W08
 BYTE   An3
 BYTE   W08
 BYTE   N07
 BYTE   W08
 BYTE   Gs3
 BYTE   W08
 BYTE   PEND 
// 020   ----------------------------------------
Label_1_0187687F:
 BYTE   N07  Gs2  v080
 BYTE   N08  Bn2
 BYTE   N07  Gs3
 BYTE   W08
 BYTE   Bn2
 BYTE   N07  Bn3
 BYTE   W08
 BYTE   Cs3
 BYTE   N07  Cs4
 BYTE   W08
 BYTE   Dn3
 BYTE   N07  Dn4
 BYTE   W08
 BYTE   En3
 BYTE   N07  En4
 BYTE   W08
 BYTE   Fs3
 BYTE   N07  Fs4
 BYTE   W08
 BYTE   Cs3
 BYTE   N07  Cs4
 BYTE   W08
 BYTE   Dn3
 BYTE   N07  Dn4
 BYTE   W08
 BYTE   En3
 BYTE   N07  En4
 BYTE   W08
 BYTE   Fn3
 BYTE   N07  Fn4
 BYTE   W08
 BYTE   Fs3
 BYTE   N07  Fs4
 BYTE   W08
 BYTE   Gs3
 BYTE   N07  Gs4
 BYTE   W08
 BYTE   PEND 
// 021   ----------------------------------------
Label_1_018768B4:
 BYTE   N44  An2  v080
 BYTE   N07  Gs3
 BYTE   N07  Gs4
 BYTE   W08
 BYTE   An3
 BYTE   N07  An4
 BYTE   W08
 BYTE   Bn3
 BYTE   N07  Bn4
 BYTE   W08
 BYTE   An3
 BYTE   N07  An4
 BYTE   W08
 BYTE   Gs3
 BYTE   N07  Gs4
 BYTE   W08
 BYTE   Fn3
 BYTE   N07  Fn4
 BYTE   W08
 BYTE   N44  Gs2
 BYTE   N07  Fs3
 BYTE   N07  Fs4
 BYTE   W08
 BYTE   Gs3
 BYTE   N07  Gs4
 BYTE   W08
 BYTE   Fs3
 BYTE   N07  Fs4
 BYTE   W08
 BYTE   Fn3
 BYTE   N07  Fn4
 BYTE   W08
 BYTE   Dn3
 BYTE   N07  Dn4
 BYTE   W08
 BYTE   Bn2
 BYTE   N07  Bn3
 BYTE   W08
 BYTE   PEND 
// 022   ----------------------------------------
 BYTE   N88  Dn3
 BYTE   N07  Dn4
 BYTE   W08
 BYTE   En4
 BYTE   W08
 BYTE   Fs4
 BYTE   W08
 BYTE   Dn4
 BYTE   W08
 BYTE   Cs4
 BYTE   W08
 BYTE   Bn3
 BYTE   W08
 BYTE   An3
 BYTE   W08
 BYTE   Bn3
 BYTE   W08
 BYTE   An3
 BYTE   W08
 BYTE   Gs3
 BYTE   W08
 BYTE   En3
 BYTE   W08
 BYTE   Dn3
 BYTE   W08
// 023   ----------------------------------------
 BYTE   N44
 BYTE   N07  Gs3
 BYTE   W08
 BYTE   An3
 BYTE   W08
 BYTE   Bn3
 BYTE   W08
 BYTE   Gs3
 BYTE   W08
 BYTE   An3
 BYTE   W08
 BYTE   Gs3
 BYTE   W08
 BYTE   N08  Bn2
 BYTE   N07  En3
 BYTE   W08
 BYTE   Bn2
 BYTE   W08
 BYTE   Gs2
 BYTE   W08
 BYTE   Bn2
 BYTE   W08
 BYTE   En3
 BYTE   W08
 BYTE   Gs3
 BYTE   W08
// 024   ----------------------------------------
 BYTE   N92  Cs3
 BYTE   N07  En4
 BYTE   W08
 BYTE   Dn4
 BYTE   W08
 BYTE   Cs4
 BYTE   W08
 BYTE   An3
 BYTE   W08
 BYTE   Fs4
 BYTE   W08
 BYTE   Gs4
 BYTE   W08
 BYTE   An4
 BYTE   W08
 BYTE   Fs4
 BYTE   W08
 BYTE   Dn4
 BYTE   W08
 BYTE   Fs4
 BYTE   W08
 BYTE   Dn4
 BYTE   W08
 BYTE   Cs4
 BYTE   W08
// 025   ----------------------------------------
 BYTE   N40  Fs3
 BYTE   N07  Cs4
 BYTE   W08
 BYTE   Dn4
 BYTE   W08
 BYTE   Cs4
 BYTE   W08
 BYTE   An3
 BYTE   W08
 BYTE   Gs3
 BYTE   W08
 BYTE   Fs3
 BYTE   W08
 BYTE   N15
 BYTE   W16
 BYTE   An3
 BYTE   W08
 BYTE   N23  Fs2
 BYTE   W08
 BYTE   N15  Cs4
 BYTE   W16
// 026   ----------------------------------------
 BYTE   N30  An2
 BYTE   W32
 BYTE   Bn2
 BYTE   W16
 BYTE   N07  Fs4
 BYTE   W08
 BYTE   Cs5
 BYTE   W08
 BYTE   N30  Cs3
 BYTE   N07  Fs4
 BYTE   W08
 BYTE   Cs5
 BYTE   W08
 BYTE   Fs4
 BYTE   W08
 BYTE   Cs5
 BYTE   W08
// 027   ----------------------------------------
 BYTE   N92  Ds3
 BYTE   N07  Fs4
 BYTE   W08
 BYTE   Ds4
 BYTE   W08
 BYTE   Cn4
 BYTE   W08
 BYTE   Gs3
 BYTE   W08
 BYTE   Cn4
 BYTE   W08
 BYTE   Ds4
 BYTE   W08
 BYTE   Fs4
 BYTE   W08
 BYTE   Cn4
 BYTE   W08
 BYTE   Gs3
 BYTE   W08
 BYTE   Cn4
 BYTE   W08
 BYTE   Fs3
 BYTE   W08
 BYTE   Gs3
 BYTE   W08
// 028   ----------------------------------------
 BYTE   N92  Dn3
 BYTE   N07  Ds3
 BYTE   W08
 BYTE   Fs3
 BYTE   W08
 BYTE   As3
 BYTE   W08
 BYTE   Cn4
 BYTE   W08
 BYTE   Cs4
 BYTE   W08
 BYTE   Dn4
 BYTE   W08
 BYTE   Ds4
 BYTE   W08
 BYTE   En4
 BYTE   W08
 BYTE   Fn4
 BYTE   W08
 BYTE   Fs4
 BYTE   W08
 BYTE   Gn4
 BYTE   W08
 BYTE   Gs4
 BYTE   W08
// 029   ----------------------------------------
 BYTE   N92  Cs3
 BYTE   N07  Cs4
 BYTE   W08
 BYTE   Dn4
 BYTE   W08
 BYTE   Ds4
 BYTE   W08
 BYTE   En4
 BYTE   W08
 BYTE   Fn4
 BYTE   W08
 BYTE   Fs4
 BYTE   W08
 BYTE   Gn4
 BYTE   W08
 BYTE   Gs4
 BYTE   W08
 BYTE   An4
 BYTE   W08
 BYTE   As4
 BYTE   W08
 BYTE   Bn4
 BYTE   W08
 BYTE   Cn5
 BYTE   W08
// 030   ----------------------------------------
 BYTE   W08
 BYTE   Fn4
 BYTE   N07  Gs4
 BYTE   N07  Cs5
 BYTE   W08
 BYTE   Fn4
 BYTE   N07  Gs4
 BYTE   N07  Cs5
 BYTE   W16
 BYTE   Fn4
 BYTE   N07  Gs4
 BYTE   N07  Cs5
 BYTE   W08
 BYTE   Fn4
 BYTE   N07  Gs4
 BYTE   N07  Cs5
 BYTE   W16
 BYTE   Cs4
 BYTE   N07  Fn4
 BYTE   N07  Gs4
 BYTE   W08
 BYTE   Cs4
 BYTE   N07  Fn4
 BYTE   N07  Gs4
 BYTE   W16
 BYTE   Gs3
 BYTE   N07  Cs4
 BYTE   N07  Fn4
 BYTE   W08
 BYTE   Gs3
 BYTE   N07  Cs4
 BYTE   N07  Fn4
 BYTE   W08
// 031   ----------------------------------------
 BYTE   W96
// 032   ----------------------------------------
 BYTE   W96
 BYTE   PATT
  POIN2 Label_1_0187680A
 BYTE   PATT
  POIN2 Label_1_01876828
 BYTE   PATT
  POIN2 Label_1_01876848
 BYTE   PATT
  POIN2 Label_1_01876863
 BYTE   PATT
  POIN2 Label_1_0187687F
 BYTE   PATT
  POIN2 Label_1_018768B4
// 033   ----------------------------------------
 BYTE   N92  An2  v080
 BYTE   N07  Dn4
 BYTE   W08
 BYTE   En4
 BYTE   W08
 BYTE   Fs4
 BYTE   W08
 BYTE   Dn4
 BYTE   W08
 BYTE   Cs4
 BYTE   W08
 BYTE   Bn3
 BYTE   W08
 BYTE   An3
 BYTE   W08
 BYTE   Bn3
 BYTE   W08
 BYTE   An3
 BYTE   W08
 BYTE   Gs3
 BYTE   W08
 BYTE   En3
 BYTE   W08
 BYTE   Dn3
 BYTE   W08
// 034   ----------------------------------------
 BYTE   N56  Bn2
 BYTE   N07  Gs3
 BYTE   W08
 BYTE   An3
 BYTE   W08
 BYTE   Bn3
 BYTE   W08
 BYTE   Gs3
 BYTE   W08
 BYTE   An3
 BYTE   W08
 BYTE   Gs3
 BYTE   W08
 BYTE   En3
 BYTE   W08
 BYTE   Bn2
 BYTE   W08
 BYTE   Gs2
 BYTE   W08
 BYTE   Bn2
 BYTE   W08
 BYTE   En3
 BYTE   W08
 BYTE   Gs3
 BYTE   W08
// 035   ----------------------------------------
 BYTE   N44  Cs3
 BYTE   N07  En4
 BYTE   W08
 BYTE   Dn4
 BYTE   W08
 BYTE   Cs4
 BYTE   W08
 BYTE   An3
 BYTE   W08
 BYTE   Fs4
 BYTE   W08
 BYTE   Gs4
 BYTE   W08
 BYTE   N44  Fs2
 BYTE   N07  An4
 BYTE   W08
 BYTE   Fs4
 BYTE   W08
 BYTE   Dn4
 BYTE   W08
 BYTE   Fs4
 BYTE   W08
 BYTE   Dn4
 BYTE   W08
 BYTE   Cs4
 BYTE   W08
// 036   ----------------------------------------
 BYTE   N23  As2
 BYTE   N07  Cs4
 BYTE   W08
 BYTE   Dn4
 BYTE   W08
 BYTE   Cs4
 BYTE   W08
 BYTE   N23  Cs3
 BYTE   N07  An3
 BYTE   W08
 BYTE   Gs3
 BYTE   W08
 BYTE   Fs3
 BYTE   W08
 BYTE   N23  En3
 BYTE   N07  Bn3
 BYTE   W08
 BYTE   Cn4
 BYTE   W08
 BYTE   Cs4
 BYTE   W08
 BYTE   N23  Gn3
 BYTE   N07  Dn4
 BYTE   W08
 BYTE   En4
 BYTE   W08
 BYTE   Fn4
 BYTE   W08
// 037   ----------------------------------------
 BYTE   TIE  Bn0
 BYTE   TIE  Bn2
 BYTE   N07  Bn3
 BYTE   W08
 BYTE   Dn4
 BYTE   W08
 BYTE   Fs4
 BYTE   W08
 BYTE   Dn4
 BYTE   W08
 BYTE   Fs4
 BYTE   W08
 BYTE   Bn4
 BYTE   W08
 BYTE   Fs4
 BYTE   W08
 BYTE   Bn4
 BYTE   W08
 BYTE   Dn5
 BYTE   W08
 BYTE   Fs5
 BYTE   W08
 BYTE   Dn5
 BYTE   W08
 BYTE   Bn4
 BYTE   W08
// 038   ----------------------------------------
Label_1_01876AA5:
 BYTE   N07  Dn5  v080
 BYTE   W08
 BYTE   Bn4
 BYTE   W08
 BYTE   Fs4
 BYTE   W08
 BYTE   Bn4
 BYTE   W08
 BYTE   Fs4
 BYTE   W08
 BYTE   Dn4
 BYTE   W08
 BYTE   Fs4
 BYTE   W08
 BYTE   Dn4
 BYTE   W08
 BYTE   Bn3
 BYTE   W08
 BYTE   Dn4
 BYTE   W08
 BYTE   Bn3
 BYTE   W06
 BYTE   PEND 
 BYTE   EOT
 BYTE   Bn0
 BYTE   W02
 BYTE   N07  Fs3
 BYTE   W07
 BYTE   EOT
 BYTE   Bn2
 BYTE   W01
// 039   ----------------------------------------
 BYTE   TIE  An0
 BYTE   TIE  Bn2
 BYTE   N07  Bn3
 BYTE   W08
 BYTE   Dn4
 BYTE   W08
 BYTE   Fs4
 BYTE   W08
 BYTE   Dn4
 BYTE   W08
 BYTE   Fs4
 BYTE   W08
 BYTE   Bn4
 BYTE   W08
 BYTE   Fs4
 BYTE   W08
 BYTE   Bn4
 BYTE   W08
 BYTE   Dn5
 BYTE   W08
 BYTE   Fs5
 BYTE   W08
 BYTE   Dn5
 BYTE   W08
 BYTE   Bn4
 BYTE   W08
 BYTE   PATT
  POIN2 Label_1_01876AA5
// 040   ----------------------------------------
 BYTE   EOT
 BYTE   An0
 BYTE   W02
 BYTE   N07  Fs3  v080
 BYTE   W07
 BYTE   EOT
 BYTE   Bn2
 BYTE   W01
 BYTE   TIE  Gn0
 BYTE   TIE  Bn2
 BYTE   N07  Gn3
 BYTE   W08
 BYTE   Bn3
 BYTE   W08
 BYTE   Dn4
 BYTE   W08
 BYTE   Bn3
 BYTE   W08
 BYTE   Dn4
 BYTE   W08
 BYTE   Gn4
 BYTE   W08
 BYTE   Dn4
 BYTE   W08
 BYTE   Gn4
 BYTE   W08
 BYTE   Bn4
 BYTE   W08
 BYTE   Dn5
 BYTE   W08
 BYTE   Bn4
 BYTE   W08
// 041   ----------------------------------------
 BYTE   Gn4
 BYTE   W08
 BYTE   Bn4
 BYTE   W08
 BYTE   Gn4
 BYTE   W08
 BYTE   Dn4
 BYTE   W08
 BYTE   Gn4
 BYTE   W08
 BYTE   Dn4
 BYTE   W08
 BYTE   Bn3
 BYTE   W08
 BYTE   Dn4
 BYTE   W08
 BYTE   Bn3
 BYTE   W08
 BYTE   Gn3
 BYTE   W08
 BYTE   Bn3
 BYTE   W08
 BYTE   Gn3
 BYTE   W06
 BYTE   EOT
 BYTE   Gn0
 BYTE   W02
// 042   ----------------------------------------
 BYTE   N07  Dn3
 BYTE   W08
 BYTE   N07
 BYTE   W08
 BYTE   Gn3
 BYTE   W08
 BYTE   Bn3
 BYTE   W08
 BYTE   Gn3
 BYTE   W08
 BYTE   Bn3
 BYTE   W08
 BYTE   Dn4
 BYTE   W08
 BYTE   Bn3
 BYTE   W08
 BYTE   Dn4
 BYTE   W08
 BYTE   Fs4
 BYTE   W08
 BYTE   Gn4
 BYTE   W08
 BYTE   Dn4
 BYTE   W08
// 043   ----------------------------------------
 BYTE   Bn3
 BYTE   W08
 BYTE   Dn4
 BYTE   W08
 BYTE   Bn3
 BYTE   W08
 BYTE   Gn3
 BYTE   W08
 BYTE   Bn3
 BYTE   W08
 BYTE   Gn3
 BYTE   W08
 BYTE   Dn3
 BYTE   W08
 BYTE   Gn3
 BYTE   W08
 BYTE   Dn3
 BYTE   W08
 BYTE   EOT
 BYTE   Bn2
 BYTE   N07
 BYTE   W08
 BYTE   Dn3
 BYTE   W08
 BYTE   Bn2
 BYTE   W08
// 044   ----------------------------------------
 BYTE   Gn2
 BYTE   W08
 BYTE   N22  Cs1
 BYTE   W24
 BYTE   N22
 BYTE   W24
 BYTE   Cs0
 BYTE   W24
 BYTE   Cs1
 BYTE   W24
// 045   ----------------------------------------
Label_1_01876B67:
 BYTE   N22  Cs1  v080
 BYTE   W24
 BYTE   Cs0
 BYTE   W24
 BYTE   Cs1
 BYTE   W24
 BYTE   N22
 BYTE   W24
 BYTE   PEND 
// 046   ----------------------------------------
 BYTE   N22
 BYTE   W24
 BYTE   N22
 BYTE   W24
 BYTE   Cs0
 BYTE   W24
 BYTE   Cs1
 BYTE   W24
 BYTE   PATT
  POIN2 Label_1_01876B67
// 047   ----------------------------------------
Label_1_01876B7F:
 BYTE   N22  Cs1  v080
 BYTE   N07  Cs3  v096
 BYTE   W16
 BYTE   N01
 BYTE   N01  Dn3
 BYTE   W01
 BYTE   Ds3
 BYTE   N01  En3
 BYTE   W01
 BYTE   Fn3
 BYTE   W01
 BYTE   Fs3
 BYTE   N01  Gn3
 BYTE   W01
 BYTE   Gs3
 BYTE   W01
 BYTE   An3
 BYTE   N01  As3
 BYTE   W01
 BYTE   Bn3
 BYTE   W01
 BYTE   Cn4
 BYTE   W01
 BYTE   N22  Cs1  v080
 BYTE   N07  Cs4  v116
 BYTE   W03
 BYTE   W01
 BYTE   W01
 BYTE   W19
 BYTE   N22  Cs0  v080
 BYTE   W24
 BYTE   Cs1
 BYTE   N07  Cs3  v096
 BYTE   W16
 BYTE   N01
 BYTE   N01  Dn3
 BYTE   W01
 BYTE   Ds3
 BYTE   N01  En3
 BYTE   W01
 BYTE   Fn3
 BYTE   W01
 BYTE   Fs3
 BYTE   N01  Gn3
 BYTE   W01
 BYTE   Gs3
 BYTE   W01
 BYTE   An3
 BYTE   N01  As3
 BYTE   W01
 BYTE   Bn3
 BYTE   W01
 BYTE   Cn4
 BYTE   W01
 BYTE   PEND 
// 048   ----------------------------------------
 BYTE   N22  Cs1  v080
 BYTE   N07  Cs4  v116
 BYTE   W03
 BYTE   W01
 BYTE   W01
 BYTE   W19
 BYTE   N22  Cs0  v080
 BYTE   W24
 BYTE   Cs1
 BYTE   N23  An2  v096
 BYTE   W24
 BYTE   N22  Cs1  v080
 BYTE   N23  Bn2  v096
 BYTE   W24
 BYTE   PATT
  POIN2 Label_1_01876B7F
// 049   ----------------------------------------
 BYTE   N22  Cs1  v080
 BYTE   N07  Cs4  v116
 BYTE   W03
 BYTE   W01
 BYTE   W01
 BYTE   W19
 BYTE   N22  Cs0  v080
 BYTE   W24
 BYTE   Cs1
 BYTE   N23  Bn2  v096
 BYTE   W24
 BYTE   N22  Cs1  v080
 BYTE   N23  An2  v096
 BYTE   W24
// 050   ----------------------------------------
 BYTE   N32  As2
 BYTE   W16
 BYTE   N07  Cs4  v080
 BYTE   N07  As4
 BYTE   N07  Fs5
 BYTE   W08
 BYTE   N22  Cs4
 BYTE   N22  As4
 BYTE   N22  Fs5
 BYTE   W40
 BYTE   N07  As3
 BYTE   N07  Fs4
 BYTE   N07  Cs5
 BYTE   W08
 BYTE   N22  As3
 BYTE   N22  Fs4
 BYTE   N22  Cs5
 BYTE   W24
// 051   ----------------------------------------
 BYTE   W16
 BYTE   N07  Fs3
 BYTE   N07  Cs4
 BYTE   N07  As4
 BYTE   W08
 BYTE   N22  Fs3
 BYTE   N22  Cs4
 BYTE   N22  As4
 BYTE   W40
 BYTE   N07  Cs3
 BYTE   N07  As3
 BYTE   N07  Fs4
 BYTE   W08
 BYTE   N22  Cs3
 BYTE   N22  As3
 BYTE   N22  Fs4
 BYTE   W24
// 052   ----------------------------------------
 BYTE   W24
 BYTE   N68  Dn3  v096
 BYTE   W72
// 053   ----------------------------------------
 BYTE   N44
 BYTE   W48
 BYTE   Fs3
 BYTE   W48
// 054   ----------------------------------------
 BYTE   N92  Dn3
 BYTE   W96
// 055   ----------------------------------------
 BYTE   Cs3
 BYTE   W96
// 056   ----------------------------------------
 BYTE   N92
 BYTE   W96
// 057   ----------------------------------------
 BYTE   N92
 BYTE   W96
// 058   ----------------------------------------
Label_1_01876C52:
 BYTE   N44  Cs5  v080
 BYTE   W48
 BYTE   Fs4
 BYTE   W48
 BYTE   PEND 
// 059   ----------------------------------------
 BYTE   W48
 BYTE   N15  Ds4
 BYTE   W16
 BYTE   Fs4
 BYTE   W16
 BYTE   As4
 BYTE   W16
 BYTE   PATT
  POIN2 Label_1_01876C52
// 060   ----------------------------------------
 BYTE   W96
// 061   ----------------------------------------
 BYTE   N44  Cs4  v064
 BYTE   N44  Cs5  v080
 BYTE   N44  Cs6
 BYTE   W48
 BYTE   N92  Fs3  v064
 BYTE   N44  Fs4  v080
 BYTE   N44  Fs5
 BYTE   W48
// 062   ----------------------------------------
 BYTE   W48
 BYTE   N15  Ds3  v064
 BYTE   N15  Ds4  v080
 BYTE   N15  Ds5
 BYTE   W16
 BYTE   Fs3  v064
 BYTE   N15  Fs4  v080
 BYTE   N15  Fs5
 BYTE   W16
 BYTE   As3  v064
 BYTE   N15  As4  v080
 BYTE   N15  As5
 BYTE   W16
// 063   ----------------------------------------
 BYTE   N44  Cs4  v064
 BYTE   N44  Cs5  v080
 BYTE   N44  Cs6
 BYTE   W48
 BYTE   TIE  Fs3  v064
 BYTE   N44  Fs4  v080
 BYTE   N44  Fs5
 BYTE   W48
// 064   ----------------------------------------
 BYTE   W68
 BYTE   W03
 BYTE   EOT
 BYTE   Fs3
 BYTE   W24
 BYTE   W01
// 065   ----------------------------------------
Label_1_01876CAB:
 BYTE   N44  Bn4  v080
 BYTE   W48
 BYTE   En4
 BYTE   W48
 BYTE   PEND 
// 066   ----------------------------------------
 BYTE   W48
 BYTE   N15  Cs4
 BYTE   W16
 BYTE   En4
 BYTE   W16
 BYTE   Gs4
 BYTE   W16
 BYTE   PATT
  POIN2 Label_1_01876CAB
// 067   ----------------------------------------
 BYTE   W96
// 068   ----------------------------------------
 BYTE   N44  Bn3  v064
 BYTE   N44  Bn4  v080
 BYTE   N44  Bn5
 BYTE   W48
 BYTE   N92  En3  v064
 BYTE   N44  En4  v080
 BYTE   N44  En5
 BYTE   W48
// 069   ----------------------------------------
 BYTE   W48
 BYTE   N15  Cs3  v064
 BYTE   N15  Cs4  v080
 BYTE   N15  Cs5
 BYTE   W16
 BYTE   En3  v064
 BYTE   N15  En4  v080
 BYTE   N15  En5
 BYTE   W16
 BYTE   Gs3  v064
 BYTE   N15  Gs4  v080
 BYTE   N15  Gs5
 BYTE   W16
// 070   ----------------------------------------
 BYTE   N44  Bn3  v064
 BYTE   N44  Bn4  v080
 BYTE   N44  Bn5
 BYTE   W48
 BYTE   TIE  En3  v064
 BYTE   N44  En4  v080
 BYTE   N44  En5
 BYTE   W48
// 071   ----------------------------------------
 BYTE   W68
 BYTE   W03
 BYTE   EOT
 BYTE   En3
 BYTE   W24
 BYTE   W01
// 072   ----------------------------------------
 BYTE   N07  Bn0
 BYTE   W08
 BYTE   Dn2
 BYTE   W08
 BYTE   Fs2
 BYTE   W08
 BYTE   Bn2
 BYTE   W08
 BYTE   Dn3
 BYTE   W08
 BYTE   Fs3
 BYTE   W08
 BYTE   Cs1
 BYTE   W08
 BYTE   En2
 BYTE   W08
 BYTE   Cs3
 BYTE   W08
 BYTE   En3
 BYTE   W08
 BYTE   Fs3
 BYTE   W08
 BYTE   An3
 BYTE   W08
// 073   ----------------------------------------
 BYTE   Dn1
 BYTE   W08
 BYTE   Dn2
 BYTE   W08
 BYTE   An2
 BYTE   W08
 BYTE   Dn3
 BYTE   W08
 BYTE   Fs3
 BYTE   W08
 BYTE   Bn3
 BYTE   W08
 BYTE   Ds1
 BYTE   W08
 BYTE   Ds2
 BYTE   W08
 BYTE   Bn2
 BYTE   W08
 BYTE   Ds3
 BYTE   W08
 BYTE   Fs3
 BYTE   W08
 BYTE   Bn3
 BYTE   W08
// 074   ----------------------------------------
 BYTE   En1
 BYTE   W08
 BYTE   En2
 BYTE   W08
 BYTE   Bn2
 BYTE   W08
 BYTE   En3
 BYTE   W08
 BYTE   Gn3
 BYTE   W08
 BYTE   Bn3
 BYTE   W08
 BYTE   Fn1
 BYTE   W08
 BYTE   Fn2
 BYTE   W08
 BYTE   Cs3
 BYTE   W08
 BYTE   Fn3
 BYTE   W08
 BYTE   Gn3
 BYTE   W08
 BYTE   Bn3
 BYTE   W08
// 075   ----------------------------------------
 BYTE   Fs1
 BYTE   W08
 BYTE   En2
 BYTE   W08
 BYTE   Bn2
 BYTE   W08
 BYTE   Fs3
 BYTE   W08
 BYTE   Gs3
 BYTE   W08
 BYTE   Bn3
 BYTE   W08
 BYTE   Fs1
 BYTE   W08
 BYTE   Fs2
 BYTE   W08
 BYTE   En3
 BYTE   W08
 BYTE   Fs3
 BYTE   W08
 BYTE   An3
 BYTE   W08
 BYTE   As3
 BYTE   W08
// 076   ----------------------------------------
 BYTE   N44  Bn0
 BYTE   N02  Bn1  v096
 BYTE   W08
 BYTE   Dn3
 BYTE   W08
 BYTE   Fs3
 BYTE   W08
 BYTE   Bn3
 BYTE   W08
 BYTE   Dn4
 BYTE   W08
 BYTE   Fs4
 BYTE   W08
 BYTE   N44  Cs1  v080
 BYTE   N02  Cs2  v096
 BYTE   W08
 BYTE   En3
 BYTE   W08
 BYTE   Cs4
 BYTE   W08
 BYTE   En4
 BYTE   W08
 BYTE   Fs4
 BYTE   W08
 BYTE   An4
 BYTE   W08
// 077   ----------------------------------------
 BYTE   N44  Dn1  v080
 BYTE   N02  Dn2  v096
 BYTE   W08
 BYTE   Dn3
 BYTE   W08
 BYTE   An3
 BYTE   W08
 BYTE   Dn4
 BYTE   W08
 BYTE   Fs4
 BYTE   W08
 BYTE   Bn4
 BYTE   W08
 BYTE   N44  Ds1  v080
 BYTE   N02  Ds2  v096
 BYTE   W08
 BYTE   Ds3
 BYTE   W08
 BYTE   Bn3
 BYTE   W08
 BYTE   Ds4
 BYTE   W08
 BYTE   Fs4
 BYTE   W08
 BYTE   Bn4
 BYTE   W08
// 078   ----------------------------------------
 BYTE   N44  En1  v080
 BYTE   N02  En2  v096
 BYTE   W08
 BYTE   En3
 BYTE   W08
 BYTE   Bn3
 BYTE   W08
 BYTE   En4
 BYTE   W08
 BYTE   Gn4
 BYTE   W08
 BYTE   Bn4
 BYTE   W08
 BYTE   N44  Fn1  v080
 BYTE   N02  Fn2  v096
 BYTE   W08
 BYTE   Fn3
 BYTE   W08
 BYTE   Cs4
 BYTE   W08
 BYTE   Fn4
 BYTE   W08
 BYTE   Gn4
 BYTE   W08
 BYTE   Bn4
 BYTE   W08
// 079   ----------------------------------------
 BYTE   N44  Fs1  v080
 BYTE   N02  Fs2  v096
 BYTE   W08
 BYTE   En3
 BYTE   W08
 BYTE   Bn3
 BYTE   W08
 BYTE   Fs4
 BYTE   W08
 BYTE   Gs4
 BYTE   W08
 BYTE   Bn4
 BYTE   W08
 BYTE   N44  Fs1  v080
 BYTE   N02  Fs2  v096
 BYTE   W08
 BYTE   Fs3
 BYTE   W08
 BYTE   En4
 BYTE   W08
 BYTE   Fs4
 BYTE   W08
 BYTE   An4
 BYTE   W08
 BYTE   As4
 BYTE   W08
// 080   ----------------------------------------
 BYTE   N44  Dn1  v080
 BYTE   N02  Dn2  v096
 BYTE   W08
 BYTE   Fn3
 BYTE   W08
 BYTE   An3
 BYTE   W08
 BYTE   Dn4
 BYTE   W08
 BYTE   Fn4
 BYTE   W08
 BYTE   An4
 BYTE   W08
 BYTE   N44  En1  v080
 BYTE   N02  En2  v096
 BYTE   W08
 BYTE   Gn3
 BYTE   W08
 BYTE   En4
 BYTE   W08
 BYTE   Gn4
 BYTE   W08
 BYTE   An4
 BYTE   W08
 BYTE   Cn5
 BYTE   W08
// 081   ----------------------------------------
 BYTE   N44  Fn1  v080
 BYTE   N02  Fn2  v096
 BYTE   W08
 BYTE   Fn3
 BYTE   W08
 BYTE   Cn4
 BYTE   W08
 BYTE   Fn4
 BYTE   W08
 BYTE   An4
 BYTE   W08
 BYTE   Dn5
 BYTE   W08
 BYTE   N44  Fs1  v080
 BYTE   N02  Fs2  v096
 BYTE   W08
 BYTE   Fs3
 BYTE   W08
 BYTE   Dn4
 BYTE   W08
 BYTE   Fs4
 BYTE   W08
 BYTE   An4
 BYTE   W08
 BYTE   Dn5
 BYTE   W08
// 082   ----------------------------------------
 BYTE   N44  Gn1  v080
 BYTE   N02  Gn2  v096
 BYTE   W08
 BYTE   Gn3
 BYTE   W08
 BYTE   Dn4
 BYTE   W08
 BYTE   Gn4
 BYTE   W08
 BYTE   As4
 BYTE   W08
 BYTE   Dn5
 BYTE   W08
 BYTE   N44  Gs1  v080
 BYTE   N02  Gs2  v096
 BYTE   W08
 BYTE   Gs3
 BYTE   W08
 BYTE   En4
 BYTE   W08
 BYTE   Gs4
 BYTE   W08
 BYTE   As4
 BYTE   W08
 BYTE   Dn5
 BYTE   W08
// 083   ----------------------------------------
 BYTE   N44  An1  v080
 BYTE   N02  An2  v096
 BYTE   W08
 BYTE   Gn3
 BYTE   W08
 BYTE   Dn4
 BYTE   W08
 BYTE   An4
 BYTE   W08
 BYTE   Bn4
 BYTE   W08
 BYTE   Dn5
 BYTE   W08
 BYTE   N44  An0  v080
 BYTE   N02  An2  v096
 BYTE   W08
 BYTE   An3
 BYTE   W08
 BYTE   Gn4
 BYTE   W08
 BYTE   An4
 BYTE   W08
 BYTE   Cn5
 BYTE   W08
 BYTE   Cs5
 BYTE   W08
// 084   ----------------------------------------
 BYTE   N44  Dn1  v080
 BYTE   N07  Dn2
 BYTE   N44  Fn2  v096
 BYTE   W08
 BYTE   N07  Fn3  v080
 BYTE   W08
 BYTE   An3
 BYTE   W08
 BYTE   N23  Fn3
 BYTE   N07  Dn4
 BYTE   W08
 BYTE   Fn4
 BYTE   W08
 BYTE   An4
 BYTE   W08
 BYTE   N44  En1
 BYTE   N07  En2
 BYTE   N44  Gn2  v096
 BYTE   N23  En3  v080
 BYTE   W08
 BYTE   N07  Gn3
 BYTE   W08
 BYTE   En4
 BYTE   W08
 BYTE   N23  Dn3
 BYTE   N07  Gn4
 BYTE   W08
 BYTE   An4
 BYTE   W08
 BYTE   Cn5
 BYTE   W08
// 085   ----------------------------------------
 BYTE   N44  Fn1
 BYTE   N07  Fn2
 BYTE   N44  An2  v096
 BYTE   N44  Cn3  v080
 BYTE   W08
 BYTE   N07  Fn3
 BYTE   W08
 BYTE   Cn4
 BYTE   W08
 BYTE   Fn4
 BYTE   W08
 BYTE   An4
 BYTE   W08
 BYTE   Dn5
 BYTE   W08
 BYTE   N44  Fs1
 BYTE   N44  Dn2  v096
 BYTE   N07  Fs2  v080
 BYTE   N23  As2
 BYTE   W08
 BYTE   N07  Fs3
 BYTE   W08
 BYTE   Dn4
 BYTE   W08
 BYTE   N23  An2
 BYTE   N07  Fs4
 BYTE   W08
 BYTE   An4
 BYTE   W08
 BYTE   Dn5
 BYTE   W08
// 086   ----------------------------------------
 BYTE   N44  Gn1
 BYTE   N44  Dn2  v096
 BYTE   N07  Gn2  v080
 BYTE   W08
 BYTE   Gn3
 BYTE   W08
 BYTE   Dn4
 BYTE   W08
 BYTE   N23  As2
 BYTE   N07  Gn4
 BYTE   W08
 BYTE   As4
 BYTE   W08
 BYTE   Dn5
 BYTE   W08
 BYTE   N44  Gs1
 BYTE   N44  En2  v096
 BYTE   N07  Gs2  v080
 BYTE   N23  Dn3
 BYTE   W08
 BYTE   N07  Gs3
 BYTE   W08
 BYTE   En4
 BYTE   W08
 BYTE   N23  Fn3
 BYTE   N07  Gs4
 BYTE   W08
 BYTE   As4
 BYTE   W08
 BYTE   Dn5
 BYTE   W08
// 087   ----------------------------------------
 BYTE   N44  An1
 BYTE   N44  En2  v096
 BYTE   N07  An2  v080
 BYTE   N23  En3
 BYTE   W08
 BYTE   N07  Gn3
 BYTE   W08
 BYTE   Dn4
 BYTE   W08
 BYTE   An4
 BYTE   W08
 BYTE   Bn4
 BYTE   W08
 BYTE   Dn5
 BYTE   W08
 BYTE   N44  An0
 BYTE   N44  En2  v096
 BYTE   N07  An2  v080
 BYTE   W08
 BYTE   An3
 BYTE   W08
 BYTE   Gn4
 BYTE   W08
 BYTE   An4
 BYTE   W08
 BYTE   Cn5
 BYTE   W08
 BYTE   Cs5
 BYTE   W08
// 088   ----------------------------------------
 BYTE   An2  v096
 BYTE   TIE  An3  v080
 BYTE   W08
 BYTE   N07  An2  v096
 BYTE   W08
 BYTE   N07
 BYTE   W08
 BYTE   N11  As2
 BYTE   W24
 BYTE   N07  Cn3
 BYTE   W08
 BYTE   N07
 BYTE   W08
 BYTE   N07
 BYTE   W08
 BYTE   N11  As2
 BYTE   W24
// 089   ----------------------------------------
 BYTE   N07
 BYTE   W08
 BYTE   N07
 BYTE   W08
 BYTE   N07
 BYTE   W08
 BYTE   N11
 BYTE   W24
 BYTE   N07
 BYTE   W08
 BYTE   N07
 BYTE   W08
 BYTE   N07
 BYTE   W08
 BYTE   N11
 BYTE   W24
// 090   ----------------------------------------
 BYTE   N07  Cn3
 BYTE   W08
 BYTE   N07
 BYTE   W08
 BYTE   N07
 BYTE   W08
 BYTE   N11
 BYTE   W24
 BYTE   N07
 BYTE   W08
 BYTE   N07
 BYTE   W08
 BYTE   N07
 BYTE   W08
 BYTE   N11
 BYTE   W24
// 091   ----------------------------------------
 BYTE   N07
 BYTE   W08
 BYTE   N07
 BYTE   W08
 BYTE   N07
 BYTE   W08
 BYTE   N11
 BYTE   W24
 BYTE   N07
 BYTE   W08
 BYTE   N07
 BYTE   W08
 BYTE   N07
 BYTE   W08
 BYTE   N11
 BYTE   W23
 BYTE   EOT
 BYTE   An3
 BYTE   W01
// 092   ----------------------------------------
 BYTE   N07  An2
 BYTE   W08
 BYTE   N07
 BYTE   W08
 BYTE   N07
 BYTE   W08
 BYTE   N11
 BYTE   W24
 BYTE   N07  Dn3
 BYTE   W08
 BYTE   N07
 BYTE   W08
 BYTE   N07
 BYTE   W08
 BYTE   N11
 BYTE   W24
// 093   ----------------------------------------
 BYTE   N07  Cn3
 BYTE   W08
 BYTE   N07
 BYTE   W08
 BYTE   N07
 BYTE   W08
 BYTE   N11
 BYTE   W24
 BYTE   N07  Gn2
 BYTE   W08
 BYTE   N07
 BYTE   W08
 BYTE   N07
 BYTE   W08
 BYTE   N11
 BYTE   W24
// 094   ----------------------------------------
Label_1_01876F9D:
 BYTE   N07  Fn2  v096
 BYTE   W08
 BYTE   N07
 BYTE   W08
 BYTE   N07
 BYTE   W08
 BYTE   N11  Gn2
 BYTE   W24
 BYTE   N07  An2
 BYTE   W08
 BYTE   N07
 BYTE   W08
 BYTE   N07
 BYTE   W08
 BYTE   N11  Gn2
 BYTE   W24
 BYTE   PEND 
 BYTE   PATT
  POIN2 Label_1_01876F9D
// 095   ----------------------------------------
Label_1_01876FB8:
 BYTE   N07  An2  v096
 BYTE   W08
 BYTE   N07
 BYTE   W08
 BYTE   N07
 BYTE   W08
 BYTE   N11
 BYTE   W24
 BYTE   N07  As2
 BYTE   W08
 BYTE   N07
 BYTE   W08
 BYTE   N07
 BYTE   W08
 BYTE   N11
 BYTE   W24
 BYTE   PEND 
 BYTE   PATT
  POIN2 Label_1_01876FB8
// 096   ----------------------------------------
Label_1_01876FD1:
 BYTE   N07  Cn3  v096
 BYTE   W08
 BYTE   N07
 BYTE   W08
 BYTE   N07
 BYTE   W08
 BYTE   N11
 BYTE   W24
 BYTE   N07  An2
 BYTE   W08
 BYTE   N07
 BYTE   W08
 BYTE   N07
 BYTE   W08
 BYTE   N11
 BYTE   W24
 BYTE   PEND 
 BYTE   PATT
  POIN2 Label_1_01876FD1
// 097   ----------------------------------------
Label_1_01876FEA:
 BYTE   N07  As2  v096
 BYTE   W08
 BYTE   N07
 BYTE   W08
 BYTE   N07
 BYTE   W08
 BYTE   N11
 BYTE   W24
 BYTE   N07  Cn3
 BYTE   W08
 BYTE   N07
 BYTE   W08
 BYTE   N07
 BYTE   W08
 BYTE   N11
 BYTE   W24
 BYTE   PEND 
// 098   ----------------------------------------
 BYTE   N07  As2
 BYTE   W08
 BYTE   N07
 BYTE   W08
 BYTE   N07
 BYTE   W08
 BYTE   N11
 BYTE   W24
 BYTE   N07  An2
 BYTE   W08
 BYTE   N07
 BYTE   W08
 BYTE   N07
 BYTE   W08
 BYTE   N11
 BYTE   W24
 BYTE   PATT
  POIN2 Label_1_01876FEA
// 099   ----------------------------------------
 BYTE   N07  As2  v096
 BYTE   W08
 BYTE   N07
 BYTE   W08
 BYTE   N07
 BYTE   W08
 BYTE   N11  An2
 BYTE   W24
 BYTE   N07  Dn3
 BYTE   W08
 BYTE   N07
 BYTE   W08
 BYTE   N07
 BYTE   W08
 BYTE   N11  Cn3
 BYTE   W24
// 100   ----------------------------------------
Label_1_0187702A:
 BYTE   N07  Dn1  v080
 BYTE   W08
 BYTE   Cn1
 BYTE   W08
 BYTE   Cn2
 BYTE   W08
 BYTE   Dn1
 BYTE   W08
 BYTE   Dn2
 BYTE   W08
 BYTE   Cn1
 BYTE   W08
 BYTE   Dn1
 BYTE   W08
 BYTE   Cn1
 BYTE   W08
 BYTE   Bn1
 BYTE   W08
 BYTE   Cn2
 BYTE   W08
 BYTE   An1
 BYTE   W08
 BYTE   Cn1
 BYTE   W08
 BYTE   PEND 
// 101   ----------------------------------------
Label_1_01877045:
 BYTE   N07  Dn1  v080
 BYTE   W08
 BYTE   Cn1
 BYTE   W08
 BYTE   Gn1
 BYTE   W08
 BYTE   Dn1
 BYTE   W08
 BYTE   An1
 BYTE   W08
 BYTE   Cn1
 BYTE   W08
 BYTE   Dn1
 BYTE   W08
 BYTE   Fn1
 BYTE   W08
 BYTE   Dn1
 BYTE   W08
 BYTE   Fn1
 BYTE   W08
 BYTE   Dn1
 BYTE   W08
 BYTE   Gn1
 BYTE   W08
 BYTE   PEND 
 BYTE   PATT
  POIN2 Label_1_0187702A
 BYTE   PATT
  POIN2 Label_1_01877045
 BYTE   PATT
  POIN2 Label_1_0187702A
 BYTE   PATT
  POIN2 Label_1_01877045
 BYTE   PATT
  POIN2 Label_1_0187702A
// 102   ----------------------------------------
 BYTE   N07  Dn1  v080
 BYTE   W08
 BYTE   Cn1
 BYTE   W08
 BYTE   Gn1
 BYTE   W08
 BYTE   Dn1
 BYTE   W08
 BYTE   An1
 BYTE   W08
 BYTE   Cn1
 BYTE   W08
 BYTE   Dn1
 BYTE   W08
 BYTE   Fn1
 BYTE   W08
 BYTE   Dn1
 BYTE   W08
 BYTE   Fn1
 BYTE   W08
 BYTE   Ds1
 BYTE   W08
 BYTE   Gn1
 BYTE   W08
// 103   ----------------------------------------
Label_1_01877093:
 BYTE   N07  Ds1  v080
 BYTE   W08
 BYTE   Cs1
 BYTE   W08
 BYTE   Cs2
 BYTE   W08
 BYTE   Ds1
 BYTE   W08
 BYTE   Ds2
 BYTE   W08
 BYTE   Cs1
 BYTE   W08
 BYTE   Ds1
 BYTE   W08
 BYTE   Cs1
 BYTE   W08
 BYTE   Cn2
 BYTE   W08
 BYTE   Cs2
 BYTE   W08
 BYTE   As1
 BYTE   W08
 BYTE   Cs1
 BYTE   W08
 BYTE   PEND 
// 104   ----------------------------------------
Label_1_018770AE:
 BYTE   N07  Ds1  v080
 BYTE   W08
 BYTE   Cs1
 BYTE   W08
 BYTE   Gs1
 BYTE   W08
 BYTE   Ds1
 BYTE   W08
 BYTE   As1
 BYTE   W08
 BYTE   Cs1
 BYTE   W08
 BYTE   Ds1
 BYTE   W08
 BYTE   Fs1
 BYTE   W08
 BYTE   Ds1
 BYTE   W08
 BYTE   Fs1
 BYTE   W08
 BYTE   Ds1
 BYTE   W08
 BYTE   Gs1
 BYTE   W08
 BYTE   PEND 
 BYTE   PATT
  POIN2 Label_1_01877093
 BYTE   PATT
  POIN2 Label_1_018770AE
// 105   ----------------------------------------
 BYTE   N07  Ds1  v080
 BYTE   TIE  Fs2
 BYTE   W08
 BYTE   N07  Cs1
 BYTE   W08
 BYTE   Cs2
 BYTE   W08
 BYTE   Ds1
 BYTE   W08
 BYTE   Ds2
 BYTE   W08
 BYTE   Cs1
 BYTE   W08
 BYTE   Ds1
 BYTE   W08
 BYTE   Cs1
 BYTE   W08
 BYTE   Cn2
 BYTE   W08
 BYTE   Cs2
 BYTE   W08
 BYTE   As1
 BYTE   W08
 BYTE   Cs1
 BYTE   W08
 BYTE   PATT
  POIN2 Label_1_018770AE
 BYTE   PATT
  POIN2 Label_1_01877093
// 106   ----------------------------------------
 BYTE   N07  Ds1  v080
 BYTE   W08
 BYTE   Cs1
 BYTE   W08
 BYTE   Gs1
 BYTE   W08
 BYTE   Ds1
 BYTE   W08
 BYTE   As1
 BYTE   W08
 BYTE   Cs1
 BYTE   W08
 BYTE   Ds1
 BYTE   W08
 BYTE   Fs1
 BYTE   W07
 BYTE   EOT
 BYTE   Fs2
 BYTE   W01
 BYTE   N07  Ds1
 BYTE   N15  En3
 BYTE   W08
 BYTE   N07  Fs1
 BYTE   W08
 BYTE   Ds1
 BYTE   N15  Fn3
 BYTE   W08
 BYTE   N07  Gs1
 BYTE   W08
// 107   ----------------------------------------
Label_1_0187711E:
 BYTE   N07  Fs1  v080
 BYTE   W08
 BYTE   En1
 BYTE   W08
 BYTE   Fs1
 BYTE   W08
 BYTE   En1
 BYTE   N16  Bn3  v096
 BYTE   W03
 BYTE   W01
 BYTE   W01
 BYTE   W03
 BYTE   N07  Fs1  v080
 BYTE   W08
 BYTE   En1
 BYTE   W08
 BYTE   Fs1
 BYTE   W08
 BYTE   En1
 BYTE   W04
 BYTE   N16  Fs3  v096
 BYTE   W03
 BYTE   W01
 BYTE   N07  Fs1  v080
 BYTE   W01
 BYTE   W07
 BYTE   En1
 BYTE   W08
 BYTE   Fs1
 BYTE   W08
 BYTE   En1
 BYTE   W08
 BYTE   PEND 
// 108   ----------------------------------------
Label_1_01877149:
 BYTE   N07  Fs1  v080
 BYTE   W08
 BYTE   En1
 BYTE   W08
 BYTE   Fs1
 BYTE   N10  Bn2  v096
 BYTE   W03
 BYTE   W01
 BYTE   W01
 BYTE   W03
 BYTE   N07  En1  v080
 BYTE   W08
 BYTE   Fs1
 BYTE   W08
 BYTE   En1
 BYTE   W08
 BYTE   Fs1
 BYTE   W08
 BYTE   En1
 BYTE   N10  Cs3  v096
 BYTE   W03
 BYTE   W01
 BYTE   W01
 BYTE   W03
 BYTE   N07  Fs1  v080
 BYTE   W08
 BYTE   En1
 BYTE   N10  En3  v096
 BYTE   W03
 BYTE   W01
 BYTE   W01
 BYTE   W03
 BYTE   N07  Fs1  v080
 BYTE   W08
 BYTE   En1
 BYTE   N07  Fs3
 BYTE   W08
 BYTE   PEND 
// 109   ----------------------------------------
Label_1_0187717E:
 BYTE   N07  Fs1  v080
 BYTE   W08
 BYTE   En1
 BYTE   W08
 BYTE   Fs1
 BYTE   W08
 BYTE   En1
 BYTE   N16  Gs3  v096
 BYTE   W03
 BYTE   W01
 BYTE   W01
 BYTE   W03
 BYTE   N07  Fs1  v080
 BYTE   W08
 BYTE   En1
 BYTE   W08
 BYTE   Fs1
 BYTE   W08
 BYTE   En1
 BYTE   W04
 BYTE   N16  Cs4  v096
 BYTE   W03
 BYTE   W01
 BYTE   N07  Fs1  v080
 BYTE   W01
 BYTE   W07
 BYTE   En1
 BYTE   W08
 BYTE   Fs1
 BYTE   W08
 BYTE   En1
 BYTE   W08
 BYTE   PEND 
// 110   ----------------------------------------
Label_1_018771A9:
 BYTE   N07  Fs1  v080
 BYTE   W08
 BYTE   En1
 BYTE   W04
 BYTE   N10  Cs3  v096
 BYTE   W03
 BYTE   W01
 BYTE   N07  Fs1  v080
 BYTE   W01
 BYTE   W07
 BYTE   En1
 BYTE   W04
 BYTE   N10  En3  v096
 BYTE   W03
 BYTE   W01
 BYTE   N07  Fs1  v080
 BYTE   W01
 BYTE   W07
 BYTE   En1
 BYTE   W04
 BYTE   N10  Fs3  v096
 BYTE   W03
 BYTE   W01
 BYTE   N07  Fs1  v080
 BYTE   W01
 BYTE   W07
 BYTE   En1
 BYTE   W04
 BYTE   N10  Gs3  v096
 BYTE   W03
 BYTE   W01
 BYTE   N07  Fs1  v080
 BYTE   W01
 BYTE   W07
 BYTE   En1
 BYTE   W04
 BYTE   Bn3
 BYTE   W04
 BYTE   Fs1
 BYTE   W08
 BYTE   En1
 BYTE   W08
 BYTE   PEND 
 BYTE   PATT
  POIN2 Label_1_0187711E
 BYTE   PATT
  POIN2 Label_1_01877149
 BYTE   PATT
  POIN2 Label_1_0187717E
 BYTE   PATT
  POIN2 Label_1_018771A9
// 111   ----------------------------------------
Label_1_018771FA:
 BYTE   N07  Fs2  v080
 BYTE   W08
 BYTE   En2
 BYTE   W08
 BYTE   Fs2
 BYTE   W08
 BYTE   En3
 BYTE   W08
 BYTE   Fs3
 BYTE   W08
 BYTE   En2
 BYTE   W08
 BYTE   Fs2
 BYTE   W08
 BYTE   En2
 BYTE   W08
 BYTE   Ds3
 BYTE   W08
 BYTE   En3
 BYTE   W08
 BYTE   Cs3
 BYTE   W08
 BYTE   En2
 BYTE   W08
 BYTE   PEND 
// 112   ----------------------------------------
 BYTE   Fs2
 BYTE   W08
 BYTE   En2
 BYTE   W08
 BYTE   Bn2
 BYTE   W08
 BYTE   Cs3
 BYTE   W08
 BYTE   Fs2
 BYTE   W08
 BYTE   En2
 BYTE   W08
 BYTE   Fs2
 BYTE   W08
 BYTE   An2
 BYTE   W08
 BYTE   Dn2
 BYTE   W08
 BYTE   An2
 BYTE   W08
 BYTE   En2
 BYTE   W08
 BYTE   Bn2
 BYTE   W08
 BYTE   PATT
  POIN2 Label_1_018771FA
// 113   ----------------------------------------
 BYTE   N07  Fs2  v080
 BYTE   W08
 BYTE   En2
 BYTE   W08
 BYTE   Bn2
 BYTE   W08
 BYTE   En3
 BYTE   W08
 BYTE   Fs2
 BYTE   W08
 BYTE   En2
 BYTE   W08
 BYTE   Fs2
 BYTE   W08
 BYTE   An2
 BYTE   W08
 BYTE   Dn2
 BYTE   W08
 BYTE   An2
 BYTE   W08
 BYTE   En2
 BYTE   W08
 BYTE   Bn2
 BYTE   W08
// 114   ----------------------------------------
 BYTE   N92  Fs2
 BYTE   W96
// 115   ----------------------------------------
 BYTE   Gs2
 BYTE   W96
// 116   ----------------------------------------
 BYTE   An2
 BYTE   W96
// 117   ----------------------------------------
 BYTE   Gs2
 BYTE   W16
 BYTE   N15  Bn4
 BYTE   W16
 BYTE   An4
 BYTE   W16
 BYTE   Gs4
 BYTE   W16
 BYTE   En4
 BYTE   W16
 BYTE   Bn3
 BYTE   W16
// 118   ----------------------------------------
 BYTE   N92  Fs2
 BYTE   W48
 BYTE   N15  Fs4
 BYTE   W16
 BYTE   Cs5
 BYTE   W32
// 119   ----------------------------------------
 BYTE   N92  Gs2
 BYTE   W48
 BYTE   N15  Fs4
 BYTE   W16
 BYTE   Cs5
 BYTE   W32
// 120   ----------------------------------------
 BYTE   N92  An2
 BYTE   W96
// 121   ----------------------------------------
 BYTE   Bn2
 BYTE   W16
 BYTE   N15  Bn4
 BYTE   W16
 BYTE   N15
 BYTE   W16
 BYTE   Gs4
 BYTE   W16
 BYTE   Bn4
 BYTE   W16
 BYTE   Gs4
 BYTE   W16
// 122   ----------------------------------------
 BYTE   W96
// 123   ----------------------------------------
 BYTE   W24
 BYTE   N22  Fn4
 BYTE   N22  As4
 BYTE   W24
 BYTE   En4
 BYTE   N22  An4
 BYTE   W24
 BYTE   Cn4
 BYTE   N22  Fn4
 BYTE   W24
// 124   ----------------------------------------
 BYTE   Cs4
 BYTE   N22  Fs4
 BYTE   W24
 BYTE   An3
 BYTE   N22  Cs4
 BYTE   W24
 BYTE   As3
 BYTE   N22  Dn4
 BYTE   W24
 BYTE   Gn3
 BYTE   N22  Bn3
 BYTE   W24
// 125   ----------------------------------------
 BYTE   W24
 BYTE   Bn5
 BYTE   N22  Dn6
 BYTE   W24
 BYTE   As5
 BYTE   N22  Cs6
 BYTE   W24
 BYTE   En5
 BYTE   N22  Gn5
 BYTE   W24
// 126   ----------------------------------------
 BYTE   Fn5
 BYTE   N22  Gs5
 BYTE   W24
 BYTE   Cs5
 BYTE   N22  En5
 BYTE   W24
 BYTE   Dn5
 BYTE   N22  Fn5
 BYTE   W24
 BYTE   Bn4
 BYTE   N22  Dn5
 BYTE   W24
 BYTE   PATT
  POIN2 Label_1_018767C0
 BYTE   PATT
  POIN2 Label_1_018767D6
 BYTE   PATT
  POIN2 Label_1_018767C0
 BYTE   PATT
  POIN2 Label_1_018767D6
// 127   ----------------------------------------
 BYTE   GoTo
  POIN2 Label_1_018767F4
 BYTE   FINE

//**************** Track 3 (Midi-Chn.2) ****************//

song07_003:
// 000   ----------------------------------------
 BYTE   KEYSH   song07_key+0
 BYTE   VOICE   45
 BYTE   VOL   62*song07_mvl/mxv
 BYTE   PAN   c_v-21
 BYTE   VOL   62*song07_mvl/mxv
 BYTE   PAN   c_v+0
 BYTE   VOL   62*song07_mvl/mxv
 BYTE   PAN   c_v-15
 BYTE   N16  Cs2  v096
 BYTE   W03
 BYTE   W01
 BYTE   W01
 BYTE   W90
 BYTE   W01
// 001   ----------------------------------------
Label_2_018772F0:
 BYTE   W72
 BYTE   N16  Cs2  v096
 BYTE   W03
 BYTE   W01
 BYTE   W01
 BYTE   W19
 BYTE   PEND 
// 002   ----------------------------------------
Label_2_018772F9:
 BYTE   N16  Cs2  v096
 BYTE   W03
 BYTE   W01
 BYTE   W01
 BYTE   W90
 BYTE   W01
 BYTE   PEND 
 BYTE   PATT
  POIN2 Label_2_018772F0
 BYTE   PATT
  POIN2 Label_2_018772F9
 BYTE   PATT
  POIN2 Label_2_018772F0
// 003   ----------------------------------------
 BYTE   TIE  Cs2  v080
 BYTE   W96
// 004   ----------------------------------------
 BYTE   W96
// 005   ----------------------------------------
 BYTE   W12
 BYTE   W06
 BYTE   W06
 BYTE   W06
 BYTE   W06
 BYTE   W07
 BYTE   W06
 BYTE   W06
 BYTE   W06
 BYTE   W06
 BYTE   W06
 BYTE   W06
 BYTE   W07
 BYTE   W06
 BYTE   W04
// 006   ----------------------------------------
 BYTE   W02
 BYTE   W06
 BYTE   W06
 BYTE   W06
 BYTE   W07
 BYTE   W06
 BYTE   W06
 BYTE   W06
 BYTE   W06
 BYTE   W06
 BYTE   W06
 BYTE   W07
 BYTE   W06
 BYTE   W06
 BYTE   W06
 BYTE   W06
 BYTE   W01
 BYTE   EOT
 BYTE   W01
// 007   ----------------------------------------
 BYTE   W96
// 008   ----------------------------------------
 BYTE   W96
// 009   ----------------------------------------
 BYTE   W96
// 010   ----------------------------------------
 BYTE   W96
// 011   ----------------------------------------
 BYTE   W96
// 012   ----------------------------------------
 BYTE   W96
// 013   ----------------------------------------
Label_2_0187733E:
 BYTE   N23  Fs3  v080
 BYTE   N23  Cs4
 BYTE   W48
 BYTE   N11  Fs3
 BYTE   N11  Cs4
 BYTE   W24
 BYTE   N23  Fs3
 BYTE   N23  Cs4
 BYTE   W24
 BYTE   PEND 
// 014   ----------------------------------------
Label_2_0187734F:
 BYTE   W24
 BYTE   N23  Dn3  v080
 BYTE   N23  Dn4
 BYTE   W40
 BYTE   N15  En3
 BYTE   N15  En4
 BYTE   W16
 BYTE   Dn3
 BYTE   N15  Dn4
 BYTE   W16
 BYTE   PEND 
 BYTE   PATT
  POIN2 Label_2_0187733E
 BYTE   PATT
  POIN2 Label_2_0187734F
// 015   ----------------------------------------
 BYTE   W96
// 016   ----------------------------------------
 BYTE   W96
// 017   ----------------------------------------
 BYTE   W96
// 018   ----------------------------------------
 BYTE   W96
// 019   ----------------------------------------
 BYTE   W96
// 020   ----------------------------------------
 BYTE   W96
// 021   ----------------------------------------
 BYTE   W96
// 022   ----------------------------------------
 BYTE   W96
// 023   ----------------------------------------
 BYTE   W96
// 024   ----------------------------------------
 BYTE   W96
// 025   ----------------------------------------
 BYTE   W96
// 026   ----------------------------------------
 BYTE   W72
 BYTE   N23  Fs2  v064
 BYTE   W24
// 027   ----------------------------------------
 BYTE   N30  An2
 BYTE   W32
 BYTE   Bn2
 BYTE   W32
 BYTE   Cs3
 BYTE   W32
// 028   ----------------------------------------
 BYTE   N92  Ds3
 BYTE   W96
// 029   ----------------------------------------
 BYTE   Dn3
 BYTE   W96
// 030   ----------------------------------------
 BYTE   Cs3
 BYTE   W96
// 031   ----------------------------------------
 BYTE   W96
// 032   ----------------------------------------
 BYTE   W96
// 033   ----------------------------------------
 BYTE   W96
// 034   ----------------------------------------
 BYTE   W96
// 035   ----------------------------------------
 BYTE   W96
// 036   ----------------------------------------
 BYTE   W96
// 037   ----------------------------------------
 BYTE   W96
// 038   ----------------------------------------
 BYTE   W96
// 039   ----------------------------------------
 BYTE   W96
// 040   ----------------------------------------
 BYTE   W96
// 041   ----------------------------------------
 BYTE   W96
// 042   ----------------------------------------
 BYTE   W96
// 043   ----------------------------------------
 BYTE   W96
// 044   ----------------------------------------
 BYTE   TIE  Fs2  v080
 BYTE   TIE  Fs3
 BYTE   W96
// 045   ----------------------------------------
 BYTE   W92
 BYTE   W03
 BYTE   EOT
 BYTE   Fs2  v066
 BYTE   W01
// 046   ----------------------------------------
 BYTE   N92  Fs2
 BYTE   N92  Fs3
 BYTE   W96
// 047   ----------------------------------------
 BYTE   An2
 BYTE   N92  An3
 BYTE   W96
// 048   ----------------------------------------
 BYTE   Gn2
 BYTE   N92  Gn3
 BYTE   W96
// 049   ----------------------------------------
 BYTE   Fs2
 BYTE   N92  Fs3
 BYTE   W96
// 050   ----------------------------------------
 BYTE   En2
 BYTE   N92  En3
 BYTE   W96
// 051   ----------------------------------------
 BYTE   Dn2
 BYTE   N92  Dn3
 BYTE   W96
// 052   ----------------------------------------
Label_2_018773BA:
 BYTE   N07  Fn2  v080
 BYTE   W16
 BYTE   N07
 BYTE   W08
 BYTE   N11
 BYTE   W48
 BYTE   N07
 BYTE   W16
 BYTE   N07
 BYTE   W08
 BYTE   PEND 
// 053   ----------------------------------------
 BYTE   N11
 BYTE   W48
 BYTE   N23  Fs2
 BYTE   W24
 BYTE   Gs2
 BYTE   W24
 BYTE   PATT
  POIN2 Label_2_018773BA
// 054   ----------------------------------------
 BYTE   N11  Fn2  v080
 BYTE   W48
 BYTE   N23  Gs2
 BYTE   W24
 BYTE   Fs2
 BYTE   W24
// 055   ----------------------------------------
Label_2_018773DC:
 BYTE   N07  Fn2  v080
 BYTE   N07  Cs4
 BYTE   W08
 BYTE   N07
 BYTE   W08
 BYTE   Fn2
 BYTE   N07  Cs4
 BYTE   W08
 BYTE   N11  Fn2
 BYTE   N11  Cs4
 BYTE   W48
 BYTE   N07  Fn2
 BYTE   N07  Cs4
 BYTE   W08
 BYTE   N07
 BYTE   W08
 BYTE   Fn2
 BYTE   N07  Cs4
 BYTE   W08
 BYTE   PEND 
// 056   ----------------------------------------
 BYTE   N11  Fn2
 BYTE   N11  Cs4
 BYTE   W48
 BYTE   N23  Fs2
 BYTE   N23  Dn4
 BYTE   W24
 BYTE   Gs2
 BYTE   N23  En4
 BYTE   W24
 BYTE   PATT
  POIN2 Label_2_018773DC
// 057   ----------------------------------------
 BYTE   N11  Fn2  v080
 BYTE   N11  Cs4
 BYTE   W48
 BYTE   N23  Gs2
 BYTE   N23  En4
 BYTE   W24
 BYTE   Fs2
 BYTE   N23  Dn4
 BYTE   W24
// 058   ----------------------------------------
 BYTE   N32  Cs3
 BYTE   N32  Cs4
 BYTE   W96
// 059   ----------------------------------------
 BYTE   W96
// 060   ----------------------------------------
 BYTE   W24
 BYTE   N68  Bn2
 BYTE   W72
// 061   ----------------------------------------
 BYTE   N44
 BYTE   W48
 BYTE   Dn3
 BYTE   W48
// 062   ----------------------------------------
 BYTE   N92  Bn2
 BYTE   W96
// 063   ----------------------------------------
 BYTE   N44  Fn3
 BYTE   W48
 BYTE   Gs3
 BYTE   W48
// 064   ----------------------------------------
 BYTE   N23  An3
 BYTE   W24
 BYTE   Fs3
 BYTE   W24
 BYTE   En4
 BYTE   W24
 BYTE   Dn4
 BYTE   W24
// 065   ----------------------------------------
 BYTE   Cs4
 BYTE   W24
 BYTE   Bn3
 BYTE   W24
 BYTE   An3
 BYTE   W24
 BYTE   Gs3
 BYTE   W24
// 066   ----------------------------------------
 BYTE   TIE  Fs3
 BYTE   W96
// 067   ----------------------------------------
 BYTE   W92
 BYTE   W03
 BYTE   EOT
 BYTE   W01
// 068   ----------------------------------------
 BYTE   W96
// 069   ----------------------------------------
 BYTE   W96
// 070   ----------------------------------------
 BYTE   N44  Cs3
 BYTE   N44  Cs4  v096
 BYTE   W48
 BYTE   N92  Fs2  v080
 BYTE   N92  Fs3  v096
 BYTE   W48
// 071   ----------------------------------------
 BYTE   W48
 BYTE   N15  Ds2  v080
 BYTE   N15  Ds3  v096
 BYTE   W16
 BYTE   Fs2  v080
 BYTE   N15  Fs3  v096
 BYTE   W16
 BYTE   As2  v080
 BYTE   N15  As3  v096
 BYTE   W16
// 072   ----------------------------------------
 BYTE   N44  Cs3  v080
 BYTE   N44  Cs4  v096
 BYTE   W48
 BYTE   TIE  Fs2  v080
 BYTE   TIE  Fs3  v096
 BYTE   W48
// 073   ----------------------------------------
 BYTE   W68
 BYTE   W03
 BYTE   EOT
 BYTE   Fs2  v066
 BYTE   W24
 BYTE   W01
// 074   ----------------------------------------
 BYTE   W96
// 075   ----------------------------------------
 BYTE   W96
// 076   ----------------------------------------
 BYTE   W96
// 077   ----------------------------------------
 BYTE   W96
// 078   ----------------------------------------
 BYTE   N44  Bn2  v080
 BYTE   N44  Bn3  v096
 BYTE   W48
 BYTE   N92  En2  v080
 BYTE   N92  En3  v096
 BYTE   W48
// 079   ----------------------------------------
 BYTE   W48
 BYTE   N15  Cs2  v080
 BYTE   N15  Cs3  v096
 BYTE   W16
 BYTE   En2  v080
 BYTE   N15  En3  v096
 BYTE   W16
 BYTE   Gs2  v080
 BYTE   N15  Gs3  v096
 BYTE   W16
// 080   ----------------------------------------
 BYTE   N44  Bn2  v080
 BYTE   N44  Bn3  v096
 BYTE   W48
 BYTE   TIE  En2  v080
 BYTE   TIE  En3  v096
 BYTE   W48
// 081   ----------------------------------------
 BYTE   W68
 BYTE   W03
 BYTE   EOT
 BYTE   En2  v064
 BYTE   W24
 BYTE   W01
// 082   ----------------------------------------
 BYTE   W96
// 083   ----------------------------------------
 BYTE   W96
// 084   ----------------------------------------
 BYTE   W96
// 085   ----------------------------------------
 BYTE   W96
// 086   ----------------------------------------
 BYTE   W96
// 087   ----------------------------------------
 BYTE   W96
// 088   ----------------------------------------
 BYTE   W96
// 089   ----------------------------------------
 BYTE   W96
// 090   ----------------------------------------
 BYTE   W96
// 091   ----------------------------------------
 BYTE   W96
// 092   ----------------------------------------
 BYTE   W96
// 093   ----------------------------------------
 BYTE   W96
// 094   ----------------------------------------
 BYTE   N44  An2
 BYTE   W48
 BYTE   Cn3
 BYTE   W48
// 095   ----------------------------------------
 BYTE   Dn3
 BYTE   W48
 BYTE   Cn3
 BYTE   W48
// 096   ----------------------------------------
 BYTE   Dn3
 BYTE   W48
 BYTE   En3
 BYTE   W48
// 097   ----------------------------------------
 BYTE   Dn3
 BYTE   W48
 BYTE   Cs3
 BYTE   W48
// 098   ----------------------------------------
 BYTE   N05  An2
 BYTE   W03
 BYTE   W01
 BYTE   W01
 BYTE   W03
 BYTE   N05
 BYTE   W03
 BYTE   W01
 BYTE   W01
 BYTE   W03
 BYTE   N05
 BYTE   W03
 BYTE   W01
 BYTE   W01
 BYTE   W03
 BYTE   N07  As2
 BYTE   W03
 BYTE   W01
 BYTE   W01
 BYTE   W19
 BYTE   N05  Cn3
 BYTE   W03
 BYTE   W01
 BYTE   W01
 BYTE   W03
 BYTE   N05
 BYTE   W03
 BYTE   W01
 BYTE   W01
 BYTE   W03
 BYTE   N05
 BYTE   W03
 BYTE   W01
 BYTE   W01
 BYTE   W03
 BYTE   N07  As2
 BYTE   W03
 BYTE   W01
 BYTE   W01
 BYTE   W19
// 099   ----------------------------------------
 BYTE   N05
 BYTE   N23  Dn3  v112
 BYTE   W03
 BYTE   W01
 BYTE   W01
 BYTE   W03
 BYTE   N05  As2  v096
 BYTE   W03
 BYTE   W01
 BYTE   W01
 BYTE   W03
 BYTE   N05
 BYTE   W03
 BYTE   W01
 BYTE   W01
 BYTE   W03
 BYTE   N07
 BYTE   N23  Fn3  v112
 BYTE   W03
 BYTE   W01
 BYTE   W01
 BYTE   W19
 BYTE   N05  As2  v096
 BYTE   N23  As3  v112
 BYTE   W03
 BYTE   W01
 BYTE   W01
 BYTE   W03
 BYTE   N05  As2  v096
 BYTE   W03
 BYTE   W01
 BYTE   W01
 BYTE   W03
 BYTE   N05
 BYTE   W03
 BYTE   W01
 BYTE   W01
 BYTE   W03
 BYTE   N07
 BYTE   N23  Cn4  v112
 BYTE   W03
 BYTE   W01
 BYTE   W01
 BYTE   W19
// 100   ----------------------------------------
 BYTE   N05  Cn3  v096
 BYTE   N44  Dn4  v112
 BYTE   W03
 BYTE   W01
 BYTE   W01
 BYTE   W03
 BYTE   N05  Cn3  v096
 BYTE   W03
 BYTE   W01
 BYTE   W01
 BYTE   W03
 BYTE   N05
 BYTE   W03
 BYTE   W01
 BYTE   W01
 BYTE   W03
 BYTE   N07
 BYTE   W03
 BYTE   W01
 BYTE   W01
 BYTE   W19
 BYTE   N05
 BYTE   N44  Cn4  v112
 BYTE   W03
 BYTE   W01
 BYTE   W01
 BYTE   W03
 BYTE   N05  Cn3  v096
 BYTE   W03
 BYTE   W01
 BYTE   W01
 BYTE   W03
 BYTE   N05
 BYTE   W03
 BYTE   W01
 BYTE   W01
 BYTE   W03
 BYTE   N07
 BYTE   W03
 BYTE   W01
 BYTE   W01
 BYTE   W19
// 101   ----------------------------------------
 BYTE   N05
 BYTE   N44  Gn3  v112
 BYTE   W03
 BYTE   W01
 BYTE   W01
 BYTE   W03
 BYTE   N05  Cn3  v096
 BYTE   W03
 BYTE   W01
 BYTE   W01
 BYTE   W03
 BYTE   N05
 BYTE   W03
 BYTE   W01
 BYTE   W01
 BYTE   W03
 BYTE   N07
 BYTE   W03
 BYTE   W01
 BYTE   W01
 BYTE   W19
 BYTE   N05
 BYTE   N44  Cn4  v112
 BYTE   W03
 BYTE   W01
 BYTE   W01
 BYTE   W03
 BYTE   N05  Cn3  v096
 BYTE   W03
 BYTE   W01
 BYTE   W01
 BYTE   W03
 BYTE   N05
 BYTE   W03
 BYTE   W01
 BYTE   W01
 BYTE   W03
 BYTE   N07
 BYTE   W03
 BYTE   W01
 BYTE   W01
 BYTE   W19
// 102   ----------------------------------------
 BYTE   N05  An2
 BYTE   N44  An3  v112
 BYTE   W03
 BYTE   W01
 BYTE   W01
 BYTE   W03
 BYTE   N05  An2  v096
 BYTE   W03
 BYTE   W01
 BYTE   W01
 BYTE   W03
 BYTE   N05
 BYTE   W03
 BYTE   W01
 BYTE   W01
 BYTE   W03
 BYTE   N07
 BYTE   W03
 BYTE   W01
 BYTE   W01
 BYTE   W19
 BYTE   N05  Dn3  v112
 BYTE   W03
 BYTE   W01
 BYTE   W01
 BYTE   W03
 BYTE   Dn3  v096
 BYTE   W03
 BYTE   W01
 BYTE   W01
 BYTE   W03
 BYTE   N05
 BYTE   W03
 BYTE   W01
 BYTE   W01
 BYTE   W03
 BYTE   N07
 BYTE   W03
 BYTE   W01
 BYTE   W01
 BYTE   W19
// 103   ----------------------------------------
 BYTE   N05  Cn3
 BYTE   N23  An3  v112
 BYTE   W03
 BYTE   W01
 BYTE   W01
 BYTE   W03
 BYTE   N05  Cn3  v096
 BYTE   W03
 BYTE   W01
 BYTE   W01
 BYTE   W03
 BYTE   N05
 BYTE   W03
 BYTE   W01
 BYTE   W01
 BYTE   W03
 BYTE   N07
 BYTE   N23  Cn4  v112
 BYTE   W03
 BYTE   W01
 BYTE   W01
 BYTE   W19
 BYTE   N05  Gn2  v096
 BYTE   N23  En4  v112
 BYTE   W03
 BYTE   W01
 BYTE   W01
 BYTE   W03
 BYTE   N05  Gn2  v096
 BYTE   W03
 BYTE   W01
 BYTE   W01
 BYTE   W03
 BYTE   N05
 BYTE   W03
 BYTE   W01
 BYTE   W01
 BYTE   W03
 BYTE   N07
 BYTE   N23  Gn4  v112
 BYTE   W03
 BYTE   W01
 BYTE   W01
 BYTE   W19
// 104   ----------------------------------------
 BYTE   N05  Fn2  v096
 BYTE   N92  Fn4  v112
 BYTE   W03
 BYTE   W01
 BYTE   W01
 BYTE   W03
 BYTE   N05  Fn2  v096
 BYTE   W03
 BYTE   W01
 BYTE   W01
 BYTE   W03
 BYTE   N05
 BYTE   W03
 BYTE   W01
 BYTE   W01
 BYTE   W03
 BYTE   N07  Gn2
 BYTE   W03
 BYTE   W01
 BYTE   W01
 BYTE   W19
 BYTE   N05  An2
 BYTE   W03
 BYTE   W01
 BYTE   W01
 BYTE   W03
 BYTE   N05
 BYTE   W03
 BYTE   W01
 BYTE   W01
 BYTE   W03
 BYTE   N05
 BYTE   W03
 BYTE   W01
 BYTE   W01
 BYTE   W03
 BYTE   N07  Gn2
 BYTE   W03
 BYTE   W01
 BYTE   W01
 BYTE   W19
// 105   ----------------------------------------
 BYTE   N05  Fn2
 BYTE   N23  Dn4  v112
 BYTE   W03
 BYTE   W01
 BYTE   W01
 BYTE   W03
 BYTE   N05  Fn2  v096
 BYTE   W03
 BYTE   W01
 BYTE   W01
 BYTE   W03
 BYTE   N05
 BYTE   W03
 BYTE   W01
 BYTE   W01
 BYTE   W03
 BYTE   N07  Gn2
 BYTE   W03
 BYTE   W01
 BYTE   W01
 BYTE   W19
 BYTE   N05  An2
 BYTE   N44  Gn4  v112
 BYTE   W03
 BYTE   W01
 BYTE   W01
 BYTE   W03
 BYTE   N05  An2  v096
 BYTE   W03
 BYTE   W01
 BYTE   W01
 BYTE   W03
 BYTE   N05
 BYTE   W03
 BYTE   W01
 BYTE   W01
 BYTE   W03
 BYTE   N07  Gn2
 BYTE   W03
 BYTE   W01
 BYTE   W01
 BYTE   W19
// 106   ----------------------------------------
 BYTE   N05  An2
 BYTE   N68  An4  v112
 BYTE   W03
 BYTE   W01
 BYTE   W01
 BYTE   W03
 BYTE   N05  An2  v096
 BYTE   W03
 BYTE   W01
 BYTE   W01
 BYTE   W03
 BYTE   N05
 BYTE   W03
 BYTE   W01
 BYTE   W01
 BYTE   W03
 BYTE   N07
 BYTE   W03
 BYTE   W01
 BYTE   W01
 BYTE   W19
 BYTE   N05  As2
 BYTE   W03
 BYTE   W01
 BYTE   W01
 BYTE   W03
 BYTE   N05
 BYTE   W03
 BYTE   W01
 BYTE   W01
 BYTE   W03
 BYTE   N05
 BYTE   W03
 BYTE   W01
 BYTE   W01
 BYTE   W03
 BYTE   N07
 BYTE   N23  Gn4  v112
 BYTE   W03
 BYTE   W01
 BYTE   W01
 BYTE   W19
// 107   ----------------------------------------
 BYTE   N05  An2  v096
 BYTE   N44  Dn4  v112
 BYTE   W03
 BYTE   W01
 BYTE   W01
 BYTE   W03
 BYTE   N05  An2  v096
 BYTE   W03
 BYTE   W01
 BYTE   W01
 BYTE   W03
 BYTE   N05
 BYTE   W03
 BYTE   W01
 BYTE   W01
 BYTE   W03
 BYTE   N07
 BYTE   W03
 BYTE   W01
 BYTE   W01
 BYTE   W19
 BYTE   N05  As2
 BYTE   N44  Gn4  v112
 BYTE   W03
 BYTE   W01
 BYTE   W01
 BYTE   W03
 BYTE   N05  As2  v096
 BYTE   W03
 BYTE   W01
 BYTE   W01
 BYTE   W03
 BYTE   N05
 BYTE   W03
 BYTE   W01
 BYTE   W01
 BYTE   W03
 BYTE   N07
 BYTE   W03
 BYTE   W01
 BYTE   W01
 BYTE   W19
// 108   ----------------------------------------
 BYTE   N05  Cn3
 BYTE   N44  En4  v112
 BYTE   W03
 BYTE   W01
 BYTE   W01
 BYTE   W03
 BYTE   N05  Cn3  v096
 BYTE   W03
 BYTE   W01
 BYTE   W01
 BYTE   W03
 BYTE   N05
 BYTE   W03
 BYTE   W01
 BYTE   W01
 BYTE   W03
 BYTE   N07
 BYTE   W03
 BYTE   W01
 BYTE   W01
 BYTE   W19
 BYTE   N05  An2
 BYTE   N44  Fn4  v112
 BYTE   W03
 BYTE   W01
 BYTE   W01
 BYTE   W03
 BYTE   N05  An2  v096
 BYTE   W03
 BYTE   W01
 BYTE   W01
 BYTE   W03
 BYTE   N05
 BYTE   W03
 BYTE   W01
 BYTE   W01
 BYTE   W03
 BYTE   N07
 BYTE   W03
 BYTE   W01
 BYTE   W01
 BYTE   W19
// 109   ----------------------------------------
 BYTE   N05  Cn3
 BYTE   N44  Gn4  v112
 BYTE   W03
 BYTE   W01
 BYTE   W01
 BYTE   W03
 BYTE   N05  Cn3  v096
 BYTE   W03
 BYTE   W01
 BYTE   W01
 BYTE   W03
 BYTE   N05
 BYTE   W03
 BYTE   W01
 BYTE   W01
 BYTE   W03
 BYTE   N07
 BYTE   W03
 BYTE   W01
 BYTE   W01
 BYTE   W19
 BYTE   N05  An2
 BYTE   N15  Cn4  v112
 BYTE   W03
 BYTE   W01
 BYTE   W01
 BYTE   W03
 BYTE   N05  An2  v096
 BYTE   W03
 BYTE   W01
 BYTE   W01
 BYTE   W03
 BYTE   N05
 BYTE   N15  En4  v112
 BYTE   W03
 BYTE   W01
 BYTE   W01
 BYTE   W03
 BYTE   N07  An2  v096
 BYTE   W03
 BYTE   W01
 BYTE   W01
 BYTE   W03
 BYTE   N15  Gn4  v112
 BYTE   W16
// 110   ----------------------------------------
Label_2_01877751:
 BYTE   N05  As2  v096
 BYTE   N60  Cn5  v112
 BYTE   W03
 BYTE   W01
 BYTE   W01
 BYTE   W03
 BYTE   N05  As2  v096
 BYTE   W03
 BYTE   W01
 BYTE   W01
 BYTE   W03
 BYTE   N05
 BYTE   W03
 BYTE   W01
 BYTE   W01
 BYTE   W03
 BYTE   N07
 BYTE   W03
 BYTE   W01
 BYTE   W01
 BYTE   W19
 BYTE   N05  Cn3
 BYTE   W03
 BYTE   W01
 BYTE   W01
 BYTE   W03
 BYTE   N05
 BYTE   W03
 BYTE   W01
 BYTE   W01
 BYTE   W03
 BYTE   N05
 BYTE   N15  As4  v112
 BYTE   W03
 BYTE   W01
 BYTE   W01
 BYTE   W03
 BYTE   N07  Cn3  v096
 BYTE   W03
 BYTE   W01
 BYTE   W01
 BYTE   W03
 BYTE   N15  An4  v112
 BYTE   W16
 BYTE   PEND 
// 111   ----------------------------------------
 BYTE   N05  As2  v096
 BYTE   N44  Fn4  v112
 BYTE   W03
 BYTE   W01
 BYTE   W01
 BYTE   W03
 BYTE   N05  As2  v096
 BYTE   W03
 BYTE   W01
 BYTE   W01
 BYTE   W03
 BYTE   N05
 BYTE   W03
 BYTE   W01
 BYTE   W01
 BYTE   W03
 BYTE   N07
 BYTE   W03
 BYTE   W01
 BYTE   W01
 BYTE   W19
 BYTE   N05  An2
 BYTE   W03
 BYTE   W01
 BYTE   W01
 BYTE   W03
 BYTE   N05
 BYTE   W03
 BYTE   W01
 BYTE   W01
 BYTE   W03
 BYTE   N05
 BYTE   W03
 BYTE   W01
 BYTE   W01
 BYTE   W03
 BYTE   N07
 BYTE   N11  Dn4  v112
 BYTE   W03
 BYTE   W01
 BYTE   W01
 BYTE   W07
 BYTE   Fn4
 BYTE   W12
 BYTE   PATT
  POIN2 Label_2_01877751
// 112   ----------------------------------------
 BYTE   N05  As2  v096
 BYTE   N44  Gn4  v112
 BYTE   W03
 BYTE   W01
 BYTE   W01
 BYTE   W03
 BYTE   N05  As2  v096
 BYTE   W03
 BYTE   W01
 BYTE   W01
 BYTE   W03
 BYTE   N05
 BYTE   W03
 BYTE   W01
 BYTE   W01
 BYTE   W03
 BYTE   N07  An2
 BYTE   W03
 BYTE   W01
 BYTE   W01
 BYTE   W19
 BYTE   N05  Dn3
 BYTE   N23  Fn4  v112
 BYTE   W03
 BYTE   W01
 BYTE   W01
 BYTE   W03
 BYTE   N05  Dn3  v096
 BYTE   W03
 BYTE   W01
 BYTE   W01
 BYTE   W03
 BYTE   N05
 BYTE   W03
 BYTE   W01
 BYTE   W01
 BYTE   W03
 BYTE   N07  Cn3
 BYTE   N23  En4  v112
 BYTE   W03
 BYTE   W01
 BYTE   W01
 BYTE   W19
// 113   ----------------------------------------
 BYTE   TIE  Dn4
 BYTE   W96
// 114   ----------------------------------------
 BYTE   W92
 BYTE   W03
 BYTE   EOT
 BYTE   W01
// 115   ----------------------------------------
 BYTE   W96
// 116   ----------------------------------------
 BYTE   W96
// 117   ----------------------------------------
 BYTE   W96
// 118   ----------------------------------------
 BYTE   W96
// 119   ----------------------------------------
 BYTE   W96
// 120   ----------------------------------------
 BYTE   W96
// 121   ----------------------------------------
 BYTE   W96
// 122   ----------------------------------------
 BYTE   W96
// 123   ----------------------------------------
 BYTE   W96
// 124   ----------------------------------------
 BYTE   W96
// 125   ----------------------------------------
 BYTE   W48
 BYTE   TIE  Fn2  v080
 BYTE   W48
// 126   ----------------------------------------
 BYTE   Cs3
 BYTE   W48
 BYTE   Fn3
 BYTE   W48
// 127   ----------------------------------------
 BYTE   Gs3
 BYTE   W96
// 128   ----------------------------------------
 BYTE   W60
 BYTE   W03
 BYTE   EOT
 BYTE   Fn2  v061
 BYTE   Fn3  v068
 BYTE   W01
 BYTE   N15  En2
 BYTE   N15  As3
 BYTE   W16
 BYTE   Fn2
 BYTE   N15  Bn3
 BYTE   W16
// 129   ----------------------------------------
 BYTE   W24
 BYTE   N16  Ds3  v096
 BYTE   W03
 BYTE   W01
 BYTE   W01
 BYTE   W30
 BYTE   W01
 BYTE   Bn2
 BYTE   W03
 BYTE   W01
 BYTE   W01
 BYTE   W30
 BYTE   W01
// 130   ----------------------------------------
 BYTE   W16
 BYTE   N10  En2
 BYTE   W03
 BYTE   W01
 BYTE   W01
 BYTE   W32
 BYTE   W03
 BYTE   Fs2
 BYTE   W03
 BYTE   W01
 BYTE   W01
 BYTE   W11
 BYTE   Gs2
 BYTE   W03
 BYTE   W01
 BYTE   W01
 BYTE   W11
 BYTE   N07  Bn2  v080
 BYTE   W08
// 131   ----------------------------------------
 BYTE   W24
 BYTE   N16  Bn2  v096
 BYTE   W03
 BYTE   W01
 BYTE   W01
 BYTE   W30
 BYTE   W01
 BYTE   En3
 BYTE   W03
 BYTE   W01
 BYTE   W01
 BYTE   W30
 BYTE   W01
// 132   ----------------------------------------
 BYTE   W12
 BYTE   N10  En2
 BYTE   W03
 BYTE   W01
 BYTE   W01
 BYTE   W11
 BYTE   Gs2
 BYTE   W03
 BYTE   W01
 BYTE   W01
 BYTE   W11
 BYTE   Bn2
 BYTE   W03
 BYTE   W01
 BYTE   W01
 BYTE   W11
 BYTE   Cs3
 BYTE   W03
 BYTE   W01
 BYTE   W01
 BYTE   W11
 BYTE   N07  Ds3  v080
 BYTE   W20
// 133   ----------------------------------------
 BYTE   W24
 BYTE   N16  Ds3  v096
 BYTE   N16  Bn4
 BYTE   W03
 BYTE   W01
 BYTE   W01
 BYTE   W30
 BYTE   W01
 BYTE   Bn2
 BYTE   N16  Fs4
 BYTE   W03
 BYTE   W01
 BYTE   W01
 BYTE   W30
 BYTE   W01
// 134   ----------------------------------------
 BYTE   W16
 BYTE   N10  En2
 BYTE   N10  Bn3
 BYTE   W03
 BYTE   W01
 BYTE   W01
 BYTE   W32
 BYTE   W03
 BYTE   Fs2
 BYTE   N10  Cs4
 BYTE   W03
 BYTE   W01
 BYTE   W01
 BYTE   W11
 BYTE   Gs2
 BYTE   N10  En4
 BYTE   W03
 BYTE   W01
 BYTE   W01
 BYTE   W11
 BYTE   N07  Bn2  v080
 BYTE   N07  Fs4
 BYTE   W08
// 135   ----------------------------------------
 BYTE   W24
 BYTE   N16  Bn2  v096
 BYTE   N16  Gs4
 BYTE   W03
 BYTE   W01
 BYTE   W01
 BYTE   W30
 BYTE   W01
 BYTE   En3
 BYTE   N16  Cs5
 BYTE   W03
 BYTE   W01
 BYTE   W01
 BYTE   W30
 BYTE   W01
// 136   ----------------------------------------
 BYTE   W12
 BYTE   N10  En2
 BYTE   N10  Cs4
 BYTE   W03
 BYTE   W01
 BYTE   W01
 BYTE   W11
 BYTE   Gs2
 BYTE   N10  En4
 BYTE   W03
 BYTE   W01
 BYTE   W01
 BYTE   W11
 BYTE   Bn2
 BYTE   N10  Fs4
 BYTE   W03
 BYTE   W01
 BYTE   W01
 BYTE   W11
 BYTE   Cs3
 BYTE   N10  Gs4
 BYTE   W03
 BYTE   W01
 BYTE   W01
 BYTE   W11
 BYTE   N07  Ds3  v080
 BYTE   N07  Bn4
 BYTE   W20
// 137   ----------------------------------------
 BYTE   W96
// 138   ----------------------------------------
 BYTE   W96
// 139   ----------------------------------------
 BYTE   W96
// 140   ----------------------------------------
 BYTE   W96
// 141   ----------------------------------------
 BYTE   N92  Dn3
 BYTE   W96
// 142   ----------------------------------------
 BYTE   En3
 BYTE   W96
// 143   ----------------------------------------
 BYTE   Fs3
 BYTE   W96
// 144   ----------------------------------------
 BYTE   En3
 BYTE   W96
// 145   ----------------------------------------
 BYTE   Dn3
 BYTE   W96
// 146   ----------------------------------------
 BYTE   En3
 BYTE   W96
// 147   ----------------------------------------
 BYTE   Fs3
 BYTE   W96
// 148   ----------------------------------------
 BYTE   Gs3
 BYTE   W96
// 149   ----------------------------------------
 BYTE   W96
// 150   ----------------------------------------
 BYTE   W96
// 151   ----------------------------------------
 BYTE   W96
// 152   ----------------------------------------
 BYTE   W96
// 153   ----------------------------------------
 BYTE   W96
// 154   ----------------------------------------
 BYTE   W96
// 155   ----------------------------------------
 BYTE   W96
// 156   ----------------------------------------
 BYTE   W96
// 157   ----------------------------------------
 BYTE   W96
// 158   ----------------------------------------
 BYTE   GoTo
  POIN2 Label_2_0187733E
 BYTE   FINE

//**************** Track 4 (Midi-Chn.3) ****************//

song07_004:
// 000   ----------------------------------------
 BYTE   KEYSH   song07_key+0
 BYTE   VOICE   42
 BYTE   VOL   62*song07_mvl/mxv
 BYTE   PAN   c_v+25
 BYTE   VOL   62*song07_mvl/mxv
 BYTE   PAN   c_v+0
 BYTE   VOL   62*song07_mvl/mxv
 BYTE   PAN   c_v-15
 BYTE   N16  An1  v096
 BYTE   W03
 BYTE   W01
 BYTE   W01
 BYTE   W90
 BYTE   W01
// 001   ----------------------------------------
Label_3_01877920:
 BYTE   W72
 BYTE   N16  An1  v096
 BYTE   W03
 BYTE   W01
 BYTE   W01
 BYTE   W19
 BYTE   PEND 
// 002   ----------------------------------------
 BYTE   Bn1
 BYTE   W03
 BYTE   W01
 BYTE   W01
 BYTE   W90
 BYTE   W01
// 003   ----------------------------------------
 BYTE   W72
 BYTE   N16
 BYTE   W03
 BYTE   W01
 BYTE   W01
 BYTE   W19
// 004   ----------------------------------------
 BYTE   An1
 BYTE   W03
 BYTE   W01
 BYTE   W01
 BYTE   W90
 BYTE   W01
 BYTE   PATT
  POIN2 Label_3_01877920
// 005   ----------------------------------------
 BYTE   TIE  Bn1  v080
 BYTE   W96
// 006   ----------------------------------------
 BYTE   W96
// 007   ----------------------------------------
 BYTE   W12
 BYTE   W06
 BYTE   W06
 BYTE   W06
 BYTE   W06
 BYTE   W07
 BYTE   W06
 BYTE   W06
 BYTE   W06
 BYTE   W06
 BYTE   W06
 BYTE   W06
 BYTE   W07
 BYTE   W06
 BYTE   W04
// 008   ----------------------------------------
 BYTE   W02
 BYTE   W06
 BYTE   W06
 BYTE   W06
 BYTE   W07
 BYTE   W06
 BYTE   W06
 BYTE   W06
 BYTE   W06
 BYTE   W06
 BYTE   W06
 BYTE   W07
 BYTE   W06
 BYTE   W06
 BYTE   W06
 BYTE   W06
 BYTE   W01
 BYTE   EOT
 BYTE   W01
// 009   ----------------------------------------
 BYTE   W96
// 010   ----------------------------------------
 BYTE   W96
// 011   ----------------------------------------
 BYTE   W96
// 012   ----------------------------------------
 BYTE   W96
// 013   ----------------------------------------
 BYTE   W96
// 014   ----------------------------------------
 BYTE   W96
// 015   ----------------------------------------
Label_3_0187796D:
 BYTE   W96
// 016   ----------------------------------------
 BYTE   W96
// 017   ----------------------------------------
 BYTE   W96
// 018   ----------------------------------------
 BYTE   W96
// 019   ----------------------------------------
 BYTE   W96
// 020   ----------------------------------------
 BYTE   W96
// 021   ----------------------------------------
 BYTE   W96
// 022   ----------------------------------------
 BYTE   W96
// 023   ----------------------------------------
 BYTE   W96
// 024   ----------------------------------------
 BYTE   W96
// 025   ----------------------------------------
 BYTE   W96
// 026   ----------------------------------------
 BYTE   W96
// 027   ----------------------------------------
 BYTE   W96
// 028   ----------------------------------------
 BYTE   W96
// 029   ----------------------------------------
 BYTE   W96
// 030   ----------------------------------------
 BYTE   W96
// 031   ----------------------------------------
 BYTE   W96
// 032   ----------------------------------------
 BYTE   W96
// 033   ----------------------------------------
 BYTE   W96
// 034   ----------------------------------------
 BYTE   W96
// 035   ----------------------------------------
 BYTE   W96
// 036   ----------------------------------------
 BYTE   W96
// 037   ----------------------------------------
 BYTE   W96
// 038   ----------------------------------------
 BYTE   W96
// 039   ----------------------------------------
 BYTE   W96
// 040   ----------------------------------------
 BYTE   W96
// 041   ----------------------------------------
 BYTE   W96
// 042   ----------------------------------------
 BYTE   W96
// 043   ----------------------------------------
 BYTE   W96
// 044   ----------------------------------------
 BYTE   W96
// 045   ----------------------------------------
 BYTE   W96
// 046   ----------------------------------------
 BYTE   W96
// 047   ----------------------------------------
 BYTE   W96
// 048   ----------------------------------------
 BYTE   TIE  Bn2  v080
 BYTE   W96
// 049   ----------------------------------------
 BYTE   W92
 BYTE   W03
 BYTE   EOT
 BYTE   W01
// 050   ----------------------------------------
 BYTE   TIE  An2
 BYTE   W96
// 051   ----------------------------------------
 BYTE   W92
 BYTE   W03
 BYTE   EOT
 BYTE   W01
// 052   ----------------------------------------
 BYTE   TIE  Gn2
 BYTE   W96
// 053   ----------------------------------------
 BYTE   W96
// 054   ----------------------------------------
 BYTE   W96
// 055   ----------------------------------------
 BYTE   W92
 BYTE   W03
 BYTE   EOT
 BYTE   W01
// 056   ----------------------------------------
Label_3_018779A6:
 BYTE   N07  Cs2  v080
 BYTE   W16
 BYTE   N07
 BYTE   W08
 BYTE   N11
 BYTE   W48
 BYTE   N07
 BYTE   W16
 BYTE   N07
 BYTE   W08
 BYTE   PEND 
// 057   ----------------------------------------
Label_3_018779B3:
 BYTE   N11  Cs2  v080
 BYTE   W48
 BYTE   N23  Dn2
 BYTE   W24
 BYTE   En2
 BYTE   W24
 BYTE   PEND 
 BYTE   PATT
  POIN2 Label_3_018779A6
// 058   ----------------------------------------
Label_3_018779C2:
 BYTE   N11  Cs2  v080
 BYTE   W48
 BYTE   N23  En2
 BYTE   W24
 BYTE   Dn2
 BYTE   W24
 BYTE   PEND 
 BYTE   PATT
  POIN2 Label_3_018779A6
 BYTE   PATT
  POIN2 Label_3_018779B3
 BYTE   PATT
  POIN2 Label_3_018779A6
 BYTE   PATT
  POIN2 Label_3_018779C2
// 059   ----------------------------------------
 BYTE   N32  Fs2  v080
 BYTE   W96
// 060   ----------------------------------------
 BYTE   W96
// 061   ----------------------------------------
 BYTE   W96
// 062   ----------------------------------------
 BYTE   W96
// 063   ----------------------------------------
 BYTE   W96
// 064   ----------------------------------------
 BYTE   W96
// 065   ----------------------------------------
 BYTE   W96
// 066   ----------------------------------------
 BYTE   W96
// 067   ----------------------------------------
 BYTE   W96
// 068   ----------------------------------------
 BYTE   W96
// 069   ----------------------------------------
 BYTE   W96
// 070   ----------------------------------------
 BYTE   W96
// 071   ----------------------------------------
 BYTE   W96
// 072   ----------------------------------------
 BYTE   W96
// 073   ----------------------------------------
 BYTE   W96
// 074   ----------------------------------------
 BYTE   W96
// 075   ----------------------------------------
 BYTE   W96
// 076   ----------------------------------------
 BYTE   W96
// 077   ----------------------------------------
 BYTE   W96
// 078   ----------------------------------------
 BYTE   W96
// 079   ----------------------------------------
 BYTE   W96
// 080   ----------------------------------------
 BYTE   W96
// 081   ----------------------------------------
 BYTE   W96
// 082   ----------------------------------------
 BYTE   W96
// 083   ----------------------------------------
 BYTE   W96
// 084   ----------------------------------------
 BYTE   W96
// 085   ----------------------------------------
 BYTE   W96
// 086   ----------------------------------------
 BYTE   W96
// 087   ----------------------------------------
 BYTE   W96
// 088   ----------------------------------------
 BYTE   W96
// 089   ----------------------------------------
 BYTE   W96
// 090   ----------------------------------------
 BYTE   W96
// 091   ----------------------------------------
 BYTE   W96
// 092   ----------------------------------------
 BYTE   W96
// 093   ----------------------------------------
 BYTE   W96
// 094   ----------------------------------------
 BYTE   W96
// 095   ----------------------------------------
 BYTE   W96
// 096   ----------------------------------------
 BYTE   W96
// 097   ----------------------------------------
 BYTE   W96
// 098   ----------------------------------------
 BYTE   W96
// 099   ----------------------------------------
Label_3_01877A0B:
 BYTE   N05  Fn2  v116
 BYTE   W03
 BYTE   W01
 BYTE   W01
 BYTE   W03
 BYTE   N05
 BYTE   W03
 BYTE   W01
 BYTE   W01
 BYTE   W03
 BYTE   N05
 BYTE   W03
 BYTE   W01
 BYTE   W01
 BYTE   W03
 BYTE   N07
 BYTE   W03
 BYTE   W01
 BYTE   W01
 BYTE   W19
 BYTE   N05  Gn2
 BYTE   W03
 BYTE   W01
 BYTE   W01
 BYTE   W03
 BYTE   N05
 BYTE   W03
 BYTE   W01
 BYTE   W01
 BYTE   W03
 BYTE   N05
 BYTE   W03
 BYTE   W01
 BYTE   W01
 BYTE   W03
 BYTE   N07  Fn2
 BYTE   W03
 BYTE   W01
 BYTE   W01
 BYTE   W19
 BYTE   PEND 
 BYTE   PATT
  POIN2 Label_3_01877A0B
// 100   ----------------------------------------
 BYTE   N05  As2  v116
 BYTE   W03
 BYTE   W01
 BYTE   W01
 BYTE   W03
 BYTE   N05
 BYTE   W03
 BYTE   W01
 BYTE   W01
 BYTE   W03
 BYTE   N05
 BYTE   W03
 BYTE   W01
 BYTE   W01
 BYTE   W03
 BYTE   N07
 BYTE   W03
 BYTE   W01
 BYTE   W01
 BYTE   W19
 BYTE   N05  Gn2
 BYTE   W03
 BYTE   W01
 BYTE   W01
 BYTE   W03
 BYTE   N05
 BYTE   W03
 BYTE   W01
 BYTE   W01
 BYTE   W03
 BYTE   N05
 BYTE   W03
 BYTE   W01
 BYTE   W01
 BYTE   W03
 BYTE   N07
 BYTE   W03
 BYTE   W01
 BYTE   W01
 BYTE   W19
// 101   ----------------------------------------
 BYTE   N05
 BYTE   W03
 BYTE   W01
 BYTE   W01
 BYTE   W03
 BYTE   N05
 BYTE   W03
 BYTE   W01
 BYTE   W01
 BYTE   W03
 BYTE   N05
 BYTE   W03
 BYTE   W01
 BYTE   W01
 BYTE   W03
 BYTE   N07
 BYTE   W03
 BYTE   W01
 BYTE   W01
 BYTE   W19
 BYTE   N05
 BYTE   W03
 BYTE   W01
 BYTE   W01
 BYTE   W03
 BYTE   N05
 BYTE   W03
 BYTE   W01
 BYTE   W01
 BYTE   W03
 BYTE   N05
 BYTE   W03
 BYTE   W01
 BYTE   W01
 BYTE   W03
 BYTE   N07
 BYTE   W03
 BYTE   W01
 BYTE   W01
 BYTE   W19
// 102   ----------------------------------------
Label_3_01877A90:
 BYTE   N05  En2  v116
 BYTE   W03
 BYTE   W01
 BYTE   W01
 BYTE   W03
 BYTE   N05
 BYTE   W03
 BYTE   W01
 BYTE   W01
 BYTE   W03
 BYTE   N05
 BYTE   W03
 BYTE   W01
 BYTE   W01
 BYTE   W03
 BYTE   N07  Fn2
 BYTE   W03
 BYTE   W01
 BYTE   W01
 BYTE   W19
 BYTE   N05  Gn2
 BYTE   W03
 BYTE   W01
 BYTE   W01
 BYTE   W03
 BYTE   N05
 BYTE   W03
 BYTE   W01
 BYTE   W01
 BYTE   W03
 BYTE   N05
 BYTE   W03
 BYTE   W01
 BYTE   W01
 BYTE   W03
 BYTE   N07  Fn2
 BYTE   W03
 BYTE   W01
 BYTE   W01
 BYTE   W19
 BYTE   PEND 
 BYTE   PATT
  POIN2 Label_3_01877A90
// 103   ----------------------------------------
Label_3_01877AC3:
 BYTE   N05  Fn2  v060
 BYTE   W03
 BYTE   W01
 BYTE   W01
 BYTE   W03
 BYTE   N05
 BYTE   W03
 BYTE   W01
 BYTE   W01
 BYTE   W03
 BYTE   N05
 BYTE   W03
 BYTE   W01
 BYTE   W01
 BYTE   W03
 BYTE   N07  Gn2
 BYTE   W03
 BYTE   W01
 BYTE   W01
 BYTE   W19
 BYTE   N05  An2
 BYTE   W03
 BYTE   W01
 BYTE   W01
 BYTE   W03
 BYTE   N05
 BYTE   W03
 BYTE   W01
 BYTE   W01
 BYTE   W03
 BYTE   N05
 BYTE   W03
 BYTE   W01
 BYTE   W01
 BYTE   W03
 BYTE   N07  Gn2
 BYTE   W03
 BYTE   W01
 BYTE   W01
 BYTE   W19
 BYTE   PEND 
 BYTE   PATT
  POIN2 Label_3_01877AC3
 BYTE   PATT
  POIN2 Label_3_01877A90
 BYTE   PATT
  POIN2 Label_3_01877A90
 BYTE   PATT
  POIN2 Label_3_01877A90
 BYTE   PATT
  POIN2 Label_3_01877A90
 BYTE   PATT
  POIN2 Label_3_01877A90
 BYTE   PATT
  POIN2 Label_3_01877A90
 BYTE   PATT
  POIN2 Label_3_01877A90
// 104   ----------------------------------------
 BYTE   N05  Dn2  v116
 BYTE   W03
 BYTE   W01
 BYTE   W01
 BYTE   W03
 BYTE   N05
 BYTE   W03
 BYTE   W01
 BYTE   W01
 BYTE   W03
 BYTE   N05
 BYTE   W03
 BYTE   W01
 BYTE   W01
 BYTE   W03
 BYTE   N07  Cn2
 BYTE   W03
 BYTE   W01
 BYTE   W01
 BYTE   W19
 BYTE   N05  En2
 BYTE   W03
 BYTE   W01
 BYTE   W01
 BYTE   W03
 BYTE   N05
 BYTE   W03
 BYTE   W01
 BYTE   W01
 BYTE   W03
 BYTE   N05
 BYTE   W03
 BYTE   W01
 BYTE   W01
 BYTE   W03
 BYTE   N07
 BYTE   W03
 BYTE   W01
 BYTE   W01
 BYTE   W19
// 105   ----------------------------------------
 BYTE   W96
// 106   ----------------------------------------
 BYTE   W96
// 107   ----------------------------------------
 BYTE   W96
// 108   ----------------------------------------
 BYTE   W96
// 109   ----------------------------------------
 BYTE   W96
// 110   ----------------------------------------
 BYTE   W96
// 111   ----------------------------------------
 BYTE   W96
// 112   ----------------------------------------
 BYTE   W96
// 113   ----------------------------------------
 BYTE   W96
// 114   ----------------------------------------
 BYTE   W96
// 115   ----------------------------------------
 BYTE   W96
// 116   ----------------------------------------
 BYTE   W96
// 117   ----------------------------------------
 BYTE   TIE  Cs2  v080
 BYTE   W96
// 118   ----------------------------------------
 BYTE   W96
// 119   ----------------------------------------
 BYTE   W96
// 120   ----------------------------------------
 BYTE   W60
 BYTE   W03
 BYTE   EOT
 BYTE   W01
 BYTE   N15  Ds2
 BYTE   W16
 BYTE   En2
 BYTE   W16
// 121   ----------------------------------------
 BYTE   W96
// 122   ----------------------------------------
 BYTE   W96
// 123   ----------------------------------------
 BYTE   W96
// 124   ----------------------------------------
 BYTE   W96
// 125   ----------------------------------------
 BYTE   W96
// 126   ----------------------------------------
 BYTE   W96
// 127   ----------------------------------------
 BYTE   W96
// 128   ----------------------------------------
 BYTE   W96
// 129   ----------------------------------------
 BYTE   W96
// 130   ----------------------------------------
 BYTE   W96
// 131   ----------------------------------------
 BYTE   W96
// 132   ----------------------------------------
 BYTE   W96
// 133   ----------------------------------------
 BYTE   W96
// 134   ----------------------------------------
 BYTE   W96
// 135   ----------------------------------------
 BYTE   W96
// 136   ----------------------------------------
 BYTE   W96
// 137   ----------------------------------------
 BYTE   W96
// 138   ----------------------------------------
 BYTE   W96
// 139   ----------------------------------------
 BYTE   W96
// 140   ----------------------------------------
 BYTE   W96
// 141   ----------------------------------------
 BYTE   W96
// 142   ----------------------------------------
 BYTE   W96
// 143   ----------------------------------------
 BYTE   W96
// 144   ----------------------------------------
 BYTE   W96
// 145   ----------------------------------------
 BYTE   W96
// 146   ----------------------------------------
 BYTE   W96
// 147   ----------------------------------------
 BYTE   W96
// 148   ----------------------------------------
 BYTE   W96
// 149   ----------------------------------------
 BYTE   W96
// 150   ----------------------------------------
 BYTE   GoTo
  POIN2 Label_3_0187796D
 BYTE   FINE

//**************** Track 5 (Midi-Chn.4) ****************//

song07_005:
// 000   ----------------------------------------
 BYTE   KEYSH   song07_key+0
 BYTE   VOICE   48
 BYTE   VOL   62*song07_mvl/mxv
 BYTE   PAN   c_v+31
 BYTE   VOL   62*song07_mvl/mxv
 BYTE   PAN   c_v+0
 BYTE   VOL   62*song07_mvl/mxv
 BYTE   PAN   c_v+0
 BYTE   N16  Fs0  v096
 BYTE   W03
 BYTE   W01
 BYTE   W01
 BYTE   W19
 BYTE   N11  Fs2
 BYTE   W12
 BYTE   N11
 BYTE   W12
 BYTE   N11
 BYTE   W12
 BYTE   N15
 BYTE   W16
 BYTE   N07
 BYTE   W08
 BYTE   N80
 BYTE   W12
// 001   ----------------------------------------
 BYTE   W72
 BYTE   N16  Fs0
 BYTE   W03
 BYTE   W01
 BYTE   W01
 BYTE   W19
// 002   ----------------------------------------
 BYTE   Gn0
 BYTE   W03
 BYTE   W01
 BYTE   W01
 BYTE   W19
 BYTE   N17  Fs2
 BYTE   W18
 BYTE   N05
 BYTE   W06
 BYTE   N11
 BYTE   W12
 BYTE   N23
 BYTE   W24
 BYTE   N11
 BYTE   W12
// 003   ----------------------------------------
 BYTE   N68
 BYTE   W72
 BYTE   N16  Gn0
 BYTE   W03
 BYTE   W01
 BYTE   W01
 BYTE   W19
// 004   ----------------------------------------
 BYTE   An0
 BYTE   W03
 BYTE   W01
 BYTE   W01
 BYTE   W19
 BYTE   N11  Fs2
 BYTE   W12
 BYTE   N11
 BYTE   W12
 BYTE   N11
 BYTE   W12
 BYTE   Gn2
 BYTE   W12
 BYTE   An2
 BYTE   W12
 BYTE   N23  Fs2
 BYTE   W12
// 005   ----------------------------------------
 BYTE   W12
 BYTE   N11
 BYTE   W12
 BYTE   N44
 BYTE   W48
 BYTE   N16  An0
 BYTE   N17  Fs2
 BYTE   W03
 BYTE   W01
 BYTE   W01
 BYTE   W13
 BYTE   N05
 BYTE   W06
// 006   ----------------------------------------
 BYTE   TIE  Bn0  v080
 BYTE   TIE  Cs3  v096
 BYTE   W96
// 007   ----------------------------------------
 BYTE   W96
// 008   ----------------------------------------
 BYTE   W12
 BYTE   W06
 BYTE   W06
 BYTE   W06
 BYTE   W06
 BYTE   W07
 BYTE   W06
 BYTE   W06
 BYTE   W06
 BYTE   W06
 BYTE   W06
 BYTE   W06
 BYTE   W07
 BYTE   W06
 BYTE   W04
// 009   ----------------------------------------
 BYTE   W02
 BYTE   W06
 BYTE   W06
 BYTE   W06
 BYTE   W07
 BYTE   W06
 BYTE   W06
 BYTE   W06
 BYTE   W06
 BYTE   W06
 BYTE   W06
 BYTE   W07
 BYTE   W06
 BYTE   W06
 BYTE   W06
 BYTE   W06
 BYTE   W01
 BYTE   EOT
 BYTE   Bn0  v061
 BYTE   W01
// 010   ----------------------------------------
 BYTE   W96
// 011   ----------------------------------------
 BYTE   W96
// 012   ----------------------------------------
 BYTE   W96
// 013   ----------------------------------------
 BYTE   W96
// 014   ----------------------------------------
 BYTE   W96
// 015   ----------------------------------------
 BYTE   W96
// 016   ----------------------------------------
Label_4_01877C1B:
 BYTE   W96
// 017   ----------------------------------------
 BYTE   W96
// 018   ----------------------------------------
 BYTE   W96
// 019   ----------------------------------------
 BYTE   W96
// 020   ----------------------------------------
 BYTE   W16
 BYTE   N23  Fs3  v112
 BYTE   W24
 BYTE   N07
 BYTE   W08
 BYTE   N15  An3
 BYTE   W16
 BYTE   Gs3
 BYTE   W16
 BYTE   Fs3
 BYTE   W16
// 021   ----------------------------------------
Label_4_01877C2D:
 BYTE   N30  En3  v112
 BYTE   W32
 BYTE   Dn3
 BYTE   W32
 BYTE   N15  An2
 BYTE   W16
 BYTE   Bn2
 BYTE   W16
 BYTE   PEND 
// 022   ----------------------------------------
Label_4_01877C39:
 BYTE   N92  En1  v080
 BYTE   TIE  Cs3  v112
 BYTE   W96
 BYTE   PEND 
// 023   ----------------------------------------
Label_4_01877C41:
 BYTE   N92  Dn1  v080
 BYTE   W92
 BYTE   W03
 BYTE   PEND 
 BYTE   EOT
 BYTE   Cs3
 BYTE   W01
// 024   ----------------------------------------
Label_4_01877C4A:
 BYTE   N92  Cs1  v080
 BYTE   W16
 BYTE   N23  Fs3  v112
 BYTE   W24
 BYTE   N07
 BYTE   W08
 BYTE   N15  An3
 BYTE   W16
 BYTE   Gs3
 BYTE   W16
 BYTE   Fs3
 BYTE   W16
 BYTE   PEND 
// 025   ----------------------------------------
Label_4_01877C5C:
 BYTE   N92  Bn0  v080
 BYTE   N30  En3  v112
 BYTE   W32
 BYTE   Dn3
 BYTE   W32
 BYTE   N15  An2
 BYTE   W16
 BYTE   Bn2
 BYTE   W16
 BYTE   PEND 
// 026   ----------------------------------------
Label_4_01877C6B:
 BYTE   N92  Gs0  v080
 BYTE   TIE  Cs3  v112
 BYTE   W96
 BYTE   PEND 
// 027   ----------------------------------------
 BYTE   N92  Cs1  v080
 BYTE   W68
 BYTE   W03
 BYTE   EOT
 BYTE   Cs3
 BYTE   W01
 BYTE   N23  Cs3  v112
 BYTE   W24
// 028   ----------------------------------------
 BYTE   N92  Bn0  v080
 BYTE   N44  Dn3  v112
 BYTE   W48
 BYTE   Bn2
 BYTE   W48
// 029   ----------------------------------------
 BYTE   N92  Gs0  v080
 BYTE   N44  En2  v112
 BYTE   W48
 BYTE   En3
 BYTE   W48
// 030   ----------------------------------------
 BYTE   N92  Fs0  v080
 BYTE   N15  Dn3  v112
 BYTE   W16
 BYTE   Cs3
 BYTE   W16
 BYTE   Bn2
 BYTE   W16
 BYTE   N92  An2
 BYTE   W48
// 031   ----------------------------------------
 BYTE   En0  v080
 BYTE   W48
 BYTE   N15  Fs2  v112
 BYTE   W16
 BYTE   An2
 BYTE   W16
 BYTE   Cs3
 BYTE   W16
// 032   ----------------------------------------
 BYTE   N92  Ds1  v080
 BYTE   N68  Fs3  v112
 BYTE   W72
 BYTE   N23
 BYTE   W24
// 033   ----------------------------------------
 BYTE   N92  Gs0  v080
 BYTE   N44  Gs3  v112
 BYTE   W48
 BYTE   Ds3
 BYTE   W48
// 034   ----------------------------------------
 BYTE   N92  Dn1  v080
 BYTE   N92  Fs3  v112
 BYTE   W96
// 035   ----------------------------------------
 BYTE   Cs1  v080
 BYTE   N92  Fn3  v112
 BYTE   W96
// 036   ----------------------------------------
 BYTE   N23  Cs2  v080
 BYTE   W48
 BYTE   N07
 BYTE   W16
 BYTE   N07
 BYTE   W16
 BYTE   N07
 BYTE   W16
// 037   ----------------------------------------
 BYTE   N11  Fs1
 BYTE   W16
 BYTE   N23  Fs3  v112
 BYTE   W24
 BYTE   N07
 BYTE   W08
 BYTE   N15  An3
 BYTE   W16
 BYTE   Gs3
 BYTE   W16
 BYTE   Fs3
 BYTE   W16
 BYTE   PATT
  POIN2 Label_4_01877C2D
 BYTE   PATT
  POIN2 Label_4_01877C39
 BYTE   PATT
  POIN2 Label_4_01877C41
// 038   ----------------------------------------
 BYTE   EOT
 BYTE   Cs3
 BYTE   W01
 BYTE   PATT
  POIN2 Label_4_01877C4A
 BYTE   PATT
  POIN2 Label_4_01877C5C
 BYTE   PATT
  POIN2 Label_4_01877C6B
// 039   ----------------------------------------
 BYTE   N44  Cs1  v080
 BYTE   W48
 BYTE   Fn1
 BYTE   W15
 BYTE   EOT
 BYTE   Cs3
 BYTE   W01
 BYTE   N15  An2  v112
 BYTE   W16
 BYTE   Cs3
 BYTE   W16
// 040   ----------------------------------------
 BYTE   N92  Fs1  v080
 BYTE   N60  Dn3  v112
 BYTE   W64
 BYTE   N15  En3
 BYTE   W16
 BYTE   Fs3
 BYTE   W16
// 041   ----------------------------------------
 BYTE   N44  En1  v080
 BYTE   N68  Gs3  v112
 BYTE   W48
 BYTE   N44  Gs1  v080
 BYTE   W24
 BYTE   N23  Bn2  v112
 BYTE   W24
// 042   ----------------------------------------
 BYTE   N44  Cs1  v080
 BYTE   N60  Cs3  v112
 BYTE   W48
 BYTE   N44  Bn0  v080
 BYTE   W16
 BYTE   N15  Dn3  v112
 BYTE   W16
 BYTE   En3
 BYTE   W16
// 043   ----------------------------------------
 BYTE   N44  As0  v080
 BYTE   N44  Fs3  v112
 BYTE   W48
 BYTE   Fs0  v080
 BYTE   N44  En3  v112
 BYTE   W48
// 044   ----------------------------------------
 BYTE   TIE  Bn0  v080
 BYTE   N15  En3  v112
 BYTE   W16
 BYTE   Dn3
 BYTE   W16
 BYTE   Cs3
 BYTE   W16
 BYTE   TIE  Dn3
 BYTE   W48
// 045   ----------------------------------------
 BYTE   W92
 BYTE   W03
 BYTE   EOT
 BYTE   Bn0  v062
 BYTE   W01
// 046   ----------------------------------------
 BYTE   TIE  An0  v080
 BYTE   N15  En3  v112
 BYTE   W16
 BYTE   Dn3
 BYTE   W16
 BYTE   Cs3
 BYTE   W16
 BYTE   TIE  Dn3
 BYTE   W48
// 047   ----------------------------------------
 BYTE   W92
 BYTE   W03
 BYTE   EOT
 BYTE   An0  v062
 BYTE   W01
// 048   ----------------------------------------
 BYTE   TIE  Gn0  v080
 BYTE   N15  En3  v112
 BYTE   W16
 BYTE   Dn3
 BYTE   W16
 BYTE   Cs3
 BYTE   W16
 BYTE   TIE  Dn3
 BYTE   W48
// 049   ----------------------------------------
 BYTE   W96
// 050   ----------------------------------------
 BYTE   W68
 BYTE   W03
 BYTE   EOT
 BYTE   W01
 BYTE   N23  Bn2
 BYTE   W24
// 051   ----------------------------------------
 BYTE   N44  En3
 BYTE   W48
 BYTE   Fs3
 BYTE   W44
 BYTE   W03
 BYTE   EOT
 BYTE   Gn0
 BYTE   W01
// 052   ----------------------------------------
 BYTE   N07  Cs1  v080
 BYTE   TIE  Gs3  v112
 BYTE   W16
 BYTE   N07  Cs1  v080
 BYTE   W08
 BYTE   N11
 BYTE   W48
 BYTE   N07
 BYTE   W16
 BYTE   N07
 BYTE   W08
// 053   ----------------------------------------
Label_4_01877DA4:
 BYTE   N11  Cs1  v080
 BYTE   W48
 BYTE   N23  Dn1
 BYTE   W24
 BYTE   En1
 BYTE   W24
 BYTE   PEND 
// 054   ----------------------------------------
Label_4_01877DAE:
 BYTE   N07  Cs1  v080
 BYTE   W16
 BYTE   N07
 BYTE   W08
 BYTE   N11
 BYTE   W48
 BYTE   N07
 BYTE   W16
 BYTE   N07
 BYTE   W08
 BYTE   PEND 
// 055   ----------------------------------------
 BYTE   N11
 BYTE   W48
 BYTE   N23  En1
 BYTE   W24
 BYTE   Dn1
 BYTE   W23
 BYTE   EOT
 BYTE   Gs3
 BYTE   W01
 BYTE   PATT
  POIN2 Label_4_01877DAE
 BYTE   PATT
  POIN2 Label_4_01877DA4
 BYTE   PATT
  POIN2 Label_4_01877DAE
// 056   ----------------------------------------
 BYTE   N11  Cs1  v080
 BYTE   W48
 BYTE   N23  En1
 BYTE   W24
 BYTE   Dn1
 BYTE   W24
// 057   ----------------------------------------
 BYTE   N32  Fs0
 BYTE   W48
 BYTE   N23  As2  v112
 BYTE   W24
 BYTE   Bn2
 BYTE   W24
// 058   ----------------------------------------
 BYTE   Cs3
 BYTE   W24
 BYTE   Dn3
 BYTE   W24
 BYTE   En3
 BYTE   W24
 BYTE   Fs3
 BYTE   W24
// 059   ----------------------------------------
 BYTE   TIE  Dn3
 BYTE   W24
 BYTE   N68  Bn0  v096
 BYTE   W72
// 060   ----------------------------------------
 BYTE   N92  An0
 BYTE   W96
// 061   ----------------------------------------
 BYTE   Gn0
 BYTE   W23
 BYTE   EOT
 BYTE   Dn3
 BYTE   W24
 BYTE   W01
 BYTE   N23  Bn2  v112
 BYTE   W24
 BYTE   An2
 BYTE   W24
// 062   ----------------------------------------
 BYTE   N92  Cs1  v096
 BYTE   N23  Gs2  v112
 BYTE   W24
 BYTE   Bn2
 BYTE   W24
 BYTE   En3
 BYTE   W24
 BYTE   Dn3
 BYTE   W24
// 063   ----------------------------------------
 BYTE   N92  Fs0  v096
 BYTE   TIE  Cs3  v112
 BYTE   W96
// 064   ----------------------------------------
 BYTE   N92  En1  v096
 BYTE   W92
 BYTE   W03
 BYTE   EOT
 BYTE   Cs3
 BYTE   W01
// 065   ----------------------------------------
 BYTE   W96
// 066   ----------------------------------------
 BYTE   W96
// 067   ----------------------------------------
 BYTE   W96
// 068   ----------------------------------------
 BYTE   W96
// 069   ----------------------------------------
 BYTE   TIE  Ds0
 BYTE   W96
// 070   ----------------------------------------
 BYTE   W92
 BYTE   W03
 BYTE   EOT
 BYTE   W01
// 071   ----------------------------------------
 BYTE   TIE  Dn0
 BYTE   W96
// 072   ----------------------------------------
 BYTE   W92
 BYTE   W03
 BYTE   EOT
 BYTE   W01
// 073   ----------------------------------------
 BYTE   W96
// 074   ----------------------------------------
 BYTE   W96
// 075   ----------------------------------------
 BYTE   W96
// 076   ----------------------------------------
 BYTE   W96
// 077   ----------------------------------------
 BYTE   TIE  Cs0
 BYTE   W96
// 078   ----------------------------------------
 BYTE   W92
 BYTE   W03
 BYTE   EOT
 BYTE   W01
// 079   ----------------------------------------
 BYTE   TIE  Cn0
 BYTE   W96
// 080   ----------------------------------------
 BYTE   W92
 BYTE   W03
 BYTE   EOT
 BYTE   W01
// 081   ----------------------------------------
 BYTE   W24
 BYTE   N44  Fs2  v112
 BYTE   W48
 BYTE   N23  En2
 BYTE   W24
// 082   ----------------------------------------
 BYTE   Fs2
 BYTE   W24
 BYTE   N23
 BYTE   W24
 BYTE   Bn2
 BYTE   W24
 BYTE   An2
 BYTE   W24
// 083   ----------------------------------------
 BYTE   Gn2
 BYTE   W24
 BYTE   Bn2
 BYTE   W24
 BYTE   Cs3
 BYTE   W24
 BYTE   Bn2
 BYTE   W24
// 084   ----------------------------------------
 BYTE   N44
 BYTE   W48
 BYTE   As2
 BYTE   W48
// 085   ----------------------------------------
 BYTE   W24
 BYTE   N23  Dn3
 BYTE   W24
 BYTE   Cs3
 BYTE   W24
 BYTE   Bn2
 BYTE   W24
// 086   ----------------------------------------
 BYTE   An2
 BYTE   W24
 BYTE   Fs2
 BYTE   W24
 BYTE   Bn2
 BYTE   W24
 BYTE   An2
 BYTE   W24
// 087   ----------------------------------------
 BYTE   Gn2
 BYTE   W24
 BYTE   Bn2
 BYTE   W24
 BYTE   En3
 BYTE   W24
 BYTE   Dn3
 BYTE   W24
// 088   ----------------------------------------
 BYTE   N32
 BYTE   W36
 BYTE   N11  En3
 BYTE   W12
 BYTE   N44  Cs3
 BYTE   W48
// 089   ----------------------------------------
 BYTE   Dn1  v096
 BYTE   W24
 BYTE   Fn3  v112
 BYTE   W24
 BYTE   En1  v096
 BYTE   W24
 BYTE   N23  En3  v112
 BYTE   W24
// 090   ----------------------------------------
 BYTE   N44  Fn1  v096
 BYTE   N44  En3  v112
 BYTE   W48
 BYTE   Fs1  v096
 BYTE   N23  Dn3  v112
 BYTE   W24
 BYTE   Cn3
 BYTE   W24
// 091   ----------------------------------------
 BYTE   N44  Gn1  v096
 BYTE   N23  As2  v112
 BYTE   W24
 BYTE   Gn2
 BYTE   W24
 BYTE   N44  Gs1  v096
 BYTE   N23  En3  v112
 BYTE   W24
 BYTE   Dn3
 BYTE   W24
// 092   ----------------------------------------
 BYTE   N44  An1  v096
 BYTE   N23  Dn3  v112
 BYTE   W24
 BYTE   En3
 BYTE   W24
 BYTE   N44  An1  v096
 BYTE   N23  Cs3  v112
 BYTE   W48
// 093   ----------------------------------------
 BYTE   N44  Dn1  v096
 BYTE   N44  Dn2  v080
 BYTE   W24
 BYTE   N23  An3  v112
 BYTE   W24
 BYTE   N44  En1  v096
 BYTE   N44  En2  v080
 BYTE   N23  Gn3  v112
 BYTE   W24
 BYTE   Fn3
 BYTE   W24
// 094   ----------------------------------------
 BYTE   N44  Fn1  v096
 BYTE   N44  Fn2  v080
 BYTE   N44  En3  v112
 BYTE   W48
 BYTE   Fs1  v096
 BYTE   N44  Fs2  v080
 BYTE   N23  Dn3  v112
 BYTE   W24
 BYTE   Cn3
 BYTE   W24
// 095   ----------------------------------------
 BYTE   N44  Gn1  v096
 BYTE   N44  Gn2  v080
 BYTE   N23  As2  v112
 BYTE   W24
 BYTE   Dn3
 BYTE   W24
 BYTE   N44  Gs1  v096
 BYTE   N44  Gs2  v080
 BYTE   N23  Fn3  v112
 BYTE   W24
 BYTE   Gn3
 BYTE   W24
// 096   ----------------------------------------
 BYTE   N44  An1  v096
 BYTE   N44  An2  v080
 BYTE   N23  En3  v112
 BYTE   W48
 BYTE   N44  An1  v096
 BYTE   N44  An2  v080
 BYTE   W48
// 097   ----------------------------------------
 BYTE   TIE  As0  v096
 BYTE   TIE  As1  v080
 BYTE   TIE  An3  v112
 BYTE   W96
// 098   ----------------------------------------
 BYTE   W92
 BYTE   W03
 BYTE   EOT
 BYTE   As0  v046
 BYTE   W01
// 099   ----------------------------------------
 BYTE   TIE  Cn1  v096
 BYTE   TIE  Cn2  v080
 BYTE   W06
 BYTE   W03
 BYTE   W03
 BYTE   W03
 BYTE   W03
 BYTE   W03
 BYTE   W03
 BYTE   W03
 BYTE   W03
 BYTE   W03
 BYTE   W03
 BYTE   W03
 BYTE   W03
 BYTE   W03
 BYTE   W03
 BYTE   W03
 BYTE   W03
 BYTE   W03
 BYTE   W03
 BYTE   W03
 BYTE   W03
 BYTE   W03
 BYTE   W03
 BYTE   W03
 BYTE   W03
 BYTE   W03
 BYTE   W03
 BYTE   W03
 BYTE   W03
 BYTE   W03
 BYTE   W03
// 100   ----------------------------------------
 BYTE   W03
 BYTE   W03
 BYTE   W03
 BYTE   W03
 BYTE   W03
 BYTE   W03
 BYTE   W03
 BYTE   W03
 BYTE   W03
 BYTE   W03
 BYTE   W03
 BYTE   W03
 BYTE   W03
 BYTE   W03
 BYTE   W03
 BYTE   W03
 BYTE   W03
 BYTE   W03
 BYTE   W03
 BYTE   W03
 BYTE   W03
 BYTE   W03
 BYTE   W03
 BYTE   W03
 BYTE   W03
 BYTE   W03
 BYTE   W03
 BYTE   W03
 BYTE   W03
 BYTE   W03
 BYTE   W03
 BYTE   W02
 BYTE   EOT
 BYTE   Cn1  v048
 BYTE   An3
 BYTE   W01
// 101   ----------------------------------------
 BYTE   N92  Dn1  v096
 BYTE   N92  Dn2  v080
 BYTE   W96
// 102   ----------------------------------------
 BYTE   Cn1  v096
 BYTE   N92  Cn2  v080
 BYTE   W96
// 103   ----------------------------------------
 BYTE   TIE  Bn0  v096
 BYTE   TIE  Bn1  v080
 BYTE   W96
// 104   ----------------------------------------
 BYTE   W92
 BYTE   W03
 BYTE   EOT
 BYTE   Bn0  v047
 BYTE   W01
// 105   ----------------------------------------
 BYTE   TIE  Gn0  v096
 BYTE   TIE  Gn1  v080
 BYTE   W96
// 106   ----------------------------------------
 BYTE   W92
 BYTE   W03
 BYTE   EOT
 BYTE   Gn0  v043
 BYTE   W01
// 107   ----------------------------------------
 BYTE   TIE  An0  v096
 BYTE   TIE  An1  v080
 BYTE   W96
// 108   ----------------------------------------
 BYTE   W92
 BYTE   W03
 BYTE   EOT
 BYTE   An0  v045
 BYTE   W01
// 109   ----------------------------------------
 BYTE   TIE  As0  v096
 BYTE   TIE  As1  v080
 BYTE   W96
// 110   ----------------------------------------
 BYTE   W92
 BYTE   W03
 BYTE   EOT
 BYTE   As0  v046
 BYTE   W01
// 111   ----------------------------------------
 BYTE   TIE  Cn1  v096
 BYTE   TIE  Cn2  v080
 BYTE   W96
// 112   ----------------------------------------
 BYTE   W92
 BYTE   W03
 BYTE   EOT
 BYTE   Cn1  v048
 BYTE   W01
// 113   ----------------------------------------
 BYTE   W96
// 114   ----------------------------------------
 BYTE   W96
// 115   ----------------------------------------
 BYTE   W96
// 116   ----------------------------------------
 BYTE   W96
// 117   ----------------------------------------
 BYTE   W96
// 118   ----------------------------------------
 BYTE   W96
// 119   ----------------------------------------
 BYTE   W96
// 120   ----------------------------------------
 BYTE   W96
// 121   ----------------------------------------
 BYTE   TIE  Ds0  v096
 BYTE   TIE  Ds2  v080
 BYTE   W96
// 122   ----------------------------------------
 BYTE   W96
// 123   ----------------------------------------
 BYTE   W96
// 124   ----------------------------------------
 BYTE   W96
// 125   ----------------------------------------
 BYTE   W96
// 126   ----------------------------------------
 BYTE   W96
// 127   ----------------------------------------
 BYTE   W96
// 128   ----------------------------------------
 BYTE   W60
 BYTE   W03
 BYTE   EOT
 BYTE   Ds0  v051
 BYTE   W01
 BYTE   N15  En0  v096
 BYTE   N15  En2  v080
 BYTE   W16
 BYTE   Fn0  v096
 BYTE   N15  Fn2  v080
 BYTE   W16
// 129   ----------------------------------------
 BYTE   TIE  Fs0  v096
 BYTE   TIE  Fs2  v080
 BYTE   W96
// 130   ----------------------------------------
 BYTE   W68
 BYTE   W03
 BYTE   EOT
 BYTE   Fs0  v054
 BYTE   W01
 BYTE   N15  Cs0  v096
 BYTE   N15  Cs2  v080
 BYTE   W16
 BYTE   N30  En0  v096
 BYTE   N30  En2  v080
 BYTE   W08
// 131   ----------------------------------------
Label_4_01877FFE:
 BYTE   W24
 BYTE   TIE  Fs0  v096
 BYTE   TIE  Fs2  v080
 BYTE   W72
 BYTE   PEND 
// 132   ----------------------------------------
 BYTE   W56
 BYTE   W03
 BYTE   EOT
 BYTE   Fs0  v054
 BYTE   W01
 BYTE   N07  BnM1  v096
 BYTE   N07  Bn1  v080
 BYTE   W08
 BYTE   Cs0  v096
 BYTE   N07  Cs2  v080
 BYTE   W08
 BYTE   N42  En0  v096
 BYTE   N42  En2  v080
 BYTE   W20
 BYTE   PATT
  POIN2 Label_4_01877FFE
// 133   ----------------------------------------
 BYTE   W68
 BYTE   W03
 BYTE   EOT
 BYTE   Fs0  v054
 BYTE   W01
 BYTE   N15  Cs0  v096
 BYTE   N15  Cs2  v080
 BYTE   W16
 BYTE   N30  En0  v096
 BYTE   N30  En2  v080
 BYTE   W08
 BYTE   PATT
  POIN2 Label_4_01877FFE
// 134   ----------------------------------------
 BYTE   W56
 BYTE   W03
 BYTE   EOT
 BYTE   Fs0  v054
 BYTE   W01
 BYTE   N15  Cs0  v096
 BYTE   N15  Cs2  v080
 BYTE   W16
 BYTE   N19  En0  v096
 BYTE   N19  En2  v080
 BYTE   W20
// 135   ----------------------------------------
 BYTE   W96
// 136   ----------------------------------------
 BYTE   W96
// 137   ----------------------------------------
 BYTE   W96
// 138   ----------------------------------------
 BYTE   W96
// 139   ----------------------------------------
 BYTE   N92  Bn0  v096
 BYTE   N92  Bn1  v080
 BYTE   N60  An2  v127
 BYTE   W64
 BYTE   N15  Gs2
 BYTE   W16
 BYTE   An2
 BYTE   W16
// 140   ----------------------------------------
 BYTE   N92  Cs1  v096
 BYTE   N92  Cs2  v080
 BYTE   N60  Bn2  v127
 BYTE   W64
 BYTE   N15  An2
 BYTE   W16
 BYTE   Bn2
 BYTE   W16
// 141   ----------------------------------------
 BYTE   N92  Dn1  v096
 BYTE   N92  Dn2  v080
 BYTE   N60  Cs3  v127
 BYTE   W64
 BYTE   N15  Dn3
 BYTE   W16
 BYTE   Cs3
 BYTE   W16
// 142   ----------------------------------------
 BYTE   N92  En1  v096
 BYTE   N92  En2  v080
 BYTE   N92  Bn2  v127
 BYTE   W96
// 143   ----------------------------------------
 BYTE   Bn0  v096
 BYTE   N92  Bn1  v080
 BYTE   N30  Cs3  v127
 BYTE   W32
 BYTE   N44  Fs2
 BYTE   W48
 BYTE   N15
 BYTE   W16
// 144   ----------------------------------------
 BYTE   N92  Cs1  v096
 BYTE   N92  Cs2  v080
 BYTE   N30  Cs3  v127
 BYTE   W32
 BYTE   N44  Fs2
 BYTE   W48
 BYTE   N15
 BYTE   W16
// 145   ----------------------------------------
 BYTE   N92  Dn1  v096
 BYTE   N92  Dn2  v080
 BYTE   N44  Cs3  v127
 BYTE   W48
 BYTE   Fs3
 BYTE   W48
// 146   ----------------------------------------
 BYTE   N92  En1  v096
 BYTE   N92  En2  v080
 BYTE   N23  En3  v127
 BYTE   W24
 BYTE   Gs2
 BYTE   W24
 BYTE   N15  Bn2
 BYTE   W16
 BYTE   En3
 BYTE   W16
 BYTE   Gs3
 BYTE   W16
// 147   ----------------------------------------
 BYTE   TIE  Fs3
 BYTE   W96
// 148   ----------------------------------------
 BYTE   Fs1  v080
 BYTE   W96
// 149   ----------------------------------------
 BYTE   W04
 BYTE   W03
 BYTE   W02
 BYTE   W03
 BYTE   W02
 BYTE   W03
 BYTE   W02
 BYTE   W03
 BYTE   W02
 BYTE   W02
 BYTE   W03
 BYTE   W02
 BYTE   W03
 BYTE   W02
 BYTE   W03
 BYTE   W02
 BYTE   W03
 BYTE   W02
 BYTE   W03
 BYTE   W02
 BYTE   W02
 BYTE   W03
 BYTE   W02
 BYTE   W03
 BYTE   W02
 BYTE   W03
 BYTE   W02
 BYTE   W03
 BYTE   W02
 BYTE   W02
 BYTE   W03
 BYTE   W02
 BYTE   W03
 BYTE   W02
 BYTE   W03
 BYTE   W02
 BYTE   W03
 BYTE   W02
 BYTE   EOT
 BYTE   W01
// 150   ----------------------------------------
 BYTE   TIE  Fs0  v096
 BYTE   TIE  Fs1  v080
 BYTE   W02
 BYTE   W02
 BYTE   W02
 BYTE   W03
 BYTE   W02
 BYTE   W03
 BYTE   W02
 BYTE   W03
 BYTE   W02
 BYTE   W03
 BYTE   W02
 BYTE   W02
 BYTE   W03
 BYTE   W02
 BYTE   W03
 BYTE   W02
 BYTE   W03
 BYTE   W02
 BYTE   W05
 BYTE   W03
 BYTE   W02
 BYTE   W02
 BYTE   W03
 BYTE   W02
 BYTE   W03
 BYTE   W02
 BYTE   W03
 BYTE   W02
 BYTE   W03
 BYTE   W02
 BYTE   W02
 BYTE   W03
 BYTE   W02
 BYTE   W03
 BYTE   W02
 BYTE   W03
 BYTE   W02
 BYTE   W03
 BYTE   EOT
 BYTE   Fs3
 BYTE   W01
// 151   ----------------------------------------
 BYTE   W92
 BYTE   W03
 BYTE   Fs0  v042
 BYTE   W01
// 152   ----------------------------------------
Label_4_0187812C:
 BYTE   N23  Fs1  v080
 BYTE   W24
 BYTE   N07
 BYTE   W08
 BYTE   Gs1
 BYTE   W08
 BYTE   An1
 BYTE   W08
 BYTE   N15  Cs2
 BYTE   W16
 BYTE   An1
 BYTE   W16
 BYTE   Fs1
 BYTE   W16
 BYTE   PEND 
// 153   ----------------------------------------
Label_4_0187813E:
 BYTE   N07  Dn1  v080
 BYTE   W08
 BYTE   Fs1
 BYTE   W08
 BYTE   An1
 BYTE   W08
 BYTE   N23  En2
 BYTE   W24
 BYTE   N15  Fn1
 BYTE   W16
 BYTE   N30  Fn2
 BYTE   W32
 BYTE   PEND 
 BYTE   PATT
  POIN2 Label_4_0187812C
 BYTE   PATT
  POIN2 Label_4_0187813E
// 154   ----------------------------------------
 BYTE   GoTo
  POIN2 Label_4_01877C1B
 BYTE   FINE

//**************** Track 6 (Midi-Chn.5) ****************//

song07_006:
// 000   ----------------------------------------
 BYTE   KEYSH   song07_key+0
 BYTE   VOICE   45
 BYTE   VOL   72*song07_mvl/mxv
 BYTE   PAN   c_v+0
 BYTE   VOL   62*song07_mvl/mxv
 BYTE   PAN   c_v+14
 BYTE   VOL   62*song07_mvl/mxv
 BYTE   PAN   c_v+0
 BYTE   N92  Fs1  v096
 BYTE   W96
// 001   ----------------------------------------
 BYTE   W72
 BYTE   N23
 BYTE   W24
// 002   ----------------------------------------
 BYTE   N92  Gn1
 BYTE   W96
// 003   ----------------------------------------
 BYTE   W72
 BYTE   N23
 BYTE   W24
// 004   ----------------------------------------
 BYTE   N92  An1
 BYTE   W96
// 005   ----------------------------------------
 BYTE   W72
 BYTE   N23
 BYTE   W24
// 006   ----------------------------------------
 BYTE   W96
// 007   ----------------------------------------
 BYTE   W96
// 008   ----------------------------------------
 BYTE   W96
// 009   ----------------------------------------
 BYTE   W96
// 010   ----------------------------------------
 BYTE   W96
// 011   ----------------------------------------
 BYTE   W80
 BYTE   N15  Cs1
 BYTE   W16
// 012   ----------------------------------------
 BYTE   N44  Fs1
 BYTE   W48
 BYTE   Fs1  v080
 BYTE   W48
// 013   ----------------------------------------
Label_5_01878192:
 BYTE   N44  Fs1  v080
 BYTE   W48
 BYTE   N44
 BYTE   W48
 BYTE   PEND 
 BYTE   PATT
  POIN2 Label_5_01878192
 BYTE   PATT
  POIN2 Label_5_01878192
// 014   ----------------------------------------
Label_5_018781A3:
 BYTE   PATT
  POIN2 Label_5_01878192
 BYTE   PATT
  POIN2 Label_5_01878192
 BYTE   PATT
  POIN2 Label_5_01878192
 BYTE   PATT
  POIN2 Label_5_01878192
// 015   ----------------------------------------
 BYTE   N92  Fs1  v080
 BYTE   W96
// 016   ----------------------------------------
 BYTE   W96
// 017   ----------------------------------------
 BYTE   W96
// 018   ----------------------------------------
 BYTE   W96
// 019   ----------------------------------------
 BYTE   W96
// 020   ----------------------------------------
 BYTE   W96
// 021   ----------------------------------------
 BYTE   W96
// 022   ----------------------------------------
 BYTE   W96
// 023   ----------------------------------------
 BYTE   W96
// 024   ----------------------------------------
 BYTE   W96
// 025   ----------------------------------------
 BYTE   W96
// 026   ----------------------------------------
 BYTE   W96
// 027   ----------------------------------------
 BYTE   W96
// 028   ----------------------------------------
 BYTE   W96
// 029   ----------------------------------------
 BYTE   W96
// 030   ----------------------------------------
 BYTE   W96
// 031   ----------------------------------------
 BYTE   W96
// 032   ----------------------------------------
 BYTE   N92
 BYTE   W96
// 033   ----------------------------------------
 BYTE   W96
// 034   ----------------------------------------
 BYTE   W96
// 035   ----------------------------------------
 BYTE   W96
// 036   ----------------------------------------
 BYTE   W96
// 037   ----------------------------------------
 BYTE   W96
// 038   ----------------------------------------
 BYTE   W96
// 039   ----------------------------------------
 BYTE   W96
// 040   ----------------------------------------
 BYTE   W96
// 041   ----------------------------------------
 BYTE   W96
// 042   ----------------------------------------
 BYTE   W96
// 043   ----------------------------------------
 BYTE   W96
// 044   ----------------------------------------
 BYTE   Bn1
 BYTE   W96
// 045   ----------------------------------------
 BYTE   W96
// 046   ----------------------------------------
 BYTE   N92
 BYTE   W96
// 047   ----------------------------------------
 BYTE   W96
// 048   ----------------------------------------
 BYTE   N92
 BYTE   W96
// 049   ----------------------------------------
 BYTE   W96
// 050   ----------------------------------------
 BYTE   W96
// 051   ----------------------------------------
 BYTE   W96
// 052   ----------------------------------------
Label_5_018781E3:
 BYTE   N07  Cs2  v080
 BYTE   W16
 BYTE   N07
 BYTE   W08
 BYTE   N44
 BYTE   W48
 BYTE   N07
 BYTE   W16
 BYTE   N07
 BYTE   W08
 BYTE   PEND 
// 053   ----------------------------------------
Label_5_018781F0:
 BYTE   N44  Cs2  v080
 BYTE   W48
 BYTE   N23  Dn2
 BYTE   W24
 BYTE   En2
 BYTE   W24
 BYTE   PEND 
 BYTE   PATT
  POIN2 Label_5_018781E3
// 054   ----------------------------------------
Label_5_018781FF:
 BYTE   N44  Cs2  v080
 BYTE   W48
 BYTE   N23  En2
 BYTE   W24
 BYTE   Dn2
 BYTE   W24
 BYTE   PEND 
// 055   ----------------------------------------
Label_5_01878209:
 BYTE   N07  Cs2  v080
 BYTE   W08
 BYTE   N07
 BYTE   W08
 BYTE   N07
 BYTE   W08
 BYTE   N44
 BYTE   W48
 BYTE   N07
 BYTE   W08
 BYTE   N07
 BYTE   W08
 BYTE   N07
 BYTE   W08
 BYTE   PEND 
 BYTE   PATT
  POIN2 Label_5_018781F0
 BYTE   PATT
  POIN2 Label_5_01878209
 BYTE   PATT
  POIN2 Label_5_018781FF
// 056   ----------------------------------------
 BYTE   W96
// 057   ----------------------------------------
 BYTE   W96
// 058   ----------------------------------------
 BYTE   W96
// 059   ----------------------------------------
 BYTE   W96
// 060   ----------------------------------------
 BYTE   W96
// 061   ----------------------------------------
 BYTE   W96
// 062   ----------------------------------------
 BYTE   W96
// 063   ----------------------------------------
 BYTE   W96
// 064   ----------------------------------------
 BYTE   W96
// 065   ----------------------------------------
 BYTE   W96
// 066   ----------------------------------------
 BYTE   W96
// 067   ----------------------------------------
 BYTE   W96
// 068   ----------------------------------------
 BYTE   W96
// 069   ----------------------------------------
 BYTE   W96
// 070   ----------------------------------------
 BYTE   W96
// 071   ----------------------------------------
 BYTE   W96
// 072   ----------------------------------------
 BYTE   W96
// 073   ----------------------------------------
 BYTE   W96
// 074   ----------------------------------------
 BYTE   W96
// 075   ----------------------------------------
 BYTE   W96
// 076   ----------------------------------------
 BYTE   W96
// 077   ----------------------------------------
 BYTE   W96
// 078   ----------------------------------------
 BYTE   W96
// 079   ----------------------------------------
 BYTE   W96
// 080   ----------------------------------------
 BYTE   W96
// 081   ----------------------------------------
 BYTE   W96
// 082   ----------------------------------------
 BYTE   W96
// 083   ----------------------------------------
 BYTE   W96
// 084   ----------------------------------------
 BYTE   W96
// 085   ----------------------------------------
 BYTE   W96
// 086   ----------------------------------------
 BYTE   W96
// 087   ----------------------------------------
 BYTE   W96
// 088   ----------------------------------------
 BYTE   W96
// 089   ----------------------------------------
 BYTE   W96
// 090   ----------------------------------------
 BYTE   W96
// 091   ----------------------------------------
 BYTE   W96
// 092   ----------------------------------------
 BYTE   W96
// 093   ----------------------------------------
 BYTE   W96
// 094   ----------------------------------------
 BYTE   W96
// 095   ----------------------------------------
 BYTE   W96
// 096   ----------------------------------------
 BYTE   N92  Dn2  v080
 BYTE   W96
// 097   ----------------------------------------
 BYTE   N92
 BYTE   W96
// 098   ----------------------------------------
 BYTE   Cn2
 BYTE   W96
// 099   ----------------------------------------
 BYTE   N92
 BYTE   W96
// 100   ----------------------------------------
 BYTE   As1
 BYTE   W96
// 101   ----------------------------------------
 BYTE   N92
 BYTE   W96
// 102   ----------------------------------------
 BYTE   Bn1
 BYTE   W96
// 103   ----------------------------------------
 BYTE   N92
 BYTE   W96
// 104   ----------------------------------------
 BYTE   Gn1
 BYTE   W96
// 105   ----------------------------------------
 BYTE   N92
 BYTE   W96
// 106   ----------------------------------------
 BYTE   An1
 BYTE   W96
// 107   ----------------------------------------
 BYTE   N92
 BYTE   W96
// 108   ----------------------------------------
 BYTE   As1
 BYTE   W96
// 109   ----------------------------------------
 BYTE   N92
 BYTE   W96
// 110   ----------------------------------------
 BYTE   Cn2
 BYTE   W96
// 111   ----------------------------------------
 BYTE   N44
 BYTE   W48
 BYTE   N23
 BYTE   W24
 BYTE   N23
 BYTE   W24
// 112   ----------------------------------------
 BYTE   N92  Dn2
 BYTE   W96
// 113   ----------------------------------------
 BYTE   W96
// 114   ----------------------------------------
 BYTE   W96
// 115   ----------------------------------------
 BYTE   W96
// 116   ----------------------------------------
 BYTE   W96
// 117   ----------------------------------------
 BYTE   W96
// 118   ----------------------------------------
 BYTE   W96
// 119   ----------------------------------------
 BYTE   W96
// 120   ----------------------------------------
 BYTE   W96
// 121   ----------------------------------------
 BYTE   W96
// 122   ----------------------------------------
 BYTE   W96
// 123   ----------------------------------------
 BYTE   W96
// 124   ----------------------------------------
 BYTE   W96
// 125   ----------------------------------------
 BYTE   W96
// 126   ----------------------------------------
 BYTE   W96
// 127   ----------------------------------------
 BYTE   W96
// 128   ----------------------------------------
 BYTE   W96
// 129   ----------------------------------------
 BYTE   W96
// 130   ----------------------------------------
 BYTE   W96
// 131   ----------------------------------------
 BYTE   W96
// 132   ----------------------------------------
 BYTE   W96
// 133   ----------------------------------------
 BYTE   W96
// 134   ----------------------------------------
 BYTE   W96
// 135   ----------------------------------------
 BYTE   W96
// 136   ----------------------------------------
 BYTE   W96
// 137   ----------------------------------------
 BYTE   W96
// 138   ----------------------------------------
 BYTE   W96
// 139   ----------------------------------------
 BYTE   W96
// 140   ----------------------------------------
 BYTE   W96
// 141   ----------------------------------------
 BYTE   W96
// 142   ----------------------------------------
 BYTE   W96
// 143   ----------------------------------------
 BYTE   W96
// 144   ----------------------------------------
 BYTE   W96
// 145   ----------------------------------------
 BYTE   W96
// 146   ----------------------------------------
 BYTE   W96
// 147   ----------------------------------------
 BYTE   W96
// 148   ----------------------------------------
 BYTE   W96
// 149   ----------------------------------------
 BYTE   W96
// 150   ----------------------------------------
 BYTE   W96
// 151   ----------------------------------------
 BYTE   W96
// 152   ----------------------------------------
 BYTE   W96
// 153   ----------------------------------------
 BYTE   W96
// 154   ----------------------------------------
 BYTE   W96
// 155   ----------------------------------------
 BYTE   W96
// 156   ----------------------------------------
 BYTE   W96
// 157   ----------------------------------------
 BYTE   GoTo
  POIN2 Label_5_018781A3
 BYTE   FINE

//**************** Track 7 (Midi-Chn.6) ****************//

song07_007:
// 000   ----------------------------------------
 BYTE   KEYSH   song07_key+0
 BYTE   VOICE   48
 BYTE   VOL   62*song07_mvl/mxv
 BYTE   PAN   c_v+14
 BYTE   VOL   62*song07_mvl/mxv
 BYTE   PAN   c_v+0
 BYTE   VOL   62*song07_mvl/mxv
 BYTE   PAN   c_v-21
 BYTE   N16  Fs1  v096
 BYTE   W03
 BYTE   W01
 BYTE   W01
 BYTE   W90
 BYTE   W01
// 001   ----------------------------------------
 BYTE   W72
 BYTE   N16
 BYTE   W03
 BYTE   W01
 BYTE   W01
 BYTE   W19
// 002   ----------------------------------------
 BYTE   Gn1
 BYTE   W03
 BYTE   W01
 BYTE   W01
 BYTE   W90
 BYTE   W01
// 003   ----------------------------------------
 BYTE   W72
 BYTE   N16
 BYTE   W03
 BYTE   W01
 BYTE   W01
 BYTE   W19
// 004   ----------------------------------------
 BYTE   An1
 BYTE   W03
 BYTE   W01
 BYTE   W01
 BYTE   W90
 BYTE   W01
// 005   ----------------------------------------
 BYTE   W72
 BYTE   N16
 BYTE   W03
 BYTE   W01
 BYTE   W01
 BYTE   W19
// 006   ----------------------------------------
 BYTE   TIE  Bn1  v080
 BYTE   W96
// 007   ----------------------------------------
 BYTE   W96
// 008   ----------------------------------------
 BYTE   W12
 BYTE   W06
 BYTE   W06
 BYTE   W06
 BYTE   W06
 BYTE   W07
 BYTE   W06
 BYTE   W06
 BYTE   W06
 BYTE   W06
 BYTE   W06
 BYTE   W06
 BYTE   W07
 BYTE   W06
 BYTE   W04
// 009   ----------------------------------------
 BYTE   W02
 BYTE   W06
 BYTE   W06
 BYTE   W06
 BYTE   W07
 BYTE   W06
 BYTE   W06
 BYTE   W06
 BYTE   W06
 BYTE   W06
 BYTE   W06
 BYTE   W07
 BYTE   W06
 BYTE   W06
 BYTE   W06
 BYTE   W06
 BYTE   W01
 BYTE   EOT
 BYTE   W01
// 010   ----------------------------------------
 BYTE   W96
// 011   ----------------------------------------
 BYTE   W96
// 012   ----------------------------------------
Label_6_0187830B:
 BYTE   N23  Fs1  v080
 BYTE   W24
 BYTE   N07
 BYTE   W08
 BYTE   Gs1
 BYTE   W08
 BYTE   An1
 BYTE   W08
 BYTE   N15  Cs2
 BYTE   W16
 BYTE   An1
 BYTE   W16
 BYTE   Fs1
 BYTE   W16
 BYTE   PEND 
// 013   ----------------------------------------
Label_6_0187831D:
 BYTE   N07  Dn1  v080
 BYTE   W08
 BYTE   N07
 BYTE   W08
 BYTE   Fs1
 BYTE   W08
 BYTE   N23  En1
 BYTE   W24
 BYTE   N07  Fn1
 BYTE   W08
 BYTE   N07
 BYTE   W08
 BYTE   N30
 BYTE   W32
 BYTE   PEND 
 BYTE   PATT
  POIN2 Label_6_0187830B
 BYTE   PATT
  POIN2 Label_6_0187831D
// 014   ----------------------------------------
Label_6_0187833A:
 BYTE   PATT
  POIN2 Label_6_0187830B
 BYTE   PATT
  POIN2 Label_6_0187831D
 BYTE   PATT
  POIN2 Label_6_0187830B
 BYTE   PATT
  POIN2 Label_6_0187831D
// 015   ----------------------------------------
 BYTE   W96
// 016   ----------------------------------------
 BYTE   W96
// 017   ----------------------------------------
 BYTE   N92  En1  v080
 BYTE   W96
// 018   ----------------------------------------
 BYTE   Dn1
 BYTE   W96
// 019   ----------------------------------------
 BYTE   Cs1
 BYTE   W96
// 020   ----------------------------------------
 BYTE   Bn0
 BYTE   W96
// 021   ----------------------------------------
 BYTE   Gs0
 BYTE   W96
// 022   ----------------------------------------
 BYTE   Cs1
 BYTE   W96
// 023   ----------------------------------------
 BYTE   Bn0
 BYTE   W96
// 024   ----------------------------------------
 BYTE   Gs0
 BYTE   W96
// 025   ----------------------------------------
 BYTE   Fs0
 BYTE   W96
// 026   ----------------------------------------
 BYTE   En0
 BYTE   W96
// 027   ----------------------------------------
 BYTE   Ds1
 BYTE   W96
// 028   ----------------------------------------
 BYTE   Gs0
 BYTE   W96
// 029   ----------------------------------------
 BYTE   Dn1
 BYTE   W96
// 030   ----------------------------------------
 BYTE   Cs1
 BYTE   W96
// 031   ----------------------------------------
 BYTE   N23
 BYTE   W48
 BYTE   N05
 BYTE   W16
 BYTE   N05
 BYTE   W16
 BYTE   N05
 BYTE   W16
// 032   ----------------------------------------
 BYTE   N07  Fs0
 BYTE   W96
// 033   ----------------------------------------
 BYTE   W96
// 034   ----------------------------------------
 BYTE   N92  En1
 BYTE   W96
// 035   ----------------------------------------
 BYTE   Dn1
 BYTE   W96
// 036   ----------------------------------------
 BYTE   Cs1
 BYTE   W96
// 037   ----------------------------------------
 BYTE   Bn0
 BYTE   W96
// 038   ----------------------------------------
 BYTE   Gs0
 BYTE   W96
// 039   ----------------------------------------
 BYTE   N44  Cs1
 BYTE   W48
 BYTE   Fn1
 BYTE   W48
// 040   ----------------------------------------
 BYTE   N92  Fs1
 BYTE   W96
// 041   ----------------------------------------
 BYTE   N44  En1
 BYTE   W48
 BYTE   Gs1
 BYTE   W48
// 042   ----------------------------------------
 BYTE   Cs1
 BYTE   W48
 BYTE   Bn0
 BYTE   W48
// 043   ----------------------------------------
 BYTE   As0
 BYTE   W48
 BYTE   Fs0
 BYTE   W48
// 044   ----------------------------------------
 BYTE   TIE  Bn0
 BYTE   W96
// 045   ----------------------------------------
 BYTE   W92
 BYTE   W03
 BYTE   EOT
 BYTE   W01
// 046   ----------------------------------------
 BYTE   TIE  An0
 BYTE   W96
// 047   ----------------------------------------
 BYTE   W92
 BYTE   W03
 BYTE   EOT
 BYTE   W01
// 048   ----------------------------------------
 BYTE   TIE  Gn0
 BYTE   W96
// 049   ----------------------------------------
 BYTE   W96
// 050   ----------------------------------------
 BYTE   W96
// 051   ----------------------------------------
 BYTE   W92
 BYTE   W03
 BYTE   EOT
 BYTE   W01
// 052   ----------------------------------------
 BYTE   W96
// 053   ----------------------------------------
 BYTE   W96
// 054   ----------------------------------------
 BYTE   W96
// 055   ----------------------------------------
 BYTE   W96
// 056   ----------------------------------------
Label_6_018783B5:
 BYTE   N07  Cs1  v080
 BYTE   W16
 BYTE   N07
 BYTE   W08
 BYTE   N11
 BYTE   W48
 BYTE   N07
 BYTE   W16
 BYTE   N07
 BYTE   W08
 BYTE   PEND 
// 057   ----------------------------------------
 BYTE   N11
 BYTE   W48
 BYTE   N23  Dn1
 BYTE   W24
 BYTE   En1
 BYTE   W24
 BYTE   PATT
  POIN2 Label_6_018783B5
// 058   ----------------------------------------
 BYTE   N11  Cs1  v080
 BYTE   W48
 BYTE   N23  En1
 BYTE   W24
 BYTE   Dn1
 BYTE   W24
// 059   ----------------------------------------
 BYTE   N32  Fs0
 BYTE   W96
// 060   ----------------------------------------
 BYTE   W96
// 061   ----------------------------------------
 BYTE   W24
 BYTE   N68  Bn0
 BYTE   W72
// 062   ----------------------------------------
 BYTE   N92  An0
 BYTE   W96
// 063   ----------------------------------------
 BYTE   Gn0
 BYTE   W96
// 064   ----------------------------------------
 BYTE   Cs0
 BYTE   W96
// 065   ----------------------------------------
 BYTE   Fs0
 BYTE   W96
// 066   ----------------------------------------
 BYTE   En0
 BYTE   W96
// 067   ----------------------------------------
 BYTE   W96
// 068   ----------------------------------------
 BYTE   W96
// 069   ----------------------------------------
 BYTE   W96
// 070   ----------------------------------------
 BYTE   W96
// 071   ----------------------------------------
 BYTE   W96
// 072   ----------------------------------------
 BYTE   W96
// 073   ----------------------------------------
 BYTE   W96
// 074   ----------------------------------------
 BYTE   W96
// 075   ----------------------------------------
 BYTE   W96
// 076   ----------------------------------------
 BYTE   W96
// 077   ----------------------------------------
 BYTE   W96
// 078   ----------------------------------------
 BYTE   W96
// 079   ----------------------------------------
 BYTE   W96
// 080   ----------------------------------------
 BYTE   W96
// 081   ----------------------------------------
 BYTE   W96
// 082   ----------------------------------------
 BYTE   W96
// 083   ----------------------------------------
 BYTE   W96
// 084   ----------------------------------------
 BYTE   W96
// 085   ----------------------------------------
 BYTE   W96
// 086   ----------------------------------------
 BYTE   W96
// 087   ----------------------------------------
 BYTE   W96
// 088   ----------------------------------------
 BYTE   W96
// 089   ----------------------------------------
 BYTE   W96
// 090   ----------------------------------------
 BYTE   W96
// 091   ----------------------------------------
 BYTE   W96
// 092   ----------------------------------------
 BYTE   W96
// 093   ----------------------------------------
 BYTE   W96
// 094   ----------------------------------------
 BYTE   W96
// 095   ----------------------------------------
 BYTE   W96
// 096   ----------------------------------------
 BYTE   W96
// 097   ----------------------------------------
 BYTE   W96
// 098   ----------------------------------------
 BYTE   W96
// 099   ----------------------------------------
 BYTE   W96
// 100   ----------------------------------------
 BYTE   W96
// 101   ----------------------------------------
 BYTE   W96
// 102   ----------------------------------------
 BYTE   W96
// 103   ----------------------------------------
 BYTE   W96
// 104   ----------------------------------------
 BYTE   W96
// 105   ----------------------------------------
 BYTE   W96
// 106   ----------------------------------------
 BYTE   W96
// 107   ----------------------------------------
 BYTE   W96
// 108   ----------------------------------------
 BYTE   W96
// 109   ----------------------------------------
 BYTE   W96
// 110   ----------------------------------------
 BYTE   W96
// 111   ----------------------------------------
 BYTE   W96
// 112   ----------------------------------------
 BYTE   W96
// 113   ----------------------------------------
 BYTE   W96
// 114   ----------------------------------------
 BYTE   W96
// 115   ----------------------------------------
 BYTE   W96
// 116   ----------------------------------------
 BYTE   W96
// 117   ----------------------------------------
 BYTE   W96
// 118   ----------------------------------------
 BYTE   W96
// 119   ----------------------------------------
 BYTE   W96
// 120   ----------------------------------------
 BYTE   W96
// 121   ----------------------------------------
 BYTE   W96
// 122   ----------------------------------------
 BYTE   W96
// 123   ----------------------------------------
 BYTE   W96
// 124   ----------------------------------------
 BYTE   W96
// 125   ----------------------------------------
 BYTE   W96
// 126   ----------------------------------------
 BYTE   W96
// 127   ----------------------------------------
 BYTE   W96
// 128   ----------------------------------------
 BYTE   W96
// 129   ----------------------------------------
 BYTE   W96
// 130   ----------------------------------------
 BYTE   W96
// 131   ----------------------------------------
 BYTE   W96
// 132   ----------------------------------------
 BYTE   W96
// 133   ----------------------------------------
 BYTE   W96
// 134   ----------------------------------------
 BYTE   W96
// 135   ----------------------------------------
 BYTE   W96
// 136   ----------------------------------------
 BYTE   W96
// 137   ----------------------------------------
 BYTE   W96
// 138   ----------------------------------------
 BYTE   W96
// 139   ----------------------------------------
 BYTE   W96
// 140   ----------------------------------------
 BYTE   W96
// 141   ----------------------------------------
 BYTE   W96
// 142   ----------------------------------------
 BYTE   W96
// 143   ----------------------------------------
 BYTE   W96
// 144   ----------------------------------------
 BYTE   W96
// 145   ----------------------------------------
 BYTE   W96
// 146   ----------------------------------------
 BYTE   W96
// 147   ----------------------------------------
 BYTE   W96
// 148   ----------------------------------------
 BYTE   W96
// 149   ----------------------------------------
 BYTE   W96
// 150   ----------------------------------------
 BYTE   W96
// 151   ----------------------------------------
 BYTE   W96
// 152   ----------------------------------------
 BYTE   W96
// 153   ----------------------------------------
 BYTE   W96
// 154   ----------------------------------------
 BYTE   W96
// 155   ----------------------------------------
 BYTE   W96
// 156   ----------------------------------------
 BYTE   W96
// 157   ----------------------------------------
 BYTE   W96
// 158   ----------------------------------------
 BYTE   W96
// 159   ----------------------------------------
 BYTE   W96
// 160   ----------------------------------------
 BYTE   GoTo
  POIN2 Label_6_0187833A
 BYTE   FINE

//**************** Track 8 (Midi-Chn.7) ****************//

song07_008:
// 000   ----------------------------------------
 BYTE   KEYSH   song07_key+0
 BYTE   VOICE   48
 BYTE   VOL   62*song07_mvl/mxv
 BYTE   PAN   c_v-15
 BYTE   VOL   62*song07_mvl/mxv
 BYTE   PAN   c_v-21
 BYTE   VOL   62*song07_mvl/mxv
 BYTE   PAN   c_v-21
 BYTE   W96
// 001   ----------------------------------------
 BYTE   W96
// 002   ----------------------------------------
 BYTE   W96
// 003   ----------------------------------------
 BYTE   W96
// 004   ----------------------------------------
 BYTE   W96
// 005   ----------------------------------------
 BYTE   W96
// 006   ----------------------------------------
 BYTE   W96
// 007   ----------------------------------------
 BYTE   W96
// 008   ----------------------------------------
 BYTE   W96
// 009   ----------------------------------------
 BYTE   W96
// 010   ----------------------------------------
 BYTE   W96
// 011   ----------------------------------------
 BYTE   W96
// 012   ----------------------------------------
 BYTE   W96
// 013   ----------------------------------------
 BYTE   W96
// 014   ----------------------------------------
 BYTE   W96
// 015   ----------------------------------------
 BYTE   W96
// 016   ----------------------------------------
Label_7_01878470:
 BYTE   W96
// 017   ----------------------------------------
 BYTE   W96
// 018   ----------------------------------------
 BYTE   W96
// 019   ----------------------------------------
 BYTE   W96
// 020   ----------------------------------------
 BYTE   W96
// 021   ----------------------------------------
 BYTE   W96
// 022   ----------------------------------------
 BYTE   W96
// 023   ----------------------------------------
 BYTE   W96
// 024   ----------------------------------------
 BYTE   W96
// 025   ----------------------------------------
 BYTE   W96
// 026   ----------------------------------------
 BYTE   W96
// 027   ----------------------------------------
 BYTE   W96
// 028   ----------------------------------------
 BYTE   W96
// 029   ----------------------------------------
 BYTE   W96
// 030   ----------------------------------------
 BYTE   W96
// 031   ----------------------------------------
 BYTE   W96
// 032   ----------------------------------------
 BYTE   W96
// 033   ----------------------------------------
 BYTE   W96
// 034   ----------------------------------------
 BYTE   W96
// 035   ----------------------------------------
 BYTE   W96
// 036   ----------------------------------------
 BYTE   W96
// 037   ----------------------------------------
 BYTE   W96
// 038   ----------------------------------------
 BYTE   W96
// 039   ----------------------------------------
 BYTE   W96
// 040   ----------------------------------------
 BYTE   W96
// 041   ----------------------------------------
 BYTE   W96
// 042   ----------------------------------------
 BYTE   W96
// 043   ----------------------------------------
 BYTE   W96
// 044   ----------------------------------------
 BYTE   W96
// 045   ----------------------------------------
 BYTE   W96
// 046   ----------------------------------------
 BYTE   W96
// 047   ----------------------------------------
 BYTE   W96
// 048   ----------------------------------------
 BYTE   W96
// 049   ----------------------------------------
 BYTE   W96
// 050   ----------------------------------------
 BYTE   W96
// 051   ----------------------------------------
 BYTE   W96
// 052   ----------------------------------------
 BYTE   W96
// 053   ----------------------------------------
 BYTE   W96
// 054   ----------------------------------------
 BYTE   W96
// 055   ----------------------------------------
 BYTE   W96
// 056   ----------------------------------------
 BYTE   W96
// 057   ----------------------------------------
 BYTE   W96
// 058   ----------------------------------------
 BYTE   W96
// 059   ----------------------------------------
 BYTE   W96
// 060   ----------------------------------------
 BYTE   W96
// 061   ----------------------------------------
 BYTE   W96
// 062   ----------------------------------------
 BYTE   W96
// 063   ----------------------------------------
 BYTE   W96
// 064   ----------------------------------------
 BYTE   W96
// 065   ----------------------------------------
 BYTE   W96
// 066   ----------------------------------------
 BYTE   W96
// 067   ----------------------------------------
 BYTE   W96
// 068   ----------------------------------------
 BYTE   W96
// 069   ----------------------------------------
 BYTE   W96
// 070   ----------------------------------------
 BYTE   W96
// 071   ----------------------------------------
 BYTE   W96
// 072   ----------------------------------------
 BYTE   W96
// 073   ----------------------------------------
Label_7_018784A9:
 BYTE   N07  As2  v096
 BYTE   W08
 BYTE   Bn2
 BYTE   W08
 BYTE   As2
 BYTE   W08
 BYTE   Bn2
 BYTE   W08
 BYTE   As2
 BYTE   W08
 BYTE   Bn2
 BYTE   W08
 BYTE   As2
 BYTE   W08
 BYTE   Bn2
 BYTE   W08
 BYTE   As2
 BYTE   W08
 BYTE   Bn2
 BYTE   W08
 BYTE   As2
 BYTE   W08
 BYTE   Bn2
 BYTE   W08
 BYTE   PEND 
 BYTE   PATT
  POIN2 Label_7_018784A9
// 074   ----------------------------------------
Label_7_018784C9:
 BYTE   N07  An2  v096
 BYTE   W08
 BYTE   Bn2
 BYTE   W08
 BYTE   An2
 BYTE   W08
 BYTE   Bn2
 BYTE   W08
 BYTE   An2
 BYTE   W08
 BYTE   Bn2
 BYTE   W08
 BYTE   An2
 BYTE   W08
 BYTE   Bn2
 BYTE   W08
 BYTE   An2
 BYTE   W08
 BYTE   Bn2
 BYTE   W08
 BYTE   An2
 BYTE   W08
 BYTE   Bn2
 BYTE   W08
 BYTE   PEND 
 BYTE   PATT
  POIN2 Label_7_018784C9
 BYTE   PATT
  POIN2 Label_7_018784A9
 BYTE   PATT
  POIN2 Label_7_018784A9
 BYTE   PATT
  POIN2 Label_7_018784C9
 BYTE   PATT
  POIN2 Label_7_018784C9
// 075   ----------------------------------------
Label_7_018784FD:
 BYTE   N07  Gs2  v096
 BYTE   W08
 BYTE   An2
 BYTE   W08
 BYTE   Gs2
 BYTE   W08
 BYTE   An2
 BYTE   W08
 BYTE   Gs2
 BYTE   W08
 BYTE   An2
 BYTE   W08
 BYTE   Gs2
 BYTE   W08
 BYTE   An2
 BYTE   W08
 BYTE   Gs2
 BYTE   W08
 BYTE   An2
 BYTE   W08
 BYTE   Gs2
 BYTE   W08
 BYTE   An2
 BYTE   W08
 BYTE   PEND 
 BYTE   PATT
  POIN2 Label_7_018784FD
// 076   ----------------------------------------
Label_7_0187851D:
 BYTE   N07  Gn2  v096
 BYTE   W08
 BYTE   An2
 BYTE   W08
 BYTE   Gn2
 BYTE   W08
 BYTE   An2
 BYTE   W08
 BYTE   Gn2
 BYTE   W08
 BYTE   An2
 BYTE   W08
 BYTE   Gn2
 BYTE   W08
 BYTE   An2
 BYTE   W08
 BYTE   Gn2
 BYTE   W08
 BYTE   An2
 BYTE   W08
 BYTE   Gn2
 BYTE   W08
 BYTE   An2
 BYTE   W08
 BYTE   PEND 
 BYTE   PATT
  POIN2 Label_7_0187851D
 BYTE   PATT
  POIN2 Label_7_018784FD
 BYTE   PATT
  POIN2 Label_7_018784FD
 BYTE   PATT
  POIN2 Label_7_0187851D
 BYTE   PATT
  POIN2 Label_7_0187851D
// 077   ----------------------------------------
 BYTE   W96
// 078   ----------------------------------------
 BYTE   W96
// 079   ----------------------------------------
 BYTE   W96
// 080   ----------------------------------------
 BYTE   W96
// 081   ----------------------------------------
 BYTE   W96
// 082   ----------------------------------------
 BYTE   W96
// 083   ----------------------------------------
 BYTE   W96
// 084   ----------------------------------------
 BYTE   W96
// 085   ----------------------------------------
Label_7_01878559:
 BYTE   N44  Dn1  v080
 BYTE   W48
 BYTE   En1
 BYTE   W48
 BYTE   PEND 
// 086   ----------------------------------------
Label_7_01878560:
 BYTE   N44  Fn1  v080
 BYTE   W48
 BYTE   Fs1
 BYTE   W48
 BYTE   PEND 
// 087   ----------------------------------------
Label_7_01878567:
 BYTE   N44  Gn1  v080
 BYTE   W48
 BYTE   Gs1
 BYTE   W48
 BYTE   PEND 
// 088   ----------------------------------------
Label_7_0187856E:
 BYTE   N44  An1  v080
 BYTE   W48
 BYTE   N44
 BYTE   W48
 BYTE   PEND 
 BYTE   PATT
  POIN2 Label_7_01878559
 BYTE   PATT
  POIN2 Label_7_01878560
 BYTE   PATT
  POIN2 Label_7_01878567
 BYTE   PATT
  POIN2 Label_7_0187856E
// 089   ----------------------------------------
 BYTE   TIE  As0  v080
 BYTE   W96
// 090   ----------------------------------------
 BYTE   W92
 BYTE   W03
 BYTE   EOT
 BYTE   W01
// 091   ----------------------------------------
 BYTE   TIE  Cn1
 BYTE   W96
// 092   ----------------------------------------
 BYTE   W92
 BYTE   W03
 BYTE   EOT
 BYTE   W01
// 093   ----------------------------------------
 BYTE   N92  Dn1
 BYTE   W96
// 094   ----------------------------------------
 BYTE   Cn1
 BYTE   W96
// 095   ----------------------------------------
 BYTE   TIE  Bn0
 BYTE   W96
// 096   ----------------------------------------
 BYTE   W92
 BYTE   W03
 BYTE   EOT
 BYTE   W01
// 097   ----------------------------------------
 BYTE   TIE  Gn0
 BYTE   W96
// 098   ----------------------------------------
 BYTE   W92
 BYTE   W03
 BYTE   EOT
 BYTE   W01
// 099   ----------------------------------------
 BYTE   TIE  An0
 BYTE   W96
// 100   ----------------------------------------
 BYTE   W92
 BYTE   W03
 BYTE   EOT
 BYTE   W01
// 101   ----------------------------------------
 BYTE   TIE  As0
 BYTE   W96
// 102   ----------------------------------------
 BYTE   W92
 BYTE   W03
 BYTE   EOT
 BYTE   W01
// 103   ----------------------------------------
 BYTE   TIE  Cn1
 BYTE   W96
// 104   ----------------------------------------
 BYTE   W92
 BYTE   W03
 BYTE   EOT
 BYTE   W01
// 105   ----------------------------------------
 BYTE   W96
// 106   ----------------------------------------
 BYTE   W96
// 107   ----------------------------------------
 BYTE   W96
// 108   ----------------------------------------
 BYTE   W96
// 109   ----------------------------------------
 BYTE   W96
// 110   ----------------------------------------
 BYTE   W96
// 111   ----------------------------------------
 BYTE   W96
// 112   ----------------------------------------
 BYTE   W96
// 113   ----------------------------------------
 BYTE   TIE  Ds1
 BYTE   W96
// 114   ----------------------------------------
 BYTE   W96
// 115   ----------------------------------------
 BYTE   W96
// 116   ----------------------------------------
 BYTE   W96
// 117   ----------------------------------------
 BYTE   W96
// 118   ----------------------------------------
 BYTE   W96
// 119   ----------------------------------------
 BYTE   W96
// 120   ----------------------------------------
 BYTE   W60
 BYTE   W03
 BYTE   EOT
 BYTE   W01
 BYTE   N15  En1
 BYTE   W16
 BYTE   Fn1
 BYTE   W16
// 121   ----------------------------------------
 BYTE   TIE  Fs1
 BYTE   W96
// 122   ----------------------------------------
 BYTE   W68
 BYTE   W03
 BYTE   EOT
 BYTE   W01
 BYTE   N15  Cs1
 BYTE   W16
 BYTE   N30  En1
 BYTE   W08
// 123   ----------------------------------------
Label_7_018785E7:
 BYTE   W24
 BYTE   TIE  Fs1  v080
 BYTE   W72
 BYTE   PEND 
// 124   ----------------------------------------
 BYTE   W56
 BYTE   W03
 BYTE   EOT
 BYTE   W01
 BYTE   N07  Bn0
 BYTE   W08
 BYTE   Cs1
 BYTE   W08
 BYTE   N42  En1
 BYTE   W20
 BYTE   PATT
  POIN2 Label_7_018785E7
// 125   ----------------------------------------
 BYTE   W68
 BYTE   W03
 BYTE   EOT
 BYTE   Fs1
 BYTE   W01
 BYTE   N15  Cs1  v080
 BYTE   W16
 BYTE   N30  En1
 BYTE   W08
 BYTE   PATT
  POIN2 Label_7_018785E7
// 126   ----------------------------------------
 BYTE   W56
 BYTE   W03
 BYTE   EOT
 BYTE   Fs1
 BYTE   W01
 BYTE   N15  Cs1  v080
 BYTE   W16
 BYTE   N19  En1
 BYTE   W20
// 127   ----------------------------------------
 BYTE   W96
// 128   ----------------------------------------
 BYTE   W96
// 129   ----------------------------------------
 BYTE   W96
// 130   ----------------------------------------
 BYTE   W96
// 131   ----------------------------------------
 BYTE   N92  Bn0
 BYTE   W96
// 132   ----------------------------------------
 BYTE   Cs1
 BYTE   W96
// 133   ----------------------------------------
 BYTE   Dn1
 BYTE   W96
// 134   ----------------------------------------
 BYTE   En1
 BYTE   W96
// 135   ----------------------------------------
 BYTE   Bn0
 BYTE   W96
// 136   ----------------------------------------
 BYTE   Cs1
 BYTE   W96
// 137   ----------------------------------------
 BYTE   Dn1
 BYTE   W96
// 138   ----------------------------------------
 BYTE   En1
 BYTE   W96
// 139   ----------------------------------------
 BYTE   W96
// 140   ----------------------------------------
 BYTE   TIE  Fs0
 BYTE   W96
// 141   ----------------------------------------
 BYTE   W92
 BYTE   W03
 BYTE   EOT
 BYTE   W01
// 142   ----------------------------------------
 BYTE   TIE
 BYTE   W96
// 143   ----------------------------------------
 BYTE   W92
 BYTE   W03
 BYTE   EOT
 BYTE   W01
// 144   ----------------------------------------
Label_7_0187863E:
 BYTE   N23  Fs1  v080
 BYTE   W24
 BYTE   N07
 BYTE   W08
 BYTE   Gs1
 BYTE   W08
 BYTE   An1
 BYTE   W08
 BYTE   N15  Cs2
 BYTE   W16
 BYTE   An1
 BYTE   W16
 BYTE   Fs1
 BYTE   W16
 BYTE   PEND 
// 145   ----------------------------------------
Label_7_01878650:
 BYTE   N07  Dn1  v080
 BYTE   W08
 BYTE   N07
 BYTE   W08
 BYTE   Fs1
 BYTE   W08
 BYTE   N23  En1
 BYTE   W24
 BYTE   N07  Fn1
 BYTE   W08
 BYTE   N07
 BYTE   W08
 BYTE   N30
 BYTE   W32
 BYTE   PEND 
 BYTE   PATT
  POIN2 Label_7_0187863E
 BYTE   PATT
  POIN2 Label_7_01878650
// 146   ----------------------------------------
 BYTE   GoTo
  POIN2 Label_7_01878470
 BYTE   FINE

//**************** Track 9 (Midi-Chn.8) ****************//

song07_009:
// 000   ----------------------------------------
 BYTE   KEYSH   song07_key+0
 BYTE   VOICE   127
 BYTE   VOL   62*song07_mvl/mxv
 BYTE   PAN   c_v+0
 BYTE   VOL   55*song07_mvl/mxv
 BYTE   PAN   c_v+0
 BYTE   VOL   62*song07_mvl/mxv
 BYTE   PAN   c_v+22
 BYTE   VOL   62*song07_mvl/mxv
 BYTE   PAN   c_v+0
 BYTE   VOL   50*song07_mvl/mxv
 BYTE   PAN   c_v+7
 BYTE   W96
// 001   ----------------------------------------
 BYTE   W96
// 002   ----------------------------------------
 BYTE   W96
// 003   ----------------------------------------
 BYTE   W96
// 004   ----------------------------------------
 BYTE   W96
// 005   ----------------------------------------
 BYTE   W96
// 006   ----------------------------------------
 BYTE   N16  Bn0  v120
 BYTE   N92  An2  v080
 BYTE   W16
 BYTE   N15  Bn0
 BYTE   W16
 BYTE   N15
 BYTE   W16
 BYTE   N15
 BYTE   W16
 BYTE   N15
 BYTE   W16
 BYTE   N15
 BYTE   W16
// 007   ----------------------------------------
 BYTE   N16  Bn0  v120
 BYTE   W16
 BYTE   N15  Bn0  v080
 BYTE   W16
 BYTE   N15
 BYTE   W16
 BYTE   N15
 BYTE   W16
 BYTE   N15
 BYTE   W16
 BYTE   N15
 BYTE   W16
// 008   ----------------------------------------
Label_8_018786B4:
 BYTE   N16  Bn0  v120
 BYTE   W16
 BYTE   N07  Bn0  v080
 BYTE   W08
 BYTE   N07
 BYTE   W08
 BYTE   N15
 BYTE   W16
 BYTE   N15
 BYTE   W16
 BYTE   N15
 BYTE   W16
 BYTE   N15
 BYTE   W16
 BYTE   PEND 
 BYTE   PATT
  POIN2 Label_8_018786B4
 BYTE   PATT
  POIN2 Label_8_018786B4
// 009   ----------------------------------------
 BYTE   N16  Bn0  v120
 BYTE   W16
 BYTE   N07  Bn0  v080
 BYTE   W08
 BYTE   N07
 BYTE   W08
 BYTE   N15
 BYTE   W16
 BYTE   N15
 BYTE   N02  An2  v064
 BYTE   W02
 BYTE   N02
 BYTE   W03
 BYTE   N02
 BYTE   W03
 BYTE   N02
 BYTE   W03
 BYTE   N02
 BYTE   W03
 BYTE   N02
 BYTE   W02
 BYTE   N15  Bn0  v080
 BYTE   W01
 BYTE   N02  An2  v064
 BYTE   W03
 BYTE   N02
 BYTE   W03
 BYTE   N02
 BYTE   W03
 BYTE   N02
 BYTE   W03
 BYTE   N02
 BYTE   W03
 BYTE   N15  Bn0  v080
 BYTE   N02  An2  v064
 BYTE   W03
 BYTE   N02
 BYTE   W03
 BYTE   N02
 BYTE   W03
 BYTE   N02
 BYTE   W03
 BYTE   N02
 BYTE   W04
 BYTE   PATT
  POIN2 Label_8_018786B4
 BYTE   PATT
  POIN2 Label_8_018786B4
 BYTE   PATT
  POIN2 Label_8_018786B4
 BYTE   PATT
  POIN2 Label_8_018786B4
// 010   ----------------------------------------
Label_8_0187871F:
 BYTE   PATT
  POIN2 Label_8_018786B4
// 011   ----------------------------------------
Label_8_01878724:
 BYTE   N16  Bn0  v120
 BYTE   W16
 BYTE   N07  Bn0  v080
 BYTE   W08
 BYTE   N07
 BYTE   N23  An2  v064
 BYTE   W08
 BYTE   N15  Bn0  v080
 BYTE   W16
 BYTE   N15
 BYTE   W16
 BYTE   N15
 BYTE   N30  An2  v064
 BYTE   W16
 BYTE   N15  Bn0  v080
 BYTE   W16
 BYTE   PEND 
 BYTE   PATT
  POIN2 Label_8_018786B4
 BYTE   PATT
  POIN2 Label_8_01878724
// 012   ----------------------------------------
 BYTE   W96
// 013   ----------------------------------------
 BYTE   W96
// 014   ----------------------------------------
Label_8_0187874D:
 BYTE   N16  Bn0  v127
 BYTE   N05  Dn1  v076
 BYTE   W16
 BYTE   N07  Bn0  v096
 BYTE   N07  Dn1  v064
 BYTE   W08
 BYTE   Bn0  v096
 BYTE   N05  Dn1  v076
 BYTE   W08
 BYTE   N15  Bn0  v096
 BYTE   N07  Dn1  v064
 BYTE   W08
 BYTE   N07
 BYTE   W08
 BYTE   N15  Bn0  v096
 BYTE   N05  Dn1  v076
 BYTE   W08
 BYTE   N07  Dn1  v064
 BYTE   W08
 BYTE   N15  Bn0  v096
 BYTE   N05  Dn1  v076
 BYTE   W08
 BYTE   N07  Dn1  v064
 BYTE   W08
 BYTE   N15  Bn0  v096
 BYTE   N05  Dn1  v076
 BYTE   W08
 BYTE   N07  Dn1  v064
 BYTE   W08
 BYTE   PEND 
 BYTE   PATT
  POIN2 Label_8_0187874D
 BYTE   PATT
  POIN2 Label_8_0187874D
 BYTE   PATT
  POIN2 Label_8_0187874D
 BYTE   PATT
  POIN2 Label_8_0187874D
 BYTE   PATT
  POIN2 Label_8_0187874D
 BYTE   PATT
  POIN2 Label_8_0187874D
 BYTE   PATT
  POIN2 Label_8_0187874D
 BYTE   PATT
  POIN2 Label_8_0187874D
 BYTE   PATT
  POIN2 Label_8_0187874D
 BYTE   PATT
  POIN2 Label_8_0187874D
 BYTE   PATT
  POIN2 Label_8_0187874D
 BYTE   PATT
  POIN2 Label_8_0187874D
 BYTE   PATT
  POIN2 Label_8_0187874D
// 015   ----------------------------------------
 BYTE   N23  Bn0  v096
 BYTE   W48
 BYTE   N15
 BYTE   N02  An2  v064
 BYTE   W02
 BYTE   N02
 BYTE   W03
 BYTE   N02
 BYTE   W03
 BYTE   N02
 BYTE   W03
 BYTE   N02
 BYTE   W03
 BYTE   N02
 BYTE   W02
 BYTE   N15  Bn0  v096
 BYTE   W01
 BYTE   N02  An2  v064
 BYTE   W03
 BYTE   N02
 BYTE   W03
 BYTE   N02
 BYTE   W03
 BYTE   N02
 BYTE   W03
 BYTE   N02
 BYTE   W03
 BYTE   N15  Bn0  v096
 BYTE   N02  An2  v064
 BYTE   W03
 BYTE   N02
 BYTE   W03
 BYTE   N02
 BYTE   W03
 BYTE   N02
 BYTE   W03
 BYTE   N02
 BYTE   W04
// 016   ----------------------------------------
 BYTE   N23  Bn0  v096
 BYTE   W96
// 017   ----------------------------------------
 BYTE   W96
// 018   ----------------------------------------
 BYTE   N16  Bn0  v127
 BYTE   N05  Dn1  v076
 BYTE   N92  An2  v064
 BYTE   W16
 BYTE   N07  Bn0  v096
 BYTE   N07  Dn1  v064
 BYTE   W08
 BYTE   Bn0  v096
 BYTE   N05  Dn1  v076
 BYTE   W08
 BYTE   N15  Bn0  v096
 BYTE   N07  Dn1  v064
 BYTE   W08
 BYTE   N07
 BYTE   W08
 BYTE   N15  Bn0  v096
 BYTE   N05  Dn1  v076
 BYTE   W08
 BYTE   N07  Dn1  v064
 BYTE   W08
 BYTE   N15  Bn0  v096
 BYTE   N05  Dn1  v076
 BYTE   W08
 BYTE   N07  Dn1  v064
 BYTE   W08
 BYTE   N15  Bn0  v096
 BYTE   N05  Dn1  v076
 BYTE   W08
 BYTE   N07  Dn1  v064
 BYTE   W08
 BYTE   PATT
  POIN2 Label_8_0187874D
 BYTE   PATT
  POIN2 Label_8_0187874D
 BYTE   PATT
  POIN2 Label_8_0187874D
 BYTE   PATT
  POIN2 Label_8_0187874D
 BYTE   PATT
  POIN2 Label_8_0187874D
 BYTE   PATT
  POIN2 Label_8_0187874D
 BYTE   PATT
  POIN2 Label_8_0187874D
 BYTE   PATT
  POIN2 Label_8_0187874D
 BYTE   PATT
  POIN2 Label_8_0187874D
// 019   ----------------------------------------
Label_8_01878872:
 BYTE   N16  Bn0  v127
 BYTE   N92  An2  v064
 BYTE   W16
 BYTE   N07  Bn0  v112
 BYTE   W08
 BYTE   N07
 BYTE   W08
 BYTE   N15
 BYTE   W16
 BYTE   N15
 BYTE   W16
 BYTE   N15
 BYTE   W16
 BYTE   N15
 BYTE   W16
 BYTE   PEND 
// 020   ----------------------------------------
Label_8_01878888:
 BYTE   N16  Bn0  v127
 BYTE   W16
 BYTE   N07  Bn0  v112
 BYTE   W08
 BYTE   N07
 BYTE   W08
 BYTE   N15
 BYTE   W16
 BYTE   N15
 BYTE   W16
 BYTE   N15
 BYTE   W16
 BYTE   N15
 BYTE   W16
 BYTE   PEND 
 BYTE   PATT
  POIN2 Label_8_01878888
 BYTE   PATT
  POIN2 Label_8_01878888
 BYTE   PATT
  POIN2 Label_8_01878872
 BYTE   PATT
  POIN2 Label_8_01878888
 BYTE   PATT
  POIN2 Label_8_01878888
 BYTE   PATT
  POIN2 Label_8_01878888
// 021   ----------------------------------------
Label_8_018788B9:
 BYTE   N07  Dn1  v064
 BYTE   W16
 BYTE   N07
 BYTE   W08
 BYTE   N11
 BYTE   N68  An2  v080
 BYTE   W48
 BYTE   N07  Dn1  v064
 BYTE   W16
 BYTE   N07
 BYTE   W08
 BYTE   PEND 
// 022   ----------------------------------------
 BYTE   N23
 BYTE   N92  An2  v080
 BYTE   W48
 BYTE   N07  Dn1  v064
 BYTE   W16
 BYTE   N07
 BYTE   W08
 BYTE   N07
 BYTE   W16
 BYTE   N07
 BYTE   W08
 BYTE   PATT
  POIN2 Label_8_018788B9
// 023   ----------------------------------------
 BYTE   N23  Dn1  v064
 BYTE   N92  An2  v080
 BYTE   W48
 BYTE   N07  Dn1  v064
 BYTE   W16
 BYTE   N07
 BYTE   W08
 BYTE   N07
 BYTE   W08
 BYTE   N07
 BYTE   W08
 BYTE   N07
 BYTE   W08
// 024   ----------------------------------------
Label_8_018788F2:
 BYTE   N07  Dn1  v064
 BYTE   W08
 BYTE   N07
 BYTE   W08
 BYTE   N07
 BYTE   W08
 BYTE   N11
 BYTE   N68  An2  v080
 BYTE   W48
 BYTE   N07  Dn1  v064
 BYTE   W08
 BYTE   N07
 BYTE   W08
 BYTE   N07
 BYTE   W08
 BYTE   PEND 
// 025   ----------------------------------------
Label_8_01878908:
 BYTE   N23  Dn1  v064
 BYTE   N92  An2  v080
 BYTE   W48
 BYTE   N07  Dn1  v064
 BYTE   W08
 BYTE   N07
 BYTE   W08
 BYTE   N07
 BYTE   W08
 BYTE   N07
 BYTE   W08
 BYTE   N07
 BYTE   W08
 BYTE   N07
 BYTE   W08
 BYTE   PEND 
 BYTE   PATT
  POIN2 Label_8_018788F2
 BYTE   PATT
  POIN2 Label_8_01878908
// 026   ----------------------------------------
 BYTE   N92  An2  v080
 BYTE   W96
// 027   ----------------------------------------
 BYTE   W96
// 028   ----------------------------------------
 BYTE   W16
 BYTE   N07  An2  v064
 BYTE   W08
 BYTE   N08  Bn0  v112
 BYTE   N68  An2  v064
 BYTE   W08
 BYTE   N15  Bn0  v112
 BYTE   W16
 BYTE   N15
 BYTE   W16
 BYTE   N15
 BYTE   W16
 BYTE   N15
 BYTE   W16
 BYTE   PATT
  POIN2 Label_8_01878888
 BYTE   PATT
  POIN2 Label_8_01878888
 BYTE   PATT
  POIN2 Label_8_01878888
 BYTE   PATT
  POIN2 Label_8_01878888
 BYTE   PATT
  POIN2 Label_8_01878888
// 029   ----------------------------------------
Label_8_0187895C:
 BYTE   N07  Ds2  v064
 BYTE   W16
 BYTE   N07
 BYTE   W16
 BYTE   N07
 BYTE   W08
 BYTE   N07
 BYTE   W08
 BYTE   N23
 BYTE   W24
 BYTE   N23
 BYTE   W24
 BYTE   PEND 
 BYTE   PATT
  POIN2 Label_8_0187895C
// 030   ----------------------------------------
Label_8_01878970:
 BYTE   N07  Ds2  v064
 BYTE   W16
 BYTE   N07
 BYTE   W16
 BYTE   N07
 BYTE   W08
 BYTE   N07
 BYTE   W08
 BYTE   N23
 BYTE   W24
 BYTE   N07
 BYTE   W16
 BYTE   Fn2
 BYTE   W08
 BYTE   PEND 
// 031   ----------------------------------------
Label_8_01878981:
 BYTE   N07  Ds2  v064
 BYTE   N07  Fn2
 BYTE   W16
 BYTE   Ds2
 BYTE   W16
 BYTE   N07
 BYTE   W08
 BYTE   N07
 BYTE   W08
 BYTE   N23
 BYTE   W24
 BYTE   N23
 BYTE   W08
 BYTE   N07  Bn0  v112
 BYTE   W08
 BYTE   N07
 BYTE   W08
 BYTE   PEND 
// 032   ----------------------------------------
Label_8_01878998:
 BYTE   N16  Bn0  v127
 BYTE   N07  Ds2  v064
 BYTE   W16
 BYTE   Bn0  v112
 BYTE   N07  Ds2  v064
 BYTE   W08
 BYTE   Bn0  v112
 BYTE   W08
 BYTE   N15
 BYTE   N07  Ds2  v064
 BYTE   W08
 BYTE   N07
 BYTE   W08
 BYTE   N15  Bn0  v112
 BYTE   N23  Ds2  v064
 BYTE   W16
 BYTE   N15  Bn0  v112
 BYTE   W08
 BYTE   N23  Ds2  v064
 BYTE   W08
 BYTE   N15  Bn0  v112
 BYTE   W16
 BYTE   PEND 
 BYTE   PATT
  POIN2 Label_8_01878998
 BYTE   PATT
  POIN2 Label_8_01878998
 BYTE   PATT
  POIN2 Label_8_01878998
 BYTE   PATT
  POIN2 Label_8_0187895C
 BYTE   PATT
  POIN2 Label_8_0187895C
 BYTE   PATT
  POIN2 Label_8_01878970
 BYTE   PATT
  POIN2 Label_8_01878981
 BYTE   PATT
  POIN2 Label_8_01878998
 BYTE   PATT
  POIN2 Label_8_01878998
 BYTE   PATT
  POIN2 Label_8_01878998
 BYTE   PATT
  POIN2 Label_8_01878998
// 033   ----------------------------------------
 BYTE   W96
// 034   ----------------------------------------
 BYTE   W96
// 035   ----------------------------------------
 BYTE   W96
// 036   ----------------------------------------
Label_8_018789FD:
 BYTE   W80
 BYTE   N07  Ds2  v064
 BYTE   W08
 BYTE   N07
 BYTE   W08
 BYTE   PEND 
// 037   ----------------------------------------
 BYTE   N92
 BYTE   W96
// 038   ----------------------------------------
 BYTE   W96
// 039   ----------------------------------------
 BYTE   W96
 BYTE   PATT
  POIN2 Label_8_018789FD
// 040   ----------------------------------------
 BYTE   N05  Dn1  v076
 BYTE   N92  Ds2  v064
 BYTE   N92  An2
 BYTE   W16
 BYTE   N07  Dn1
 BYTE   W08
 BYTE   N05  Dn1  v076
 BYTE   W08
 BYTE   N07  Dn1  v064
 BYTE   W08
 BYTE   N07
 BYTE   W08
 BYTE   N05  Dn1  v076
 BYTE   W08
 BYTE   N07  Dn1  v064
 BYTE   W08
 BYTE   N05  Dn1  v076
 BYTE   W08
 BYTE   N07  Dn1  v064
 BYTE   W08
 BYTE   N05  Dn1  v076
 BYTE   W08
 BYTE   N07  Dn1  v064
 BYTE   W08
// 041   ----------------------------------------
Label_8_01878A3C:
 BYTE   N05  Dn1  v076
 BYTE   W16
 BYTE   N07  Dn1  v064
 BYTE   W08
 BYTE   N05  Dn1  v076
 BYTE   W08
 BYTE   N07  Dn1  v064
 BYTE   W08
 BYTE   N07
 BYTE   W08
 BYTE   N05  Dn1  v076
 BYTE   W08
 BYTE   N07  Dn1  v064
 BYTE   W08
 BYTE   N05  Dn1  v076
 BYTE   W08
 BYTE   N07  Dn1  v064
 BYTE   W08
 BYTE   N05  Dn1  v076
 BYTE   W08
 BYTE   N07  Dn1  v064
 BYTE   W08
 BYTE   PEND 
 BYTE   PATT
  POIN2 Label_8_01878A3C
 BYTE   PATT
  POIN2 Label_8_01878A3C
// 042   ----------------------------------------
 BYTE   N05  Dn1  v076
 BYTE   N92  An2  v064
 BYTE   W16
 BYTE   N07  Dn1
 BYTE   W08
 BYTE   N05  Dn1  v076
 BYTE   W08
 BYTE   N07  Dn1  v064
 BYTE   W08
 BYTE   N07
 BYTE   W08
 BYTE   N05  Dn1  v076
 BYTE   W08
 BYTE   N07  Dn1  v064
 BYTE   W08
 BYTE   N05  Dn1  v076
 BYTE   W08
 BYTE   N07  Dn1  v064
 BYTE   W08
 BYTE   N05  Dn1  v076
 BYTE   W08
 BYTE   N07  Dn1  v064
 BYTE   W08
 BYTE   PATT
  POIN2 Label_8_01878A3C
 BYTE   PATT
  POIN2 Label_8_01878A3C
// 043   ----------------------------------------
 BYTE   N05  Dn1  v076
 BYTE   W16
 BYTE   N07  Dn1  v064
 BYTE   W08
 BYTE   N05  Dn1  v076
 BYTE   W08
 BYTE   N07  Dn1  v064
 BYTE   W08
 BYTE   N07
 BYTE   W08
 BYTE   N05  Dn1  v076
 BYTE   W08
 BYTE   N07  Dn1  v064
 BYTE   W08
 BYTE   N05  Dn1  v076
 BYTE   W08
 BYTE   N07  Dn1  v064
 BYTE   W08
 BYTE   Bn0  v112
 BYTE   N05  Dn1  v076
 BYTE   W08
 BYTE   N07  Bn0  v112
 BYTE   N07  Dn1  v064
 BYTE   W08
 BYTE   PATT
  POIN2 Label_8_0187874D
 BYTE   PATT
  POIN2 Label_8_0187874D
 BYTE   PATT
  POIN2 Label_8_0187874D
 BYTE   PATT
  POIN2 Label_8_0187874D
 BYTE   PATT
  POIN2 Label_8_0187874D
 BYTE   PATT
  POIN2 Label_8_0187874D
 BYTE   PATT
  POIN2 Label_8_0187874D
 BYTE   PATT
  POIN2 Label_8_0187874D
 BYTE   PATT
  POIN2 Label_8_0187874D
 BYTE   PATT
  POIN2 Label_8_0187874D
 BYTE   PATT
  POIN2 Label_8_0187874D
 BYTE   PATT
  POIN2 Label_8_0187874D
 BYTE   PATT
  POIN2 Label_8_0187874D
 BYTE   PATT
  POIN2 Label_8_0187874D
 BYTE   PATT
  POIN2 Label_8_0187874D
 BYTE   PATT
  POIN2 Label_8_0187874D
// 044   ----------------------------------------
Label_8_01878B26:
 BYTE   N44  Ds2  v064
 BYTE   W48
 BYTE   N44
 BYTE   W48
 BYTE   PEND 
 BYTE   PATT
  POIN2 Label_8_01878B26
 BYTE   PATT
  POIN2 Label_8_01878B26
 BYTE   PATT
  POIN2 Label_8_01878B26
// 045   ----------------------------------------
Label_8_01878B3C:
 BYTE   N05  Dn1  v060
 BYTE   N44  Ds2  v064
 BYTE   W08
 BYTE   N07  Dn1  v052
 BYTE   W08
 BYTE   N07
 BYTE   W08
 BYTE   N16  Dn1  v060
 BYTE   W24
 BYTE   N05
 BYTE   N44  Ds2  v064
 BYTE   W08
 BYTE   N07  Dn1  v052
 BYTE   W08
 BYTE   N07
 BYTE   W08
 BYTE   N16  Dn1  v060
 BYTE   W24
 BYTE   PEND 
 BYTE   PATT
  POIN2 Label_8_01878B3C
 BYTE   PATT
  POIN2 Label_8_01878B3C
 BYTE   PATT
  POIN2 Label_8_01878B3C
 BYTE   PATT
  POIN2 Label_8_01878B3C
 BYTE   PATT
  POIN2 Label_8_01878B3C
 BYTE   PATT
  POIN2 Label_8_01878B3C
 BYTE   PATT
  POIN2 Label_8_01878B3C
 BYTE   PATT
  POIN2 Label_8_01878B3C
 BYTE   PATT
  POIN2 Label_8_01878B3C
 BYTE   PATT
  POIN2 Label_8_01878B3C
 BYTE   PATT
  POIN2 Label_8_01878B3C
// 046   ----------------------------------------
Label_8_01878B94:
 BYTE   N05  Dn1  v060
 BYTE   W08
 BYTE   N07  Dn1  v052
 BYTE   W08
 BYTE   N07
 BYTE   W08
 BYTE   N23  Bn0  v096
 BYTE   N16  Dn1  v060
 BYTE   N68  An2  v064
 BYTE   W24
 BYTE   N05  Dn1  v060
 BYTE   W08
 BYTE   N07  Dn1  v052
 BYTE   W04
 BYTE   N23  Bn0  v096
 BYTE   W04
 BYTE   N07  Dn1  v052
 BYTE   W08
 BYTE   N16  Dn1  v060
 BYTE   W24
 BYTE   PEND 
// 047   ----------------------------------------
Label_8_01878BBD:
 BYTE   N05  Dn1  v060
 BYTE   W08
 BYTE   N07  Dn1  v052
 BYTE   W08
 BYTE   Bn0  v096
 BYTE   N07  Dn1  v052
 BYTE   W08
 BYTE   N16  Dn1  v060
 BYTE   W24
 BYTE   N05
 BYTE   W08
 BYTE   N15  Bn0  v096
 BYTE   N07  Dn1  v052
 BYTE   W08
 BYTE   N07
 BYTE   W08
 BYTE   N15  Bn0  v096
 BYTE   N16  Dn1  v060
 BYTE   W16
 BYTE   N07  Bn0  v096
 BYTE   W08
 BYTE   PEND 
 BYTE   PATT
  POIN2 Label_8_01878B94
// 048   ----------------------------------------
Label_8_01878BEB:
 BYTE   N05  Dn1  v060
 BYTE   W08
 BYTE   N07  Dn1  v052
 BYTE   W04
 BYTE   N15  Bn0  v096
 BYTE   W04
 BYTE   N07  Dn1  v052
 BYTE   W08
 BYTE   N16  Dn1  v060
 BYTE   W04
 BYTE   N15  Bn0  v096
 BYTE   W16
 BYTE   N15
 BYTE   W04
 BYTE   N05  Dn1  v060
 BYTE   W08
 BYTE   N07  Dn1  v052
 BYTE   W04
 BYTE   N15  Bn0  v096
 BYTE   W04
 BYTE   N07  Dn1  v052
 BYTE   W08
 BYTE   N16  Dn1  v060
 BYTE   W04
 BYTE   N07  Bn0  v096
 BYTE   W20
 BYTE   PEND 
 BYTE   PATT
  POIN2 Label_8_01878B94
 BYTE   PATT
  POIN2 Label_8_01878BBD
 BYTE   PATT
  POIN2 Label_8_01878B94
 BYTE   PATT
  POIN2 Label_8_01878BEB
// 049   ----------------------------------------
 BYTE   W96
// 050   ----------------------------------------
 BYTE   W96
// 051   ----------------------------------------
 BYTE   W96
// 052   ----------------------------------------
 BYTE   W48
 BYTE   N02  An2  v064
 BYTE   W02
 BYTE   N02
 BYTE   W03
 BYTE   N02
 BYTE   W03
 BYTE   N02
 BYTE   W03
 BYTE   N02
 BYTE   W03
 BYTE   N02
 BYTE   W03
 BYTE   N02
 BYTE   W03
 BYTE   N02
 BYTE   W03
 BYTE   N02
 BYTE   W03
 BYTE   N02
 BYTE   W03
 BYTE   N02
 BYTE   W03
 BYTE   N02
 BYTE   W03
 BYTE   N02
 BYTE   W03
 BYTE   N02
 BYTE   W03
 BYTE   N02
 BYTE   W03
 BYTE   N02
 BYTE   W04
// 053   ----------------------------------------
Label_8_01878C58:
 BYTE   N16  Bn0  v127
 BYTE   W16
 BYTE   N07  Bn0  v096
 BYTE   W08
 BYTE   N07
 BYTE   W08
 BYTE   N15
 BYTE   W16
 BYTE   N15
 BYTE   W16
 BYTE   N15
 BYTE   W16
 BYTE   N15
 BYTE   W16
 BYTE   PEND 
 BYTE   PATT
  POIN2 Label_8_01878C58
 BYTE   PATT
  POIN2 Label_8_01878C58
// 054   ----------------------------------------
 BYTE   N16  Bn0  v127
 BYTE   W16
 BYTE   N07  Bn0  v096
 BYTE   W08
 BYTE   N07
 BYTE   W08
 BYTE   N15
 BYTE   W16
 BYTE   N15
 BYTE   W16
 BYTE   N15
 BYTE   W16
 BYTE   N15
 BYTE   N07  Ds2  v064
 BYTE   W08
 BYTE   N07
 BYTE   W08
// 055   ----------------------------------------
 BYTE   N16  Bn0  v127
 BYTE   N92  Ds2  v064
 BYTE   N92  An2
 BYTE   W16
 BYTE   N07  Bn0  v096
 BYTE   W08
 BYTE   N07
 BYTE   W08
 BYTE   N15
 BYTE   W16
 BYTE   N15
 BYTE   W16
 BYTE   N15
 BYTE   W16
 BYTE   N15
 BYTE   W16
 BYTE   PATT
  POIN2 Label_8_01878C58
 BYTE   PATT
  POIN2 Label_8_01878C58
 BYTE   PATT
  POIN2 Label_8_01878C58
// 056   ----------------------------------------
Label_8_01878CB2:
 BYTE   W72
 BYTE   N07  Dn1  v064
 BYTE   W08
 BYTE   Bn0  v096
 BYTE   N07  Dn1  v076
 BYTE   W08
 BYTE   Bn0  v096
 BYTE   N07  Dn1  v088
 BYTE   W08
 BYTE   PEND 
// 057   ----------------------------------------
Label_8_01878CC4:
 BYTE   N23  Bn0  v096
 BYTE   N23  Dn1
 BYTE   N92  An2  v064
 BYTE   W96
 BYTE   PEND 
 BYTE   PATT
  POIN2 Label_8_01878CB2
 BYTE   PATT
  POIN2 Label_8_01878CC4
// 058   ----------------------------------------
 BYTE   W48
 BYTE   N02  An2  v052
 BYTE   W02
 BYTE   N02
 BYTE   W03
 BYTE   N02
 BYTE   W03
 BYTE   N02
 BYTE   W03
 BYTE   N02
 BYTE   W03
 BYTE   N02
 BYTE   W03
 BYTE   N02
 BYTE   W03
 BYTE   N02
 BYTE   W03
 BYTE   N02
 BYTE   W01
 BYTE   N07  Dn1  v080
 BYTE   W02
 BYTE   N02  An2  v052
 BYTE   W03
 BYTE   N02
 BYTE   W03
 BYTE   N07  Bn0  v096
 BYTE   N07  Dn1  v080
 BYTE   N02  An2  v052
 BYTE   W03
 BYTE   N02
 BYTE   W03
 BYTE   N02
 BYTE   W02
 BYTE   N07  Bn0  v096
 BYTE   N07  Dn1  v080
 BYTE   W01
 BYTE   N02  An2  v052
 BYTE   W03
 BYTE   N02
 BYTE   W04
// 059   ----------------------------------------
 BYTE   N23  Bn0  v096
 BYTE   N23  Dn1  v080
 BYTE   W96
// 060   ----------------------------------------
 BYTE   W72
 BYTE   N07
 BYTE   W08
 BYTE   N07
 BYTE   W08
 BYTE   N07
 BYTE   W08
// 061   ----------------------------------------
 BYTE   N23
 BYTE   W96
// 062   ----------------------------------------
 BYTE   W96
// 063   ----------------------------------------
 BYTE   GoTo
  POIN2 Label_8_0187871F
 BYTE   FINE

//**************** Track 10 (Midi-Chn.9) ****************//

song07_010:
// 000   ----------------------------------------
 BYTE   KEYSH   song07_key+0
 BYTE   VOICE   42
 BYTE   VOL   62*song07_mvl/mxv
 BYTE   PAN   c_v+14
 BYTE   VOL   62*song07_mvl/mxv
 BYTE   PAN   c_v-15
 BYTE   VOL   62*song07_mvl/mxv
 BYTE   PAN   c_v-21
 BYTE   W96
// 001   ----------------------------------------
 BYTE   W96
// 002   ----------------------------------------
 BYTE   W96
// 003   ----------------------------------------
 BYTE   W96
// 004   ----------------------------------------
 BYTE   W96
// 005   ----------------------------------------
 BYTE   W96
// 006   ----------------------------------------
 BYTE   W96
// 007   ----------------------------------------
 BYTE   W96
// 008   ----------------------------------------
 BYTE   W96
// 009   ----------------------------------------
 BYTE   W96
// 010   ----------------------------------------
 BYTE   W96
// 011   ----------------------------------------
 BYTE   W96
// 012   ----------------------------------------
 BYTE   W96
// 013   ----------------------------------------
 BYTE   W96
// 014   ----------------------------------------
 BYTE   W96
// 015   ----------------------------------------
 BYTE   W96
// 016   ----------------------------------------
Label_9_01878D4C:
 BYTE   N11  Cs5  v064
 BYTE   W24
 BYTE   N11
 BYTE   W24
 BYTE   N05
 BYTE   W06
 BYTE   N05
 BYTE   W18
 BYTE   N05
 BYTE   W06
 BYTE   N05
 BYTE   W18
// 017   ----------------------------------------
Label_9_01878D5A:
 BYTE   N05  Cs5  v064
 BYTE   W06
 BYTE   N05
 BYTE   W18
 BYTE   N05
 BYTE   W06
 BYTE   N05
 BYTE   W18
 BYTE   N05
 BYTE   W06
 BYTE   N05
 BYTE   W18
 BYTE   N05
 BYTE   W06
 BYTE   N05
 BYTE   W18
 BYTE   PEND 
 BYTE   PATT
  POIN2 Label_9_01878D5A
// 018   ----------------------------------------
 BYTE   N05  Cs5  v064
 BYTE   W06
 BYTE   N05
 BYTE   W18
 BYTE   N05
 BYTE   W06
 BYTE   N05
 BYTE   W18
 BYTE   N05
 BYTE   W06
 BYTE   N05
 BYTE   W18
 BYTE   N05
 BYTE   W06
 BYTE   N05
 BYTE   W12
 BYTE   N02  Bn3
 BYTE   W03
 BYTE   Cs4
 BYTE   W03
// 019   ----------------------------------------
 BYTE   N11  Fs4
 BYTE   W96
// 020   ----------------------------------------
 BYTE   W96
// 021   ----------------------------------------
 BYTE   N92  Cs4
 BYTE   W96
// 022   ----------------------------------------
 BYTE   Dn4
 BYTE   W96
// 023   ----------------------------------------
 BYTE   Cs4
 BYTE   W96
// 024   ----------------------------------------
 BYTE   Bn3
 BYTE   W96
// 025   ----------------------------------------
 BYTE   Cs4
 BYTE   W96
// 026   ----------------------------------------
Label_9_01878D98:
 BYTE   N44  Cs4  v064
 BYTE   W48
 BYTE   Bn3
 BYTE   W48
 BYTE   PEND 
// 027   ----------------------------------------
 BYTE   N92
 BYTE   W96
// 028   ----------------------------------------
 BYTE   N92
 BYTE   W96
// 029   ----------------------------------------
 BYTE   Cs4
 BYTE   W96
// 030   ----------------------------------------
 BYTE   N92
 BYTE   W96
// 031   ----------------------------------------
 BYTE   Ds4
 BYTE   W96
// 032   ----------------------------------------
 BYTE   N92
 BYTE   W96
// 033   ----------------------------------------
 BYTE   Dn4
 BYTE   W96
// 034   ----------------------------------------
 BYTE   Cs4
 BYTE   W96
// 035   ----------------------------------------
 BYTE   W08
 BYTE   N07  Cs5
 BYTE   W08
 BYTE   N07
 BYTE   W16
 BYTE   N07
 BYTE   W08
 BYTE   N07
 BYTE   W16
 BYTE   Gs4
 BYTE   W08
 BYTE   N07
 BYTE   W16
 BYTE   Fn4
 BYTE   W08
 BYTE   N07
 BYTE   W08
// 036   ----------------------------------------
 BYTE   W96
// 037   ----------------------------------------
 BYTE   W96
// 038   ----------------------------------------
 BYTE   N92  Cs4
 BYTE   W96
// 039   ----------------------------------------
 BYTE   Dn4
 BYTE   W96
// 040   ----------------------------------------
 BYTE   Cs4
 BYTE   W96
// 041   ----------------------------------------
 BYTE   Bn3
 BYTE   W96
// 042   ----------------------------------------
 BYTE   Cs4
 BYTE   W96
 BYTE   PATT
  POIN2 Label_9_01878D98
// 043   ----------------------------------------
 BYTE   N92  Cs4  v064
 BYTE   W96
// 044   ----------------------------------------
 BYTE   Bn3
 BYTE   W96
// 045   ----------------------------------------
 BYTE   Cs4
 BYTE   W96
// 046   ----------------------------------------
 BYTE   N44
 BYTE   W48
 BYTE   En4
 BYTE   W48
// 047   ----------------------------------------
 BYTE   TIE  Bn3
 BYTE   W96
// 048   ----------------------------------------
 BYTE   W92
 BYTE   W03
 BYTE   EOT
 BYTE   W01
// 049   ----------------------------------------
 BYTE   TIE  Dn4
 BYTE   W96
// 050   ----------------------------------------
 BYTE   W92
 BYTE   W03
 BYTE   EOT
 BYTE   W01
// 051   ----------------------------------------
 BYTE   N92
 BYTE   W96
// 052   ----------------------------------------
 BYTE   N92
 BYTE   W96
// 053   ----------------------------------------
 BYTE   N92
 BYTE   W96
// 054   ----------------------------------------
 BYTE   N92
 BYTE   W96
// 055   ----------------------------------------
 BYTE   W96
// 056   ----------------------------------------
 BYTE   W96
// 057   ----------------------------------------
 BYTE   W96
// 058   ----------------------------------------
 BYTE   W96
// 059   ----------------------------------------
Label_9_01878DF9:
 BYTE   N07  Cs4  v064
 BYTE   W08
 BYTE   N07
 BYTE   W08
 BYTE   N07
 BYTE   W08
 BYTE   N11
 BYTE   W48
 BYTE   N07
 BYTE   W08
 BYTE   N07
 BYTE   W08
 BYTE   N07
 BYTE   W08
 BYTE   PEND 
// 060   ----------------------------------------
 BYTE   N11
 BYTE   W48
 BYTE   N23  Dn4
 BYTE   W24
 BYTE   En4
 BYTE   W24
 BYTE   PATT
  POIN2 Label_9_01878DF9
// 061   ----------------------------------------
 BYTE   N11  Cs4  v064
 BYTE   W48
 BYTE   N23  En4
 BYTE   W24
 BYTE   Dn4
 BYTE   W24
// 062   ----------------------------------------
 BYTE   N32  Cs4
 BYTE   W96
// 063   ----------------------------------------
 BYTE   W96
// 064   ----------------------------------------
 BYTE   W24
 BYTE   N07  Bn3
 BYTE   W08
 BYTE   Dn4
 BYTE   W08
 BYTE   Fs4
 BYTE   W08
 BYTE   Bn4
 BYTE   W08
 BYTE   Fs4
 BYTE   W08
 BYTE   Dn4
 BYTE   W08
 BYTE   Fs5
 BYTE   W08
 BYTE   Bn4
 BYTE   W08
 BYTE   Fs4
 BYTE   W08
// 065   ----------------------------------------
 BYTE   N07
 BYTE   W08
 BYTE   Bn4
 BYTE   W08
 BYTE   Fs4
 BYTE   W08
 BYTE   Dn4
 BYTE   W08
 BYTE   Bn3
 BYTE   W08
 BYTE   Fs3
 BYTE   W08
 BYTE   Dn4
 BYTE   W08
 BYTE   Gn4
 BYTE   W08
 BYTE   Dn4
 BYTE   W08
 BYTE   Bn3
 BYTE   W08
 BYTE   Gn3
 BYTE   W08
 BYTE   Dn3
 BYTE   W08
// 066   ----------------------------------------
 BYTE   Bn3
 BYTE   W08
 BYTE   Dn4
 BYTE   W08
 BYTE   Fs4
 BYTE   W08
 BYTE   Gn4
 BYTE   W08
 BYTE   Dn4
 BYTE   W08
 BYTE   Bn3
 BYTE   W08
 BYTE   Dn4
 BYTE   W08
 BYTE   Gn4
 BYTE   W08
 BYTE   Dn4
 BYTE   W08
 BYTE   Cs4
 BYTE   W08
 BYTE   Gn4
 BYTE   W08
 BYTE   Dn4
 BYTE   W08
// 067   ----------------------------------------
 BYTE   Fn4
 BYTE   W08
 BYTE   Cs4
 BYTE   W08
 BYTE   Fn4
 BYTE   W08
 BYTE   Gs4
 BYTE   W08
 BYTE   Fn4
 BYTE   W08
 BYTE   Gs4
 BYTE   W08
 BYTE   Fn4
 BYTE   W08
 BYTE   Gs4
 BYTE   W08
 BYTE   Cs5
 BYTE   W08
 BYTE   Gs4
 BYTE   W08
 BYTE   Fn4
 BYTE   W08
 BYTE   Cs4
 BYTE   W08
// 068   ----------------------------------------
 BYTE   Cs5
 BYTE   W08
 BYTE   An4
 BYTE   W08
 BYTE   Gs4
 BYTE   W08
 BYTE   Fs4
 BYTE   W08
 BYTE   Cs4
 BYTE   W08
 BYTE   An3
 BYTE   W08
 BYTE   Fs3
 BYTE   W08
 BYTE   An3
 BYTE   W08
 BYTE   Cs4
 BYTE   W08
 BYTE   Fs4
 BYTE   W08
 BYTE   Cs4
 BYTE   W08
 BYTE   An3
 BYTE   W08
// 069   ----------------------------------------
 BYTE   An4
 BYTE   W08
 BYTE   Fs4
 BYTE   W08
 BYTE   Cs4
 BYTE   W08
 BYTE   Fs4
 BYTE   W08
 BYTE   Cs4
 BYTE   W08
 BYTE   An3
 BYTE   W08
 BYTE   Dn4
 BYTE   W03
 BYTE   W03
 BYTE   W02
 BYTE   En4  v068
 BYTE   W01
 BYTE   W03
 BYTE   W03
 BYTE   W01
 BYTE   Fs4  v072
 BYTE   W02
 BYTE   W03
 BYTE   W03
 BYTE   Gs4
 BYTE   W03
 BYTE   W03
 BYTE   W02
 BYTE   An4  v076
 BYTE   W01
 BYTE   W03
 BYTE   W03
 BYTE   W01
 BYTE   Bn4  v080
 BYTE   W02
 BYTE   W03
 BYTE   W03
// 070   ----------------------------------------
Label_9_01878EC1:
 BYTE   N44  Cs5  v080
 BYTE   W48
 BYTE   N92  Fs4
 BYTE   W48
 BYTE   PEND 
// 071   ----------------------------------------
Label_9_01878EC9:
 BYTE   W48
 BYTE   N15  Ds4  v080
 BYTE   W16
 BYTE   Fs4
 BYTE   W16
 BYTE   As4
 BYTE   W16
 BYTE   PEND 
// 072   ----------------------------------------
Label_9_01878ED3:
 BYTE   N44  Cs5  v080
 BYTE   W48
 BYTE   TIE  Fs4
 BYTE   W48
 BYTE   PEND 
// 073   ----------------------------------------
 BYTE   W68
 BYTE   W03
 BYTE   EOT
 BYTE   W24
 BYTE   W01
 BYTE   PATT
  POIN2 Label_9_01878EC1
 BYTE   PATT
  POIN2 Label_9_01878EC9
 BYTE   PATT
  POIN2 Label_9_01878ED3
// 074   ----------------------------------------
 BYTE   W68
 BYTE   W03
 BYTE   EOT
 BYTE   Fs4
 BYTE   W24
 BYTE   W01
// 075   ----------------------------------------
Label_9_01878EF5:
 BYTE   N44  Bn4  v080
 BYTE   W48
 BYTE   N92  En4
 BYTE   W48
 BYTE   PEND 
// 076   ----------------------------------------
Label_9_01878EFD:
 BYTE   W48
 BYTE   N15  Cs4  v080
 BYTE   W16
 BYTE   En4
 BYTE   W16
 BYTE   Gs4
 BYTE   W16
 BYTE   PEND 
// 077   ----------------------------------------
Label_9_01878F07:
 BYTE   N44  Bn4  v080
 BYTE   W48
 BYTE   TIE  En4
 BYTE   W48
 BYTE   PEND 
// 078   ----------------------------------------
 BYTE   W68
 BYTE   W03
 BYTE   EOT
 BYTE   W24
 BYTE   W01
 BYTE   PATT
  POIN2 Label_9_01878EF5
 BYTE   PATT
  POIN2 Label_9_01878EFD
 BYTE   PATT
  POIN2 Label_9_01878F07
// 079   ----------------------------------------
 BYTE   W68
 BYTE   W03
 BYTE   EOT
 BYTE   En4
 BYTE   W24
 BYTE   W01
// 080   ----------------------------------------
 BYTE   W96
// 081   ----------------------------------------
 BYTE   W96
// 082   ----------------------------------------
 BYTE   W96
// 083   ----------------------------------------
 BYTE   W96
// 084   ----------------------------------------
 BYTE   W96
// 085   ----------------------------------------
 BYTE   W96
// 086   ----------------------------------------
 BYTE   W96
// 087   ----------------------------------------
 BYTE   W96
// 088   ----------------------------------------
 BYTE   W96
// 089   ----------------------------------------
 BYTE   W96
// 090   ----------------------------------------
 BYTE   W96
// 091   ----------------------------------------
 BYTE   W96
// 092   ----------------------------------------
 BYTE   N02  Dn2  v080
 BYTE   W08
 BYTE   Fn3
 BYTE   W08
 BYTE   An3
 BYTE   W08
 BYTE   Dn4
 BYTE   W08
 BYTE   Fn4
 BYTE   W08
 BYTE   An4
 BYTE   W08
 BYTE   En2
 BYTE   W08
 BYTE   Gn3
 BYTE   W08
 BYTE   En4
 BYTE   W08
 BYTE   Gn4
 BYTE   W08
 BYTE   An4
 BYTE   W08
 BYTE   Cn5
 BYTE   W08
// 093   ----------------------------------------
 BYTE   Fn2
 BYTE   W08
 BYTE   Fn3
 BYTE   W08
 BYTE   Cn4
 BYTE   W08
 BYTE   Fn4
 BYTE   W08
 BYTE   An4
 BYTE   W08
 BYTE   Dn5
 BYTE   W08
 BYTE   Fs2
 BYTE   W08
 BYTE   Fs3
 BYTE   W08
 BYTE   Dn4
 BYTE   W08
 BYTE   Fs4
 BYTE   W08
 BYTE   An4
 BYTE   W08
 BYTE   Dn5
 BYTE   W08
// 094   ----------------------------------------
 BYTE   Gn2
 BYTE   W08
 BYTE   Gn3
 BYTE   W08
 BYTE   Dn4
 BYTE   W08
 BYTE   Gn4
 BYTE   W08
 BYTE   As4
 BYTE   W08
 BYTE   Dn5
 BYTE   W08
 BYTE   Gs2
 BYTE   W08
 BYTE   Gs3
 BYTE   W08
 BYTE   En4
 BYTE   W08
 BYTE   Gs4
 BYTE   W08
 BYTE   As4
 BYTE   W08
 BYTE   Dn5
 BYTE   W08
// 095   ----------------------------------------
 BYTE   An2
 BYTE   W08
 BYTE   Gn3
 BYTE   W08
 BYTE   Dn4
 BYTE   W08
 BYTE   An4
 BYTE   W08
 BYTE   Bn4
 BYTE   W08
 BYTE   Dn5
 BYTE   W08
 BYTE   An2
 BYTE   W08
 BYTE   An3
 BYTE   W08
 BYTE   Gn4
 BYTE   W08
 BYTE   An4
 BYTE   W08
 BYTE   Cn5
 BYTE   W08
 BYTE   Cs5
 BYTE   W08
// 096   ----------------------------------------
 BYTE   W96
// 097   ----------------------------------------
 BYTE   W96
// 098   ----------------------------------------
 BYTE   W96
// 099   ----------------------------------------
 BYTE   W96
// 100   ----------------------------------------
 BYTE   W96
// 101   ----------------------------------------
 BYTE   W96
// 102   ----------------------------------------
 BYTE   W96
// 103   ----------------------------------------
 BYTE   W96
// 104   ----------------------------------------
 BYTE   W96
// 105   ----------------------------------------
 BYTE   W96
// 106   ----------------------------------------
 BYTE   W96
// 107   ----------------------------------------
 BYTE   W96
// 108   ----------------------------------------
 BYTE   W96
// 109   ----------------------------------------
 BYTE   W96
// 110   ----------------------------------------
 BYTE   W96
// 111   ----------------------------------------
 BYTE   W96
// 112   ----------------------------------------
 BYTE   W96
// 113   ----------------------------------------
 BYTE   W96
// 114   ----------------------------------------
 BYTE   W96
// 115   ----------------------------------------
 BYTE   W96
// 116   ----------------------------------------
 BYTE   N44  Fn5  v064
 BYTE   W48
 BYTE   En5
 BYTE   W48
// 117   ----------------------------------------
 BYTE   Dn5
 BYTE   W48
 BYTE   Cn5
 BYTE   N44  En5
 BYTE   W48
// 118   ----------------------------------------
 BYTE   As4
 BYTE   N44  Fn5
 BYTE   W48
 BYTE   An4
 BYTE   N44  Fn5
 BYTE   W48
// 119   ----------------------------------------
 BYTE   Gn4
 BYTE   N44  Fn5
 BYTE   W48
 BYTE   Fn4
 BYTE   N44  Fn5
 BYTE   W48
// 120   ----------------------------------------
 BYTE   Fs5
 BYTE   W48
 BYTE   Fn5
 BYTE   W48
// 121   ----------------------------------------
 BYTE   Ds5
 BYTE   W48
 BYTE   Cs5
 BYTE   W48
// 122   ----------------------------------------
 BYTE   Bn4
 BYTE   W48
 BYTE   As4
 BYTE   W48
// 123   ----------------------------------------
 BYTE   Gs4
 BYTE   W48
 BYTE   Fs4
 BYTE   W48
// 124   ----------------------------------------
 BYTE   TIE  Fn4
 BYTE   W96
// 125   ----------------------------------------
 BYTE   W96
// 126   ----------------------------------------
 BYTE   W96
// 127   ----------------------------------------
 BYTE   W60
 BYTE   W03
 BYTE   EOT
 BYTE   W01
 BYTE   N15  Fs4
 BYTE   W16
 BYTE   Gn4
 BYTE   W16
// 128   ----------------------------------------
 BYTE   W96
// 129   ----------------------------------------
 BYTE   W96
// 130   ----------------------------------------
 BYTE   W96
// 131   ----------------------------------------
 BYTE   W96
// 132   ----------------------------------------
 BYTE   W96
// 133   ----------------------------------------
 BYTE   W96
// 134   ----------------------------------------
 BYTE   W96
// 135   ----------------------------------------
 BYTE   W96
// 136   ----------------------------------------
 BYTE   W96
// 137   ----------------------------------------
 BYTE   W96
// 138   ----------------------------------------
 BYTE   W96
// 139   ----------------------------------------
 BYTE   W96
// 140   ----------------------------------------
 BYTE   N92  Dn3
 BYTE   W96
// 141   ----------------------------------------
 BYTE   En3
 BYTE   W96
// 142   ----------------------------------------
 BYTE   Fs3
 BYTE   W96
// 143   ----------------------------------------
 BYTE   En3
 BYTE   W96
// 144   ----------------------------------------
 BYTE   Dn3
 BYTE   W96
// 145   ----------------------------------------
 BYTE   En3
 BYTE   W96
// 146   ----------------------------------------
 BYTE   Fs3
 BYTE   W96
// 147   ----------------------------------------
 BYTE   Gs3
 BYTE   W96
// 148   ----------------------------------------
 BYTE   W96
// 149   ----------------------------------------
 BYTE   W24
 BYTE   N23  As4
 BYTE   W24
 BYTE   An4
 BYTE   W24
 BYTE   Fn4
 BYTE   W24
// 150   ----------------------------------------
 BYTE   Fs4
 BYTE   W24
 BYTE   Cs4
 BYTE   W24
 BYTE   Dn4
 BYTE   W24
 BYTE   Bn3
 BYTE   W24
// 151   ----------------------------------------
 BYTE   W24
 BYTE   Dn4
 BYTE   W24
 BYTE   Cs4
 BYTE   W24
 BYTE   Gn3
 BYTE   W24
// 152   ----------------------------------------
 BYTE   Gs3
 BYTE   W24
 BYTE   En3
 BYTE   W24
 BYTE   Dn3
 BYTE   W24
 BYTE   Bn2
 BYTE   W24
// 153   ----------------------------------------
 BYTE   W96
// 154   ----------------------------------------
 BYTE   W96
// 155   ----------------------------------------
 BYTE   W96
// 156   ----------------------------------------
 BYTE   W96
// 157   ----------------------------------------
 BYTE   GoTo
  POIN2 Label_9_01878D4C
 BYTE   FINE

//**************** Track 11 (Midi-Chn.10) ****************//

song07_011:
// 000   ----------------------------------------
 BYTE   KEYSH   song07_key+0
 BYTE   VOICE   48
 BYTE   VOL   62*song07_mvl/mxv
 BYTE   PAN   c_v-15
 BYTE   VOL   79*song07_mvl/mxv
 BYTE   PAN   c_v-15
 BYTE   VOL   62*song07_mvl/mxv
 BYTE   PAN   c_v+0
 BYTE   W96
// 001   ----------------------------------------
 BYTE   W96
// 002   ----------------------------------------
 BYTE   W96
// 003   ----------------------------------------
 BYTE   W96
// 004   ----------------------------------------
 BYTE   W96
// 005   ----------------------------------------
 BYTE   W96
// 006   ----------------------------------------
 BYTE   W96
// 007   ----------------------------------------
 BYTE   W96
// 008   ----------------------------------------
 BYTE   W96
// 009   ----------------------------------------
 BYTE   W96
// 010   ----------------------------------------
 BYTE   N11  Bn3  v064
 BYTE   N11  Cs4
 BYTE   W24
 BYTE   Bn3
 BYTE   N11  Cs4
 BYTE   W24
 BYTE   N05  Bn3
 BYTE   N05  Cs4
 BYTE   W06
 BYTE   Bn3
 BYTE   N05  Cs4
 BYTE   W18
 BYTE   Bn3
 BYTE   N05  Cs4
 BYTE   W06
 BYTE   Bn3
 BYTE   N05  Cs4
 BYTE   W18
// 011   ----------------------------------------
 BYTE   Bn3
 BYTE   N05  Cs4
 BYTE   W06
 BYTE   Bn3
 BYTE   N05  Cs4
 BYTE   W18
 BYTE   Bn3
 BYTE   N05  Cs4
 BYTE   W06
 BYTE   Bn3
 BYTE   N05  Cs4
 BYTE   W18
 BYTE   Bn3
 BYTE   N05  Cs4
 BYTE   W06
 BYTE   Bn3
 BYTE   N05  Cs4
 BYTE   W18
 BYTE   Bn3
 BYTE   N05  Cs4
 BYTE   W06
 BYTE   Bn3
 BYTE   N05  Cs4
 BYTE   W18
// 012   ----------------------------------------
Label_10_01879081:
 BYTE   N23  Fs2  v064
 BYTE   W24
 BYTE   N07
 BYTE   W08
 BYTE   Gs2
 BYTE   W08
 BYTE   An2
 BYTE   W08
 BYTE   N15  Cs3
 BYTE   W16
 BYTE   An2
 BYTE   W16
 BYTE   Fs2
 BYTE   W16
 BYTE   PEND 
// 013   ----------------------------------------
Label_10_01879093:
 BYTE   N23  Dn2  v064
 BYTE   W24
 BYTE   Dn3
 BYTE   W24
 BYTE   N15  Fn2
 BYTE   W16
 BYTE   En3
 BYTE   W16
 BYTE   Dn3
 BYTE   W16
 BYTE   PEND 
 BYTE   PATT
  POIN2 Label_10_01879081
 BYTE   PATT
  POIN2 Label_10_01879093
// 014   ----------------------------------------
Label_10_018790AB:
 BYTE   PATT
  POIN2 Label_10_01879081
 BYTE   PATT
  POIN2 Label_10_01879093
 BYTE   PATT
  POIN2 Label_10_01879081
 BYTE   PATT
  POIN2 Label_10_01879093
// 015   ----------------------------------------
 BYTE   W96
// 016   ----------------------------------------
 BYTE   W96
// 017   ----------------------------------------
 BYTE   N92  An2  v080
 BYTE   W96
// 018   ----------------------------------------
Label_10_018790C5:
 BYTE   N60  Bn2  v080
 BYTE   W64
 BYTE   N23  Fs3
 BYTE   W24
 BYTE   N07  Fn3
 BYTE   W08
 BYTE   PEND 
// 019   ----------------------------------------
 BYTE   N92  Fs3
 BYTE   W96
// 020   ----------------------------------------
 BYTE   En3
 BYTE   W96
// 021   ----------------------------------------
Label_10_018790D5:
 BYTE   N60  Dn3  v080
 BYTE   W64
 BYTE   N15  Cs3
 BYTE   W16
 BYTE   Bn2
 BYTE   W16
 BYTE   PEND 
// 022   ----------------------------------------
Label_10_018790DF:
 BYTE   N30  An2  v080
 BYTE   W32
 BYTE   N60  Gs2
 BYTE   W64
 BYTE   PEND 
// 023   ----------------------------------------
 BYTE   N44  Dn3
 BYTE   W48
 BYTE   Bn2
 BYTE   W48
// 024   ----------------------------------------
 BYTE   En3
 BYTE   W48
 BYTE   Dn3
 BYTE   W48
// 025   ----------------------------------------
 BYTE   N92  Cs3
 BYTE   W96
// 026   ----------------------------------------
 BYTE   Fs3
 BYTE   W96
// 027   ----------------------------------------
 BYTE   Cs3
 BYTE   W96
// 028   ----------------------------------------
 BYTE   Cn3
 BYTE   W96
// 029   ----------------------------------------
 BYTE   An2
 BYTE   W96
// 030   ----------------------------------------
 BYTE   Gs2
 BYTE   W96
// 031   ----------------------------------------
 BYTE   W08
 BYTE   N07  Gs3
 BYTE   W08
 BYTE   N07
 BYTE   W16
 BYTE   N07
 BYTE   W08
 BYTE   N07
 BYTE   W16
 BYTE   Fn3
 BYTE   W08
 BYTE   N07
 BYTE   W16
 BYTE   Cs3
 BYTE   W08
 BYTE   N07
 BYTE   W08
// 032   ----------------------------------------
 BYTE   W96
// 033   ----------------------------------------
 BYTE   W96
// 034   ----------------------------------------
 BYTE   N92  An2
 BYTE   W96
 BYTE   PATT
  POIN2 Label_10_018790C5
// 035   ----------------------------------------
 BYTE   N92  Fs3  v080
 BYTE   W96
// 036   ----------------------------------------
 BYTE   En3
 BYTE   W96
 BYTE   PATT
  POIN2 Label_10_018790D5
 BYTE   PATT
  POIN2 Label_10_018790DF
// 037   ----------------------------------------
 BYTE   N92  An2  v080
 BYTE   W96
// 038   ----------------------------------------
 BYTE   Bn2
 BYTE   W96
// 039   ----------------------------------------
 BYTE   N44  Cs3
 BYTE   W48
 BYTE   Fs2
 BYTE   W48
// 040   ----------------------------------------
 BYTE   N23  As2
 BYTE   W24
 BYTE   Cs3
 BYTE   W24
 BYTE   En3
 BYTE   W24
 BYTE   Gn3
 BYTE   W24
// 041   ----------------------------------------
 BYTE   TIE  Fs3
 BYTE   W96
// 042   ----------------------------------------
 BYTE   W92
 BYTE   W03
 BYTE   EOT
 BYTE   W01
// 043   ----------------------------------------
 BYTE   N92
 BYTE   W96
// 044   ----------------------------------------
 BYTE   An3
 BYTE   W96
// 045   ----------------------------------------
 BYTE   Gn3
 BYTE   W96
// 046   ----------------------------------------
 BYTE   Fs3
 BYTE   W96
// 047   ----------------------------------------
 BYTE   En3
 BYTE   W96
// 048   ----------------------------------------
 BYTE   Dn3
 BYTE   W96
// 049   ----------------------------------------
Label_10_01879150:
 BYTE   N07  Gs2  v080
 BYTE   W16
 BYTE   N07
 BYTE   W08
 BYTE   N11
 BYTE   W48
 BYTE   N07
 BYTE   W16
 BYTE   N07
 BYTE   W08
 BYTE   PEND 
// 050   ----------------------------------------
Label_10_0187915D:
 BYTE   N11  Gs2  v080
 BYTE   W48
 BYTE   N23  An2
 BYTE   W24
 BYTE   Bn2
 BYTE   W24
 BYTE   PEND 
 BYTE   PATT
  POIN2 Label_10_01879150
// 051   ----------------------------------------
Label_10_0187916C:
 BYTE   N11  Gs2  v080
 BYTE   W48
 BYTE   N23  Bn2
 BYTE   W24
 BYTE   An2
 BYTE   W24
 BYTE   PEND 
 BYTE   PATT
  POIN2 Label_10_01879150
 BYTE   PATT
  POIN2 Label_10_0187915D
 BYTE   PATT
  POIN2 Label_10_01879150
 BYTE   PATT
  POIN2 Label_10_0187916C
// 052   ----------------------------------------
 BYTE   N32  Fs2  v080
 BYTE   W96
// 053   ----------------------------------------
 BYTE   W96
// 054   ----------------------------------------
 BYTE   W96
// 055   ----------------------------------------
 BYTE   W96
// 056   ----------------------------------------
 BYTE   W96
// 057   ----------------------------------------
 BYTE   W96
// 058   ----------------------------------------
 BYTE   W96
// 059   ----------------------------------------
 BYTE   W96
// 060   ----------------------------------------
 BYTE   TIE  Ds2
 BYTE   W96
// 061   ----------------------------------------
 BYTE   W92
 BYTE   W03
 BYTE   EOT
 BYTE   W01
// 062   ----------------------------------------
Label_10_0187919C:
 BYTE   TIE  Dn2  v080
 BYTE   W12
 BYTE   W06
 BYTE   W06
 BYTE   W06
 BYTE   W06
 BYTE   W07
 BYTE   W06
 BYTE   W06
 BYTE   W06
 BYTE   W06
 BYTE   W06
 BYTE   W06
 BYTE   W07
 BYTE   W06
 BYTE   W04
 BYTE   PEND 
// 063   ----------------------------------------
Label_10_018791AF:
 BYTE   W02
 BYTE   W06
 BYTE   W06
 BYTE   W06
 BYTE   W07
 BYTE   W06
 BYTE   W06
 BYTE   W06
 BYTE   W06
 BYTE   W06
 BYTE   W06
 BYTE   W07
 BYTE   W06
 BYTE   W06
 BYTE   W06
 BYTE   W06
 BYTE   W01
 BYTE   PEND 
 BYTE   EOT
 BYTE   Dn2
 BYTE   W01
// 064   ----------------------------------------
 BYTE   TIE  Ds2  v052
 BYTE   W12
 BYTE   W06
 BYTE   W06
 BYTE   W06
 BYTE   W06
 BYTE   W07
 BYTE   W06
 BYTE   W06
 BYTE   W06
 BYTE   W06
 BYTE   W06
 BYTE   W06
 BYTE   W07
 BYTE   W06
 BYTE   W04
// 065   ----------------------------------------
Label_10_018791D6:
 BYTE   W02
 BYTE   W06
 BYTE   W06
 BYTE   W06
 BYTE   W07
 BYTE   W06
 BYTE   W06
 BYTE   W06
 BYTE   W06
 BYTE   W06
 BYTE   W06
 BYTE   W07
 BYTE   W06
 BYTE   W06
 BYTE   W06
 BYTE   W06
 BYTE   W01
 BYTE   PEND 
 BYTE   EOT
 BYTE   Ds2
 BYTE   W01
 BYTE   PATT
  POIN2 Label_10_0187919C
 BYTE   PATT
  POIN2 Label_10_018791AF
// 066   ----------------------------------------
 BYTE   EOT
 BYTE   Dn2
 BYTE   W01
 BYTE   TIE  Cs2  v052
 BYTE   W06
 BYTE   W03
 BYTE   W03
 BYTE   W03
 BYTE   W03
 BYTE   W03
 BYTE   W03
 BYTE   W03
 BYTE   W03
 BYTE   W03
 BYTE   W03
 BYTE   W03
 BYTE   W03
 BYTE   W03
 BYTE   W03
 BYTE   W03
 BYTE   W03
 BYTE   W03
 BYTE   W04
 BYTE   W03
 BYTE   W03
 BYTE   W03
 BYTE   W03
 BYTE   W03
 BYTE   W03
 BYTE   W03
 BYTE   W03
 BYTE   W03
 BYTE   W03
 BYTE   W03
 BYTE   W02
// 067   ----------------------------------------
 BYTE   W92
 BYTE   W03
 BYTE   EOT
 BYTE   W01
// 068   ----------------------------------------
 BYTE   TIE  Cn2  v080
 BYTE   W12
 BYTE   W06
 BYTE   W06
 BYTE   W06
 BYTE   W06
 BYTE   W07
 BYTE   W06
 BYTE   W06
 BYTE   W06
 BYTE   W06
 BYTE   W06
 BYTE   W06
 BYTE   W07
 BYTE   W06
 BYTE   W04
 BYTE   PATT
  POIN2 Label_10_018791AF
// 069   ----------------------------------------
 BYTE   EOT
 BYTE   Cn2
 BYTE   W01
 BYTE   TIE  Cs2  v052
 BYTE   W12
 BYTE   W06
 BYTE   W06
 BYTE   W06
 BYTE   W06
 BYTE   W07
 BYTE   W06
 BYTE   W06
 BYTE   W06
 BYTE   W06
 BYTE   W06
 BYTE   W06
 BYTE   W07
 BYTE   W06
 BYTE   W04
 BYTE   PATT
  POIN2 Label_10_018791D6
// 070   ----------------------------------------
 BYTE   EOT
 BYTE   Cs2
 BYTE   W01
 BYTE   TIE  Cn2  v080
 BYTE   W96
// 071   ----------------------------------------
 BYTE   W92
 BYTE   W03
 BYTE   EOT
 BYTE   W01
// 072   ----------------------------------------
 BYTE   W96
// 073   ----------------------------------------
 BYTE   W96
// 074   ----------------------------------------
 BYTE   W96
// 075   ----------------------------------------
 BYTE   W96
// 076   ----------------------------------------
 BYTE   W96
// 077   ----------------------------------------
 BYTE   W96
// 078   ----------------------------------------
 BYTE   W96
// 079   ----------------------------------------
 BYTE   W96
// 080   ----------------------------------------
 BYTE   W96
// 081   ----------------------------------------
 BYTE   W96
// 082   ----------------------------------------
 BYTE   W96
// 083   ----------------------------------------
 BYTE   W96
// 084   ----------------------------------------
 BYTE   W96
// 085   ----------------------------------------
 BYTE   W96
// 086   ----------------------------------------
 BYTE   W96
// 087   ----------------------------------------
 BYTE   W96
// 088   ----------------------------------------
 BYTE   W96
// 089   ----------------------------------------
 BYTE   W96
// 090   ----------------------------------------
 BYTE   W96
// 091   ----------------------------------------
 BYTE   W96
// 092   ----------------------------------------
 BYTE   W96
// 093   ----------------------------------------
 BYTE   W96
// 094   ----------------------------------------
 BYTE   W96
// 095   ----------------------------------------
 BYTE   W96
// 096   ----------------------------------------
 BYTE   W96
// 097   ----------------------------------------
 BYTE   W96
// 098   ----------------------------------------
 BYTE   W96
// 099   ----------------------------------------
 BYTE   W96
// 100   ----------------------------------------
 BYTE   W96
// 101   ----------------------------------------
 BYTE   W96
// 102   ----------------------------------------
 BYTE   W96
// 103   ----------------------------------------
 BYTE   W96
// 104   ----------------------------------------
 BYTE   W96
// 105   ----------------------------------------
 BYTE   W96
// 106   ----------------------------------------
 BYTE   W96
// 107   ----------------------------------------
 BYTE   W96
// 108   ----------------------------------------
 BYTE   W96
// 109   ----------------------------------------
 BYTE   W96
// 110   ----------------------------------------
 BYTE   W96
// 111   ----------------------------------------
 BYTE   W96
// 112   ----------------------------------------
 BYTE   W96
// 113   ----------------------------------------
 BYTE   W96
// 114   ----------------------------------------
 BYTE   W96
// 115   ----------------------------------------
 BYTE   W96
// 116   ----------------------------------------
 BYTE   W96
// 117   ----------------------------------------
 BYTE   W96
// 118   ----------------------------------------
 BYTE   W96
// 119   ----------------------------------------
 BYTE   W96
// 120   ----------------------------------------
 BYTE   W96
// 121   ----------------------------------------
 BYTE   W96
// 122   ----------------------------------------
 BYTE   W96
// 123   ----------------------------------------
 BYTE   W96
// 124   ----------------------------------------
 BYTE   W96
// 125   ----------------------------------------
 BYTE   W96
// 126   ----------------------------------------
 BYTE   W96
// 127   ----------------------------------------
 BYTE   W96
// 128   ----------------------------------------
 BYTE   W96
// 129   ----------------------------------------
 BYTE   W96
// 130   ----------------------------------------
 BYTE   W96
// 131   ----------------------------------------
 BYTE   W96
// 132   ----------------------------------------
 BYTE   N92  Fs2
 BYTE   W96
// 133   ----------------------------------------
 BYTE   Gs2
 BYTE   W96
// 134   ----------------------------------------
 BYTE   An2
 BYTE   W96
// 135   ----------------------------------------
 BYTE   Gs2
 BYTE   W96
// 136   ----------------------------------------
 BYTE   Fs2
 BYTE   W96
// 137   ----------------------------------------
 BYTE   Gs2
 BYTE   W96
// 138   ----------------------------------------
 BYTE   An2
 BYTE   W96
// 139   ----------------------------------------
 BYTE   Bn2
 BYTE   W96
// 140   ----------------------------------------
 BYTE   W96
// 141   ----------------------------------------
 BYTE   W24
 BYTE   N23  Fn4
 BYTE   W24
 BYTE   Cn4
 BYTE   W24
 BYTE   Gn3
 BYTE   W24
// 142   ----------------------------------------
 BYTE   Gs3
 BYTE   W24
 BYTE   En3
 BYTE   W24
 BYTE   Fn3
 BYTE   W24
 BYTE   Dn3
 BYTE   W24
// 143   ----------------------------------------
 BYTE   W24
 BYTE   N23
 BYTE   W24
 BYTE   Cn3
 BYTE   W24
 BYTE   Gn2
 BYTE   W24
// 144   ----------------------------------------
 BYTE   Gs2
 BYTE   W24
 BYTE   En2
 BYTE   W24
 BYTE   Fn2
 BYTE   W24
 BYTE   Dn2
 BYTE   W24
 BYTE   PATT
  POIN2 Label_10_01879081
 BYTE   PATT
  POIN2 Label_10_01879093
 BYTE   PATT
  POIN2 Label_10_01879081
 BYTE   PATT
  POIN2 Label_10_01879093
// 145   ----------------------------------------
 BYTE   GoTo
  POIN2 Label_10_018790AB
 BYTE   FINE

//**************** Track 12 (Midi-Chn.11) ****************//

song07_012:
// 000   ----------------------------------------
 BYTE   KEYSH   song07_key+0
 BYTE   VOICE   48
 BYTE   VOL   80*song07_mvl/mxv
 BYTE   PAN   c_v-15
 BYTE   VOL   62*song07_mvl/mxv
 BYTE   PAN   c_v+0
 BYTE   VOL   72*song07_mvl/mxv
 BYTE   PAN   c_v-21
 BYTE   W96
// 001   ----------------------------------------
 BYTE   W96
// 002   ----------------------------------------
 BYTE   W96
// 003   ----------------------------------------
 BYTE   W96
// 004   ----------------------------------------
 BYTE   W96
// 005   ----------------------------------------
 BYTE   W96
// 006   ----------------------------------------
 BYTE   W96
// 007   ----------------------------------------
 BYTE   W96
// 008   ----------------------------------------
 BYTE   W96
// 009   ----------------------------------------
 BYTE   W96
// 010   ----------------------------------------
 BYTE   W96
// 011   ----------------------------------------
 BYTE   W96
// 012   ----------------------------------------
Label_11_01879300:
 BYTE   N23  Fs1  v080
 BYTE   W24
 BYTE   N07
 BYTE   W08
 BYTE   Gs1
 BYTE   W08
 BYTE   An1
 BYTE   W08
 BYTE   N15  Cs2
 BYTE   W16
 BYTE   An1
 BYTE   W16
 BYTE   Fs1
 BYTE   W16
 BYTE   PEND 
// 013   ----------------------------------------
Label_11_01879312:
 BYTE   N07  Dn1  v080
 BYTE   W08
 BYTE   Fs1
 BYTE   W08
 BYTE   An1
 BYTE   W08
 BYTE   N23  En2
 BYTE   W24
 BYTE   N15  Fn1
 BYTE   W16
 BYTE   N30  Fn2
 BYTE   W32
 BYTE   PEND 
 BYTE   PATT
  POIN2 Label_11_01879300
 BYTE   PATT
  POIN2 Label_11_01879312
// 014   ----------------------------------------
Label_11_0187932E:
 BYTE   PATT
  POIN2 Label_11_01879300
 BYTE   PATT
  POIN2 Label_11_01879312
 BYTE   PATT
  POIN2 Label_11_01879300
 BYTE   PATT
  POIN2 Label_11_01879312
// 015   ----------------------------------------
 BYTE   W96
// 016   ----------------------------------------
 BYTE   W96
// 017   ----------------------------------------
 BYTE   N92  En2  v080
 BYTE   W96
// 018   ----------------------------------------
 BYTE   Dn2
 BYTE   W96
// 019   ----------------------------------------
 BYTE   Cs2
 BYTE   W96
// 020   ----------------------------------------
 BYTE   Bn1
 BYTE   W96
// 021   ----------------------------------------
 BYTE   Gs1
 BYTE   W96
// 022   ----------------------------------------
 BYTE   Cs2
 BYTE   W96
// 023   ----------------------------------------
 BYTE   Bn1
 BYTE   W96
// 024   ----------------------------------------
 BYTE   Gs1
 BYTE   W96
// 025   ----------------------------------------
 BYTE   Fs1
 BYTE   W96
// 026   ----------------------------------------
 BYTE   En1
 BYTE   W96
// 027   ----------------------------------------
 BYTE   Ds2
 BYTE   W96
// 028   ----------------------------------------
 BYTE   Gs1
 BYTE   W96
// 029   ----------------------------------------
 BYTE   Dn2
 BYTE   W96
// 030   ----------------------------------------
 BYTE   Cs2
 BYTE   W96
// 031   ----------------------------------------
 BYTE   N23
 BYTE   W48
 BYTE   N05
 BYTE   W16
 BYTE   N05
 BYTE   W16
 BYTE   N05
 BYTE   W16
// 032   ----------------------------------------
 BYTE   N07  Fs1
 BYTE   W96
// 033   ----------------------------------------
 BYTE   W96
// 034   ----------------------------------------
 BYTE   N92  En2
 BYTE   W96
// 035   ----------------------------------------
 BYTE   Dn2
 BYTE   W96
// 036   ----------------------------------------
 BYTE   Cs2
 BYTE   W96
// 037   ----------------------------------------
 BYTE   Bn1
 BYTE   W96
// 038   ----------------------------------------
 BYTE   Gs1
 BYTE   W96
// 039   ----------------------------------------
 BYTE   N44  Cs2
 BYTE   W48
 BYTE   Fn2
 BYTE   W48
// 040   ----------------------------------------
 BYTE   N92  Fs2
 BYTE   W96
// 041   ----------------------------------------
 BYTE   N44  En2
 BYTE   W48
 BYTE   Gs2
 BYTE   W48
// 042   ----------------------------------------
 BYTE   Cs2
 BYTE   W48
 BYTE   Bn1
 BYTE   W48
// 043   ----------------------------------------
 BYTE   As1
 BYTE   W48
 BYTE   Fs1
 BYTE   W48
// 044   ----------------------------------------
 BYTE   TIE  Bn1
 BYTE   W96
// 045   ----------------------------------------
 BYTE   W92
 BYTE   W03
 BYTE   EOT
 BYTE   W01
// 046   ----------------------------------------
 BYTE   TIE  An1
 BYTE   W96
// 047   ----------------------------------------
 BYTE   W92
 BYTE   W03
 BYTE   EOT
 BYTE   W01
// 048   ----------------------------------------
 BYTE   TIE  Gn1
 BYTE   W96
// 049   ----------------------------------------
 BYTE   W96
// 050   ----------------------------------------
 BYTE   W96
// 051   ----------------------------------------
 BYTE   W92
 BYTE   W03
 BYTE   EOT
 BYTE   W01
// 052   ----------------------------------------
Label_11_018793A5:
 BYTE   N07  Cs1  v080
 BYTE   W16
 BYTE   N07
 BYTE   W08
 BYTE   N11
 BYTE   W48
 BYTE   N07
 BYTE   W16
 BYTE   N07
 BYTE   W08
 BYTE   PEND 
// 053   ----------------------------------------
Label_11_018793B2:
 BYTE   N11  Cs1  v080
 BYTE   W48
 BYTE   N23  Fs1
 BYTE   W24
 BYTE   Gs1
 BYTE   W24
 BYTE   PEND 
 BYTE   PATT
  POIN2 Label_11_018793A5
// 054   ----------------------------------------
Label_11_018793C1:
 BYTE   N11  Cs1  v080
 BYTE   W48
 BYTE   N23  Gs1
 BYTE   W24
 BYTE   Fs1
 BYTE   W24
 BYTE   PEND 
 BYTE   PATT
  POIN2 Label_11_018793A5
 BYTE   PATT
  POIN2 Label_11_018793B2
 BYTE   PATT
  POIN2 Label_11_018793A5
 BYTE   PATT
  POIN2 Label_11_018793C1
// 055   ----------------------------------------
 BYTE   N32  Fs2  v080
 BYTE   W96
// 056   ----------------------------------------
 BYTE   W96
// 057   ----------------------------------------
 BYTE   W24
 BYTE   N68  Bn1
 BYTE   W72
// 058   ----------------------------------------
 BYTE   N92  An1
 BYTE   W96
// 059   ----------------------------------------
 BYTE   Gn1
 BYTE   W96
// 060   ----------------------------------------
 BYTE   Cs1
 BYTE   W96
// 061   ----------------------------------------
 BYTE   Fs1
 BYTE   W96
// 062   ----------------------------------------
 BYTE   En1
 BYTE   W96
// 063   ----------------------------------------
 BYTE   W96
// 064   ----------------------------------------
 BYTE   W96
// 065   ----------------------------------------
 BYTE   W96
// 066   ----------------------------------------
 BYTE   W96
// 067   ----------------------------------------
 BYTE   TIE  Ds1  v064
 BYTE   W12
 BYTE   W12
 BYTE   W12
 BYTE   W12
 BYTE   W12
 BYTE   W12
 BYTE   W12
 BYTE   W12
// 068   ----------------------------------------
Label_11_01879402:
 BYTE   W12
 BYTE   W12
 BYTE   W12
 BYTE   W12
 BYTE   W12
 BYTE   W12
 BYTE   W12
 BYTE   W11
 BYTE   PEND 
 BYTE   EOT
 BYTE   Ds1
 BYTE   W01
// 069   ----------------------------------------
 BYTE   TIE  Dn1  v080
 BYTE   W12
 BYTE   W12
 BYTE   W12
 BYTE   W12
 BYTE   W12
 BYTE   W12
 BYTE   W12
 BYTE   W12
// 070   ----------------------------------------
 BYTE   W12
 BYTE   W12
 BYTE   W12
 BYTE   W12
 BYTE   W12
 BYTE   W12
 BYTE   W12
 BYTE   W11
 BYTE   EOT
 BYTE   W01
// 071   ----------------------------------------
 BYTE   W96
// 072   ----------------------------------------
 BYTE   W96
// 073   ----------------------------------------
 BYTE   W96
// 074   ----------------------------------------
 BYTE   W96
// 075   ----------------------------------------
 BYTE   TIE  Cs1  v064
 BYTE   W12
 BYTE   W12
 BYTE   W12
 BYTE   W12
 BYTE   W12
 BYTE   W12
 BYTE   W12
 BYTE   W12
 BYTE   PATT
  POIN2 Label_11_01879402
// 076   ----------------------------------------
 BYTE   EOT
 BYTE   Cs1
 BYTE   W01
 BYTE   TIE  Cn1  v080
 BYTE   W96
// 077   ----------------------------------------
 BYTE   W92
 BYTE   W03
 BYTE   EOT
 BYTE   W01
// 078   ----------------------------------------
 BYTE   W96
// 079   ----------------------------------------
 BYTE   W96
// 080   ----------------------------------------
 BYTE   W96
// 081   ----------------------------------------
 BYTE   W96
// 082   ----------------------------------------
 BYTE   W96
// 083   ----------------------------------------
 BYTE   W96
// 084   ----------------------------------------
 BYTE   W96
// 085   ----------------------------------------
 BYTE   W96
// 086   ----------------------------------------
 BYTE   W96
// 087   ----------------------------------------
 BYTE   W96
// 088   ----------------------------------------
 BYTE   W96
// 089   ----------------------------------------
 BYTE   W96
// 090   ----------------------------------------
 BYTE   W96
// 091   ----------------------------------------
 BYTE   W96
// 092   ----------------------------------------
 BYTE   W96
// 093   ----------------------------------------
 BYTE   W96
// 094   ----------------------------------------
 BYTE   W96
// 095   ----------------------------------------
 BYTE   W96
// 096   ----------------------------------------
 BYTE   W96
// 097   ----------------------------------------
 BYTE   W96
// 098   ----------------------------------------
 BYTE   W96
// 099   ----------------------------------------
 BYTE   W96
// 100   ----------------------------------------
 BYTE   W96
// 101   ----------------------------------------
 BYTE   W96
// 102   ----------------------------------------
 BYTE   W96
// 103   ----------------------------------------
 BYTE   W96
// 104   ----------------------------------------
 BYTE   W96
// 105   ----------------------------------------
 BYTE   W96
// 106   ----------------------------------------
 BYTE   W96
// 107   ----------------------------------------
 BYTE   W96
// 108   ----------------------------------------
 BYTE   W96
// 109   ----------------------------------------
 BYTE   W96
// 110   ----------------------------------------
 BYTE   W96
// 111   ----------------------------------------
 BYTE   W96
// 112   ----------------------------------------
 BYTE   W96
// 113   ----------------------------------------
 BYTE   W96
// 114   ----------------------------------------
 BYTE   W96
// 115   ----------------------------------------
 BYTE   W96
// 116   ----------------------------------------
 BYTE   W96
// 117   ----------------------------------------
 BYTE   W96
// 118   ----------------------------------------
 BYTE   W96
// 119   ----------------------------------------
 BYTE   W96
// 120   ----------------------------------------
 BYTE   W96
// 121   ----------------------------------------
 BYTE   W96
// 122   ----------------------------------------
 BYTE   W96
// 123   ----------------------------------------
 BYTE   W96
// 124   ----------------------------------------
 BYTE   W96
// 125   ----------------------------------------
 BYTE   W96
// 126   ----------------------------------------
 BYTE   W96
// 127   ----------------------------------------
 BYTE   W96
// 128   ----------------------------------------
 BYTE   W96
// 129   ----------------------------------------
 BYTE   W96
// 130   ----------------------------------------
 BYTE   W96
// 131   ----------------------------------------
 BYTE   W96
// 132   ----------------------------------------
 BYTE   W96
// 133   ----------------------------------------
 BYTE   W96
// 134   ----------------------------------------
Label_11_0187947A:
 BYTE   N07  Fs2  v096
 BYTE   W08
 BYTE   En2
 BYTE   W08
 BYTE   Fs2
 BYTE   W08
 BYTE   En3
 BYTE   W08
 BYTE   Fs3
 BYTE   W08
 BYTE   En2
 BYTE   W08
 BYTE   Fs2
 BYTE   W08
 BYTE   En2
 BYTE   W08
 BYTE   Ds3
 BYTE   W08
 BYTE   En3
 BYTE   W08
 BYTE   Cs3
 BYTE   W08
 BYTE   En2
 BYTE   W08
 BYTE   PEND 
// 135   ----------------------------------------
 BYTE   Fs2
 BYTE   W08
 BYTE   En2
 BYTE   W08
 BYTE   Bn2
 BYTE   W08
 BYTE   Cs3
 BYTE   W08
 BYTE   Fs2
 BYTE   W08
 BYTE   En2
 BYTE   W08
 BYTE   Fs2
 BYTE   W08
 BYTE   An2
 BYTE   W08
 BYTE   Dn2
 BYTE   W08
 BYTE   An2
 BYTE   W08
 BYTE   En2
 BYTE   W08
 BYTE   Bn2
 BYTE   W08
 BYTE   PATT
  POIN2 Label_11_0187947A
// 136   ----------------------------------------
 BYTE   N07  Fs2  v096
 BYTE   W08
 BYTE   En2
 BYTE   W08
 BYTE   Bn2
 BYTE   W08
 BYTE   En3
 BYTE   W08
 BYTE   Fs2
 BYTE   W08
 BYTE   En2
 BYTE   W08
 BYTE   Fs2
 BYTE   W08
 BYTE   An2
 BYTE   W08
 BYTE   Dn2
 BYTE   W08
 BYTE   An2
 BYTE   W08
 BYTE   En2
 BYTE   W08
 BYTE   Bn2
 BYTE   W08
// 137   ----------------------------------------
 BYTE   W96
// 138   ----------------------------------------
 BYTE   W96
// 139   ----------------------------------------
 BYTE   W96
// 140   ----------------------------------------
 BYTE   W96
// 141   ----------------------------------------
 BYTE   W96
// 142   ----------------------------------------
 BYTE   W96
// 143   ----------------------------------------
 BYTE   W96
// 144   ----------------------------------------
 BYTE   W96
// 145   ----------------------------------------
 BYTE   W96
// 146   ----------------------------------------
 BYTE   W96
// 147   ----------------------------------------
 BYTE   W96
// 148   ----------------------------------------
 BYTE   W96
// 149   ----------------------------------------
 BYTE   W96
// 150   ----------------------------------------
 BYTE   W96
// 151   ----------------------------------------
 BYTE   W96
// 152   ----------------------------------------
 BYTE   W96
// 153   ----------------------------------------
 BYTE   W96
// 154   ----------------------------------------
 BYTE   GoTo
  POIN2 Label_11_0187932E
 BYTE   FINE

//******************************************************//
	ALIGN 4

song07:
	BYTE	12	// NumTrks
	BYTE	0	// NumBlks
	BYTE	song07_pri	// Priority
	BYTE	song07_rev	// Reverb.
    
	POIN2	song07_grp
    
	POIN2	song07_001
	POIN2	song07_002
	POIN2	song07_003
	POIN2	song07_004
	POIN2	song07_005
	POIN2	song07_006
	POIN2	song07_007
	POIN2	song07_008
	POIN2	song07_009
	POIN2	song07_010
	POIN2	song07_011
	POIN2	song07_012

	
