//Event file generated from Sappy .s format.
	#include "MPlayDef.event"

	#define	FishOutOfWater_grp  voicegroup000
	#define	FishOutOfWater_pri  0
	#define	FishOutOfWater_rev  0
	#define	FishOutOfWater_mvl  127
	#define	FishOutOfWater_key  0
	#define	FishOutOfWater_tbs  1
	#define	FishOutOfWater_exg  0
	#define	FishOutOfWater_cmp  1

	// .rodata
	//	FishOutOfWater
	ALIGN 4

//**************** Track 1 (Midi-Chn.1) ****************//

FishOutOfWater_1:
	BYTE	KEYSH   FishOutOfWater_key+0
FishOutOfWater_1_B1:
// 000   ----------------------------------------
	BYTE	TEMPO   130*FishOutOfWater_tbs/2
	BYTE		VOICE   33
	BYTE		VOL     51*FishOutOfWater_mvl/mxv
	BYTE		PAN     c_v-64
	BYTE		N06     Dn2   v127
	BYTE	W06
	BYTE		N06   
	BYTE	W06
	BYTE		N06   
	BYTE	W06
	BYTE		N06   
	BYTE	W06
	BYTE		N06   
	BYTE	W06
	BYTE		N06   
	BYTE	W06
	BYTE		N06   
	BYTE	W06
	BYTE		N06   
	BYTE	W06
	BYTE		        Cn2 
	BYTE	W06
	BYTE		N06   
	BYTE	W06
	BYTE		N06   
	BYTE	W06
	BYTE		N06   
	BYTE	W06
	BYTE		N06   
	BYTE	W06
	BYTE		N06   
	BYTE	W06
	BYTE		N06   
	BYTE	W06
	BYTE		N06   
	BYTE	W06
// 001   ----------------------------------------
FishOutOfWater_1_001:
	BYTE		N06     As1   v127
	BYTE	W06
	BYTE		N06   
	BYTE	W06
	BYTE		N06   
	BYTE	W06
	BYTE		N06   
	BYTE	W06
	BYTE		N06   
	BYTE	W06
	BYTE		N06   
	BYTE	W06
	BYTE		N06   
	BYTE	W06
	BYTE		N06   
	BYTE	W06
	BYTE		N12   
	BYTE	W12
	BYTE		N06   
	BYTE	W06
	BYTE		N12     Cn2 
	BYTE	W12
	BYTE		N06     As1 
	BYTE	W06
	BYTE		N12     Cn2 
	BYTE	W12
	BYTE	PEND
// 002   ----------------------------------------
FishOutOfWater_1_002:
	BYTE		N06     Dn2   v127
	BYTE	W06
	BYTE		N06   
	BYTE	W06
	BYTE		N06   
	BYTE	W06
	BYTE		N06   
	BYTE	W06
	BYTE		N06   
	BYTE	W06
	BYTE		N06   
	BYTE	W06
	BYTE		N06   
	BYTE	W06
	BYTE		N06   
	BYTE	W06
	BYTE		        Cn2 
	BYTE	W06
	BYTE		N06   
	BYTE	W06
	BYTE		N06   
	BYTE	W06
	BYTE		N06   
	BYTE	W06
	BYTE		N06   
	BYTE	W06
	BYTE		N06   
	BYTE	W06
	BYTE		N06   
	BYTE	W06
	BYTE		N06   
	BYTE	W06
	BYTE	PEND
// 003   ----------------------------------------
FishOutOfWater_1_003:
	BYTE		N06     Bn1   v127
	BYTE	W06
	BYTE		N06   
	BYTE	W06
	BYTE		N06   
	BYTE	W06
	BYTE		N06   
	BYTE	W06
	BYTE		N06   
	BYTE	W06
	BYTE		N06   
	BYTE	W06
	BYTE		N06   
	BYTE	W06
	BYTE		N06   
	BYTE	W06
	BYTE		        As1 
	BYTE	W06
	BYTE		N06   
	BYTE	W06
	BYTE		N06   
	BYTE	W06
	BYTE		N06   
	BYTE	W06
	BYTE		N06   
	BYTE	W06
	BYTE		N06   
	BYTE	W06
	BYTE		N06   
	BYTE	W06
	BYTE		N06   
	BYTE	W06
	BYTE	PEND
// 004   ----------------------------------------
FishOutOfWater_1_004:
	BYTE		N18     An1   v127
	BYTE	W18
	BYTE		N12     An2 
	BYTE	W12
	BYTE		N06     Dn2 
	BYTE	W06
	BYTE		        En2 
	BYTE	W06
	BYTE		        An1 
	BYTE	W06
	BYTE		N18     Dn2 
	BYTE	W18
	BYTE		N12     Dn3 
	BYTE	W12
	BYTE		N06     Cn2 
	BYTE	W06
	BYTE		N12     Dn2 
	BYTE	W12
	BYTE	PEND
// 005   ----------------------------------------
FishOutOfWater_1_005:
	BYTE		N18     An1   v127
	BYTE	W18
	BYTE		N12     An2 
	BYTE	W12
	BYTE		N06     Dn2 
	BYTE	W06
	BYTE		        En2 
	BYTE	W06
	BYTE		        An1 
	BYTE	W06
	BYTE		N18     As1 
	BYTE	W18
	BYTE		N12     As2 
	BYTE	W12
	BYTE		N06     An1 
	BYTE	W06
	BYTE		        As1 
	BYTE	W06
	BYTE		        Dn2 
	BYTE	W06
	BYTE	PEND
// 006   ----------------------------------------
FishOutOfWater_1_006:
	BYTE		N06     Ds2   v127
	BYTE	W06
	BYTE		N06   
	BYTE	W06
	BYTE		N06   
	BYTE	W06
	BYTE		N06   
	BYTE	W06
	BYTE		N06   
	BYTE	W06
	BYTE		N06   
	BYTE	W06
	BYTE		N06   
	BYTE	W06
	BYTE		N06   
	BYTE	W06
	BYTE		        En2 
	BYTE	W06
	BYTE		N06   
	BYTE	W06
	BYTE		N06   
	BYTE	W06
	BYTE		N06   
	BYTE	W06
	BYTE		N06   
	BYTE	W06
	BYTE		N06   
	BYTE	W06
	BYTE		N06   
	BYTE	W06
	BYTE		N06   
	BYTE	W06
	BYTE	PEND
// 007   ----------------------------------------
FishOutOfWater_1_007:
	BYTE		N06     An1   v127
	BYTE	W06
	BYTE		N06   
	BYTE	W06
	BYTE		        Dn2 
	BYTE	W06
	BYTE		N12     En2 
	BYTE	W12
	BYTE		        Gn2 
	BYTE	W12
	BYTE		N06     En2 
	BYTE	W06
	BYTE		        An2 
	BYTE	W06
	BYTE		N06   
	BYTE	W06
	BYTE		N06   
	BYTE	W06
	BYTE		N12     An1 
	BYTE	W12
	BYTE		N06     An2 
	BYTE	W06
	BYTE		N12     An1 
	BYTE	W12
	BYTE	PEND
// 008   ----------------------------------------
FishOutOfWater_1_008:
	BYTE		N12     As1   v127
	BYTE	W12
	BYTE		N06     Dn2 
	BYTE	W06
	BYTE		        Fn2 
	BYTE	W06
	BYTE		        Gn1 
	BYTE	W06
	BYTE		N12     Gn2 
	BYTE	W12
	BYTE		        An1 
	BYTE	W12
	BYTE		N06     Cn2 
	BYTE	W06
	BYTE		        En2 
	BYTE	W06
	BYTE		N12     Dn2 
	BYTE	W12
	BYTE		N06     Cn2 
	BYTE	W06
	BYTE		N12     Dn2 
	BYTE	W12
	BYTE	PEND
// 009   ----------------------------------------
FishOutOfWater_1_009:
	BYTE		N06     Gn1   v127
	BYTE	W06
	BYTE		N06   
	BYTE	W06
	BYTE		N06   
	BYTE	W06
	BYTE		N06   
	BYTE	W06
	BYTE		N06   
	BYTE	W06
	BYTE		N06   
	BYTE	W06
	BYTE		N06   
	BYTE	W06
	BYTE		N06   
	BYTE	W06
	BYTE		N12     An1 
	BYTE	W12
	BYTE		N06     An2 
	BYTE	W06
	BYTE		N12     En2 
	BYTE	W12
	BYTE		N06   
	BYTE	W06
	BYTE		N12     An1 
	BYTE	W12
	BYTE	PEND
// 010   ----------------------------------------
	BYTE	PATT
	 POIN2	FishOutOfWater_1_008
// 011   ----------------------------------------
FishOutOfWater_1_011:
	BYTE		N06     Gn1   v127
	BYTE	W06
	BYTE		N06   
	BYTE	W06
	BYTE		N06   
	BYTE	W06
	BYTE		N06   
	BYTE	W06
	BYTE		N06   
	BYTE	W06
	BYTE		N06   
	BYTE	W06
	BYTE		N06   
	BYTE	W06
	BYTE		N06   
	BYTE	W06
	BYTE		N06   
	BYTE	W06
	BYTE		N06   
	BYTE	W06
	BYTE		N06   
	BYTE	W06
	BYTE		N06   
	BYTE	W06
	BYTE		N06   
	BYTE	W06
	BYTE		N06   
	BYTE	W06
	BYTE		N06   
	BYTE	W06
	BYTE		N06   
	BYTE	W06
	BYTE	PEND
// 012   ----------------------------------------
	BYTE	PATT
	 POIN2	FishOutOfWater_1_011
// 013   ----------------------------------------
FishOutOfWater_1_013:
	BYTE		N06     Gn1   v127
	BYTE	W06
	BYTE		N06   
	BYTE	W06
	BYTE		N06   
	BYTE	W06
	BYTE		N06   
	BYTE	W06
	BYTE		N06   
	BYTE	W06
	BYTE		N06   
	BYTE	W06
	BYTE		N06   
	BYTE	W06
	BYTE		N06   
	BYTE	W06
	BYTE		N06   
	BYTE	W06
	BYTE		        As1 
	BYTE	W06
	BYTE		        Cn2 
	BYTE	W06
	BYTE		N12     Dn2 
	BYTE	W12
	BYTE		        Fn2 
	BYTE	W12
	BYTE		N06     Dn2 
	BYTE	W06
	BYTE	PEND
// 014   ----------------------------------------
FishOutOfWater_1_014:
	BYTE		N06     Gn2   v127
	BYTE	W06
	BYTE		N06   
	BYTE	W06
	BYTE		N06   
	BYTE	W06
	BYTE		N06   
	BYTE	W06
	BYTE		N06   
	BYTE	W06
	BYTE		N06   
	BYTE	W06
	BYTE		N06   
	BYTE	W06
	BYTE		N12     Gs2 
	BYTE	W12
	BYTE		N06   
	BYTE	W06
	BYTE		N06   
	BYTE	W06
	BYTE		N06   
	BYTE	W06
	BYTE		N06   
	BYTE	W06
	BYTE		        Gs1 
	BYTE	W06
	BYTE		N12     As1 
	BYTE	W12
	BYTE	PEND
// 015   ----------------------------------------
FishOutOfWater_1_015:
	BYTE		N18     Cn2   v127
	BYTE	W18
	BYTE		N24     As1 
	BYTE	W24
	BYTE		N12     Fn1 
	BYTE	W12
	BYTE		N06   
	BYTE	W06
	BYTE		N06   
	BYTE	W06
	BYTE		N06   
	BYTE	W06
	BYTE		N06   
	BYTE	W06
	BYTE		N18     Gn1 
	BYTE	W18
	BYTE	PEND
// 016   ----------------------------------------
FishOutOfWater_1_016:
	BYTE		N18     Cn2   v127
	BYTE	W18
	BYTE		N24     As1 
	BYTE	W24
	BYTE		N12     Ds2 
	BYTE	W12
	BYTE		N06     Dn2 
	BYTE	W06
	BYTE		        Cn2 
	BYTE	W06
	BYTE		N18     Fs1 
	BYTE	W18
	BYTE		N12     Gn1 
	BYTE	W12
	BYTE	PEND
// 017   ----------------------------------------
	BYTE	PATT
	 POIN2	FishOutOfWater_1_015
// 018   ----------------------------------------
FishOutOfWater_1_018:
	BYTE		N18     Cn2   v127
	BYTE	W18
	BYTE		N24     As1 
	BYTE	W24
	BYTE		N12     Ds2 
	BYTE	W12
	BYTE		N06     Dn2 
	BYTE	W06
	BYTE		        Cn2 
	BYTE	W06
	BYTE		N30     Gs1 
	BYTE	W30
	BYTE	PEND
// 019   ----------------------------------------
	BYTE	PATT
	 POIN2	FishOutOfWater_1_015
// 020   ----------------------------------------
	BYTE	PATT
	 POIN2	FishOutOfWater_1_016
// 021   ----------------------------------------
	BYTE	PATT
	 POIN2	FishOutOfWater_1_015
// 022   ----------------------------------------
FishOutOfWater_1_022:
	BYTE		N18     Cn2   v127
	BYTE	W18
	BYTE		N24     As1 
	BYTE	W24
	BYTE		N12     Ds2 
	BYTE	W12
	BYTE		N06     Dn2 
	BYTE	W06
	BYTE		        Cn2 
	BYTE	W06
	BYTE		N12     Gs1 
	BYTE	W12
	BYTE		N06     Fs1 
	BYTE	W06
	BYTE		        Gn1 
	BYTE	W06
	BYTE		        Gs1 
	BYTE	W06
	BYTE	PEND
// 023   ----------------------------------------
FishOutOfWater_1_023:
	BYTE		N06     An1   v127
	BYTE	W06
	BYTE		N06   
	BYTE	W06
	BYTE		        Dn2 
	BYTE	W06
	BYTE		N12     En2 
	BYTE	W12
	BYTE		N06     Dn2 
	BYTE	W06
	BYTE		        En2 
	BYTE	W06
	BYTE		        Gn2 
	BYTE	W06
	BYTE		        An2 
	BYTE	W06
	BYTE		        Gn2 
	BYTE	W06
	BYTE		        Dn2 
	BYTE	W06
	BYTE		N12     En2 
	BYTE	W12
	BYTE		N06     An1 
	BYTE	W06
	BYTE		        Gn1 
	BYTE	W06
	BYTE		        An1 
	BYTE	W06
	BYTE	PEND
// 024   ----------------------------------------
FishOutOfWater_1_024:
	BYTE		N06     As1   v127
	BYTE	W06
	BYTE		N06   
	BYTE	W06
	BYTE		        En2 
	BYTE	W06
	BYTE		N12     Fn2 
	BYTE	W12
	BYTE		N06     Dn2 
	BYTE	W06
	BYTE		        Fn2 
	BYTE	W06
	BYTE		        An2 
	BYTE	W06
	BYTE		N12     As2 
	BYTE	W12
	BYTE		N06     Dn2 
	BYTE	W06
	BYTE		        Dn3 
	BYTE	W06
	BYTE		        Cn2 
	BYTE	W06
	BYTE		        Cn3 
	BYTE	W06
	BYTE		        As1 
	BYTE	W06
	BYTE		        As2 
	BYTE	W06
	BYTE	PEND
// 025   ----------------------------------------
	BYTE	PATT
	 POIN2	FishOutOfWater_1_023
// 026   ----------------------------------------
FishOutOfWater_1_026:
	BYTE		N06     As1   v127
	BYTE	W06
	BYTE		N06   
	BYTE	W06
	BYTE		        Fn2 
	BYTE	W06
	BYTE		N12     An2 
	BYTE	W12
	BYTE		N06     As2 
	BYTE	W06
	BYTE		        Dn3 
	BYTE	W06
	BYTE		        Fn2 
	BYTE	W06
	BYTE		        Gn2 
	BYTE	W06
	BYTE		N06   
	BYTE	W06
	BYTE		N06   
	BYTE	W06
	BYTE		N12     An2 
	BYTE	W12
	BYTE		N06     En2 
	BYTE	W06
	BYTE		N12     An1 
	BYTE	W12
	BYTE	PEND
// 027   ----------------------------------------
	BYTE	PATT
	 POIN2	FishOutOfWater_1_002
// 028   ----------------------------------------
	BYTE	PATT
	 POIN2	FishOutOfWater_1_001
// 029   ----------------------------------------
	BYTE	PATT
	 POIN2	FishOutOfWater_1_002
// 030   ----------------------------------------
	BYTE	PATT
	 POIN2	FishOutOfWater_1_003
// 031   ----------------------------------------
	BYTE	PATT
	 POIN2	FishOutOfWater_1_004
// 032   ----------------------------------------
	BYTE	PATT
	 POIN2	FishOutOfWater_1_005
// 033   ----------------------------------------
	BYTE	PATT
	 POIN2	FishOutOfWater_1_006
// 034   ----------------------------------------
	BYTE	PATT
	 POIN2	FishOutOfWater_1_007
// 035   ----------------------------------------
	BYTE	PATT
	 POIN2	FishOutOfWater_1_008
// 036   ----------------------------------------
	BYTE	PATT
	 POIN2	FishOutOfWater_1_009
// 037   ----------------------------------------
	BYTE	PATT
	 POIN2	FishOutOfWater_1_008
// 038   ----------------------------------------
	BYTE	PATT
	 POIN2	FishOutOfWater_1_011
// 039   ----------------------------------------
	BYTE	PATT
	 POIN2	FishOutOfWater_1_011
// 040   ----------------------------------------
	BYTE	PATT
	 POIN2	FishOutOfWater_1_013
// 041   ----------------------------------------
	BYTE	PATT
	 POIN2	FishOutOfWater_1_014
// 042   ----------------------------------------
	BYTE	PATT
	 POIN2	FishOutOfWater_1_015
// 043   ----------------------------------------
	BYTE	PATT
	 POIN2	FishOutOfWater_1_016
// 044   ----------------------------------------
	BYTE	PATT
	 POIN2	FishOutOfWater_1_015
// 045   ----------------------------------------
	BYTE	PATT
	 POIN2	FishOutOfWater_1_018
// 046   ----------------------------------------
	BYTE	PATT
	 POIN2	FishOutOfWater_1_015
// 047   ----------------------------------------
	BYTE	PATT
	 POIN2	FishOutOfWater_1_016
// 048   ----------------------------------------
	BYTE	PATT
	 POIN2	FishOutOfWater_1_015
// 049   ----------------------------------------
	BYTE	PATT
	 POIN2	FishOutOfWater_1_022
// 050   ----------------------------------------
	BYTE	PATT
	 POIN2	FishOutOfWater_1_023
// 051   ----------------------------------------
	BYTE	PATT
	 POIN2	FishOutOfWater_1_024
// 052   ----------------------------------------
	BYTE	PATT
	 POIN2	FishOutOfWater_1_023
// 053   ----------------------------------------
	BYTE	PATT
	 POIN2	FishOutOfWater_1_026
// 054   ----------------------------------------
	BYTE	PATT
	 POIN2	FishOutOfWater_1_002
// 055   ----------------------------------------
	BYTE	PATT
	 POIN2	FishOutOfWater_1_001
// 056   ----------------------------------------
	BYTE	PATT
	 POIN2	FishOutOfWater_1_002
// 057   ----------------------------------------
	BYTE	PATT
	 POIN2	FishOutOfWater_1_003
// 058   ----------------------------------------
	BYTE	PATT
	 POIN2	FishOutOfWater_1_004
// 059   ----------------------------------------
	BYTE	PATT
	 POIN2	FishOutOfWater_1_005
// 060   ----------------------------------------
	BYTE	PATT
	 POIN2	FishOutOfWater_1_006
// 061   ----------------------------------------
	BYTE	PATT
	 POIN2	FishOutOfWater_1_007
// 062   ----------------------------------------
	BYTE	PATT
	 POIN2	FishOutOfWater_1_008
// 063   ----------------------------------------
	BYTE	PATT
	 POIN2	FishOutOfWater_1_009
// 064   ----------------------------------------
	BYTE	PATT
	 POIN2	FishOutOfWater_1_008
// 065   ----------------------------------------
	BYTE	PATT
	 POIN2	FishOutOfWater_1_011
// 066   ----------------------------------------
	BYTE	PATT
	 POIN2	FishOutOfWater_1_011
// 067   ----------------------------------------
	BYTE	PATT
	 POIN2	FishOutOfWater_1_013
// 068   ----------------------------------------
	BYTE	PATT
	 POIN2	FishOutOfWater_1_014
// 069   ----------------------------------------
	BYTE	PATT
	 POIN2	FishOutOfWater_1_015
// 070   ----------------------------------------
	BYTE	PATT
	 POIN2	FishOutOfWater_1_016
// 071   ----------------------------------------
	BYTE	PATT
	 POIN2	FishOutOfWater_1_015
// 072   ----------------------------------------
	BYTE	PATT
	 POIN2	FishOutOfWater_1_018
// 073   ----------------------------------------
	BYTE	PATT
	 POIN2	FishOutOfWater_1_015
// 074   ----------------------------------------
	BYTE	PATT
	 POIN2	FishOutOfWater_1_016
// 075   ----------------------------------------
	BYTE	PATT
	 POIN2	FishOutOfWater_1_015
// 076   ----------------------------------------
	BYTE	PATT
	 POIN2	FishOutOfWater_1_022
// 077   ----------------------------------------
	BYTE	PATT
	 POIN2	FishOutOfWater_1_023
// 078   ----------------------------------------
	BYTE	PATT
	 POIN2	FishOutOfWater_1_024
// 079   ----------------------------------------
	BYTE	PATT
	 POIN2	FishOutOfWater_1_023
// 080   ----------------------------------------
	BYTE	PATT
	 POIN2	FishOutOfWater_1_026
// 081   ----------------------------------------
	BYTE	PATT
	 POIN2	FishOutOfWater_1_002
// 082   ----------------------------------------
	BYTE	PATT
	 POIN2	FishOutOfWater_1_001
// 083   ----------------------------------------
	BYTE	PATT
	 POIN2	FishOutOfWater_1_002
// 084   ----------------------------------------
	BYTE	PATT
	 POIN2	FishOutOfWater_1_003
// 085   ----------------------------------------
	BYTE	PATT
	 POIN2	FishOutOfWater_1_004
// 086   ----------------------------------------
	BYTE	PATT
	 POIN2	FishOutOfWater_1_005
// 087   ----------------------------------------
	BYTE	PATT
	 POIN2	FishOutOfWater_1_006
// 088   ----------------------------------------
	BYTE	PATT
	 POIN2	FishOutOfWater_1_007
// 089   ----------------------------------------
	BYTE	PATT
	 POIN2	FishOutOfWater_1_008
// 090   ----------------------------------------
	BYTE	PATT
	 POIN2	FishOutOfWater_1_009
// 091   ----------------------------------------
	BYTE	PATT
	 POIN2	FishOutOfWater_1_008
// 092   ----------------------------------------
	BYTE	PATT
	 POIN2	FishOutOfWater_1_011
// 093   ----------------------------------------
	BYTE	PATT
	 POIN2	FishOutOfWater_1_011
// 094   ----------------------------------------
	BYTE	PATT
	 POIN2	FishOutOfWater_1_013
// 095   ----------------------------------------
	BYTE	PATT
	 POIN2	FishOutOfWater_1_014
// 096   ----------------------------------------
	BYTE	PATT
	 POIN2	FishOutOfWater_1_015
// 097   ----------------------------------------
	BYTE	PATT
	 POIN2	FishOutOfWater_1_016
// 098   ----------------------------------------
	BYTE	PATT
	 POIN2	FishOutOfWater_1_015
// 099   ----------------------------------------
	BYTE	PATT
	 POIN2	FishOutOfWater_1_018
// 100   ----------------------------------------
	BYTE	PATT
	 POIN2	FishOutOfWater_1_015
// 101   ----------------------------------------
	BYTE	PATT
	 POIN2	FishOutOfWater_1_016
// 102   ----------------------------------------
	BYTE	PATT
	 POIN2	FishOutOfWater_1_015
// 103   ----------------------------------------
	BYTE	PATT
	 POIN2	FishOutOfWater_1_022
// 104   ----------------------------------------
	BYTE	PATT
	 POIN2	FishOutOfWater_1_023
// 105   ----------------------------------------
	BYTE	PATT
	 POIN2	FishOutOfWater_1_024
// 106   ----------------------------------------
	BYTE	PATT
	 POIN2	FishOutOfWater_1_023
// 107   ----------------------------------------
	BYTE		N06     As1   v127
	BYTE	W06
	BYTE		N06   
	BYTE	W06
	BYTE		        Fn2 
	BYTE	W06
	BYTE		N12     An2 
	BYTE	W12
	BYTE		N06     As2 
	BYTE	W06
	BYTE		        Dn3 
	BYTE	W06
	BYTE		        Fn2 
	BYTE	W06
	BYTE		        Gn2 
	BYTE	W06
	BYTE		N06   
	BYTE	W06
	BYTE		N06   
	BYTE	W06
	BYTE		N12     An2 
	BYTE	W12
	BYTE		N06     En2 
	BYTE	W06
	BYTE		N12     An1 
	BYTE	W11
	BYTE	GoTo
	 POIN2	FishOutOfWater_1_B1
FishOutOfWater_1_B2:
	BYTE	W01
// 108   ----------------------------------------
	BYTE	FINE

//**************** Track 2 (Midi-Chn.2) ****************//

FishOutOfWater_2:
	BYTE	KEYSH   FishOutOfWater_key+0
FishOutOfWater_2_B1:
// 000   ----------------------------------------
	BYTE		VOICE   40
	BYTE		VOL     57*FishOutOfWater_mvl/mxv
	BYTE		N30     An3   v127
	BYTE	W30
	BYTE		N06     Cn4 
	BYTE	W06
	BYTE		        Cs4 
	BYTE	W06
	BYTE		N12     Dn4 
	BYTE	W12
	BYTE		        Cn4 
	BYTE	W12
	BYTE		        An3 
	BYTE	W12
	BYTE		N06     Gn3 
	BYTE	W06
	BYTE		        Fn3 
	BYTE	W06
	BYTE		N18     En3 
	BYTE	W06
// 001   ----------------------------------------
FishOutOfWater_2_001:
	BYTE	W12
	BYTE		N06     Fn3   v127
	BYTE	W06
	BYTE		N72     Dn3 
	BYTE	W72
	BYTE	W03
	BYTE		N03     Gn3 
	BYTE	W03
	BYTE	PEND
// 002   ----------------------------------------
FishOutOfWater_2_002:
	BYTE		N30     An3   v127
	BYTE	W30
	BYTE		N06     Cn4 
	BYTE	W06
	BYTE		        Cs4 
	BYTE	W06
	BYTE		N30     Dn4 
	BYTE	W30
	BYTE		N06     Fn4 
	BYTE	W06
	BYTE		N12     Gn4 
	BYTE	W12
	BYTE		N18     An4 
	BYTE	W06
	BYTE	PEND
// 003   ----------------------------------------
FishOutOfWater_2_003:
	BYTE	W12
	BYTE		N12     An4   v127
	BYTE	W12
	BYTE		N06     Gn4 
	BYTE	W06
	BYTE		        Fn4 
	BYTE	W06
	BYTE		        Dn4 
	BYTE	W06
	BYTE		N12     Gn4 
	BYTE	W12
	BYTE		N42     Fn4 
	BYTE	W42
	BYTE	PEND
// 004   ----------------------------------------
FishOutOfWater_2_004:
	BYTE	W06
	BYTE		N06     En4   v127
	BYTE	W06
	BYTE		        Fn4 
	BYTE	W06
	BYTE		N12     En4 
	BYTE	W12
	BYTE		N06     Cn4 
	BYTE	W06
	BYTE		        An3 
	BYTE	W06
	BYTE		N12     Dn4 
	BYTE	W12
	BYTE		N06     Cn4 
	BYTE	W06
	BYTE		        An3 
	BYTE	W06
	BYTE		N12     Cn4 
	BYTE	W12
	BYTE		        Dn4 
	BYTE	W12
	BYTE		N06     Cn4 
	BYTE	W06
	BYTE	PEND
// 005   ----------------------------------------
FishOutOfWater_2_005:
	BYTE	W06
	BYTE		N06     En4   v127
	BYTE	W06
	BYTE		        Fn4 
	BYTE	W06
	BYTE		N12     En4 
	BYTE	W12
	BYTE		N06     Fn4 
	BYTE	W06
	BYTE		        Gn4 
	BYTE	W06
	BYTE		N12     An4 
	BYTE	W12
	BYTE		N06     Gn4 
	BYTE	W06
	BYTE		        En4 
	BYTE	W06
	BYTE		N12     Fn4 
	BYTE	W12
	BYTE		N06     En4 
	BYTE	W06
	BYTE		        Fn4 
	BYTE	W06
	BYTE		        Dn4 
	BYTE	W06
	BYTE	PEND
// 006   ----------------------------------------
FishOutOfWater_2_006:
	BYTE		N18     An4   v127
	BYTE	W18
	BYTE		        Gn4 
	BYTE	W18
	BYTE		N12     Dn4 
	BYTE	W12
	BYTE		N18     An4 
	BYTE	W18
	BYTE		        Gn4 
	BYTE	W18
	BYTE		N12     Dn4 
	BYTE	W12
	BYTE	PEND
// 007   ----------------------------------------
FishOutOfWater_2_007:
	BYTE		N48     En4   v127
	BYTE	W78
	BYTE		N06     Dn4 
	BYTE	W06
	BYTE		        Fn4 
	BYTE	W06
	BYTE		        Gn4 
	BYTE	W06
	BYTE	PEND
// 008   ----------------------------------------
FishOutOfWater_2_008:
	BYTE		N12     An4   v127
	BYTE	W12
	BYTE		N06     Fn4 
	BYTE	W06
	BYTE		        Dn4 
	BYTE	W06
	BYTE		        Gn4 
	BYTE	W06
	BYTE		N12     Fn4 
	BYTE	W12
	BYTE		        En4 
	BYTE	W12
	BYTE		N06     Cn4 
	BYTE	W06
	BYTE		        An3 
	BYTE	W06
	BYTE		N18     Dn4 
	BYTE	W18
	BYTE		N06     An3 
	BYTE	W06
	BYTE		N36     Gn3 
	BYTE	W06
	BYTE	PEND
// 009   ----------------------------------------
FishOutOfWater_2_009:
	BYTE	W30
	BYTE		N06     Fn3   v127
	BYTE	W06
	BYTE		        Gn3 
	BYTE	W06
	BYTE		N36     An3 
	BYTE	W36
	BYTE		N06     En4 
	BYTE	W06
	BYTE		        Fn4 
	BYTE	W06
	BYTE		        Gn4 
	BYTE	W06
	BYTE	PEND
// 010   ----------------------------------------
FishOutOfWater_2_010:
	BYTE		N12     An4   v127
	BYTE	W12
	BYTE		N06     Fn4 
	BYTE	W06
	BYTE		        Dn4 
	BYTE	W06
	BYTE		        Gn4 
	BYTE	W06
	BYTE		N12     Fn4 
	BYTE	W12
	BYTE		        En4 
	BYTE	W12
	BYTE		N06     Cn4 
	BYTE	W06
	BYTE		        An3 
	BYTE	W06
	BYTE		N18     Dn4 
	BYTE	W18
	BYTE		N06     An3 
	BYTE	W06
	BYTE		N84     Gn3 
	BYTE	W06
	BYTE	PEND
// 011   ----------------------------------------
FishOutOfWater_2_011:
	BYTE	W78
	BYTE		N06     En3   v127
	BYTE	W06
	BYTE		        Fn3 
	BYTE	W06
	BYTE		        Gn3 
	BYTE	W06
	BYTE	PEND
// 012   ----------------------------------------
FishOutOfWater_2_012:
	BYTE		N18     An3   v127
	BYTE	W18
	BYTE		N60     Gn3 
	BYTE	W60
	BYTE		N06     En4 
	BYTE	W06
	BYTE		        Fn4 
	BYTE	W06
	BYTE		        Gn4 
	BYTE	W06
	BYTE	PEND
// 013   ----------------------------------------
FishOutOfWater_2_013:
	BYTE		N18     An4   v127
	BYTE	W18
	BYTE		N60     Gn4 
	BYTE	W60
	BYTE		N06     En4 
	BYTE	W06
	BYTE		        Fn4 
	BYTE	W06
	BYTE		        Gn4 
	BYTE	W06
	BYTE	PEND
// 014   ----------------------------------------
FishOutOfWater_2_014:
	BYTE		N12     An4   v127
	BYTE	W12
	BYTE		N06     Gn4 
	BYTE	W06
	BYTE		N12     An4 
	BYTE	W12
	BYTE		N06     As4 
	BYTE	W06
	BYTE		        An4 
	BYTE	W06
	BYTE		N12     Gn4 
	BYTE	W12
	BYTE		N06   
	BYTE	W06
	BYTE		N06   
	BYTE	W06
	BYTE		N06   
	BYTE	W06
	BYTE		N12   
	BYTE	W24
	BYTE	PEND
// 015   ----------------------------------------
	BYTE	W96
// 016   ----------------------------------------
	BYTE	W96
// 017   ----------------------------------------
	BYTE	W96
// 018   ----------------------------------------
	BYTE	W96
// 019   ----------------------------------------
	BYTE	W96
// 020   ----------------------------------------
	BYTE	W96
// 021   ----------------------------------------
	BYTE	W96
// 022   ----------------------------------------
	BYTE	W96
// 023   ----------------------------------------
	BYTE	W96
// 024   ----------------------------------------
	BYTE	W96
// 025   ----------------------------------------
	BYTE	W96
// 026   ----------------------------------------
	BYTE	W96
// 027   ----------------------------------------
FishOutOfWater_2_027:
	BYTE		N30     An3   v127
	BYTE	W30
	BYTE		N06     Cn4 
	BYTE	W06
	BYTE		        Cs4 
	BYTE	W06
	BYTE		N12     Dn4 
	BYTE	W12
	BYTE		        Cn4 
	BYTE	W12
	BYTE		        An3 
	BYTE	W12
	BYTE		N06     Gn3 
	BYTE	W06
	BYTE		        Fn3 
	BYTE	W06
	BYTE		N18     En3 
	BYTE	W06
	BYTE	PEND
// 028   ----------------------------------------
	BYTE	PATT
	 POIN2	FishOutOfWater_2_001
// 029   ----------------------------------------
	BYTE	PATT
	 POIN2	FishOutOfWater_2_002
// 030   ----------------------------------------
	BYTE	PATT
	 POIN2	FishOutOfWater_2_003
// 031   ----------------------------------------
	BYTE	PATT
	 POIN2	FishOutOfWater_2_004
// 032   ----------------------------------------
	BYTE	PATT
	 POIN2	FishOutOfWater_2_005
// 033   ----------------------------------------
	BYTE	PATT
	 POIN2	FishOutOfWater_2_006
// 034   ----------------------------------------
	BYTE	PATT
	 POIN2	FishOutOfWater_2_007
// 035   ----------------------------------------
	BYTE	PATT
	 POIN2	FishOutOfWater_2_008
// 036   ----------------------------------------
	BYTE	PATT
	 POIN2	FishOutOfWater_2_009
// 037   ----------------------------------------
	BYTE	PATT
	 POIN2	FishOutOfWater_2_010
// 038   ----------------------------------------
	BYTE	PATT
	 POIN2	FishOutOfWater_2_011
// 039   ----------------------------------------
	BYTE	PATT
	 POIN2	FishOutOfWater_2_012
// 040   ----------------------------------------
	BYTE	PATT
	 POIN2	FishOutOfWater_2_013
// 041   ----------------------------------------
	BYTE	PATT
	 POIN2	FishOutOfWater_2_014
// 042   ----------------------------------------
	BYTE	W96
// 043   ----------------------------------------
	BYTE	W96
// 044   ----------------------------------------
	BYTE	W96
// 045   ----------------------------------------
	BYTE	W96
// 046   ----------------------------------------
	BYTE	W96
// 047   ----------------------------------------
	BYTE	W96
// 048   ----------------------------------------
	BYTE	W96
// 049   ----------------------------------------
	BYTE	W96
// 050   ----------------------------------------
	BYTE	W96
// 051   ----------------------------------------
	BYTE	W96
// 052   ----------------------------------------
	BYTE	W96
// 053   ----------------------------------------
	BYTE	W96
// 054   ----------------------------------------
	BYTE	PATT
	 POIN2	FishOutOfWater_2_027
// 055   ----------------------------------------
	BYTE	PATT
	 POIN2	FishOutOfWater_2_001
// 056   ----------------------------------------
	BYTE	PATT
	 POIN2	FishOutOfWater_2_002
// 057   ----------------------------------------
	BYTE	PATT
	 POIN2	FishOutOfWater_2_003
// 058   ----------------------------------------
	BYTE	PATT
	 POIN2	FishOutOfWater_2_004
// 059   ----------------------------------------
	BYTE	PATT
	 POIN2	FishOutOfWater_2_005
// 060   ----------------------------------------
	BYTE	PATT
	 POIN2	FishOutOfWater_2_006
// 061   ----------------------------------------
	BYTE	PATT
	 POIN2	FishOutOfWater_2_007
// 062   ----------------------------------------
	BYTE	PATT
	 POIN2	FishOutOfWater_2_008
// 063   ----------------------------------------
	BYTE	PATT
	 POIN2	FishOutOfWater_2_009
// 064   ----------------------------------------
	BYTE	PATT
	 POIN2	FishOutOfWater_2_010
// 065   ----------------------------------------
	BYTE	PATT
	 POIN2	FishOutOfWater_2_011
// 066   ----------------------------------------
	BYTE	PATT
	 POIN2	FishOutOfWater_2_012
// 067   ----------------------------------------
	BYTE	PATT
	 POIN2	FishOutOfWater_2_013
// 068   ----------------------------------------
	BYTE	PATT
	 POIN2	FishOutOfWater_2_014
// 069   ----------------------------------------
	BYTE	W96
// 070   ----------------------------------------
	BYTE	W96
// 071   ----------------------------------------
	BYTE	W96
// 072   ----------------------------------------
	BYTE	W96
// 073   ----------------------------------------
	BYTE	W96
// 074   ----------------------------------------
	BYTE	W96
// 075   ----------------------------------------
	BYTE	W96
// 076   ----------------------------------------
	BYTE	W96
// 077   ----------------------------------------
	BYTE	W96
// 078   ----------------------------------------
	BYTE	W96
// 079   ----------------------------------------
	BYTE	W96
// 080   ----------------------------------------
	BYTE	W96
// 081   ----------------------------------------
	BYTE	PATT
	 POIN2	FishOutOfWater_2_027
// 082   ----------------------------------------
	BYTE	PATT
	 POIN2	FishOutOfWater_2_001
// 083   ----------------------------------------
	BYTE	PATT
	 POIN2	FishOutOfWater_2_002
// 084   ----------------------------------------
	BYTE	PATT
	 POIN2	FishOutOfWater_2_003
// 085   ----------------------------------------
	BYTE	PATT
	 POIN2	FishOutOfWater_2_004
// 086   ----------------------------------------
	BYTE	PATT
	 POIN2	FishOutOfWater_2_005
// 087   ----------------------------------------
	BYTE	PATT
	 POIN2	FishOutOfWater_2_006
// 088   ----------------------------------------
	BYTE	PATT
	 POIN2	FishOutOfWater_2_007
// 089   ----------------------------------------
	BYTE	PATT
	 POIN2	FishOutOfWater_2_008
// 090   ----------------------------------------
	BYTE	PATT
	 POIN2	FishOutOfWater_2_009
// 091   ----------------------------------------
	BYTE	PATT
	 POIN2	FishOutOfWater_2_010
// 092   ----------------------------------------
	BYTE	PATT
	 POIN2	FishOutOfWater_2_011
// 093   ----------------------------------------
	BYTE	PATT
	 POIN2	FishOutOfWater_2_012
// 094   ----------------------------------------
	BYTE	PATT
	 POIN2	FishOutOfWater_2_013
// 095   ----------------------------------------
	BYTE	PATT
	 POIN2	FishOutOfWater_2_014
// 096   ----------------------------------------
	BYTE	W96
// 097   ----------------------------------------
	BYTE	W96
// 098   ----------------------------------------
	BYTE	W96
// 099   ----------------------------------------
	BYTE	W96
// 100   ----------------------------------------
	BYTE	W96
// 101   ----------------------------------------
	BYTE	W96
// 102   ----------------------------------------
	BYTE	W96
// 103   ----------------------------------------
	BYTE	W96
// 104   ----------------------------------------
	BYTE	W96
// 105   ----------------------------------------
	BYTE	W96
// 106   ----------------------------------------
	BYTE	W96
// 107   ----------------------------------------
	BYTE	W92
	BYTE	W03
	BYTE	GoTo
	 POIN2	FishOutOfWater_2_B1
FishOutOfWater_2_B2:
	BYTE	W01
// 108   ----------------------------------------
	BYTE	FINE

//**************** Track 3 (Midi-Chn.3) ****************//

FishOutOfWater_3:
	BYTE	KEYSH   FishOutOfWater_key+0
FishOutOfWater_3_B1:
// 000   ----------------------------------------
	BYTE		VOICE   80
	BYTE		VOL     31*FishOutOfWater_mvl/mxv
	BYTE		N48     An2   v127
	BYTE		N48     Dn3 
	BYTE	W48
	BYTE		        Gn2 
	BYTE		N48     Cn3 
	BYTE	W48
// 001   ----------------------------------------
	BYTE		        As2 
	BYTE		N48     Dn3 
	BYTE	W96
// 002   ----------------------------------------
FishOutOfWater_3_002:
	BYTE		N48     An2   v127
	BYTE		N48     Dn3 
	BYTE	W48
	BYTE		        Gn2 
	BYTE		N48     Cn3 
	BYTE	W48
	BYTE	PEND
// 003   ----------------------------------------
FishOutOfWater_3_003:
	BYTE		N48     Bn2   v127
	BYTE		N48     Dn3 
	BYTE	W48
	BYTE		        As2 
	BYTE		N48     Dn3 
	BYTE	W48
	BYTE	PEND
// 004   ----------------------------------------
FishOutOfWater_3_004:
	BYTE	W18
	BYTE		N18     An3   v127
	BYTE	W18
	BYTE		N12     Gn3 
	BYTE	W12
	BYTE		N48     Fn3 
	BYTE	W48
	BYTE	PEND
// 005   ----------------------------------------
	BYTE	PATT
	 POIN2	FishOutOfWater_3_004
// 006   ----------------------------------------
FishOutOfWater_3_006:
	BYTE		N48     An4   v127
	BYTE	W48
	BYTE		N48   
	BYTE	W48
	BYTE	PEND
// 007   ----------------------------------------
FishOutOfWater_3_007:
	BYTE		N48     An4   v127
	BYTE	W66
	BYTE		N03     An3 
	BYTE	W03
	BYTE		N04     Cs4 
	BYTE	W04
	BYTE		N03     En4 
	BYTE	W03
	BYTE		N04     Gn4 
	BYTE	W05
	BYTE		N03     An4 
	BYTE	W03
	BYTE		N04     Cs5 
	BYTE	W04
	BYTE		N03     En5 
	BYTE	W03
	BYTE		N04     Gn5 
	BYTE	W05
	BYTE	PEND
// 008   ----------------------------------------
	BYTE	W96
// 009   ----------------------------------------
	BYTE	W96
// 010   ----------------------------------------
	BYTE	W96
// 011   ----------------------------------------
FishOutOfWater_3_011:
	BYTE		N24     An3   v127
	BYTE	W24
	BYTE		N24   
	BYTE	W24
	BYTE		N24   
	BYTE	W24
	BYTE		N24   
	BYTE	W24
	BYTE	PEND
// 012   ----------------------------------------
	BYTE	PATT
	 POIN2	FishOutOfWater_3_011
// 013   ----------------------------------------
	BYTE	PATT
	 POIN2	FishOutOfWater_3_011
// 014   ----------------------------------------
FishOutOfWater_3_014:
	BYTE		N12     An4   v127
	BYTE	W12
	BYTE		N06     Gn4 
	BYTE	W06
	BYTE		N12     An4 
	BYTE	W12
	BYTE		N06     As4 
	BYTE	W06
	BYTE		        An4 
	BYTE	W06
	BYTE		N48     Gn4 
	BYTE	W54
	BYTE	PEND
// 015   ----------------------------------------
FishOutOfWater_3_015:
	BYTE		N06     As4   v127
	BYTE	W06
	BYTE		        Cn5 
	BYTE	W06
	BYTE		N06   
	BYTE	W06
	BYTE		        As4 
	BYTE	W06
	BYTE		        Cn5 
	BYTE	W06
	BYTE		        As4 
	BYTE	W06
	BYTE		        Cn5 
	BYTE	W06
	BYTE		N06   
	BYTE	W06
	BYTE		        As4 
	BYTE	W06
	BYTE		        Cn5 
	BYTE	W06
	BYTE		        As4 
	BYTE	W06
	BYTE		        Cn5 
	BYTE	W06
	BYTE		N06   
	BYTE	W06
	BYTE		        As4 
	BYTE	W06
	BYTE		        Cn5 
	BYTE	W06
	BYTE		N06   
	BYTE	W06
	BYTE	PEND
// 016   ----------------------------------------
	BYTE	PATT
	 POIN2	FishOutOfWater_3_015
// 017   ----------------------------------------
	BYTE	PATT
	 POIN2	FishOutOfWater_3_015
// 018   ----------------------------------------
	BYTE	PATT
	 POIN2	FishOutOfWater_3_015
// 019   ----------------------------------------
	BYTE	PATT
	 POIN2	FishOutOfWater_3_015
// 020   ----------------------------------------
	BYTE	PATT
	 POIN2	FishOutOfWater_3_015
// 021   ----------------------------------------
	BYTE	PATT
	 POIN2	FishOutOfWater_3_015
// 022   ----------------------------------------
	BYTE	PATT
	 POIN2	FishOutOfWater_3_015
// 023   ----------------------------------------
	BYTE	W96
// 024   ----------------------------------------
FishOutOfWater_3_024:
	BYTE	W30
	BYTE		N06     An3   v127
	BYTE	W06
	BYTE		        Cn4 
	BYTE	W06
	BYTE		        Dn4 
	BYTE	W06
	BYTE		N18     En4 
	BYTE	W18
	BYTE		N30     Dn4 
	BYTE	W30
	BYTE	PEND
// 025   ----------------------------------------
	BYTE	W96
// 026   ----------------------------------------
FishOutOfWater_3_026:
	BYTE	W48
	BYTE		N24     Fn2   v127
	BYTE		N24     As2 
	BYTE	W24
	BYTE		        Gn2 
	BYTE		N24     Cn3 
	BYTE	W24
	BYTE	PEND
// 027   ----------------------------------------
	BYTE	PATT
	 POIN2	FishOutOfWater_3_002
// 028   ----------------------------------------
	BYTE		N48     As2   v127
	BYTE		N48     Dn3 
	BYTE	W96
// 029   ----------------------------------------
	BYTE	PATT
	 POIN2	FishOutOfWater_3_002
// 030   ----------------------------------------
	BYTE	PATT
	 POIN2	FishOutOfWater_3_003
// 031   ----------------------------------------
	BYTE	PATT
	 POIN2	FishOutOfWater_3_004
// 032   ----------------------------------------
	BYTE	PATT
	 POIN2	FishOutOfWater_3_004
// 033   ----------------------------------------
	BYTE	PATT
	 POIN2	FishOutOfWater_3_006
// 034   ----------------------------------------
	BYTE	PATT
	 POIN2	FishOutOfWater_3_007
// 035   ----------------------------------------
	BYTE	W96
// 036   ----------------------------------------
	BYTE	W96
// 037   ----------------------------------------
	BYTE	W96
// 038   ----------------------------------------
	BYTE	PATT
	 POIN2	FishOutOfWater_3_011
// 039   ----------------------------------------
	BYTE	PATT
	 POIN2	FishOutOfWater_3_011
// 040   ----------------------------------------
	BYTE	PATT
	 POIN2	FishOutOfWater_3_011
// 041   ----------------------------------------
	BYTE	PATT
	 POIN2	FishOutOfWater_3_014
// 042   ----------------------------------------
	BYTE	PATT
	 POIN2	FishOutOfWater_3_015
// 043   ----------------------------------------
	BYTE	PATT
	 POIN2	FishOutOfWater_3_015
// 044   ----------------------------------------
	BYTE	PATT
	 POIN2	FishOutOfWater_3_015
// 045   ----------------------------------------
	BYTE	PATT
	 POIN2	FishOutOfWater_3_015
// 046   ----------------------------------------
	BYTE	PATT
	 POIN2	FishOutOfWater_3_015
// 047   ----------------------------------------
	BYTE	PATT
	 POIN2	FishOutOfWater_3_015
// 048   ----------------------------------------
	BYTE	PATT
	 POIN2	FishOutOfWater_3_015
// 049   ----------------------------------------
	BYTE	PATT
	 POIN2	FishOutOfWater_3_015
// 050   ----------------------------------------
	BYTE	W96
// 051   ----------------------------------------
	BYTE	PATT
	 POIN2	FishOutOfWater_3_024
// 052   ----------------------------------------
	BYTE	W96
// 053   ----------------------------------------
	BYTE	PATT
	 POIN2	FishOutOfWater_3_026
// 054   ----------------------------------------
	BYTE	PATT
	 POIN2	FishOutOfWater_3_002
// 055   ----------------------------------------
	BYTE		N48     As2   v127
	BYTE		N48     Dn3 
	BYTE	W96
// 056   ----------------------------------------
	BYTE	PATT
	 POIN2	FishOutOfWater_3_002
// 057   ----------------------------------------
	BYTE	PATT
	 POIN2	FishOutOfWater_3_003
// 058   ----------------------------------------
	BYTE	PATT
	 POIN2	FishOutOfWater_3_004
// 059   ----------------------------------------
	BYTE	PATT
	 POIN2	FishOutOfWater_3_004
// 060   ----------------------------------------
	BYTE	PATT
	 POIN2	FishOutOfWater_3_006
// 061   ----------------------------------------
	BYTE	PATT
	 POIN2	FishOutOfWater_3_007
// 062   ----------------------------------------
	BYTE	W96
// 063   ----------------------------------------
	BYTE	W96
// 064   ----------------------------------------
	BYTE	W96
// 065   ----------------------------------------
	BYTE	PATT
	 POIN2	FishOutOfWater_3_011
// 066   ----------------------------------------
	BYTE	PATT
	 POIN2	FishOutOfWater_3_011
// 067   ----------------------------------------
	BYTE	PATT
	 POIN2	FishOutOfWater_3_011
// 068   ----------------------------------------
	BYTE	PATT
	 POIN2	FishOutOfWater_3_014
// 069   ----------------------------------------
	BYTE	PATT
	 POIN2	FishOutOfWater_3_015
// 070   ----------------------------------------
	BYTE	PATT
	 POIN2	FishOutOfWater_3_015
// 071   ----------------------------------------
	BYTE	PATT
	 POIN2	FishOutOfWater_3_015
// 072   ----------------------------------------
	BYTE	PATT
	 POIN2	FishOutOfWater_3_015
// 073   ----------------------------------------
	BYTE	PATT
	 POIN2	FishOutOfWater_3_015
// 074   ----------------------------------------
	BYTE	PATT
	 POIN2	FishOutOfWater_3_015
// 075   ----------------------------------------
	BYTE	PATT
	 POIN2	FishOutOfWater_3_015
// 076   ----------------------------------------
	BYTE	PATT
	 POIN2	FishOutOfWater_3_015
// 077   ----------------------------------------
	BYTE	W96
// 078   ----------------------------------------
	BYTE	PATT
	 POIN2	FishOutOfWater_3_024
// 079   ----------------------------------------
	BYTE	W96
// 080   ----------------------------------------
	BYTE	PATT
	 POIN2	FishOutOfWater_3_026
// 081   ----------------------------------------
	BYTE	PATT
	 POIN2	FishOutOfWater_3_002
// 082   ----------------------------------------
	BYTE		N48     As2   v127
	BYTE		N48     Dn3 
	BYTE	W96
// 083   ----------------------------------------
	BYTE	PATT
	 POIN2	FishOutOfWater_3_002
// 084   ----------------------------------------
	BYTE	PATT
	 POIN2	FishOutOfWater_3_003
// 085   ----------------------------------------
	BYTE	PATT
	 POIN2	FishOutOfWater_3_004
// 086   ----------------------------------------
	BYTE	PATT
	 POIN2	FishOutOfWater_3_004
// 087   ----------------------------------------
	BYTE	PATT
	 POIN2	FishOutOfWater_3_006
// 088   ----------------------------------------
	BYTE	PATT
	 POIN2	FishOutOfWater_3_007
// 089   ----------------------------------------
	BYTE	W96
// 090   ----------------------------------------
	BYTE	W96
// 091   ----------------------------------------
	BYTE	W96
// 092   ----------------------------------------
	BYTE	PATT
	 POIN2	FishOutOfWater_3_011
// 093   ----------------------------------------
	BYTE	PATT
	 POIN2	FishOutOfWater_3_011
// 094   ----------------------------------------
	BYTE	PATT
	 POIN2	FishOutOfWater_3_011
// 095   ----------------------------------------
	BYTE	PATT
	 POIN2	FishOutOfWater_3_014
// 096   ----------------------------------------
	BYTE	PATT
	 POIN2	FishOutOfWater_3_015
// 097   ----------------------------------------
	BYTE	PATT
	 POIN2	FishOutOfWater_3_015
// 098   ----------------------------------------
	BYTE	PATT
	 POIN2	FishOutOfWater_3_015
// 099   ----------------------------------------
	BYTE	PATT
	 POIN2	FishOutOfWater_3_015
// 100   ----------------------------------------
	BYTE	PATT
	 POIN2	FishOutOfWater_3_015
// 101   ----------------------------------------
	BYTE	PATT
	 POIN2	FishOutOfWater_3_015
// 102   ----------------------------------------
	BYTE	PATT
	 POIN2	FishOutOfWater_3_015
// 103   ----------------------------------------
	BYTE	PATT
	 POIN2	FishOutOfWater_3_015
// 104   ----------------------------------------
	BYTE	W96
// 105   ----------------------------------------
	BYTE	PATT
	 POIN2	FishOutOfWater_3_024
// 106   ----------------------------------------
	BYTE	W96
// 107   ----------------------------------------
	BYTE	W48
	BYTE		N24     Fn2   v127
	BYTE		N24     As2 
	BYTE	W24
	BYTE		        Gn2 
	BYTE		N24     Cn3 
	BYTE	W23
	BYTE	GoTo
	 POIN2	FishOutOfWater_3_B1
FishOutOfWater_3_B2:
	BYTE	W01
// 108   ----------------------------------------
	BYTE	FINE

//**************** Track 4 (Midi-Chn.4) ****************//

FishOutOfWater_4:
	BYTE	KEYSH   FishOutOfWater_key+0
FishOutOfWater_4_B1:
// 000   ----------------------------------------
	BYTE		VOICE   80
	BYTE		VOL     29*FishOutOfWater_mvl/mxv
	BYTE		N03     Fn3   v127
	BYTE	W03
	BYTE		        En3 
	BYTE	W03
	BYTE		N06     Dn3 
	BYTE	W06
	BYTE		N03     Fn3 
	BYTE	W03
	BYTE		        En3 
	BYTE	W03
	BYTE		N06     Dn3 
	BYTE	W06
	BYTE		N03     Fn3 
	BYTE	W03
	BYTE		        En3 
	BYTE	W03
	BYTE		N06     Dn3 
	BYTE	W06
	BYTE		N03     Fn3 
	BYTE	W03
	BYTE		        En3 
	BYTE	W03
	BYTE		N06     Dn3 
	BYTE	W06
	BYTE		N03     Fn3 
	BYTE	W03
	BYTE		        En3 
	BYTE	W03
	BYTE		N06     Dn3 
	BYTE	W06
	BYTE		N03     Fn3 
	BYTE	W03
	BYTE		        En3 
	BYTE	W03
	BYTE		N06     Dn3 
	BYTE	W06
	BYTE		N03     Fn3 
	BYTE	W03
	BYTE		        En3 
	BYTE	W03
	BYTE		N06     Dn3 
	BYTE	W06
	BYTE		N03     Fn3 
	BYTE	W03
	BYTE		        En3 
	BYTE	W03
	BYTE		N06     Dn3 
	BYTE	W06
// 001   ----------------------------------------
FishOutOfWater_4_001:
	BYTE		N03     Fn3   v127
	BYTE	W03
	BYTE		        En3 
	BYTE	W03
	BYTE		N06     Dn3 
	BYTE	W06
	BYTE		N03     Fn3 
	BYTE	W03
	BYTE		        En3 
	BYTE	W03
	BYTE		N06     Dn3 
	BYTE	W06
	BYTE		N03     Fn3 
	BYTE	W03
	BYTE		        En3 
	BYTE	W03
	BYTE		N06     Dn3 
	BYTE	W06
	BYTE		N03     Fn3 
	BYTE	W03
	BYTE		        En3 
	BYTE	W03
	BYTE		N06     Dn3 
	BYTE	W06
	BYTE		N24     Fn3 
	BYTE	W36
	BYTE		N03     Cn5 
	BYTE	W03
	BYTE		        Gn4 
	BYTE	W03
	BYTE		        En4 
	BYTE	W03
	BYTE		        Cn4 
	BYTE	W03
	BYTE	PEND
// 002   ----------------------------------------
FishOutOfWater_4_002:
	BYTE		N03     Fn3   v127
	BYTE	W03
	BYTE		        En3 
	BYTE	W03
	BYTE		N06     Dn3 
	BYTE	W06
	BYTE		N03     Fn3 
	BYTE	W03
	BYTE		        En3 
	BYTE	W03
	BYTE		N06     Dn3 
	BYTE	W06
	BYTE		N03     Fn3 
	BYTE	W03
	BYTE		        En3 
	BYTE	W03
	BYTE		N06     Dn3 
	BYTE	W06
	BYTE		N03     Fn3 
	BYTE	W03
	BYTE		        En3 
	BYTE	W03
	BYTE		N06     Dn3 
	BYTE	W06
	BYTE		N03     Fn3 
	BYTE	W03
	BYTE		        En3 
	BYTE	W03
	BYTE		N06     Dn3 
	BYTE	W06
	BYTE		N03     Fn3 
	BYTE	W03
	BYTE		        En3 
	BYTE	W03
	BYTE		N06     Dn3 
	BYTE	W06
	BYTE		N03     Fn3 
	BYTE	W03
	BYTE		        En3 
	BYTE	W03
	BYTE		N06     Dn3 
	BYTE	W06
	BYTE		N03     Fn3 
	BYTE	W03
	BYTE		        En3 
	BYTE	W03
	BYTE		N06     Dn3 
	BYTE	W06
	BYTE	PEND
// 003   ----------------------------------------
FishOutOfWater_4_003:
	BYTE		N03     Fn3   v127
	BYTE	W03
	BYTE		        En3 
	BYTE	W03
	BYTE		N06     Dn3 
	BYTE	W06
	BYTE		N03     Fn3 
	BYTE	W03
	BYTE		        En3 
	BYTE	W03
	BYTE		N06     Dn3 
	BYTE	W06
	BYTE		N03     Fn3 
	BYTE	W03
	BYTE		        En3 
	BYTE	W03
	BYTE		N06     Dn3 
	BYTE	W06
	BYTE		N03     Fn3 
	BYTE	W03
	BYTE		        En3 
	BYTE	W03
	BYTE		N06     Dn3 
	BYTE	W12
	BYTE		        As3 
	BYTE	W12
	BYTE		        Dn4 
	BYTE	W12
	BYTE		        Fn4 
	BYTE	W12
	BYTE		        Dn4 
	BYTE	W06
	BYTE	PEND
// 004   ----------------------------------------
FishOutOfWater_4_004:
	BYTE	W24
	BYTE		N18     An3   v104
	BYTE	W18
	BYTE		N12     Gn3 
	BYTE	W12
	BYTE		N48     Fn3 
	BYTE	W42
	BYTE	PEND
// 005   ----------------------------------------
	BYTE	PATT
	 POIN2	FishOutOfWater_4_004
// 006   ----------------------------------------
FishOutOfWater_4_006:
	BYTE	W06
	BYTE		N48     An4   v104
	BYTE	W48
	BYTE		N48   
	BYTE	W42
	BYTE	PEND
// 007   ----------------------------------------
	BYTE	W06
	BYTE		N48   
	BYTE	W90
// 008   ----------------------------------------
	BYTE	W96
// 009   ----------------------------------------
	BYTE	W96
// 010   ----------------------------------------
	BYTE	W96
// 011   ----------------------------------------
FishOutOfWater_4_011:
	BYTE		N03     Dn4   v127
	BYTE	W03
	BYTE		        Cn4 
	BYTE	W03
	BYTE		        Dn4 
	BYTE	W03
	BYTE		        Cn4 
	BYTE	W03
	BYTE		        Dn4 
	BYTE	W03
	BYTE		        Cn4 
	BYTE	W03
	BYTE		        Dn4 
	BYTE	W03
	BYTE		        Cn4 
	BYTE	W03
	BYTE		        En4 
	BYTE	W03
	BYTE		        Dn4 
	BYTE	W03
	BYTE		        En4 
	BYTE	W03
	BYTE		        Dn4 
	BYTE	W03
	BYTE		        En4 
	BYTE	W03
	BYTE		        Dn4 
	BYTE	W03
	BYTE		        En4 
	BYTE	W03
	BYTE		        Dn4 
	BYTE	W03
	BYTE		        Fn4 
	BYTE	W03
	BYTE		        En4 
	BYTE	W03
	BYTE		        Fn4 
	BYTE	W03
	BYTE		        En4 
	BYTE	W03
	BYTE		        Fn4 
	BYTE	W03
	BYTE		        En4 
	BYTE	W03
	BYTE		        Fn4 
	BYTE	W03
	BYTE		        En4 
	BYTE	W03
	BYTE		        Gn4 
	BYTE	W03
	BYTE		        Fn4 
	BYTE	W03
	BYTE		        Gn4 
	BYTE	W03
	BYTE		        Fn4 
	BYTE	W03
	BYTE		        Gn4 
	BYTE	W03
	BYTE		        Fn4 
	BYTE	W03
	BYTE		        Gn4 
	BYTE	W03
	BYTE		        Fn4 
	BYTE	W03
	BYTE	PEND
// 012   ----------------------------------------
	BYTE	PATT
	 POIN2	FishOutOfWater_4_011
// 013   ----------------------------------------
	BYTE	PATT
	 POIN2	FishOutOfWater_4_011
// 014   ----------------------------------------
FishOutOfWater_4_014:
	BYTE	W06
	BYTE		N12     An4   v104
	BYTE	W12
	BYTE		N06     Gn4 
	BYTE	W06
	BYTE		N12     An4 
	BYTE	W12
	BYTE		N06     As4 
	BYTE	W06
	BYTE		        An4 
	BYTE	W06
	BYTE		N48     Gn4 
	BYTE	W48
	BYTE	PEND
// 015   ----------------------------------------
	BYTE	W96
// 016   ----------------------------------------
	BYTE	W96
// 017   ----------------------------------------
	BYTE	W96
// 018   ----------------------------------------
	BYTE	W96
// 019   ----------------------------------------
	BYTE	W96
// 020   ----------------------------------------
	BYTE	W96
// 021   ----------------------------------------
	BYTE	W96
// 022   ----------------------------------------
	BYTE	W96
// 023   ----------------------------------------
	BYTE	W96
// 024   ----------------------------------------
FishOutOfWater_4_024:
	BYTE	W36
	BYTE		N06     An3   v104
	BYTE	W06
	BYTE		        Cn4 
	BYTE	W06
	BYTE		        Dn4 
	BYTE	W06
	BYTE		N18     En4 
	BYTE	W18
	BYTE		N30     Dn4 
	BYTE	W24
	BYTE	PEND
// 025   ----------------------------------------
	BYTE	W96
// 026   ----------------------------------------
FishOutOfWater_4_026:
	BYTE	W48
	BYTE		N03     Gn3   v127
	BYTE	W03
	BYTE		        As3 
	BYTE	W03
	BYTE		        Dn4 
	BYTE	W03
	BYTE		        As3 
	BYTE	W03
	BYTE		        Dn4 
	BYTE	W03
	BYTE		        Fn4 
	BYTE	W03
	BYTE		        Dn4 
	BYTE	W03
	BYTE		        En4 
	BYTE	W03
	BYTE		        An3 
	BYTE	W03
	BYTE		        Cn4 
	BYTE	W03
	BYTE		        En4 
	BYTE	W03
	BYTE		        Gn4 
	BYTE	W03
	BYTE		        Cn5 
	BYTE	W03
	BYTE		        Dn5 
	BYTE	W03
	BYTE		        En5 
	BYTE	W03
	BYTE		        Gn5 
	BYTE	W03
	BYTE	PEND
// 027   ----------------------------------------
	BYTE	PATT
	 POIN2	FishOutOfWater_4_002
// 028   ----------------------------------------
	BYTE	PATT
	 POIN2	FishOutOfWater_4_001
// 029   ----------------------------------------
	BYTE	PATT
	 POIN2	FishOutOfWater_4_002
// 030   ----------------------------------------
	BYTE	PATT
	 POIN2	FishOutOfWater_4_003
// 031   ----------------------------------------
	BYTE	PATT
	 POIN2	FishOutOfWater_4_004
// 032   ----------------------------------------
	BYTE	PATT
	 POIN2	FishOutOfWater_4_004
// 033   ----------------------------------------
	BYTE	PATT
	 POIN2	FishOutOfWater_4_006
// 034   ----------------------------------------
	BYTE	W06
	BYTE		N48     An4   v104
	BYTE	W90
// 035   ----------------------------------------
	BYTE	W96
// 036   ----------------------------------------
	BYTE	W96
// 037   ----------------------------------------
	BYTE	W96
// 038   ----------------------------------------
	BYTE	PATT
	 POIN2	FishOutOfWater_4_011
// 039   ----------------------------------------
	BYTE	PATT
	 POIN2	FishOutOfWater_4_011
// 040   ----------------------------------------
	BYTE	PATT
	 POIN2	FishOutOfWater_4_011
// 041   ----------------------------------------
	BYTE	PATT
	 POIN2	FishOutOfWater_4_014
// 042   ----------------------------------------
	BYTE	W96
// 043   ----------------------------------------
	BYTE	W96
// 044   ----------------------------------------
	BYTE	W96
// 045   ----------------------------------------
	BYTE	W96
// 046   ----------------------------------------
	BYTE	W96
// 047   ----------------------------------------
	BYTE	W96
// 048   ----------------------------------------
	BYTE	W96
// 049   ----------------------------------------
	BYTE	W96
// 050   ----------------------------------------
	BYTE	W96
// 051   ----------------------------------------
	BYTE	PATT
	 POIN2	FishOutOfWater_4_024
// 052   ----------------------------------------
	BYTE	W96
// 053   ----------------------------------------
	BYTE	PATT
	 POIN2	FishOutOfWater_4_026
// 054   ----------------------------------------
	BYTE	PATT
	 POIN2	FishOutOfWater_4_002
// 055   ----------------------------------------
	BYTE	PATT
	 POIN2	FishOutOfWater_4_001
// 056   ----------------------------------------
	BYTE	PATT
	 POIN2	FishOutOfWater_4_002
// 057   ----------------------------------------
	BYTE	PATT
	 POIN2	FishOutOfWater_4_003
// 058   ----------------------------------------
	BYTE	PATT
	 POIN2	FishOutOfWater_4_004
// 059   ----------------------------------------
	BYTE	PATT
	 POIN2	FishOutOfWater_4_004
// 060   ----------------------------------------
	BYTE	PATT
	 POIN2	FishOutOfWater_4_006
// 061   ----------------------------------------
	BYTE	W06
	BYTE		N48     An4   v104
	BYTE	W90
// 062   ----------------------------------------
	BYTE	W96
// 063   ----------------------------------------
	BYTE	W96
// 064   ----------------------------------------
	BYTE	W96
// 065   ----------------------------------------
	BYTE	PATT
	 POIN2	FishOutOfWater_4_011
// 066   ----------------------------------------
	BYTE	PATT
	 POIN2	FishOutOfWater_4_011
// 067   ----------------------------------------
	BYTE	PATT
	 POIN2	FishOutOfWater_4_011
// 068   ----------------------------------------
	BYTE	PATT
	 POIN2	FishOutOfWater_4_014
// 069   ----------------------------------------
	BYTE	W96
// 070   ----------------------------------------
	BYTE	W96
// 071   ----------------------------------------
	BYTE	W96
// 072   ----------------------------------------
	BYTE	W96
// 073   ----------------------------------------
	BYTE	W96
// 074   ----------------------------------------
	BYTE	W96
// 075   ----------------------------------------
	BYTE	W96
// 076   ----------------------------------------
	BYTE	W96
// 077   ----------------------------------------
	BYTE	W96
// 078   ----------------------------------------
	BYTE	PATT
	 POIN2	FishOutOfWater_4_024
// 079   ----------------------------------------
	BYTE	W96
// 080   ----------------------------------------
	BYTE	PATT
	 POIN2	FishOutOfWater_4_026
// 081   ----------------------------------------
	BYTE	PATT
	 POIN2	FishOutOfWater_4_002
// 082   ----------------------------------------
	BYTE	PATT
	 POIN2	FishOutOfWater_4_001
// 083   ----------------------------------------
	BYTE	PATT
	 POIN2	FishOutOfWater_4_002
// 084   ----------------------------------------
	BYTE	PATT
	 POIN2	FishOutOfWater_4_003
// 085   ----------------------------------------
	BYTE	PATT
	 POIN2	FishOutOfWater_4_004
// 086   ----------------------------------------
	BYTE	PATT
	 POIN2	FishOutOfWater_4_004
// 087   ----------------------------------------
	BYTE	PATT
	 POIN2	FishOutOfWater_4_006
// 088   ----------------------------------------
	BYTE	W06
	BYTE		N48     An4   v104
	BYTE	W90
// 089   ----------------------------------------
	BYTE	W96
// 090   ----------------------------------------
	BYTE	W96
// 091   ----------------------------------------
	BYTE	W96
// 092   ----------------------------------------
	BYTE	PATT
	 POIN2	FishOutOfWater_4_011
// 093   ----------------------------------------
	BYTE	PATT
	 POIN2	FishOutOfWater_4_011
// 094   ----------------------------------------
	BYTE	PATT
	 POIN2	FishOutOfWater_4_011
// 095   ----------------------------------------
	BYTE	PATT
	 POIN2	FishOutOfWater_4_014
// 096   ----------------------------------------
	BYTE	W96
// 097   ----------------------------------------
	BYTE	W96
// 098   ----------------------------------------
	BYTE	W96
// 099   ----------------------------------------
	BYTE	W96
// 100   ----------------------------------------
	BYTE	W96
// 101   ----------------------------------------
	BYTE	W96
// 102   ----------------------------------------
	BYTE	W96
// 103   ----------------------------------------
	BYTE	W96
// 104   ----------------------------------------
	BYTE	W96
// 105   ----------------------------------------
	BYTE	PATT
	 POIN2	FishOutOfWater_4_024
// 106   ----------------------------------------
	BYTE	W96
// 107   ----------------------------------------
	BYTE	W48
	BYTE		N03     Gn3   v127
	BYTE	W03
	BYTE		        As3 
	BYTE	W03
	BYTE		        Dn4 
	BYTE	W03
	BYTE		        As3 
	BYTE	W03
	BYTE		        Dn4 
	BYTE	W03
	BYTE		        Fn4 
	BYTE	W03
	BYTE		        Dn4 
	BYTE	W03
	BYTE		        En4 
	BYTE	W03
	BYTE		        An3 
	BYTE	W03
	BYTE		        Cn4 
	BYTE	W03
	BYTE		        En4 
	BYTE	W03
	BYTE		        Gn4 
	BYTE	W03
	BYTE		        Cn5 
	BYTE	W03
	BYTE		        Dn5 
	BYTE	W03
	BYTE		        En5 
	BYTE	W03
	BYTE		        Gn5 
	BYTE	W02
	BYTE	GoTo
	 POIN2	FishOutOfWater_4_B1
FishOutOfWater_4_B2:
	BYTE	W01
// 108   ----------------------------------------
	BYTE	FINE

//**************** Track 5 (Midi-Chn.5) ****************//

FishOutOfWater_5:
	BYTE	KEYSH   FishOutOfWater_key+0
FishOutOfWater_5_B1:
// 000   ----------------------------------------
	BYTE		VOICE   36
	BYTE		VOL     35*FishOutOfWater_mvl/mxv
	BYTE	W96
// 001   ----------------------------------------
	BYTE	W96
// 002   ----------------------------------------
	BYTE	W96
// 003   ----------------------------------------
	BYTE	W96
// 004   ----------------------------------------
	BYTE	W96
// 005   ----------------------------------------
	BYTE	W96
// 006   ----------------------------------------
	BYTE	W96
// 007   ----------------------------------------
FishOutOfWater_5_007:
	BYTE	W48
	BYTE		N06     Bn3   v127
	BYTE	W06
	BYTE		N06   
	BYTE	W06
	BYTE		N06   
	BYTE	W06
	BYTE		        Cs4 
	BYTE	W30
	BYTE	PEND
// 008   ----------------------------------------
	BYTE	W96
// 009   ----------------------------------------
	BYTE	W96
// 010   ----------------------------------------
	BYTE	W96
// 011   ----------------------------------------
	BYTE	W96
// 012   ----------------------------------------
	BYTE	W96
// 013   ----------------------------------------
	BYTE	W96
// 014   ----------------------------------------
	BYTE	W96
// 015   ----------------------------------------
FishOutOfWater_5_015:
	BYTE		N06     Cn4   v127
	BYTE	W18
	BYTE		        As3 
	BYTE	W24
	BYTE		        Fn3 
	BYTE	W12
	BYTE		N06   
	BYTE	W06
	BYTE		N06   
	BYTE	W06
	BYTE		N06   
	BYTE	W06
	BYTE		N06   
	BYTE	W06
	BYTE		N18     Gn3 
	BYTE	W18
	BYTE	PEND
// 016   ----------------------------------------
FishOutOfWater_5_016:
	BYTE		N06     Cn4   v127
	BYTE	W18
	BYTE		        As3 
	BYTE	W24
	BYTE		        Ds4 
	BYTE	W12
	BYTE		        Dn4 
	BYTE	W06
	BYTE		        Cn4 
	BYTE	W06
	BYTE		N18     Fs3 
	BYTE	W18
	BYTE		N12     Gn3 
	BYTE	W12
	BYTE	PEND
// 017   ----------------------------------------
	BYTE	PATT
	 POIN2	FishOutOfWater_5_015
// 018   ----------------------------------------
FishOutOfWater_5_018:
	BYTE		N06     Cn4   v127
	BYTE	W18
	BYTE		        As3 
	BYTE	W24
	BYTE		        Ds4 
	BYTE	W12
	BYTE		        Dn4 
	BYTE	W06
	BYTE		        Cn4 
	BYTE	W06
	BYTE		N12     Gs3 
	BYTE	W12
	BYTE		N18     Gs4 
	BYTE	W18
	BYTE	PEND
// 019   ----------------------------------------
	BYTE	PATT
	 POIN2	FishOutOfWater_5_015
// 020   ----------------------------------------
	BYTE	PATT
	 POIN2	FishOutOfWater_5_016
// 021   ----------------------------------------
	BYTE	PATT
	 POIN2	FishOutOfWater_5_015
// 022   ----------------------------------------
	BYTE	PATT
	 POIN2	FishOutOfWater_5_018
// 023   ----------------------------------------
	BYTE	W96
// 024   ----------------------------------------
	BYTE	W96
// 025   ----------------------------------------
	BYTE	W96
// 026   ----------------------------------------
FishOutOfWater_5_026:
	BYTE	W48
	BYTE		N18     As3   v127
	BYTE	W18
	BYTE		N30     Cn4 
	BYTE	W30
	BYTE	PEND
// 027   ----------------------------------------
	BYTE	W96
// 028   ----------------------------------------
	BYTE	W96
// 029   ----------------------------------------
	BYTE	W96
// 030   ----------------------------------------
	BYTE	W96
// 031   ----------------------------------------
	BYTE	W96
// 032   ----------------------------------------
	BYTE	W96
// 033   ----------------------------------------
	BYTE	W96
// 034   ----------------------------------------
	BYTE	PATT
	 POIN2	FishOutOfWater_5_007
// 035   ----------------------------------------
	BYTE	W96
// 036   ----------------------------------------
	BYTE	W96
// 037   ----------------------------------------
	BYTE	W96
// 038   ----------------------------------------
	BYTE	W96
// 039   ----------------------------------------
	BYTE	W96
// 040   ----------------------------------------
	BYTE	W96
// 041   ----------------------------------------
	BYTE	W96
// 042   ----------------------------------------
	BYTE	PATT
	 POIN2	FishOutOfWater_5_015
// 043   ----------------------------------------
	BYTE	PATT
	 POIN2	FishOutOfWater_5_016
// 044   ----------------------------------------
	BYTE	PATT
	 POIN2	FishOutOfWater_5_015
// 045   ----------------------------------------
	BYTE	PATT
	 POIN2	FishOutOfWater_5_018
// 046   ----------------------------------------
	BYTE	PATT
	 POIN2	FishOutOfWater_5_015
// 047   ----------------------------------------
	BYTE	PATT
	 POIN2	FishOutOfWater_5_016
// 048   ----------------------------------------
	BYTE	PATT
	 POIN2	FishOutOfWater_5_015
// 049   ----------------------------------------
	BYTE	PATT
	 POIN2	FishOutOfWater_5_018
// 050   ----------------------------------------
	BYTE	W96
// 051   ----------------------------------------
	BYTE	W96
// 052   ----------------------------------------
	BYTE	W96
// 053   ----------------------------------------
	BYTE	PATT
	 POIN2	FishOutOfWater_5_026
// 054   ----------------------------------------
	BYTE	W96
// 055   ----------------------------------------
	BYTE	W96
// 056   ----------------------------------------
	BYTE	W96
// 057   ----------------------------------------
	BYTE	W96
// 058   ----------------------------------------
	BYTE	W96
// 059   ----------------------------------------
	BYTE	W96
// 060   ----------------------------------------
	BYTE	W96
// 061   ----------------------------------------
	BYTE	PATT
	 POIN2	FishOutOfWater_5_007
// 062   ----------------------------------------
	BYTE	W96
// 063   ----------------------------------------
	BYTE	W96
// 064   ----------------------------------------
	BYTE	W96
// 065   ----------------------------------------
	BYTE	W96
// 066   ----------------------------------------
	BYTE	W96
// 067   ----------------------------------------
	BYTE	W96
// 068   ----------------------------------------
	BYTE	W96
// 069   ----------------------------------------
	BYTE	PATT
	 POIN2	FishOutOfWater_5_015
// 070   ----------------------------------------
	BYTE	PATT
	 POIN2	FishOutOfWater_5_016
// 071   ----------------------------------------
	BYTE	PATT
	 POIN2	FishOutOfWater_5_015
// 072   ----------------------------------------
	BYTE	PATT
	 POIN2	FishOutOfWater_5_018
// 073   ----------------------------------------
	BYTE	PATT
	 POIN2	FishOutOfWater_5_015
// 074   ----------------------------------------
	BYTE	PATT
	 POIN2	FishOutOfWater_5_016
// 075   ----------------------------------------
	BYTE	PATT
	 POIN2	FishOutOfWater_5_015
// 076   ----------------------------------------
	BYTE	PATT
	 POIN2	FishOutOfWater_5_018
// 077   ----------------------------------------
	BYTE	W96
// 078   ----------------------------------------
	BYTE	W96
// 079   ----------------------------------------
	BYTE	W96
// 080   ----------------------------------------
	BYTE	PATT
	 POIN2	FishOutOfWater_5_026
// 081   ----------------------------------------
	BYTE	W96
// 082   ----------------------------------------
	BYTE	W96
// 083   ----------------------------------------
	BYTE	W96
// 084   ----------------------------------------
	BYTE	W96
// 085   ----------------------------------------
	BYTE	W96
// 086   ----------------------------------------
	BYTE	W96
// 087   ----------------------------------------
	BYTE	W96
// 088   ----------------------------------------
	BYTE	PATT
	 POIN2	FishOutOfWater_5_007
// 089   ----------------------------------------
	BYTE	W96
// 090   ----------------------------------------
	BYTE	W96
// 091   ----------------------------------------
	BYTE	W96
// 092   ----------------------------------------
	BYTE	W96
// 093   ----------------------------------------
	BYTE	W96
// 094   ----------------------------------------
	BYTE	W96
// 095   ----------------------------------------
	BYTE	W96
// 096   ----------------------------------------
	BYTE	PATT
	 POIN2	FishOutOfWater_5_015
// 097   ----------------------------------------
	BYTE	PATT
	 POIN2	FishOutOfWater_5_016
// 098   ----------------------------------------
	BYTE	PATT
	 POIN2	FishOutOfWater_5_015
// 099   ----------------------------------------
	BYTE	PATT
	 POIN2	FishOutOfWater_5_018
// 100   ----------------------------------------
	BYTE	PATT
	 POIN2	FishOutOfWater_5_015
// 101   ----------------------------------------
	BYTE	PATT
	 POIN2	FishOutOfWater_5_016
// 102   ----------------------------------------
	BYTE	PATT
	 POIN2	FishOutOfWater_5_015
// 103   ----------------------------------------
	BYTE	PATT
	 POIN2	FishOutOfWater_5_018
// 104   ----------------------------------------
	BYTE	W96
// 105   ----------------------------------------
	BYTE	W96
// 106   ----------------------------------------
	BYTE	W96
// 107   ----------------------------------------
	BYTE	W48
	BYTE		N18     As3   v127
	BYTE	W18
	BYTE		N30     Cn4 
	BYTE	W28
	BYTE	W01
	BYTE	GoTo
	 POIN2	FishOutOfWater_5_B1
FishOutOfWater_5_B2:
	BYTE	W01
// 108   ----------------------------------------
	BYTE	FINE

//**************** Track 6 (Midi-Chn.6) ****************//

FishOutOfWater_6:
	BYTE	KEYSH   FishOutOfWater_key+0
FishOutOfWater_6_B1:
// 000   ----------------------------------------
	BYTE		VOICE   36
	BYTE		VOL     33*FishOutOfWater_mvl/mxv
	BYTE		PAN     c_v+40
	BYTE	W12
	BYTE		N12     Fn4   v127
	BYTE	W12
	BYTE		N06   
	BYTE	W06
	BYTE		N12     Dn4 
	BYTE	W12
	BYTE		N06     Cn4 
	BYTE	W06
	BYTE		N12     Dn4 
	BYTE	W12
	BYTE		N06     Cn4 
	BYTE	W06
	BYTE		N12     Dn4 
	BYTE	W12
	BYTE		N06     Cn4 
	BYTE	W06
	BYTE		N12     Dn4 
	BYTE	W12
// 001   ----------------------------------------
FishOutOfWater_6_001:
	BYTE	W12
	BYTE		N12     Fn4   v127
	BYTE	W12
	BYTE		N06   
	BYTE	W06
	BYTE		N12     Dn4 
	BYTE	W12
	BYTE		N06     Cn4 
	BYTE	W06
	BYTE		N12     Dn4 
	BYTE	W12
	BYTE		N06     As4 
	BYTE	W06
	BYTE		N12     Cn5 
	BYTE	W12
	BYTE		N06     As4 
	BYTE	W06
	BYTE		N12     Cn5 
	BYTE	W12
	BYTE	PEND
// 002   ----------------------------------------
FishOutOfWater_6_002:
	BYTE	W12
	BYTE		N12     Fn4   v127
	BYTE	W12
	BYTE		N06   
	BYTE	W06
	BYTE		N12     Dn4 
	BYTE	W12
	BYTE		N06     Cn4 
	BYTE	W06
	BYTE		N12     Dn4 
	BYTE	W12
	BYTE		N06     Cn4 
	BYTE	W06
	BYTE		N12     Dn4 
	BYTE	W12
	BYTE		N06     Cn4 
	BYTE	W06
	BYTE		N12     Dn4 
	BYTE	W12
	BYTE	PEND
// 003   ----------------------------------------
FishOutOfWater_6_003:
	BYTE	W12
	BYTE		N12     Fn4   v127
	BYTE	W12
	BYTE		        Dn4 
	BYTE	W12
	BYTE		N06     Cn4 
	BYTE	W06
	BYTE		        Dn4 
	BYTE	W12
	BYTE		N12   
	BYTE	W12
	BYTE		        Fn4 
	BYTE	W12
	BYTE		N06   
	BYTE	W06
	BYTE		N12     As4 
	BYTE	W12
	BYTE	PEND
// 004   ----------------------------------------
	BYTE	W78
	BYTE		N18     Dn5 
	BYTE	W18
// 005   ----------------------------------------
	BYTE	W78
	BYTE		N18   
	BYTE	W18
// 006   ----------------------------------------
FishOutOfWater_6_006:
	BYTE		N12     Dn4   v127
	BYTE	W12
	BYTE		N06     Cn4 
	BYTE	W06
	BYTE		N12     Dn4 
	BYTE	W12
	BYTE		N06     As3 
	BYTE	W06
	BYTE		N12     Dn4 
	BYTE	W12
	BYTE		N12   
	BYTE	W12
	BYTE		N06     Cs4 
	BYTE	W06
	BYTE		N12     Dn4 
	BYTE	W12
	BYTE		N06     Bn3 
	BYTE	W06
	BYTE		N12     Dn4 
	BYTE	W12
	BYTE	PEND
// 007   ----------------------------------------
FishOutOfWater_6_007:
	BYTE		N12     Dn4   v127
	BYTE	W12
	BYTE		N06     An3 
	BYTE	W06
	BYTE		N12     Dn4 
	BYTE	W12
	BYTE		N06     An3 
	BYTE	W06
	BYTE		N12     Dn4 
	BYTE	W12
	BYTE		N06     Gn3 
	BYTE	W06
	BYTE		N06   
	BYTE	W06
	BYTE		N06   
	BYTE	W06
	BYTE		N18     An3 
	BYTE	W18
	BYTE		N12     Cs4 
	BYTE	W12
	BYTE	PEND
// 008   ----------------------------------------
	BYTE	W96
// 009   ----------------------------------------
FishOutOfWater_6_009:
	BYTE	W06
	BYTE		N06     As3   v127
	BYTE	W06
	BYTE		        Cn4 
	BYTE	W06
	BYTE		N36     Dn4 
	BYTE	W36
	BYTE		N06     Cs4 
	BYTE	W06
	BYTE		        Dn4 
	BYTE	W06
	BYTE		N24     En4 
	BYTE	W30
	BYTE	PEND
// 010   ----------------------------------------
	BYTE	W96
// 011   ----------------------------------------
	BYTE	W96
// 012   ----------------------------------------
	BYTE	W96
// 013   ----------------------------------------
	BYTE	W96
// 014   ----------------------------------------
FishOutOfWater_6_014:
	BYTE		N12     Fn5   v127
	BYTE	W12
	BYTE		N06     En5 
	BYTE	W06
	BYTE		N12     Fn5 
	BYTE	W12
	BYTE		N06     Gn5 
	BYTE	W06
	BYTE		        Fn5 
	BYTE	W06
	BYTE		N12     Ds5 
	BYTE	W12
	BYTE		N06   
	BYTE	W06
	BYTE		N06   
	BYTE	W06
	BYTE		N06   
	BYTE	W06
	BYTE		N06   
	BYTE	W24
	BYTE	PEND
// 015   ----------------------------------------
FishOutOfWater_6_015:
	BYTE		N06     Gn3   v127
	BYTE	W18
	BYTE		        Fn3 
	BYTE	W24
	BYTE		        Cn3 
	BYTE	W12
	BYTE		N06   
	BYTE	W06
	BYTE		N06   
	BYTE	W06
	BYTE		N06   
	BYTE	W06
	BYTE		N06   
	BYTE	W06
	BYTE		N18     Dn3 
	BYTE	W18
	BYTE	PEND
// 016   ----------------------------------------
FishOutOfWater_6_016:
	BYTE		N06     Gn3   v127
	BYTE	W18
	BYTE		        Fn3 
	BYTE	W24
	BYTE		        As3 
	BYTE	W12
	BYTE		        An3 
	BYTE	W06
	BYTE		        Gn3 
	BYTE	W06
	BYTE		N18     Cs3 
	BYTE	W18
	BYTE		N12     Dn3 
	BYTE	W12
	BYTE	PEND
// 017   ----------------------------------------
	BYTE	PATT
	 POIN2	FishOutOfWater_6_015
// 018   ----------------------------------------
FishOutOfWater_6_018:
	BYTE		N06     Gn3   v127
	BYTE	W18
	BYTE		        Fn3 
	BYTE	W24
	BYTE		        As3 
	BYTE	W12
	BYTE		        An3 
	BYTE	W06
	BYTE		        Gn3 
	BYTE	W06
	BYTE		N12     Ds3 
	BYTE	W12
	BYTE		N18     Ds4 
	BYTE	W18
	BYTE	PEND
// 019   ----------------------------------------
	BYTE	PATT
	 POIN2	FishOutOfWater_6_015
// 020   ----------------------------------------
	BYTE	PATT
	 POIN2	FishOutOfWater_6_016
// 021   ----------------------------------------
	BYTE	PATT
	 POIN2	FishOutOfWater_6_015
// 022   ----------------------------------------
	BYTE	PATT
	 POIN2	FishOutOfWater_6_018
// 023   ----------------------------------------
FishOutOfWater_6_023:
	BYTE		N24     En3   v127
	BYTE	W24
	BYTE		N06     Gn3 
	BYTE	W06
	BYTE		        Bn3 
	BYTE	W12
	BYTE		N12     Gn3 
	BYTE	W12
	BYTE		N18     En3 
	BYTE	W18
	BYTE		N12   
	BYTE	W12
	BYTE		        Gn3 
	BYTE	W12
	BYTE	PEND
// 024   ----------------------------------------
FishOutOfWater_6_024:
	BYTE		N18     En3   v127
	BYTE	W18
	BYTE		N72     Dn3 
	BYTE	W78
	BYTE	PEND
// 025   ----------------------------------------
	BYTE	PATT
	 POIN2	FishOutOfWater_6_023
// 026   ----------------------------------------
FishOutOfWater_6_026:
	BYTE		N18     Gn3   v127
	BYTE	W18
	BYTE		N30     An3 
	BYTE	W30
	BYTE		N18     Fn3 
	BYTE	W18
	BYTE		N30     Gn3 
	BYTE	W30
	BYTE	PEND
// 027   ----------------------------------------
	BYTE	PATT
	 POIN2	FishOutOfWater_6_002
// 028   ----------------------------------------
	BYTE	PATT
	 POIN2	FishOutOfWater_6_001
// 029   ----------------------------------------
	BYTE	PATT
	 POIN2	FishOutOfWater_6_002
// 030   ----------------------------------------
	BYTE	PATT
	 POIN2	FishOutOfWater_6_003
// 031   ----------------------------------------
	BYTE	W78
	BYTE		N18     Dn5   v127
	BYTE	W18
// 032   ----------------------------------------
	BYTE	W78
	BYTE		N18   
	BYTE	W18
// 033   ----------------------------------------
	BYTE	PATT
	 POIN2	FishOutOfWater_6_006
// 034   ----------------------------------------
	BYTE	PATT
	 POIN2	FishOutOfWater_6_007
// 035   ----------------------------------------
	BYTE	W96
// 036   ----------------------------------------
	BYTE	PATT
	 POIN2	FishOutOfWater_6_009
// 037   ----------------------------------------
	BYTE	W96
// 038   ----------------------------------------
	BYTE	W96
// 039   ----------------------------------------
	BYTE	W96
// 040   ----------------------------------------
	BYTE	W96
// 041   ----------------------------------------
	BYTE	PATT
	 POIN2	FishOutOfWater_6_014
// 042   ----------------------------------------
	BYTE	PATT
	 POIN2	FishOutOfWater_6_015
// 043   ----------------------------------------
	BYTE	PATT
	 POIN2	FishOutOfWater_6_016
// 044   ----------------------------------------
	BYTE	PATT
	 POIN2	FishOutOfWater_6_015
// 045   ----------------------------------------
	BYTE	PATT
	 POIN2	FishOutOfWater_6_018
// 046   ----------------------------------------
	BYTE	PATT
	 POIN2	FishOutOfWater_6_015
// 047   ----------------------------------------
	BYTE	PATT
	 POIN2	FishOutOfWater_6_016
// 048   ----------------------------------------
	BYTE	PATT
	 POIN2	FishOutOfWater_6_015
// 049   ----------------------------------------
	BYTE	PATT
	 POIN2	FishOutOfWater_6_018
// 050   ----------------------------------------
	BYTE	PATT
	 POIN2	FishOutOfWater_6_023
// 051   ----------------------------------------
	BYTE	PATT
	 POIN2	FishOutOfWater_6_024
// 052   ----------------------------------------
	BYTE	PATT
	 POIN2	FishOutOfWater_6_023
// 053   ----------------------------------------
	BYTE	PATT
	 POIN2	FishOutOfWater_6_026
// 054   ----------------------------------------
	BYTE	PATT
	 POIN2	FishOutOfWater_6_002
// 055   ----------------------------------------
	BYTE	PATT
	 POIN2	FishOutOfWater_6_001
// 056   ----------------------------------------
	BYTE	PATT
	 POIN2	FishOutOfWater_6_002
// 057   ----------------------------------------
	BYTE	PATT
	 POIN2	FishOutOfWater_6_003
// 058   ----------------------------------------
	BYTE	W78
	BYTE		N18     Dn5   v127
	BYTE	W18
// 059   ----------------------------------------
	BYTE	W78
	BYTE		N18   
	BYTE	W18
// 060   ----------------------------------------
	BYTE	PATT
	 POIN2	FishOutOfWater_6_006
// 061   ----------------------------------------
	BYTE	PATT
	 POIN2	FishOutOfWater_6_007
// 062   ----------------------------------------
	BYTE	W96
// 063   ----------------------------------------
	BYTE	PATT
	 POIN2	FishOutOfWater_6_009
// 064   ----------------------------------------
	BYTE	W96
// 065   ----------------------------------------
	BYTE	W96
// 066   ----------------------------------------
	BYTE	W96
// 067   ----------------------------------------
	BYTE	W96
// 068   ----------------------------------------
	BYTE	PATT
	 POIN2	FishOutOfWater_6_014
// 069   ----------------------------------------
	BYTE	PATT
	 POIN2	FishOutOfWater_6_015
// 070   ----------------------------------------
	BYTE	PATT
	 POIN2	FishOutOfWater_6_016
// 071   ----------------------------------------
	BYTE	PATT
	 POIN2	FishOutOfWater_6_015
// 072   ----------------------------------------
	BYTE	PATT
	 POIN2	FishOutOfWater_6_018
// 073   ----------------------------------------
	BYTE	PATT
	 POIN2	FishOutOfWater_6_015
// 074   ----------------------------------------
	BYTE	PATT
	 POIN2	FishOutOfWater_6_016
// 075   ----------------------------------------
	BYTE	PATT
	 POIN2	FishOutOfWater_6_015
// 076   ----------------------------------------
	BYTE	PATT
	 POIN2	FishOutOfWater_6_018
// 077   ----------------------------------------
	BYTE	PATT
	 POIN2	FishOutOfWater_6_023
// 078   ----------------------------------------
	BYTE	PATT
	 POIN2	FishOutOfWater_6_024
// 079   ----------------------------------------
	BYTE	PATT
	 POIN2	FishOutOfWater_6_023
// 080   ----------------------------------------
	BYTE	PATT
	 POIN2	FishOutOfWater_6_026
// 081   ----------------------------------------
	BYTE	PATT
	 POIN2	FishOutOfWater_6_002
// 082   ----------------------------------------
	BYTE	PATT
	 POIN2	FishOutOfWater_6_001
// 083   ----------------------------------------
	BYTE	PATT
	 POIN2	FishOutOfWater_6_002
// 084   ----------------------------------------
	BYTE	PATT
	 POIN2	FishOutOfWater_6_003
// 085   ----------------------------------------
	BYTE	W78
	BYTE		N18     Dn5   v127
	BYTE	W18
// 086   ----------------------------------------
	BYTE	W78
	BYTE		N18   
	BYTE	W18
// 087   ----------------------------------------
	BYTE	PATT
	 POIN2	FishOutOfWater_6_006
// 088   ----------------------------------------
	BYTE	PATT
	 POIN2	FishOutOfWater_6_007
// 089   ----------------------------------------
	BYTE	W96
// 090   ----------------------------------------
	BYTE	PATT
	 POIN2	FishOutOfWater_6_009
// 091   ----------------------------------------
	BYTE	W96
// 092   ----------------------------------------
	BYTE	W96
// 093   ----------------------------------------
	BYTE	W96
// 094   ----------------------------------------
	BYTE	W96
// 095   ----------------------------------------
	BYTE	PATT
	 POIN2	FishOutOfWater_6_014
// 096   ----------------------------------------
	BYTE	PATT
	 POIN2	FishOutOfWater_6_015
// 097   ----------------------------------------
	BYTE	PATT
	 POIN2	FishOutOfWater_6_016
// 098   ----------------------------------------
	BYTE	PATT
	 POIN2	FishOutOfWater_6_015
// 099   ----------------------------------------
	BYTE	PATT
	 POIN2	FishOutOfWater_6_018
// 100   ----------------------------------------
	BYTE	PATT
	 POIN2	FishOutOfWater_6_015
// 101   ----------------------------------------
	BYTE	PATT
	 POIN2	FishOutOfWater_6_016
// 102   ----------------------------------------
	BYTE	PATT
	 POIN2	FishOutOfWater_6_015
// 103   ----------------------------------------
	BYTE	PATT
	 POIN2	FishOutOfWater_6_018
// 104   ----------------------------------------
	BYTE	PATT
	 POIN2	FishOutOfWater_6_023
// 105   ----------------------------------------
	BYTE	PATT
	 POIN2	FishOutOfWater_6_024
// 106   ----------------------------------------
	BYTE	PATT
	 POIN2	FishOutOfWater_6_023
// 107   ----------------------------------------
	BYTE		N18     Gn3   v127
	BYTE	W18
	BYTE		N30     An3 
	BYTE	W30
	BYTE		N18     Fn3 
	BYTE	W18
	BYTE		N30     Gn3 
	BYTE	W28
	BYTE	W01
	BYTE	GoTo
	 POIN2	FishOutOfWater_6_B1
FishOutOfWater_6_B2:
	BYTE	W01
// 108   ----------------------------------------
	BYTE	FINE

//**************** Track 7 (Midi-Chn.7) ****************//

FishOutOfWater_7:
	BYTE	KEYSH   FishOutOfWater_key+0
FishOutOfWater_7_B1:
// 000   ----------------------------------------
	BYTE		VOICE   4
	BYTE		VOL     28*FishOutOfWater_mvl/mxv
	BYTE		PAN     c_v+30
	BYTE	W96
// 001   ----------------------------------------
	BYTE	W96
// 002   ----------------------------------------
	BYTE	W96
// 003   ----------------------------------------
	BYTE	W96
// 004   ----------------------------------------
FishOutOfWater_7_004:
	BYTE		N36     En3   v127
	BYTE	W36
	BYTE		N12   
	BYTE	W12
	BYTE		N18   
	BYTE	W18
	BYTE		N12     Fn3 
	BYTE	W30
	BYTE	PEND
// 005   ----------------------------------------
FishOutOfWater_7_005:
	BYTE		N36     En3   v127
	BYTE	W36
	BYTE		N12   
	BYTE	W12
	BYTE		N18   
	BYTE	W18
	BYTE		N12     Dn3 
	BYTE	W30
	BYTE	PEND
// 006   ----------------------------------------
	BYTE	W96
// 007   ----------------------------------------
	BYTE	W96
// 008   ----------------------------------------
FishOutOfWater_7_008:
	BYTE		N24     Fn3   v127
	BYTE	W24
	BYTE		N18     Dn3 
	BYTE	W18
	BYTE		        Cn3 
	BYTE	W18
	BYTE		N36     Dn3 
	BYTE	W36
	BYTE	PEND
// 009   ----------------------------------------
	BYTE	W90
	BYTE		N06     An3 
	BYTE	W06
// 010   ----------------------------------------
	BYTE	PATT
	 POIN2	FishOutOfWater_7_008
// 011   ----------------------------------------
FishOutOfWater_7_011:
	BYTE		N12     Dn5   v127
	BYTE	W12
	BYTE		N12   
	BYTE	W12
	BYTE		N12   
	BYTE	W12
	BYTE		N12   
	BYTE	W12
	BYTE		N12   
	BYTE	W12
	BYTE		N12   
	BYTE	W12
	BYTE		N12   
	BYTE	W12
	BYTE		N12   
	BYTE	W12
	BYTE	PEND
// 012   ----------------------------------------
	BYTE	PATT
	 POIN2	FishOutOfWater_7_011
// 013   ----------------------------------------
	BYTE	PATT
	 POIN2	FishOutOfWater_7_011
// 014   ----------------------------------------
	BYTE	W96
// 015   ----------------------------------------
	BYTE	W96
// 016   ----------------------------------------
	BYTE	W96
// 017   ----------------------------------------
	BYTE	W96
// 018   ----------------------------------------
	BYTE	W96
// 019   ----------------------------------------
	BYTE	W96
// 020   ----------------------------------------
	BYTE	W96
// 021   ----------------------------------------
	BYTE	W96
// 022   ----------------------------------------
	BYTE	W96
// 023   ----------------------------------------
FishOutOfWater_7_023:
	BYTE		N03     An4   v127
	BYTE	W06
	BYTE		N03   
	BYTE	W06
	BYTE		N03   
	BYTE	W06
	BYTE		N03   
	BYTE	W06
	BYTE		N03   
	BYTE	W06
	BYTE		N03   
	BYTE	W06
	BYTE		N03   
	BYTE	W06
	BYTE		N03   
	BYTE	W06
	BYTE		N03   
	BYTE	W06
	BYTE		N03   
	BYTE	W06
	BYTE		N03   
	BYTE	W06
	BYTE		N03   
	BYTE	W06
	BYTE		N03   
	BYTE	W06
	BYTE		N03   
	BYTE	W06
	BYTE		N03   
	BYTE	W06
	BYTE		N03   
	BYTE	W06
	BYTE	PEND
// 024   ----------------------------------------
	BYTE	PATT
	 POIN2	FishOutOfWater_7_023
// 025   ----------------------------------------
	BYTE	PATT
	 POIN2	FishOutOfWater_7_023
// 026   ----------------------------------------
FishOutOfWater_7_026:
	BYTE		N03     An4   v127
	BYTE	W06
	BYTE		N03   
	BYTE	W06
	BYTE		N03   
	BYTE	W06
	BYTE		N03   
	BYTE	W06
	BYTE		N03   
	BYTE	W06
	BYTE		N03   
	BYTE	W06
	BYTE		N03   
	BYTE	W06
	BYTE		N03   
	BYTE	W54
	BYTE	PEND
// 027   ----------------------------------------
	BYTE	W96
// 028   ----------------------------------------
	BYTE	W96
// 029   ----------------------------------------
	BYTE	W96
// 030   ----------------------------------------
	BYTE	W96
// 031   ----------------------------------------
	BYTE	PATT
	 POIN2	FishOutOfWater_7_004
// 032   ----------------------------------------
	BYTE	PATT
	 POIN2	FishOutOfWater_7_005
// 033   ----------------------------------------
	BYTE	W96
// 034   ----------------------------------------
	BYTE	W96
// 035   ----------------------------------------
	BYTE	PATT
	 POIN2	FishOutOfWater_7_008
// 036   ----------------------------------------
	BYTE	W90
	BYTE		N06     An3   v127
	BYTE	W06
// 037   ----------------------------------------
	BYTE	PATT
	 POIN2	FishOutOfWater_7_008
// 038   ----------------------------------------
	BYTE	PATT
	 POIN2	FishOutOfWater_7_011
// 039   ----------------------------------------
	BYTE	PATT
	 POIN2	FishOutOfWater_7_011
// 040   ----------------------------------------
	BYTE	PATT
	 POIN2	FishOutOfWater_7_011
// 041   ----------------------------------------
	BYTE	W96
// 042   ----------------------------------------
	BYTE	W96
// 043   ----------------------------------------
	BYTE	W96
// 044   ----------------------------------------
	BYTE	W96
// 045   ----------------------------------------
	BYTE	W96
// 046   ----------------------------------------
	BYTE	W96
// 047   ----------------------------------------
	BYTE	W96
// 048   ----------------------------------------
	BYTE	W96
// 049   ----------------------------------------
	BYTE	W96
// 050   ----------------------------------------
	BYTE	PATT
	 POIN2	FishOutOfWater_7_023
// 051   ----------------------------------------
	BYTE	PATT
	 POIN2	FishOutOfWater_7_023
// 052   ----------------------------------------
	BYTE	PATT
	 POIN2	FishOutOfWater_7_023
// 053   ----------------------------------------
	BYTE	PATT
	 POIN2	FishOutOfWater_7_026
// 054   ----------------------------------------
	BYTE	W96
// 055   ----------------------------------------
	BYTE	W96
// 056   ----------------------------------------
	BYTE	W96
// 057   ----------------------------------------
	BYTE	W96
// 058   ----------------------------------------
	BYTE	PATT
	 POIN2	FishOutOfWater_7_004
// 059   ----------------------------------------
	BYTE	PATT
	 POIN2	FishOutOfWater_7_005
// 060   ----------------------------------------
	BYTE	W96
// 061   ----------------------------------------
	BYTE	W96
// 062   ----------------------------------------
	BYTE	PATT
	 POIN2	FishOutOfWater_7_008
// 063   ----------------------------------------
	BYTE	W90
	BYTE		N06     An3   v127
	BYTE	W06
// 064   ----------------------------------------
	BYTE	PATT
	 POIN2	FishOutOfWater_7_008
// 065   ----------------------------------------
	BYTE	PATT
	 POIN2	FishOutOfWater_7_011
// 066   ----------------------------------------
	BYTE	PATT
	 POIN2	FishOutOfWater_7_011
// 067   ----------------------------------------
	BYTE	PATT
	 POIN2	FishOutOfWater_7_011
// 068   ----------------------------------------
	BYTE	W96
// 069   ----------------------------------------
	BYTE	W96
// 070   ----------------------------------------
	BYTE	W96
// 071   ----------------------------------------
	BYTE	W96
// 072   ----------------------------------------
	BYTE	W96
// 073   ----------------------------------------
	BYTE	W96
// 074   ----------------------------------------
	BYTE	W96
// 075   ----------------------------------------
	BYTE	W96
// 076   ----------------------------------------
	BYTE	W96
// 077   ----------------------------------------
	BYTE	PATT
	 POIN2	FishOutOfWater_7_023
// 078   ----------------------------------------
	BYTE	PATT
	 POIN2	FishOutOfWater_7_023
// 079   ----------------------------------------
	BYTE	PATT
	 POIN2	FishOutOfWater_7_023
// 080   ----------------------------------------
	BYTE	PATT
	 POIN2	FishOutOfWater_7_026
// 081   ----------------------------------------
	BYTE	W96
// 082   ----------------------------------------
	BYTE	W96
// 083   ----------------------------------------
	BYTE	W96
// 084   ----------------------------------------
	BYTE	W96
// 085   ----------------------------------------
	BYTE	PATT
	 POIN2	FishOutOfWater_7_004
// 086   ----------------------------------------
	BYTE	PATT
	 POIN2	FishOutOfWater_7_005
// 087   ----------------------------------------
	BYTE	W96
// 088   ----------------------------------------
	BYTE	W96
// 089   ----------------------------------------
	BYTE	PATT
	 POIN2	FishOutOfWater_7_008
// 090   ----------------------------------------
	BYTE	W90
	BYTE		N06     An3   v127
	BYTE	W06
// 091   ----------------------------------------
	BYTE	PATT
	 POIN2	FishOutOfWater_7_008
// 092   ----------------------------------------
	BYTE	PATT
	 POIN2	FishOutOfWater_7_011
// 093   ----------------------------------------
	BYTE	PATT
	 POIN2	FishOutOfWater_7_011
// 094   ----------------------------------------
	BYTE	PATT
	 POIN2	FishOutOfWater_7_011
// 095   ----------------------------------------
	BYTE	W96
// 096   ----------------------------------------
	BYTE	W96
// 097   ----------------------------------------
	BYTE	W96
// 098   ----------------------------------------
	BYTE	W96
// 099   ----------------------------------------
	BYTE	W96
// 100   ----------------------------------------
	BYTE	W96
// 101   ----------------------------------------
	BYTE	W96
// 102   ----------------------------------------
	BYTE	W96
// 103   ----------------------------------------
	BYTE	W96
// 104   ----------------------------------------
	BYTE	PATT
	 POIN2	FishOutOfWater_7_023
// 105   ----------------------------------------
	BYTE	PATT
	 POIN2	FishOutOfWater_7_023
// 106   ----------------------------------------
	BYTE	PATT
	 POIN2	FishOutOfWater_7_023
// 107   ----------------------------------------
	BYTE		N03     An4   v127
	BYTE	W06
	BYTE		N03   
	BYTE	W06
	BYTE		N03   
	BYTE	W06
	BYTE		N03   
	BYTE	W06
	BYTE		N03   
	BYTE	W06
	BYTE		N03   
	BYTE	W06
	BYTE		N03   
	BYTE	W06
	BYTE		N03   
	BYTE	W52
	BYTE	W01
	BYTE	GoTo
	 POIN2	FishOutOfWater_7_B1
FishOutOfWater_7_B2:
	BYTE	W01
// 108   ----------------------------------------
	BYTE	FINE

//**************** Track 8 (Midi-Chn.8) ****************//

FishOutOfWater_8:
	BYTE	KEYSH   FishOutOfWater_key+0
FishOutOfWater_8_B1:
// 000   ----------------------------------------
	BYTE		VOICE   38
	BYTE		VOL     23*FishOutOfWater_mvl/mxv
	BYTE		PAN     c_v-41
	BYTE	W12
	BYTE		N12     Cn4   v127
	BYTE	W12
	BYTE		N06   
	BYTE	W06
	BYTE		N12     An3 
	BYTE	W12
	BYTE		N06     Gn3 
	BYTE	W06
	BYTE		N12     An3 
	BYTE	W12
	BYTE		N06     Gn3 
	BYTE	W06
	BYTE		N12     An3 
	BYTE	W12
	BYTE		N06     Gn3 
	BYTE	W06
	BYTE		N12     An3 
	BYTE	W12
// 001   ----------------------------------------
FishOutOfWater_8_001:
	BYTE	W12
	BYTE		N12     Cn4   v127
	BYTE	W12
	BYTE		N06   
	BYTE	W06
	BYTE		N12     An3 
	BYTE	W12
	BYTE		N06     Gn3 
	BYTE	W06
	BYTE		N12     An3 
	BYTE	W12
	BYTE		N06     Fn4 
	BYTE	W06
	BYTE		N12     En4 
	BYTE	W12
	BYTE		N06     Fn4 
	BYTE	W06
	BYTE		N12     En4 
	BYTE	W12
	BYTE	PEND
// 002   ----------------------------------------
FishOutOfWater_8_002:
	BYTE	W12
	BYTE		N12     Cn4   v127
	BYTE	W12
	BYTE		N06   
	BYTE	W06
	BYTE		N12     An3 
	BYTE	W12
	BYTE		N06     Gn3 
	BYTE	W06
	BYTE		N12     An3 
	BYTE	W12
	BYTE		N06     Gn3 
	BYTE	W06
	BYTE		N12     An3 
	BYTE	W12
	BYTE		N06     Gn3 
	BYTE	W06
	BYTE		N12     An3 
	BYTE	W12
	BYTE	PEND
// 003   ----------------------------------------
FishOutOfWater_8_003:
	BYTE	W12
	BYTE		N12     Dn4   v127
	BYTE	W12
	BYTE		        An3 
	BYTE	W12
	BYTE		N06     Gn3 
	BYTE	W06
	BYTE		        An3 
	BYTE	W12
	BYTE		N12     As3 
	BYTE	W12
	BYTE		        Dn4 
	BYTE	W12
	BYTE		N06   
	BYTE	W06
	BYTE		N12   
	BYTE	W12
	BYTE	PEND
// 004   ----------------------------------------
	BYTE	W78
	BYTE		N18     Fn4 
	BYTE	W18
// 005   ----------------------------------------
	BYTE	W78
	BYTE		N18   
	BYTE	W18
// 006   ----------------------------------------
FishOutOfWater_8_006:
	BYTE		N18     As3   v127
	BYTE	W18
	BYTE		N12   
	BYTE	W12
	BYTE		N06     Gn3 
	BYTE	W06
	BYTE		N12     As3 
	BYTE	W12
	BYTE		N18     Bn3 
	BYTE	W18
	BYTE		N12   
	BYTE	W12
	BYTE		N06     Gn3 
	BYTE	W06
	BYTE		N12     Bn3 
	BYTE	W12
	BYTE	PEND
// 007   ----------------------------------------
FishOutOfWater_8_007:
	BYTE		N12     Gn3   v127
	BYTE	W12
	BYTE		N06     Dn3 
	BYTE	W06
	BYTE		N12     Gn3 
	BYTE	W12
	BYTE		N06     Dn3 
	BYTE	W06
	BYTE		N12     Gn3 
	BYTE	W12
	BYTE		N06     Dn3 
	BYTE	W06
	BYTE		N06   
	BYTE	W06
	BYTE		N06   
	BYTE	W06
	BYTE		N18     En3 
	BYTE	W18
	BYTE		N12     An3 
	BYTE	W12
	BYTE	PEND
// 008   ----------------------------------------
	BYTE	W96
// 009   ----------------------------------------
	BYTE	W96
// 010   ----------------------------------------
	BYTE	W96
// 011   ----------------------------------------
	BYTE	W96
// 012   ----------------------------------------
	BYTE	W96
// 013   ----------------------------------------
	BYTE	W96
// 014   ----------------------------------------
FishOutOfWater_8_014:
	BYTE		N18     Dn4   v127
	BYTE	W18
	BYTE		N24   
	BYTE	W24
	BYTE		N12     Cn4 
	BYTE	W12
	BYTE		N06   
	BYTE	W06
	BYTE		N06   
	BYTE	W06
	BYTE		N06   
	BYTE	W06
	BYTE		N06   
	BYTE	W24
	BYTE	PEND
// 015   ----------------------------------------
FishOutOfWater_8_015:
	BYTE		N06     Dn3   v127
	BYTE	W18
	BYTE		        Cn3 
	BYTE	W24
	BYTE		        Gn2 
	BYTE	W12
	BYTE		N06   
	BYTE	W06
	BYTE		N06   
	BYTE	W06
	BYTE		N06   
	BYTE	W06
	BYTE		N06   
	BYTE	W06
	BYTE		N18     An2 
	BYTE	W18
	BYTE	PEND
// 016   ----------------------------------------
FishOutOfWater_8_016:
	BYTE		N06     Dn3   v127
	BYTE	W18
	BYTE		        Cn3 
	BYTE	W24
	BYTE		        Fn3 
	BYTE	W12
	BYTE		        En3 
	BYTE	W06
	BYTE		        Dn3 
	BYTE	W06
	BYTE		N18     Gs2 
	BYTE	W18
	BYTE		N12     An2 
	BYTE	W12
	BYTE	PEND
// 017   ----------------------------------------
	BYTE	PATT
	 POIN2	FishOutOfWater_8_015
// 018   ----------------------------------------
FishOutOfWater_8_018:
	BYTE		N06     Dn3   v127
	BYTE	W18
	BYTE		        Cn3 
	BYTE	W24
	BYTE		        Fn3 
	BYTE	W12
	BYTE		        En3 
	BYTE	W06
	BYTE		        Dn3 
	BYTE	W06
	BYTE		N12     As2 
	BYTE	W12
	BYTE		N18     As3 
	BYTE	W18
	BYTE	PEND
// 019   ----------------------------------------
	BYTE	PATT
	 POIN2	FishOutOfWater_8_015
// 020   ----------------------------------------
	BYTE	PATT
	 POIN2	FishOutOfWater_8_016
// 021   ----------------------------------------
	BYTE	PATT
	 POIN2	FishOutOfWater_8_015
// 022   ----------------------------------------
	BYTE	PATT
	 POIN2	FishOutOfWater_8_018
// 023   ----------------------------------------
FishOutOfWater_8_023:
	BYTE		N24     Cn3   v127
	BYTE	W24
	BYTE		N06     En3 
	BYTE	W06
	BYTE		        Gn3 
	BYTE	W12
	BYTE		N12     En3 
	BYTE	W12
	BYTE		N18     Cn3 
	BYTE	W18
	BYTE		N12   
	BYTE	W12
	BYTE		        En3 
	BYTE	W12
	BYTE	PEND
// 024   ----------------------------------------
FishOutOfWater_8_024:
	BYTE		N18     Cn3   v127
	BYTE	W18
	BYTE		N72     As2 
	BYTE	W78
	BYTE	PEND
// 025   ----------------------------------------
	BYTE	PATT
	 POIN2	FishOutOfWater_8_023
// 026   ----------------------------------------
FishOutOfWater_8_026:
	BYTE		N18     En3   v127
	BYTE	W18
	BYTE		N30     Fn3 
	BYTE	W30
	BYTE		N18     Dn3 
	BYTE	W18
	BYTE		N30     En3 
	BYTE	W30
	BYTE	PEND
// 027   ----------------------------------------
	BYTE	PATT
	 POIN2	FishOutOfWater_8_002
// 028   ----------------------------------------
	BYTE	PATT
	 POIN2	FishOutOfWater_8_001
// 029   ----------------------------------------
	BYTE	PATT
	 POIN2	FishOutOfWater_8_002
// 030   ----------------------------------------
	BYTE	PATT
	 POIN2	FishOutOfWater_8_003
// 031   ----------------------------------------
	BYTE	W78
	BYTE		N18     Fn4   v127
	BYTE	W18
// 032   ----------------------------------------
	BYTE	W78
	BYTE		N18   
	BYTE	W18
// 033   ----------------------------------------
	BYTE	PATT
	 POIN2	FishOutOfWater_8_006
// 034   ----------------------------------------
	BYTE	PATT
	 POIN2	FishOutOfWater_8_007
// 035   ----------------------------------------
	BYTE	W96
// 036   ----------------------------------------
	BYTE	W96
// 037   ----------------------------------------
	BYTE	W96
// 038   ----------------------------------------
	BYTE	W96
// 039   ----------------------------------------
	BYTE	W96
// 040   ----------------------------------------
	BYTE	W96
// 041   ----------------------------------------
	BYTE	PATT
	 POIN2	FishOutOfWater_8_014
// 042   ----------------------------------------
	BYTE	PATT
	 POIN2	FishOutOfWater_8_015
// 043   ----------------------------------------
	BYTE	PATT
	 POIN2	FishOutOfWater_8_016
// 044   ----------------------------------------
	BYTE	PATT
	 POIN2	FishOutOfWater_8_015
// 045   ----------------------------------------
	BYTE	PATT
	 POIN2	FishOutOfWater_8_018
// 046   ----------------------------------------
	BYTE	PATT
	 POIN2	FishOutOfWater_8_015
// 047   ----------------------------------------
	BYTE	PATT
	 POIN2	FishOutOfWater_8_016
// 048   ----------------------------------------
	BYTE	PATT
	 POIN2	FishOutOfWater_8_015
// 049   ----------------------------------------
	BYTE	PATT
	 POIN2	FishOutOfWater_8_018
// 050   ----------------------------------------
	BYTE	PATT
	 POIN2	FishOutOfWater_8_023
// 051   ----------------------------------------
	BYTE	PATT
	 POIN2	FishOutOfWater_8_024
// 052   ----------------------------------------
	BYTE	PATT
	 POIN2	FishOutOfWater_8_023
// 053   ----------------------------------------
	BYTE	PATT
	 POIN2	FishOutOfWater_8_026
// 054   ----------------------------------------
	BYTE	PATT
	 POIN2	FishOutOfWater_8_002
// 055   ----------------------------------------
	BYTE	PATT
	 POIN2	FishOutOfWater_8_001
// 056   ----------------------------------------
	BYTE	PATT
	 POIN2	FishOutOfWater_8_002
// 057   ----------------------------------------
	BYTE	PATT
	 POIN2	FishOutOfWater_8_003
// 058   ----------------------------------------
	BYTE	W78
	BYTE		N18     Fn4   v127
	BYTE	W18
// 059   ----------------------------------------
	BYTE	W78
	BYTE		N18   
	BYTE	W18
// 060   ----------------------------------------
	BYTE	PATT
	 POIN2	FishOutOfWater_8_006
// 061   ----------------------------------------
	BYTE	PATT
	 POIN2	FishOutOfWater_8_007
// 062   ----------------------------------------
	BYTE	W96
// 063   ----------------------------------------
	BYTE	W96
// 064   ----------------------------------------
	BYTE	W96
// 065   ----------------------------------------
	BYTE	W96
// 066   ----------------------------------------
	BYTE	W96
// 067   ----------------------------------------
	BYTE	W96
// 068   ----------------------------------------
	BYTE	PATT
	 POIN2	FishOutOfWater_8_014
// 069   ----------------------------------------
	BYTE	PATT
	 POIN2	FishOutOfWater_8_015
// 070   ----------------------------------------
	BYTE	PATT
	 POIN2	FishOutOfWater_8_016
// 071   ----------------------------------------
	BYTE	PATT
	 POIN2	FishOutOfWater_8_015
// 072   ----------------------------------------
	BYTE	PATT
	 POIN2	FishOutOfWater_8_018
// 073   ----------------------------------------
	BYTE	PATT
	 POIN2	FishOutOfWater_8_015
// 074   ----------------------------------------
	BYTE	PATT
	 POIN2	FishOutOfWater_8_016
// 075   ----------------------------------------
	BYTE	PATT
	 POIN2	FishOutOfWater_8_015
// 076   ----------------------------------------
	BYTE	PATT
	 POIN2	FishOutOfWater_8_018
// 077   ----------------------------------------
	BYTE	PATT
	 POIN2	FishOutOfWater_8_023
// 078   ----------------------------------------
	BYTE	PATT
	 POIN2	FishOutOfWater_8_024
// 079   ----------------------------------------
	BYTE	PATT
	 POIN2	FishOutOfWater_8_023
// 080   ----------------------------------------
	BYTE	PATT
	 POIN2	FishOutOfWater_8_026
// 081   ----------------------------------------
	BYTE	PATT
	 POIN2	FishOutOfWater_8_002
// 082   ----------------------------------------
	BYTE	PATT
	 POIN2	FishOutOfWater_8_001
// 083   ----------------------------------------
	BYTE	PATT
	 POIN2	FishOutOfWater_8_002
// 084   ----------------------------------------
	BYTE	PATT
	 POIN2	FishOutOfWater_8_003
// 085   ----------------------------------------
	BYTE	W78
	BYTE		N18     Fn4   v127
	BYTE	W18
// 086   ----------------------------------------
	BYTE	W78
	BYTE		N18   
	BYTE	W18
// 087   ----------------------------------------
	BYTE	PATT
	 POIN2	FishOutOfWater_8_006
// 088   ----------------------------------------
	BYTE	PATT
	 POIN2	FishOutOfWater_8_007
// 089   ----------------------------------------
	BYTE	W96
// 090   ----------------------------------------
	BYTE	W96
// 091   ----------------------------------------
	BYTE	W96
// 092   ----------------------------------------
	BYTE	W96
// 093   ----------------------------------------
	BYTE	W96
// 094   ----------------------------------------
	BYTE	W96
// 095   ----------------------------------------
	BYTE	PATT
	 POIN2	FishOutOfWater_8_014
// 096   ----------------------------------------
	BYTE	PATT
	 POIN2	FishOutOfWater_8_015
// 097   ----------------------------------------
	BYTE	PATT
	 POIN2	FishOutOfWater_8_016
// 098   ----------------------------------------
	BYTE	PATT
	 POIN2	FishOutOfWater_8_015
// 099   ----------------------------------------
	BYTE	PATT
	 POIN2	FishOutOfWater_8_018
// 100   ----------------------------------------
	BYTE	PATT
	 POIN2	FishOutOfWater_8_015
// 101   ----------------------------------------
	BYTE	PATT
	 POIN2	FishOutOfWater_8_016
// 102   ----------------------------------------
	BYTE	PATT
	 POIN2	FishOutOfWater_8_015
// 103   ----------------------------------------
	BYTE	PATT
	 POIN2	FishOutOfWater_8_018
// 104   ----------------------------------------
	BYTE	PATT
	 POIN2	FishOutOfWater_8_023
// 105   ----------------------------------------
	BYTE	PATT
	 POIN2	FishOutOfWater_8_024
// 106   ----------------------------------------
	BYTE	PATT
	 POIN2	FishOutOfWater_8_023
// 107   ----------------------------------------
	BYTE		N18     En3   v127
	BYTE	W18
	BYTE		N30     Fn3 
	BYTE	W30
	BYTE		N18     Dn3 
	BYTE	W18
	BYTE		N30     En3 
	BYTE	W28
	BYTE	W01
	BYTE	GoTo
	 POIN2	FishOutOfWater_8_B1
FishOutOfWater_8_B2:
	BYTE	W01
// 108   ----------------------------------------
	BYTE	FINE

//**************** Track 9 (Midi-Chn.9) ****************//

FishOutOfWater_9:
	BYTE	KEYSH   FishOutOfWater_key+0
FishOutOfWater_9_B1:
// 000   ----------------------------------------
	BYTE		VOICE   4
	BYTE		VOL     29*FishOutOfWater_mvl/mxv
	BYTE		PAN     c_v-31
	BYTE	W96
// 001   ----------------------------------------
	BYTE	W96
// 002   ----------------------------------------
	BYTE	W96
// 003   ----------------------------------------
	BYTE	W96
// 004   ----------------------------------------
FishOutOfWater_9_004:
	BYTE		N36     Cn3   v127
	BYTE	W36
	BYTE		N12   
	BYTE	W12
	BYTE		N30   
	BYTE	W48
	BYTE	PEND
// 005   ----------------------------------------
FishOutOfWater_9_005:
	BYTE		N36     Cn3   v127
	BYTE	W36
	BYTE		N12   
	BYTE	W12
	BYTE		N18   
	BYTE	W18
	BYTE		N12     As2 
	BYTE	W30
	BYTE	PEND
// 006   ----------------------------------------
	BYTE	W96
// 007   ----------------------------------------
	BYTE	W96
// 008   ----------------------------------------
FishOutOfWater_9_008:
	BYTE		N24     Dn3   v127
	BYTE	W24
	BYTE		N18     As2 
	BYTE	W18
	BYTE		        An2 
	BYTE	W18
	BYTE		N36     Fn2 
	BYTE	W36
	BYTE	PEND
// 009   ----------------------------------------
FishOutOfWater_9_009:
	BYTE		N18     Dn3   v127
	BYTE	W18
	BYTE		N12     En3 
	BYTE	W12
	BYTE		N06     Dn3 
	BYTE	W06
	BYTE		N12     En3 
	BYTE	W12
	BYTE		N06     Fn3 
	BYTE	W06
	BYTE		        En3 
	BYTE	W06
	BYTE		        Dn3 
	BYTE	W06
	BYTE		N30     Cs3 
	BYTE	W30
	BYTE	PEND
// 010   ----------------------------------------
	BYTE	PATT
	 POIN2	FishOutOfWater_9_008
// 011   ----------------------------------------
FishOutOfWater_9_011:
	BYTE		N12     An4   v127
	BYTE	W12
	BYTE		N12   
	BYTE	W12
	BYTE		N12   
	BYTE	W12
	BYTE		N12   
	BYTE	W12
	BYTE		N12   
	BYTE	W12
	BYTE		N12   
	BYTE	W12
	BYTE		N12   
	BYTE	W12
	BYTE		N12   
	BYTE	W12
	BYTE	PEND
// 012   ----------------------------------------
FishOutOfWater_9_012:
	BYTE		N12     An4   v127
	BYTE	W12
	BYTE		N12   
	BYTE	W12
	BYTE		N12   
	BYTE	W12
	BYTE		N12   
	BYTE	W12
	BYTE		N18     An5 
	BYTE	W18
	BYTE		N30     Gn5 
	BYTE	W30
	BYTE	PEND
// 013   ----------------------------------------
	BYTE	PATT
	 POIN2	FishOutOfWater_9_012
// 014   ----------------------------------------
	BYTE	W96
// 015   ----------------------------------------
	BYTE	W96
// 016   ----------------------------------------
	BYTE	W96
// 017   ----------------------------------------
	BYTE	W96
// 018   ----------------------------------------
	BYTE	W96
// 019   ----------------------------------------
	BYTE	W96
// 020   ----------------------------------------
	BYTE	W96
// 021   ----------------------------------------
	BYTE	W96
// 022   ----------------------------------------
	BYTE	W96
// 023   ----------------------------------------
FishOutOfWater_9_023:
	BYTE	W03
	BYTE		N03     An4   v127
	BYTE	W06
	BYTE		N03   
	BYTE	W06
	BYTE		N03   
	BYTE	W06
	BYTE		N03   
	BYTE	W06
	BYTE		N03   
	BYTE	W06
	BYTE		N03   
	BYTE	W06
	BYTE		N03   
	BYTE	W06
	BYTE		N03   
	BYTE	W06
	BYTE		N03   
	BYTE	W06
	BYTE		N03   
	BYTE	W06
	BYTE		N03   
	BYTE	W06
	BYTE		N03   
	BYTE	W06
	BYTE		N03   
	BYTE	W06
	BYTE		N03   
	BYTE	W06
	BYTE		N03   
	BYTE	W06
	BYTE		N03   
	BYTE	W03
	BYTE	PEND
// 024   ----------------------------------------
	BYTE	PATT
	 POIN2	FishOutOfWater_9_023
// 025   ----------------------------------------
	BYTE	PATT
	 POIN2	FishOutOfWater_9_023
// 026   ----------------------------------------
FishOutOfWater_9_026:
	BYTE	W03
	BYTE		N03     An4   v127
	BYTE	W06
	BYTE		N03   
	BYTE	W06
	BYTE		N03   
	BYTE	W06
	BYTE		N03   
	BYTE	W06
	BYTE		N03   
	BYTE	W06
	BYTE		N03   
	BYTE	W06
	BYTE		N03   
	BYTE	W06
	BYTE		N03   
	BYTE	W48
	BYTE	W03
	BYTE	PEND
// 027   ----------------------------------------
	BYTE	W96
// 028   ----------------------------------------
	BYTE	W96
// 029   ----------------------------------------
	BYTE	W96
// 030   ----------------------------------------
	BYTE	W96
// 031   ----------------------------------------
	BYTE	PATT
	 POIN2	FishOutOfWater_9_004
// 032   ----------------------------------------
	BYTE	PATT
	 POIN2	FishOutOfWater_9_005
// 033   ----------------------------------------
	BYTE	W96
// 034   ----------------------------------------
	BYTE	W96
// 035   ----------------------------------------
	BYTE	PATT
	 POIN2	FishOutOfWater_9_008
// 036   ----------------------------------------
	BYTE	PATT
	 POIN2	FishOutOfWater_9_009
// 037   ----------------------------------------
	BYTE	PATT
	 POIN2	FishOutOfWater_9_008
// 038   ----------------------------------------
	BYTE	PATT
	 POIN2	FishOutOfWater_9_011
// 039   ----------------------------------------
	BYTE	PATT
	 POIN2	FishOutOfWater_9_012
// 040   ----------------------------------------
	BYTE	PATT
	 POIN2	FishOutOfWater_9_012
// 041   ----------------------------------------
	BYTE	W96
// 042   ----------------------------------------
	BYTE	W96
// 043   ----------------------------------------
	BYTE	W96
// 044   ----------------------------------------
	BYTE	W96
// 045   ----------------------------------------
	BYTE	W96
// 046   ----------------------------------------
	BYTE	W96
// 047   ----------------------------------------
	BYTE	W96
// 048   ----------------------------------------
	BYTE	W96
// 049   ----------------------------------------
	BYTE	W96
// 050   ----------------------------------------
	BYTE	PATT
	 POIN2	FishOutOfWater_9_023
// 051   ----------------------------------------
	BYTE	PATT
	 POIN2	FishOutOfWater_9_023
// 052   ----------------------------------------
	BYTE	PATT
	 POIN2	FishOutOfWater_9_023
// 053   ----------------------------------------
	BYTE	PATT
	 POIN2	FishOutOfWater_9_026
// 054   ----------------------------------------
	BYTE	W96
// 055   ----------------------------------------
	BYTE	W96
// 056   ----------------------------------------
	BYTE	W96
// 057   ----------------------------------------
	BYTE	W96
// 058   ----------------------------------------
	BYTE	PATT
	 POIN2	FishOutOfWater_9_004
// 059   ----------------------------------------
	BYTE	PATT
	 POIN2	FishOutOfWater_9_005
// 060   ----------------------------------------
	BYTE	W96
// 061   ----------------------------------------
	BYTE	W96
// 062   ----------------------------------------
	BYTE	PATT
	 POIN2	FishOutOfWater_9_008
// 063   ----------------------------------------
	BYTE	PATT
	 POIN2	FishOutOfWater_9_009
// 064   ----------------------------------------
	BYTE	PATT
	 POIN2	FishOutOfWater_9_008
// 065   ----------------------------------------
	BYTE	PATT
	 POIN2	FishOutOfWater_9_011
// 066   ----------------------------------------
	BYTE	PATT
	 POIN2	FishOutOfWater_9_012
// 067   ----------------------------------------
	BYTE	PATT
	 POIN2	FishOutOfWater_9_012
// 068   ----------------------------------------
	BYTE	W96
// 069   ----------------------------------------
	BYTE	W96
// 070   ----------------------------------------
	BYTE	W96
// 071   ----------------------------------------
	BYTE	W96
// 072   ----------------------------------------
	BYTE	W96
// 073   ----------------------------------------
	BYTE	W96
// 074   ----------------------------------------
	BYTE	W96
// 075   ----------------------------------------
	BYTE	W96
// 076   ----------------------------------------
	BYTE	W96
// 077   ----------------------------------------
	BYTE	PATT
	 POIN2	FishOutOfWater_9_023
// 078   ----------------------------------------
	BYTE	PATT
	 POIN2	FishOutOfWater_9_023
// 079   ----------------------------------------
	BYTE	PATT
	 POIN2	FishOutOfWater_9_023
// 080   ----------------------------------------
	BYTE	PATT
	 POIN2	FishOutOfWater_9_026
// 081   ----------------------------------------
	BYTE	W96
// 082   ----------------------------------------
	BYTE	W96
// 083   ----------------------------------------
	BYTE	W96
// 084   ----------------------------------------
	BYTE	W96
// 085   ----------------------------------------
	BYTE	PATT
	 POIN2	FishOutOfWater_9_004
// 086   ----------------------------------------
	BYTE	PATT
	 POIN2	FishOutOfWater_9_005
// 087   ----------------------------------------
	BYTE	W96
// 088   ----------------------------------------
	BYTE	W96
// 089   ----------------------------------------
	BYTE	PATT
	 POIN2	FishOutOfWater_9_008
// 090   ----------------------------------------
	BYTE	PATT
	 POIN2	FishOutOfWater_9_009
// 091   ----------------------------------------
	BYTE	PATT
	 POIN2	FishOutOfWater_9_008
// 092   ----------------------------------------
	BYTE	PATT
	 POIN2	FishOutOfWater_9_011
// 093   ----------------------------------------
	BYTE	PATT
	 POIN2	FishOutOfWater_9_012
// 094   ----------------------------------------
	BYTE	PATT
	 POIN2	FishOutOfWater_9_012
// 095   ----------------------------------------
	BYTE	W96
// 096   ----------------------------------------
	BYTE	W96
// 097   ----------------------------------------
	BYTE	W96
// 098   ----------------------------------------
	BYTE	W96
// 099   ----------------------------------------
	BYTE	W96
// 100   ----------------------------------------
	BYTE	W96
// 101   ----------------------------------------
	BYTE	W96
// 102   ----------------------------------------
	BYTE	W96
// 103   ----------------------------------------
	BYTE	W96
// 104   ----------------------------------------
	BYTE	PATT
	 POIN2	FishOutOfWater_9_023
// 105   ----------------------------------------
	BYTE	PATT
	 POIN2	FishOutOfWater_9_023
// 106   ----------------------------------------
	BYTE	PATT
	 POIN2	FishOutOfWater_9_023
// 107   ----------------------------------------
	BYTE	W03
	BYTE		N03     An4   v127
	BYTE	W06
	BYTE		N03   
	BYTE	W06
	BYTE		N03   
	BYTE	W06
	BYTE		N03   
	BYTE	W06
	BYTE		N03   
	BYTE	W06
	BYTE		N03   
	BYTE	W06
	BYTE		N03   
	BYTE	W06
	BYTE		N03   
	BYTE	W48
	BYTE	W02
	BYTE	GoTo
	 POIN2	FishOutOfWater_9_B1
FishOutOfWater_9_B2:
	BYTE	W01
// 108   ----------------------------------------
	BYTE	FINE

//**************** Track 10 (Midi-Chn.10) ****************//

FishOutOfWater_10:
	BYTE	KEYSH   FishOutOfWater_key+0
FishOutOfWater_10_B1:
// 000   ----------------------------------------
	BYTE		VOICE   127
	BYTE		VOL     41*FishOutOfWater_mvl/mxv
	BYTE		N12     Cn1   v127
	BYTE		N06     Fs1 
	BYTE	W06
	BYTE		N06   
	BYTE	W06
	BYTE		N12     Dn1 
	BYTE		N06     Fs1 
	BYTE	W06
	BYTE		N06   
	BYTE	W06
	BYTE		        Cn1 
	BYTE		N06     Fs1 
	BYTE	W06
	BYTE		        Cn1 
	BYTE		N06     Fs1 
	BYTE	W06
	BYTE		N12     Dn1 
	BYTE		N06     Fs1 
	BYTE	W06
	BYTE		N06   
	BYTE	W06
	BYTE		N12     Cn1 
	BYTE		N06     Fs1 
	BYTE	W06
	BYTE		N06   
	BYTE	W06
	BYTE		N12     Dn1 
	BYTE		N06     Fs1 
	BYTE	W06
	BYTE		N06   
	BYTE	W06
	BYTE		        Cn1 
	BYTE		N06     Fs1 
	BYTE	W06
	BYTE		        Cn1 
	BYTE		N06     Fs1 
	BYTE	W06
	BYTE		N12     Dn1 
	BYTE		N06     Fs1 
	BYTE	W06
	BYTE		N06   
	BYTE	W06
// 001   ----------------------------------------
FishOutOfWater_10_001:
	BYTE		N12     Cn1   v127
	BYTE		N06     Fs1 
	BYTE	W06
	BYTE		N06   
	BYTE	W06
	BYTE		N12     Dn1 
	BYTE		N06     Fs1 
	BYTE	W06
	BYTE		N06   
	BYTE	W06
	BYTE		        Cn1 
	BYTE		N06     Fs1 
	BYTE	W06
	BYTE		        Cn1 
	BYTE		N06     Fs1 
	BYTE	W06
	BYTE		N12     Dn1 
	BYTE		N06     Fs1 
	BYTE	W06
	BYTE		N06   
	BYTE	W06
	BYTE		N12     Cn1 
	BYTE		N06     Fs1 
	BYTE	W06
	BYTE		N06   
	BYTE	W06
	BYTE		N06   
	BYTE		N06     Bn1 
	BYTE	W06
	BYTE		        Fs1 
	BYTE		N12     An1 
	BYTE	W06
	BYTE		N06     Fs1 
	BYTE	W06
	BYTE		N06   
	BYTE		N06     Gn1 
	BYTE	W06
	BYTE		N12     Fn1 
	BYTE		N06     Fs1 
	BYTE	W06
	BYTE		        As1 
	BYTE	W06
	BYTE	PEND
// 002   ----------------------------------------
FishOutOfWater_10_002:
	BYTE		N12     Cn1   v127
	BYTE		N06     Fs1 
	BYTE	W06
	BYTE		N06   
	BYTE	W06
	BYTE		N12     Dn1 
	BYTE		N06     Fs1 
	BYTE	W06
	BYTE		N06   
	BYTE	W06
	BYTE		        Cn1 
	BYTE		N06     Fs1 
	BYTE	W06
	BYTE		        Cn1 
	BYTE		N06     Fs1 
	BYTE	W06
	BYTE		N12     Dn1 
	BYTE		N06     Fs1 
	BYTE	W06
	BYTE		N06   
	BYTE	W06
	BYTE		N12     Cn1 
	BYTE		N06     Fs1 
	BYTE	W06
	BYTE		N06   
	BYTE	W06
	BYTE		N12     Dn1 
	BYTE		N06     Fs1 
	BYTE	W06
	BYTE		N06   
	BYTE	W06
	BYTE		        Cn1 
	BYTE		N06     Fs1 
	BYTE	W06
	BYTE		        Cn1 
	BYTE		N06     Fs1 
	BYTE	W06
	BYTE		N12     Dn1 
	BYTE		N06     Fs1 
	BYTE	W06
	BYTE		N06   
	BYTE	W06
	BYTE	PEND
// 003   ----------------------------------------
FishOutOfWater_10_003:
	BYTE		N12     Cn1   v127
	BYTE		N06     Fs1 
	BYTE	W06
	BYTE		N06   
	BYTE	W06
	BYTE		N12     Dn1 
	BYTE		N06     Fs1 
	BYTE	W06
	BYTE		N06   
	BYTE	W06
	BYTE		        Cn1 
	BYTE		N06     Fs1 
	BYTE	W06
	BYTE		        Cn1 
	BYTE		N06     Fs1 
	BYTE	W06
	BYTE		N12     Dn1 
	BYTE		N06     Fs1 
	BYTE	W06
	BYTE		N06   
	BYTE	W06
	BYTE		N12     Cn1 
	BYTE		N06     Fs1 
	BYTE	W06
	BYTE		N06   
	BYTE	W06
	BYTE		N12     Dn1 
	BYTE		N06     Fs1 
	BYTE	W06
	BYTE		N06   
	BYTE	W06
	BYTE		        Cn1 
	BYTE		N06     Fs1 
	BYTE	W06
	BYTE		        Dn1 
	BYTE		N06     Fs1 
	BYTE	W06
	BYTE		        Dn1 
	BYTE		N06     Fs1 
	BYTE	W06
	BYTE		        Dn1 
	BYTE		N06     Fs1 
	BYTE	W06
	BYTE	PEND
// 004   ----------------------------------------
FishOutOfWater_10_004:
	BYTE		N12     Cn1   v127
	BYTE		N06     Fs1 
	BYTE	W06
	BYTE		N06   
	BYTE	W06
	BYTE		        Dn1 
	BYTE		N06     Fs1 
	BYTE	W06
	BYTE		N12     Cn1 
	BYTE		N06     Fs1 
	BYTE	W06
	BYTE		N06   
	BYTE	W06
	BYTE		        Cn1 
	BYTE		N06     Fs1 
	BYTE	W06
	BYTE		N12     Dn1 
	BYTE		N06     Fs1 
	BYTE	W06
	BYTE		N06   
	BYTE	W06
	BYTE		N12     Cn1 
	BYTE		N06     Fs1 
	BYTE	W06
	BYTE		N06   
	BYTE	W06
	BYTE		        Dn1 
	BYTE		N06     Fs1 
	BYTE	W06
	BYTE		N12     Cn1 
	BYTE		N06     Fs1 
	BYTE	W06
	BYTE		N06   
	BYTE	W06
	BYTE		N03   
	BYTE		N06     Cn2 
	BYTE	W03
	BYTE		N03     Fs1 
	BYTE	W03
	BYTE		N12     As1 
	BYTE		N06     Bn1 
	BYTE	W06
	BYTE		        An1 
	BYTE	W06
	BYTE	PEND
// 005   ----------------------------------------
	BYTE	PATT
	 POIN2	FishOutOfWater_10_004
// 006   ----------------------------------------
FishOutOfWater_10_006:
	BYTE		N12     Cn1   v127
	BYTE		N06     Fs1 
	BYTE	W06
	BYTE		N06   
	BYTE	W06
	BYTE		        Dn1 
	BYTE		N06     Fs1 
	BYTE	W06
	BYTE		N12     Cn1 
	BYTE		N06     Fs1 
	BYTE	W06
	BYTE		N06   
	BYTE	W06
	BYTE		        Cn1 
	BYTE		N06     Fs1 
	BYTE	W06
	BYTE		N12     Dn1 
	BYTE		N06     Fs1 
	BYTE	W06
	BYTE		N06   
	BYTE	W06
	BYTE		N12     Cn1 
	BYTE		N06     Fs1 
	BYTE	W06
	BYTE		N06   
	BYTE	W06
	BYTE		        Dn1 
	BYTE		N06     Fs1 
	BYTE	W06
	BYTE		N12     Cn1 
	BYTE		N06     Fs1 
	BYTE	W06
	BYTE		N06   
	BYTE	W06
	BYTE		        Cn1 
	BYTE		N06     Fs1 
	BYTE	W06
	BYTE		N12     Dn1 
	BYTE		N06     Fs1 
	BYTE	W06
	BYTE		N06   
	BYTE	W06
	BYTE	PEND
// 007   ----------------------------------------
FishOutOfWater_10_007:
	BYTE		N12     Cn1   v127
	BYTE		N06     Fs1 
	BYTE	W06
	BYTE		N06   
	BYTE	W06
	BYTE		N06   
	BYTE		N06     Cn2 
	BYTE	W06
	BYTE		        Fs1 
	BYTE		N12     Bn1 
	BYTE	W06
	BYTE		N06     Fs1 
	BYTE	W06
	BYTE		N06   
	BYTE		N06     An1 
	BYTE	W06
	BYTE		        Fs1 
	BYTE		N06     Gn1 
	BYTE	W06
	BYTE		        Fn1 
	BYTE		N06     Fs1 
	BYTE	W06
	BYTE		        Dn1 
	BYTE		N06     As1 
	BYTE	W06
	BYTE		        Dn1 
	BYTE		N06     As1 
	BYTE	W06
	BYTE		        Dn1 
	BYTE		N06     As1 
	BYTE	W06
	BYTE		N12     Dn1 
	BYTE		N06     As1 
	BYTE	W06
	BYTE		        Fs1 
	BYTE	W06
	BYTE		        Cn1 
	BYTE		N06     Fs1 
	BYTE	W06
	BYTE		N12     Dn1 
	BYTE		N12     As1 
	BYTE	W12
	BYTE	PEND
// 008   ----------------------------------------
FishOutOfWater_10_008:
	BYTE		N12     Cn1   v127
	BYTE		N06     Fs1 
	BYTE	W06
	BYTE		N06   
	BYTE	W06
	BYTE		N12     Dn1 
	BYTE		N06     Fs1 
	BYTE	W06
	BYTE		N06   
	BYTE	W06
	BYTE		        Cn1 
	BYTE		N06     Fs1 
	BYTE	W06
	BYTE		        Cn1 
	BYTE		N06     Fs1 
	BYTE	W06
	BYTE		        Dn1 
	BYTE		N06     Fs1 
	BYTE	W06
	BYTE		N12     Cn1 
	BYTE		N06     Fs1 
	BYTE	W06
	BYTE		N06   
	BYTE	W06
	BYTE		        Cn1 
	BYTE		N06     Fs1 
	BYTE	W06
	BYTE		        Dn1 
	BYTE		N06     Fs1 
	BYTE	W06
	BYTE		N12     Cn1 
	BYTE		N06     Fs1 
	BYTE	W06
	BYTE		N06   
	BYTE	W06
	BYTE		        Cn1 
	BYTE		N06     Fs1 
	BYTE	W06
	BYTE		N12     Dn1 
	BYTE		N06     Fs1 
	BYTE	W06
	BYTE		N06   
	BYTE	W06
	BYTE	PEND
// 009   ----------------------------------------
	BYTE	PATT
	 POIN2	FishOutOfWater_10_002
// 010   ----------------------------------------
	BYTE	PATT
	 POIN2	FishOutOfWater_10_008
// 011   ----------------------------------------
	BYTE	PATT
	 POIN2	FishOutOfWater_10_002
// 012   ----------------------------------------
	BYTE	PATT
	 POIN2	FishOutOfWater_10_002
// 013   ----------------------------------------
FishOutOfWater_10_013:
	BYTE		N12     Cn1   v127
	BYTE		N06     Fs1 
	BYTE	W06
	BYTE		N06   
	BYTE	W06
	BYTE		N12     Dn1 
	BYTE		N06     Fs1 
	BYTE	W06
	BYTE		N06   
	BYTE	W06
	BYTE		        Cn1 
	BYTE		N06     Fs1 
	BYTE	W06
	BYTE		        Cn1 
	BYTE		N06     Fs1 
	BYTE	W06
	BYTE		N12     Dn1 
	BYTE		N06     Fs1 
	BYTE	W06
	BYTE		N06   
	BYTE	W06
	BYTE		N12     Cn1 
	BYTE		N06     Fs1 
	BYTE	W06
	BYTE		N06   
	BYTE	W06
	BYTE		N12     Dn1 
	BYTE		N06     Fs1 
	BYTE	W06
	BYTE		N06   
	BYTE	W06
	BYTE		N06   
	BYTE		N06     Cn2 
	BYTE	W06
	BYTE		        Fs1 
	BYTE		N06     Bn1 
	BYTE	W06
	BYTE		        An1 
	BYTE		N12     As1 
	BYTE	W06
	BYTE		N06     Gn1 
	BYTE	W06
	BYTE	PEND
// 014   ----------------------------------------
FishOutOfWater_10_014:
	BYTE		N06     Dn1   v127
	BYTE		N06     As1 
	BYTE	W06
	BYTE		        Cn1 
	BYTE		N06     Fs1 
	BYTE	W06
	BYTE		        Dn1 
	BYTE		N06     Fs1 
	BYTE	W06
	BYTE		        Dn1 
	BYTE		N06     As1 
	BYTE	W06
	BYTE		        Fs1 
	BYTE		N06     Cn2 
	BYTE	W06
	BYTE		        Fs1 
	BYTE		N06     Bn1 
	BYTE	W06
	BYTE		        An1 
	BYTE		N06     As1 
	BYTE	W06
	BYTE		N12     Dn1 
	BYTE		N06     Fs1 
	BYTE	W06
	BYTE		N06   
	BYTE	W06
	BYTE		        Dn1 
	BYTE		N06     Fs1 
	BYTE	W06
	BYTE		        Dn1 
	BYTE		N06     Fs1 
	BYTE	W06
	BYTE		        Dn1 
	BYTE		N06     Fs1 
	BYTE	W06
	BYTE		        Dn1 
	BYTE		N06     Fs1 
	BYTE	W06
	BYTE		        Cn1 
	BYTE		N03     Fs1 
	BYTE	W03
	BYTE		N03   
	BYTE	W03
	BYTE		N12     Dn1 
	BYTE		N12     As1 
	BYTE	W12
	BYTE	PEND
// 015   ----------------------------------------
FishOutOfWater_10_015:
	BYTE		N12     Cn1   v127
	BYTE		N06     Fs1 
	BYTE	W06
	BYTE		N06   
	BYTE	W06
	BYTE		        Dn1 
	BYTE		N06     Fs1 
	BYTE	W06
	BYTE		N12     Cn1 
	BYTE		N06     Fs1 
	BYTE	W06
	BYTE		N06   
	BYTE	W06
	BYTE		        Cn1 
	BYTE		N06     Fs1 
	BYTE	W06
	BYTE		        Dn1 
	BYTE		N06     Fs1 
	BYTE	W06
	BYTE		N12     Cn1 
	BYTE		N06     Fs1 
	BYTE	W06
	BYTE		N06   
	BYTE	W06
	BYTE		        Cn1 
	BYTE		N06     Fs1 
	BYTE	W06
	BYTE		        Dn1 
	BYTE		N06     Fs1 
	BYTE	W06
	BYTE		        Cn1 
	BYTE		N06     Fs1 
	BYTE	W06
	BYTE		N12     Cn1 
	BYTE		N06     Fs1 
	BYTE	W06
	BYTE		N06   
	BYTE	W06
	BYTE		N12     Ds1 
	BYTE		N06     Fs1 
	BYTE	W06
	BYTE		N06   
	BYTE	W06
	BYTE	PEND
// 016   ----------------------------------------
FishOutOfWater_10_016:
	BYTE		N12     Cn1   v127
	BYTE		N06     Fs1 
	BYTE	W06
	BYTE		N06   
	BYTE	W06
	BYTE		        Dn1 
	BYTE		N06     Fs1 
	BYTE	W06
	BYTE		N12     Cn1 
	BYTE		N06     Fs1 
	BYTE	W06
	BYTE		N06   
	BYTE	W06
	BYTE		        Cn1 
	BYTE		N06     Fs1 
	BYTE	W06
	BYTE		        Dn1 
	BYTE		N06     Fs1 
	BYTE	W06
	BYTE		N12     Cn1 
	BYTE		N06     Fs1 
	BYTE	W06
	BYTE		N06   
	BYTE	W06
	BYTE		        Cn1 
	BYTE		N06     Fs1 
	BYTE	W06
	BYTE		        Dn1 
	BYTE		N06     Fs1 
	BYTE	W06
	BYTE		        Cn1 
	BYTE		N06     Fs1 
	BYTE	W06
	BYTE		        Cn1 
	BYTE	W06
	BYTE		        Ds1 
	BYTE		N06     Fs1 
	BYTE	W06
	BYTE		N12     Ds1 
	BYTE		N12     As1 
	BYTE	W12
	BYTE	PEND
// 017   ----------------------------------------
	BYTE	PATT
	 POIN2	FishOutOfWater_10_015
// 018   ----------------------------------------
	BYTE	PATT
	 POIN2	FishOutOfWater_10_016
// 019   ----------------------------------------
	BYTE	PATT
	 POIN2	FishOutOfWater_10_015
// 020   ----------------------------------------
	BYTE	PATT
	 POIN2	FishOutOfWater_10_016
// 021   ----------------------------------------
	BYTE	PATT
	 POIN2	FishOutOfWater_10_015
// 022   ----------------------------------------
	BYTE	PATT
	 POIN2	FishOutOfWater_10_016
// 023   ----------------------------------------
FishOutOfWater_10_023:
	BYTE		N12     Cn1   v127
	BYTE		N03     Fs1 
	BYTE	W03
	BYTE		N03   
	BYTE	W03
	BYTE		N06   
	BYTE	W06
	BYTE		N12     Dn1 
	BYTE		N03     Fs1 
	BYTE	W03
	BYTE		N03   
	BYTE	W03
	BYTE		N06   
	BYTE	W06
	BYTE		        Cn1 
	BYTE		N03     Fs1 
	BYTE	W03
	BYTE		N03   
	BYTE	W03
	BYTE		N06     Cn1 
	BYTE		N06     Fs1 
	BYTE	W06
	BYTE		N12     Dn1 
	BYTE		N03     Fs1 
	BYTE	W03
	BYTE		N03   
	BYTE	W03
	BYTE		N06   
	BYTE	W06
	BYTE		N12     Cn1 
	BYTE		N03     Fs1 
	BYTE	W03
	BYTE		N03   
	BYTE	W03
	BYTE		N06   
	BYTE	W06
	BYTE		N12     Dn1 
	BYTE		N03     Fs1 
	BYTE	W03
	BYTE		N03   
	BYTE	W03
	BYTE		N06   
	BYTE	W06
	BYTE		        Cn1 
	BYTE		N03     Fs1 
	BYTE	W03
	BYTE		N03   
	BYTE	W03
	BYTE		N06     Cn1 
	BYTE		N06     Fs1 
	BYTE	W06
	BYTE		N12     Dn1 
	BYTE		N03     Fs1 
	BYTE	W03
	BYTE		N03   
	BYTE	W03
	BYTE		N06   
	BYTE	W06
	BYTE	PEND
// 024   ----------------------------------------
FishOutOfWater_10_024:
	BYTE		N12     Cn1   v127
	BYTE		N03     Fs1 
	BYTE	W03
	BYTE		N03   
	BYTE	W03
	BYTE		N06   
	BYTE	W06
	BYTE		N12     Dn1 
	BYTE		N03     Fs1 
	BYTE	W03
	BYTE		N03   
	BYTE	W03
	BYTE		N06   
	BYTE	W06
	BYTE		        Cn1 
	BYTE		N03     Fs1 
	BYTE	W03
	BYTE		N03   
	BYTE	W03
	BYTE		N06     Cn1 
	BYTE		N06     Fs1 
	BYTE	W06
	BYTE		N12     Dn1 
	BYTE		N03     Fs1 
	BYTE	W03
	BYTE		N03   
	BYTE	W03
	BYTE		N06   
	BYTE	W06
	BYTE		N12     Cn1 
	BYTE		N03     Fs1 
	BYTE	W03
	BYTE		N03   
	BYTE	W03
	BYTE		N06   
	BYTE	W06
	BYTE		        Dn1 
	BYTE		N03     Fs1 
	BYTE	W03
	BYTE		N03   
	BYTE	W03
	BYTE		N12     Cn1 
	BYTE		N06     Fs1 
	BYTE	W06
	BYTE		N03   
	BYTE	W03
	BYTE		N03   
	BYTE	W03
	BYTE		N12     Dn1 
	BYTE		N06     Fs1 
	BYTE	W06
	BYTE		N03   
	BYTE	W03
	BYTE		N03   
	BYTE	W03
	BYTE		N06     Dn1 
	BYTE		N06     Fs1 
	BYTE	W06
	BYTE	PEND
// 025   ----------------------------------------
	BYTE	PATT
	 POIN2	FishOutOfWater_10_023
// 026   ----------------------------------------
FishOutOfWater_10_026:
	BYTE		N12     Cn1   v127
	BYTE		N03     Fs1 
	BYTE	W03
	BYTE		N03   
	BYTE	W03
	BYTE		N06   
	BYTE	W06
	BYTE		        Dn1 
	BYTE		N03     Fs1 
	BYTE	W03
	BYTE		N03   
	BYTE	W03
	BYTE		N12     Cn1 
	BYTE		N06     Fs1 
	BYTE	W06
	BYTE		N03   
	BYTE	W03
	BYTE		N03   
	BYTE	W03
	BYTE		N06     Cn1 
	BYTE		N06     Fs1 
	BYTE	W06
	BYTE		N12     Dn1 
	BYTE		N03     Fs1 
	BYTE	W03
	BYTE		N03   
	BYTE	W03
	BYTE		N06   
	BYTE	W06
	BYTE		N12     Cn1 
	BYTE		N03     Fs1 
	BYTE	W03
	BYTE		N03   
	BYTE	W03
	BYTE		N06   
	BYTE	W06
	BYTE		N03   
	BYTE		N03     Dn2 
	BYTE	W03
	BYTE		        Fs1 
	BYTE		N06     Cn2 
	BYTE	W03
	BYTE		        Fs1 
	BYTE	W03
	BYTE		N03     Bn1 
	BYTE	W03
	BYTE		        Fs1 
	BYTE		N06     An1 
	BYTE	W03
	BYTE		N03     Fs1 
	BYTE	W03
	BYTE		N06   
	BYTE		N03     Gn1 
	BYTE	W03
	BYTE		        Fn1 
	BYTE	W03
	BYTE		N12     Dn1 
	BYTE		N12     As1 
	BYTE	W12
	BYTE	PEND
// 027   ----------------------------------------
	BYTE	PATT
	 POIN2	FishOutOfWater_10_002
// 028   ----------------------------------------
	BYTE	PATT
	 POIN2	FishOutOfWater_10_001
// 029   ----------------------------------------
	BYTE	PATT
	 POIN2	FishOutOfWater_10_002
// 030   ----------------------------------------
	BYTE	PATT
	 POIN2	FishOutOfWater_10_003
// 031   ----------------------------------------
	BYTE	PATT
	 POIN2	FishOutOfWater_10_004
// 032   ----------------------------------------
	BYTE	PATT
	 POIN2	FishOutOfWater_10_004
// 033   ----------------------------------------
	BYTE	PATT
	 POIN2	FishOutOfWater_10_006
// 034   ----------------------------------------
	BYTE	PATT
	 POIN2	FishOutOfWater_10_007
// 035   ----------------------------------------
	BYTE	PATT
	 POIN2	FishOutOfWater_10_008
// 036   ----------------------------------------
	BYTE	PATT
	 POIN2	FishOutOfWater_10_002
// 037   ----------------------------------------
	BYTE	PATT
	 POIN2	FishOutOfWater_10_008
// 038   ----------------------------------------
	BYTE	PATT
	 POIN2	FishOutOfWater_10_002
// 039   ----------------------------------------
	BYTE	PATT
	 POIN2	FishOutOfWater_10_002
// 040   ----------------------------------------
	BYTE	PATT
	 POIN2	FishOutOfWater_10_013
// 041   ----------------------------------------
	BYTE	PATT
	 POIN2	FishOutOfWater_10_014
// 042   ----------------------------------------
	BYTE	PATT
	 POIN2	FishOutOfWater_10_015
// 043   ----------------------------------------
	BYTE	PATT
	 POIN2	FishOutOfWater_10_016
// 044   ----------------------------------------
	BYTE	PATT
	 POIN2	FishOutOfWater_10_015
// 045   ----------------------------------------
	BYTE	PATT
	 POIN2	FishOutOfWater_10_016
// 046   ----------------------------------------
	BYTE	PATT
	 POIN2	FishOutOfWater_10_015
// 047   ----------------------------------------
	BYTE	PATT
	 POIN2	FishOutOfWater_10_016
// 048   ----------------------------------------
	BYTE	PATT
	 POIN2	FishOutOfWater_10_015
// 049   ----------------------------------------
	BYTE	PATT
	 POIN2	FishOutOfWater_10_016
// 050   ----------------------------------------
	BYTE	PATT
	 POIN2	FishOutOfWater_10_023
// 051   ----------------------------------------
	BYTE	PATT
	 POIN2	FishOutOfWater_10_024
// 052   ----------------------------------------
	BYTE	PATT
	 POIN2	FishOutOfWater_10_023
// 053   ----------------------------------------
	BYTE	PATT
	 POIN2	FishOutOfWater_10_026
// 054   ----------------------------------------
	BYTE	PATT
	 POIN2	FishOutOfWater_10_002
// 055   ----------------------------------------
	BYTE	PATT
	 POIN2	FishOutOfWater_10_001
// 056   ----------------------------------------
	BYTE	PATT
	 POIN2	FishOutOfWater_10_002
// 057   ----------------------------------------
	BYTE	PATT
	 POIN2	FishOutOfWater_10_003
// 058   ----------------------------------------
	BYTE	PATT
	 POIN2	FishOutOfWater_10_004
// 059   ----------------------------------------
	BYTE	PATT
	 POIN2	FishOutOfWater_10_004
// 060   ----------------------------------------
	BYTE	PATT
	 POIN2	FishOutOfWater_10_006
// 061   ----------------------------------------
	BYTE	PATT
	 POIN2	FishOutOfWater_10_007
// 062   ----------------------------------------
	BYTE	PATT
	 POIN2	FishOutOfWater_10_008
// 063   ----------------------------------------
	BYTE	PATT
	 POIN2	FishOutOfWater_10_002
// 064   ----------------------------------------
	BYTE	PATT
	 POIN2	FishOutOfWater_10_008
// 065   ----------------------------------------
	BYTE	PATT
	 POIN2	FishOutOfWater_10_002
// 066   ----------------------------------------
	BYTE	PATT
	 POIN2	FishOutOfWater_10_002
// 067   ----------------------------------------
	BYTE	PATT
	 POIN2	FishOutOfWater_10_013
// 068   ----------------------------------------
	BYTE	PATT
	 POIN2	FishOutOfWater_10_014
// 069   ----------------------------------------
	BYTE	PATT
	 POIN2	FishOutOfWater_10_015
// 070   ----------------------------------------
	BYTE	PATT
	 POIN2	FishOutOfWater_10_016
// 071   ----------------------------------------
	BYTE	PATT
	 POIN2	FishOutOfWater_10_015
// 072   ----------------------------------------
	BYTE	PATT
	 POIN2	FishOutOfWater_10_016
// 073   ----------------------------------------
	BYTE	PATT
	 POIN2	FishOutOfWater_10_015
// 074   ----------------------------------------
	BYTE	PATT
	 POIN2	FishOutOfWater_10_016
// 075   ----------------------------------------
	BYTE	PATT
	 POIN2	FishOutOfWater_10_015
// 076   ----------------------------------------
	BYTE	PATT
	 POIN2	FishOutOfWater_10_016
// 077   ----------------------------------------
	BYTE	PATT
	 POIN2	FishOutOfWater_10_023
// 078   ----------------------------------------
	BYTE	PATT
	 POIN2	FishOutOfWater_10_024
// 079   ----------------------------------------
	BYTE	PATT
	 POIN2	FishOutOfWater_10_023
// 080   ----------------------------------------
	BYTE	PATT
	 POIN2	FishOutOfWater_10_026
// 081   ----------------------------------------
	BYTE	PATT
	 POIN2	FishOutOfWater_10_002
// 082   ----------------------------------------
	BYTE	PATT
	 POIN2	FishOutOfWater_10_001
// 083   ----------------------------------------
	BYTE	PATT
	 POIN2	FishOutOfWater_10_002
// 084   ----------------------------------------
	BYTE	PATT
	 POIN2	FishOutOfWater_10_003
// 085   ----------------------------------------
	BYTE	PATT
	 POIN2	FishOutOfWater_10_004
// 086   ----------------------------------------
	BYTE	PATT
	 POIN2	FishOutOfWater_10_004
// 087   ----------------------------------------
	BYTE	PATT
	 POIN2	FishOutOfWater_10_006
// 088   ----------------------------------------
	BYTE	PATT
	 POIN2	FishOutOfWater_10_007
// 089   ----------------------------------------
	BYTE	PATT
	 POIN2	FishOutOfWater_10_008
// 090   ----------------------------------------
	BYTE	PATT
	 POIN2	FishOutOfWater_10_002
// 091   ----------------------------------------
	BYTE	PATT
	 POIN2	FishOutOfWater_10_008
// 092   ----------------------------------------
	BYTE	PATT
	 POIN2	FishOutOfWater_10_002
// 093   ----------------------------------------
	BYTE	PATT
	 POIN2	FishOutOfWater_10_002
// 094   ----------------------------------------
	BYTE	PATT
	 POIN2	FishOutOfWater_10_013
// 095   ----------------------------------------
	BYTE	PATT
	 POIN2	FishOutOfWater_10_014
// 096   ----------------------------------------
	BYTE	PATT
	 POIN2	FishOutOfWater_10_015
// 097   ----------------------------------------
	BYTE	PATT
	 POIN2	FishOutOfWater_10_016
// 098   ----------------------------------------
	BYTE	PATT
	 POIN2	FishOutOfWater_10_015
// 099   ----------------------------------------
	BYTE	PATT
	 POIN2	FishOutOfWater_10_016
// 100   ----------------------------------------
	BYTE	PATT
	 POIN2	FishOutOfWater_10_015
// 101   ----------------------------------------
	BYTE	PATT
	 POIN2	FishOutOfWater_10_016
// 102   ----------------------------------------
	BYTE	PATT
	 POIN2	FishOutOfWater_10_015
// 103   ----------------------------------------
	BYTE	PATT
	 POIN2	FishOutOfWater_10_016
// 104   ----------------------------------------
	BYTE	PATT
	 POIN2	FishOutOfWater_10_023
// 105   ----------------------------------------
	BYTE	PATT
	 POIN2	FishOutOfWater_10_024
// 106   ----------------------------------------
	BYTE	PATT
	 POIN2	FishOutOfWater_10_023
// 107   ----------------------------------------
	BYTE		N12     Cn1   v127
	BYTE		N03     Fs1 
	BYTE	W03
	BYTE		N03   
	BYTE	W03
	BYTE		N06   
	BYTE	W06
	BYTE		        Dn1 
	BYTE		N03     Fs1 
	BYTE	W03
	BYTE		N03   
	BYTE	W03
	BYTE		N12     Cn1 
	BYTE		N06     Fs1 
	BYTE	W06
	BYTE		N03   
	BYTE	W03
	BYTE		N03   
	BYTE	W03
	BYTE		N06     Cn1 
	BYTE		N06     Fs1 
	BYTE	W06
	BYTE		N12     Dn1 
	BYTE		N03     Fs1 
	BYTE	W03
	BYTE		N03   
	BYTE	W03
	BYTE		N06   
	BYTE	W06
	BYTE		N12     Cn1 
	BYTE		N03     Fs1 
	BYTE	W03
	BYTE		N03   
	BYTE	W03
	BYTE		N06   
	BYTE	W06
	BYTE		N03   
	BYTE		N03     Dn2 
	BYTE	W03
	BYTE		        Fs1 
	BYTE		N06     Cn2 
	BYTE	W03
	BYTE		        Fs1 
	BYTE	W03
	BYTE		N03     Bn1 
	BYTE	W03
	BYTE		        Fs1 
	BYTE		N06     An1 
	BYTE	W03
	BYTE		N03     Fs1 
	BYTE	W03
	BYTE		N06   
	BYTE		N03     Gn1 
	BYTE	W03
	BYTE		        Fn1 
	BYTE	W03
	BYTE		N12     Dn1 
	BYTE		N12     As1 
	BYTE	W11
	BYTE	GoTo
	 POIN2	FishOutOfWater_10_B1
FishOutOfWater_10_B2:
	BYTE	W01
// 108   ----------------------------------------
	BYTE	FINE

//**************** Track 11 (Midi-Chn.11) ****************//

FishOutOfWater_11:
	BYTE	KEYSH   FishOutOfWater_key+0
FishOutOfWater_11_B1:
// 000   ----------------------------------------
	BYTE		VOICE   33
	BYTE		VOL     51*FishOutOfWater_mvl/mxv
	BYTE		PAN     c_v+63
	BYTE		N06     Dn2   v127
	BYTE	W06
	BYTE		N06   
	BYTE	W06
	BYTE		N06   
	BYTE	W06
	BYTE		N06   
	BYTE	W06
	BYTE		N06   
	BYTE	W06
	BYTE		N06   
	BYTE	W06
	BYTE		N06   
	BYTE	W06
	BYTE		N06   
	BYTE	W06
	BYTE		        Cn2 
	BYTE	W06
	BYTE		N06   
	BYTE	W06
	BYTE		N06   
	BYTE	W06
	BYTE		N06   
	BYTE	W06
	BYTE		N06   
	BYTE	W06
	BYTE		N06   
	BYTE	W06
	BYTE		N06   
	BYTE	W06
	BYTE		N06   
	BYTE	W06
// 001   ----------------------------------------
FishOutOfWater_11_001:
	BYTE		N06     As1   v127
	BYTE	W06
	BYTE		N06   
	BYTE	W06
	BYTE		N06   
	BYTE	W06
	BYTE		N06   
	BYTE	W06
	BYTE		N06   
	BYTE	W06
	BYTE		N06   
	BYTE	W06
	BYTE		N06   
	BYTE	W06
	BYTE		N06   
	BYTE	W06
	BYTE		N12   
	BYTE	W12
	BYTE		N06   
	BYTE	W06
	BYTE		N12     Cn2 
	BYTE	W12
	BYTE		N06     As1 
	BYTE	W06
	BYTE		N12     Cn2 
	BYTE	W12
	BYTE	PEND
// 002   ----------------------------------------
FishOutOfWater_11_002:
	BYTE		N06     Dn2   v127
	BYTE	W06
	BYTE		N06   
	BYTE	W06
	BYTE		N06   
	BYTE	W06
	BYTE		N06   
	BYTE	W06
	BYTE		N06   
	BYTE	W06
	BYTE		N06   
	BYTE	W06
	BYTE		N06   
	BYTE	W06
	BYTE		N06   
	BYTE	W06
	BYTE		        Cn2 
	BYTE	W06
	BYTE		N06   
	BYTE	W06
	BYTE		N06   
	BYTE	W06
	BYTE		N06   
	BYTE	W06
	BYTE		N06   
	BYTE	W06
	BYTE		N06   
	BYTE	W06
	BYTE		N06   
	BYTE	W06
	BYTE		N06   
	BYTE	W06
	BYTE	PEND
// 003   ----------------------------------------
FishOutOfWater_11_003:
	BYTE		N06     Bn1   v127
	BYTE	W06
	BYTE		N06   
	BYTE	W06
	BYTE		N06   
	BYTE	W06
	BYTE		N06   
	BYTE	W06
	BYTE		N06   
	BYTE	W06
	BYTE		N06   
	BYTE	W06
	BYTE		N06   
	BYTE	W06
	BYTE		N06   
	BYTE	W06
	BYTE		        As1 
	BYTE	W06
	BYTE		N06   
	BYTE	W06
	BYTE		N06   
	BYTE	W06
	BYTE		N06   
	BYTE	W06
	BYTE		N06   
	BYTE	W06
	BYTE		N06   
	BYTE	W06
	BYTE		N06   
	BYTE	W06
	BYTE		N06   
	BYTE	W06
	BYTE	PEND
// 004   ----------------------------------------
FishOutOfWater_11_004:
	BYTE		N18     An1   v127
	BYTE	W18
	BYTE		N12     An2 
	BYTE	W12
	BYTE		N06     Dn2 
	BYTE	W06
	BYTE		        En2 
	BYTE	W06
	BYTE		        An1 
	BYTE	W06
	BYTE		N18     Dn2 
	BYTE	W18
	BYTE		N12     Dn3 
	BYTE	W12
	BYTE		N06     Cn2 
	BYTE	W06
	BYTE		N12     Dn2 
	BYTE	W12
	BYTE	PEND
// 005   ----------------------------------------
FishOutOfWater_11_005:
	BYTE		N18     An1   v127
	BYTE	W18
	BYTE		N12     An2 
	BYTE	W12
	BYTE		N06     Dn2 
	BYTE	W06
	BYTE		        En2 
	BYTE	W06
	BYTE		        An1 
	BYTE	W06
	BYTE		N18     As1 
	BYTE	W18
	BYTE		N12     As2 
	BYTE	W12
	BYTE		N06     An1 
	BYTE	W06
	BYTE		        As1 
	BYTE	W06
	BYTE		        Dn2 
	BYTE	W06
	BYTE	PEND
// 006   ----------------------------------------
FishOutOfWater_11_006:
	BYTE		N06     Ds2   v127
	BYTE	W06
	BYTE		N06   
	BYTE	W06
	BYTE		N06   
	BYTE	W06
	BYTE		N06   
	BYTE	W06
	BYTE		N06   
	BYTE	W06
	BYTE		N06   
	BYTE	W06
	BYTE		N06   
	BYTE	W06
	BYTE		N06   
	BYTE	W06
	BYTE		        En2 
	BYTE	W06
	BYTE		N06   
	BYTE	W06
	BYTE		N06   
	BYTE	W06
	BYTE		N06   
	BYTE	W06
	BYTE		N06   
	BYTE	W06
	BYTE		N06   
	BYTE	W06
	BYTE		N06   
	BYTE	W06
	BYTE		N06   
	BYTE	W06
	BYTE	PEND
// 007   ----------------------------------------
FishOutOfWater_11_007:
	BYTE		N06     An1   v127
	BYTE	W06
	BYTE		N06   
	BYTE	W06
	BYTE		        Dn2 
	BYTE	W06
	BYTE		N12     En2 
	BYTE	W12
	BYTE		        Gn2 
	BYTE	W12
	BYTE		N06     En2 
	BYTE	W06
	BYTE		        An2 
	BYTE	W06
	BYTE		N06   
	BYTE	W06
	BYTE		N06   
	BYTE	W06
	BYTE		N12     An1 
	BYTE	W12
	BYTE		N06     An2 
	BYTE	W06
	BYTE		N12     An1 
	BYTE	W12
	BYTE	PEND
// 008   ----------------------------------------
FishOutOfWater_11_008:
	BYTE		N12     As1   v127
	BYTE	W12
	BYTE		N06     Dn2 
	BYTE	W06
	BYTE		        Fn2 
	BYTE	W06
	BYTE		        Gn1 
	BYTE	W06
	BYTE		N12     Gn2 
	BYTE	W12
	BYTE		        An1 
	BYTE	W12
	BYTE		N06     Cn2 
	BYTE	W06
	BYTE		        En2 
	BYTE	W06
	BYTE		N12     Dn2 
	BYTE	W12
	BYTE		N06     Cn2 
	BYTE	W06
	BYTE		N12     Dn2 
	BYTE	W12
	BYTE	PEND
// 009   ----------------------------------------
FishOutOfWater_11_009:
	BYTE		N06     Gn1   v127
	BYTE	W06
	BYTE		N06   
	BYTE	W06
	BYTE		N06   
	BYTE	W06
	BYTE		N06   
	BYTE	W06
	BYTE		N06   
	BYTE	W06
	BYTE		N06   
	BYTE	W06
	BYTE		N06   
	BYTE	W06
	BYTE		N06   
	BYTE	W06
	BYTE		N12     An1 
	BYTE	W12
	BYTE		N06     An2 
	BYTE	W06
	BYTE		N12     En2 
	BYTE	W12
	BYTE		N06   
	BYTE	W06
	BYTE		N12     An1 
	BYTE	W12
	BYTE	PEND
// 010   ----------------------------------------
	BYTE	PATT
	 POIN2	FishOutOfWater_11_008
// 011   ----------------------------------------
FishOutOfWater_11_011:
	BYTE		N06     Gn1   v127
	BYTE	W06
	BYTE		N06   
	BYTE	W06
	BYTE		N06   
	BYTE	W06
	BYTE		N06   
	BYTE	W06
	BYTE		N06   
	BYTE	W06
	BYTE		N06   
	BYTE	W06
	BYTE		N06   
	BYTE	W06
	BYTE		N06   
	BYTE	W06
	BYTE		N06   
	BYTE	W06
	BYTE		N06   
	BYTE	W06
	BYTE		N06   
	BYTE	W06
	BYTE		N06   
	BYTE	W06
	BYTE		N06   
	BYTE	W06
	BYTE		N06   
	BYTE	W06
	BYTE		N06   
	BYTE	W06
	BYTE		N06   
	BYTE	W06
	BYTE	PEND
// 012   ----------------------------------------
	BYTE	PATT
	 POIN2	FishOutOfWater_11_011
// 013   ----------------------------------------
FishOutOfWater_11_013:
	BYTE		N06     Gn1   v127
	BYTE	W06
	BYTE		N06   
	BYTE	W06
	BYTE		N06   
	BYTE	W06
	BYTE		N06   
	BYTE	W06
	BYTE		N06   
	BYTE	W06
	BYTE		N06   
	BYTE	W06
	BYTE		N06   
	BYTE	W06
	BYTE		N06   
	BYTE	W06
	BYTE		N06   
	BYTE	W06
	BYTE		        As1 
	BYTE	W06
	BYTE		        Cn2 
	BYTE	W06
	BYTE		N12     Dn2 
	BYTE	W12
	BYTE		        Fn2 
	BYTE	W12
	BYTE		N06     Dn2 
	BYTE	W06
	BYTE	PEND
// 014   ----------------------------------------
FishOutOfWater_11_014:
	BYTE		N06     Gn2   v127
	BYTE	W06
	BYTE		N06   
	BYTE	W06
	BYTE		N06   
	BYTE	W06
	BYTE		N06   
	BYTE	W06
	BYTE		N06   
	BYTE	W06
	BYTE		N06   
	BYTE	W06
	BYTE		N06   
	BYTE	W06
	BYTE		N12     Gs2 
	BYTE	W12
	BYTE		N06   
	BYTE	W06
	BYTE		N06   
	BYTE	W06
	BYTE		N06   
	BYTE	W06
	BYTE		N06   
	BYTE	W06
	BYTE		        Gs1 
	BYTE	W06
	BYTE		N12     As1 
	BYTE	W12
	BYTE	PEND
// 015   ----------------------------------------
FishOutOfWater_11_015:
	BYTE		N18     Cn2   v127
	BYTE	W18
	BYTE		N24     As1 
	BYTE	W24
	BYTE		N12     Fn1 
	BYTE	W12
	BYTE		N06   
	BYTE	W06
	BYTE		N06   
	BYTE	W06
	BYTE		N06   
	BYTE	W06
	BYTE		N06   
	BYTE	W06
	BYTE		N18     Gn1 
	BYTE	W18
	BYTE	PEND
// 016   ----------------------------------------
FishOutOfWater_11_016:
	BYTE		N18     Cn2   v127
	BYTE	W18
	BYTE		N24     As1 
	BYTE	W24
	BYTE		N12     Ds2 
	BYTE	W12
	BYTE		N06     Dn2 
	BYTE	W06
	BYTE		        Cn2 
	BYTE	W06
	BYTE		N18     Fs1 
	BYTE	W18
	BYTE		N12     Gn1 
	BYTE	W12
	BYTE	PEND
// 017   ----------------------------------------
	BYTE	PATT
	 POIN2	FishOutOfWater_11_015
// 018   ----------------------------------------
FishOutOfWater_11_018:
	BYTE		N18     Cn2   v127
	BYTE	W18
	BYTE		N24     As1 
	BYTE	W24
	BYTE		N12     Ds2 
	BYTE	W12
	BYTE		N06     Dn2 
	BYTE	W06
	BYTE		        Cn2 
	BYTE	W06
	BYTE		N30     Gs1 
	BYTE	W30
	BYTE	PEND
// 019   ----------------------------------------
	BYTE	PATT
	 POIN2	FishOutOfWater_11_015
// 020   ----------------------------------------
	BYTE	PATT
	 POIN2	FishOutOfWater_11_016
// 021   ----------------------------------------
	BYTE	PATT
	 POIN2	FishOutOfWater_11_015
// 022   ----------------------------------------
FishOutOfWater_11_022:
	BYTE		N18     Cn2   v127
	BYTE	W18
	BYTE		N24     As1 
	BYTE	W24
	BYTE		N12     Ds2 
	BYTE	W12
	BYTE		N06     Dn2 
	BYTE	W06
	BYTE		        Cn2 
	BYTE	W06
	BYTE		N12     Gs1 
	BYTE	W12
	BYTE		N06     Fs1 
	BYTE	W06
	BYTE		        Gn1 
	BYTE	W06
	BYTE		        Gs1 
	BYTE	W06
	BYTE	PEND
// 023   ----------------------------------------
FishOutOfWater_11_023:
	BYTE		N06     An1   v127
	BYTE	W06
	BYTE		N06   
	BYTE	W06
	BYTE		        Dn2 
	BYTE	W06
	BYTE		N12     En2 
	BYTE	W12
	BYTE		N06     Dn2 
	BYTE	W06
	BYTE		        En2 
	BYTE	W06
	BYTE		        Gn2 
	BYTE	W06
	BYTE		        An2 
	BYTE	W06
	BYTE		        Gn2 
	BYTE	W06
	BYTE		        Dn2 
	BYTE	W06
	BYTE		N12     En2 
	BYTE	W12
	BYTE		N06     An1 
	BYTE	W06
	BYTE		        Gn1 
	BYTE	W06
	BYTE		        An1 
	BYTE	W06
	BYTE	PEND
// 024   ----------------------------------------
FishOutOfWater_11_024:
	BYTE		N06     As1   v127
	BYTE	W06
	BYTE		N06   
	BYTE	W06
	BYTE		        En2 
	BYTE	W06
	BYTE		N12     Fn2 
	BYTE	W12
	BYTE		N06     Dn2 
	BYTE	W06
	BYTE		        Fn2 
	BYTE	W06
	BYTE		        An2 
	BYTE	W06
	BYTE		N12     As2 
	BYTE	W12
	BYTE		N06     Dn2 
	BYTE	W06
	BYTE		        Dn3 
	BYTE	W06
	BYTE		        Cn2 
	BYTE	W06
	BYTE		        Cn3 
	BYTE	W06
	BYTE		        As1 
	BYTE	W06
	BYTE		        As2 
	BYTE	W06
	BYTE	PEND
// 025   ----------------------------------------
	BYTE	PATT
	 POIN2	FishOutOfWater_11_023
// 026   ----------------------------------------
FishOutOfWater_11_026:
	BYTE		N06     As1   v127
	BYTE	W06
	BYTE		N06   
	BYTE	W06
	BYTE		        Fn2 
	BYTE	W06
	BYTE		N12     An2 
	BYTE	W12
	BYTE		N06     As2 
	BYTE	W06
	BYTE		        Dn3 
	BYTE	W06
	BYTE		        Fn2 
	BYTE	W06
	BYTE		        Gn2 
	BYTE	W06
	BYTE		N06   
	BYTE	W06
	BYTE		N06   
	BYTE	W06
	BYTE		N12     An2 
	BYTE	W12
	BYTE		N06     En2 
	BYTE	W06
	BYTE		N12     An1 
	BYTE	W12
	BYTE	PEND
// 027   ----------------------------------------
	BYTE	PATT
	 POIN2	FishOutOfWater_11_002
// 028   ----------------------------------------
	BYTE	PATT
	 POIN2	FishOutOfWater_11_001
// 029   ----------------------------------------
	BYTE	PATT
	 POIN2	FishOutOfWater_11_002
// 030   ----------------------------------------
	BYTE	PATT
	 POIN2	FishOutOfWater_11_003
// 031   ----------------------------------------
	BYTE	PATT
	 POIN2	FishOutOfWater_11_004
// 032   ----------------------------------------
	BYTE	PATT
	 POIN2	FishOutOfWater_11_005
// 033   ----------------------------------------
	BYTE	PATT
	 POIN2	FishOutOfWater_11_006
// 034   ----------------------------------------
	BYTE	PATT
	 POIN2	FishOutOfWater_11_007
// 035   ----------------------------------------
	BYTE	PATT
	 POIN2	FishOutOfWater_11_008
// 036   ----------------------------------------
	BYTE	PATT
	 POIN2	FishOutOfWater_11_009
// 037   ----------------------------------------
	BYTE	PATT
	 POIN2	FishOutOfWater_11_008
// 038   ----------------------------------------
	BYTE	PATT
	 POIN2	FishOutOfWater_11_011
// 039   ----------------------------------------
	BYTE	PATT
	 POIN2	FishOutOfWater_11_011
// 040   ----------------------------------------
	BYTE	PATT
	 POIN2	FishOutOfWater_11_013
// 041   ----------------------------------------
	BYTE	PATT
	 POIN2	FishOutOfWater_11_014
// 042   ----------------------------------------
	BYTE	PATT
	 POIN2	FishOutOfWater_11_015
// 043   ----------------------------------------
	BYTE	PATT
	 POIN2	FishOutOfWater_11_016
// 044   ----------------------------------------
	BYTE	PATT
	 POIN2	FishOutOfWater_11_015
// 045   ----------------------------------------
	BYTE	PATT
	 POIN2	FishOutOfWater_11_018
// 046   ----------------------------------------
	BYTE	PATT
	 POIN2	FishOutOfWater_11_015
// 047   ----------------------------------------
	BYTE	PATT
	 POIN2	FishOutOfWater_11_016
// 048   ----------------------------------------
	BYTE	PATT
	 POIN2	FishOutOfWater_11_015
// 049   ----------------------------------------
	BYTE	PATT
	 POIN2	FishOutOfWater_11_022
// 050   ----------------------------------------
	BYTE	PATT
	 POIN2	FishOutOfWater_11_023
// 051   ----------------------------------------
	BYTE	PATT
	 POIN2	FishOutOfWater_11_024
// 052   ----------------------------------------
	BYTE	PATT
	 POIN2	FishOutOfWater_11_023
// 053   ----------------------------------------
	BYTE	PATT
	 POIN2	FishOutOfWater_11_026
// 054   ----------------------------------------
	BYTE	PATT
	 POIN2	FishOutOfWater_11_002
// 055   ----------------------------------------
	BYTE	PATT
	 POIN2	FishOutOfWater_11_001
// 056   ----------------------------------------
	BYTE	PATT
	 POIN2	FishOutOfWater_11_002
// 057   ----------------------------------------
	BYTE	PATT
	 POIN2	FishOutOfWater_11_003
// 058   ----------------------------------------
	BYTE	PATT
	 POIN2	FishOutOfWater_11_004
// 059   ----------------------------------------
	BYTE	PATT
	 POIN2	FishOutOfWater_11_005
// 060   ----------------------------------------
	BYTE	PATT
	 POIN2	FishOutOfWater_11_006
// 061   ----------------------------------------
	BYTE	PATT
	 POIN2	FishOutOfWater_11_007
// 062   ----------------------------------------
	BYTE	PATT
	 POIN2	FishOutOfWater_11_008
// 063   ----------------------------------------
	BYTE	PATT
	 POIN2	FishOutOfWater_11_009
// 064   ----------------------------------------
	BYTE	PATT
	 POIN2	FishOutOfWater_11_008
// 065   ----------------------------------------
	BYTE	PATT
	 POIN2	FishOutOfWater_11_011
// 066   ----------------------------------------
	BYTE	PATT
	 POIN2	FishOutOfWater_11_011
// 067   ----------------------------------------
	BYTE	PATT
	 POIN2	FishOutOfWater_11_013
// 068   ----------------------------------------
	BYTE	PATT
	 POIN2	FishOutOfWater_11_014
// 069   ----------------------------------------
	BYTE	PATT
	 POIN2	FishOutOfWater_11_015
// 070   ----------------------------------------
	BYTE	PATT
	 POIN2	FishOutOfWater_11_016
// 071   ----------------------------------------
	BYTE	PATT
	 POIN2	FishOutOfWater_11_015
// 072   ----------------------------------------
	BYTE	PATT
	 POIN2	FishOutOfWater_11_018
// 073   ----------------------------------------
	BYTE	PATT
	 POIN2	FishOutOfWater_11_015
// 074   ----------------------------------------
	BYTE	PATT
	 POIN2	FishOutOfWater_11_016
// 075   ----------------------------------------
	BYTE	PATT
	 POIN2	FishOutOfWater_11_015
// 076   ----------------------------------------
	BYTE	PATT
	 POIN2	FishOutOfWater_11_022
// 077   ----------------------------------------
	BYTE	PATT
	 POIN2	FishOutOfWater_11_023
// 078   ----------------------------------------
	BYTE	PATT
	 POIN2	FishOutOfWater_11_024
// 079   ----------------------------------------
	BYTE	PATT
	 POIN2	FishOutOfWater_11_023
// 080   ----------------------------------------
	BYTE	PATT
	 POIN2	FishOutOfWater_11_026
// 081   ----------------------------------------
	BYTE	PATT
	 POIN2	FishOutOfWater_11_002
// 082   ----------------------------------------
	BYTE	PATT
	 POIN2	FishOutOfWater_11_001
// 083   ----------------------------------------
	BYTE	PATT
	 POIN2	FishOutOfWater_11_002
// 084   ----------------------------------------
	BYTE	PATT
	 POIN2	FishOutOfWater_11_003
// 085   ----------------------------------------
	BYTE	PATT
	 POIN2	FishOutOfWater_11_004
// 086   ----------------------------------------
	BYTE	PATT
	 POIN2	FishOutOfWater_11_005
// 087   ----------------------------------------
	BYTE	PATT
	 POIN2	FishOutOfWater_11_006
// 088   ----------------------------------------
	BYTE	PATT
	 POIN2	FishOutOfWater_11_007
// 089   ----------------------------------------
	BYTE	PATT
	 POIN2	FishOutOfWater_11_008
// 090   ----------------------------------------
	BYTE	PATT
	 POIN2	FishOutOfWater_11_009
// 091   ----------------------------------------
	BYTE	PATT
	 POIN2	FishOutOfWater_11_008
// 092   ----------------------------------------
	BYTE	PATT
	 POIN2	FishOutOfWater_11_011
// 093   ----------------------------------------
	BYTE	PATT
	 POIN2	FishOutOfWater_11_011
// 094   ----------------------------------------
	BYTE	PATT
	 POIN2	FishOutOfWater_11_013
// 095   ----------------------------------------
	BYTE	PATT
	 POIN2	FishOutOfWater_11_014
// 096   ----------------------------------------
	BYTE	PATT
	 POIN2	FishOutOfWater_11_015
// 097   ----------------------------------------
	BYTE	PATT
	 POIN2	FishOutOfWater_11_016
// 098   ----------------------------------------
	BYTE	PATT
	 POIN2	FishOutOfWater_11_015
// 099   ----------------------------------------
	BYTE	PATT
	 POIN2	FishOutOfWater_11_018
// 100   ----------------------------------------
	BYTE	PATT
	 POIN2	FishOutOfWater_11_015
// 101   ----------------------------------------
	BYTE	PATT
	 POIN2	FishOutOfWater_11_016
// 102   ----------------------------------------
	BYTE	PATT
	 POIN2	FishOutOfWater_11_015
// 103   ----------------------------------------
	BYTE	PATT
	 POIN2	FishOutOfWater_11_022
// 104   ----------------------------------------
	BYTE	PATT
	 POIN2	FishOutOfWater_11_023
// 105   ----------------------------------------
	BYTE	PATT
	 POIN2	FishOutOfWater_11_024
// 106   ----------------------------------------
	BYTE	PATT
	 POIN2	FishOutOfWater_11_023
// 107   ----------------------------------------
	BYTE		N06     As1   v127
	BYTE	W06
	BYTE		N06   
	BYTE	W06
	BYTE		        Fn2 
	BYTE	W06
	BYTE		N12     An2 
	BYTE	W12
	BYTE		N06     As2 
	BYTE	W06
	BYTE		        Dn3 
	BYTE	W06
	BYTE		        Fn2 
	BYTE	W06
	BYTE		        Gn2 
	BYTE	W06
	BYTE		N06   
	BYTE	W06
	BYTE		N06   
	BYTE	W06
	BYTE		N12     An2 
	BYTE	W12
	BYTE		N06     En2 
	BYTE	W06
	BYTE		N12     An1 
	BYTE	W11
	BYTE	GoTo
	 POIN2	FishOutOfWater_11_B1
FishOutOfWater_11_B2:
	BYTE	W01
// 108   ----------------------------------------
	BYTE	FINE

//******************************************************//
	ALIGN 4

FishOutOfWater:
	BYTE	11	// NumTrks
	BYTE	0	// NumBlks
	BYTE	FishOutOfWater_pri	// Priority
	BYTE	FishOutOfWater_rev	// Reverb.

	POIN2	FishOutOfWater_grp

	POIN2	FishOutOfWater_1
	POIN2	FishOutOfWater_2
	POIN2	FishOutOfWater_3
	POIN2	FishOutOfWater_4
	POIN2	FishOutOfWater_5
	POIN2	FishOutOfWater_6
	POIN2	FishOutOfWater_7
	POIN2	FishOutOfWater_8
	POIN2	FishOutOfWater_9
	POIN2	FishOutOfWater_10
	POIN2	FishOutOfWater_11

	
