//Event file generated from Sappy .s format.
	#include "MPlayDef.event"

	#define	revolution_grp  voicegroup000
	#define	revolution_pri  0
	#define	revolution_rev  0
	#define	revolution_mvl  127
	#define	revolution_key  0
	#define	revolution_tbs  1
	#define	revolution_exg  0
	#define	revolution_cmp  1

	// .rodata
	//	revolution
	ALIGN 4

//**************** Track 1 (Midi-Chn.1) ****************//

revolution_1:
	BYTE	KEYSH   revolution_key+0
// 000   ----------------------------------------
	BYTE	TEMPO   145*revolution_tbs/2
	BYTE		VOICE   127
	BYTE		VOL     76*revolution_mvl/mxv
	BYTE		PAN     c_v+0
	BYTE		        c_v+0
	BYTE		        c_v+0
	BYTE		        c_v+0
	BYTE		BEND    c_v+0
	BYTE		N11     Fs1   v100
	BYTE	W12
	BYTE		N11   
	BYTE	W12
	BYTE		N11   
	BYTE	W12
	BYTE		N11   
	BYTE	W12
	BYTE		N11   
	BYTE	W12
	BYTE		N11   
	BYTE	W12
	BYTE		N11   
	BYTE	W12
	BYTE		N11   
	BYTE	W12
// 001   ----------------------------------------
revolution_1_001:
	BYTE		N11     Fs1   v100
	BYTE	W12
	BYTE		N11   
	BYTE	W12
	BYTE		N11   
	BYTE	W12
	BYTE		N11   
	BYTE	W12
	BYTE		N11   
	BYTE	W12
	BYTE		N11   
	BYTE	W12
	BYTE		        Cn1 
	BYTE		N11     Dn1 
	BYTE		N11     En1 
	BYTE		N11     Fs1 
	BYTE		N05     Cn2 
	BYTE	W06
	BYTE		N05   
	BYTE	W06
	BYTE		N11     Cn1 
	BYTE		N11     Dn1 
	BYTE		N11     En1 
	BYTE		N11     Fs1 
	BYTE		N05     Bn1 
	BYTE	W06
	BYTE		N05   
	BYTE	W06
	BYTE	PEND
// 002   ----------------------------------------
revolution_1_002:
	BYTE		N11     Fs1   v100
	BYTE	W12
	BYTE		N11   
	BYTE	W12
	BYTE		N11   
	BYTE	W12
	BYTE		N11   
	BYTE	W12
	BYTE		N11   
	BYTE	W12
	BYTE		N11   
	BYTE	W12
	BYTE		N11   
	BYTE	W12
	BYTE		N11   
	BYTE	W12
	BYTE	PEND
// 003   ----------------------------------------
	BYTE	PATT
	 POIN2	revolution_1_001
// 004   ----------------------------------------
	BYTE	PATT
	 POIN2	revolution_1_002
// 005   ----------------------------------------
	BYTE	PATT
	 POIN2	revolution_1_001
// 006   ----------------------------------------
	BYTE	PATT
	 POIN2	revolution_1_002
// 007   ----------------------------------------
	BYTE		N11     Fs1   v100
	BYTE	W12
	BYTE		N11   
	BYTE	W12
	BYTE		N11   
	BYTE	W12
	BYTE		N11   
	BYTE	W12
	BYTE		N11   
	BYTE		N05     Cn2 
	BYTE	W06
	BYTE		N05   
	BYTE	W06
	BYTE		N11     Fs1 
	BYTE		N05     Cn2 
	BYTE	W06
	BYTE		N05   
	BYTE	W06
	BYTE		N11     Cn1 
	BYTE		N11     Dn1 
	BYTE		N11     En1 
	BYTE		N11     Fs1 
	BYTE		N05     Bn1 
	BYTE	W06
	BYTE		N05   
	BYTE	W06
	BYTE		N11     Cn1 
	BYTE		N11     Dn1 
	BYTE		N11     En1 
	BYTE		N11     Fs1 
	BYTE		N05     Gn1 
	BYTE		N05     Bn1 
	BYTE	W06
	BYTE		        Gn1 
	BYTE		N05     Bn1 
	BYTE	W06
// 008   ----------------------------------------
revolution_1_008:
	BYTE		N11     Cn1   v100
	BYTE		N11     Fs1 
	BYTE	W06
	BYTE		        Gs1 
	BYTE	W06
	BYTE		        En1 
	BYTE		N11     Fs1 
	BYTE	W06
	BYTE		        Gs1 
	BYTE	W06
	BYTE		        Dn1 
	BYTE		N11     Fs1 
	BYTE		N44     Bn4 
	BYTE	W06
	BYTE		N11     Gs1 
	BYTE	W06
	BYTE		        Cn1 
	BYTE		N11     Fs1 
	BYTE	W06
	BYTE		        Gs1 
	BYTE	W06
	BYTE		        Cn1 
	BYTE		N11     Fs1 
	BYTE	W06
	BYTE		        Gs1 
	BYTE	W06
	BYTE		        En1 
	BYTE		N11     Fs1 
	BYTE	W06
	BYTE		        Gs1 
	BYTE	W06
	BYTE		        Dn1 
	BYTE		N11     Fs1 
	BYTE		N44     Bn4 
	BYTE	W06
	BYTE		N11     Gs1 
	BYTE	W06
	BYTE		        Cn1 
	BYTE		N11     Fs1 
	BYTE	W06
	BYTE		        Gs1 
	BYTE	W06
	BYTE	PEND
// 009   ----------------------------------------
	BYTE	PATT
	 POIN2	revolution_1_008
// 010   ----------------------------------------
	BYTE	PATT
	 POIN2	revolution_1_008
// 011   ----------------------------------------
revolution_1_011:
	BYTE		N11     Cn1   v100
	BYTE		N11     Fs1 
	BYTE	W06
	BYTE		        Gs1 
	BYTE	W06
	BYTE		        En1 
	BYTE		N11     Fs1 
	BYTE	W06
	BYTE		        Gs1 
	BYTE	W06
	BYTE		        Dn1 
	BYTE		N11     Fs1 
	BYTE		N44     Bn4 
	BYTE	W06
	BYTE		N11     Gs1 
	BYTE	W06
	BYTE		        Cn1 
	BYTE		N11     Fs1 
	BYTE	W06
	BYTE		        Gs1 
	BYTE	W06
	BYTE		        Cn1 
	BYTE		N11     Fs1 
	BYTE	W06
	BYTE		        Gs1 
	BYTE	W06
	BYTE		        En1 
	BYTE		N11     Fs1 
	BYTE	W06
	BYTE		        Gs1 
	BYTE	W06
	BYTE		        Cn1 
	BYTE		N11     Dn1 
	BYTE		N11     En1 
	BYTE		N11     Fs1 
	BYTE		N05     Cn2 
	BYTE		N44     Bn4 
	BYTE	W06
	BYTE		N11     Gs1 
	BYTE		N05     Cn2 
	BYTE	W06
	BYTE		N11     Cn1 
	BYTE		N11     Dn1 
	BYTE		N11     En1 
	BYTE		N11     Fs1 
	BYTE		N05     Bn1 
	BYTE	W06
	BYTE		N11     Gs1 
	BYTE		N05     Bn1 
	BYTE	W06
	BYTE	PEND
// 012   ----------------------------------------
	BYTE	PATT
	 POIN2	revolution_1_008
// 013   ----------------------------------------
	BYTE	PATT
	 POIN2	revolution_1_008
// 014   ----------------------------------------
	BYTE	PATT
	 POIN2	revolution_1_008
// 015   ----------------------------------------
	BYTE		N11     Cn1   v100
	BYTE		N11     Fs1 
	BYTE	W06
	BYTE		        Gs1 
	BYTE	W06
	BYTE		        En1 
	BYTE		N11     Fs1 
	BYTE	W06
	BYTE		        Gs1 
	BYTE	W06
	BYTE		        Dn1 
	BYTE		N11     Fs1 
	BYTE		N44     Bn4 
	BYTE	W06
	BYTE		N11     Gs1 
	BYTE	W06
	BYTE		        Cn1 
	BYTE		N11     Fs1 
	BYTE	W06
	BYTE		        Gs1 
	BYTE	W06
	BYTE		        Cn1 
	BYTE		N11     Fs1 
	BYTE		N05     Cn2 
	BYTE	W06
	BYTE		N11     Gs1 
	BYTE		N05     Cn2 
	BYTE	W06
	BYTE		N11     En1 
	BYTE		N11     Fs1 
	BYTE		N05     Cn2 
	BYTE	W06
	BYTE		N11     Gs1 
	BYTE		N05     Cn2 
	BYTE	W06
	BYTE		N11     Cn1 
	BYTE		N11     Dn1 
	BYTE		N11     En1 
	BYTE		N11     Fs1 
	BYTE		N05     Bn1 
	BYTE		N44     Bn4 
	BYTE	W06
	BYTE		N11     Gs1 
	BYTE		N05     Bn1 
	BYTE	W06
	BYTE		N11     Cn1 
	BYTE		N11     Dn1 
	BYTE		N11     En1 
	BYTE		N11     Fs1 
	BYTE		N05     Gn1 
	BYTE		N05     Bn1 
	BYTE	W06
	BYTE		        Gn1 
	BYTE		N11     Gs1 
	BYTE		N05     Bn1 
	BYTE	W06
revolution_1_B1:
// 016   ----------------------------------------
	BYTE	PATT
	 POIN2	revolution_1_008
// 017   ----------------------------------------
	BYTE	PATT
	 POIN2	revolution_1_008
// 018   ----------------------------------------
	BYTE	PATT
	 POIN2	revolution_1_008
// 019   ----------------------------------------
	BYTE	PATT
	 POIN2	revolution_1_011
// 020   ----------------------------------------
	BYTE	PATT
	 POIN2	revolution_1_008
// 021   ----------------------------------------
	BYTE	PATT
	 POIN2	revolution_1_008
// 022   ----------------------------------------
	BYTE	PATT
	 POIN2	revolution_1_008
// 023   ----------------------------------------
revolution_1_023:
	BYTE		N11     Cn1   v100
	BYTE		N11     Fs1 
	BYTE	W06
	BYTE		        Gs1 
	BYTE	W06
	BYTE		        En1 
	BYTE		N11     Fs1 
	BYTE	W06
	BYTE		        Gs1 
	BYTE	W06
	BYTE		        Dn1 
	BYTE		N11     Fs1 
	BYTE		N44     Bn4 
	BYTE	W06
	BYTE		N11     Gs1 
	BYTE	W06
	BYTE		        Cn1 
	BYTE		N11     Fs1 
	BYTE	W06
	BYTE		        Gs1 
	BYTE	W06
	BYTE		        Cn1 
	BYTE		N11     Fs1 
	BYTE		N05     Cn2 
	BYTE	W06
	BYTE		N11     Gs1 
	BYTE		N05     Cn2 
	BYTE	W06
	BYTE		N11     En1 
	BYTE		N11     Fs1 
	BYTE		N05     Cn2 
	BYTE	W06
	BYTE		N11     Gs1 
	BYTE		N05     Cn2 
	BYTE	W06
	BYTE		N11     Cn1 
	BYTE		N11     Dn1 
	BYTE		N11     En1 
	BYTE		N11     Fs1 
	BYTE		N05     Bn1 
	BYTE		N44     Bn4 
	BYTE	W06
	BYTE		N11     Gs1 
	BYTE		N05     Bn1 
	BYTE	W06
	BYTE		N11     Cn1 
	BYTE		N11     Dn1 
	BYTE		N11     En1 
	BYTE		N11     Fs1 
	BYTE		N05     Gn1 
	BYTE	W06
	BYTE		N05   
	BYTE		N11     Gs1 
	BYTE	W06
	BYTE	PEND
// 024   ----------------------------------------
	BYTE	PATT
	 POIN2	revolution_1_008
// 025   ----------------------------------------
	BYTE	PATT
	 POIN2	revolution_1_008
// 026   ----------------------------------------
	BYTE	PATT
	 POIN2	revolution_1_008
// 027   ----------------------------------------
	BYTE	PATT
	 POIN2	revolution_1_011
// 028   ----------------------------------------
	BYTE	PATT
	 POIN2	revolution_1_008
// 029   ----------------------------------------
	BYTE	PATT
	 POIN2	revolution_1_008
// 030   ----------------------------------------
	BYTE	PATT
	 POIN2	revolution_1_008
// 031   ----------------------------------------
	BYTE	PATT
	 POIN2	revolution_1_023
// 032   ----------------------------------------
	BYTE	PATT
	 POIN2	revolution_1_008
// 033   ----------------------------------------
	BYTE	PATT
	 POIN2	revolution_1_008
// 034   ----------------------------------------
	BYTE	PATT
	 POIN2	revolution_1_008
// 035   ----------------------------------------
	BYTE	PATT
	 POIN2	revolution_1_011
// 036   ----------------------------------------
	BYTE	PATT
	 POIN2	revolution_1_008
// 037   ----------------------------------------
	BYTE	PATT
	 POIN2	revolution_1_008
// 038   ----------------------------------------
	BYTE	PATT
	 POIN2	revolution_1_008
// 039   ----------------------------------------
	BYTE	PATT
	 POIN2	revolution_1_023
// 040   ----------------------------------------
	BYTE	PATT
	 POIN2	revolution_1_008
// 041   ----------------------------------------
	BYTE	PATT
	 POIN2	revolution_1_008
// 042   ----------------------------------------
	BYTE	PATT
	 POIN2	revolution_1_008
// 043   ----------------------------------------
	BYTE	PATT
	 POIN2	revolution_1_011
// 044   ----------------------------------------
	BYTE	PATT
	 POIN2	revolution_1_008
// 045   ----------------------------------------
	BYTE	PATT
	 POIN2	revolution_1_008
// 046   ----------------------------------------
	BYTE	PATT
	 POIN2	revolution_1_008
// 047   ----------------------------------------
	BYTE		N11     Cn1   v100
	BYTE		N11     Fs1 
	BYTE	W06
	BYTE		        Gs1 
	BYTE	W06
	BYTE		        En1 
	BYTE		N11     Fs1 
	BYTE	W06
	BYTE		        Gs1 
	BYTE	W06
	BYTE		        Dn1 
	BYTE		N11     Fs1 
	BYTE		N44     Bn4 
	BYTE	W06
	BYTE		N11     Gs1 
	BYTE	W06
	BYTE		        Cn1 
	BYTE		N11     Fs1 
	BYTE	W06
	BYTE		        Gs1 
	BYTE	W06
	BYTE		        Cn1 
	BYTE		N11     Fs1 
	BYTE		N05     Cn2 
	BYTE	W06
	BYTE		N11     Gs1 
	BYTE		N05     Cn2 
	BYTE	W06
	BYTE		N11     En1 
	BYTE		N11     Fs1 
	BYTE		N05     Cn2 
	BYTE	W06
	BYTE		N11     Gs1 
	BYTE		N05     Cn2 
	BYTE	W06
	BYTE		N11     Cn1 
	BYTE		N11     Dn1 
	BYTE		N11     En1 
	BYTE		N11     Fs1 
	BYTE		N05     Bn1 
	BYTE		N44     Bn4 
	BYTE	W06
	BYTE		N11     Gs1 
	BYTE		N05     Bn1 
	BYTE	W06
	BYTE		N11     Cn1 
	BYTE		N11     Dn1 
	BYTE		N11     En1 
	BYTE		N11     Fs1 
	BYTE		N05     Gn1 
	BYTE		TIE     Fn2 
	BYTE	W06
	BYTE		N05     Gn1 
	BYTE		N11     Gs1 
	BYTE	W06
// 048   ----------------------------------------
	BYTE	PATT
	 POIN2	revolution_1_008
// 049   ----------------------------------------
revolution_1_049:
	BYTE		N11     Cn1   v100
	BYTE		N11     Fs1 
	BYTE	W06
	BYTE		        Gs1 
	BYTE	W06
	BYTE		        En1 
	BYTE		N11     Fs1 
	BYTE	W06
	BYTE		        Gs1 
	BYTE	W06
	BYTE		        Dn1 
	BYTE		N11     Fs1 
	BYTE		N44     Bn4 
	BYTE	W06
	BYTE		N11     Gs1 
	BYTE	W06
	BYTE		        Cn1 
	BYTE		N11     Fs1 
	BYTE	W06
	BYTE		        Gs1 
	BYTE	W06
	BYTE		        Cn1 
	BYTE		N11     Fs1 
	BYTE	W06
	BYTE		        Gs1 
	BYTE	W06
	BYTE		        En1 
	BYTE		N11     Fs1 
	BYTE	W06
	BYTE		        Gs1 
	BYTE	W06
	BYTE		        Dn1 
	BYTE		N11     Fs1 
	BYTE		N44     Bn4 
	BYTE	W06
	BYTE		N11     Gs1 
	BYTE	W05
	BYTE	PEND
	BYTE		EOT     Fn2 
	BYTE	W01
	BYTE		N11     Cn1 
	BYTE		N11     Fs1 
	BYTE		TIE     Fn2 
	BYTE	W06
	BYTE		N11     Gs1 
	BYTE	W06
// 050   ----------------------------------------
	BYTE	PATT
	 POIN2	revolution_1_008
// 051   ----------------------------------------
	BYTE	PATT
	 POIN2	revolution_1_011
// 052   ----------------------------------------
	BYTE	PATT
	 POIN2	revolution_1_008
// 053   ----------------------------------------
	BYTE	PATT
	 POIN2	revolution_1_049
	BYTE		EOT     Fn2 
	BYTE	W01
	BYTE		N11     Cn1   v100
	BYTE		N11     Fs1 
	BYTE		TIE     Fn2 
	BYTE	W06
	BYTE		N11     Gs1 
	BYTE	W06
// 054   ----------------------------------------
	BYTE	PATT
	 POIN2	revolution_1_008
// 055   ----------------------------------------
	BYTE	PATT
	 POIN2	revolution_1_023
// 056   ----------------------------------------
	BYTE	PATT
	 POIN2	revolution_1_008
// 057   ----------------------------------------
	BYTE	PATT
	 POIN2	revolution_1_049
	BYTE		EOT     Fn2 
	BYTE	W01
	BYTE		N11     Cn1   v100
	BYTE		N11     Fs1 
	BYTE		TIE     Fn2 
	BYTE	W06
	BYTE		N11     Gs1 
	BYTE	W06
// 058   ----------------------------------------
	BYTE	PATT
	 POIN2	revolution_1_008
// 059   ----------------------------------------
	BYTE	PATT
	 POIN2	revolution_1_011
// 060   ----------------------------------------
	BYTE	PATT
	 POIN2	revolution_1_008
// 061   ----------------------------------------
	BYTE	PATT
	 POIN2	revolution_1_049
	BYTE		EOT     Fn2 
	BYTE	W01
	BYTE		N11     Cn1   v100
	BYTE		N11     Fs1 
	BYTE		TIE     Fn2 
	BYTE	W06
	BYTE		N11     Gs1 
	BYTE	W06
// 062   ----------------------------------------
	BYTE	PATT
	 POIN2	revolution_1_008
// 063   ----------------------------------------
	BYTE	PATT
	 POIN2	revolution_1_023
// 064   ----------------------------------------
	BYTE	PATT
	 POIN2	revolution_1_008
// 065   ----------------------------------------
	BYTE		N11     Cn1   v100
	BYTE		N11     Fs1 
	BYTE	W06
	BYTE		        Gs1 
	BYTE	W06
	BYTE		        En1 
	BYTE		N11     Fs1 
	BYTE	W06
	BYTE		        Gs1 
	BYTE	W06
	BYTE		        Dn1 
	BYTE		N11     Fs1 
	BYTE		N23     Bn4 
	BYTE	W06
	BYTE		N11     Gs1 
	BYTE	W06
	BYTE		        Cn1 
	BYTE		N11     Fs1 
	BYTE	W06
	BYTE		        Gs1 
	BYTE	W06
	BYTE		        Cn1 
	BYTE		N11     Fs1 
	BYTE		N05     Cn2 
	BYTE		N23     Bn4 
	BYTE	W06
	BYTE		N11     Gs1 
	BYTE		N05     Cn2 
	BYTE	W06
	BYTE		N11     En1 
	BYTE		N11     Fs1 
	BYTE		N05     Cn2 
	BYTE	W06
	BYTE		N11     Gs1 
	BYTE		N05     Cn2 
	BYTE	W06
	BYTE		N11     Cn1 
	BYTE		N11     Dn1 
	BYTE		N11     En1 
	BYTE		N11     Fs1 
	BYTE		N05     Bn1 
	BYTE		N23     Bn4 
	BYTE	W06
	BYTE		N11     Gs1 
	BYTE		N05     Bn1 
	BYTE	W05
	BYTE		EOT     Fn2 
	BYTE	W01
	BYTE		N11     Cn1 
	BYTE		N11     Dn1 
	BYTE		N11     En1 
	BYTE		N11     Fs1 
	BYTE		N05     Gn1 
	BYTE		TIE     Fn2 
	BYTE	W06
	BYTE		N05     Gn1 
	BYTE		N11     Gs1 
	BYTE	W06
// 066   ----------------------------------------
	BYTE		        Cn1 
	BYTE		N11     Fs1 
	BYTE		N23     Bn4 
	BYTE	W06
	BYTE		N11     Gs1 
	BYTE	W06
	BYTE		        En1 
	BYTE		N11     Fs1 
	BYTE	W06
	BYTE		        Gs1 
	BYTE	W06
	BYTE		        Dn1 
	BYTE		N11     Fs1 
	BYTE		N44     Bn4 
	BYTE	W06
	BYTE		N11     Gs1 
	BYTE	W06
	BYTE		        Cn1 
	BYTE		N11     Fs1 
	BYTE	W06
	BYTE		        Gs1 
	BYTE	W06
	BYTE		        Cn1 
	BYTE		N11     Fs1 
	BYTE	W06
	BYTE		        Gs1 
	BYTE	W06
	BYTE		        En1 
	BYTE		N11     Fs1 
	BYTE	W06
	BYTE		        Gs1 
	BYTE	W06
	BYTE		        Dn1 
	BYTE		N11     Fs1 
	BYTE		N44     Bn4 
	BYTE	W06
	BYTE		N11     Gs1 
	BYTE	W06
	BYTE		        Cn1 
	BYTE		N11     Fs1 
	BYTE	W06
	BYTE		        Gs1 
	BYTE	W06
// 067   ----------------------------------------
	BYTE	PATT
	 POIN2	revolution_1_049
	BYTE		EOT     Fn2 
	BYTE	W01
	BYTE		N11     Cn1   v100
	BYTE		N11     Fs1 
	BYTE		TIE     Fn2 
	BYTE	W06
	BYTE		N11     Gs1 
	BYTE	W06
// 068   ----------------------------------------
	BYTE	PATT
	 POIN2	revolution_1_008
// 069   ----------------------------------------
	BYTE	PATT
	 POIN2	revolution_1_011
// 070   ----------------------------------------
	BYTE	PATT
	 POIN2	revolution_1_008
// 071   ----------------------------------------
	BYTE	PATT
	 POIN2	revolution_1_049
	BYTE		EOT     Fn2 
	BYTE	W01
	BYTE		N11     Cn1   v100
	BYTE		N11     Fs1 
	BYTE		TIE     Fn2 
	BYTE	W06
	BYTE		N11     Gs1 
	BYTE	W06
// 072   ----------------------------------------
	BYTE	PATT
	 POIN2	revolution_1_008
// 073   ----------------------------------------
	BYTE	PATT
	 POIN2	revolution_1_023
// 074   ----------------------------------------
	BYTE	PATT
	 POIN2	revolution_1_008
// 075   ----------------------------------------
	BYTE	PATT
	 POIN2	revolution_1_049
	BYTE		EOT     Fn2 
	BYTE	W01
	BYTE		N11     Cn1   v100
	BYTE		N11     Fs1 
	BYTE		TIE     Fn2 
	BYTE	W06
	BYTE		N11     Gs1 
	BYTE	W06
// 076   ----------------------------------------
	BYTE	PATT
	 POIN2	revolution_1_008
// 077   ----------------------------------------
	BYTE	PATT
	 POIN2	revolution_1_011
// 078   ----------------------------------------
	BYTE	PATT
	 POIN2	revolution_1_008
// 079   ----------------------------------------
	BYTE	PATT
	 POIN2	revolution_1_049
	BYTE		EOT     Fn2 
	BYTE	W01
	BYTE		N11     Cn1   v100
	BYTE		N11     Fs1 
	BYTE		TIE     Fn2 
	BYTE	W06
	BYTE		N11     Gs1 
	BYTE	W06
// 080   ----------------------------------------
	BYTE	PATT
	 POIN2	revolution_1_008
// 081   ----------------------------------------
	BYTE	PATT
	 POIN2	revolution_1_023
// 082   ----------------------------------------
	BYTE	PATT
	 POIN2	revolution_1_008
// 083   ----------------------------------------
	BYTE	PATT
	 POIN2	revolution_1_049
	BYTE		EOT     Fn2 
	BYTE	W01
	BYTE		N11     Cn1   v100
	BYTE		N11     Fs1 
	BYTE		TIE     Fn2 
	BYTE	W06
	BYTE		N11     Gs1 
	BYTE	W06
// 084   ----------------------------------------
	BYTE	PATT
	 POIN2	revolution_1_008
// 085   ----------------------------------------
	BYTE	PATT
	 POIN2	revolution_1_023
// 086   ----------------------------------------
	BYTE	PATT
	 POIN2	revolution_1_008
// 087   ----------------------------------------
	BYTE	PATT
	 POIN2	revolution_1_049
	BYTE		EOT     Fn2 
	BYTE	W01
	BYTE		N11     Cn1   v100
	BYTE		N11     Fs1 
	BYTE		TIE     Fn2 
	BYTE	W06
	BYTE		N11     Gs1 
	BYTE	W06
// 088   ----------------------------------------
	BYTE	PATT
	 POIN2	revolution_1_008
// 089   ----------------------------------------
	BYTE	PATT
	 POIN2	revolution_1_011
// 090   ----------------------------------------
	BYTE	PATT
	 POIN2	revolution_1_008
// 091   ----------------------------------------
	BYTE	PATT
	 POIN2	revolution_1_049
	BYTE		EOT     Fn2 
	BYTE	W01
	BYTE		N11     Cn1   v100
	BYTE		N11     Fs1 
	BYTE		TIE     Fn2 
	BYTE	W06
	BYTE		N11     Gs1 
	BYTE	W06
// 092   ----------------------------------------
	BYTE	PATT
	 POIN2	revolution_1_008
// 093   ----------------------------------------
revolution_1_093:
	BYTE		N11     Cn1   v100
	BYTE		N11     Fs1 
	BYTE	W06
	BYTE		        Gs1 
	BYTE	W06
	BYTE		        En1 
	BYTE		N11     Fs1 
	BYTE	W06
	BYTE		        Gs1 
	BYTE	W06
	BYTE		        Dn1 
	BYTE		N11     Fs1 
	BYTE		N44     Bn4 
	BYTE	W06
	BYTE		N11     Gs1 
	BYTE	W06
	BYTE		        Cn1 
	BYTE		N11     Fs1 
	BYTE	W06
	BYTE		        Gs1 
	BYTE	W06
	BYTE		        Cn1 
	BYTE		N11     Fs1 
	BYTE		N05     Cn2 
	BYTE	W06
	BYTE		N11     Gs1 
	BYTE		N05     Cn2 
	BYTE	W06
	BYTE		N11     En1 
	BYTE		N11     Fs1 
	BYTE		N05     Cn2 
	BYTE	W06
	BYTE		N11     Gs1 
	BYTE		N05     Cn2 
	BYTE	W06
	BYTE		N11     Cn1 
	BYTE		N11     Dn1 
	BYTE		N11     En1 
	BYTE		N11     Fs1 
	BYTE		N05     Bn1 
	BYTE		N44     Bn4 
	BYTE	W06
	BYTE		N11     Gs1 
	BYTE		N05     Bn1 
	BYTE	W05
	BYTE	PEND
	BYTE		EOT     Fn2 
	BYTE	W01
	BYTE		N11     Cn1 
	BYTE		N11     Dn1 
	BYTE		N11     En1 
	BYTE		N11     Fs1 
	BYTE		N05     Gn1 
	BYTE		TIE     Fn2 
	BYTE	W06
	BYTE		N05     Gn1 
	BYTE		N11     Gs1 
	BYTE	W06
// 094   ----------------------------------------
	BYTE	PATT
	 POIN2	revolution_1_008
// 095   ----------------------------------------
	BYTE	PATT
	 POIN2	revolution_1_093
	BYTE		EOT     Fn2 
	BYTE	W01
	BYTE		N11     Cn1   v100
	BYTE		N11     Dn1 
	BYTE		N11     En1 
	BYTE		N11     Fs1 
	BYTE		N05     Gn1 
	BYTE		TIE     Fn2 
	BYTE	W06
	BYTE		N05     Gn1 
	BYTE		N11     Gs1 
	BYTE	W06
// 096   ----------------------------------------
	BYTE	PATT
	 POIN2	revolution_1_008
// 097   ----------------------------------------
	BYTE	PATT
	 POIN2	revolution_1_049
	BYTE		EOT     Fn2 
	BYTE	W01
	BYTE		N11     Cn1   v100
	BYTE		N11     Fs1 
	BYTE		TIE     Fn2 
	BYTE	W06
	BYTE		N11     Gs1 
	BYTE	W06
// 098   ----------------------------------------
	BYTE	PATT
	 POIN2	revolution_1_008
// 099   ----------------------------------------
	BYTE	PATT
	 POIN2	revolution_1_023
// 100   ----------------------------------------
	BYTE	PATT
	 POIN2	revolution_1_008
// 101   ----------------------------------------
	BYTE	PATT
	 POIN2	revolution_1_049
	BYTE		EOT     Fn2 
	BYTE	W01
	BYTE		N11     Cn1   v100
	BYTE		N11     Fs1 
	BYTE		TIE     Fn2 
	BYTE	W06
	BYTE		N11     Gs1 
	BYTE	W06
// 102   ----------------------------------------
	BYTE	PATT
	 POIN2	revolution_1_008
// 103   ----------------------------------------
	BYTE	PATT
	 POIN2	revolution_1_011
// 104   ----------------------------------------
	BYTE	PATT
	 POIN2	revolution_1_008
// 105   ----------------------------------------
	BYTE	PATT
	 POIN2	revolution_1_049
	BYTE		EOT     Fn2 
	BYTE	W01
	BYTE		N11     Cn1   v100
	BYTE		N11     Fs1 
	BYTE		TIE     Fn2 
	BYTE	W06
	BYTE		N11     Gs1 
	BYTE	W06
// 106   ----------------------------------------
	BYTE	PATT
	 POIN2	revolution_1_008
// 107   ----------------------------------------
	BYTE	PATT
	 POIN2	revolution_1_023
// 108   ----------------------------------------
	BYTE	PATT
	 POIN2	revolution_1_008
// 109   ----------------------------------------
	BYTE	PATT
	 POIN2	revolution_1_049
	BYTE		EOT     Fn2 
	BYTE	W01
	BYTE		N11     Cn1   v100
	BYTE		N11     Fs1 
	BYTE		TIE     Fn2 
	BYTE	W06
	BYTE		N11     Gs1 
	BYTE	W06
// 110   ----------------------------------------
	BYTE	PATT
	 POIN2	revolution_1_008
// 111   ----------------------------------------
	BYTE	PATT
	 POIN2	revolution_1_023
// 112   ----------------------------------------
	BYTE	PATT
	 POIN2	revolution_1_008
// 113   ----------------------------------------
	BYTE	PATT
	 POIN2	revolution_1_049
	BYTE		EOT     Fn2 
	BYTE	W01
	BYTE		N11     Cn1   v100
	BYTE		N11     Fs1 
	BYTE		TIE     Fn2 
	BYTE	W06
	BYTE		N11     Gs1 
	BYTE	W06
// 114   ----------------------------------------
	BYTE	PATT
	 POIN2	revolution_1_008
// 115   ----------------------------------------
	BYTE	PATT
	 POIN2	revolution_1_011
// 116   ----------------------------------------
	BYTE	PATT
	 POIN2	revolution_1_008
// 117   ----------------------------------------
	BYTE	PATT
	 POIN2	revolution_1_049
	BYTE		EOT     Fn2 
	BYTE	W01
	BYTE		N11     Cn1   v100
	BYTE		N11     Fs1 
	BYTE		TIE     Fn2 
	BYTE	W06
	BYTE		N11     Gs1 
	BYTE	W06
// 118   ----------------------------------------
	BYTE	PATT
	 POIN2	revolution_1_008
// 119   ----------------------------------------
	BYTE	PATT
	 POIN2	revolution_1_023
// 120   ----------------------------------------
	BYTE	PATT
	 POIN2	revolution_1_008
// 121   ----------------------------------------
	BYTE	PATT
	 POIN2	revolution_1_049
	BYTE		EOT     Fn2 
	BYTE	W01
	BYTE		N11     Cn1   v100
	BYTE		N11     Fs1 
	BYTE		TIE     Fn2 
	BYTE	W06
	BYTE		N11     Gs1 
	BYTE	W06
// 122   ----------------------------------------
	BYTE	PATT
	 POIN2	revolution_1_008
// 123   ----------------------------------------
revolution_1_123:
	BYTE		N11     Cn1   v100
	BYTE		N11     Fs1 
	BYTE	W06
	BYTE		        Gs1 
	BYTE	W06
	BYTE		        En1 
	BYTE		N11     Fs1 
	BYTE	W06
	BYTE		        Gs1 
	BYTE	W06
	BYTE		        Dn1 
	BYTE		N11     Fs1 
	BYTE		N44     Bn4 
	BYTE	W06
	BYTE		N11     Gs1 
	BYTE	W06
	BYTE		        Cn1 
	BYTE		N11     Fs1 
	BYTE	W06
	BYTE		        Gs1 
	BYTE	W06
	BYTE		        Cn1 
	BYTE		N11     Fs1 
	BYTE	W06
	BYTE		        Gs1 
	BYTE	W06
	BYTE		        En1 
	BYTE		N11     Fs1 
	BYTE	W06
	BYTE		        Gs1 
	BYTE	W06
	BYTE		        Cn1 
	BYTE		N11     Dn1 
	BYTE		N11     En1 
	BYTE		N11     Fs1 
	BYTE		N05     Cn2 
	BYTE		N44     Bn4 
	BYTE	W06
	BYTE		N11     Gs1 
	BYTE		N05     Cn2 
	BYTE	W06
	BYTE		N11     Cn1 
	BYTE		N11     Dn1 
	BYTE		N11     En1 
	BYTE		N11     Fs1 
	BYTE		N05     Bn1 
	BYTE	W06
	BYTE		N11     Gs1 
	BYTE	W06
	BYTE	PEND
// 124   ----------------------------------------
	BYTE	PATT
	 POIN2	revolution_1_008
// 125   ----------------------------------------
	BYTE	PATT
	 POIN2	revolution_1_049
	BYTE		EOT     Fn2 
	BYTE	W01
	BYTE		N11     Cn1   v100
	BYTE		N11     Fs1 
	BYTE		TIE     Fn2 
	BYTE	W06
	BYTE		N11     Gs1 
	BYTE	W06
// 126   ----------------------------------------
	BYTE	PATT
	 POIN2	revolution_1_008
// 127   ----------------------------------------
	BYTE	PATT
	 POIN2	revolution_1_023
// 128   ----------------------------------------
	BYTE	PATT
	 POIN2	revolution_1_008
// 129   ----------------------------------------
	BYTE	PATT
	 POIN2	revolution_1_049
	BYTE		EOT     Fn2 
	BYTE	W01
	BYTE		N11     Cn1   v100
	BYTE		N11     Fs1 
	BYTE		TIE     Fn2 
	BYTE	W06
	BYTE		N11     Gs1 
	BYTE	W06
// 130   ----------------------------------------
	BYTE	PATT
	 POIN2	revolution_1_008
// 131   ----------------------------------------
	BYTE	PATT
	 POIN2	revolution_1_011
// 132   ----------------------------------------
	BYTE	PATT
	 POIN2	revolution_1_008
// 133   ----------------------------------------
	BYTE	PATT
	 POIN2	revolution_1_049
	BYTE		EOT     Fn2 
	BYTE	W01
	BYTE		N11     Cn1   v100
	BYTE		N11     Fs1 
	BYTE		TIE     Fn2 
	BYTE	W06
	BYTE		N11     Gs1 
	BYTE	W06
// 134   ----------------------------------------
	BYTE	PATT
	 POIN2	revolution_1_008
// 135   ----------------------------------------
	BYTE	PATT
	 POIN2	revolution_1_023
// 136   ----------------------------------------
	BYTE	PATT
	 POIN2	revolution_1_008
// 137   ----------------------------------------
	BYTE	PATT
	 POIN2	revolution_1_049
	BYTE		EOT     Fn2 
	BYTE	W01
	BYTE		N11     Cn1   v100
	BYTE		N11     Fs1 
	BYTE		TIE     Fn2 
	BYTE	W06
	BYTE		N11     Gs1 
	BYTE	W06
// 138   ----------------------------------------
	BYTE	PATT
	 POIN2	revolution_1_008
// 139   ----------------------------------------
	BYTE	PATT
	 POIN2	revolution_1_123
// 140   ----------------------------------------
	BYTE	PATT
	 POIN2	revolution_1_008
// 141   ----------------------------------------
	BYTE	PATT
	 POIN2	revolution_1_049
	BYTE		EOT     Fn2 
	BYTE	W01
	BYTE		N11     Cn1   v100
	BYTE		N11     Fs1 
	BYTE		TIE     Fn2 
	BYTE	W06
	BYTE		N11     Gs1 
	BYTE	W06
// 142   ----------------------------------------
	BYTE	PATT
	 POIN2	revolution_1_008
// 143   ----------------------------------------
	BYTE	PATT
	 POIN2	revolution_1_023
// 144   ----------------------------------------
	BYTE	PATT
	 POIN2	revolution_1_008
// 145   ----------------------------------------
	BYTE	PATT
	 POIN2	revolution_1_049
	BYTE		EOT     Fn2 
	BYTE	W01
	BYTE		N11     Cn1   v100
	BYTE		N11     Fs1 
	BYTE		TIE     Fn2 
	BYTE	W06
	BYTE		N11     Gs1 
	BYTE	W06
// 146   ----------------------------------------
	BYTE	PATT
	 POIN2	revolution_1_008
// 147   ----------------------------------------
	BYTE	PATT
	 POIN2	revolution_1_123
// 148   ----------------------------------------
	BYTE	PATT
	 POIN2	revolution_1_008
// 149   ----------------------------------------
	BYTE	PATT
	 POIN2	revolution_1_049
	BYTE		EOT     Fn2 
	BYTE	W01
	BYTE		N11     Cn1   v100
	BYTE		N11     Fs1 
	BYTE		TIE     Fn2 
	BYTE	W06
	BYTE		N11     Gs1 
	BYTE	W06
// 150   ----------------------------------------
	BYTE	PATT
	 POIN2	revolution_1_008
// 151   ----------------------------------------
	BYTE	PATT
	 POIN2	revolution_1_023
// 152   ----------------------------------------
	BYTE	PATT
	 POIN2	revolution_1_008
// 153   ----------------------------------------
	BYTE	PATT
	 POIN2	revolution_1_049
	BYTE		EOT     Fn2 
	BYTE	W01
	BYTE		N11     Cn1   v100
	BYTE		N11     Fs1 
	BYTE		TIE     Fn2 
	BYTE	W06
	BYTE		N11     Gs1 
	BYTE	W06
// 154   ----------------------------------------
	BYTE	PATT
	 POIN2	revolution_1_008
// 155   ----------------------------------------
	BYTE	PATT
	 POIN2	revolution_1_123
// 156   ----------------------------------------
	BYTE	PATT
	 POIN2	revolution_1_008
// 157   ----------------------------------------
	BYTE	PATT
	 POIN2	revolution_1_049
	BYTE		EOT     Fn2 
	BYTE	W01
	BYTE		N11     Cn1   v100
	BYTE		N11     Fs1 
	BYTE		TIE     Fn2 
	BYTE	W06
	BYTE		N11     Gs1 
	BYTE	W06
// 158   ----------------------------------------
	BYTE	PATT
	 POIN2	revolution_1_008
// 159   ----------------------------------------
	BYTE	PATT
	 POIN2	revolution_1_023
// 160   ----------------------------------------
	BYTE	PATT
	 POIN2	revolution_1_008
// 161   ----------------------------------------
	BYTE	PATT
	 POIN2	revolution_1_049
	BYTE		EOT     Fn2 
	BYTE	W01
	BYTE		N11     Cn1   v100
	BYTE		N11     Fs1 
	BYTE		TIE     Fn2 
	BYTE	W06
	BYTE		N11     Gs1 
	BYTE	W06
// 162   ----------------------------------------
	BYTE	PATT
	 POIN2	revolution_1_008
// 163   ----------------------------------------
	BYTE	PATT
	 POIN2	revolution_1_123
// 164   ----------------------------------------
	BYTE	PATT
	 POIN2	revolution_1_008
// 165   ----------------------------------------
	BYTE	PATT
	 POIN2	revolution_1_049
	BYTE		EOT     Fn2 
	BYTE	W01
	BYTE		N11     Cn1   v100
	BYTE		N11     Fs1 
	BYTE		TIE     Fn2 
	BYTE	W06
	BYTE		N11     Gs1 
	BYTE	W06
// 166   ----------------------------------------
	BYTE	PATT
	 POIN2	revolution_1_008
// 167   ----------------------------------------
	BYTE	PATT
	 POIN2	revolution_1_023
// 168   ----------------------------------------
	BYTE	PATT
	 POIN2	revolution_1_008
// 169   ----------------------------------------
	BYTE	PATT
	 POIN2	revolution_1_049
	BYTE		EOT     Fn2 
	BYTE	W01
	BYTE		N11     Cn1   v100
	BYTE		N11     Fs1 
	BYTE		TIE     Fn2 
	BYTE	W06
	BYTE		N11     Gs1 
	BYTE	W06
// 170   ----------------------------------------
	BYTE	PATT
	 POIN2	revolution_1_008
// 171   ----------------------------------------
	BYTE	PATT
	 POIN2	revolution_1_123
// 172   ----------------------------------------
	BYTE	PATT
	 POIN2	revolution_1_008
// 173   ----------------------------------------
	BYTE	PATT
	 POIN2	revolution_1_049
	BYTE		EOT     Fn2 
	BYTE	W01
	BYTE		N11     Cn1   v100
	BYTE		N11     Fs1 
	BYTE		TIE     Fn2 
	BYTE	W06
	BYTE		N11     Gs1 
	BYTE	W06
// 174   ----------------------------------------
	BYTE	PATT
	 POIN2	revolution_1_008
// 175   ----------------------------------------
	BYTE	PATT
	 POIN2	revolution_1_023
// 176   ----------------------------------------
	BYTE	PATT
	 POIN2	revolution_1_008
// 177   ----------------------------------------
	BYTE	PATT
	 POIN2	revolution_1_049
	BYTE		EOT     Fn2 
	BYTE	W01
	BYTE		N11     Cn1   v100
	BYTE		N11     Fs1 
	BYTE		TIE     Fn2 
	BYTE	W06
	BYTE		N11     Gs1 
	BYTE	W06
// 178   ----------------------------------------
	BYTE	PATT
	 POIN2	revolution_1_008
// 179   ----------------------------------------
	BYTE	PATT
	 POIN2	revolution_1_123
// 180   ----------------------------------------
	BYTE	PATT
	 POIN2	revolution_1_008
// 181   ----------------------------------------
	BYTE	PATT
	 POIN2	revolution_1_049
	BYTE		EOT     Fn2 
	BYTE	W01
	BYTE		N11     Cn1   v100
	BYTE		N11     Fs1 
	BYTE		TIE     Fn2 
	BYTE	W06
	BYTE		N11     Gs1 
	BYTE	W06
// 182   ----------------------------------------
	BYTE	PATT
	 POIN2	revolution_1_008
// 183   ----------------------------------------
	BYTE	PATT
	 POIN2	revolution_1_023
// 184   ----------------------------------------
	BYTE	PATT
	 POIN2	revolution_1_008
// 185   ----------------------------------------
	BYTE	PATT
	 POIN2	revolution_1_049
	BYTE		EOT     Fn2 
	BYTE	W01
	BYTE		N11     Cn1   v100
	BYTE		N11     Fs1 
	BYTE		TIE     Fn2 
	BYTE	W06
	BYTE		N11     Gs1 
	BYTE	W06
// 186   ----------------------------------------
	BYTE	PATT
	 POIN2	revolution_1_008
// 187   ----------------------------------------
	BYTE	PATT
	 POIN2	revolution_1_123
// 188   ----------------------------------------
	BYTE	PATT
	 POIN2	revolution_1_008
// 189   ----------------------------------------
	BYTE	PATT
	 POIN2	revolution_1_049
	BYTE		EOT     Fn2 
	BYTE	W01
	BYTE		N11     Cn1   v100
	BYTE		N11     Fs1 
	BYTE		TIE     Fn2 
	BYTE	W06
	BYTE		N11     Gs1 
	BYTE	W06
// 190   ----------------------------------------
	BYTE	PATT
	 POIN2	revolution_1_008
// 191   ----------------------------------------
	BYTE		N11     Cn1   v100
	BYTE		N11     Fs1 
	BYTE	W06
	BYTE		        Gs1 
	BYTE	W06
	BYTE		        En1 
	BYTE		N11     Fs1 
	BYTE	W06
	BYTE		        Gs1 
	BYTE	W06
	BYTE		        Dn1 
	BYTE		N11     Fs1 
	BYTE		N44     Bn4 
	BYTE	W06
	BYTE		N11     Gs1 
	BYTE	W06
	BYTE		        Cn1 
	BYTE		N11     Fs1 
	BYTE	W06
	BYTE		        Gs1 
	BYTE	W06
	BYTE		        Cn1 
	BYTE		N11     Fs1 
	BYTE		N05     Cn2 
	BYTE	W06
	BYTE		N11     Gs1 
	BYTE		N05     Cn2 
	BYTE	W06
	BYTE		N11     En1 
	BYTE		N11     Fs1 
	BYTE		N05     Cn2 
	BYTE	W06
	BYTE		N11     Gs1 
	BYTE		N05     Cn2 
	BYTE	W06
	BYTE		N11     Cn1 
	BYTE		N11     Dn1 
	BYTE		N11     En1 
	BYTE		N11     Fs1 
	BYTE		N05     Bn1 
	BYTE		N23     Bn4 
	BYTE	W06
	BYTE		N11     Gs1 
	BYTE		N05     Bn1 
	BYTE	W06
	BYTE		N11     Cn1 
	BYTE		N11     Dn1 
	BYTE		N11     En1 
	BYTE		N11     Fs1 
	BYTE		N05     Gn1 
	BYTE	W06
	BYTE		N05   
	BYTE		N05     Gs1 
	BYTE	W05
	BYTE		EOT     Fn2 
	BYTE	W01
	BYTE	GoTo
	 POIN2	revolution_1_B1
revolution_1_B2:
// 192   ----------------------------------------
	BYTE		PAN     c_v+0
	BYTE		        c_v+0
	BYTE		        c_v+0
	BYTE		BEND    c_v+0
	BYTE	FINE

//**************** Track 2 (Midi-Chn.2) ****************//

revolution_2:
	BYTE	KEYSH   revolution_key+0
// 000   ----------------------------------------
	BYTE		VOICE   50
	BYTE		VOL     64*revolution_mvl/mxv
	BYTE		PAN     c_v+0
	BYTE		        c_v+0
	BYTE		        c_v+0
	BYTE		        c_v+0
	BYTE		BEND    c_v+0
	BYTE		TIE     Ds1   v100
	BYTE	W96
// 001   ----------------------------------------
	BYTE	W92
	BYTE	W03
	BYTE		EOT   
	BYTE	W01
// 002   ----------------------------------------
	BYTE		TIE     Fn1 
	BYTE	W96
// 003   ----------------------------------------
	BYTE	W92
	BYTE	W03
	BYTE		EOT   
	BYTE	W01
// 004   ----------------------------------------
	BYTE		N92     Fs1 
	BYTE	W96
// 005   ----------------------------------------
	BYTE		        Fn1 
	BYTE	W96
// 006   ----------------------------------------
	BYTE		TIE     Ds1 
	BYTE	W96
// 007   ----------------------------------------
	BYTE	W92
	BYTE	W03
	BYTE		EOT   
	BYTE	W01
// 008   ----------------------------------------
revolution_2_008:
	BYTE		TIE     Ds1   v100
	BYTE		TIE     Ds2 
	BYTE	W96
	BYTE	PEND
// 009   ----------------------------------------
	BYTE	W92
	BYTE	W03
	BYTE		EOT     Ds1 
	BYTE		        Ds2 
	BYTE	W01
// 010   ----------------------------------------
	BYTE		TIE     Fn1 
	BYTE		TIE     Fn2 
	BYTE	W96
// 011   ----------------------------------------
	BYTE	W92
	BYTE	W03
	BYTE		EOT     Fn1 
	BYTE		        Fn2 
	BYTE	W01
// 012   ----------------------------------------
	BYTE		N92     Fs1 
	BYTE		N92     Fs2 
	BYTE	W96
// 013   ----------------------------------------
	BYTE		        Fn1 
	BYTE		N92     Fn2 
	BYTE	W96
// 014   ----------------------------------------
	BYTE	PATT
	 POIN2	revolution_2_008
// 015   ----------------------------------------
	BYTE	W92
	BYTE	W03
	BYTE		EOT     Ds1 
	BYTE		        Ds2 
	BYTE	W01
revolution_2_B1:
// 016   ----------------------------------------
revolution_2_016:
	BYTE		TIE     Ds0   v100
	BYTE		TIE     Ds1 
	BYTE		TIE     Ds2 
	BYTE	W96
	BYTE	PEND
// 017   ----------------------------------------
	BYTE	W92
	BYTE	W03
	BYTE		EOT     Ds0 
	BYTE		        Ds1 
	BYTE		        Ds2 
	BYTE	W01
// 018   ----------------------------------------
revolution_2_018:
	BYTE		TIE     Cs0   v100
	BYTE		TIE     Cs1 
	BYTE		TIE     Cs2 
	BYTE	W96
	BYTE	PEND
// 019   ----------------------------------------
	BYTE	W92
	BYTE	W03
	BYTE		EOT     Cs0 
	BYTE		        Cs1 
	BYTE		        Cs2 
	BYTE	W01
// 020   ----------------------------------------
revolution_2_020:
	BYTE		TIE     BnM1  v100
	BYTE		TIE     Bn0 
	BYTE		TIE     Bn1 
	BYTE	W96
	BYTE	PEND
// 021   ----------------------------------------
	BYTE	W92
	BYTE	W03
	BYTE		EOT     BnM1
	BYTE		        Bn0 
	BYTE		        Bn1 
	BYTE	W01
// 022   ----------------------------------------
revolution_2_022:
	BYTE		N92     Cs0   v100
	BYTE		N92     Cs1 
	BYTE		N92     Cs2 
	BYTE	W96
	BYTE	PEND
// 023   ----------------------------------------
revolution_2_023:
	BYTE		N44     Fs0   v100
	BYTE		N44     Fs1 
	BYTE		N44     Fs2 
	BYTE	W48
	BYTE		        Fn0 
	BYTE		N44     Fn1 
	BYTE		N44     Fn2 
	BYTE	W48
	BYTE	PEND
// 024   ----------------------------------------
	BYTE	PATT
	 POIN2	revolution_2_016
// 025   ----------------------------------------
	BYTE	W92
	BYTE	W03
	BYTE		EOT     Ds0 
	BYTE		        Ds1 
	BYTE		        Ds2 
	BYTE	W01
// 026   ----------------------------------------
	BYTE	PATT
	 POIN2	revolution_2_018
// 027   ----------------------------------------
	BYTE	W92
	BYTE	W03
	BYTE		EOT     Cs0 
	BYTE		        Cs1 
	BYTE		        Cs2 
	BYTE	W01
// 028   ----------------------------------------
	BYTE	PATT
	 POIN2	revolution_2_020
// 029   ----------------------------------------
	BYTE	W92
	BYTE	W03
	BYTE		EOT     BnM1
	BYTE		        Bn0 
	BYTE		        Bn1 
	BYTE	W01
// 030   ----------------------------------------
	BYTE	PATT
	 POIN2	revolution_2_022
// 031   ----------------------------------------
revolution_2_031:
	BYTE		N92     Dn0   v100
	BYTE		N92     Dn1 
	BYTE		N92     Dn2 
	BYTE	W96
	BYTE	PEND
// 032   ----------------------------------------
	BYTE	PATT
	 POIN2	revolution_2_016
// 033   ----------------------------------------
	BYTE	W92
	BYTE	W03
	BYTE		EOT     Ds0 
	BYTE		        Ds1 
	BYTE		        Ds2 
	BYTE	W01
// 034   ----------------------------------------
	BYTE	PATT
	 POIN2	revolution_2_020
// 035   ----------------------------------------
	BYTE	W92
	BYTE	W03
	BYTE		EOT     BnM1
	BYTE		        Bn0 
	BYTE		        Bn1 
	BYTE	W01
// 036   ----------------------------------------
	BYTE	PATT
	 POIN2	revolution_2_018
// 037   ----------------------------------------
	BYTE	W92
	BYTE	W03
	BYTE		EOT     Cs0 
	BYTE		        Cs1 
	BYTE		        Cs2 
	BYTE	W01
// 038   ----------------------------------------
revolution_2_038:
	BYTE		N92     Ds0   v100
	BYTE		N92     Ds1 
	BYTE		N92     Ds2 
	BYTE	W96
	BYTE	PEND
// 039   ----------------------------------------
	BYTE	PATT
	 POIN2	revolution_2_023
// 040   ----------------------------------------
	BYTE	PATT
	 POIN2	revolution_2_016
// 041   ----------------------------------------
	BYTE	W92
	BYTE	W03
	BYTE		EOT     Ds0 
	BYTE		        Ds1 
	BYTE		        Ds2 
	BYTE	W01
// 042   ----------------------------------------
	BYTE	PATT
	 POIN2	revolution_2_018
// 043   ----------------------------------------
	BYTE	W92
	BYTE	W03
	BYTE		EOT     Cs0 
	BYTE		        Cs1 
	BYTE		        Cs2 
	BYTE	W01
// 044   ----------------------------------------
	BYTE	PATT
	 POIN2	revolution_2_020
// 045   ----------------------------------------
	BYTE	W92
	BYTE	W03
	BYTE		EOT     BnM1
	BYTE		        Bn0 
	BYTE		        Bn1 
	BYTE	W01
// 046   ----------------------------------------
	BYTE	PATT
	 POIN2	revolution_2_022
// 047   ----------------------------------------
	BYTE	PATT
	 POIN2	revolution_2_031
// 048   ----------------------------------------
	BYTE	PATT
	 POIN2	revolution_2_016
// 049   ----------------------------------------
	BYTE	W92
	BYTE	W03
	BYTE		EOT     Ds0 
	BYTE		        Ds1 
	BYTE		        Ds2 
	BYTE	W01
// 050   ----------------------------------------
	BYTE	PATT
	 POIN2	revolution_2_018
// 051   ----------------------------------------
	BYTE	W92
	BYTE	W03
	BYTE		EOT     Cs0 
	BYTE		        Cs1 
	BYTE		        Cs2 
	BYTE	W01
// 052   ----------------------------------------
	BYTE	PATT
	 POIN2	revolution_2_020
// 053   ----------------------------------------
	BYTE	W92
	BYTE	W03
	BYTE		EOT     BnM1
	BYTE		        Bn0 
	BYTE		        Bn1 
	BYTE	W01
// 054   ----------------------------------------
	BYTE	PATT
	 POIN2	revolution_2_022
// 055   ----------------------------------------
	BYTE	PATT
	 POIN2	revolution_2_023
// 056   ----------------------------------------
	BYTE	PATT
	 POIN2	revolution_2_016
// 057   ----------------------------------------
	BYTE	W92
	BYTE	W03
	BYTE		EOT     Ds0 
	BYTE		        Ds1 
	BYTE		        Ds2 
	BYTE	W01
// 058   ----------------------------------------
	BYTE	PATT
	 POIN2	revolution_2_018
// 059   ----------------------------------------
	BYTE	W92
	BYTE	W03
	BYTE		EOT     Cs0 
	BYTE		        Cs1 
	BYTE		        Cs2 
	BYTE	W01
// 060   ----------------------------------------
	BYTE	PATT
	 POIN2	revolution_2_020
// 061   ----------------------------------------
	BYTE	W92
	BYTE	W03
	BYTE		EOT     BnM1
	BYTE		        Bn0 
	BYTE		        Bn1 
	BYTE	W01
// 062   ----------------------------------------
	BYTE	PATT
	 POIN2	revolution_2_022
// 063   ----------------------------------------
	BYTE	PATT
	 POIN2	revolution_2_031
// 064   ----------------------------------------
	BYTE	PATT
	 POIN2	revolution_2_016
// 065   ----------------------------------------
	BYTE	W92
	BYTE	W03
	BYTE		EOT     Ds0 
	BYTE		        Ds1 
	BYTE		        Ds2 
	BYTE	W01
// 066   ----------------------------------------
	BYTE	PATT
	 POIN2	revolution_2_016
// 067   ----------------------------------------
	BYTE	W92
	BYTE	W03
	BYTE		EOT     Ds0 
	BYTE		        Ds1 
	BYTE		        Ds2 
	BYTE	W01
// 068   ----------------------------------------
	BYTE	PATT
	 POIN2	revolution_2_018
// 069   ----------------------------------------
	BYTE	W92
	BYTE	W03
	BYTE		EOT     Cs0 
	BYTE		        Cs1 
	BYTE		        Cs2 
	BYTE	W01
// 070   ----------------------------------------
	BYTE	PATT
	 POIN2	revolution_2_020
// 071   ----------------------------------------
	BYTE	W92
	BYTE	W03
	BYTE		EOT     BnM1
	BYTE		        Bn0 
	BYTE		        Bn1 
	BYTE	W01
// 072   ----------------------------------------
	BYTE	PATT
	 POIN2	revolution_2_018
// 073   ----------------------------------------
	BYTE	W92
	BYTE	W03
	BYTE		EOT     Cs0 
	BYTE		        Cs1 
	BYTE		        Cs2 
	BYTE	W01
// 074   ----------------------------------------
	BYTE	PATT
	 POIN2	revolution_2_016
// 075   ----------------------------------------
	BYTE	W92
	BYTE	W03
	BYTE		EOT     Ds0 
	BYTE		        Ds1 
	BYTE		        Ds2 
	BYTE	W01
// 076   ----------------------------------------
	BYTE	PATT
	 POIN2	revolution_2_018
// 077   ----------------------------------------
	BYTE	W92
	BYTE	W03
	BYTE		EOT     Cs0 
	BYTE		        Cs1 
	BYTE		        Cs2 
	BYTE	W01
// 078   ----------------------------------------
	BYTE	PATT
	 POIN2	revolution_2_020
// 079   ----------------------------------------
	BYTE	W92
	BYTE	W03
	BYTE		EOT     BnM1
	BYTE		        Bn0 
	BYTE		        Bn1 
	BYTE	W01
// 080   ----------------------------------------
	BYTE	PATT
	 POIN2	revolution_2_018
// 081   ----------------------------------------
	BYTE	W92
	BYTE	W03
	BYTE		EOT     Cs0 
	BYTE		        Cs1 
	BYTE		        Cs2 
	BYTE	W01
// 082   ----------------------------------------
	BYTE	PATT
	 POIN2	revolution_2_016
// 083   ----------------------------------------
	BYTE	W92
	BYTE	W03
	BYTE		EOT     Ds0 
	BYTE		        Ds1 
	BYTE		        Ds2 
	BYTE	W01
// 084   ----------------------------------------
revolution_2_084:
	BYTE		TIE     Fn0   v100
	BYTE		TIE     Fn1 
	BYTE		TIE     Fn2 
	BYTE	W96
	BYTE	PEND
// 085   ----------------------------------------
	BYTE	W92
	BYTE	W03
	BYTE		EOT     Fn0 
	BYTE		        Fn1 
	BYTE		        Fn2 
	BYTE	W01
// 086   ----------------------------------------
revolution_2_086:
	BYTE		TIE     Fs0   v100
	BYTE		TIE     Fs1 
	BYTE		TIE     Fs2 
	BYTE	W96
	BYTE	PEND
// 087   ----------------------------------------
	BYTE	W92
	BYTE	W03
	BYTE		EOT     Fs0 
	BYTE		        Fs1 
	BYTE		        Fs2 
	BYTE	W01
// 088   ----------------------------------------
revolution_2_088:
	BYTE		TIE     Gs0   v100
	BYTE		TIE     Gs1 
	BYTE		TIE     Gs2 
	BYTE	W96
	BYTE	PEND
// 089   ----------------------------------------
	BYTE	W92
	BYTE	W03
	BYTE		EOT     Gs0 
	BYTE		        Gs1 
	BYTE		        Gs2 
	BYTE	W01
// 090   ----------------------------------------
revolution_2_090:
	BYTE		TIE     As0   v100
	BYTE		TIE     As1 
	BYTE		TIE     As2 
	BYTE	W96
	BYTE	PEND
// 091   ----------------------------------------
	BYTE	W92
	BYTE	W03
	BYTE		EOT     As0 
	BYTE		        As1 
	BYTE		        As2 
	BYTE	W01
// 092   ----------------------------------------
	BYTE	PATT
	 POIN2	revolution_2_016
// 093   ----------------------------------------
	BYTE	W92
	BYTE	W03
	BYTE		EOT     Ds0 
	BYTE		        Ds1 
	BYTE		        Ds2 
	BYTE	W01
// 094   ----------------------------------------
	BYTE	PATT
	 POIN2	revolution_2_018
// 095   ----------------------------------------
	BYTE	W92
	BYTE	W03
	BYTE		EOT     Cs0 
	BYTE		        Cs1 
	BYTE		        Cs2 
	BYTE	W01
// 096   ----------------------------------------
	BYTE	PATT
	 POIN2	revolution_2_020
// 097   ----------------------------------------
	BYTE	W92
	BYTE	W03
	BYTE		EOT     BnM1
	BYTE		        Bn0 
	BYTE		        Bn1 
	BYTE	W01
// 098   ----------------------------------------
	BYTE	PATT
	 POIN2	revolution_2_022
// 099   ----------------------------------------
	BYTE	PATT
	 POIN2	revolution_2_023
// 100   ----------------------------------------
	BYTE	PATT
	 POIN2	revolution_2_016
// 101   ----------------------------------------
	BYTE	W92
	BYTE	W03
	BYTE		EOT     Ds0 
	BYTE		        Ds1 
	BYTE		        Ds2 
	BYTE	W01
// 102   ----------------------------------------
	BYTE	PATT
	 POIN2	revolution_2_018
// 103   ----------------------------------------
	BYTE	W92
	BYTE	W03
	BYTE		EOT     Cs0 
	BYTE		        Cs1 
	BYTE		        Cs2 
	BYTE	W01
// 104   ----------------------------------------
	BYTE	PATT
	 POIN2	revolution_2_020
// 105   ----------------------------------------
	BYTE	W92
	BYTE	W03
	BYTE		EOT     BnM1
	BYTE		        Bn0 
	BYTE		        Bn1 
	BYTE	W01
// 106   ----------------------------------------
	BYTE	PATT
	 POIN2	revolution_2_022
// 107   ----------------------------------------
	BYTE	PATT
	 POIN2	revolution_2_031
// 108   ----------------------------------------
	BYTE	PATT
	 POIN2	revolution_2_016
// 109   ----------------------------------------
	BYTE	W92
	BYTE	W03
	BYTE		EOT     Ds0 
	BYTE		        Ds1 
	BYTE		        Ds2 
	BYTE	W01
// 110   ----------------------------------------
	BYTE	PATT
	 POIN2	revolution_2_018
// 111   ----------------------------------------
	BYTE	W92
	BYTE	W03
	BYTE		EOT     Cs0 
	BYTE		        Cs1 
	BYTE		        Cs2 
	BYTE	W01
// 112   ----------------------------------------
	BYTE	PATT
	 POIN2	revolution_2_020
// 113   ----------------------------------------
	BYTE	W92
	BYTE	W03
	BYTE		EOT     BnM1
	BYTE		        Bn0 
	BYTE		        Bn1 
	BYTE	W01
// 114   ----------------------------------------
	BYTE	PATT
	 POIN2	revolution_2_022
// 115   ----------------------------------------
	BYTE	PATT
	 POIN2	revolution_2_023
// 116   ----------------------------------------
	BYTE	PATT
	 POIN2	revolution_2_016
// 117   ----------------------------------------
	BYTE	W92
	BYTE	W03
	BYTE		EOT     Ds0 
	BYTE		        Ds1 
	BYTE		        Ds2 
	BYTE	W01
// 118   ----------------------------------------
	BYTE	PATT
	 POIN2	revolution_2_018
// 119   ----------------------------------------
	BYTE	W92
	BYTE	W03
	BYTE		EOT     Cs0 
	BYTE		        Cs1 
	BYTE		        Cs2 
	BYTE	W01
// 120   ----------------------------------------
	BYTE	PATT
	 POIN2	revolution_2_020
// 121   ----------------------------------------
	BYTE	W92
	BYTE	W03
	BYTE		EOT     BnM1
	BYTE		        Bn0 
	BYTE		        Bn1 
	BYTE	W01
// 122   ----------------------------------------
	BYTE	PATT
	 POIN2	revolution_2_022
// 123   ----------------------------------------
	BYTE	PATT
	 POIN2	revolution_2_031
// 124   ----------------------------------------
	BYTE	PATT
	 POIN2	revolution_2_016
// 125   ----------------------------------------
	BYTE	W92
	BYTE	W03
	BYTE		EOT     Ds0 
	BYTE		        Ds1 
	BYTE		        Ds2 
	BYTE	W01
// 126   ----------------------------------------
	BYTE	PATT
	 POIN2	revolution_2_084
// 127   ----------------------------------------
	BYTE	W92
	BYTE	W03
	BYTE		EOT     Fn0 
	BYTE		        Fn1 
	BYTE		        Fn2 
	BYTE	W01
// 128   ----------------------------------------
	BYTE	PATT
	 POIN2	revolution_2_086
// 129   ----------------------------------------
	BYTE	W92
	BYTE	W03
	BYTE		EOT     Fs0 
	BYTE		        Fs1 
	BYTE		        Fs2 
	BYTE	W01
// 130   ----------------------------------------
	BYTE	PATT
	 POIN2	revolution_2_088
// 131   ----------------------------------------
	BYTE	W92
	BYTE	W03
	BYTE		EOT     Gs0 
	BYTE		        Gs1 
	BYTE		        Gs2 
	BYTE	W01
// 132   ----------------------------------------
	BYTE	PATT
	 POIN2	revolution_2_090
// 133   ----------------------------------------
	BYTE	W92
	BYTE	W03
	BYTE		EOT     As0 
	BYTE		        As1 
	BYTE		        As2 
	BYTE	W01
// 134   ----------------------------------------
	BYTE		N92     As0   v100
	BYTE		N92     As1 
	BYTE		N92     As2 
	BYTE	W96
// 135   ----------------------------------------
	BYTE		N23     As0 
	BYTE		N23     As1 
	BYTE		N23     As2 
	BYTE	W24
	BYTE		        Gs0 
	BYTE		N23     Gs1 
	BYTE		N23     Gs2 
	BYTE	W24
	BYTE		        Fs0 
	BYTE		N23     Fs1 
	BYTE		N23     Fs2 
	BYTE	W24
	BYTE		        Gs0 
	BYTE		N23     Gs1 
	BYTE		N23     Gs2 
	BYTE	W24
// 136   ----------------------------------------
	BYTE	PATT
	 POIN2	revolution_2_084
// 137   ----------------------------------------
	BYTE	W92
	BYTE	W03
	BYTE		EOT     Fn0 
	BYTE		        Fn1 
	BYTE		        Fn2 
	BYTE	W01
// 138   ----------------------------------------
	BYTE	PATT
	 POIN2	revolution_2_016
// 139   ----------------------------------------
	BYTE	W92
	BYTE	W03
	BYTE		EOT     Ds0 
	BYTE		        Ds1 
	BYTE		        Ds2 
	BYTE	W01
// 140   ----------------------------------------
	BYTE	PATT
	 POIN2	revolution_2_018
// 141   ----------------------------------------
	BYTE	W92
	BYTE	W03
	BYTE		EOT     Cs0 
	BYTE		        Cs1 
	BYTE		        Cs2 
	BYTE	W01
// 142   ----------------------------------------
	BYTE	PATT
	 POIN2	revolution_2_038
// 143   ----------------------------------------
revolution_2_143:
	BYTE		N44     Gs0   v100
	BYTE		N44     Gs1 
	BYTE		N44     Gs2 
	BYTE	W48
	BYTE		        Gn0 
	BYTE		N44     Gn1 
	BYTE		N44     Gn2 
	BYTE	W48
	BYTE	PEND
// 144   ----------------------------------------
	BYTE	PATT
	 POIN2	revolution_2_084
// 145   ----------------------------------------
	BYTE	W92
	BYTE	W03
	BYTE		EOT     Fn0 
	BYTE		        Fn1 
	BYTE		        Fn2 
	BYTE	W01
// 146   ----------------------------------------
	BYTE	PATT
	 POIN2	revolution_2_016
// 147   ----------------------------------------
	BYTE	W92
	BYTE	W03
	BYTE		EOT     Ds0 
	BYTE		        Ds1 
	BYTE		        Ds2 
	BYTE	W01
// 148   ----------------------------------------
	BYTE	PATT
	 POIN2	revolution_2_018
// 149   ----------------------------------------
	BYTE	W92
	BYTE	W03
	BYTE		EOT     Cs0 
	BYTE		        Cs1 
	BYTE		        Cs2 
	BYTE	W01
// 150   ----------------------------------------
	BYTE	PATT
	 POIN2	revolution_2_038
// 151   ----------------------------------------
revolution_2_151:
	BYTE		N92     En0   v100
	BYTE		N92     En1 
	BYTE		N92     En2 
	BYTE	W96
	BYTE	PEND
// 152   ----------------------------------------
	BYTE	PATT
	 POIN2	revolution_2_084
// 153   ----------------------------------------
	BYTE	W92
	BYTE	W03
	BYTE		EOT     Fn0 
	BYTE		        Fn1 
	BYTE		        Fn2 
	BYTE	W01
// 154   ----------------------------------------
	BYTE	PATT
	 POIN2	revolution_2_016
// 155   ----------------------------------------
	BYTE	W92
	BYTE	W03
	BYTE		EOT     Ds0 
	BYTE		        Ds1 
	BYTE		        Ds2 
	BYTE	W01
// 156   ----------------------------------------
	BYTE	PATT
	 POIN2	revolution_2_018
// 157   ----------------------------------------
	BYTE	W92
	BYTE	W03
	BYTE		EOT     Cs0 
	BYTE		        Cs1 
	BYTE		        Cs2 
	BYTE	W01
// 158   ----------------------------------------
	BYTE	PATT
	 POIN2	revolution_2_038
// 159   ----------------------------------------
	BYTE	PATT
	 POIN2	revolution_2_143
// 160   ----------------------------------------
	BYTE	PATT
	 POIN2	revolution_2_084
// 161   ----------------------------------------
	BYTE	W92
	BYTE	W03
	BYTE		EOT     Fn0 
	BYTE		        Fn1 
	BYTE		        Fn2 
	BYTE	W01
// 162   ----------------------------------------
	BYTE	PATT
	 POIN2	revolution_2_016
// 163   ----------------------------------------
	BYTE	W92
	BYTE	W03
	BYTE		EOT     Ds0 
	BYTE		        Ds1 
	BYTE		        Ds2 
	BYTE	W01
// 164   ----------------------------------------
	BYTE	PATT
	 POIN2	revolution_2_018
// 165   ----------------------------------------
	BYTE	W92
	BYTE	W03
	BYTE		EOT     Cs0 
	BYTE		        Cs1 
	BYTE		        Cs2 
	BYTE	W01
// 166   ----------------------------------------
	BYTE	PATT
	 POIN2	revolution_2_038
// 167   ----------------------------------------
	BYTE	PATT
	 POIN2	revolution_2_151
// 168   ----------------------------------------
	BYTE	PATT
	 POIN2	revolution_2_084
// 169   ----------------------------------------
	BYTE	W92
	BYTE	W03
	BYTE		EOT     Fn0 
	BYTE		        Fn1 
	BYTE		        Fn2 
	BYTE	W01
// 170   ----------------------------------------
	BYTE	PATT
	 POIN2	revolution_2_016
// 171   ----------------------------------------
	BYTE	W92
	BYTE	W03
	BYTE		EOT     Ds0 
	BYTE		        Ds1 
	BYTE		        Ds2 
	BYTE	W01
// 172   ----------------------------------------
	BYTE	PATT
	 POIN2	revolution_2_018
// 173   ----------------------------------------
	BYTE	W92
	BYTE	W03
	BYTE		EOT     Cs0 
	BYTE		        Cs1 
	BYTE		        Cs2 
	BYTE	W01
// 174   ----------------------------------------
	BYTE	PATT
	 POIN2	revolution_2_038
// 175   ----------------------------------------
	BYTE	PATT
	 POIN2	revolution_2_143
// 176   ----------------------------------------
	BYTE	PATT
	 POIN2	revolution_2_084
// 177   ----------------------------------------
	BYTE	W92
	BYTE	W03
	BYTE		EOT     Fn0 
	BYTE		        Fn1 
	BYTE		        Fn2 
	BYTE	W01
// 178   ----------------------------------------
	BYTE	PATT
	 POIN2	revolution_2_016
// 179   ----------------------------------------
	BYTE	W92
	BYTE	W03
	BYTE		EOT     Ds0 
	BYTE		        Ds1 
	BYTE		        Ds2 
	BYTE	W01
// 180   ----------------------------------------
	BYTE	PATT
	 POIN2	revolution_2_018
// 181   ----------------------------------------
	BYTE	W92
	BYTE	W03
	BYTE		EOT     Cs0 
	BYTE		        Cs1 
	BYTE		        Cs2 
	BYTE	W01
// 182   ----------------------------------------
	BYTE	PATT
	 POIN2	revolution_2_038
// 183   ----------------------------------------
	BYTE	PATT
	 POIN2	revolution_2_151
// 184   ----------------------------------------
	BYTE	PATT
	 POIN2	revolution_2_084
// 185   ----------------------------------------
	BYTE	W92
	BYTE	W03
	BYTE		EOT     Fn0 
	BYTE		        Fn1 
	BYTE		        Fn2 
	BYTE	W01
// 186   ----------------------------------------
	BYTE	PATT
	 POIN2	revolution_2_016
// 187   ----------------------------------------
	BYTE	W92
	BYTE	W03
	BYTE		EOT     Ds0 
	BYTE		        Ds1 
	BYTE		        Ds2 
	BYTE	W01
// 188   ----------------------------------------
	BYTE	PATT
	 POIN2	revolution_2_018
// 189   ----------------------------------------
	BYTE	W92
	BYTE	W03
	BYTE		EOT     Cs0 
	BYTE		        Cs1 
	BYTE		        Cs2 
	BYTE	W01
// 190   ----------------------------------------
	BYTE	PATT
	 POIN2	revolution_2_038
// 191   ----------------------------------------
	BYTE	PATT
	 POIN2	revolution_2_151
	BYTE	GoTo
	 POIN2	revolution_2_B1
revolution_2_B2:
// 192   ----------------------------------------
	BYTE		PAN     c_v+0
	BYTE		        c_v+0
	BYTE		        c_v+0
	BYTE		BEND    c_v+0
	BYTE	FINE

//**************** Track 3 (Midi-Chn.3) ****************//

revolution_3:
	BYTE	KEYSH   revolution_key+0
// 000   ----------------------------------------
	BYTE		VOICE   56
	BYTE		VOL     70*revolution_mvl/mxv
	BYTE		PAN     c_v+0
	BYTE		        c_v+0
	BYTE		        c_v+0
	BYTE		        c_v+0
	BYTE		BEND    c_v+0
	BYTE	W96
// 001   ----------------------------------------
	BYTE	W96
// 002   ----------------------------------------
	BYTE	W96
// 003   ----------------------------------------
	BYTE	W96
// 004   ----------------------------------------
	BYTE	W96
// 005   ----------------------------------------
	BYTE	W96
// 006   ----------------------------------------
	BYTE	W96
// 007   ----------------------------------------
	BYTE	W96
// 008   ----------------------------------------
	BYTE	W96
// 009   ----------------------------------------
	BYTE	W96
// 010   ----------------------------------------
	BYTE	W96
// 011   ----------------------------------------
	BYTE	W96
// 012   ----------------------------------------
	BYTE	W96
// 013   ----------------------------------------
	BYTE	W96
// 014   ----------------------------------------
	BYTE	W96
// 015   ----------------------------------------
	BYTE	W96
revolution_3_B1:
// 016   ----------------------------------------
	BYTE	W96
// 017   ----------------------------------------
	BYTE	W96
// 018   ----------------------------------------
	BYTE	W96
// 019   ----------------------------------------
	BYTE	W96
// 020   ----------------------------------------
	BYTE	W96
// 021   ----------------------------------------
	BYTE	W96
// 022   ----------------------------------------
	BYTE	W96
// 023   ----------------------------------------
	BYTE	W96
// 024   ----------------------------------------
	BYTE	W96
// 025   ----------------------------------------
	BYTE	W96
// 026   ----------------------------------------
	BYTE	W96
// 027   ----------------------------------------
	BYTE	W96
// 028   ----------------------------------------
	BYTE	W96
// 029   ----------------------------------------
	BYTE	W96
// 030   ----------------------------------------
	BYTE	W96
// 031   ----------------------------------------
	BYTE	W96
// 032   ----------------------------------------
	BYTE	W24
	BYTE		N92     As3   v100
	BYTE		N92     As4 
	BYTE	W72
// 033   ----------------------------------------
	BYTE	W24
	BYTE		N23     As3 
	BYTE		N23     As4 
	BYTE	W24
	BYTE		        Gs3 
	BYTE		N23     Gs4 
	BYTE	W24
	BYTE		        Fs3 
	BYTE		N23     Fs4 
	BYTE	W24
// 034   ----------------------------------------
	BYTE		N92     Fs3 
	BYTE		N92     Fs4 
	BYTE	W96
// 035   ----------------------------------------
	BYTE		N11     Fs3 
	BYTE		N11     Fs4 
	BYTE	W12
	BYTE		        Gs3 
	BYTE		N11     Gs4 
	BYTE	W12
	BYTE		        Fs3 
	BYTE		N11     Fs4 
	BYTE	W12
	BYTE		        Fn3 
	BYTE		N11     Fn4 
	BYTE	W12
	BYTE		        Fs3 
	BYTE		N11     Fs4 
	BYTE	W12
	BYTE		        Fn3 
	BYTE		N11     Fn4 
	BYTE	W12
	BYTE		        Ds3 
	BYTE		N11     Ds4 
	BYTE	W12
	BYTE		        Fs3 
	BYTE		N11     Fs4 
	BYTE	W12
// 036   ----------------------------------------
	BYTE		N23     Gs3 
	BYTE		N23     Gs4 
	BYTE	W24
	BYTE		        Fs3 
	BYTE		N23     Fs4 
	BYTE	W24
	BYTE		        Fn3 
	BYTE		N23     Fn4 
	BYTE	W24
	BYTE		        Cs3 
	BYTE		N23     Cs4 
	BYTE	W24
// 037   ----------------------------------------
	BYTE		        Gs3 
	BYTE		N23     Gs4 
	BYTE	W24
	BYTE		        As3 
	BYTE		N23     As4 
	BYTE	W24
	BYTE		        Cs4 
	BYTE		N23     Cs5 
	BYTE	W24
	BYTE		        As3 
	BYTE		N23     As4 
	BYTE	W24
// 038   ----------------------------------------
	BYTE		N92     Ds4 
	BYTE		N92     Ds5 
	BYTE	W96
// 039   ----------------------------------------
	BYTE		N05     Fs4 
	BYTE		N05     Fs5 
	BYTE	W06
	BYTE		        Ds4 
	BYTE		N05     Ds5 
	BYTE	W06
	BYTE		        Cs4 
	BYTE		N05     Cs5 
	BYTE	W06
	BYTE		        As3 
	BYTE		N05     As4 
	BYTE	W06
	BYTE		        Ds4 
	BYTE		N05     Ds5 
	BYTE	W06
	BYTE		        Cs4 
	BYTE		N05     Cs5 
	BYTE	W06
	BYTE		        As3 
	BYTE		N05     As4 
	BYTE	W06
	BYTE		        Gs3 
	BYTE		N05     Gs4 
	BYTE	W06
	BYTE		        Fn4 
	BYTE		N05     Fn5 
	BYTE	W06
	BYTE		        Ds4 
	BYTE		N05     Ds5 
	BYTE	W06
	BYTE		        Cn4 
	BYTE		N05     Cn5 
	BYTE	W06
	BYTE		        As3 
	BYTE		N05     As4 
	BYTE	W06
	BYTE		        Ds4 
	BYTE		N05     Ds5 
	BYTE	W06
	BYTE		        Cn4 
	BYTE		N05     Cn5 
	BYTE	W06
	BYTE		        As3 
	BYTE		N05     As4 
	BYTE	W06
	BYTE		        Gs3 
	BYTE		N05     Gs4 
	BYTE	W06
// 040   ----------------------------------------
	BYTE		        As3 
	BYTE		N05     As4 
	BYTE	W06
	BYTE		N11     Ds4 
	BYTE		N11     Ds5 
	BYTE	W12
	BYTE		N05     As3 
	BYTE		N05     As4 
	BYTE	W06
	BYTE		N11     Ds4 
	BYTE		N11     Ds5 
	BYTE	W12
	BYTE		N05     As3 
	BYTE		N05     As4 
	BYTE	W06
	BYTE		N76     Ds4 
	BYTE		N76     Ds5 
	BYTE	W54
// 041   ----------------------------------------
	BYTE	W24
	BYTE		N05     Fs4 
	BYTE		N05     Fs5 
	BYTE	W06
	BYTE		        Fn4 
	BYTE		N05     Fn5 
	BYTE	W06
	BYTE		        Fs4 
	BYTE		N05     Fs5 
	BYTE	W06
	BYTE		        Ds4 
	BYTE		N05     Ds5 
	BYTE	W06
	BYTE		        Fn4 
	BYTE		N05     Fn5 
	BYTE	W06
	BYTE		        Ds4 
	BYTE		N05     Ds5 
	BYTE	W06
	BYTE		        Fn4 
	BYTE		N05     Fn5 
	BYTE	W06
	BYTE		        Cs4 
	BYTE		N05     Cs5 
	BYTE	W06
	BYTE		        Ds4 
	BYTE		N05     Ds5 
	BYTE	W06
	BYTE		        Cs4 
	BYTE		N05     Cs5 
	BYTE	W06
	BYTE		        Ds4 
	BYTE		N05     Ds5 
	BYTE	W06
	BYTE		        As3 
	BYTE		N05     As4 
	BYTE	W06
// 042   ----------------------------------------
	BYTE		N11     Cs4 
	BYTE		N11     Cs5 
	BYTE	W12
	BYTE		        Ds4 
	BYTE		N11     Ds5 
	BYTE	W12
	BYTE		N92     Fn4 
	BYTE		N92     Fn5 
	BYTE	W72
// 043   ----------------------------------------
	BYTE	W24
	BYTE		N23     Fs4 
	BYTE		N23     Fs5 
	BYTE	W24
	BYTE		        Gs4 
	BYTE		N23     Gs5 
	BYTE	W24
	BYTE		        As4 
	BYTE		N23     As5 
	BYTE	W24
// 044   ----------------------------------------
	BYTE		        Gs4 
	BYTE		N23     Gs5 
	BYTE	W24
	BYTE		N11     Fs4 
	BYTE		N11     Fs5 
	BYTE	W12
	BYTE		        Fn4 
	BYTE		N11     Fn5 
	BYTE	W12
	BYTE		N23     Fs4 
	BYTE		N23     Fs5 
	BYTE	W24
	BYTE		N11     Fn4 
	BYTE		N11     Fn5 
	BYTE	W12
	BYTE		        Ds4 
	BYTE		N11     Ds5 
	BYTE	W12
// 045   ----------------------------------------
	BYTE		N05     Fn4 
	BYTE		N05     Fn5 
	BYTE	W06
	BYTE		        Fs4 
	BYTE		N05     Fs5 
	BYTE	W06
	BYTE		        Fn4 
	BYTE		N05     Fn5 
	BYTE	W06
	BYTE		        Fs4 
	BYTE		N05     Fs5 
	BYTE	W06
	BYTE		        Fn4 
	BYTE		N05     Fn5 
	BYTE	W06
	BYTE		        Ds4 
	BYTE		N05     Ds5 
	BYTE	W06
	BYTE		        Cs4 
	BYTE		N05     Cs5 
	BYTE	W06
	BYTE		        As3 
	BYTE		N05     As4 
	BYTE	W06
	BYTE		        Fn4 
	BYTE		N05     Fn5 
	BYTE	W06
	BYTE		        Fs4 
	BYTE		N05     Fs5 
	BYTE	W06
	BYTE		        Fn4 
	BYTE		N05     Fn5 
	BYTE	W06
	BYTE		        Fs4 
	BYTE		N05     Fs5 
	BYTE	W06
	BYTE		        Gs4 
	BYTE		N05     Gs5 
	BYTE	W06
	BYTE		        As4 
	BYTE		N05     As5 
	BYTE	W06
	BYTE		        Cs5 
	BYTE		N05     Cs6 
	BYTE	W06
	BYTE		        Bn4 
	BYTE		N05     Bn5 
	BYTE	W06
// 046   ----------------------------------------
	BYTE		N44     As4 
	BYTE		N44     As5 
	BYTE	W48
	BYTE		N11     As4 
	BYTE		N11     As5 
	BYTE	W12
	BYTE		        Gs4 
	BYTE		N11     Gs5 
	BYTE	W12
	BYTE		N05     As4 
	BYTE		N05     As5 
	BYTE	W06
	BYTE		        Bn4 
	BYTE		N05     Bn5 
	BYTE	W06
	BYTE		        As4 
	BYTE		N05     As5 
	BYTE	W06
	BYTE		        Bn4 
	BYTE		N05     Bn5 
	BYTE	W06
// 047   ----------------------------------------
	BYTE		        As4 
	BYTE		N05     As5 
	BYTE	W06
	BYTE		        Gs4 
	BYTE		N05     Gs5 
	BYTE	W06
	BYTE		        Fs4 
	BYTE		N05     Fs5 
	BYTE	W06
	BYTE		        Fn4 
	BYTE		N05     Fn5 
	BYTE	W06
	BYTE		        Gs4 
	BYTE		N05     Gs5 
	BYTE	W06
	BYTE		        Fs4 
	BYTE		N05     Fs5 
	BYTE	W06
	BYTE		        Fn4 
	BYTE		N05     Fn5 
	BYTE	W06
	BYTE		        Ds4 
	BYTE		N05     Ds5 
	BYTE	W06
	BYTE		        Fs4 
	BYTE		N05     Fs5 
	BYTE	W06
	BYTE		        Fn4 
	BYTE		N05     Fn5 
	BYTE	W06
	BYTE		        Ds4 
	BYTE		N05     Ds5 
	BYTE	W06
	BYTE		        Cs4 
	BYTE		N05     Cs5 
	BYTE	W06
	BYTE		        Fn4 
	BYTE		N05     Fn5 
	BYTE	W06
	BYTE		        Ds4 
	BYTE		N05     Ds5 
	BYTE	W06
	BYTE		        Cs4 
	BYTE		N05     Cs5 
	BYTE	W06
	BYTE		        As3 
	BYTE		N05     As4 
	BYTE	W06
// 048   ----------------------------------------
	BYTE	W96
// 049   ----------------------------------------
	BYTE	W96
// 050   ----------------------------------------
	BYTE	W96
// 051   ----------------------------------------
	BYTE	W96
// 052   ----------------------------------------
	BYTE	W96
// 053   ----------------------------------------
	BYTE	W96
// 054   ----------------------------------------
	BYTE	W96
// 055   ----------------------------------------
	BYTE	W96
// 056   ----------------------------------------
	BYTE		N23     Ds5 
	BYTE	W24
	BYTE		        Dn5 
	BYTE	W24
	BYTE		        Ds5 
	BYTE	W24
	BYTE		        Gs5 
	BYTE	W24
// 057   ----------------------------------------
	BYTE		        Fs5 
	BYTE	W24
	BYTE		        Fn5 
	BYTE	W24
	BYTE		        Fs5 
	BYTE	W24
	BYTE		        Gs5 
	BYTE	W24
// 058   ----------------------------------------
	BYTE		N05     Fn5 
	BYTE	W06
	BYTE		        Cs5 
	BYTE	W06
	BYTE		N80     As4 
	BYTE	W84
// 059   ----------------------------------------
	BYTE		N23     Gs4 
	BYTE	W24
	BYTE		        As4 
	BYTE	W24
	BYTE		        Cs5 
	BYTE	W24
	BYTE		        As4 
	BYTE	W24
// 060   ----------------------------------------
	BYTE		N44     Ds5 
	BYTE	W48
	BYTE		N23     Fn5 
	BYTE	W24
	BYTE		        Ds5 
	BYTE	W24
// 061   ----------------------------------------
	BYTE		        Fs5 
	BYTE	W24
	BYTE		        Fn5 
	BYTE	W24
	BYTE		        Gs5 
	BYTE	W24
	BYTE		        As5 
	BYTE	W24
// 062   ----------------------------------------
	BYTE		N92     Cs6 
	BYTE	W96
// 063   ----------------------------------------
	BYTE		        Dn6 
	BYTE	W96
// 064   ----------------------------------------
	BYTE	W96
// 065   ----------------------------------------
	BYTE	W96
// 066   ----------------------------------------
	BYTE	W96
// 067   ----------------------------------------
	BYTE	W96
// 068   ----------------------------------------
	BYTE	W96
// 069   ----------------------------------------
	BYTE	W96
// 070   ----------------------------------------
	BYTE	W96
// 071   ----------------------------------------
	BYTE	W96
// 072   ----------------------------------------
	BYTE	W96
// 073   ----------------------------------------
	BYTE	W96
// 074   ----------------------------------------
	BYTE	W96
// 075   ----------------------------------------
	BYTE	W96
// 076   ----------------------------------------
	BYTE	W96
// 077   ----------------------------------------
	BYTE	W96
// 078   ----------------------------------------
	BYTE	W96
// 079   ----------------------------------------
	BYTE	W96
// 080   ----------------------------------------
	BYTE	W96
// 081   ----------------------------------------
	BYTE	W96
// 082   ----------------------------------------
	BYTE	W96
// 083   ----------------------------------------
	BYTE	W96
// 084   ----------------------------------------
	BYTE	W96
// 085   ----------------------------------------
	BYTE	W96
// 086   ----------------------------------------
	BYTE	W96
// 087   ----------------------------------------
	BYTE	W96
// 088   ----------------------------------------
	BYTE	W96
// 089   ----------------------------------------
	BYTE	W96
// 090   ----------------------------------------
	BYTE	W96
// 091   ----------------------------------------
	BYTE	W96
// 092   ----------------------------------------
	BYTE	W96
// 093   ----------------------------------------
	BYTE	W96
// 094   ----------------------------------------
	BYTE	W96
// 095   ----------------------------------------
	BYTE	W96
// 096   ----------------------------------------
	BYTE	W96
// 097   ----------------------------------------
	BYTE	W96
// 098   ----------------------------------------
	BYTE	W96
// 099   ----------------------------------------
	BYTE	W96
// 100   ----------------------------------------
	BYTE	W96
// 101   ----------------------------------------
	BYTE	W96
// 102   ----------------------------------------
	BYTE	W96
// 103   ----------------------------------------
	BYTE	W96
// 104   ----------------------------------------
	BYTE	W96
// 105   ----------------------------------------
	BYTE	W96
// 106   ----------------------------------------
	BYTE	W96
// 107   ----------------------------------------
	BYTE	W96
// 108   ----------------------------------------
	BYTE	W96
// 109   ----------------------------------------
	BYTE	W96
// 110   ----------------------------------------
	BYTE	W96
// 111   ----------------------------------------
	BYTE	W96
// 112   ----------------------------------------
	BYTE	W96
// 113   ----------------------------------------
	BYTE	W96
// 114   ----------------------------------------
	BYTE	W96
// 115   ----------------------------------------
	BYTE	W96
// 116   ----------------------------------------
	BYTE	W96
// 117   ----------------------------------------
	BYTE	W96
// 118   ----------------------------------------
	BYTE	W96
// 119   ----------------------------------------
	BYTE	W96
// 120   ----------------------------------------
	BYTE	W96
// 121   ----------------------------------------
	BYTE	W96
// 122   ----------------------------------------
	BYTE	W96
// 123   ----------------------------------------
	BYTE	W96
// 124   ----------------------------------------
	BYTE	W96
// 125   ----------------------------------------
	BYTE	W96
// 126   ----------------------------------------
	BYTE	W96
// 127   ----------------------------------------
	BYTE	W96
// 128   ----------------------------------------
	BYTE	W96
// 129   ----------------------------------------
	BYTE	W96
// 130   ----------------------------------------
	BYTE	W96
// 131   ----------------------------------------
	BYTE	W96
// 132   ----------------------------------------
	BYTE	W96
// 133   ----------------------------------------
	BYTE	W96
// 134   ----------------------------------------
	BYTE	W96
// 135   ----------------------------------------
	BYTE	W96
// 136   ----------------------------------------
	BYTE	W96
// 137   ----------------------------------------
	BYTE	W96
// 138   ----------------------------------------
	BYTE	W96
// 139   ----------------------------------------
	BYTE	W96
// 140   ----------------------------------------
	BYTE	W96
// 141   ----------------------------------------
	BYTE	W96
// 142   ----------------------------------------
	BYTE	W96
// 143   ----------------------------------------
	BYTE	W96
// 144   ----------------------------------------
	BYTE	W96
// 145   ----------------------------------------
	BYTE	W96
// 146   ----------------------------------------
	BYTE	W96
// 147   ----------------------------------------
	BYTE	W96
// 148   ----------------------------------------
	BYTE	W96
// 149   ----------------------------------------
	BYTE	W96
// 150   ----------------------------------------
	BYTE	W96
// 151   ----------------------------------------
	BYTE	W96
// 152   ----------------------------------------
	BYTE	W96
// 153   ----------------------------------------
	BYTE	W96
// 154   ----------------------------------------
	BYTE	W96
// 155   ----------------------------------------
	BYTE	W96
// 156   ----------------------------------------
	BYTE	W96
// 157   ----------------------------------------
	BYTE	W96
// 158   ----------------------------------------
	BYTE	W96
// 159   ----------------------------------------
	BYTE	W96
// 160   ----------------------------------------
	BYTE	W96
// 161   ----------------------------------------
	BYTE	W96
// 162   ----------------------------------------
	BYTE	W96
// 163   ----------------------------------------
	BYTE	W96
// 164   ----------------------------------------
	BYTE	W96
// 165   ----------------------------------------
	BYTE	W96
// 166   ----------------------------------------
	BYTE	W96
// 167   ----------------------------------------
	BYTE	W96
// 168   ----------------------------------------
	BYTE	W96
// 169   ----------------------------------------
	BYTE	W96
// 170   ----------------------------------------
	BYTE	W96
// 171   ----------------------------------------
	BYTE	W96
// 172   ----------------------------------------
	BYTE	W96
// 173   ----------------------------------------
	BYTE	W96
// 174   ----------------------------------------
	BYTE	W96
// 175   ----------------------------------------
	BYTE	W96
// 176   ----------------------------------------
	BYTE	W96
// 177   ----------------------------------------
	BYTE	W96
// 178   ----------------------------------------
	BYTE	W96
// 179   ----------------------------------------
	BYTE	W96
// 180   ----------------------------------------
	BYTE	W96
// 181   ----------------------------------------
	BYTE	W96
// 182   ----------------------------------------
	BYTE	W96
// 183   ----------------------------------------
	BYTE	W96
// 184   ----------------------------------------
	BYTE		N23     Fn4 
	BYTE		N23     Fn5 
	BYTE	W24
	BYTE		        En4 
	BYTE		N23     En5 
	BYTE	W24
	BYTE		        Fn4 
	BYTE		N23     Fn5 
	BYTE	W24
	BYTE		        As4 
	BYTE		N23     As5 
	BYTE	W24
// 185   ----------------------------------------
	BYTE		        Gs4 
	BYTE		N23     Gs5 
	BYTE	W24
	BYTE		        Gn4 
	BYTE		N23     Gn5 
	BYTE	W24
	BYTE		        Gs4 
	BYTE		N23     Gs5 
	BYTE	W24
	BYTE		        As4 
	BYTE		N23     As5 
	BYTE	W24
// 186   ----------------------------------------
	BYTE		N05     Gn4 
	BYTE		N05     Gn5 
	BYTE	W06
	BYTE		        Ds4 
	BYTE		N05     Ds5 
	BYTE	W06
	BYTE		N80     Cn4 
	BYTE		N80     Cn5 
	BYTE	W84
// 187   ----------------------------------------
	BYTE		N23     As3 
	BYTE		N23     As4 
	BYTE	W24
	BYTE		        Cn4 
	BYTE		N23     Cn5 
	BYTE	W24
	BYTE		        Ds4 
	BYTE		N23     Ds5 
	BYTE	W24
	BYTE		        Cn4 
	BYTE		N23     Cn5 
	BYTE	W24
// 188   ----------------------------------------
	BYTE		N44     Fn4 
	BYTE		N44     Fn5 
	BYTE	W48
	BYTE		N23     Gn4 
	BYTE		N23     Gn5 
	BYTE	W24
	BYTE		        Fn4 
	BYTE		N23     Fn5 
	BYTE	W24
// 189   ----------------------------------------
	BYTE		        Gs4 
	BYTE		N23     Gs5 
	BYTE	W24
	BYTE		        Gn4 
	BYTE		N23     Gn5 
	BYTE	W24
	BYTE		        As4 
	BYTE		N23     As5 
	BYTE	W24
	BYTE		        Cn5 
	BYTE		N23     Cn6 
	BYTE	W24
// 190   ----------------------------------------
	BYTE		N92     Ds5 
	BYTE		N92     Ds6 
	BYTE	W96
// 191   ----------------------------------------
	BYTE		        En5 
	BYTE		N92     En6 
	BYTE	W96
	BYTE	GoTo
	 POIN2	revolution_3_B1
revolution_3_B2:
// 192   ----------------------------------------
	BYTE		PAN     c_v+0
	BYTE		        c_v+0
	BYTE		        c_v+0
	BYTE		BEND    c_v+0
	BYTE	FINE

//**************** Track 4 (Midi-Chn.4) ****************//

revolution_4:
	BYTE	KEYSH   revolution_key+0
// 000   ----------------------------------------
	BYTE		VOICE   18
	BYTE		VOL     70*revolution_mvl/mxv
	BYTE		PAN     c_v+0
	BYTE		        c_v+0
	BYTE		        c_v+0
	BYTE		        c_v+0
	BYTE		BEND    c_v+0
	BYTE	W96
// 001   ----------------------------------------
	BYTE	W96
// 002   ----------------------------------------
	BYTE	W96
// 003   ----------------------------------------
	BYTE	W96
// 004   ----------------------------------------
	BYTE	W96
// 005   ----------------------------------------
	BYTE	W96
// 006   ----------------------------------------
	BYTE	W96
// 007   ----------------------------------------
	BYTE	W96
// 008   ----------------------------------------
	BYTE	W96
// 009   ----------------------------------------
	BYTE	W96
// 010   ----------------------------------------
	BYTE	W96
// 011   ----------------------------------------
	BYTE	W96
// 012   ----------------------------------------
	BYTE	W96
// 013   ----------------------------------------
	BYTE	W96
// 014   ----------------------------------------
	BYTE	W96
// 015   ----------------------------------------
	BYTE	W96
revolution_4_B1:
// 016   ----------------------------------------
	BYTE	W96
// 017   ----------------------------------------
	BYTE	W96
// 018   ----------------------------------------
	BYTE	W96
// 019   ----------------------------------------
	BYTE	W96
// 020   ----------------------------------------
	BYTE	W96
// 021   ----------------------------------------
	BYTE	W96
// 022   ----------------------------------------
	BYTE	W96
// 023   ----------------------------------------
	BYTE	W96
// 024   ----------------------------------------
	BYTE	W96
// 025   ----------------------------------------
	BYTE	W96
// 026   ----------------------------------------
	BYTE	W96
// 027   ----------------------------------------
	BYTE	W96
// 028   ----------------------------------------
	BYTE	W96
// 029   ----------------------------------------
	BYTE	W96
// 030   ----------------------------------------
	BYTE	W96
// 031   ----------------------------------------
	BYTE	W96
// 032   ----------------------------------------
	BYTE	W96
// 033   ----------------------------------------
	BYTE	W96
// 034   ----------------------------------------
	BYTE	W96
// 035   ----------------------------------------
	BYTE	W96
// 036   ----------------------------------------
	BYTE	W96
// 037   ----------------------------------------
	BYTE	W96
// 038   ----------------------------------------
	BYTE	W96
// 039   ----------------------------------------
	BYTE	W96
// 040   ----------------------------------------
	BYTE	W96
// 041   ----------------------------------------
	BYTE	W96
// 042   ----------------------------------------
	BYTE	W96
// 043   ----------------------------------------
	BYTE	W96
// 044   ----------------------------------------
	BYTE	W96
// 045   ----------------------------------------
	BYTE	W96
// 046   ----------------------------------------
	BYTE	W96
// 047   ----------------------------------------
	BYTE	W96
// 048   ----------------------------------------
	BYTE	W96
// 049   ----------------------------------------
	BYTE	W96
// 050   ----------------------------------------
	BYTE	W96
// 051   ----------------------------------------
	BYTE	W96
// 052   ----------------------------------------
	BYTE	W96
// 053   ----------------------------------------
	BYTE	W96
// 054   ----------------------------------------
	BYTE	W96
// 055   ----------------------------------------
	BYTE	W96
// 056   ----------------------------------------
	BYTE	W96
// 057   ----------------------------------------
	BYTE	W96
// 058   ----------------------------------------
	BYTE	W96
// 059   ----------------------------------------
	BYTE	W96
// 060   ----------------------------------------
	BYTE	W96
// 061   ----------------------------------------
	BYTE	W96
// 062   ----------------------------------------
	BYTE	W96
// 063   ----------------------------------------
	BYTE	W96
// 064   ----------------------------------------
	BYTE	W96
// 065   ----------------------------------------
	BYTE	W96
// 066   ----------------------------------------
	BYTE		N92     Ds5   v100
	BYTE	W96
// 067   ----------------------------------------
	BYTE		        Cs5 
	BYTE	W96
// 068   ----------------------------------------
	BYTE		N92   
	BYTE	W96
// 069   ----------------------------------------
	BYTE		        Bn4 
	BYTE	W96
// 070   ----------------------------------------
	BYTE		N92   
	BYTE	W96
// 071   ----------------------------------------
	BYTE		        As4 
	BYTE	W96
// 072   ----------------------------------------
	BYTE		N92   
	BYTE	W96
// 073   ----------------------------------------
	BYTE		        Cs5 
	BYTE	W96
// 074   ----------------------------------------
	BYTE		        Ds5 
	BYTE	W96
// 075   ----------------------------------------
	BYTE		        Fs5 
	BYTE	W96
// 076   ----------------------------------------
	BYTE		        Fn5 
	BYTE	W96
// 077   ----------------------------------------
	BYTE		        Gs5 
	BYTE	W96
// 078   ----------------------------------------
	BYTE		        As5 
	BYTE	W96
// 079   ----------------------------------------
	BYTE		        Gs5 
	BYTE	W96
// 080   ----------------------------------------
	BYTE		        As5 
	BYTE	W96
// 081   ----------------------------------------
	BYTE		        Cs6 
	BYTE	W96
// 082   ----------------------------------------
	BYTE		        As4 
	BYTE		N92     Ds5 
	BYTE	W96
// 083   ----------------------------------------
	BYTE		        Gs4 
	BYTE		N92     Cs5 
	BYTE	W96
// 084   ----------------------------------------
	BYTE		        As4 
	BYTE		N92     Ds5 
	BYTE	W96
// 085   ----------------------------------------
	BYTE		        Cn5 
	BYTE		N92     Fn5 
	BYTE	W96
// 086   ----------------------------------------
	BYTE		        Cs5 
	BYTE		N92     Fs5 
	BYTE	W96
// 087   ----------------------------------------
	BYTE		        Ds5 
	BYTE		N92     Fs5 
	BYTE	W96
// 088   ----------------------------------------
	BYTE		        Fn5 
	BYTE		N92     Gs5 
	BYTE	W96
// 089   ----------------------------------------
	BYTE		        Fn5 
	BYTE		N92     As5 
	BYTE	W96
// 090   ----------------------------------------
	BYTE		        Fn5 
	BYTE		N92     As5 
	BYTE	W96
// 091   ----------------------------------------
	BYTE		N23     Fn5 
	BYTE		N23     As5 
	BYTE	W24
	BYTE		        Ds5 
	BYTE		N23     Gs5 
	BYTE	W24
	BYTE		        Cs5 
	BYTE		N23     Fs5 
	BYTE	W24
	BYTE		        Cn5 
	BYTE		N23     Fn5 
	BYTE	W24
// 092   ----------------------------------------
revolution_4_092:
	BYTE		N23     As4   v100
	BYTE		N23     Ds5 
	BYTE	W24
	BYTE		        An4 
	BYTE		N23     Dn5 
	BYTE	W24
	BYTE		        As4 
	BYTE		N23     Ds5 
	BYTE	W24
	BYTE		N23   
	BYTE		N23     Gs5 
	BYTE	W24
	BYTE	PEND
// 093   ----------------------------------------
revolution_4_093:
	BYTE		N23     Cs5   v100
	BYTE		N23     Fs5 
	BYTE	W24
	BYTE		        Cn5 
	BYTE		N23     Fn5 
	BYTE	W24
	BYTE		        Cs5 
	BYTE		N23     Fs5 
	BYTE	W24
	BYTE		        Ds5 
	BYTE		N23     Gs5 
	BYTE	W24
	BYTE	PEND
// 094   ----------------------------------------
	BYTE		TIE     Cn5 
	BYTE		TIE     Fn5 
	BYTE	W96
// 095   ----------------------------------------
	BYTE	W23
	BYTE		EOT     Cn5 
	BYTE		        Fn5 
	BYTE	W01
	BYTE		N23     Cs5 
	BYTE		N23     Fs5 
	BYTE	W24
	BYTE		N05     Cn5 
	BYTE		N05     Fn5 
	BYTE	W06
	BYTE		        Cs5 
	BYTE		N05     Fs5 
	BYTE	W06
	BYTE		        Cn5 
	BYTE		N05     Fn5 
	BYTE	W06
	BYTE		        Cs5 
	BYTE		N05     Fs5 
	BYTE	W06
	BYTE		        Cn5 
	BYTE		N05     Fn5 
	BYTE	W06
	BYTE		        As4 
	BYTE		N05     Ds5 
	BYTE	W06
	BYTE		        Gs4 
	BYTE		N05     Cs5 
	BYTE	W06
	BYTE		        Fn4 
	BYTE		N05     As4 
	BYTE	W06
// 096   ----------------------------------------
	BYTE		        Ds4 
	BYTE		N05     Gs4 
	BYTE	W06
	BYTE		N05   
	BYTE		N05     Cs5 
	BYTE	W06
	BYTE		N11     As4 
	BYTE		N11     Ds5 
	BYTE	W12
	BYTE		N05     Gs4 
	BYTE		N05     Cs5 
	BYTE	W06
	BYTE		N11     As4 
	BYTE		N11     Ds5 
	BYTE	W12
	BYTE		N05     Gs4 
	BYTE		N05     Cs5 
	BYTE	W06
	BYTE		N68     As4 
	BYTE		N68     Ds5 
	BYTE	W48
// 097   ----------------------------------------
	BYTE	W24
	BYTE		N23     Cn5 
	BYTE		N23     Fn5 
	BYTE	W24
	BYTE		        Cs5 
	BYTE		N23     Fs5 
	BYTE	W24
	BYTE		        Ds5 
	BYTE		N23     Gs5 
	BYTE	W24
// 098   ----------------------------------------
	BYTE		N05     Cn5 
	BYTE		N05     Fn5 
	BYTE	W06
	BYTE		        Cs5 
	BYTE		N05     Fs5 
	BYTE	W06
	BYTE		N56     Cn5 
	BYTE		N56     Fn5 
	BYTE	W60
	BYTE		N23     Cs5 
	BYTE		N23     Fs5 
	BYTE	W24
// 099   ----------------------------------------
	BYTE		N11     Ds5 
	BYTE		N11     Gs5 
	BYTE	W12
	BYTE		        Fn5 
	BYTE		N11     As5 
	BYTE	W12
	BYTE		        Ds5 
	BYTE		N11     Gs5 
	BYTE	W12
	BYTE		        Cs5 
	BYTE		N11     Fs5 
	BYTE	W12
	BYTE		        Ds5 
	BYTE		N11     Gs5 
	BYTE	W12
	BYTE		        Fn5 
	BYTE		N11     As5 
	BYTE	W12
	BYTE		        Cs5 
	BYTE		N11     Fs5 
	BYTE	W12
	BYTE		        Cn5 
	BYTE		N11     Fn5 
	BYTE	W12
// 100   ----------------------------------------
	BYTE	PATT
	 POIN2	revolution_4_092
// 101   ----------------------------------------
	BYTE	PATT
	 POIN2	revolution_4_093
// 102   ----------------------------------------
	BYTE		N05     Cn5   v100
	BYTE		N05     Fn5 
	BYTE	W06
	BYTE		        Gs4 
	BYTE		N05     Cs5 
	BYTE	W06
	BYTE		N80     Fn4 
	BYTE		N80     As4 
	BYTE	W84
// 103   ----------------------------------------
	BYTE		N23     Ds4 
	BYTE		N23     Gs4 
	BYTE	W24
	BYTE		        Fn4 
	BYTE		N23     As4 
	BYTE	W24
	BYTE		        Gs4 
	BYTE		N23     Cs5 
	BYTE	W24
	BYTE		        Fn4 
	BYTE		N23     As4 
	BYTE	W24
// 104   ----------------------------------------
	BYTE		N44   
	BYTE		N44     Ds5 
	BYTE	W48
	BYTE		N23     Cn5 
	BYTE		N23     Fn5 
	BYTE	W24
	BYTE		        As4 
	BYTE		N23     Ds5 
	BYTE	W24
// 105   ----------------------------------------
	BYTE		        Cs5 
	BYTE		N23     Fs5 
	BYTE	W24
	BYTE		        Cn5 
	BYTE		N23     Fn5 
	BYTE	W24
	BYTE		        Ds5 
	BYTE		N23     Gs5 
	BYTE	W24
	BYTE		        Fn5 
	BYTE		N23     As5 
	BYTE	W24
// 106   ----------------------------------------
	BYTE		N92     Gs5 
	BYTE		N92     Cs6 
	BYTE	W96
// 107   ----------------------------------------
	BYTE		        An5 
	BYTE		N92     Dn6 
	BYTE	W96
// 108   ----------------------------------------
	BYTE		N11     As5 
	BYTE		N11     Ds6 
	BYTE	W96
// 109   ----------------------------------------
	BYTE	W96
// 110   ----------------------------------------
	BYTE	W96
// 111   ----------------------------------------
	BYTE	W96
// 112   ----------------------------------------
	BYTE	W96
// 113   ----------------------------------------
	BYTE	W96
// 114   ----------------------------------------
	BYTE	W96
// 115   ----------------------------------------
	BYTE	W96
// 116   ----------------------------------------
	BYTE	W96
// 117   ----------------------------------------
	BYTE	W96
// 118   ----------------------------------------
	BYTE	W96
// 119   ----------------------------------------
	BYTE	W96
// 120   ----------------------------------------
	BYTE	W96
// 121   ----------------------------------------
	BYTE	W96
// 122   ----------------------------------------
	BYTE	W96
// 123   ----------------------------------------
	BYTE	W96
// 124   ----------------------------------------
	BYTE	W96
// 125   ----------------------------------------
	BYTE	W96
// 126   ----------------------------------------
	BYTE	W96
// 127   ----------------------------------------
	BYTE	W96
// 128   ----------------------------------------
	BYTE	W96
// 129   ----------------------------------------
	BYTE	W96
// 130   ----------------------------------------
	BYTE	W96
// 131   ----------------------------------------
	BYTE	W96
// 132   ----------------------------------------
	BYTE	W96
// 133   ----------------------------------------
	BYTE	W96
// 134   ----------------------------------------
	BYTE	W96
// 135   ----------------------------------------
	BYTE	W96
// 136   ----------------------------------------
revolution_4_136:
	BYTE		N23     Fn5   v100
	BYTE	W24
	BYTE		        En5 
	BYTE	W24
	BYTE		        Fn5 
	BYTE	W24
	BYTE		        As5 
	BYTE	W24
	BYTE	PEND
// 137   ----------------------------------------
revolution_4_137:
	BYTE		N23     Gs5   v100
	BYTE	W24
	BYTE		        Gn5 
	BYTE	W24
	BYTE		        Gs5 
	BYTE	W24
	BYTE		        As5 
	BYTE	W24
	BYTE	PEND
// 138   ----------------------------------------
	BYTE		TIE     Gn5 
	BYTE	W96
// 139   ----------------------------------------
	BYTE	W23
	BYTE		EOT   
	BYTE	W01
	BYTE		N23     Gs5 
	BYTE	W24
	BYTE		N05     Gn5 
	BYTE	W06
	BYTE		        Gs5 
	BYTE	W06
	BYTE		        Gn5 
	BYTE	W06
	BYTE		        Gs5 
	BYTE	W06
	BYTE		        Gn5 
	BYTE	W06
	BYTE		        Fn5 
	BYTE	W06
	BYTE		        Ds5 
	BYTE	W06
	BYTE		        Cn5 
	BYTE	W06
// 140   ----------------------------------------
	BYTE		        As4 
	BYTE	W06
	BYTE		        Ds5 
	BYTE	W06
	BYTE		N11     Fn5 
	BYTE	W12
	BYTE		N05     Ds5 
	BYTE	W06
	BYTE		N11     Fn5 
	BYTE	W12
	BYTE		N05     Ds5 
	BYTE	W06
	BYTE		N68     Fn5 
	BYTE	W48
// 141   ----------------------------------------
	BYTE	W24
	BYTE		N23     Gn5 
	BYTE	W24
	BYTE		        Gs5 
	BYTE	W24
	BYTE		        As5 
	BYTE	W24
// 142   ----------------------------------------
	BYTE		N05     Gn5 
	BYTE	W06
	BYTE		        Gs5 
	BYTE	W06
	BYTE		N56     Gn5 
	BYTE	W60
	BYTE		N23     Gs5 
	BYTE	W24
// 143   ----------------------------------------
	BYTE		N11     As5 
	BYTE	W12
	BYTE		        Cn6 
	BYTE	W12
	BYTE		        As5 
	BYTE	W12
	BYTE		        Gs5 
	BYTE	W12
	BYTE		        As5 
	BYTE	W12
	BYTE		        Cn6 
	BYTE	W12
	BYTE		        Gs5 
	BYTE	W12
	BYTE		        Gn5 
	BYTE	W12
// 144   ----------------------------------------
	BYTE	PATT
	 POIN2	revolution_4_136
// 145   ----------------------------------------
	BYTE	PATT
	 POIN2	revolution_4_137
// 146   ----------------------------------------
	BYTE		N05     Gn5   v100
	BYTE	W06
	BYTE		        Ds5 
	BYTE	W06
	BYTE		N80     Cn5 
	BYTE	W84
// 147   ----------------------------------------
	BYTE		N23     As4 
	BYTE	W24
	BYTE		        Cn5 
	BYTE	W24
	BYTE		        Ds5 
	BYTE	W24
	BYTE		        Cn5 
	BYTE	W24
// 148   ----------------------------------------
	BYTE		N44     Fn5 
	BYTE	W48
	BYTE		N23     Gn5 
	BYTE	W24
	BYTE		        Fn5 
	BYTE	W24
// 149   ----------------------------------------
	BYTE		        Gs5 
	BYTE	W24
	BYTE		        Gn5 
	BYTE	W24
	BYTE		        As5 
	BYTE	W24
	BYTE		        Cn6 
	BYTE	W24
// 150   ----------------------------------------
	BYTE		N92     Ds6 
	BYTE	W96
// 151   ----------------------------------------
	BYTE		        En6 
	BYTE	W96
// 152   ----------------------------------------
	BYTE		N23     Cn5 
	BYTE		N23     Fn5 
	BYTE		N11     Fn6 
	BYTE	W24
	BYTE		N23     Bn4 
	BYTE		N23     En5 
	BYTE	W24
	BYTE		        Cn5 
	BYTE		N23     Fn5 
	BYTE	W24
	BYTE		N23   
	BYTE		N23     As5 
	BYTE	W24
// 153   ----------------------------------------
revolution_4_153:
	BYTE		N23     Ds5   v100
	BYTE		N23     Gs5 
	BYTE	W24
	BYTE		        Dn5 
	BYTE		N23     Gn5 
	BYTE	W24
	BYTE		        Ds5 
	BYTE		N23     Gs5 
	BYTE	W24
	BYTE		        Fn5 
	BYTE		N23     As5 
	BYTE	W24
	BYTE	PEND
// 154   ----------------------------------------
	BYTE		TIE     Dn5 
	BYTE		TIE     Gn5 
	BYTE	W96
// 155   ----------------------------------------
	BYTE	W23
	BYTE		EOT     Dn5 
	BYTE		        Gn5 
	BYTE	W01
	BYTE		N23     Ds5 
	BYTE		N23     Gs5 
	BYTE	W24
	BYTE		N05     Dn5 
	BYTE		N05     Gn5 
	BYTE	W06
	BYTE		        Ds5 
	BYTE		N05     Gs5 
	BYTE	W06
	BYTE		        Dn5 
	BYTE		N05     Gn5 
	BYTE	W06
	BYTE		        Ds5 
	BYTE		N05     Gs5 
	BYTE	W06
	BYTE		        Dn5 
	BYTE		N05     Gn5 
	BYTE	W06
	BYTE		        Cn5 
	BYTE		N05     Fn5 
	BYTE	W06
	BYTE		        As4 
	BYTE		N05     Ds5 
	BYTE	W06
	BYTE		        Gn4 
	BYTE		N05     Cn5 
	BYTE	W06
// 156   ----------------------------------------
	BYTE		        Fn4 
	BYTE		N05     As4 
	BYTE	W06
	BYTE		N05   
	BYTE		N05     Ds5 
	BYTE	W06
	BYTE		N11     Cn5 
	BYTE		N11     Fn5 
	BYTE	W12
	BYTE		N05     As4 
	BYTE		N05     Ds5 
	BYTE	W06
	BYTE		N11     Cn5 
	BYTE		N11     Fn5 
	BYTE	W12
	BYTE		N05     As4 
	BYTE		N05     Ds5 
	BYTE	W06
	BYTE		N68     Cn5 
	BYTE		N68     Fn5 
	BYTE	W48
// 157   ----------------------------------------
	BYTE	W24
	BYTE		N23     Dn5 
	BYTE		N23     Gn5 
	BYTE	W24
	BYTE		        Ds5 
	BYTE		N23     Gs5 
	BYTE	W24
	BYTE		        Fn5 
	BYTE		N23     As5 
	BYTE	W24
// 158   ----------------------------------------
	BYTE		N05     Dn5 
	BYTE		N05     Gn5 
	BYTE	W06
	BYTE		        Ds5 
	BYTE		N05     Gs5 
	BYTE	W06
	BYTE		N56     Dn5 
	BYTE		N56     Gn5 
	BYTE	W60
	BYTE		N23     Ds5 
	BYTE		N23     Gs5 
	BYTE	W24
// 159   ----------------------------------------
	BYTE		N11     Fn5 
	BYTE		N11     As5 
	BYTE	W12
	BYTE		        Gn5 
	BYTE		N11     Cn6 
	BYTE	W12
	BYTE		        Fn5 
	BYTE		N11     As5 
	BYTE	W12
	BYTE		        Ds5 
	BYTE		N11     Gs5 
	BYTE	W12
	BYTE		        Fn5 
	BYTE		N11     As5 
	BYTE	W12
	BYTE		        Gn5 
	BYTE		N11     Cn6 
	BYTE	W12
	BYTE		        Ds5 
	BYTE		N11     Gs5 
	BYTE	W12
	BYTE		        Dn5 
	BYTE		N11     Gn5 
	BYTE	W12
// 160   ----------------------------------------
	BYTE		N23     Cn5 
	BYTE		N23     Fn5 
	BYTE	W24
	BYTE		        Bn4 
	BYTE		N23     En5 
	BYTE	W24
	BYTE		        Cn5 
	BYTE		N23     Fn5 
	BYTE	W24
	BYTE		N23   
	BYTE		N23     As5 
	BYTE	W24
// 161   ----------------------------------------
	BYTE	PATT
	 POIN2	revolution_4_153
// 162   ----------------------------------------
	BYTE		N05     Dn5   v100
	BYTE		N05     Gn5 
	BYTE	W06
	BYTE		        As4 
	BYTE		N05     Ds5 
	BYTE	W06
	BYTE		N80     Gn4 
	BYTE		N80     Cn5 
	BYTE	W84
// 163   ----------------------------------------
	BYTE		N23     Fn4 
	BYTE		N23     As4 
	BYTE	W24
	BYTE		        Gn4 
	BYTE		N23     Cn5 
	BYTE	W24
	BYTE		        As4 
	BYTE		N23     Ds5 
	BYTE	W24
	BYTE		        Gn4 
	BYTE		N23     Cn5 
	BYTE	W24
// 164   ----------------------------------------
	BYTE		N44   
	BYTE		N44     Fn5 
	BYTE	W48
	BYTE		N23     Dn5 
	BYTE		N23     Gn5 
	BYTE	W24
	BYTE		        Cn5 
	BYTE		N23     Fn5 
	BYTE	W24
// 165   ----------------------------------------
	BYTE		        Ds5 
	BYTE		N23     Gs5 
	BYTE	W24
	BYTE		        Dn5 
	BYTE		N23     Gn5 
	BYTE	W24
	BYTE		        Fn5 
	BYTE		N23     As5 
	BYTE	W24
	BYTE		        Gn5 
	BYTE		N23     Cn6 
	BYTE	W24
// 166   ----------------------------------------
	BYTE		N92     As5 
	BYTE		N92     Ds6 
	BYTE	W96
// 167   ----------------------------------------
	BYTE		        Bn5 
	BYTE		N92     En6 
	BYTE	W96
// 168   ----------------------------------------
	BYTE		N11     Cn6 
	BYTE		N11     Fn6 
	BYTE	W96
// 169   ----------------------------------------
	BYTE	W96
// 170   ----------------------------------------
	BYTE	W96
// 171   ----------------------------------------
	BYTE	W96
// 172   ----------------------------------------
	BYTE	W96
// 173   ----------------------------------------
	BYTE	W96
// 174   ----------------------------------------
	BYTE	W96
// 175   ----------------------------------------
	BYTE	W96
// 176   ----------------------------------------
	BYTE	W96
// 177   ----------------------------------------
	BYTE	W96
// 178   ----------------------------------------
	BYTE	W96
// 179   ----------------------------------------
	BYTE	W96
// 180   ----------------------------------------
	BYTE	W96
// 181   ----------------------------------------
	BYTE	W96
// 182   ----------------------------------------
	BYTE	W96
// 183   ----------------------------------------
	BYTE	W96
// 184   ----------------------------------------
	BYTE	W96
// 185   ----------------------------------------
	BYTE	W96
// 186   ----------------------------------------
	BYTE	W96
// 187   ----------------------------------------
	BYTE	W96
// 188   ----------------------------------------
	BYTE	W96
// 189   ----------------------------------------
	BYTE	W96
// 190   ----------------------------------------
	BYTE	W96
// 191   ----------------------------------------
	BYTE	W96
	BYTE	GoTo
	 POIN2	revolution_4_B1
revolution_4_B2:
// 192   ----------------------------------------
	BYTE		PAN     c_v+0
	BYTE		        c_v+0
	BYTE		        c_v+0
	BYTE		BEND    c_v+0
	BYTE	FINE

//**************** Track 5 (Midi-Chn.5) ****************//

revolution_5:
	BYTE	KEYSH   revolution_key+0
// 000   ----------------------------------------
	BYTE		VOICE   40
	BYTE		VOL     45*revolution_mvl/mxv
	BYTE		PAN     c_v+0
	BYTE		        c_v+0
	BYTE		        c_v+0
	BYTE		        c_v+0
	BYTE		BEND    c_v+0
	BYTE	W96
// 001   ----------------------------------------
	BYTE	W96
// 002   ----------------------------------------
	BYTE	W96
// 003   ----------------------------------------
	BYTE	W96
// 004   ----------------------------------------
	BYTE	W96
// 005   ----------------------------------------
	BYTE	W96
// 006   ----------------------------------------
	BYTE	W96
// 007   ----------------------------------------
	BYTE	W96
// 008   ----------------------------------------
	BYTE	W96
// 009   ----------------------------------------
	BYTE	W96
// 010   ----------------------------------------
	BYTE	W96
// 011   ----------------------------------------
	BYTE	W96
// 012   ----------------------------------------
	BYTE	W96
// 013   ----------------------------------------
	BYTE	W96
// 014   ----------------------------------------
	BYTE	W96
// 015   ----------------------------------------
	BYTE	W96
revolution_5_B1:
// 016   ----------------------------------------
revolution_5_016:
	BYTE		N23     Ds3   v100
	BYTE	W24
	BYTE		        Dn3 
	BYTE	W24
	BYTE		        Ds3 
	BYTE	W24
	BYTE		        Gs3 
	BYTE	W24
	BYTE	PEND
// 017   ----------------------------------------
revolution_5_017:
	BYTE		N23     Fs3   v100
	BYTE	W24
	BYTE		        Fn3 
	BYTE	W24
	BYTE		        Fs3 
	BYTE	W24
	BYTE		        Gs3 
	BYTE	W24
	BYTE	PEND
// 018   ----------------------------------------
	BYTE		TIE     Fn3 
	BYTE	W96
// 019   ----------------------------------------
	BYTE	W23
	BYTE		EOT   
	BYTE	W01
	BYTE		N23     Fs3 
	BYTE	W24
	BYTE		N05     Fn3 
	BYTE	W06
	BYTE		        Fs3 
	BYTE	W06
	BYTE		        Fn3 
	BYTE	W06
	BYTE		        Fs3 
	BYTE	W06
	BYTE		        Fn3 
	BYTE	W06
	BYTE		        Ds3 
	BYTE	W06
	BYTE		        Cs3 
	BYTE	W06
	BYTE		        As2 
	BYTE	W06
// 020   ----------------------------------------
revolution_5_020:
	BYTE		N05     Gs2   v100
	BYTE	W06
	BYTE		        Cs3 
	BYTE	W06
	BYTE		N11     Ds3 
	BYTE	W12
	BYTE		N05     Cs3 
	BYTE	W06
	BYTE		N11     Ds3 
	BYTE	W12
	BYTE		N05     Cs3 
	BYTE	W06
	BYTE		N68     Ds3 
	BYTE	W48
	BYTE	PEND
// 021   ----------------------------------------
revolution_5_021:
	BYTE	W24
	BYTE		N23     Fn3   v100
	BYTE	W24
	BYTE		        Fs3 
	BYTE	W24
	BYTE		        Gs3 
	BYTE	W24
	BYTE	PEND
// 022   ----------------------------------------
revolution_5_022:
	BYTE		N05     Fn3   v100
	BYTE	W06
	BYTE		        Fs3 
	BYTE	W06
	BYTE		N56     Fn3 
	BYTE	W60
	BYTE		N23     Fs3 
	BYTE	W24
	BYTE	PEND
// 023   ----------------------------------------
revolution_5_023:
	BYTE		N11     Gs3   v100
	BYTE	W12
	BYTE		        As3 
	BYTE	W12
	BYTE		        Gs3 
	BYTE	W12
	BYTE		        Fs3 
	BYTE	W12
	BYTE		        Gs3 
	BYTE	W12
	BYTE		        As3 
	BYTE	W12
	BYTE		        Fs3 
	BYTE	W12
	BYTE		        Fn3 
	BYTE	W12
	BYTE	PEND
// 024   ----------------------------------------
	BYTE	PATT
	 POIN2	revolution_5_016
// 025   ----------------------------------------
	BYTE	PATT
	 POIN2	revolution_5_017
// 026   ----------------------------------------
revolution_5_026:
	BYTE		N05     Fn3   v100
	BYTE	W06
	BYTE		        Cs3 
	BYTE	W06
	BYTE		N80     As2 
	BYTE	W84
	BYTE	PEND
// 027   ----------------------------------------
revolution_5_027:
	BYTE		N23     Gs2   v100
	BYTE	W24
	BYTE		        As2 
	BYTE	W24
	BYTE		        Cs3 
	BYTE	W24
	BYTE		        As2 
	BYTE	W24
	BYTE	PEND
// 028   ----------------------------------------
revolution_5_028:
	BYTE		N44     Ds3   v100
	BYTE	W48
	BYTE		N23     Fn3 
	BYTE	W24
	BYTE		        Ds3 
	BYTE	W24
	BYTE	PEND
// 029   ----------------------------------------
revolution_5_029:
	BYTE		N23     Fs3   v100
	BYTE	W24
	BYTE		        Fn3 
	BYTE	W24
	BYTE		        Gs3 
	BYTE	W24
	BYTE		        As3 
	BYTE	W24
	BYTE	PEND
// 030   ----------------------------------------
	BYTE		N92     Cs4 
	BYTE	W96
// 031   ----------------------------------------
	BYTE		        Dn4 
	BYTE	W96
// 032   ----------------------------------------
	BYTE		N11     Ds4 
	BYTE	W96
// 033   ----------------------------------------
	BYTE	W96
// 034   ----------------------------------------
	BYTE	W96
// 035   ----------------------------------------
	BYTE	W96
// 036   ----------------------------------------
	BYTE	W96
// 037   ----------------------------------------
	BYTE	W96
// 038   ----------------------------------------
	BYTE	W96
// 039   ----------------------------------------
	BYTE	W96
// 040   ----------------------------------------
	BYTE		N05     As2 
	BYTE	W06
	BYTE		N11     Ds3 
	BYTE	W12
	BYTE		N05     As2 
	BYTE	W06
	BYTE		N11     Ds3 
	BYTE	W12
	BYTE		N05     As2 
	BYTE	W06
	BYTE		N76     Ds3 
	BYTE	W54
// 041   ----------------------------------------
	BYTE	W24
	BYTE		N05     Fs3 
	BYTE	W06
	BYTE		        Fn3 
	BYTE	W06
	BYTE		        Fs3 
	BYTE	W06
	BYTE		        Ds3 
	BYTE	W06
	BYTE		        Fn3 
	BYTE	W06
	BYTE		        Ds3 
	BYTE	W06
	BYTE		        Fn3 
	BYTE	W06
	BYTE		        Cs3 
	BYTE	W06
	BYTE		        Ds3 
	BYTE	W06
	BYTE		        Cs3 
	BYTE	W06
	BYTE		        Ds3 
	BYTE	W06
	BYTE		        As2 
	BYTE	W06
// 042   ----------------------------------------
	BYTE		N11     Cs3 
	BYTE	W12
	BYTE		        Ds3 
	BYTE	W12
	BYTE		N92     Fn3 
	BYTE	W72
// 043   ----------------------------------------
	BYTE	W24
	BYTE		N23     Fs3 
	BYTE	W24
	BYTE		        Gs3 
	BYTE	W24
	BYTE		        As3 
	BYTE	W24
// 044   ----------------------------------------
	BYTE		        Gs3 
	BYTE	W24
	BYTE		N11     Fs3 
	BYTE	W12
	BYTE		        Fn3 
	BYTE	W12
	BYTE		N23     Fs3 
	BYTE	W24
	BYTE		N11     Fn3 
	BYTE	W12
	BYTE		        Ds3 
	BYTE	W12
// 045   ----------------------------------------
	BYTE		N05     Fn3 
	BYTE	W06
	BYTE		        Fs3 
	BYTE	W06
	BYTE		        Fn3 
	BYTE	W06
	BYTE		        Fs3 
	BYTE	W06
	BYTE		        Fn3 
	BYTE	W06
	BYTE		        Ds3 
	BYTE	W06
	BYTE		        Cs3 
	BYTE	W06
	BYTE		        As2 
	BYTE	W06
	BYTE		        Fn3 
	BYTE	W06
	BYTE		        Fs3 
	BYTE	W06
	BYTE		        Fn3 
	BYTE	W06
	BYTE		        Fs3 
	BYTE	W06
	BYTE		        Gs3 
	BYTE	W06
	BYTE		        As3 
	BYTE	W06
	BYTE		        Cs4 
	BYTE	W06
	BYTE		        Bn3 
	BYTE	W06
// 046   ----------------------------------------
	BYTE		N44     As3 
	BYTE	W48
	BYTE		N11   
	BYTE	W12
	BYTE		        Gs3 
	BYTE	W12
	BYTE		N05     As3 
	BYTE	W06
	BYTE		        Bn3 
	BYTE	W06
	BYTE		        As3 
	BYTE	W06
	BYTE		        Bn3 
	BYTE	W06
// 047   ----------------------------------------
	BYTE		        As3 
	BYTE	W06
	BYTE		        Gs3 
	BYTE	W06
	BYTE		        Fs3 
	BYTE	W06
	BYTE		        Fn3 
	BYTE	W06
	BYTE		        Ds3 
	BYTE	W06
	BYTE		        Cs3 
	BYTE	W06
	BYTE		        Bn2 
	BYTE	W06
	BYTE		        As2 
	BYTE	W06
	BYTE		        Bn2 
	BYTE	W06
	BYTE		        Cs3 
	BYTE	W06
	BYTE		        Bn2 
	BYTE	W06
	BYTE		        Cs3 
	BYTE	W06
	BYTE		        Ds3 
	BYTE	W06
	BYTE		        Cs3 
	BYTE	W06
	BYTE		        Ds3 
	BYTE	W06
	BYTE		        Fn3 
	BYTE	W06
// 048   ----------------------------------------
	BYTE	PATT
	 POIN2	revolution_5_016
// 049   ----------------------------------------
	BYTE	PATT
	 POIN2	revolution_5_017
// 050   ----------------------------------------
	BYTE		TIE     Fn3   v100
	BYTE	W96
// 051   ----------------------------------------
	BYTE	W23
	BYTE		EOT   
	BYTE	W01
	BYTE		N23     Fs3 
	BYTE	W24
	BYTE		N05     Fn3 
	BYTE	W06
	BYTE		        Fs3 
	BYTE	W06
	BYTE		        Fn3 
	BYTE	W06
	BYTE		        Fs3 
	BYTE	W06
	BYTE		        Fn3 
	BYTE	W06
	BYTE		        Ds3 
	BYTE	W06
	BYTE		        Cs3 
	BYTE	W06
	BYTE		        As2 
	BYTE	W06
// 052   ----------------------------------------
	BYTE	PATT
	 POIN2	revolution_5_020
// 053   ----------------------------------------
	BYTE	PATT
	 POIN2	revolution_5_021
// 054   ----------------------------------------
	BYTE	PATT
	 POIN2	revolution_5_022
// 055   ----------------------------------------
	BYTE	PATT
	 POIN2	revolution_5_023
// 056   ----------------------------------------
	BYTE	PATT
	 POIN2	revolution_5_016
// 057   ----------------------------------------
	BYTE	PATT
	 POIN2	revolution_5_017
// 058   ----------------------------------------
	BYTE	PATT
	 POIN2	revolution_5_026
// 059   ----------------------------------------
	BYTE	PATT
	 POIN2	revolution_5_027
// 060   ----------------------------------------
	BYTE	PATT
	 POIN2	revolution_5_028
// 061   ----------------------------------------
	BYTE	PATT
	 POIN2	revolution_5_029
// 062   ----------------------------------------
	BYTE		N92     Cs4   v100
	BYTE	W96
// 063   ----------------------------------------
	BYTE		        Dn4 
	BYTE	W96
// 064   ----------------------------------------
	BYTE		N11     Ds4 
	BYTE	W96
// 065   ----------------------------------------
	BYTE	W96
// 066   ----------------------------------------
	BYTE	W96
// 067   ----------------------------------------
	BYTE	W96
// 068   ----------------------------------------
	BYTE	W96
// 069   ----------------------------------------
	BYTE	W96
// 070   ----------------------------------------
	BYTE	W96
// 071   ----------------------------------------
	BYTE	W96
// 072   ----------------------------------------
	BYTE	W96
// 073   ----------------------------------------
	BYTE	W96
// 074   ----------------------------------------
	BYTE	W96
// 075   ----------------------------------------
	BYTE	W96
// 076   ----------------------------------------
	BYTE	W96
// 077   ----------------------------------------
	BYTE	W96
// 078   ----------------------------------------
	BYTE	W96
// 079   ----------------------------------------
	BYTE	W96
// 080   ----------------------------------------
	BYTE	W96
// 081   ----------------------------------------
	BYTE	W96
// 082   ----------------------------------------
	BYTE	W96
// 083   ----------------------------------------
	BYTE	W96
// 084   ----------------------------------------
	BYTE	W96
// 085   ----------------------------------------
	BYTE	W96
// 086   ----------------------------------------
	BYTE	W96
// 087   ----------------------------------------
	BYTE	W96
// 088   ----------------------------------------
	BYTE	W96
// 089   ----------------------------------------
	BYTE	W96
// 090   ----------------------------------------
	BYTE	W96
// 091   ----------------------------------------
	BYTE	W96
// 092   ----------------------------------------
	BYTE	W96
// 093   ----------------------------------------
	BYTE	W96
// 094   ----------------------------------------
	BYTE	W96
// 095   ----------------------------------------
	BYTE	W96
// 096   ----------------------------------------
	BYTE	W96
// 097   ----------------------------------------
	BYTE	W96
// 098   ----------------------------------------
	BYTE	W96
// 099   ----------------------------------------
	BYTE	W96
// 100   ----------------------------------------
	BYTE	W96
// 101   ----------------------------------------
	BYTE	W96
// 102   ----------------------------------------
	BYTE	W96
// 103   ----------------------------------------
	BYTE	W96
// 104   ----------------------------------------
	BYTE	W96
// 105   ----------------------------------------
	BYTE	W96
// 106   ----------------------------------------
	BYTE	W96
// 107   ----------------------------------------
	BYTE	W96
// 108   ----------------------------------------
	BYTE	W96
// 109   ----------------------------------------
	BYTE	W96
// 110   ----------------------------------------
	BYTE	W96
// 111   ----------------------------------------
	BYTE	W96
// 112   ----------------------------------------
	BYTE	W96
// 113   ----------------------------------------
	BYTE	W96
// 114   ----------------------------------------
	BYTE	W96
// 115   ----------------------------------------
	BYTE	W96
// 116   ----------------------------------------
	BYTE	W96
// 117   ----------------------------------------
	BYTE	W96
// 118   ----------------------------------------
	BYTE	W96
// 119   ----------------------------------------
	BYTE	W96
// 120   ----------------------------------------
	BYTE	W96
// 121   ----------------------------------------
	BYTE	W96
// 122   ----------------------------------------
	BYTE	W96
// 123   ----------------------------------------
	BYTE	W96
// 124   ----------------------------------------
	BYTE	W96
// 125   ----------------------------------------
	BYTE	W96
// 126   ----------------------------------------
	BYTE	W96
// 127   ----------------------------------------
	BYTE	W96
// 128   ----------------------------------------
	BYTE	W96
// 129   ----------------------------------------
	BYTE	W96
// 130   ----------------------------------------
	BYTE	W96
// 131   ----------------------------------------
	BYTE	W96
// 132   ----------------------------------------
	BYTE	W96
// 133   ----------------------------------------
	BYTE	W96
// 134   ----------------------------------------
	BYTE	W96
// 135   ----------------------------------------
	BYTE	W96
// 136   ----------------------------------------
revolution_5_136:
	BYTE		N23     Fn3   v100
	BYTE	W24
	BYTE		        En3 
	BYTE	W24
	BYTE		        Fn3 
	BYTE	W24
	BYTE		        As3 
	BYTE	W24
	BYTE	PEND
// 137   ----------------------------------------
revolution_5_137:
	BYTE		N23     Gs3   v100
	BYTE	W24
	BYTE		        Gn3 
	BYTE	W24
	BYTE		        Gs3 
	BYTE	W24
	BYTE		        As3 
	BYTE	W24
	BYTE	PEND
// 138   ----------------------------------------
	BYTE		TIE     Gn3 
	BYTE	W96
// 139   ----------------------------------------
	BYTE	W23
	BYTE		EOT   
	BYTE	W01
	BYTE		N23     Gs3 
	BYTE	W24
	BYTE		N05     Gn3 
	BYTE	W06
	BYTE		        Gs3 
	BYTE	W06
	BYTE		        Gn3 
	BYTE	W06
	BYTE		        Gs3 
	BYTE	W06
	BYTE		        Gn3 
	BYTE	W06
	BYTE		        Fn3 
	BYTE	W06
	BYTE		        Ds3 
	BYTE	W06
	BYTE		        Cn3 
	BYTE	W06
// 140   ----------------------------------------
revolution_5_140:
	BYTE		N05     As2   v100
	BYTE	W06
	BYTE		        Ds3 
	BYTE	W06
	BYTE		N11     Fn3 
	BYTE	W12
	BYTE		N05     Ds3 
	BYTE	W06
	BYTE		N11     Fn3 
	BYTE	W12
	BYTE		N05     Ds3 
	BYTE	W06
	BYTE		N68     Fn3 
	BYTE	W48
	BYTE	PEND
// 141   ----------------------------------------
revolution_5_141:
	BYTE	W24
	BYTE		N23     Gn3   v100
	BYTE	W24
	BYTE		        Gs3 
	BYTE	W24
	BYTE		        As3 
	BYTE	W24
	BYTE	PEND
// 142   ----------------------------------------
revolution_5_142:
	BYTE		N05     Gn3   v100
	BYTE	W06
	BYTE		        Gs3 
	BYTE	W06
	BYTE		N56     Gn3 
	BYTE	W60
	BYTE		N23     Gs3 
	BYTE	W24
	BYTE	PEND
// 143   ----------------------------------------
revolution_5_143:
	BYTE		N11     As3   v100
	BYTE	W12
	BYTE		        Cn4 
	BYTE	W12
	BYTE		        As3 
	BYTE	W12
	BYTE		        Gs3 
	BYTE	W12
	BYTE		        As3 
	BYTE	W12
	BYTE		        Cn4 
	BYTE	W12
	BYTE		        Gs3 
	BYTE	W12
	BYTE		        Gn3 
	BYTE	W12
	BYTE	PEND
// 144   ----------------------------------------
	BYTE	PATT
	 POIN2	revolution_5_136
// 145   ----------------------------------------
	BYTE	PATT
	 POIN2	revolution_5_137
// 146   ----------------------------------------
revolution_5_146:
	BYTE		N05     Gn3   v100
	BYTE	W06
	BYTE		        Ds3 
	BYTE	W06
	BYTE		N80     Cn3 
	BYTE	W84
	BYTE	PEND
// 147   ----------------------------------------
revolution_5_147:
	BYTE		N23     As2   v100
	BYTE	W24
	BYTE		        Cn3 
	BYTE	W24
	BYTE		        Ds3 
	BYTE	W24
	BYTE		        Cn3 
	BYTE	W24
	BYTE	PEND
// 148   ----------------------------------------
revolution_5_148:
	BYTE		N44     Fn3   v100
	BYTE	W48
	BYTE		N23     Gn3 
	BYTE	W24
	BYTE		        Fn3 
	BYTE	W24
	BYTE	PEND
// 149   ----------------------------------------
revolution_5_149:
	BYTE		N23     Gs3   v100
	BYTE	W24
	BYTE		        Gn3 
	BYTE	W24
	BYTE		        As3 
	BYTE	W24
	BYTE		        Cn4 
	BYTE	W24
	BYTE	PEND
// 150   ----------------------------------------
	BYTE		N92     Ds4 
	BYTE	W96
// 151   ----------------------------------------
	BYTE		        En4 
	BYTE	W96
// 152   ----------------------------------------
revolution_5_152:
	BYTE		N23     Fn3   v100
	BYTE		N11     Fn4 
	BYTE	W24
	BYTE		N23     En3 
	BYTE	W24
	BYTE		        Fn3 
	BYTE	W24
	BYTE		        As3 
	BYTE	W24
	BYTE	PEND
// 153   ----------------------------------------
	BYTE	PATT
	 POIN2	revolution_5_137
// 154   ----------------------------------------
	BYTE		TIE     Gn3   v100
	BYTE	W96
// 155   ----------------------------------------
	BYTE	W23
	BYTE		EOT   
	BYTE	W01
	BYTE		N23     Gs3 
	BYTE	W24
	BYTE		N05     Gn3 
	BYTE	W06
	BYTE		        Gs3 
	BYTE	W06
	BYTE		        Gn3 
	BYTE	W06
	BYTE		        Gs3 
	BYTE	W06
	BYTE		        Gn3 
	BYTE	W06
	BYTE		        Fn3 
	BYTE	W06
	BYTE		        Ds3 
	BYTE	W06
	BYTE		        Cn3 
	BYTE	W06
// 156   ----------------------------------------
	BYTE	PATT
	 POIN2	revolution_5_140
// 157   ----------------------------------------
	BYTE	PATT
	 POIN2	revolution_5_141
// 158   ----------------------------------------
	BYTE	PATT
	 POIN2	revolution_5_142
// 159   ----------------------------------------
	BYTE	PATT
	 POIN2	revolution_5_143
// 160   ----------------------------------------
	BYTE	PATT
	 POIN2	revolution_5_136
// 161   ----------------------------------------
	BYTE	PATT
	 POIN2	revolution_5_137
// 162   ----------------------------------------
	BYTE	PATT
	 POIN2	revolution_5_146
// 163   ----------------------------------------
	BYTE	PATT
	 POIN2	revolution_5_147
// 164   ----------------------------------------
	BYTE	PATT
	 POIN2	revolution_5_148
// 165   ----------------------------------------
	BYTE	PATT
	 POIN2	revolution_5_149
// 166   ----------------------------------------
	BYTE		N92     Ds4   v100
	BYTE	W96
// 167   ----------------------------------------
	BYTE		        En4 
	BYTE	W96
// 168   ----------------------------------------
	BYTE		N11     Fn4 
	BYTE	W96
// 169   ----------------------------------------
	BYTE	W96
// 170   ----------------------------------------
	BYTE	W96
// 171   ----------------------------------------
	BYTE	W96
// 172   ----------------------------------------
	BYTE	W96
// 173   ----------------------------------------
	BYTE	W96
// 174   ----------------------------------------
	BYTE	W96
// 175   ----------------------------------------
	BYTE	W96
// 176   ----------------------------------------
	BYTE	PATT
	 POIN2	revolution_5_136
// 177   ----------------------------------------
	BYTE	PATT
	 POIN2	revolution_5_137
// 178   ----------------------------------------
	BYTE	PATT
	 POIN2	revolution_5_146
// 179   ----------------------------------------
	BYTE	PATT
	 POIN2	revolution_5_147
// 180   ----------------------------------------
	BYTE	PATT
	 POIN2	revolution_5_148
// 181   ----------------------------------------
	BYTE	PATT
	 POIN2	revolution_5_149
// 182   ----------------------------------------
	BYTE		N92     Ds4   v100
	BYTE	W96
// 183   ----------------------------------------
	BYTE		        En4 
	BYTE	W96
// 184   ----------------------------------------
	BYTE	PATT
	 POIN2	revolution_5_152
// 185   ----------------------------------------
	BYTE	PATT
	 POIN2	revolution_5_137
// 186   ----------------------------------------
	BYTE	PATT
	 POIN2	revolution_5_146
// 187   ----------------------------------------
	BYTE	PATT
	 POIN2	revolution_5_147
// 188   ----------------------------------------
	BYTE	PATT
	 POIN2	revolution_5_148
// 189   ----------------------------------------
	BYTE	PATT
	 POIN2	revolution_5_149
// 190   ----------------------------------------
	BYTE		N92     Ds4   v100
	BYTE	W96
// 191   ----------------------------------------
	BYTE		        En4 
	BYTE	W96
	BYTE	GoTo
	 POIN2	revolution_5_B1
revolution_5_B2:
// 192   ----------------------------------------
	BYTE		PAN     c_v+0
	BYTE		        c_v+0
	BYTE		        c_v+0
	BYTE		BEND    c_v+0
	BYTE	FINE

//**************** Track 6 (Midi-Chn.6) ****************//

revolution_6:
	BYTE	KEYSH   revolution_key+0
// 000   ----------------------------------------
	BYTE		VOICE   50
	BYTE		VOL     51*revolution_mvl/mxv
	BYTE		PAN     c_v+0
	BYTE		        c_v+0
	BYTE		        c_v+0
	BYTE		        c_v+0
	BYTE		BEND    c_v+0
	BYTE	W96
// 001   ----------------------------------------
	BYTE	W96
// 002   ----------------------------------------
	BYTE	W96
// 003   ----------------------------------------
	BYTE	W96
// 004   ----------------------------------------
	BYTE	W96
// 005   ----------------------------------------
	BYTE	W96
// 006   ----------------------------------------
	BYTE	W96
// 007   ----------------------------------------
	BYTE	W96
// 008   ----------------------------------------
	BYTE	W96
// 009   ----------------------------------------
	BYTE	W96
// 010   ----------------------------------------
	BYTE	W96
// 011   ----------------------------------------
	BYTE	W96
// 012   ----------------------------------------
	BYTE	W96
// 013   ----------------------------------------
	BYTE	W96
// 014   ----------------------------------------
	BYTE	W96
// 015   ----------------------------------------
	BYTE	W96
revolution_6_B1:
// 016   ----------------------------------------
revolution_6_016:
	BYTE		N23     Ds3   v100
	BYTE	W24
	BYTE		        Dn3 
	BYTE	W24
	BYTE		        Ds3 
	BYTE	W24
	BYTE		        Gs3 
	BYTE	W24
	BYTE	PEND
// 017   ----------------------------------------
revolution_6_017:
	BYTE		N23     Fs3   v100
	BYTE	W24
	BYTE		        Fn3 
	BYTE	W24
	BYTE		        Fs3 
	BYTE	W24
	BYTE		        Gs3 
	BYTE	W24
	BYTE	PEND
// 018   ----------------------------------------
	BYTE		TIE     Fn3 
	BYTE	W96
// 019   ----------------------------------------
	BYTE	W23
	BYTE		EOT   
	BYTE	W01
	BYTE		N23     Fs3 
	BYTE	W24
	BYTE		N05     Fn3 
	BYTE	W06
	BYTE		        Fs3 
	BYTE	W06
	BYTE		        Fn3 
	BYTE	W06
	BYTE		        Fs3 
	BYTE	W06
	BYTE		        Fn3 
	BYTE	W06
	BYTE		        Ds3 
	BYTE	W06
	BYTE		        Cs3 
	BYTE	W06
	BYTE		        As2 
	BYTE	W06
// 020   ----------------------------------------
revolution_6_020:
	BYTE		N05     Gs2   v100
	BYTE	W06
	BYTE		        Cs3 
	BYTE	W06
	BYTE		N11     Ds3 
	BYTE	W12
	BYTE		N05     Cs3 
	BYTE	W06
	BYTE		N11     Ds3 
	BYTE	W12
	BYTE		N05     Cs3 
	BYTE	W06
	BYTE		N68     Ds3 
	BYTE	W48
	BYTE	PEND
// 021   ----------------------------------------
revolution_6_021:
	BYTE	W24
	BYTE		N23     Fn3   v100
	BYTE	W24
	BYTE		        Fs3 
	BYTE	W24
	BYTE		        Gs3 
	BYTE	W24
	BYTE	PEND
// 022   ----------------------------------------
revolution_6_022:
	BYTE		N05     Fn3   v100
	BYTE	W06
	BYTE		        Fs3 
	BYTE	W06
	BYTE		N56     Fn3 
	BYTE	W60
	BYTE		N23     Fs3 
	BYTE	W24
	BYTE	PEND
// 023   ----------------------------------------
revolution_6_023:
	BYTE		N11     Gs3   v100
	BYTE	W12
	BYTE		        As3 
	BYTE	W12
	BYTE		        Gs3 
	BYTE	W12
	BYTE		        Fs3 
	BYTE	W12
	BYTE		        Gs3 
	BYTE	W12
	BYTE		        As3 
	BYTE	W12
	BYTE		        Fs3 
	BYTE	W12
	BYTE		        Fn3 
	BYTE	W12
	BYTE	PEND
// 024   ----------------------------------------
	BYTE	PATT
	 POIN2	revolution_6_016
// 025   ----------------------------------------
	BYTE	PATT
	 POIN2	revolution_6_017
// 026   ----------------------------------------
revolution_6_026:
	BYTE		N05     Fn3   v100
	BYTE	W06
	BYTE		        Cs3 
	BYTE	W06
	BYTE		N80     As2 
	BYTE	W84
	BYTE	PEND
// 027   ----------------------------------------
revolution_6_027:
	BYTE		N23     Gs2   v100
	BYTE	W24
	BYTE		        As2 
	BYTE	W24
	BYTE		        Cs3 
	BYTE	W24
	BYTE		        As2 
	BYTE	W24
	BYTE	PEND
// 028   ----------------------------------------
revolution_6_028:
	BYTE		N44     Ds3   v100
	BYTE	W48
	BYTE		N23     Fn3 
	BYTE	W24
	BYTE		        Ds3 
	BYTE	W24
	BYTE	PEND
// 029   ----------------------------------------
revolution_6_029:
	BYTE		N23     Fs3   v100
	BYTE	W24
	BYTE		        Fn3 
	BYTE	W24
	BYTE		        Gs3 
	BYTE	W24
	BYTE		        As3 
	BYTE	W24
	BYTE	PEND
// 030   ----------------------------------------
	BYTE		N92     Cs4 
	BYTE	W96
// 031   ----------------------------------------
	BYTE		        Dn4 
	BYTE	W96
// 032   ----------------------------------------
	BYTE		N11     Ds4 
	BYTE	W96
// 033   ----------------------------------------
	BYTE	W96
// 034   ----------------------------------------
	BYTE	W96
// 035   ----------------------------------------
	BYTE	W96
// 036   ----------------------------------------
	BYTE	W96
// 037   ----------------------------------------
	BYTE	W96
// 038   ----------------------------------------
	BYTE	W96
// 039   ----------------------------------------
	BYTE	W96
// 040   ----------------------------------------
	BYTE		N05     As2 
	BYTE	W06
	BYTE		N11     Ds3 
	BYTE	W12
	BYTE		N05     As2 
	BYTE	W06
	BYTE		N11     Ds3 
	BYTE	W12
	BYTE		N05     As2 
	BYTE	W06
	BYTE		N76     Ds3 
	BYTE	W54
// 041   ----------------------------------------
	BYTE	W24
	BYTE		N05     Fs3 
	BYTE	W06
	BYTE		        Fn3 
	BYTE	W06
	BYTE		        Fs3 
	BYTE	W06
	BYTE		        Ds3 
	BYTE	W06
	BYTE		        Fn3 
	BYTE	W06
	BYTE		        Ds3 
	BYTE	W06
	BYTE		        Fn3 
	BYTE	W06
	BYTE		        Cs3 
	BYTE	W06
	BYTE		        Ds3 
	BYTE	W06
	BYTE		        Cs3 
	BYTE	W06
	BYTE		        Ds3 
	BYTE	W06
	BYTE		        As2 
	BYTE	W06
// 042   ----------------------------------------
	BYTE		N11     Cs3 
	BYTE	W12
	BYTE		        Ds3 
	BYTE	W12
	BYTE		N92     Fn3 
	BYTE	W72
// 043   ----------------------------------------
	BYTE	W24
	BYTE		N23     Fs3 
	BYTE	W24
	BYTE		        Gs3 
	BYTE	W24
	BYTE		        As3 
	BYTE	W24
// 044   ----------------------------------------
	BYTE		        Gs3 
	BYTE	W24
	BYTE		N11     Fs3 
	BYTE	W12
	BYTE		        Fn3 
	BYTE	W12
	BYTE		N23     Fs3 
	BYTE	W24
	BYTE		N11     Fn3 
	BYTE	W12
	BYTE		        Ds3 
	BYTE	W12
// 045   ----------------------------------------
	BYTE		N05     Fn3 
	BYTE	W06
	BYTE		        Fs3 
	BYTE	W06
	BYTE		        Fn3 
	BYTE	W06
	BYTE		        Fs3 
	BYTE	W06
	BYTE		        Fn3 
	BYTE	W06
	BYTE		        Ds3 
	BYTE	W06
	BYTE		        Cs3 
	BYTE	W06
	BYTE		        As2 
	BYTE	W06
	BYTE		        Fn3 
	BYTE	W06
	BYTE		        Fs3 
	BYTE	W06
	BYTE		        Fn3 
	BYTE	W06
	BYTE		        Fs3 
	BYTE	W06
	BYTE		        Gs3 
	BYTE	W06
	BYTE		        As3 
	BYTE	W06
	BYTE		        Cs4 
	BYTE	W06
	BYTE		        Bn3 
	BYTE	W06
// 046   ----------------------------------------
	BYTE		N44     As3 
	BYTE	W48
	BYTE		N11   
	BYTE	W12
	BYTE		        Gs3 
	BYTE	W12
	BYTE		N05     As3 
	BYTE	W06
	BYTE		        Bn3 
	BYTE	W06
	BYTE		        As3 
	BYTE	W06
	BYTE		        Bn3 
	BYTE	W06
// 047   ----------------------------------------
	BYTE		        As3 
	BYTE	W06
	BYTE		        Gs3 
	BYTE	W06
	BYTE		        Fs3 
	BYTE	W06
	BYTE		        Fn3 
	BYTE	W06
	BYTE		        Ds3 
	BYTE	W06
	BYTE		        Cs3 
	BYTE	W06
	BYTE		        Bn2 
	BYTE	W06
	BYTE		        As2 
	BYTE	W06
	BYTE		        Bn2 
	BYTE	W06
	BYTE		        Cs3 
	BYTE	W06
	BYTE		        Bn2 
	BYTE	W06
	BYTE		        Cs3 
	BYTE	W06
	BYTE		        Ds3 
	BYTE	W06
	BYTE		        Cs3 
	BYTE	W06
	BYTE		        Ds3 
	BYTE	W06
	BYTE		        Fn3 
	BYTE	W06
// 048   ----------------------------------------
	BYTE	PATT
	 POIN2	revolution_6_016
// 049   ----------------------------------------
	BYTE	PATT
	 POIN2	revolution_6_017
// 050   ----------------------------------------
	BYTE		TIE     Fn3   v100
	BYTE	W96
// 051   ----------------------------------------
	BYTE	W23
	BYTE		EOT   
	BYTE	W01
	BYTE		N23     Fs3 
	BYTE	W24
	BYTE		N05     Fn3 
	BYTE	W06
	BYTE		        Fs3 
	BYTE	W06
	BYTE		        Fn3 
	BYTE	W06
	BYTE		        Fs3 
	BYTE	W06
	BYTE		        Fn3 
	BYTE	W06
	BYTE		        Ds3 
	BYTE	W06
	BYTE		        Cs3 
	BYTE	W06
	BYTE		        As2 
	BYTE	W06
// 052   ----------------------------------------
	BYTE	PATT
	 POIN2	revolution_6_020
// 053   ----------------------------------------
	BYTE	PATT
	 POIN2	revolution_6_021
// 054   ----------------------------------------
	BYTE	PATT
	 POIN2	revolution_6_022
// 055   ----------------------------------------
	BYTE	PATT
	 POIN2	revolution_6_023
// 056   ----------------------------------------
	BYTE	PATT
	 POIN2	revolution_6_016
// 057   ----------------------------------------
	BYTE	PATT
	 POIN2	revolution_6_017
// 058   ----------------------------------------
	BYTE	PATT
	 POIN2	revolution_6_026
// 059   ----------------------------------------
	BYTE	PATT
	 POIN2	revolution_6_027
// 060   ----------------------------------------
	BYTE	PATT
	 POIN2	revolution_6_028
// 061   ----------------------------------------
	BYTE	PATT
	 POIN2	revolution_6_029
// 062   ----------------------------------------
	BYTE		N92     Cs4   v100
	BYTE	W96
// 063   ----------------------------------------
	BYTE		        Dn4 
	BYTE	W96
// 064   ----------------------------------------
	BYTE		N11     Ds4 
	BYTE	W96
// 065   ----------------------------------------
	BYTE	W96
// 066   ----------------------------------------
	BYTE	W96
// 067   ----------------------------------------
	BYTE	W96
// 068   ----------------------------------------
	BYTE	W96
// 069   ----------------------------------------
	BYTE	W96
// 070   ----------------------------------------
	BYTE	W96
// 071   ----------------------------------------
	BYTE	W96
// 072   ----------------------------------------
	BYTE	W96
// 073   ----------------------------------------
	BYTE	W96
// 074   ----------------------------------------
	BYTE	W96
// 075   ----------------------------------------
	BYTE	W96
// 076   ----------------------------------------
	BYTE	W96
// 077   ----------------------------------------
	BYTE	W96
// 078   ----------------------------------------
	BYTE	W96
// 079   ----------------------------------------
	BYTE	W96
// 080   ----------------------------------------
	BYTE	W96
// 081   ----------------------------------------
	BYTE	W96
// 082   ----------------------------------------
	BYTE	W96
// 083   ----------------------------------------
	BYTE	W96
// 084   ----------------------------------------
	BYTE	W96
// 085   ----------------------------------------
	BYTE	W96
// 086   ----------------------------------------
	BYTE	W96
// 087   ----------------------------------------
	BYTE	W96
// 088   ----------------------------------------
	BYTE	W96
// 089   ----------------------------------------
	BYTE	W96
// 090   ----------------------------------------
	BYTE	W96
// 091   ----------------------------------------
	BYTE	W96
// 092   ----------------------------------------
	BYTE	W96
// 093   ----------------------------------------
	BYTE	W96
// 094   ----------------------------------------
	BYTE	W96
// 095   ----------------------------------------
	BYTE	W96
// 096   ----------------------------------------
	BYTE	W96
// 097   ----------------------------------------
	BYTE	W96
// 098   ----------------------------------------
	BYTE	W96
// 099   ----------------------------------------
	BYTE	W96
// 100   ----------------------------------------
	BYTE	W96
// 101   ----------------------------------------
	BYTE	W96
// 102   ----------------------------------------
	BYTE	W96
// 103   ----------------------------------------
	BYTE	W96
// 104   ----------------------------------------
	BYTE	W96
// 105   ----------------------------------------
	BYTE	W96
// 106   ----------------------------------------
	BYTE	W96
// 107   ----------------------------------------
	BYTE	W96
// 108   ----------------------------------------
	BYTE	W96
// 109   ----------------------------------------
	BYTE	W96
// 110   ----------------------------------------
	BYTE	W96
// 111   ----------------------------------------
	BYTE	W96
// 112   ----------------------------------------
	BYTE	W96
// 113   ----------------------------------------
	BYTE	W96
// 114   ----------------------------------------
	BYTE	W96
// 115   ----------------------------------------
	BYTE	W96
// 116   ----------------------------------------
	BYTE	W96
// 117   ----------------------------------------
	BYTE	W96
// 118   ----------------------------------------
	BYTE	W96
// 119   ----------------------------------------
	BYTE	W96
// 120   ----------------------------------------
	BYTE	W96
// 121   ----------------------------------------
	BYTE	W96
// 122   ----------------------------------------
	BYTE	W96
// 123   ----------------------------------------
	BYTE	W96
// 124   ----------------------------------------
	BYTE	W96
// 125   ----------------------------------------
	BYTE	W96
// 126   ----------------------------------------
	BYTE	W96
// 127   ----------------------------------------
	BYTE	W96
// 128   ----------------------------------------
	BYTE	W96
// 129   ----------------------------------------
	BYTE	W96
// 130   ----------------------------------------
	BYTE	W96
// 131   ----------------------------------------
	BYTE	W96
// 132   ----------------------------------------
	BYTE	W96
// 133   ----------------------------------------
	BYTE	W96
// 134   ----------------------------------------
	BYTE	W96
// 135   ----------------------------------------
	BYTE	W96
// 136   ----------------------------------------
revolution_6_136:
	BYTE		N23     Fn3   v100
	BYTE	W24
	BYTE		        En3 
	BYTE	W24
	BYTE		        Fn3 
	BYTE	W24
	BYTE		        As3 
	BYTE	W24
	BYTE	PEND
// 137   ----------------------------------------
revolution_6_137:
	BYTE		N23     Gs3   v100
	BYTE	W24
	BYTE		        Gn3 
	BYTE	W24
	BYTE		        Gs3 
	BYTE	W24
	BYTE		        As3 
	BYTE	W24
	BYTE	PEND
// 138   ----------------------------------------
	BYTE		TIE     Gn3 
	BYTE	W96
// 139   ----------------------------------------
	BYTE	W23
	BYTE		EOT   
	BYTE	W01
	BYTE		N23     Gs3 
	BYTE	W24
	BYTE		N05     Gn3 
	BYTE	W06
	BYTE		        Gs3 
	BYTE	W06
	BYTE		        Gn3 
	BYTE	W06
	BYTE		        Gs3 
	BYTE	W06
	BYTE		        Gn3 
	BYTE	W06
	BYTE		        Fn3 
	BYTE	W06
	BYTE		        Ds3 
	BYTE	W06
	BYTE		        Cn3 
	BYTE	W06
// 140   ----------------------------------------
revolution_6_140:
	BYTE		N05     As2   v100
	BYTE	W06
	BYTE		        Ds3 
	BYTE	W06
	BYTE		N11     Fn3 
	BYTE	W12
	BYTE		N05     Ds3 
	BYTE	W06
	BYTE		N11     Fn3 
	BYTE	W12
	BYTE		N05     Ds3 
	BYTE	W06
	BYTE		N68     Fn3 
	BYTE	W48
	BYTE	PEND
// 141   ----------------------------------------
revolution_6_141:
	BYTE	W24
	BYTE		N23     Gn3   v100
	BYTE	W24
	BYTE		        Gs3 
	BYTE	W24
	BYTE		        As3 
	BYTE	W24
	BYTE	PEND
// 142   ----------------------------------------
revolution_6_142:
	BYTE		N05     Gn3   v100
	BYTE	W06
	BYTE		        Gs3 
	BYTE	W06
	BYTE		N56     Gn3 
	BYTE	W60
	BYTE		N23     Gs3 
	BYTE	W24
	BYTE	PEND
// 143   ----------------------------------------
revolution_6_143:
	BYTE		N11     As3   v100
	BYTE	W12
	BYTE		        Cn4 
	BYTE	W12
	BYTE		        As3 
	BYTE	W12
	BYTE		        Gs3 
	BYTE	W12
	BYTE		        As3 
	BYTE	W12
	BYTE		        Cn4 
	BYTE	W12
	BYTE		        Gs3 
	BYTE	W12
	BYTE		        Gn3 
	BYTE	W12
	BYTE	PEND
// 144   ----------------------------------------
	BYTE	PATT
	 POIN2	revolution_6_136
// 145   ----------------------------------------
	BYTE	PATT
	 POIN2	revolution_6_137
// 146   ----------------------------------------
revolution_6_146:
	BYTE		N05     Gn3   v100
	BYTE	W06
	BYTE		        Ds3 
	BYTE	W06
	BYTE		N80     Cn3 
	BYTE	W84
	BYTE	PEND
// 147   ----------------------------------------
revolution_6_147:
	BYTE		N23     As2   v100
	BYTE	W24
	BYTE		        Cn3 
	BYTE	W24
	BYTE		        Ds3 
	BYTE	W24
	BYTE		        Cn3 
	BYTE	W24
	BYTE	PEND
// 148   ----------------------------------------
revolution_6_148:
	BYTE		N44     Fn3   v100
	BYTE	W48
	BYTE		N23     Gn3 
	BYTE	W24
	BYTE		        Fn3 
	BYTE	W24
	BYTE	PEND
// 149   ----------------------------------------
revolution_6_149:
	BYTE		N23     Gs3   v100
	BYTE	W24
	BYTE		        Gn3 
	BYTE	W24
	BYTE		        As3 
	BYTE	W24
	BYTE		        Cn4 
	BYTE	W24
	BYTE	PEND
// 150   ----------------------------------------
	BYTE		N92     Ds4 
	BYTE	W96
// 151   ----------------------------------------
	BYTE		        En4 
	BYTE	W96
// 152   ----------------------------------------
revolution_6_152:
	BYTE		N23     Fn3   v100
	BYTE		N11     Fn4 
	BYTE	W24
	BYTE		N23     En3 
	BYTE	W24
	BYTE		        Fn3 
	BYTE	W24
	BYTE		        As3 
	BYTE	W24
	BYTE	PEND
// 153   ----------------------------------------
	BYTE	PATT
	 POIN2	revolution_6_137
// 154   ----------------------------------------
	BYTE		TIE     Gn3   v100
	BYTE	W96
// 155   ----------------------------------------
	BYTE	W23
	BYTE		EOT   
	BYTE	W01
	BYTE		N23     Gs3 
	BYTE	W24
	BYTE		N05     Gn3 
	BYTE	W06
	BYTE		        Gs3 
	BYTE	W06
	BYTE		        Gn3 
	BYTE	W06
	BYTE		        Gs3 
	BYTE	W06
	BYTE		        Gn3 
	BYTE	W06
	BYTE		        Fn3 
	BYTE	W06
	BYTE		        Ds3 
	BYTE	W06
	BYTE		        Cn3 
	BYTE	W06
// 156   ----------------------------------------
	BYTE	PATT
	 POIN2	revolution_6_140
// 157   ----------------------------------------
	BYTE	PATT
	 POIN2	revolution_6_141
// 158   ----------------------------------------
	BYTE	PATT
	 POIN2	revolution_6_142
// 159   ----------------------------------------
	BYTE	PATT
	 POIN2	revolution_6_143
// 160   ----------------------------------------
	BYTE	PATT
	 POIN2	revolution_6_136
// 161   ----------------------------------------
	BYTE	PATT
	 POIN2	revolution_6_137
// 162   ----------------------------------------
	BYTE	PATT
	 POIN2	revolution_6_146
// 163   ----------------------------------------
	BYTE	PATT
	 POIN2	revolution_6_147
// 164   ----------------------------------------
	BYTE	PATT
	 POIN2	revolution_6_148
// 165   ----------------------------------------
	BYTE	PATT
	 POIN2	revolution_6_149
// 166   ----------------------------------------
	BYTE		N92     Ds4   v100
	BYTE	W96
// 167   ----------------------------------------
	BYTE		        En4 
	BYTE	W96
// 168   ----------------------------------------
	BYTE		N11     Fn4 
	BYTE	W96
// 169   ----------------------------------------
	BYTE	W96
// 170   ----------------------------------------
	BYTE	W96
// 171   ----------------------------------------
	BYTE	W96
// 172   ----------------------------------------
	BYTE	W96
// 173   ----------------------------------------
	BYTE	W96
// 174   ----------------------------------------
	BYTE	W96
// 175   ----------------------------------------
	BYTE	W96
// 176   ----------------------------------------
	BYTE	PATT
	 POIN2	revolution_6_136
// 177   ----------------------------------------
	BYTE	PATT
	 POIN2	revolution_6_137
// 178   ----------------------------------------
	BYTE	PATT
	 POIN2	revolution_6_146
// 179   ----------------------------------------
	BYTE	PATT
	 POIN2	revolution_6_147
// 180   ----------------------------------------
	BYTE	PATT
	 POIN2	revolution_6_148
// 181   ----------------------------------------
	BYTE	PATT
	 POIN2	revolution_6_149
// 182   ----------------------------------------
	BYTE		N92     Ds4   v100
	BYTE	W96
// 183   ----------------------------------------
	BYTE		        En4 
	BYTE	W96
// 184   ----------------------------------------
	BYTE	PATT
	 POIN2	revolution_6_152
// 185   ----------------------------------------
	BYTE	PATT
	 POIN2	revolution_6_137
// 186   ----------------------------------------
	BYTE	PATT
	 POIN2	revolution_6_146
// 187   ----------------------------------------
	BYTE	PATT
	 POIN2	revolution_6_147
// 188   ----------------------------------------
	BYTE	PATT
	 POIN2	revolution_6_148
// 189   ----------------------------------------
	BYTE	PATT
	 POIN2	revolution_6_149
// 190   ----------------------------------------
	BYTE		N92     Ds4   v100
	BYTE	W96
// 191   ----------------------------------------
	BYTE		        En4 
	BYTE	W96
	BYTE	GoTo
	 POIN2	revolution_6_B1
revolution_6_B2:
// 192   ----------------------------------------
	BYTE		PAN     c_v+0
	BYTE		        c_v+0
	BYTE		        c_v+0
	BYTE		BEND    c_v+0
	BYTE	FINE

//**************** Track 7 (Midi-Chn.7) ****************//

revolution_7:
	BYTE	KEYSH   revolution_key+0
// 000   ----------------------------------------
	BYTE		VOICE   10
	BYTE		VOL     38*revolution_mvl/mxv
	BYTE		PAN     c_v+0
	BYTE		        c_v+0
	BYTE		        c_v+0
	BYTE		        c_v+0
	BYTE		BEND    c_v+0
	BYTE	W96
// 001   ----------------------------------------
	BYTE	W96
// 002   ----------------------------------------
	BYTE	W96
// 003   ----------------------------------------
	BYTE	W96
// 004   ----------------------------------------
	BYTE	W96
// 005   ----------------------------------------
	BYTE	W96
// 006   ----------------------------------------
	BYTE	W96
// 007   ----------------------------------------
	BYTE	W96
// 008   ----------------------------------------
	BYTE	W96
// 009   ----------------------------------------
	BYTE	W96
// 010   ----------------------------------------
	BYTE	W96
// 011   ----------------------------------------
	BYTE	W96
// 012   ----------------------------------------
	BYTE	W96
// 013   ----------------------------------------
	BYTE	W96
// 014   ----------------------------------------
	BYTE	W96
// 015   ----------------------------------------
	BYTE	W96
revolution_7_B1:
// 016   ----------------------------------------
	BYTE	W96
// 017   ----------------------------------------
	BYTE	W96
// 018   ----------------------------------------
	BYTE	W96
// 019   ----------------------------------------
	BYTE	W96
// 020   ----------------------------------------
	BYTE	W96
// 021   ----------------------------------------
	BYTE	W96
// 022   ----------------------------------------
	BYTE	W96
// 023   ----------------------------------------
	BYTE	W96
// 024   ----------------------------------------
	BYTE	W96
// 025   ----------------------------------------
	BYTE	W96
// 026   ----------------------------------------
	BYTE	W96
// 027   ----------------------------------------
	BYTE	W96
// 028   ----------------------------------------
	BYTE	W96
// 029   ----------------------------------------
	BYTE	W96
// 030   ----------------------------------------
	BYTE	W96
// 031   ----------------------------------------
	BYTE	W96
// 032   ----------------------------------------
	BYTE	W96
// 033   ----------------------------------------
	BYTE	W96
// 034   ----------------------------------------
	BYTE	W96
// 035   ----------------------------------------
	BYTE	W96
// 036   ----------------------------------------
	BYTE	W96
// 037   ----------------------------------------
	BYTE	W96
// 038   ----------------------------------------
	BYTE	W96
// 039   ----------------------------------------
	BYTE	W96
// 040   ----------------------------------------
	BYTE	W96
// 041   ----------------------------------------
	BYTE	W96
// 042   ----------------------------------------
	BYTE	W96
// 043   ----------------------------------------
	BYTE	W96
// 044   ----------------------------------------
	BYTE	W96
// 045   ----------------------------------------
	BYTE	W96
// 046   ----------------------------------------
	BYTE	W96
// 047   ----------------------------------------
	BYTE	W96
// 048   ----------------------------------------
revolution_7_048:
	BYTE		N05     Ds4   v100
	BYTE	W06
	BYTE		        Cs4 
	BYTE	W06
	BYTE		        Ds4 
	BYTE	W06
	BYTE		        Cs4 
	BYTE	W06
	BYTE		        Fs4 
	BYTE	W06
	BYTE		        Fn4 
	BYTE	W06
	BYTE		        Fs4 
	BYTE	W06
	BYTE		        Fn4 
	BYTE	W06
	BYTE		        Gs4 
	BYTE	W06
	BYTE		        Fs4 
	BYTE	W06
	BYTE		        Gs4 
	BYTE	W06
	BYTE		        Fs4 
	BYTE	W06
	BYTE		        As4 
	BYTE	W06
	BYTE		        Gs4 
	BYTE	W06
	BYTE		        Fs4 
	BYTE	W06
	BYTE		        Fn4 
	BYTE	W06
	BYTE	PEND
// 049   ----------------------------------------
revolution_7_049:
	BYTE		N05     Ds4   v100
	BYTE	W06
	BYTE		        Cs4 
	BYTE	W06
	BYTE		        As3 
	BYTE	W06
	BYTE		        Gs3 
	BYTE	W06
	BYTE		        As3 
	BYTE	W06
	BYTE		        Cs4 
	BYTE	W06
	BYTE		        As3 
	BYTE	W06
	BYTE		        Gs3 
	BYTE	W06
	BYTE		        Fs3 
	BYTE	W06
	BYTE		        Fn3 
	BYTE	W06
	BYTE		        Fs3 
	BYTE	W06
	BYTE		        Gs3 
	BYTE	W06
	BYTE		        As3 
	BYTE	W06
	BYTE		        Gs3 
	BYTE	W06
	BYTE		        As3 
	BYTE	W06
	BYTE		        Cs4 
	BYTE	W06
	BYTE	PEND
// 050   ----------------------------------------
	BYTE	PATT
	 POIN2	revolution_7_048
// 051   ----------------------------------------
	BYTE	PATT
	 POIN2	revolution_7_049
// 052   ----------------------------------------
	BYTE	PATT
	 POIN2	revolution_7_048
// 053   ----------------------------------------
	BYTE	PATT
	 POIN2	revolution_7_049
// 054   ----------------------------------------
	BYTE	PATT
	 POIN2	revolution_7_048
// 055   ----------------------------------------
	BYTE	PATT
	 POIN2	revolution_7_049
// 056   ----------------------------------------
	BYTE	PATT
	 POIN2	revolution_7_048
// 057   ----------------------------------------
	BYTE	PATT
	 POIN2	revolution_7_049
// 058   ----------------------------------------
	BYTE	PATT
	 POIN2	revolution_7_048
// 059   ----------------------------------------
	BYTE	PATT
	 POIN2	revolution_7_049
// 060   ----------------------------------------
	BYTE	PATT
	 POIN2	revolution_7_048
// 061   ----------------------------------------
	BYTE	PATT
	 POIN2	revolution_7_049
// 062   ----------------------------------------
	BYTE	PATT
	 POIN2	revolution_7_048
// 063   ----------------------------------------
revolution_7_063:
	BYTE		N05     Dn4   v100
	BYTE	W06
	BYTE		N05   
	BYTE	W06
	BYTE		N05   
	BYTE	W06
	BYTE		N05   
	BYTE	W06
	BYTE		        Fn4 
	BYTE	W06
	BYTE		N05   
	BYTE	W06
	BYTE		N05   
	BYTE	W06
	BYTE		N05   
	BYTE	W06
	BYTE		        As4 
	BYTE	W06
	BYTE		N05   
	BYTE	W06
	BYTE		N05   
	BYTE	W06
	BYTE		N05   
	BYTE	W06
	BYTE		        Fn4 
	BYTE	W06
	BYTE		N05   
	BYTE	W06
	BYTE		        Dn4 
	BYTE	W06
	BYTE		N05   
	BYTE	W06
	BYTE	PEND
// 064   ----------------------------------------
	BYTE		N11     Ds4 
	BYTE	W12
	BYTE		        Cs4 
	BYTE	W12
	BYTE		N05     Ds4 
	BYTE	W06
	BYTE		        Cs4 
	BYTE	W06
	BYTE		        Bn3 
	BYTE	W06
	BYTE		        As3 
	BYTE	W06
	BYTE		N11     Bn3 
	BYTE	W12
	BYTE		        As3 
	BYTE	W12
	BYTE		N05     Gs3 
	BYTE	W06
	BYTE		        As3 
	BYTE	W06
	BYTE		        Bn3 
	BYTE	W06
	BYTE		        Cs4 
	BYTE	W06
// 065   ----------------------------------------
	BYTE		N11     As3 
	BYTE	W12
	BYTE		N11   
	BYTE	W12
	BYTE		N05   
	BYTE	W06
	BYTE		N05   
	BYTE	W06
	BYTE		N05   
	BYTE	W06
	BYTE		N05   
	BYTE	W06
	BYTE		N11     Ds4 
	BYTE	W12
	BYTE		N11   
	BYTE	W12
	BYTE		N23   
	BYTE	W24
// 066   ----------------------------------------
	BYTE	W96
// 067   ----------------------------------------
	BYTE	W96
// 068   ----------------------------------------
	BYTE	W96
// 069   ----------------------------------------
	BYTE	W96
// 070   ----------------------------------------
	BYTE	W96
// 071   ----------------------------------------
	BYTE	W96
// 072   ----------------------------------------
	BYTE	W96
// 073   ----------------------------------------
	BYTE	W96
// 074   ----------------------------------------
	BYTE	PATT
	 POIN2	revolution_7_048
// 075   ----------------------------------------
	BYTE	PATT
	 POIN2	revolution_7_049
// 076   ----------------------------------------
	BYTE	PATT
	 POIN2	revolution_7_048
// 077   ----------------------------------------
	BYTE	PATT
	 POIN2	revolution_7_049
// 078   ----------------------------------------
	BYTE	PATT
	 POIN2	revolution_7_048
// 079   ----------------------------------------
	BYTE	PATT
	 POIN2	revolution_7_049
// 080   ----------------------------------------
	BYTE	PATT
	 POIN2	revolution_7_048
// 081   ----------------------------------------
	BYTE	PATT
	 POIN2	revolution_7_049
// 082   ----------------------------------------
revolution_7_082:
	BYTE		N05     Cs4   v100
	BYTE	W06
	BYTE		        As3 
	BYTE	W06
	BYTE		        Gs3 
	BYTE	W06
	BYTE		        As3 
	BYTE	W06
	BYTE		        Gs3 
	BYTE	W06
	BYTE		        Fs3 
	BYTE	W06
	BYTE		        Fn3 
	BYTE	W06
	BYTE		        Fs3 
	BYTE	W06
	BYTE		        Gs3 
	BYTE	W06
	BYTE		        As3 
	BYTE	W06
	BYTE		        Cs4 
	BYTE	W06
	BYTE		        As3 
	BYTE	W06
	BYTE		        Gs3 
	BYTE	W06
	BYTE		        As3 
	BYTE	W06
	BYTE		        Cs4 
	BYTE	W06
	BYTE		        Ds4 
	BYTE	W06
	BYTE	PEND
// 083   ----------------------------------------
revolution_7_083:
	BYTE		N05     Fn4   v100
	BYTE	W06
	BYTE		        Fs4 
	BYTE	W06
	BYTE		        Gs4 
	BYTE	W06
	BYTE		        As4 
	BYTE	W06
	BYTE		        Fs4 
	BYTE	W06
	BYTE		        Gs4 
	BYTE	W06
	BYTE		        Fs4 
	BYTE	W06
	BYTE		        Gs4 
	BYTE	W06
	BYTE		        Fn4 
	BYTE	W06
	BYTE		        Fs4 
	BYTE	W06
	BYTE		        Fn4 
	BYTE	W06
	BYTE		        Fs4 
	BYTE	W06
	BYTE		        Cs4 
	BYTE	W06
	BYTE		        Ds4 
	BYTE	W06
	BYTE		        Cs4 
	BYTE	W06
	BYTE		        Ds4 
	BYTE	W06
	BYTE	PEND
// 084   ----------------------------------------
	BYTE	PATT
	 POIN2	revolution_7_082
// 085   ----------------------------------------
	BYTE	PATT
	 POIN2	revolution_7_083
// 086   ----------------------------------------
	BYTE	PATT
	 POIN2	revolution_7_082
// 087   ----------------------------------------
	BYTE	PATT
	 POIN2	revolution_7_083
// 088   ----------------------------------------
	BYTE	PATT
	 POIN2	revolution_7_082
// 089   ----------------------------------------
	BYTE	PATT
	 POIN2	revolution_7_083
// 090   ----------------------------------------
	BYTE	PATT
	 POIN2	revolution_7_048
// 091   ----------------------------------------
	BYTE	PATT
	 POIN2	revolution_7_049
// 092   ----------------------------------------
	BYTE	PATT
	 POIN2	revolution_7_048
// 093   ----------------------------------------
	BYTE	PATT
	 POIN2	revolution_7_049
// 094   ----------------------------------------
	BYTE	PATT
	 POIN2	revolution_7_048
// 095   ----------------------------------------
	BYTE	PATT
	 POIN2	revolution_7_049
// 096   ----------------------------------------
	BYTE	PATT
	 POIN2	revolution_7_048
// 097   ----------------------------------------
	BYTE	PATT
	 POIN2	revolution_7_049
// 098   ----------------------------------------
	BYTE	PATT
	 POIN2	revolution_7_048
// 099   ----------------------------------------
	BYTE	PATT
	 POIN2	revolution_7_049
// 100   ----------------------------------------
	BYTE	PATT
	 POIN2	revolution_7_048
// 101   ----------------------------------------
	BYTE	PATT
	 POIN2	revolution_7_049
// 102   ----------------------------------------
	BYTE	PATT
	 POIN2	revolution_7_048
// 103   ----------------------------------------
	BYTE	PATT
	 POIN2	revolution_7_049
// 104   ----------------------------------------
	BYTE	PATT
	 POIN2	revolution_7_048
// 105   ----------------------------------------
	BYTE	PATT
	 POIN2	revolution_7_049
// 106   ----------------------------------------
	BYTE	PATT
	 POIN2	revolution_7_048
// 107   ----------------------------------------
	BYTE	PATT
	 POIN2	revolution_7_063
// 108   ----------------------------------------
	BYTE	W96
// 109   ----------------------------------------
	BYTE	W96
// 110   ----------------------------------------
	BYTE	W96
// 111   ----------------------------------------
	BYTE	W96
// 112   ----------------------------------------
	BYTE	W96
// 113   ----------------------------------------
	BYTE	W96
// 114   ----------------------------------------
	BYTE	W96
// 115   ----------------------------------------
	BYTE	W96
// 116   ----------------------------------------
	BYTE	W96
// 117   ----------------------------------------
	BYTE	W96
// 118   ----------------------------------------
	BYTE	W96
// 119   ----------------------------------------
	BYTE	W96
// 120   ----------------------------------------
	BYTE	W96
// 121   ----------------------------------------
	BYTE	W96
// 122   ----------------------------------------
	BYTE	W96
// 123   ----------------------------------------
	BYTE	W96
// 124   ----------------------------------------
	BYTE	W96
// 125   ----------------------------------------
	BYTE	W96
// 126   ----------------------------------------
	BYTE	W96
// 127   ----------------------------------------
	BYTE	W96
// 128   ----------------------------------------
	BYTE	W96
// 129   ----------------------------------------
	BYTE	W96
// 130   ----------------------------------------
	BYTE	W96
// 131   ----------------------------------------
	BYTE	W96
// 132   ----------------------------------------
	BYTE	W96
// 133   ----------------------------------------
	BYTE	W96
// 134   ----------------------------------------
	BYTE	W96
// 135   ----------------------------------------
	BYTE	W96
// 136   ----------------------------------------
	BYTE	W96
// 137   ----------------------------------------
	BYTE	W96
// 138   ----------------------------------------
	BYTE	W96
// 139   ----------------------------------------
	BYTE	W96
// 140   ----------------------------------------
	BYTE	W96
// 141   ----------------------------------------
	BYTE	W96
// 142   ----------------------------------------
	BYTE	W96
// 143   ----------------------------------------
	BYTE	W96
// 144   ----------------------------------------
revolution_7_144:
	BYTE		N05     Fn4   v100
	BYTE	W06
	BYTE		        Ds4 
	BYTE	W06
	BYTE		        Fn4 
	BYTE	W06
	BYTE		        Ds4 
	BYTE	W06
	BYTE		        Gs4 
	BYTE	W06
	BYTE		        Gn4 
	BYTE	W06
	BYTE		        Gs4 
	BYTE	W06
	BYTE		        Gn4 
	BYTE	W06
	BYTE		        As4 
	BYTE	W06
	BYTE		        Gs4 
	BYTE	W06
	BYTE		        As4 
	BYTE	W06
	BYTE		        Gs4 
	BYTE	W06
	BYTE		        Cn5 
	BYTE	W06
	BYTE		        As4 
	BYTE	W06
	BYTE		        Gs4 
	BYTE	W06
	BYTE		        Gn4 
	BYTE	W06
	BYTE	PEND
// 145   ----------------------------------------
revolution_7_145:
	BYTE		N05     Fn4   v100
	BYTE	W06
	BYTE		        Ds4 
	BYTE	W06
	BYTE		        Cn4 
	BYTE	W06
	BYTE		        As3 
	BYTE	W06
	BYTE		        Cn4 
	BYTE	W06
	BYTE		        Ds4 
	BYTE	W06
	BYTE		        Cn4 
	BYTE	W06
	BYTE		        As3 
	BYTE	W06
	BYTE		        Gs3 
	BYTE	W06
	BYTE		        Gn3 
	BYTE	W06
	BYTE		        Gs3 
	BYTE	W06
	BYTE		        As3 
	BYTE	W06
	BYTE		        Cn4 
	BYTE	W06
	BYTE		        As3 
	BYTE	W06
	BYTE		        Cn4 
	BYTE	W06
	BYTE		        Ds4 
	BYTE	W06
	BYTE	PEND
// 146   ----------------------------------------
	BYTE	PATT
	 POIN2	revolution_7_144
// 147   ----------------------------------------
	BYTE	PATT
	 POIN2	revolution_7_145
// 148   ----------------------------------------
	BYTE	PATT
	 POIN2	revolution_7_144
// 149   ----------------------------------------
	BYTE	PATT
	 POIN2	revolution_7_145
// 150   ----------------------------------------
	BYTE	PATT
	 POIN2	revolution_7_144
// 151   ----------------------------------------
revolution_7_151:
	BYTE		N05     En4   v100
	BYTE	W06
	BYTE		N05   
	BYTE	W06
	BYTE		N05   
	BYTE	W06
	BYTE		N05   
	BYTE	W06
	BYTE		        Gn4 
	BYTE	W06
	BYTE		N05   
	BYTE	W06
	BYTE		N05   
	BYTE	W06
	BYTE		N05   
	BYTE	W06
	BYTE		        Cn5 
	BYTE	W06
	BYTE		N05   
	BYTE	W06
	BYTE		N05   
	BYTE	W06
	BYTE		N05   
	BYTE	W06
	BYTE		        Gn4 
	BYTE	W06
	BYTE		N05   
	BYTE	W06
	BYTE		        En4 
	BYTE	W06
	BYTE		N05   
	BYTE	W06
	BYTE	PEND
// 152   ----------------------------------------
revolution_7_152:
	BYTE		N05     Gn4   v100
	BYTE	W06
	BYTE		        Gs4 
	BYTE	W06
	BYTE		        As4 
	BYTE	W06
	BYTE		        Cn5 
	BYTE	W06
	BYTE		        Gs4 
	BYTE	W06
	BYTE		        As4 
	BYTE	W06
	BYTE		        Gs4 
	BYTE	W06
	BYTE		        As4 
	BYTE	W06
	BYTE		        Gn4 
	BYTE	W06
	BYTE		        Gs4 
	BYTE	W06
	BYTE		        Gn4 
	BYTE	W06
	BYTE		        Gs4 
	BYTE	W06
	BYTE		        Ds4 
	BYTE	W06
	BYTE		        Fn4 
	BYTE	W06
	BYTE		        Ds4 
	BYTE	W06
	BYTE		        Fn4 
	BYTE	W06
	BYTE	PEND
// 153   ----------------------------------------
revolution_7_153:
	BYTE		N05     Ds4   v100
	BYTE	W06
	BYTE		        Cn4 
	BYTE	W06
	BYTE		        As3 
	BYTE	W06
	BYTE		        Cn4 
	BYTE	W06
	BYTE		        As3 
	BYTE	W06
	BYTE		        Gs3 
	BYTE	W06
	BYTE		        Gn3 
	BYTE	W06
	BYTE		        Gs3 
	BYTE	W06
	BYTE		        As3 
	BYTE	W06
	BYTE		        Cn4 
	BYTE	W06
	BYTE		        Ds4 
	BYTE	W06
	BYTE		        Cn4 
	BYTE	W06
	BYTE		        As3 
	BYTE	W06
	BYTE		        Cn4 
	BYTE	W06
	BYTE		        Ds4 
	BYTE	W06
	BYTE		        Fn4 
	BYTE	W06
	BYTE	PEND
// 154   ----------------------------------------
	BYTE	PATT
	 POIN2	revolution_7_152
// 155   ----------------------------------------
	BYTE	PATT
	 POIN2	revolution_7_153
// 156   ----------------------------------------
	BYTE	PATT
	 POIN2	revolution_7_152
// 157   ----------------------------------------
	BYTE	PATT
	 POIN2	revolution_7_153
// 158   ----------------------------------------
	BYTE	PATT
	 POIN2	revolution_7_152
// 159   ----------------------------------------
	BYTE	PATT
	 POIN2	revolution_7_153
// 160   ----------------------------------------
	BYTE	PATT
	 POIN2	revolution_7_152
// 161   ----------------------------------------
	BYTE	PATT
	 POIN2	revolution_7_153
// 162   ----------------------------------------
	BYTE	PATT
	 POIN2	revolution_7_152
// 163   ----------------------------------------
	BYTE	PATT
	 POIN2	revolution_7_153
// 164   ----------------------------------------
	BYTE	PATT
	 POIN2	revolution_7_152
// 165   ----------------------------------------
	BYTE	PATT
	 POIN2	revolution_7_153
// 166   ----------------------------------------
	BYTE	PATT
	 POIN2	revolution_7_152
// 167   ----------------------------------------
	BYTE	PATT
	 POIN2	revolution_7_151
// 168   ----------------------------------------
revolution_7_168:
	BYTE		N23     Fn4   v100
	BYTE	W24
	BYTE		N23   
	BYTE	W36
	BYTE		N23   
	BYTE	W36
	BYTE	PEND
// 169   ----------------------------------------
	BYTE	PATT
	 POIN2	revolution_7_168
// 170   ----------------------------------------
revolution_7_170:
	BYTE		N23     Ds4   v100
	BYTE	W24
	BYTE		N23   
	BYTE	W36
	BYTE		N23   
	BYTE	W36
	BYTE	PEND
// 171   ----------------------------------------
	BYTE	PATT
	 POIN2	revolution_7_170
// 172   ----------------------------------------
revolution_7_172:
	BYTE		N23     Cs4   v100
	BYTE	W24
	BYTE		N23   
	BYTE	W36
	BYTE		N23   
	BYTE	W36
	BYTE	PEND
// 173   ----------------------------------------
	BYTE	PATT
	 POIN2	revolution_7_172
// 174   ----------------------------------------
	BYTE	PATT
	 POIN2	revolution_7_170
// 175   ----------------------------------------
	BYTE		N23     Gs4   v100
	BYTE	W24
	BYTE		N23   
	BYTE	W36
	BYTE		        Gn4 
	BYTE	W36
// 176   ----------------------------------------
	BYTE	PATT
	 POIN2	revolution_7_168
// 177   ----------------------------------------
	BYTE	PATT
	 POIN2	revolution_7_168
// 178   ----------------------------------------
	BYTE	PATT
	 POIN2	revolution_7_170
// 179   ----------------------------------------
	BYTE	PATT
	 POIN2	revolution_7_170
// 180   ----------------------------------------
	BYTE	PATT
	 POIN2	revolution_7_172
// 181   ----------------------------------------
	BYTE	PATT
	 POIN2	revolution_7_172
// 182   ----------------------------------------
	BYTE	PATT
	 POIN2	revolution_7_170
// 183   ----------------------------------------
	BYTE		N23     En4   v100
	BYTE	W24
	BYTE		N23   
	BYTE	W36
	BYTE		N23   
	BYTE	W36
// 184   ----------------------------------------
	BYTE	W96
// 185   ----------------------------------------
	BYTE	W96
// 186   ----------------------------------------
	BYTE	W96
// 187   ----------------------------------------
	BYTE	W96
// 188   ----------------------------------------
	BYTE	W96
// 189   ----------------------------------------
	BYTE	W96
// 190   ----------------------------------------
	BYTE	W96
// 191   ----------------------------------------
	BYTE	W96
	BYTE	GoTo
	 POIN2	revolution_7_B1
revolution_7_B2:
// 192   ----------------------------------------
	BYTE		PAN     c_v+0
	BYTE		        c_v+0
	BYTE		        c_v+0
	BYTE		BEND    c_v+0
	BYTE	FINE

//******************************************************//
	ALIGN 4

revolution:
	BYTE	7	// NumTrks
	BYTE	0	// NumBlks
	BYTE	revolution_pri	// Priority
	BYTE	revolution_rev	// Reverb.

	POIN2	revolution_grp

	POIN2	revolution_1
	POIN2	revolution_2
	POIN2	revolution_3
	POIN2	revolution_4
	POIN2	revolution_5
	POIN2	revolution_6
	POIN2	revolution_7

	
