	.include "MPlayDef.s"

	.equ	macintosh_grp, voicegroup000
	.equ	macintosh_pri, 0
	.equ	macintosh_rev, 0
	.equ	macintosh_mvl, 127
	.equ	macintosh_key, 0
	.equ	macintosh_tbs, 1
	.equ	macintosh_exg, 0
	.equ	macintosh_cmp, 1

	.section .rodata
	.global	macintosh
	.align	2

@**************** Track 1 (Midi-Chn.1) ****************@

macintosh_1:
	.byte	KEYSH , macintosh_key+0
macintosh_1_B1:
@ 000   ----------------------------------------
	.byte	TEMPO , 88*macintosh_tbs/2
	.byte		VOICE , 79
	.byte		PAN   , c_v-19
	.byte		VOL   , 31*macintosh_mvl/mxv
	.byte		BEND  , c_v+0
	.byte		N32   , Bn3 , v100
	.byte	W36
	.byte		        Fs4 
	.byte	W48
	.byte		N11   
	.byte	W12
@ 001   ----------------------------------------
macintosh_1_001:
	.byte		N11   , En4 , v100
	.byte	W12
	.byte		        Dn4 
	.byte	W12
	.byte		        Cs4 
	.byte	W12
	.byte		N32   
	.byte	W36
	.byte		N11   , Dn4 
	.byte	W12
	.byte		N56   , Bn3 
	.byte	W12
	.byte	PEND
@ 002   ----------------------------------------
macintosh_1_002:
	.byte	W72
	.byte		N11   , Bn4 , v100
	.byte	W12
	.byte		N80   , An4 
	.byte	W12
	.byte	PEND
@ 003   ----------------------------------------
macintosh_1_003:
	.byte	W72
	.byte		N11   , Bn3 , v100
	.byte	W12
	.byte		N44   , Dn4 
	.byte	W12
	.byte	PEND
@ 004   ----------------------------------------
macintosh_1_004:
	.byte	W36
	.byte		N32   , Fs4 , v100
	.byte	W48
	.byte		N11   
	.byte	W12
	.byte	PEND
@ 005   ----------------------------------------
macintosh_1_005:
	.byte		N11   , En4 , v100
	.byte	W12
	.byte		        Dn4 
	.byte	W12
	.byte		        Cs4 
	.byte	W12
	.byte		N32   
	.byte	W36
	.byte		N11   , Bn3 
	.byte	W12
	.byte		N80   , Fs4 
	.byte	W12
	.byte	PEND
@ 006   ----------------------------------------
	.byte	W96
@ 007   ----------------------------------------
macintosh_1_007:
	.byte	W12
	.byte		N11   , Dn4 , v100
	.byte	W12
	.byte		N11   
	.byte	W24
	.byte		        En4 
	.byte	W12
	.byte		N11   
	.byte	W36
	.byte	PEND
@ 008   ----------------------------------------
macintosh_1_008:
	.byte		N32   , Bn3 , v100
	.byte	W36
	.byte		        Fs4 
	.byte	W48
	.byte		N11   
	.byte	W12
	.byte	PEND
@ 009   ----------------------------------------
	.byte	PATT
	 .word	macintosh_1_001
@ 010   ----------------------------------------
	.byte	PATT
	 .word	macintosh_1_002
@ 011   ----------------------------------------
	.byte	PATT
	 .word	macintosh_1_003
@ 012   ----------------------------------------
	.byte	PATT
	 .word	macintosh_1_004
@ 013   ----------------------------------------
	.byte	PATT
	 .word	macintosh_1_005
@ 014   ----------------------------------------
	.byte	W96
@ 015   ----------------------------------------
	.byte	PATT
	 .word	macintosh_1_007
@ 016   ----------------------------------------
	.byte	PATT
	 .word	macintosh_1_008
@ 017   ----------------------------------------
	.byte	PATT
	 .word	macintosh_1_001
@ 018   ----------------------------------------
	.byte	PATT
	 .word	macintosh_1_002
@ 019   ----------------------------------------
	.byte	PATT
	 .word	macintosh_1_003
@ 020   ----------------------------------------
	.byte	PATT
	 .word	macintosh_1_004
@ 021   ----------------------------------------
	.byte	PATT
	 .word	macintosh_1_005
@ 022   ----------------------------------------
	.byte	W96
@ 023   ----------------------------------------
	.byte	PATT
	 .word	macintosh_1_007
@ 024   ----------------------------------------
	.byte	PATT
	 .word	macintosh_1_008
@ 025   ----------------------------------------
	.byte	PATT
	 .word	macintosh_1_001
@ 026   ----------------------------------------
	.byte	PATT
	 .word	macintosh_1_002
@ 027   ----------------------------------------
	.byte	PATT
	 .word	macintosh_1_003
@ 028   ----------------------------------------
	.byte	PATT
	 .word	macintosh_1_004
@ 029   ----------------------------------------
	.byte	PATT
	 .word	macintosh_1_005
@ 030   ----------------------------------------
	.byte	W96
@ 031   ----------------------------------------
	.byte	PATT
	 .word	macintosh_1_007
@ 032   ----------------------------------------
	.byte	PATT
	 .word	macintosh_1_008
@ 033   ----------------------------------------
	.byte	PATT
	 .word	macintosh_1_001
@ 034   ----------------------------------------
	.byte	PATT
	 .word	macintosh_1_002
@ 035   ----------------------------------------
	.byte	PATT
	 .word	macintosh_1_003
@ 036   ----------------------------------------
	.byte	PATT
	 .word	macintosh_1_004
@ 037   ----------------------------------------
	.byte		N11   , En4 , v100
	.byte	W12
	.byte		        Dn4 
	.byte	W12
	.byte		        Cs4 
	.byte	W12
	.byte		N32   
	.byte	W60
@ 038   ----------------------------------------
	.byte	W96
@ 039   ----------------------------------------
	.byte	W96
@ 040   ----------------------------------------
	.byte	PATT
	 .word	macintosh_1_008
@ 041   ----------------------------------------
	.byte	PATT
	 .word	macintosh_1_001
@ 042   ----------------------------------------
	.byte	PATT
	 .word	macintosh_1_002
@ 043   ----------------------------------------
	.byte	PATT
	 .word	macintosh_1_003
@ 044   ----------------------------------------
	.byte	PATT
	 .word	macintosh_1_004
@ 045   ----------------------------------------
	.byte	PATT
	 .word	macintosh_1_005
@ 046   ----------------------------------------
	.byte	W96
@ 047   ----------------------------------------
	.byte	PATT
	 .word	macintosh_1_008
@ 048   ----------------------------------------
	.byte	PATT
	 .word	macintosh_1_001
@ 049   ----------------------------------------
	.byte	PATT
	 .word	macintosh_1_002
@ 050   ----------------------------------------
	.byte	PATT
	 .word	macintosh_1_003
@ 051   ----------------------------------------
	.byte	PATT
	 .word	macintosh_1_004
@ 052   ----------------------------------------
	.byte	PATT
	 .word	macintosh_1_005
@ 053   ----------------------------------------
	.byte	W96
@ 054   ----------------------------------------
	.byte	PATT
	 .word	macintosh_1_008
@ 055   ----------------------------------------
	.byte	PATT
	 .word	macintosh_1_001
@ 056   ----------------------------------------
	.byte	PATT
	 .word	macintosh_1_002
@ 057   ----------------------------------------
	.byte	PATT
	 .word	macintosh_1_003
@ 058   ----------------------------------------
	.byte	PATT
	 .word	macintosh_1_004
@ 059   ----------------------------------------
	.byte	PATT
	 .word	macintosh_1_005
@ 060   ----------------------------------------
	.byte	W96
@ 061   ----------------------------------------
	.byte	PATT
	 .word	macintosh_1_008
@ 062   ----------------------------------------
	.byte	PATT
	 .word	macintosh_1_001
@ 063   ----------------------------------------
	.byte	PATT
	 .word	macintosh_1_002
@ 064   ----------------------------------------
	.byte	PATT
	 .word	macintosh_1_003
@ 065   ----------------------------------------
	.byte	PATT
	 .word	macintosh_1_004
@ 066   ----------------------------------------
	.byte	PATT
	 .word	macintosh_1_005
@ 067   ----------------------------------------
	.byte	W96
@ 068   ----------------------------------------
	.byte	PATT
	 .word	macintosh_1_007
@ 069   ----------------------------------------
	.byte	W96
@ 070   ----------------------------------------
	.byte	W96
@ 071   ----------------------------------------
	.byte	W96
@ 072   ----------------------------------------
	.byte	W96
@ 073   ----------------------------------------
	.byte	W96
@ 074   ----------------------------------------
	.byte	W96
@ 075   ----------------------------------------
	.byte	W96
@ 076   ----------------------------------------
	.byte	W96
@ 077   ----------------------------------------
	.byte	W96
@ 078   ----------------------------------------
	.byte	W96
@ 079   ----------------------------------------
	.byte	W96
@ 080   ----------------------------------------
	.byte	W96
@ 081   ----------------------------------------
	.byte	W96
@ 082   ----------------------------------------
	.byte	W96
@ 083   ----------------------------------------
	.byte	W96
@ 084   ----------------------------------------
	.byte	W96
@ 085   ----------------------------------------
	.byte	W96
@ 086   ----------------------------------------
	.byte	W96
@ 087   ----------------------------------------
	.byte	W96
@ 088   ----------------------------------------
	.byte	W96
	.byte	GOTO
	 .word	macintosh_1_B1
macintosh_1_B2:
@ 089   ----------------------------------------
	.byte		VOICE , 79
	.byte		BEND  , c_v+0
	.byte	FINE

@**************** Track 2 (Midi-Chn.2) ****************@

macintosh_2:
	.byte	KEYSH , macintosh_key+0
macintosh_2_B1:
@ 000   ----------------------------------------
	.byte		VOICE , 74
	.byte		PAN   , c_v+20
	.byte		VOL   , 31*macintosh_mvl/mxv
	.byte		BEND  , c_v+0
	.byte		N32   , Bn3 , v100
	.byte	W36
	.byte		        Fs4 
	.byte	W48
	.byte		N11   
	.byte	W12
@ 001   ----------------------------------------
macintosh_2_001:
	.byte		N11   , En4 , v100
	.byte	W12
	.byte		        Dn4 
	.byte	W12
	.byte		        Cs4 
	.byte	W12
	.byte		N32   
	.byte	W36
	.byte		N11   , Dn4 
	.byte	W12
	.byte		N56   , Bn3 
	.byte	W12
	.byte	PEND
@ 002   ----------------------------------------
macintosh_2_002:
	.byte	W72
	.byte		N11   , Bn4 , v100
	.byte	W12
	.byte		N80   , An4 
	.byte	W12
	.byte	PEND
@ 003   ----------------------------------------
macintosh_2_003:
	.byte	W72
	.byte		N11   , Bn3 , v100
	.byte	W12
	.byte		N44   , Dn4 
	.byte	W12
	.byte	PEND
@ 004   ----------------------------------------
macintosh_2_004:
	.byte	W36
	.byte		N32   , Fs4 , v100
	.byte	W48
	.byte		N11   
	.byte	W12
	.byte	PEND
@ 005   ----------------------------------------
macintosh_2_005:
	.byte		N11   , En4 , v100
	.byte	W12
	.byte		        Dn4 
	.byte	W12
	.byte		        Cs4 
	.byte	W12
	.byte		N32   
	.byte	W36
	.byte		N11   , Bn3 
	.byte	W12
	.byte		N80   , Fs4 
	.byte	W12
	.byte	PEND
@ 006   ----------------------------------------
	.byte	W96
@ 007   ----------------------------------------
macintosh_2_007:
	.byte	W12
	.byte		N11   , Dn4 , v100
	.byte	W12
	.byte		N11   
	.byte	W24
	.byte		        En4 
	.byte	W12
	.byte		N11   
	.byte	W36
	.byte	PEND
@ 008   ----------------------------------------
macintosh_2_008:
	.byte		N32   , Bn3 , v100
	.byte	W36
	.byte		        Fs4 
	.byte	W48
	.byte		N11   
	.byte	W12
	.byte	PEND
@ 009   ----------------------------------------
	.byte	PATT
	 .word	macintosh_2_001
@ 010   ----------------------------------------
	.byte	PATT
	 .word	macintosh_2_002
@ 011   ----------------------------------------
	.byte	PATT
	 .word	macintosh_2_003
@ 012   ----------------------------------------
	.byte	PATT
	 .word	macintosh_2_004
@ 013   ----------------------------------------
	.byte	PATT
	 .word	macintosh_2_005
@ 014   ----------------------------------------
	.byte	W96
@ 015   ----------------------------------------
	.byte	PATT
	 .word	macintosh_2_007
@ 016   ----------------------------------------
	.byte	PATT
	 .word	macintosh_2_008
@ 017   ----------------------------------------
	.byte	PATT
	 .word	macintosh_2_001
@ 018   ----------------------------------------
	.byte	PATT
	 .word	macintosh_2_002
@ 019   ----------------------------------------
	.byte	PATT
	 .word	macintosh_2_003
@ 020   ----------------------------------------
	.byte	PATT
	 .word	macintosh_2_004
@ 021   ----------------------------------------
	.byte	PATT
	 .word	macintosh_2_005
@ 022   ----------------------------------------
	.byte	W96
@ 023   ----------------------------------------
	.byte	PATT
	 .word	macintosh_2_007
@ 024   ----------------------------------------
	.byte	PATT
	 .word	macintosh_2_008
@ 025   ----------------------------------------
	.byte	PATT
	 .word	macintosh_2_001
@ 026   ----------------------------------------
	.byte	PATT
	 .word	macintosh_2_002
@ 027   ----------------------------------------
	.byte	PATT
	 .word	macintosh_2_003
@ 028   ----------------------------------------
	.byte	PATT
	 .word	macintosh_2_004
@ 029   ----------------------------------------
	.byte	PATT
	 .word	macintosh_2_005
@ 030   ----------------------------------------
	.byte	W96
@ 031   ----------------------------------------
	.byte	PATT
	 .word	macintosh_2_007
@ 032   ----------------------------------------
	.byte	PATT
	 .word	macintosh_2_008
@ 033   ----------------------------------------
	.byte	PATT
	 .word	macintosh_2_001
@ 034   ----------------------------------------
	.byte	PATT
	 .word	macintosh_2_002
@ 035   ----------------------------------------
	.byte	PATT
	 .word	macintosh_2_003
@ 036   ----------------------------------------
	.byte	PATT
	 .word	macintosh_2_004
@ 037   ----------------------------------------
	.byte		N11   , En4 , v100
	.byte	W12
	.byte		        Dn4 
	.byte	W12
	.byte		        Cs4 
	.byte	W12
	.byte		N32   
	.byte	W60
@ 038   ----------------------------------------
	.byte	W96
@ 039   ----------------------------------------
	.byte	W96
@ 040   ----------------------------------------
	.byte	PATT
	 .word	macintosh_2_008
@ 041   ----------------------------------------
	.byte	PATT
	 .word	macintosh_2_001
@ 042   ----------------------------------------
	.byte	PATT
	 .word	macintosh_2_002
@ 043   ----------------------------------------
	.byte	PATT
	 .word	macintosh_2_003
@ 044   ----------------------------------------
	.byte	PATT
	 .word	macintosh_2_004
@ 045   ----------------------------------------
	.byte	PATT
	 .word	macintosh_2_005
@ 046   ----------------------------------------
	.byte	W96
@ 047   ----------------------------------------
	.byte	PATT
	 .word	macintosh_2_008
@ 048   ----------------------------------------
	.byte	PATT
	 .word	macintosh_2_001
@ 049   ----------------------------------------
	.byte	PATT
	 .word	macintosh_2_002
@ 050   ----------------------------------------
	.byte	PATT
	 .word	macintosh_2_003
@ 051   ----------------------------------------
	.byte	PATT
	 .word	macintosh_2_004
@ 052   ----------------------------------------
	.byte	PATT
	 .word	macintosh_2_005
@ 053   ----------------------------------------
	.byte	W96
@ 054   ----------------------------------------
	.byte	PATT
	 .word	macintosh_2_008
@ 055   ----------------------------------------
	.byte	PATT
	 .word	macintosh_2_001
@ 056   ----------------------------------------
	.byte	PATT
	 .word	macintosh_2_002
@ 057   ----------------------------------------
	.byte	PATT
	 .word	macintosh_2_003
@ 058   ----------------------------------------
	.byte	PATT
	 .word	macintosh_2_004
@ 059   ----------------------------------------
	.byte	PATT
	 .word	macintosh_2_005
@ 060   ----------------------------------------
	.byte	W96
@ 061   ----------------------------------------
	.byte	PATT
	 .word	macintosh_2_008
@ 062   ----------------------------------------
	.byte	PATT
	 .word	macintosh_2_001
@ 063   ----------------------------------------
	.byte	PATT
	 .word	macintosh_2_002
@ 064   ----------------------------------------
	.byte	PATT
	 .word	macintosh_2_003
@ 065   ----------------------------------------
	.byte	PATT
	 .word	macintosh_2_004
@ 066   ----------------------------------------
	.byte	PATT
	 .word	macintosh_2_005
@ 067   ----------------------------------------
	.byte	W96
@ 068   ----------------------------------------
	.byte	PATT
	 .word	macintosh_2_007
@ 069   ----------------------------------------
	.byte	W96
@ 070   ----------------------------------------
	.byte	W96
@ 071   ----------------------------------------
	.byte	W96
@ 072   ----------------------------------------
	.byte	W96
@ 073   ----------------------------------------
	.byte	W96
@ 074   ----------------------------------------
	.byte	W96
@ 075   ----------------------------------------
	.byte	W96
@ 076   ----------------------------------------
	.byte	W96
@ 077   ----------------------------------------
	.byte	W96
@ 078   ----------------------------------------
	.byte	W96
@ 079   ----------------------------------------
	.byte	W96
@ 080   ----------------------------------------
	.byte	W96
@ 081   ----------------------------------------
	.byte	W96
@ 082   ----------------------------------------
	.byte	W96
@ 083   ----------------------------------------
	.byte	W96
@ 084   ----------------------------------------
	.byte	W96
@ 085   ----------------------------------------
	.byte	W96
@ 086   ----------------------------------------
	.byte	W96
@ 087   ----------------------------------------
	.byte	W96
@ 088   ----------------------------------------
	.byte	W96
	.byte	GOTO
	 .word	macintosh_2_B1
macintosh_2_B2:
@ 089   ----------------------------------------
	.byte		VOICE , 74
	.byte		BEND  , c_v+0
	.byte	FINE

@**************** Track 3 (Midi-Chn.3) ****************@

macintosh_3:
	.byte	KEYSH , macintosh_key+0
macintosh_3_B1:
@ 000   ----------------------------------------
	.byte		VOICE , 4
	.byte		PAN   , c_v-5
	.byte		VOL   , 44*macintosh_mvl/mxv
	.byte		BEND  , c_v+0
	.byte	W96
@ 001   ----------------------------------------
macintosh_3_001:
	.byte		N11   , En4 , v100
	.byte	W12
	.byte		        Dn4 
	.byte	W12
	.byte		        Cs4 
	.byte	W12
	.byte		N32   
	.byte	W36
	.byte		N11   , Dn4 
	.byte	W12
	.byte		N56   , Bn3 
	.byte	W12
	.byte	PEND
@ 002   ----------------------------------------
macintosh_3_002:
	.byte	W72
	.byte		N11   , Bn3 , v100
	.byte	W12
	.byte		N80   , An3 
	.byte	W12
	.byte	PEND
@ 003   ----------------------------------------
macintosh_3_003:
	.byte	W72
	.byte		N11   , Bn3 , v100
	.byte	W12
	.byte		        Dn4 
	.byte	W12
	.byte	PEND
@ 004   ----------------------------------------
macintosh_3_004:
	.byte		N32   , Bn3 , v100
	.byte	W36
	.byte		        Fs4 
	.byte	W48
	.byte		N11   
	.byte	W12
	.byte	PEND
@ 005   ----------------------------------------
macintosh_3_005:
	.byte		N11   , En4 , v100
	.byte	W12
	.byte		        Dn4 
	.byte	W12
	.byte		        Cs4 
	.byte	W12
	.byte		N32   
	.byte	W36
	.byte		N11   , Bn3 
	.byte	W12
	.byte		N80   , Fs3 
	.byte	W12
	.byte	PEND
@ 006   ----------------------------------------
	.byte	W96
@ 007   ----------------------------------------
macintosh_3_007:
	.byte	W12
	.byte		N11   , Fs3 , v100
	.byte	W12
	.byte		N11   
	.byte	W24
	.byte		        An3 
	.byte	W12
	.byte		N11   
	.byte	W36
	.byte	PEND
@ 008   ----------------------------------------
	.byte	W96
@ 009   ----------------------------------------
	.byte	PATT
	 .word	macintosh_3_001
@ 010   ----------------------------------------
	.byte	PATT
	 .word	macintosh_3_002
@ 011   ----------------------------------------
	.byte	PATT
	 .word	macintosh_3_003
@ 012   ----------------------------------------
	.byte	PATT
	 .word	macintosh_3_004
@ 013   ----------------------------------------
	.byte	PATT
	 .word	macintosh_3_005
@ 014   ----------------------------------------
	.byte	W96
@ 015   ----------------------------------------
	.byte	PATT
	 .word	macintosh_3_007
@ 016   ----------------------------------------
	.byte	W96
@ 017   ----------------------------------------
	.byte	PATT
	 .word	macintosh_3_001
@ 018   ----------------------------------------
	.byte	PATT
	 .word	macintosh_3_002
@ 019   ----------------------------------------
	.byte	PATT
	 .word	macintosh_3_003
@ 020   ----------------------------------------
	.byte	PATT
	 .word	macintosh_3_004
@ 021   ----------------------------------------
	.byte	PATT
	 .word	macintosh_3_005
@ 022   ----------------------------------------
	.byte	W96
@ 023   ----------------------------------------
	.byte	PATT
	 .word	macintosh_3_007
@ 024   ----------------------------------------
	.byte	W96
@ 025   ----------------------------------------
	.byte	PATT
	 .word	macintosh_3_001
@ 026   ----------------------------------------
	.byte	PATT
	 .word	macintosh_3_002
@ 027   ----------------------------------------
	.byte	PATT
	 .word	macintosh_3_003
@ 028   ----------------------------------------
	.byte	PATT
	 .word	macintosh_3_004
@ 029   ----------------------------------------
	.byte	PATT
	 .word	macintosh_3_005
@ 030   ----------------------------------------
	.byte	W96
@ 031   ----------------------------------------
	.byte	PATT
	 .word	macintosh_3_007
@ 032   ----------------------------------------
	.byte	W96
@ 033   ----------------------------------------
	.byte	PATT
	 .word	macintosh_3_001
@ 034   ----------------------------------------
	.byte	PATT
	 .word	macintosh_3_002
@ 035   ----------------------------------------
	.byte	PATT
	 .word	macintosh_3_003
@ 036   ----------------------------------------
	.byte	PATT
	 .word	macintosh_3_004
@ 037   ----------------------------------------
	.byte		N11   , En4 , v100
	.byte	W12
	.byte		        Dn4 
	.byte	W12
	.byte		        Cs4 
	.byte	W12
	.byte		N32   
	.byte	W60
@ 038   ----------------------------------------
	.byte	W96
@ 039   ----------------------------------------
	.byte	W96
@ 040   ----------------------------------------
	.byte	W96
@ 041   ----------------------------------------
	.byte	PATT
	 .word	macintosh_3_001
@ 042   ----------------------------------------
	.byte	PATT
	 .word	macintosh_3_002
@ 043   ----------------------------------------
	.byte	PATT
	 .word	macintosh_3_003
@ 044   ----------------------------------------
	.byte	PATT
	 .word	macintosh_3_004
@ 045   ----------------------------------------
	.byte	PATT
	 .word	macintosh_3_005
@ 046   ----------------------------------------
	.byte	W96
@ 047   ----------------------------------------
	.byte	W96
@ 048   ----------------------------------------
	.byte	PATT
	 .word	macintosh_3_001
@ 049   ----------------------------------------
	.byte	PATT
	 .word	macintosh_3_002
@ 050   ----------------------------------------
	.byte	PATT
	 .word	macintosh_3_003
@ 051   ----------------------------------------
	.byte	PATT
	 .word	macintosh_3_004
@ 052   ----------------------------------------
	.byte	PATT
	 .word	macintosh_3_005
@ 053   ----------------------------------------
	.byte	W96
@ 054   ----------------------------------------
	.byte	W96
@ 055   ----------------------------------------
	.byte	PATT
	 .word	macintosh_3_001
@ 056   ----------------------------------------
	.byte	PATT
	 .word	macintosh_3_002
@ 057   ----------------------------------------
	.byte	PATT
	 .word	macintosh_3_003
@ 058   ----------------------------------------
	.byte	PATT
	 .word	macintosh_3_004
@ 059   ----------------------------------------
	.byte	PATT
	 .word	macintosh_3_005
@ 060   ----------------------------------------
	.byte	W96
@ 061   ----------------------------------------
	.byte	W96
@ 062   ----------------------------------------
	.byte	PATT
	 .word	macintosh_3_001
@ 063   ----------------------------------------
	.byte	PATT
	 .word	macintosh_3_002
@ 064   ----------------------------------------
	.byte	PATT
	 .word	macintosh_3_003
@ 065   ----------------------------------------
	.byte	PATT
	 .word	macintosh_3_004
@ 066   ----------------------------------------
	.byte	PATT
	 .word	macintosh_3_005
@ 067   ----------------------------------------
	.byte	W96
@ 068   ----------------------------------------
	.byte	PATT
	 .word	macintosh_3_007
@ 069   ----------------------------------------
	.byte	W96
@ 070   ----------------------------------------
	.byte	W96
@ 071   ----------------------------------------
	.byte	W96
@ 072   ----------------------------------------
	.byte	W96
@ 073   ----------------------------------------
	.byte	W96
@ 074   ----------------------------------------
	.byte	W96
@ 075   ----------------------------------------
	.byte	W96
@ 076   ----------------------------------------
	.byte	W96
@ 077   ----------------------------------------
	.byte	W96
@ 078   ----------------------------------------
	.byte	W96
@ 079   ----------------------------------------
	.byte	W96
@ 080   ----------------------------------------
	.byte	W96
@ 081   ----------------------------------------
	.byte	W96
@ 082   ----------------------------------------
	.byte	W96
@ 083   ----------------------------------------
	.byte	W96
@ 084   ----------------------------------------
	.byte	W96
@ 085   ----------------------------------------
	.byte	W96
@ 086   ----------------------------------------
	.byte	W96
@ 087   ----------------------------------------
	.byte	W96
@ 088   ----------------------------------------
	.byte	W96
	.byte	GOTO
	 .word	macintosh_3_B1
macintosh_3_B2:
@ 089   ----------------------------------------
	.byte		VOICE , 4
	.byte		BEND  , c_v+0
	.byte	FINE

@**************** Track 4 (Midi-Chn.4) ****************@

macintosh_4:
	.byte	KEYSH , macintosh_key+0
macintosh_4_B1:
@ 000   ----------------------------------------
	.byte		VOICE , 85
	.byte		PAN   , c_v+8
	.byte		VOL   , 63*macintosh_mvl/mxv
	.byte		BEND  , c_v+0
	.byte	W96
@ 001   ----------------------------------------
	.byte	W96
@ 002   ----------------------------------------
	.byte	W96
@ 003   ----------------------------------------
	.byte	W96
@ 004   ----------------------------------------
	.byte	W96
@ 005   ----------------------------------------
	.byte	W96
@ 006   ----------------------------------------
	.byte	W96
@ 007   ----------------------------------------
	.byte	W84
	.byte		N11   , Dn4 , v100
	.byte	W12
@ 008   ----------------------------------------
	.byte	W96
@ 009   ----------------------------------------
	.byte	W96
@ 010   ----------------------------------------
	.byte	W96
@ 011   ----------------------------------------
	.byte	W96
@ 012   ----------------------------------------
	.byte	W96
@ 013   ----------------------------------------
	.byte	W96
@ 014   ----------------------------------------
	.byte	W96
@ 015   ----------------------------------------
	.byte	W84
	.byte		N11   
	.byte	W12
@ 016   ----------------------------------------
	.byte	W96
@ 017   ----------------------------------------
	.byte	W96
@ 018   ----------------------------------------
	.byte	W96
@ 019   ----------------------------------------
	.byte	W96
@ 020   ----------------------------------------
	.byte	W96
@ 021   ----------------------------------------
	.byte	W96
@ 022   ----------------------------------------
	.byte	W96
@ 023   ----------------------------------------
	.byte	W84
	.byte		N11   
	.byte	W12
@ 024   ----------------------------------------
	.byte	W96
@ 025   ----------------------------------------
	.byte	W96
@ 026   ----------------------------------------
	.byte	W96
@ 027   ----------------------------------------
	.byte	W96
@ 028   ----------------------------------------
	.byte	W96
@ 029   ----------------------------------------
	.byte	W96
@ 030   ----------------------------------------
	.byte	W96
@ 031   ----------------------------------------
	.byte		N23   , Fs4 
	.byte	W60
	.byte		N11   , Dn4 
	.byte	W12
	.byte		        Fs4 
	.byte	W12
	.byte		N11   
	.byte	W12
@ 032   ----------------------------------------
	.byte	W72
	.byte		N23   
	.byte	W24
@ 033   ----------------------------------------
	.byte		N11   , En4 
	.byte	W12
	.byte		        Dn4 
	.byte	W12
	.byte		        Cs4 
	.byte	W12
	.byte		N32   
	.byte	W60
@ 034   ----------------------------------------
	.byte		N11   , Bn3 
	.byte	W12
	.byte		        Dn4 
	.byte	W12
	.byte		N11   
	.byte	W12
	.byte		        Bn3 
	.byte	W12
	.byte		        En4 
	.byte	W12
	.byte		N11   
	.byte	W36
@ 035   ----------------------------------------
	.byte	W48
	.byte		N23   , An3 
	.byte	W24
	.byte		N11   , An4 
	.byte	W12
	.byte		N11   
	.byte	W12
@ 036   ----------------------------------------
	.byte		        Fs4 
	.byte	W72
	.byte		N23   
	.byte	W24
@ 037   ----------------------------------------
	.byte		N11   , En4 
	.byte	W12
	.byte		        Dn4 
	.byte	W12
	.byte		        Cs4 
	.byte	W12
	.byte		N32   
	.byte	W48
	.byte		N11   , Bn3 
	.byte	W12
@ 038   ----------------------------------------
	.byte		N11   
	.byte	W12
	.byte		        Dn4 
	.byte	W12
	.byte		        Bn3 
	.byte	W12
	.byte		        Dn4 
	.byte	W12
	.byte		        Cs4 
	.byte	W24
	.byte		        Bn3 
	.byte	W12
	.byte		N23   , Dn4 
	.byte	W12
@ 039   ----------------------------------------
	.byte	W12
	.byte		N11   , Cs4 
	.byte	W12
	.byte		        Bn3 
	.byte	W12
	.byte		        Dn4 
	.byte	W12
	.byte		        Cs4 
	.byte	W24
	.byte		N11   
	.byte	W12
	.byte		N11   
	.byte	W12
@ 040   ----------------------------------------
	.byte	W96
@ 041   ----------------------------------------
	.byte	W96
@ 042   ----------------------------------------
	.byte	W96
@ 043   ----------------------------------------
	.byte	W96
@ 044   ----------------------------------------
	.byte	W96
@ 045   ----------------------------------------
	.byte	W96
@ 046   ----------------------------------------
	.byte	W96
@ 047   ----------------------------------------
	.byte	W96
@ 048   ----------------------------------------
	.byte	W96
@ 049   ----------------------------------------
	.byte	W96
@ 050   ----------------------------------------
	.byte	W96
@ 051   ----------------------------------------
	.byte	W96
@ 052   ----------------------------------------
	.byte	W96
@ 053   ----------------------------------------
	.byte	W96
@ 054   ----------------------------------------
	.byte	W96
@ 055   ----------------------------------------
	.byte	W96
@ 056   ----------------------------------------
	.byte	W96
@ 057   ----------------------------------------
	.byte	W96
@ 058   ----------------------------------------
	.byte	W96
@ 059   ----------------------------------------
	.byte	W96
@ 060   ----------------------------------------
	.byte	W96
@ 061   ----------------------------------------
	.byte	W96
@ 062   ----------------------------------------
	.byte	W96
@ 063   ----------------------------------------
	.byte	W96
@ 064   ----------------------------------------
	.byte	W96
@ 065   ----------------------------------------
	.byte	W96
@ 066   ----------------------------------------
	.byte	W96
@ 067   ----------------------------------------
	.byte	W96
@ 068   ----------------------------------------
	.byte	W96
@ 069   ----------------------------------------
macintosh_4_069:
	.byte		N11   , Fs3 , v100
	.byte	W12
	.byte		        An3 
	.byte	W12
	.byte		        Fs3 
	.byte	W12
	.byte		        Bn3 
	.byte	W60
	.byte	PEND
@ 070   ----------------------------------------
	.byte	W96
@ 071   ----------------------------------------
	.byte	PATT
	 .word	macintosh_4_069
@ 072   ----------------------------------------
	.byte	W96
@ 073   ----------------------------------------
	.byte	PATT
	 .word	macintosh_4_069
@ 074   ----------------------------------------
	.byte	W96
@ 075   ----------------------------------------
	.byte	PATT
	 .word	macintosh_4_069
@ 076   ----------------------------------------
	.byte	W96
@ 077   ----------------------------------------
	.byte	PATT
	 .word	macintosh_4_069
@ 078   ----------------------------------------
	.byte	W96
@ 079   ----------------------------------------
	.byte	PATT
	 .word	macintosh_4_069
@ 080   ----------------------------------------
	.byte	W96
@ 081   ----------------------------------------
	.byte	PATT
	 .word	macintosh_4_069
@ 082   ----------------------------------------
	.byte	W96
@ 083   ----------------------------------------
	.byte	PATT
	 .word	macintosh_4_069
@ 084   ----------------------------------------
	.byte	W96
@ 085   ----------------------------------------
	.byte		N11   , Dn4 , v100
	.byte	W24
	.byte		N11   
	.byte	W12
	.byte		N11   
	.byte	W12
	.byte		        Bn3 
	.byte	W12
	.byte		        An3 
	.byte	W12
	.byte		N11   
	.byte	W12
	.byte		        Fs3 
	.byte	W12
@ 086   ----------------------------------------
	.byte		        An3 
	.byte	W12
	.byte		N11   
	.byte	W24
	.byte		N23   , Bn3 
	.byte	W36
	.byte		N11   , Dn3 
	.byte	W12
	.byte		N11   
	.byte	W12
@ 087   ----------------------------------------
	.byte	PATT
	 .word	macintosh_4_069
@ 088   ----------------------------------------
	.byte	W96
	.byte	GOTO
	 .word	macintosh_4_B1
macintosh_4_B2:
@ 089   ----------------------------------------
	.byte		VOICE , 85
	.byte		BEND  , c_v+0
	.byte	FINE

@**************** Track 5 (Midi-Chn.5) ****************@

macintosh_5:
	.byte	KEYSH , macintosh_key+0
macintosh_5_B1:
@ 000   ----------------------------------------
	.byte		VOICE , 51
	.byte		PAN   , c_v+0
	.byte		VOL   , 52*macintosh_mvl/mxv
	.byte		BEND  , c_v+0
	.byte		N92   , Bn0 , v100
	.byte		N92   , Bn1 
	.byte	W96
@ 001   ----------------------------------------
	.byte		        An0 
	.byte		N92   , An1 
	.byte	W96
@ 002   ----------------------------------------
	.byte		        En0 
	.byte		N92   , En1 
	.byte	W96
@ 003   ----------------------------------------
	.byte		        Fs0 
	.byte		N92   , Fs1 
	.byte	W96
@ 004   ----------------------------------------
	.byte		        Bn0 
	.byte		N92   , Bn1 
	.byte	W96
@ 005   ----------------------------------------
	.byte		        An0 
	.byte		N92   , An1 
	.byte	W96
@ 006   ----------------------------------------
	.byte		        En0 
	.byte		N92   , En1 
	.byte	W96
@ 007   ----------------------------------------
macintosh_5_007:
	.byte		N44   , Gn0 , v100
	.byte		N44   , Gn1 
	.byte	W48
	.byte		        An0 
	.byte		N44   , An1 
	.byte	W48
	.byte	PEND
@ 008   ----------------------------------------
	.byte		N92   , Bn0 
	.byte		N92   , Bn1 
	.byte	W96
@ 009   ----------------------------------------
	.byte		        An0 
	.byte		N92   , An1 
	.byte	W96
@ 010   ----------------------------------------
	.byte		        En0 
	.byte		N92   , En1 
	.byte	W96
@ 011   ----------------------------------------
	.byte		        Fs0 
	.byte		N92   , Fs1 
	.byte	W96
@ 012   ----------------------------------------
	.byte		        Bn0 
	.byte		N92   , Bn1 
	.byte	W96
@ 013   ----------------------------------------
	.byte		        An0 
	.byte		N92   , An1 
	.byte	W96
@ 014   ----------------------------------------
	.byte		        En0 
	.byte		N92   , En1 
	.byte	W96
@ 015   ----------------------------------------
	.byte	PATT
	 .word	macintosh_5_007
@ 016   ----------------------------------------
	.byte		N92   , Bn0 , v100
	.byte		N92   , Bn1 
	.byte	W96
@ 017   ----------------------------------------
	.byte		        An0 
	.byte		N92   , An1 
	.byte	W96
@ 018   ----------------------------------------
	.byte		        En0 
	.byte		N92   , En1 
	.byte	W96
@ 019   ----------------------------------------
	.byte		        Fs0 
	.byte		N92   , Fs1 
	.byte	W96
@ 020   ----------------------------------------
	.byte		        Bn0 
	.byte		N92   , Bn1 
	.byte	W96
@ 021   ----------------------------------------
	.byte		        An0 
	.byte		N92   , An1 
	.byte	W96
@ 022   ----------------------------------------
	.byte		        En0 
	.byte		N92   , En1 
	.byte	W96
@ 023   ----------------------------------------
	.byte	PATT
	 .word	macintosh_5_007
@ 024   ----------------------------------------
	.byte		N92   , Bn0 , v100
	.byte		N92   , Bn1 
	.byte	W96
@ 025   ----------------------------------------
	.byte		        An0 
	.byte		N92   , An1 
	.byte	W96
@ 026   ----------------------------------------
	.byte		        En0 
	.byte		N92   , En1 
	.byte	W96
@ 027   ----------------------------------------
	.byte		        Fs0 
	.byte		N92   , Fs1 
	.byte	W96
@ 028   ----------------------------------------
	.byte		        Bn0 
	.byte		N92   , Bn1 
	.byte	W96
@ 029   ----------------------------------------
	.byte		        An0 
	.byte		N92   , An1 
	.byte	W96
@ 030   ----------------------------------------
	.byte		        En0 
	.byte		N92   , En1 
	.byte	W96
@ 031   ----------------------------------------
	.byte	PATT
	 .word	macintosh_5_007
@ 032   ----------------------------------------
	.byte		N92   , Bn0 , v100
	.byte		N92   , Bn1 
	.byte	W96
@ 033   ----------------------------------------
	.byte		        An0 
	.byte		N92   , An1 
	.byte	W96
@ 034   ----------------------------------------
	.byte		        En0 
	.byte		N92   , En1 
	.byte	W96
@ 035   ----------------------------------------
	.byte		        Fs0 
	.byte		N92   , Fs1 
	.byte	W96
@ 036   ----------------------------------------
	.byte		        Bn0 
	.byte		N92   , Bn1 
	.byte	W96
@ 037   ----------------------------------------
	.byte		        An0 
	.byte		N92   , An1 
	.byte	W96
@ 038   ----------------------------------------
	.byte		        En0 
	.byte		N92   , En1 
	.byte	W96
@ 039   ----------------------------------------
	.byte	PATT
	 .word	macintosh_5_007
@ 040   ----------------------------------------
	.byte		N92   , Bn0 , v100
	.byte		N92   , Bn1 
	.byte	W96
@ 041   ----------------------------------------
	.byte		        An0 
	.byte		N92   , An1 
	.byte	W96
@ 042   ----------------------------------------
	.byte		        En0 
	.byte		N92   , En1 
	.byte	W96
@ 043   ----------------------------------------
	.byte		        Fs0 
	.byte		N92   , Fs1 
	.byte	W96
@ 044   ----------------------------------------
	.byte		        Bn0 
	.byte		N92   , Bn1 
	.byte	W96
@ 045   ----------------------------------------
	.byte		        An0 
	.byte		N92   , An1 
	.byte	W96
@ 046   ----------------------------------------
	.byte		        En0 
	.byte		N92   , En1 
	.byte	W96
@ 047   ----------------------------------------
	.byte		        Bn0 
	.byte		N92   , Bn1 
	.byte	W96
@ 048   ----------------------------------------
	.byte		        An0 
	.byte		N92   , An1 
	.byte	W96
@ 049   ----------------------------------------
	.byte		        En0 
	.byte		N92   , En1 
	.byte	W96
@ 050   ----------------------------------------
	.byte		        Fs0 
	.byte		N92   , Fs1 
	.byte	W96
@ 051   ----------------------------------------
	.byte		        Bn0 
	.byte		N92   , Bn1 
	.byte	W96
@ 052   ----------------------------------------
	.byte		        An0 
	.byte		N92   , An1 
	.byte	W96
@ 053   ----------------------------------------
	.byte		        En0 
	.byte		N92   , En1 
	.byte	W96
@ 054   ----------------------------------------
	.byte		        Bn0 
	.byte		N92   , Bn1 
	.byte	W96
@ 055   ----------------------------------------
	.byte		        An0 
	.byte		N92   , An1 
	.byte	W96
@ 056   ----------------------------------------
	.byte		        En0 
	.byte		N92   , En1 
	.byte	W96
@ 057   ----------------------------------------
	.byte		        Fs0 
	.byte		N92   , Fs1 
	.byte	W96
@ 058   ----------------------------------------
	.byte		        Bn0 
	.byte		N92   , Bn1 
	.byte	W96
@ 059   ----------------------------------------
	.byte		        An0 
	.byte		N92   , An1 
	.byte	W96
@ 060   ----------------------------------------
	.byte		        En0 
	.byte		N92   , En1 
	.byte	W96
@ 061   ----------------------------------------
	.byte		        Bn0 
	.byte		N92   , Bn1 
	.byte	W96
@ 062   ----------------------------------------
	.byte		        An0 
	.byte		N92   , An1 
	.byte	W96
@ 063   ----------------------------------------
	.byte		        En0 
	.byte		N92   , En1 
	.byte	W96
@ 064   ----------------------------------------
	.byte		        Fs0 
	.byte		N92   , Fs1 
	.byte	W96
@ 065   ----------------------------------------
	.byte		        Bn0 
	.byte		N92   , Bn1 
	.byte	W96
@ 066   ----------------------------------------
	.byte		        An0 
	.byte		N92   , An1 
	.byte	W96
@ 067   ----------------------------------------
	.byte		        En0 
	.byte		N92   , En1 
	.byte	W96
@ 068   ----------------------------------------
	.byte	PATT
	 .word	macintosh_5_007
@ 069   ----------------------------------------
macintosh_5_069:
	.byte		N32   , En0 , v100
	.byte		N32   , En1 
	.byte	W36
	.byte		N56   , Fs0 
	.byte		N56   , Fs1 
	.byte	W60
	.byte	PEND
@ 070   ----------------------------------------
macintosh_5_070:
	.byte		N32   , Gn0 , v100
	.byte		N32   , Gn1 
	.byte	W36
	.byte		N56   , An0 
	.byte		N56   , An1 
	.byte	W60
	.byte	PEND
@ 071   ----------------------------------------
	.byte	PATT
	 .word	macintosh_5_069
@ 072   ----------------------------------------
	.byte	PATT
	 .word	macintosh_5_070
@ 073   ----------------------------------------
	.byte	PATT
	 .word	macintosh_5_069
@ 074   ----------------------------------------
	.byte	PATT
	 .word	macintosh_5_070
@ 075   ----------------------------------------
	.byte	PATT
	 .word	macintosh_5_069
@ 076   ----------------------------------------
	.byte	PATT
	 .word	macintosh_5_070
@ 077   ----------------------------------------
	.byte	PATT
	 .word	macintosh_5_069
@ 078   ----------------------------------------
	.byte	PATT
	 .word	macintosh_5_070
@ 079   ----------------------------------------
	.byte	PATT
	 .word	macintosh_5_069
@ 080   ----------------------------------------
	.byte	PATT
	 .word	macintosh_5_070
@ 081   ----------------------------------------
	.byte	PATT
	 .word	macintosh_5_069
@ 082   ----------------------------------------
	.byte	PATT
	 .word	macintosh_5_070
@ 083   ----------------------------------------
	.byte	PATT
	 .word	macintosh_5_069
@ 084   ----------------------------------------
	.byte	PATT
	 .word	macintosh_5_070
@ 085   ----------------------------------------
	.byte		N92   , Bn0 , v100
	.byte		N92   , Bn1 
	.byte	W96
@ 086   ----------------------------------------
	.byte		        An0 
	.byte		N92   , An1 
	.byte	W96
@ 087   ----------------------------------------
	.byte	PATT
	 .word	macintosh_5_069
@ 088   ----------------------------------------
	.byte	PATT
	 .word	macintosh_5_070
	.byte	GOTO
	 .word	macintosh_5_B1
macintosh_5_B2:
@ 089   ----------------------------------------
	.byte		VOICE , 51
	.byte		BEND  , c_v+0
	.byte	FINE

@**************** Track 6 (Midi-Chn.6) ****************@

macintosh_6:
	.byte	KEYSH , macintosh_key+0
macintosh_6_B1:
@ 000   ----------------------------------------
	.byte		VOICE , 36
	.byte		PAN   , c_v+6
	.byte		VOL   , 51*macintosh_mvl/mxv
	.byte		BEND  , c_v+0
	.byte	W12
	.byte		N05   , Bn1 , v100
	.byte	W12
	.byte		N05   
	.byte	W24
	.byte		N05   
	.byte	W12
	.byte		N05   
	.byte	W24
	.byte		N05   
	.byte	W12
@ 001   ----------------------------------------
macintosh_6_001:
	.byte	W12
	.byte		N05   , An1 , v100
	.byte	W12
	.byte		N05   
	.byte	W24
	.byte		N05   
	.byte	W12
	.byte		N05   
	.byte	W24
	.byte		N05   
	.byte	W12
	.byte	PEND
@ 002   ----------------------------------------
macintosh_6_002:
	.byte	W12
	.byte		N05   , En1 , v100
	.byte	W12
	.byte		N05   
	.byte	W24
	.byte		N05   
	.byte	W12
	.byte		N05   
	.byte	W24
	.byte		N05   
	.byte	W12
	.byte	PEND
@ 003   ----------------------------------------
macintosh_6_003:
	.byte	W12
	.byte		N05   , Fs1 , v100
	.byte	W12
	.byte		N05   
	.byte	W24
	.byte		N05   
	.byte	W12
	.byte		N05   
	.byte	W24
	.byte		N05   
	.byte	W12
	.byte	PEND
@ 004   ----------------------------------------
macintosh_6_004:
	.byte	W12
	.byte		N05   , Bn1 , v100
	.byte	W12
	.byte		N05   
	.byte	W24
	.byte		N05   
	.byte	W12
	.byte		N05   
	.byte	W24
	.byte		N05   
	.byte	W12
	.byte	PEND
@ 005   ----------------------------------------
	.byte	PATT
	 .word	macintosh_6_001
@ 006   ----------------------------------------
	.byte	PATT
	 .word	macintosh_6_002
@ 007   ----------------------------------------
macintosh_6_007:
	.byte	W12
	.byte		N05   , Gn1 , v100
	.byte	W12
	.byte		N05   
	.byte	W24
	.byte		        An1 
	.byte	W12
	.byte		N05   
	.byte	W24
	.byte		        Dn2 
	.byte	W12
	.byte	PEND
@ 008   ----------------------------------------
	.byte	PATT
	 .word	macintosh_6_004
@ 009   ----------------------------------------
	.byte	PATT
	 .word	macintosh_6_001
@ 010   ----------------------------------------
	.byte	PATT
	 .word	macintosh_6_002
@ 011   ----------------------------------------
	.byte	PATT
	 .word	macintosh_6_003
@ 012   ----------------------------------------
	.byte	PATT
	 .word	macintosh_6_004
@ 013   ----------------------------------------
	.byte	PATT
	 .word	macintosh_6_001
@ 014   ----------------------------------------
	.byte	PATT
	 .word	macintosh_6_002
@ 015   ----------------------------------------
	.byte	PATT
	 .word	macintosh_6_007
@ 016   ----------------------------------------
	.byte	PATT
	 .word	macintosh_6_004
@ 017   ----------------------------------------
	.byte	PATT
	 .word	macintosh_6_001
@ 018   ----------------------------------------
	.byte	PATT
	 .word	macintosh_6_002
@ 019   ----------------------------------------
	.byte	PATT
	 .word	macintosh_6_003
@ 020   ----------------------------------------
	.byte	PATT
	 .word	macintosh_6_004
@ 021   ----------------------------------------
	.byte	PATT
	 .word	macintosh_6_001
@ 022   ----------------------------------------
	.byte	PATT
	 .word	macintosh_6_002
@ 023   ----------------------------------------
	.byte	PATT
	 .word	macintosh_6_007
@ 024   ----------------------------------------
	.byte	PATT
	 .word	macintosh_6_004
@ 025   ----------------------------------------
	.byte	PATT
	 .word	macintosh_6_001
@ 026   ----------------------------------------
	.byte	PATT
	 .word	macintosh_6_002
@ 027   ----------------------------------------
	.byte	PATT
	 .word	macintosh_6_003
@ 028   ----------------------------------------
	.byte	PATT
	 .word	macintosh_6_004
@ 029   ----------------------------------------
	.byte	PATT
	 .word	macintosh_6_001
@ 030   ----------------------------------------
	.byte	PATT
	 .word	macintosh_6_002
@ 031   ----------------------------------------
	.byte	PATT
	 .word	macintosh_6_007
@ 032   ----------------------------------------
	.byte	PATT
	 .word	macintosh_6_004
@ 033   ----------------------------------------
	.byte	PATT
	 .word	macintosh_6_001
@ 034   ----------------------------------------
	.byte	PATT
	 .word	macintosh_6_002
@ 035   ----------------------------------------
	.byte	PATT
	 .word	macintosh_6_003
@ 036   ----------------------------------------
	.byte	PATT
	 .word	macintosh_6_004
@ 037   ----------------------------------------
	.byte	PATT
	 .word	macintosh_6_001
@ 038   ----------------------------------------
	.byte	PATT
	 .word	macintosh_6_002
@ 039   ----------------------------------------
	.byte	PATT
	 .word	macintosh_6_007
@ 040   ----------------------------------------
	.byte	PATT
	 .word	macintosh_6_004
@ 041   ----------------------------------------
	.byte	PATT
	 .word	macintosh_6_001
@ 042   ----------------------------------------
	.byte	PATT
	 .word	macintosh_6_002
@ 043   ----------------------------------------
	.byte	PATT
	 .word	macintosh_6_003
@ 044   ----------------------------------------
	.byte	PATT
	 .word	macintosh_6_004
@ 045   ----------------------------------------
	.byte	PATT
	 .word	macintosh_6_001
@ 046   ----------------------------------------
	.byte	PATT
	 .word	macintosh_6_002
@ 047   ----------------------------------------
	.byte	PATT
	 .word	macintosh_6_004
@ 048   ----------------------------------------
	.byte	PATT
	 .word	macintosh_6_001
@ 049   ----------------------------------------
	.byte	PATT
	 .word	macintosh_6_002
@ 050   ----------------------------------------
	.byte	PATT
	 .word	macintosh_6_003
@ 051   ----------------------------------------
	.byte	PATT
	 .word	macintosh_6_004
@ 052   ----------------------------------------
	.byte	PATT
	 .word	macintosh_6_001
@ 053   ----------------------------------------
	.byte	PATT
	 .word	macintosh_6_002
@ 054   ----------------------------------------
	.byte	PATT
	 .word	macintosh_6_004
@ 055   ----------------------------------------
	.byte	PATT
	 .word	macintosh_6_001
@ 056   ----------------------------------------
	.byte	PATT
	 .word	macintosh_6_002
@ 057   ----------------------------------------
	.byte	PATT
	 .word	macintosh_6_003
@ 058   ----------------------------------------
	.byte	PATT
	 .word	macintosh_6_004
@ 059   ----------------------------------------
	.byte	PATT
	 .word	macintosh_6_001
@ 060   ----------------------------------------
	.byte	PATT
	 .word	macintosh_6_002
@ 061   ----------------------------------------
	.byte	PATT
	 .word	macintosh_6_004
@ 062   ----------------------------------------
	.byte	PATT
	 .word	macintosh_6_001
@ 063   ----------------------------------------
	.byte	PATT
	 .word	macintosh_6_002
@ 064   ----------------------------------------
	.byte	PATT
	 .word	macintosh_6_003
@ 065   ----------------------------------------
	.byte	PATT
	 .word	macintosh_6_004
@ 066   ----------------------------------------
	.byte	PATT
	 .word	macintosh_6_001
@ 067   ----------------------------------------
	.byte	PATT
	 .word	macintosh_6_002
@ 068   ----------------------------------------
	.byte	PATT
	 .word	macintosh_6_007
@ 069   ----------------------------------------
macintosh_6_069:
	.byte		N05   , En1 , v100
	.byte	W12
	.byte		N05   
	.byte	W12
	.byte		N05   
	.byte	W12
	.byte		        Fs1 
	.byte	W12
	.byte		N05   
	.byte	W12
	.byte		N05   
	.byte	W12
	.byte		N05   
	.byte	W12
	.byte		N05   
	.byte	W12
	.byte	PEND
@ 070   ----------------------------------------
macintosh_6_070:
	.byte		N05   , Gn1 , v100
	.byte	W12
	.byte		N05   
	.byte	W12
	.byte		N05   
	.byte	W12
	.byte		        An1 
	.byte	W12
	.byte		N05   
	.byte	W12
	.byte		N05   
	.byte	W12
	.byte		N05   
	.byte	W12
	.byte		N05   
	.byte	W12
	.byte	PEND
@ 071   ----------------------------------------
	.byte	PATT
	 .word	macintosh_6_069
@ 072   ----------------------------------------
	.byte	PATT
	 .word	macintosh_6_070
@ 073   ----------------------------------------
	.byte	PATT
	 .word	macintosh_6_069
@ 074   ----------------------------------------
	.byte	PATT
	 .word	macintosh_6_070
@ 075   ----------------------------------------
	.byte	PATT
	 .word	macintosh_6_069
@ 076   ----------------------------------------
	.byte	PATT
	 .word	macintosh_6_070
@ 077   ----------------------------------------
	.byte	PATT
	 .word	macintosh_6_069
@ 078   ----------------------------------------
	.byte	PATT
	 .word	macintosh_6_070
@ 079   ----------------------------------------
	.byte	PATT
	 .word	macintosh_6_069
@ 080   ----------------------------------------
	.byte	PATT
	 .word	macintosh_6_070
@ 081   ----------------------------------------
	.byte	PATT
	 .word	macintosh_6_069
@ 082   ----------------------------------------
	.byte	PATT
	 .word	macintosh_6_070
@ 083   ----------------------------------------
	.byte	PATT
	 .word	macintosh_6_069
@ 084   ----------------------------------------
	.byte	PATT
	 .word	macintosh_6_070
@ 085   ----------------------------------------
	.byte	PATT
	 .word	macintosh_6_004
@ 086   ----------------------------------------
	.byte	PATT
	 .word	macintosh_6_001
@ 087   ----------------------------------------
	.byte	PATT
	 .word	macintosh_6_069
@ 088   ----------------------------------------
	.byte	PATT
	 .word	macintosh_6_070
	.byte	GOTO
	 .word	macintosh_6_B1
macintosh_6_B2:
@ 089   ----------------------------------------
	.byte		VOICE , 36
	.byte		BEND  , c_v+0
	.byte	FINE

@**************** Track 7 (Midi-Chn.7) ****************@

macintosh_7:
	.byte	KEYSH , macintosh_key+0
macintosh_7_B1:
@ 000   ----------------------------------------
	.byte		VOICE , 124
	.byte		PAN   , c_v-8
	.byte		VOL   , 38*macintosh_mvl/mxv
	.byte		BEND  , c_v+0
	.byte		N11   , Cn1 , v100
	.byte	W12
	.byte		N11   
	.byte	W12
	.byte		N11   
	.byte		N11   , Dn1 
	.byte	W12
	.byte		        Cn1 
	.byte	W12
	.byte		N11   
	.byte	W12
	.byte		N11   
	.byte	W12
	.byte		N11   
	.byte		N11   , Dn1 
	.byte	W12
	.byte		        Cn1 
	.byte	W12
@ 001   ----------------------------------------
macintosh_7_001:
	.byte		N11   , Cn1 , v100
	.byte	W12
	.byte		N11   
	.byte	W12
	.byte		N11   
	.byte		N11   , Dn1 
	.byte	W12
	.byte		        Cn1 
	.byte	W12
	.byte		N11   
	.byte	W12
	.byte		N11   
	.byte	W12
	.byte		N11   
	.byte		N11   , Dn1 
	.byte	W12
	.byte		        Cn1 
	.byte	W12
	.byte	PEND
@ 002   ----------------------------------------
	.byte	PATT
	 .word	macintosh_7_001
@ 003   ----------------------------------------
	.byte	PATT
	 .word	macintosh_7_001
@ 004   ----------------------------------------
	.byte	PATT
	 .word	macintosh_7_001
@ 005   ----------------------------------------
	.byte	PATT
	 .word	macintosh_7_001
@ 006   ----------------------------------------
	.byte	PATT
	 .word	macintosh_7_001
@ 007   ----------------------------------------
	.byte	PATT
	 .word	macintosh_7_001
@ 008   ----------------------------------------
	.byte	PATT
	 .word	macintosh_7_001
@ 009   ----------------------------------------
	.byte	PATT
	 .word	macintosh_7_001
@ 010   ----------------------------------------
	.byte	PATT
	 .word	macintosh_7_001
@ 011   ----------------------------------------
	.byte	PATT
	 .word	macintosh_7_001
@ 012   ----------------------------------------
	.byte	PATT
	 .word	macintosh_7_001
@ 013   ----------------------------------------
	.byte	PATT
	 .word	macintosh_7_001
@ 014   ----------------------------------------
	.byte	PATT
	 .word	macintosh_7_001
@ 015   ----------------------------------------
	.byte	PATT
	 .word	macintosh_7_001
@ 016   ----------------------------------------
	.byte	PATT
	 .word	macintosh_7_001
@ 017   ----------------------------------------
	.byte	PATT
	 .word	macintosh_7_001
@ 018   ----------------------------------------
	.byte	PATT
	 .word	macintosh_7_001
@ 019   ----------------------------------------
	.byte	PATT
	 .word	macintosh_7_001
@ 020   ----------------------------------------
	.byte	PATT
	 .word	macintosh_7_001
@ 021   ----------------------------------------
	.byte	PATT
	 .word	macintosh_7_001
@ 022   ----------------------------------------
	.byte	PATT
	 .word	macintosh_7_001
@ 023   ----------------------------------------
	.byte	PATT
	 .word	macintosh_7_001
@ 024   ----------------------------------------
	.byte	PATT
	 .word	macintosh_7_001
@ 025   ----------------------------------------
	.byte	PATT
	 .word	macintosh_7_001
@ 026   ----------------------------------------
	.byte	PATT
	 .word	macintosh_7_001
@ 027   ----------------------------------------
	.byte	PATT
	 .word	macintosh_7_001
@ 028   ----------------------------------------
	.byte	PATT
	 .word	macintosh_7_001
@ 029   ----------------------------------------
	.byte	PATT
	 .word	macintosh_7_001
@ 030   ----------------------------------------
	.byte	PATT
	 .word	macintosh_7_001
@ 031   ----------------------------------------
	.byte	PATT
	 .word	macintosh_7_001
@ 032   ----------------------------------------
	.byte	PATT
	 .word	macintosh_7_001
@ 033   ----------------------------------------
	.byte	PATT
	 .word	macintosh_7_001
@ 034   ----------------------------------------
	.byte	PATT
	 .word	macintosh_7_001
@ 035   ----------------------------------------
	.byte	PATT
	 .word	macintosh_7_001
@ 036   ----------------------------------------
	.byte	PATT
	 .word	macintosh_7_001
@ 037   ----------------------------------------
	.byte	PATT
	 .word	macintosh_7_001
@ 038   ----------------------------------------
	.byte	PATT
	 .word	macintosh_7_001
@ 039   ----------------------------------------
	.byte	PATT
	 .word	macintosh_7_001
@ 040   ----------------------------------------
	.byte	PATT
	 .word	macintosh_7_001
@ 041   ----------------------------------------
	.byte	PATT
	 .word	macintosh_7_001
@ 042   ----------------------------------------
	.byte	PATT
	 .word	macintosh_7_001
@ 043   ----------------------------------------
	.byte	PATT
	 .word	macintosh_7_001
@ 044   ----------------------------------------
	.byte	PATT
	 .word	macintosh_7_001
@ 045   ----------------------------------------
	.byte	PATT
	 .word	macintosh_7_001
@ 046   ----------------------------------------
	.byte	PATT
	 .word	macintosh_7_001
@ 047   ----------------------------------------
macintosh_7_047:
	.byte		N11   , Cn1 , v100
	.byte		N11   , Dn2 
	.byte	W12
	.byte		        Cn1 
	.byte		N05   , Dn2 
	.byte	W06
	.byte		N05   
	.byte	W06
	.byte		N11   , Cn1 
	.byte		N11   , Dn1 
	.byte		N11   , Dn2 
	.byte	W12
	.byte		        Cn1 
	.byte		N05   , Dn2 
	.byte	W06
	.byte		N05   
	.byte	W06
	.byte		N11   , Cn1 
	.byte		N11   , Dn2 
	.byte	W12
	.byte		        Cn1 
	.byte		N05   , Dn2 
	.byte	W06
	.byte		N05   
	.byte	W06
	.byte		N11   , Cn1 
	.byte		N11   , Dn1 
	.byte		N11   , Dn2 
	.byte	W12
	.byte		        Cn1 
	.byte		N05   , Dn2 
	.byte	W06
	.byte		N05   
	.byte	W06
	.byte	PEND
@ 048   ----------------------------------------
	.byte	PATT
	 .word	macintosh_7_047
@ 049   ----------------------------------------
	.byte	PATT
	 .word	macintosh_7_047
@ 050   ----------------------------------------
	.byte	PATT
	 .word	macintosh_7_047
@ 051   ----------------------------------------
	.byte	PATT
	 .word	macintosh_7_047
@ 052   ----------------------------------------
	.byte	PATT
	 .word	macintosh_7_047
@ 053   ----------------------------------------
	.byte	PATT
	 .word	macintosh_7_047
@ 054   ----------------------------------------
	.byte	PATT
	 .word	macintosh_7_047
@ 055   ----------------------------------------
	.byte	PATT
	 .word	macintosh_7_047
@ 056   ----------------------------------------
	.byte	PATT
	 .word	macintosh_7_047
@ 057   ----------------------------------------
	.byte	PATT
	 .word	macintosh_7_047
@ 058   ----------------------------------------
	.byte	PATT
	 .word	macintosh_7_047
@ 059   ----------------------------------------
	.byte	PATT
	 .word	macintosh_7_047
@ 060   ----------------------------------------
	.byte	PATT
	 .word	macintosh_7_047
@ 061   ----------------------------------------
	.byte	PATT
	 .word	macintosh_7_047
@ 062   ----------------------------------------
	.byte	PATT
	 .word	macintosh_7_047
@ 063   ----------------------------------------
	.byte	PATT
	 .word	macintosh_7_047
@ 064   ----------------------------------------
	.byte	PATT
	 .word	macintosh_7_047
@ 065   ----------------------------------------
	.byte	PATT
	 .word	macintosh_7_047
@ 066   ----------------------------------------
	.byte	PATT
	 .word	macintosh_7_047
@ 067   ----------------------------------------
	.byte	PATT
	 .word	macintosh_7_047
@ 068   ----------------------------------------
	.byte	PATT
	 .word	macintosh_7_047
@ 069   ----------------------------------------
	.byte	PATT
	 .word	macintosh_7_001
@ 070   ----------------------------------------
	.byte	PATT
	 .word	macintosh_7_001
@ 071   ----------------------------------------
	.byte	PATT
	 .word	macintosh_7_001
@ 072   ----------------------------------------
	.byte	PATT
	 .word	macintosh_7_001
@ 073   ----------------------------------------
macintosh_7_073:
	.byte		N05   , Cn1 , v100
	.byte	W06
	.byte		N05   
	.byte	W06
	.byte		N05   
	.byte	W06
	.byte		N05   
	.byte	W06
	.byte		N05   
	.byte		N05   , Dn1 
	.byte	W06
	.byte		        Cn1 
	.byte		N05   , Dn1 
	.byte	W06
	.byte		        Cn1 
	.byte	W06
	.byte		N05   
	.byte	W06
	.byte		N05   
	.byte	W06
	.byte		N05   
	.byte	W06
	.byte		N05   
	.byte	W06
	.byte		N05   
	.byte	W06
	.byte		N05   
	.byte		N05   , Dn1 
	.byte	W06
	.byte		        Cn1 
	.byte		N05   , Dn1 
	.byte	W06
	.byte		        Cn1 
	.byte	W06
	.byte		N05   
	.byte	W06
	.byte	PEND
@ 074   ----------------------------------------
	.byte	PATT
	 .word	macintosh_7_073
@ 075   ----------------------------------------
	.byte	PATT
	 .word	macintosh_7_073
@ 076   ----------------------------------------
	.byte	PATT
	 .word	macintosh_7_073
@ 077   ----------------------------------------
	.byte	PATT
	 .word	macintosh_7_073
@ 078   ----------------------------------------
	.byte	PATT
	 .word	macintosh_7_073
@ 079   ----------------------------------------
	.byte	PATT
	 .word	macintosh_7_073
@ 080   ----------------------------------------
	.byte	PATT
	 .word	macintosh_7_073
@ 081   ----------------------------------------
	.byte	PATT
	 .word	macintosh_7_073
@ 082   ----------------------------------------
	.byte	PATT
	 .word	macintosh_7_073
@ 083   ----------------------------------------
	.byte	PATT
	 .word	macintosh_7_073
@ 084   ----------------------------------------
	.byte	PATT
	 .word	macintosh_7_073
@ 085   ----------------------------------------
	.byte	PATT
	 .word	macintosh_7_001
@ 086   ----------------------------------------
	.byte	PATT
	 .word	macintosh_7_001
@ 087   ----------------------------------------
	.byte	PATT
	 .word	macintosh_7_001
@ 088   ----------------------------------------
	.byte	PATT
	 .word	macintosh_7_001
	.byte	GOTO
	 .word	macintosh_7_B1
macintosh_7_B2:
@ 089   ----------------------------------------
	.byte		VOICE , 124
	.byte		BEND  , c_v+0
	.byte	FINE

@**************** Track 8 (Midi-Chn.8) ****************@

macintosh_8:
	.byte	KEYSH , macintosh_key+0
macintosh_8_B1:
@ 000   ----------------------------------------
	.byte		VOICE , 127
	.byte		PAN   , c_v+6
	.byte		VOL   , 38*macintosh_mvl/mxv
	.byte		BEND  , c_v+0
	.byte	W24
	.byte		N11   , Dn1 , v100
	.byte	W48
	.byte		N11   
	.byte	W24
@ 001   ----------------------------------------
macintosh_8_001:
	.byte	W24
	.byte		N11   , Dn1 , v100
	.byte	W48
	.byte		N11   
	.byte	W24
	.byte	PEND
@ 002   ----------------------------------------
	.byte	PATT
	 .word	macintosh_8_001
@ 003   ----------------------------------------
	.byte	PATT
	 .word	macintosh_8_001
@ 004   ----------------------------------------
	.byte	PATT
	 .word	macintosh_8_001
@ 005   ----------------------------------------
	.byte	PATT
	 .word	macintosh_8_001
@ 006   ----------------------------------------
	.byte	PATT
	 .word	macintosh_8_001
@ 007   ----------------------------------------
	.byte	PATT
	 .word	macintosh_8_001
@ 008   ----------------------------------------
	.byte	PATT
	 .word	macintosh_8_001
@ 009   ----------------------------------------
	.byte	PATT
	 .word	macintosh_8_001
@ 010   ----------------------------------------
	.byte	PATT
	 .word	macintosh_8_001
@ 011   ----------------------------------------
	.byte	PATT
	 .word	macintosh_8_001
@ 012   ----------------------------------------
	.byte	PATT
	 .word	macintosh_8_001
@ 013   ----------------------------------------
	.byte	PATT
	 .word	macintosh_8_001
@ 014   ----------------------------------------
	.byte	PATT
	 .word	macintosh_8_001
@ 015   ----------------------------------------
	.byte	PATT
	 .word	macintosh_8_001
@ 016   ----------------------------------------
	.byte	PATT
	 .word	macintosh_8_001
@ 017   ----------------------------------------
	.byte	PATT
	 .word	macintosh_8_001
@ 018   ----------------------------------------
	.byte	PATT
	 .word	macintosh_8_001
@ 019   ----------------------------------------
	.byte	PATT
	 .word	macintosh_8_001
@ 020   ----------------------------------------
	.byte	PATT
	 .word	macintosh_8_001
@ 021   ----------------------------------------
	.byte	PATT
	 .word	macintosh_8_001
@ 022   ----------------------------------------
	.byte	PATT
	 .word	macintosh_8_001
@ 023   ----------------------------------------
	.byte	PATT
	 .word	macintosh_8_001
@ 024   ----------------------------------------
	.byte	PATT
	 .word	macintosh_8_001
@ 025   ----------------------------------------
	.byte	PATT
	 .word	macintosh_8_001
@ 026   ----------------------------------------
	.byte	PATT
	 .word	macintosh_8_001
@ 027   ----------------------------------------
	.byte	PATT
	 .word	macintosh_8_001
@ 028   ----------------------------------------
	.byte	PATT
	 .word	macintosh_8_001
@ 029   ----------------------------------------
	.byte	PATT
	 .word	macintosh_8_001
@ 030   ----------------------------------------
	.byte	PATT
	 .word	macintosh_8_001
@ 031   ----------------------------------------
	.byte	PATT
	 .word	macintosh_8_001
@ 032   ----------------------------------------
	.byte	PATT
	 .word	macintosh_8_001
@ 033   ----------------------------------------
	.byte	PATT
	 .word	macintosh_8_001
@ 034   ----------------------------------------
	.byte	PATT
	 .word	macintosh_8_001
@ 035   ----------------------------------------
	.byte	PATT
	 .word	macintosh_8_001
@ 036   ----------------------------------------
	.byte	PATT
	 .word	macintosh_8_001
@ 037   ----------------------------------------
	.byte	PATT
	 .word	macintosh_8_001
@ 038   ----------------------------------------
	.byte	PATT
	 .word	macintosh_8_001
@ 039   ----------------------------------------
	.byte	PATT
	 .word	macintosh_8_001
@ 040   ----------------------------------------
	.byte	PATT
	 .word	macintosh_8_001
@ 041   ----------------------------------------
	.byte	PATT
	 .word	macintosh_8_001
@ 042   ----------------------------------------
	.byte	PATT
	 .word	macintosh_8_001
@ 043   ----------------------------------------
	.byte	PATT
	 .word	macintosh_8_001
@ 044   ----------------------------------------
	.byte	PATT
	 .word	macintosh_8_001
@ 045   ----------------------------------------
	.byte	PATT
	 .word	macintosh_8_001
@ 046   ----------------------------------------
	.byte	PATT
	 .word	macintosh_8_001
@ 047   ----------------------------------------
	.byte	PATT
	 .word	macintosh_8_001
@ 048   ----------------------------------------
	.byte	PATT
	 .word	macintosh_8_001
@ 049   ----------------------------------------
	.byte	PATT
	 .word	macintosh_8_001
@ 050   ----------------------------------------
	.byte	PATT
	 .word	macintosh_8_001
@ 051   ----------------------------------------
	.byte	PATT
	 .word	macintosh_8_001
@ 052   ----------------------------------------
	.byte	PATT
	 .word	macintosh_8_001
@ 053   ----------------------------------------
	.byte	PATT
	 .word	macintosh_8_001
@ 054   ----------------------------------------
	.byte	PATT
	 .word	macintosh_8_001
@ 055   ----------------------------------------
	.byte	PATT
	 .word	macintosh_8_001
@ 056   ----------------------------------------
	.byte	PATT
	 .word	macintosh_8_001
@ 057   ----------------------------------------
	.byte	PATT
	 .word	macintosh_8_001
@ 058   ----------------------------------------
	.byte	PATT
	 .word	macintosh_8_001
@ 059   ----------------------------------------
	.byte	PATT
	 .word	macintosh_8_001
@ 060   ----------------------------------------
	.byte	PATT
	 .word	macintosh_8_001
@ 061   ----------------------------------------
	.byte	PATT
	 .word	macintosh_8_001
@ 062   ----------------------------------------
	.byte	PATT
	 .word	macintosh_8_001
@ 063   ----------------------------------------
	.byte	PATT
	 .word	macintosh_8_001
@ 064   ----------------------------------------
	.byte	PATT
	 .word	macintosh_8_001
@ 065   ----------------------------------------
	.byte	PATT
	 .word	macintosh_8_001
@ 066   ----------------------------------------
	.byte	PATT
	 .word	macintosh_8_001
@ 067   ----------------------------------------
	.byte	PATT
	 .word	macintosh_8_001
@ 068   ----------------------------------------
	.byte	PATT
	 .word	macintosh_8_001
@ 069   ----------------------------------------
	.byte	PATT
	 .word	macintosh_8_001
@ 070   ----------------------------------------
	.byte	PATT
	 .word	macintosh_8_001
@ 071   ----------------------------------------
	.byte	PATT
	 .word	macintosh_8_001
@ 072   ----------------------------------------
	.byte	PATT
	 .word	macintosh_8_001
@ 073   ----------------------------------------
	.byte	PATT
	 .word	macintosh_8_001
@ 074   ----------------------------------------
	.byte	PATT
	 .word	macintosh_8_001
@ 075   ----------------------------------------
	.byte	PATT
	 .word	macintosh_8_001
@ 076   ----------------------------------------
	.byte	PATT
	 .word	macintosh_8_001
@ 077   ----------------------------------------
	.byte	PATT
	 .word	macintosh_8_001
@ 078   ----------------------------------------
	.byte	PATT
	 .word	macintosh_8_001
@ 079   ----------------------------------------
	.byte	PATT
	 .word	macintosh_8_001
@ 080   ----------------------------------------
	.byte	PATT
	 .word	macintosh_8_001
@ 081   ----------------------------------------
	.byte	PATT
	 .word	macintosh_8_001
@ 082   ----------------------------------------
	.byte	PATT
	 .word	macintosh_8_001
@ 083   ----------------------------------------
	.byte	PATT
	 .word	macintosh_8_001
@ 084   ----------------------------------------
	.byte	PATT
	 .word	macintosh_8_001
@ 085   ----------------------------------------
	.byte	PATT
	 .word	macintosh_8_001
@ 086   ----------------------------------------
	.byte	PATT
	 .word	macintosh_8_001
@ 087   ----------------------------------------
	.byte	PATT
	 .word	macintosh_8_001
@ 088   ----------------------------------------
	.byte	PATT
	 .word	macintosh_8_001
	.byte	GOTO
	 .word	macintosh_8_B1
macintosh_8_B2:
@ 089   ----------------------------------------
	.byte		VOICE , 127
	.byte		BEND  , c_v+0
	.byte	FINE

@******************************************************@
	.align	2

macintosh:
	.byte	8	@ NumTrks
	.byte	0	@ NumBlks
	.byte	macintosh_pri	@ Priority
	.byte	macintosh_rev	@ Reverb.

	.word	macintosh_grp

	.word	macintosh_1
	.word	macintosh_2
	.word	macintosh_3
	.word	macintosh_4
	.word	macintosh_5
	.word	macintosh_6
	.word	macintosh_7
	.word	macintosh_8

	.end
